<svg xmlns="http://www.w3.org/2000/svg" xmlns:xlink="http://www.w3.org/1999/xlink" viewBox="0 0 480 200"><defs><style>.cls-1{fill:#7e8aa2;}.cls-2{fill:#263248;}.cls-3{fill:#4d411f;}.cls-4{fill:url(#radial-gradient);}.cls-5{fill:#fff;}.cls-6{fill:url(#radial-gradient-2);}.cls-7{fill:url(#radial-gradient-3);}.cls-8{fill:#cc52a8;}.cls-9{fill:#ededed;}.cls-10{fill:#29662b;}.cls-11{fill:url(#linear-gradient);}.cls-12{fill:url(#linear-gradient-2);}.cls-13{fill:url(#linear-gradient-3);}.cls-14{fill:url(#linear-gradient-4);}.cls-15{fill:#4762b2;}.cls-16{fill:url(#radial-gradient-4);}.cls-17{fill:url(#radial-gradient-5);}.cls-18{fill:url(#radial-gradient-6);}.cls-19{fill:#b2b247;}.cls-20{fill:#ffffb0;}.cls-21{fill:#561e2c;}.cls-22{fill:#73283b;}.cls-23{fill:url(#radial-gradient-7);}.cls-24{fill:#ff6187;}.cls-25{fill:url(#radial-gradient-8);}.cls-26{fill:url(#radial-gradient-9);}.cls-27{fill:url(#radial-gradient-10);}.cls-28{fill:url(#radial-gradient-11);}.cls-29{fill:#364d36;}.cls-30{fill:#56cc56;}.cls-31{fill:#3d933d;}.cls-32{fill:#97baff;}.cls-33{fill:#cc7552;}.cls-34{fill:url(#linear-gradient-5);}.cls-35{fill:#4c6fd9;}.cls-36{fill:#b3c2ff;}.cls-37{fill:#066;}.cls-38{fill:url(#linear-gradient-6);}.cls-39{fill:url(#linear-gradient-7);}.cls-40{fill:#4d1f3f;}.cls-41{fill:url(#radial-gradient-12);}.cls-42{fill:url(#radial-gradient-13);}.cls-43{fill:url(#radial-gradient-14);}.cls-44{fill:url(#radial-gradient-15);}.cls-45{fill:#d99e4c;}.cls-46{fill:url(#linear-gradient-8);}.cls-47{fill:url(#linear-gradient-9);}.cls-48{fill:url(#linear-gradient-10);}.cls-49{fill:url(#linear-gradient-11);}.cls-50{fill:url(#linear-gradient-12);}.cls-51{fill:url(#linear-gradient-13);}.cls-52{fill:#81d94c;}.cls-53{fill:url(#radial-gradient-16);}.cls-54{fill:url(#radial-gradient-17);}.cls-55{fill:#b25959;}.cls-56{fill:url(#linear-gradient-14);}.cls-57{fill:url(#linear-gradient-15);}.cls-58{fill:url(#linear-gradient-16);}.cls-59{fill:#548636;}.cls-60{fill:#d1ffb3;}.cls-61{fill:#ffdcb3;}</style><radialGradient id="radial-gradient" cx="210.71" cy="96.68" r="0.94" gradientUnits="userSpaceOnUse"><stop offset="0" stop-color="#fff"/><stop offset="1" stop-color="#4d411f" stop-opacity="0"/></radialGradient><radialGradient id="radial-gradient-2" cx="208.71" cy="96.68" r="0.94" xlink:href="#radial-gradient"/><radialGradient id="radial-gradient-3" cx="206.71" cy="96.68" r="0.94" xlink:href="#radial-gradient"/><linearGradient id="linear-gradient" x1="199.86" y1="101.81" x2="200.96" y2="101.81" gradientTransform="translate(0.37 -0.73) rotate(0.21)" gradientUnits="userSpaceOnUse"><stop offset="0" stop-color="#29662b" stop-opacity="0"/><stop offset="0.02" stop-color="#2a713b" stop-opacity="0.07"/><stop offset="0.07" stop-color="#2e9068" stop-opacity="0.29"/><stop offset="0.13" stop-color="#31ac91" stop-opacity="0.48"/><stop offset="0.18" stop-color="#33c3b3" stop-opacity="0.64"/><stop offset="0.24" stop-color="#35d6ce" stop-opacity="0.77"/><stop offset="0.3" stop-color="#37e5e4" stop-opacity="0.87"/><stop offset="0.36" stop-color="#38f0f3" stop-opacity="0.94"/><stop offset="0.42" stop-color="#39f6fc" stop-opacity="0.99"/><stop offset="0.49" stop-color="#39f8ff"/><stop offset="0.54" stop-color="#39f5fb" stop-opacity="0.98"/><stop offset="0.6" stop-color="#38edef" stop-opacity="0.92"/><stop offset="0.67" stop-color="#36dfdb" stop-opacity="0.83"/><stop offset="0.74" stop-color="#34ccbf" stop-opacity="0.7"/><stop offset="0.82" stop-color="#31b39b" stop-opacity="0.53"/><stop offset="0.9" stop-color="#2e9570" stop-opacity="0.32"/><stop offset="0.97" stop-color="#2a723d" stop-opacity="0.08"/><stop offset="1" stop-color="#29662b" stop-opacity="0"/></linearGradient><linearGradient id="linear-gradient-2" x1="201.86" y1="101.81" x2="202.96" y2="101.81" gradientTransform="translate(0.37 -0.74) rotate(0.21)" xlink:href="#linear-gradient"/><linearGradient id="linear-gradient-3" x1="203.86" y1="101.81" x2="204.96" y2="101.81" gradientTransform="translate(0.37 -0.75) rotate(0.21)" xlink:href="#linear-gradient"/><linearGradient id="linear-gradient-4" x1="205.86" y1="101.81" x2="206.96" y2="101.81" gradientTransform="translate(0.37 -0.75) rotate(0.21)" xlink:href="#linear-gradient"/><radialGradient id="radial-gradient-4" cx="268.09" cy="67.29" r="0.94" gradientUnits="userSpaceOnUse"><stop offset="0" stop-color="#fff"/><stop offset="1" stop-color="#4762b2" stop-opacity="0"/></radialGradient><radialGradient id="radial-gradient-5" cx="266.79" cy="65.62" r="0.94" xlink:href="#radial-gradient-4"/><radialGradient id="radial-gradient-6" cx="265.28" cy="64.38" r="0.94" xlink:href="#radial-gradient-4"/><radialGradient id="radial-gradient-7" cx="232.3" cy="69.86" r="0.94" gradientUnits="userSpaceOnUse"><stop offset="0" stop-color="#ff3f65"/><stop offset="0.11" stop-color="#f43d62" stop-opacity="0.92"/><stop offset="0.34" stop-color="#d63859" stop-opacity="0.71"/><stop offset="0.67" stop-color="#a7304a" stop-opacity="0.37"/><stop offset="1" stop-color="#73283b" stop-opacity="0"/></radialGradient><radialGradient id="radial-gradient-8" cx="234.3" cy="69.86" r="0.94" xlink:href="#radial-gradient-7"/><radialGradient id="radial-gradient-9" cx="232.03" cy="64.84" r="1.83" gradientTransform="translate(243.96 -175.78) rotate(77.23)" xlink:href="#radial-gradient-7"/><radialGradient id="radial-gradient-10" cx="234.61" cy="64.84" r="1.83" xlink:href="#radial-gradient-7"/><radialGradient id="radial-gradient-11" cx="233.32" cy="66.34" r="2.47" xlink:href="#radial-gradient-7"/><linearGradient id="linear-gradient-5" x1="205.98" y1="91.47" x2="205.96" y2="92.36" gradientUnits="userSpaceOnUse"><stop offset="0" stop-color="#cc7552" stop-opacity="0"/><stop offset="0.02" stop-color="#d17c59" stop-opacity="0.09"/><stop offset="0.07" stop-color="#db8d69" stop-opacity="0.3"/><stop offset="0.13" stop-color="#e59d78" stop-opacity="0.49"/><stop offset="0.18" stop-color="#eda984" stop-opacity="0.65"/><stop offset="0.24" stop-color="#f3b48e" stop-opacity="0.77"/><stop offset="0.3" stop-color="#f9bc95" stop-opacity="0.87"/><stop offset="0.36" stop-color="#fcc19b" stop-opacity="0.94"/><stop offset="0.42" stop-color="#fec59e" stop-opacity="0.99"/><stop offset="0.49" stop-color="#ffc69f"/><stop offset="0.57" stop-color="#fec59e" stop-opacity="0.99"/><stop offset="0.64" stop-color="#fcc29b" stop-opacity="0.95"/><stop offset="0.7" stop-color="#f9bc96" stop-opacity="0.88"/><stop offset="0.76" stop-color="#f4b48e" stop-opacity="0.78"/><stop offset="0.81" stop-color="#edaa84" stop-opacity="0.65"/><stop offset="0.87" stop-color="#e69e79" stop-opacity="0.5"/><stop offset="0.92" stop-color="#dc8f6a" stop-opacity="0.32"/><stop offset="0.97" stop-color="#d27e5b" stop-opacity="0.11"/><stop offset="1" stop-color="#cc7552" stop-opacity="0"/></linearGradient><linearGradient id="linear-gradient-6" x1="228.31" y1="174.24" x2="228.32" y2="173.62" gradientTransform="translate(-3.44 4.52) rotate(-1.14)" gradientUnits="userSpaceOnUse"><stop offset="0" stop-color="#066" stop-opacity="0"/><stop offset="0.04" stop-color="#007466" stop-opacity="0.12"/><stop offset="0.17" stop-color="#009b66" stop-opacity="0.43"/><stop offset="0.28" stop-color="#00b966" stop-opacity="0.67"/><stop offset="0.37" stop-color="#00d066" stop-opacity="0.85"/><stop offset="0.45" stop-color="#0d6" stop-opacity="0.96"/><stop offset="0.49" stop-color="#00e266"/><stop offset="0.54" stop-color="#00dc66" stop-opacity="0.95"/><stop offset="0.62" stop-color="#0c6" stop-opacity="0.83"/><stop offset="0.73" stop-color="#00b366" stop-opacity="0.62"/><stop offset="0.86" stop-color="#008f66" stop-opacity="0.33"/><stop offset="1" stop-color="#066" stop-opacity="0"/></linearGradient><linearGradient id="linear-gradient-7" x1="228.29" y1="175.24" x2="228.3" y2="174.62" xlink:href="#linear-gradient-6"/><radialGradient id="radial-gradient-12" cx="219.71" cy="169.77" r="0.94" gradientUnits="userSpaceOnUse"><stop offset="0" stop-color="#fff"/><stop offset="1" stop-color="#4d1f3f" stop-opacity="0"/></radialGradient><radialGradient id="radial-gradient-13" cx="221.71" cy="169.77" r="0.94" xlink:href="#radial-gradient-12"/><radialGradient id="radial-gradient-14" cx="223.71" cy="169.77" r="0.94" xlink:href="#radial-gradient-12"/><radialGradient id="radial-gradient-15" cx="225.71" cy="169.77" r="0.94" xlink:href="#radial-gradient-12"/><linearGradient id="linear-gradient-8" x1="242.98" y1="174.85" x2="244.09" y2="174.85" gradientTransform="matrix(0.71, 0, 0, 0.72, 71.31, 47.84)" gradientUnits="userSpaceOnUse"><stop offset="0" stop-color="#d99e4c" stop-opacity="0"/><stop offset="0.02" stop-color="#dca551" stop-opacity="0.07"/><stop offset="0.07" stop-color="#e4b960" stop-opacity="0.29"/><stop offset="0.13" stop-color="#ebca6e" stop-opacity="0.48"/><stop offset="0.18" stop-color="#f1d979" stop-opacity="0.64"/><stop offset="0.24" stop-color="#f6e582" stop-opacity="0.77"/><stop offset="0.3" stop-color="#faee89" stop-opacity="0.87"/><stop offset="0.36" stop-color="#fdf58e" stop-opacity="0.94"/><stop offset="0.42" stop-color="#fef991" stop-opacity="0.99"/><stop offset="0.49" stop-color="#fffa92"/><stop offset="0.54" stop-color="#fef891" stop-opacity="0.98"/><stop offset="0.6" stop-color="#fcf38d" stop-opacity="0.92"/><stop offset="0.67" stop-color="#f9ea86" stop-opacity="0.83"/><stop offset="0.74" stop-color="#f4de7d" stop-opacity="0.7"/><stop offset="0.82" stop-color="#edcf71" stop-opacity="0.53"/><stop offset="0.9" stop-color="#e5bc63" stop-opacity="0.32"/><stop offset="0.97" stop-color="#dca652" stop-opacity="0.08"/><stop offset="1" stop-color="#d99e4c" stop-opacity="0"/></linearGradient><linearGradient id="linear-gradient-9" x1="244.39" y1="174.85" x2="245.5" y2="174.85" gradientTransform="matrix(0.71, 0, 0, 0.72, 71.31, 47.83)" xlink:href="#linear-gradient-8"/><linearGradient id="linear-gradient-10" x1="245.81" y1="174.85" x2="246.91" y2="174.85" gradientTransform="matrix(0.71, 0, 0, 0.72, 71.31, 47.83)" xlink:href="#linear-gradient-8"/><linearGradient id="linear-gradient-11" x1="247.22" y1="174.85" x2="248.32" y2="174.85" gradientTransform="matrix(0.71, 0, 0, 0.72, 71.31, 47.83)" xlink:href="#linear-gradient-8"/><linearGradient id="linear-gradient-12" x1="248.63" y1="174.85" x2="249.73" y2="174.85" gradientTransform="matrix(0.71, 0, 0, 0.72, 71.31, 47.82)" xlink:href="#linear-gradient-8"/><linearGradient id="linear-gradient-13" x1="250.04" y1="174.85" x2="251.14" y2="174.85" gradientTransform="matrix(0.71, 0, 0, 0.72, 71.31, 47.82)" xlink:href="#linear-gradient-8"/><radialGradient id="radial-gradient-16" cx="259.71" cy="178.77" r="0.94" gradientUnits="userSpaceOnUse"><stop offset="0" stop-color="#fff"/><stop offset="1" stop-color="#81d94c" stop-opacity="0"/></radialGradient><radialGradient id="radial-gradient-17" cx="257.71" cy="178.77" r="0.94" xlink:href="#radial-gradient-16"/><linearGradient id="linear-gradient-14" x1="252.85" y1="67.9" x2="256.79" y2="81.52" xlink:href="#linear-gradient-5"/><linearGradient id="linear-gradient-15" x1="254.41" y1="67.43" x2="258.36" y2="81.05" xlink:href="#linear-gradient-5"/><linearGradient id="linear-gradient-16" x1="255.99" y1="66.95" x2="259.93" y2="80.57" xlink:href="#linear-gradient-5"/></defs><title>wearable</title><g id="Background"><rect class="cls-1" width="480" height="200"/></g><g id="Layer_1" data-name="Layer 1"><path class="cls-2" d="M239.9,38.24a17.62,17.62,0,1,0-17.59-17.66A17.69,17.69,0,0,0,239.9,38.24Z"/><path class="cls-2" d="M288.38,63.43c-.31-.76-7.47-18-26.37-19.11v0h-1.09l-.93,0-.52,0H218c-23.39,0-18.56,70.72-18.56,70.72a6.88,6.88,0,1,0,13.7-.34C212.89,106.75,211.66,58,218,58V187.37h0a10.31,10.31,0,0,0,20.57,0h0V115.82h2.75v71.55h0a10.31,10.31,0,0,0,20.57,0h0V80.29l-10.73,3.25a7.88,7.88,0,0,1-4.57-15.08L262,63.82V58.14a16,16,0,0,1,8.86,4L247,69.42a6.88,6.88,0,1,0,4,13.17l33-10a6.88,6.88,0,0,0,4.38-9.16Z"/><polygon class="cls-3" points="213.35 97.97 198.51 97.91 198.53 95.38 213.37 95.44 213.35 97.97"/><circle class="cls-4" cx="210.71" cy="96.68" r="0.94"/><circle class="cls-5" cx="210.71" cy="96.68" r="0.3"/><circle class="cls-6" cx="208.71" cy="96.68" r="0.94"/><circle class="cls-5" cx="208.71" cy="96.68" r="0.3"/><circle class="cls-7" cx="206.71" cy="96.68" r="0.94"/><circle class="cls-5" cx="206.71" cy="96.68" r="0.3"/><rect class="cls-8" x="198.67" y="105.44" width="14.84" height="5.53" transform="translate(-2.31 4.52) rotate(-1.25)"/><path class="cls-9" d="M202.85,108.46l.17.17-.16.17-1.24,0-.17-.16.17-.17Zm0,1.45.17.17-.16.17-1.06,0-.17-.16.17-.17Zm.17-1.25.17.17,0,1.05-.16.17-.17-.16,0-1.06Zm1.43-.23.17.17-.16.17-1.23,0-.17-.17.16-.17Z"/><path class="cls-9" d="M201.41,106.47l.34.33,0,1.06-.33.33Zm1.43,1.39.18.17v.16l-1.55,0,.33-.34Zm.17-1.25.17.17,0,1.05L203,108l-.17-.16,0-1.05Zm1.23-.22.17.17-.17.17-1,0-.17-.17.16-.17Zm0,1.45.17.16-.17.17h-.18l-.17-.16.17-.17Zm.17-1.25.17.17,0,1.05-.16.17-.17-.17,0-1.05Z"/><polygon class="cls-10" points="213.38 103.97 198.54 104.08 198.5 99.56 213.34 99.44 213.38 103.97"/><rect class="cls-11" x="199.86" y="100.73" width="1.1" height="2.16" transform="translate(-0.37 0.73) rotate(-0.21)"/><rect class="cls-12" x="201.86" y="100.73" width="1.1" height="2.16" transform="translate(-0.37 0.74) rotate(-0.21)"/><rect class="cls-13" x="203.86" y="100.73" width="1.1" height="2.16" transform="translate(-0.37 0.75) rotate(-0.21)"/><rect class="cls-14" x="205.86" y="100.73" width="1.1" height="2.16" transform="translate(-0.37 0.76) rotate(-0.21)"/><path class="cls-15" d="M269.22,77.5c2.94-5.58.59-12.13-4.35-14.17l-1.67.53c4.4,2.36,7,8,4.34,14.18Z"/><circle class="cls-16" cx="268.09" cy="67.29" r="0.94"/><circle class="cls-5" cx="268.09" cy="67.29" r="0.3"/><circle class="cls-17" cx="266.79" cy="65.62" r="0.94"/><circle class="cls-5" cx="266.79" cy="65.62" r="0.3"/><circle class="cls-18" cx="265.28" cy="64.38" r="0.94"/><circle class="cls-5" cx="265.28" cy="64.38" r="0.3"/><path class="cls-19" d="M276.39,75.31c2.94-5.58.59-12.13-4.35-14.17L266,63c4.4,2.36,7,8,4.34,14.18Z"/><path class="cls-20" d="M272.47,62.3l0-.18.27.06.94,1,0,.18-.28-.07Zm1.22,1.24,0-.19.28.07.93.95,0,.18-.28-.07Zm.89.4,0-.19.26.06.12.13-.06.37Z"/><path class="cls-20" d="M270.22,63.35l0-.19.28.07.78.79,0,.18-.28-.07Zm0-.22,0-.19,1-.37.28.07,0,.19-1,.36Zm1.07,1.09,0-.19,1-.37.28.07,0,.19-1,.37Zm.24-1.38,0-.19.28.07.91.93-.14.05-.29-.07Zm.83,2.47,0-.19,1-.36.28.07,0,.19-1,.36Zm.24-1.38,0-.19.14-.05.91.93,0,.18-.28-.07Z"/><path class="cls-20" d="M268.36,64l0-.19.28.07.78.79,0,.18-.28-.07Zm0-.22,0-.19,1.09-.41.28.07,0,.19-1.08.4Zm1,1.31,0-.18.28.07.77.8,0,.19-.28-.07Zm0-.22,0-.19.87-.33.28.07,0,.19-.87.33ZM270.54,66l0-.19,1.08-.4.28.07,0,.18-1.09.41Z"/><path class="cls-21" d="M233.54,64.5l-.55,0c-8.39-.79-12.52-19.27-12.69-20.06a.5.5,0,0,1,1-.21c0,.19,4.15,18.56,11.81,19.28,4.8.44,10.11-6.07,15.77-19.37a.5.5,0,0,1,.92.39C244.13,57.78,238.67,64.5,233.54,64.5Z"/><rect class="cls-22" x="229.56" y="62.58" width="7.51" height="9.01" rx="1" ry="1"/><circle class="cls-23" cx="232.3" cy="69.86" r="0.94"/><circle class="cls-24" cx="232.3" cy="69.86" r="0.3"/><circle class="cls-25" cx="234.3" cy="69.86" r="0.94"/><circle class="cls-24" cx="234.3" cy="69.86" r="0.3"/><circle class="cls-26" cx="232.03" cy="64.84" r="1.83" transform="translate(117.49 276.79) rotate(-77.23)"/><circle class="cls-27" cx="234.61" cy="64.84" r="1.83"/><circle class="cls-28" cx="233.32" cy="66.34" r="2.47"/><path class="cls-24" d="M234.27,63.76a1.34,1.34,0,0,0-1,.39h0a1.34,1.34,0,1,0-1.9,1.9h0L233.32,68l1.91-1.91a1.35,1.35,0,0,0-1-2.3Z"/><path class="cls-29" d="M244.36,61.78c-5.33,0-11.94-5.79-19.69-17.26a.5.5,0,0,1,.83-.56c8.33,12.33,15.16,17.94,20.31,16.65,7.07-1.77,8.65-16.27,8.67-16.42a.51.51,0,0,1,.55-.45.5.5,0,0,1,.45.55c-.06.63-1.68,15.35-9.42,17.28A7,7,0,0,1,244.36,61.78Z"/><circle class="cls-10" cx="244.89" cy="62.63" r="3.92"/><path class="cls-30" d="M242,62.38a.25.25,0,0,1-.25-.29,3.16,3.16,0,0,1,2.57-2.57h0a.25.25,0,0,1,.25.25v1a.25.25,0,0,1-.18.24,1.67,1.67,0,0,0-1.17,1.17.25.25,0,0,1-.24.18Z"/><path class="cls-30" d="M246.73,62.38a.25.25,0,0,1-.24-.18A1.67,1.67,0,0,0,245.32,61a.25.25,0,0,1-.18-.24v-1a.25.25,0,0,1,.25-.25h0A3.16,3.16,0,0,1,248,62.08a.25.25,0,0,1-.25.29Z"/><path class="cls-30" d="M244.34,65.74a3.16,3.16,0,0,1-2.57-2.57.25.25,0,0,1,.25-.29h1a.25.25,0,0,1,.24.18,1.67,1.67,0,0,0,1.17,1.17.25.25,0,0,1,.18.24v1a.25.25,0,0,1-.25.25Z"/><path class="cls-31" d="M246.73,63.13a1.91,1.91,0,0,1-1.34,1.34v1a2.91,2.91,0,0,0,2.36-2.36Z"/><polygon class="cls-15" points="213.52 89.05 198.69 88.5 198.85 83.97 213.68 84.52 213.52 89.05"/><path class="cls-32" d="M206.51,86.4l-.16.15-.15-.16,0-.69.16-.15.15.16Zm.85,1.26-.16.15-.72,0-.15-.16.16-.15.72,0Zm0-1-.16.15-.72,0-.15-.16.16-.15.72,0Zm0-1-.16.15-.72,0-.15-.16.16-.15.72,0Zm.11,1.93-.16.15-.15-.16,0-.69.17-.16h.15Zm.06-1.74,0,.86h-.15l-.16-.17,0-.69.16-.15Z"/><path class="cls-32" d="M208,87.51l-.16.15-.15-.16,0-.69.16-.15.15.16Zm0-1-.16.15-.15-.16,0-.69.16-.15.15.16Zm.85,1.26-.16.15-.72,0-.15-.16.16-.15.72,0Zm0-1-.16.15-.72,0-.15-.16.16-.15.72,0Zm0-1-.16.15-.72,0-.15-.16.16-.15.72,0Zm.11,1.93-.16.15-.15-.16,0-.69.16-.15.15.16Zm0-1-.16.15-.15-.16,0-.69.16-.15.15.16Z"/><path class="cls-32" d="M209.74,87.74l-.16.15-.15-.16v-.15l.16-.15.15.16Z"/><path class="cls-32" d="M210.11,87.58l-.16.15-.15-.16,0-.69.16-.15.15.16Zm0-1-.16.15-.15-.16,0-.69.16-.15.15.16Zm.85,1.26-.16.15-.72,0-.15-.16.16-.15.72,0Zm0-1-.16.15-.72,0-.15-.16.16-.15.72,0Zm0-1-.16.15-.72,0-.15-.16.16-.15.72,0Zm.11,1.93-.16.15-.15-.16,0-.69.16-.15.15.16Zm0-1-.16.15-.15-.16,0-.69.16-.15.15.16Z"/><polygon class="cls-33" points="213.35 94.34 198.51 94.04 198.59 89.52 213.43 89.81 213.35 94.34"/><polygon class="cls-34" points="213.38 92.53 198.54 92.24 198.56 91.32 213.39 91.62 213.38 92.53"/><rect class="cls-35" x="240.71" y="164.78" width="22.28" height="7.24"/><path class="cls-36" d="M251.21,166l-.31.31h-1.61L249,166l.31-.31h1.61Zm0,4.19-.31.31H249.3l-.31-.31.31-.31h1.61Zm0-2.09-.31.31h-1.27l-.31-.31.31-.31h1.27Zm.35-.35-.31.31-.31-.31v-1.38l.3-.31.32.31Zm0,2.09-.31.31-.31-.31v-1.39l.3-.31.32.31Z"/><path class="cls-36" d="M252.92,170.2l-.31.31-.31-.31v-.31l.31-.31.31.31Z"/><path class="cls-36" d="M253.89,170.2l-.31.31-.31-.31v-.31l.31-.31.31.31Z"/><path class="cls-36" d="M254.87,170.2l-.31.31-.31-.31v-.31l.31-.31.31.31Z"/><rect class="cls-37" x="217.16" y="172.07" width="22.28" height="7.24"/><polygon class="cls-38" points="239.44 174.31 217.17 174.31 217.16 173.39 239.42 173.39 239.44 174.31"/><polygon class="cls-39" points="239.44 175.31 217.17 175.31 217.16 174.39 239.42 174.39 239.44 175.31"/><rect class="cls-40" x="217.21" y="168.24" width="22.28" height="3.06"/><circle class="cls-41" cx="219.71" cy="169.77" r="0.94"/><circle class="cls-5" cx="219.71" cy="169.77" r="0.3"/><circle class="cls-42" cx="221.71" cy="169.77" r="0.94"/><circle class="cls-5" cx="221.71" cy="169.77" r="0.3"/><circle class="cls-43" cx="223.71" cy="169.77" r="0.94"/><circle class="cls-5" cx="223.71" cy="169.77" r="0.3"/><circle class="cls-44" cx="225.71" cy="169.77" r="0.94"/><circle class="cls-5" cx="225.71" cy="169.77" r="0.3"/><rect class="cls-45" x="240.74" y="173.32" width="22.28" height="3.06"/><rect class="cls-46" x="242.99" y="174.07" width="0.78" height="1.56" transform="translate(-0.64 0.89) rotate(-0.21)"/><rect class="cls-47" x="243.99" y="174.07" width="0.78" height="1.56" transform="translate(-0.64 0.9) rotate(-0.21)"/><rect class="cls-48" x="244.99" y="174.07" width="0.78" height="1.56" transform="translate(-0.64 0.9) rotate(-0.21)"/><rect class="cls-49" x="245.99" y="174.07" width="0.78" height="1.56" transform="translate(-0.64 0.9) rotate(-0.21)"/><rect class="cls-50" x="246.99" y="174.07" width="0.78" height="1.56" transform="translate(-0.64 0.91) rotate(-0.21)"/><rect class="cls-51" x="247.99" y="174.07" width="0.78" height="1.56" transform="translate(-0.64 0.91) rotate(-0.21)"/><rect class="cls-52" x="240.74" y="177.32" width="22.28" height="3.06"/><circle class="cls-53" cx="259.71" cy="178.77" r="0.94"/><circle class="cls-5" cx="259.71" cy="178.77" r="0.3"/><circle class="cls-54" cx="257.71" cy="178.77" r="0.94"/><circle class="cls-5" cx="257.71" cy="178.77" r="0.3"/><path class="cls-55" d="M259.54,80.58c2.94-5.58.59-12.13-4.35-14.17l-6,1.85c4.4,2.36,7,8,4.34,14.18Z"/><path class="cls-56" d="M255.81,81.72c2.94-5.58.59-12.13-4.35-14.17l-.82.25c4.4,2.36,7,8,4.34,14.18Z"/><path class="cls-57" d="M257.38,81.25c2.94-5.58.59-12.13-4.35-14.17l-.82.25c4.4,2.36,7,8,4.34,14.18Z"/><path class="cls-58" d="M258.95,80.77c2.94-5.58.59-12.13-4.35-14.17l-.82.25c4.4,2.36,7,8,4.34,14.18Z"/><path class="cls-59" d="M266.64,78.31c2.94-5.58.59-12.13-4.35-14.17l-6,1.85c4.4,2.36,7,8,4.34,14.18Z"/><path class="cls-60" d="M261,65.72l0-.2.34.07.68.61,0,.2-.35-.07Zm0-.23,0-.2L262,65l.35.07,0,.2-.91.3Zm1,1.16,0-.2.35.07.68.61,0,.2-.35-.07Zm.33-1.38,0-.2.34.07.68.61,0,.2-.35-.07Zm.75,2.07,0-.2.91-.3.35.07,0,.2-.91.3Zm.28-1.14,0-.2.34.08.68.61,0,.2-.35-.07Z"/><path class="cls-60" d="M259,66.38l0-.2.34.07.68.61,0,.2L259.7,67Zm0-.23,0-.2.91-.3.35.07,0,.2-.91.3Zm1,1.16,0-.2.35.07.68.61,0,.2-.35-.07Zm.33-1.38,0-.2.34.07.68.61,0,.2-.35-.07Zm.75,2.07,0-.2.91-.3.35.07,0,.2-.91.3Zm.28-1.14,0-.2.34.08.68.61,0,.2-.35-.07Z"/><path d="M237.06,21.78s-9-9.9-9.14-10.06a1.23,1.23,0,0,0-1.07-.3,1.27,1.27,0,0,0-1,.49c-.18.28-2.69,4.19-2.76,4.57a.49.49,0,0,0,.6.63c.47-.08,1.43-4.27,3.07-4.58s10.21,10.78,10.21,10.78Z"/><path d="M238.53,27.53a.66.66,0,0,1-.65-.9l.37-4.26a1.3,1.3,0,0,1,1.17-.9h7.72a.65.65,0,0,1,.64.9l-2.1,4.26a1.29,1.29,0,0,1-1.16.9h-6m11.25,0a.65.65,0,0,1-.64-.9l.37-4.26a1.3,1.3,0,0,1,1.16-.9h7.73a.66.66,0,0,1,.64.9l-2.1,4.26a1.3,1.3,0,0,1-1.16.9h-6M258.53,21h-7.73a1.75,1.75,0,0,0-1.1.43h-1.58a1,1,0,0,0-.85-.43h-7.72a1.91,1.91,0,0,0-1.72,1.33l0,.09-.36,4.22a1,1,0,0,0,1,1.29h6a1.93,1.93,0,0,0,1.7-1.29l1.72-3.48H249l-.3,3.48a1,1,0,0,0,1,1.29h6a1.92,1.92,0,0,0,1.7-1.29l2.08-4.22,0-.09a1,1,0,0,0-.94-1.33"/><path class="cls-45" d="M258.4,21.47h-7.73a1.3,1.3,0,0,0-1.16.9l-.37,4.26a.65.65,0,0,0,.64.9h6a1.3,1.3,0,0,0,1.16-.9l2.1-4.26a.66.66,0,0,0-.64-.9"/><path class="cls-45" d="M247.14,21.47h-7.72a1.3,1.3,0,0,0-1.17.9l-.37,4.26a.66.66,0,0,0,.65.9h6a1.29,1.29,0,0,0,1.16-.9l2.1-4.26a.65.65,0,0,0-.64-.9"/><polygon class="cls-61" points="242.75 22.34 239.23 22.34 240.53 23.84 239.72 26.63 243.24 26.63 244.05 23.84 242.75 22.34"/><polygon points="239.42 22.34 238.01 22.34 233.69 17.36 231.58 17.36 230.78 20.16 236.39 26.63 239.91 26.63 240.72 23.84 239.42 22.34"/></g></svg>