<svg xmlns="http://www.w3.org/2000/svg" xmlns:xlink="http://www.w3.org/1999/xlink" viewBox="0 0 480 200"><defs><style>.cls-1{fill:#04bfbf;}.cls-2{fill:#284907;}.cls-3{fill:#ccc;}.cls-4{fill:#2b3a42;}.cls-5{fill:#fff;}.cls-6{fill:#1d17ff;}.cls-7{fill:#588f27;}.cls-8{fill:#e5e5e5;}.cls-9{fill:#f5541f;}.cls-10{fill:none;stroke:#000;stroke-linecap:round;stroke-miterlimit:10;}.cls-11{fill:url(#linear-gradient);}</style><linearGradient id="linear-gradient" x1="414.54" y1="119.28" x2="431.46" y2="119.28" gradientUnits="userSpaceOnUse"><stop offset="0" stop-color="#fff"/><stop offset="0.01" stop-color="#fffdfc"/><stop offset="0.11" stop-color="#ffdad4"/><stop offset="0.22" stop-color="#ffbdb2"/><stop offset="0.34" stop-color="#ffa595"/><stop offset="0.47" stop-color="#ff927f"/><stop offset="0.61" stop-color="#ff8570"/><stop offset="0.77" stop-color="#ff7d67"/><stop offset="1" stop-color="#ff7b64"/></linearGradient></defs><title>mobile_ekg</title><g id="Background"><rect class="cls-1" width="480" height="200"/></g><g id="Layer_1" data-name="Layer 1"><path class="cls-2" d="M480,29.38c-40.18,10-68.24,32.76-68.24,59.23s28.06,49.21,68.24,59.23Z"/><path class="cls-2" d="M342.5,13c-49,0-92.86,14.56-122.12,37.46C190.63,29.48,144.41,16,92.5,16,58.13,16,26.25,21.92,0,32V200H480V64.77C452.27,33.79,401.08,13,342.5,13Z"/><path class="cls-3" d="M223.69,47.17l-2.09.1a.3.3,0,0,0-.27.37h2.36Z"/><path class="cls-4" d="M214.84,47.58h11.74C251.5,50.33,272.54,74,289.06,82l-53.58,2.48C239.58,75,227.89,54.92,214.84,47.58Z"/><path class="cls-5" d="M263.75,74.21c-.54-5.64-9.78-7.4-15.88-8.44-1.56-.27-2.9-.5-4-.76-5.3-1.32-9.43-4.87-12.29-10.54-3.65-6.5-9.57-7.21-10-7.2l2.09-.1c.55.09,5.81-.29,9.67,6.31,2.63,5.21,6.33,8.41,11,9.58,1,.25,2.3.47,3.82.73,6.7,1.15,16.82,2.95,17.51,10.11Z"/><path class="cls-6" d="M264.53,74.09c-.63-6.25-10.2-8-16.53-9.06-1.54-.26-2.87-.49-3.91-.75-5.08-1.27-9-4.68-11.8-10.15a12.87,12.87,0,0,0-9.63-6.91l.47,0c.1,0,6.08,0,9.61,6.71,2.69,5.34,6.55,8.66,11.48,9.89,1,.25,2.34.48,3.87.74,6.47,1.11,16.26,2.85,16.92,9.48Z"/><path class="cls-7" d="M322.5,70c-81.68,0-152.58,22.77-188.15,56.17C124.74,81.59,74,47.58,12.89,47.58c-4.36,0-8.65.18-12.89.52V200H480V104.51C441.12,83.32,385,70,322.5,70Z"/><path class="cls-8" d="M132.54,101.62l8.43-.54a7.34,7.34,0,0,1,2.43,1.59h-6Z"/><path class="cls-4" d="M480,171.5H267.5c-84.5,0-120.5-24.5-120-43s20.17-25.08,20.17-25.08S74,94.89,52.5,126.5c-17.46,25.68,0,61.1,7.23,73.5H480Z"/><g id="Person_Jogging" data-name="Person Jogging"><path class="cls-9" d="M442,103l-5.73-8.42a5.76,5.76,0,0,0-2.12-1.88l-11.88-6.11,0-.07L401,77.36l-.26-.11-.56-.24,0,0a5.74,5.74,0,0,0-1.53-.22l-20.95-.1h0a5.75,5.75,0,0,0-3.52,1.21L353.46,94a5.75,5.75,0,0,0,7,9.09l19.1-14.81,15.71.08-18.73,43.59.11,0-21.85,50.85a8.5,8.5,0,1,0,15.62,6.71l19.31-44.94L411,153.89l-17.33,20.58a8.5,8.5,0,1,0,13,10.95l24.65-29.27a8.5,8.5,0,0,0-3.08-13.26L402.9,131.78,417.76,97.2l9.87,5.07,4.91,7.21A5.75,5.75,0,0,0,442,103Z"/><path class="cls-9" d="M423.68,50.22a14.36,14.36,0,1,0,0,26.26,1.82,1.82,0,1,0,3.12-1.85,14.18,14.18,0,0,0,4.28-5.55A14.43,14.43,0,0,0,423.68,50.22Z"/><path class="cls-4" d="M437.72,101.09c2,0,3.39.5,4.44,2.08L437.29,96a5.77,5.77,0,0,0-4.92-2.46,5.83,5.83,0,0,0-4.87,9l5.29,7.27a4.78,4.78,0,0,1-.9-2.89A5.83,5.83,0,0,1,437.72,101.09Z"/><line class="cls-10" x1="427.76" y1="97.8" x2="432" y2="103.4"/></g><path class="cls-5" d="M427.89,97.89c-5.83,4.38-10.72,17-16.91,33-8.08,20.85-18.14,46.8-31,52.12-15.52,6.43-32.93,2.83-53.08-1.34-9.17-1.9-18.65-3.86-28.89-5.11-20.53-2.51-40.05-.08-60.71,2.5-13,1.63-26.54,3.31-40.55,3.69-21.6.62-35.37-8.87-47.52-17.22-7.43-5.1-13.84-9.51-21-10.9-9.79-1.92-17.94-6.68-21.79-12.74a15.06,15.06,0,0,1-2-12.15c2.73-10.91,28.49-28.48,36.6-28.57a16.24,16.24,0,0,0-9.44.06c-12.32,4.44-30.8,14.26-33.95,26.81a22.1,22.1,0,0,0,2.89,17.61c4.93,7.76,14.54,13.54,26.35,15.85,5.71,1.12,11.56,5.14,18.35,9.8,12.39,8.51,27.83,19.11,51.68,18.45,14.35-.39,28-2.1,41.22-3.75,20.22-2.52,39.32-4.9,59-2.5,10,1.22,19.29,3.15,28.32,5,12.64,2.62,24.26,5,35.29,5a56.14,56.14,0,0,0,21.89-4.07c15.61-6.47,25.82-32.81,34.83-56.06,5.09-13.13,10.35-26.71,14.59-29.89Z"/><path class="cls-11" d="M415.25,136.49l-.71-.26C415,134.92,426.3,104,431,102.07l.41.57C427.78,104.16,418.47,127.63,415.25,136.49Z"/><path class="cls-6" d="M429.07,100a3.29,3.29,0,0,1,.34-.08l-.33-.43-.19,0-.17.07a4.94,4.94,0,0,0-.54.25.25.25,0,0,0-.12.25,2,2,0,0,1,0,.51l-.19-.06-.28-.13a.25.25,0,0,0-.28,0l-.08.07-.34.3c-.36-.16-.72-.31-1.09-.44a.25.25,0,0,0-.28.39c.53.68,1.11,1.38,1.76,2.1-.69-.4-1.42-.8-2.21-1.22a.25.25,0,0,0-.33.34q.24.43.49.84l-.23.35-.16.24a.25.25,0,0,0,0,.32,5.15,5.15,0,0,1,.45.5,5.35,5.35,0,0,1-.64-.18.25.25,0,0,0-.3.11l-.94,1.66a.25.25,0,0,0,0,.29c.11.12.23.28.28.34a2,2,0,0,1-.45,0,.25.25,0,0,0-.26.13l-.2.4-1.12-.15a.25.25,0,0,0-.27.16.25.25,0,0,0,.09.3l2.33,1.56-2.47-.77a.25.25,0,0,0-.26.41l.64.69-.28.61a.25.25,0,0,0,.08.31,5.07,5.07,0,0,1,.51.41,5.26,5.26,0,0,1-.65-.1.25.25,0,0,0-.28.14l-.74,1.71a.25.25,0,0,0,.06.29,2,2,0,0,1,.29.31,2.16,2.16,0,0,1-.42,0,.22.22,0,0,0-.25.15l-.17.41-1.12-.07a.23.23,0,0,0-.26.18.25.25,0,0,0,.11.29l2.42,1.4-2.52-.62a.24.24,0,0,0-.28.12.25.25,0,0,0,0,.3l.68.65-.25.61a.25.25,0,0,0,.1.3,5.16,5.16,0,0,1,.52.39,5.14,5.14,0,0,1-.65-.08.25.25,0,0,0-.28.15l-.68,1.73a.25.25,0,0,0,.07.28,2,2,0,0,1,.29.3,1.8,1.8,0,0,1-.42,0,.27.27,0,0,0-.25.16l-.16.41-1.12,0a.26.26,0,0,0-.25.18.25.25,0,0,0,.12.29l2.45,1.34-2.52-.57a.26.26,0,0,0-.28.13.25.25,0,0,0,.05.3l.69.64-.23.61a.25.25,0,0,0,.1.3,5.16,5.16,0,0,1,.53.38,5,5,0,0,1-.65-.07.25.25,0,0,0-.27.16l-.65,1.73a.25.25,0,0,0,.08.28,2,2,0,0,1,.3.3,2.08,2.08,0,0,1-.42,0,.24.24,0,0,0-.24.16l-.15.41-1.12,0a.24.24,0,0,0-.25.18.25.25,0,0,0,.12.29l2.45,1.32-2.51-.56a.25.25,0,0,0-.22.43l.69.63-.23.61a.25.25,0,0,0,.1.3,5.17,5.17,0,0,1,.53.38,5.14,5.14,0,0,1-.64-.07.25.25,0,0,0-.28.16l-.65,1.73a.25.25,0,0,0,.08.28,1.94,1.94,0,0,1,.3.3,2.11,2.11,0,0,1-.42,0,.24.24,0,0,0-.24.16l-.16.41-1.12,0a.25.25,0,0,0-.25.18.25.25,0,0,0,.12.29l2.44,1.33-2.51-.57a.25.25,0,0,0-.28.13.25.25,0,0,0,.05.3l.69.64-.23.61a.25.25,0,0,0,.1.3,5.09,5.09,0,0,1,.53.38,5.22,5.22,0,0,1-.64-.07.24.24,0,0,0-.28.16l-.67,1.72a.25.25,0,0,0,.07.28,2,2,0,0,1,.29.3,2,2,0,0,1-.42,0,.29.29,0,0,0-.25.16l-.16.41-1.12-.06a.26.26,0,0,0-.25.18.25.25,0,0,0,.12.29l2.42,1.36-2.5-.6a.25.25,0,0,0-.28.12.25.25,0,0,0,0,.3l.68.64-.24.6a.25.25,0,0,0,.1.3,5.08,5.08,0,0,1,.52.39,5.19,5.19,0,0,1-.64-.08.25.25,0,0,0-.28.15l-.7,1.71a.25.25,0,0,0,.07.28,2,2,0,0,1,.29.31,2.1,2.1,0,0,1-.42,0,.23.23,0,0,0-.25.15l-.17.4-1.12-.08a.24.24,0,0,0-.26.17.25.25,0,0,0,.11.29l2.38,1.4-2.48-.65a.26.26,0,0,0-.28.12.25.25,0,0,0,0,.3l.67.66-.25.6a.25.25,0,0,0,.09.3,5.29,5.29,0,0,1,.51.4,5.35,5.35,0,0,1-.64-.09.25.25,0,0,0-.28.15l-.74,1.69a.25.25,0,0,0,.06.29,2,2,0,0,1,.28.31,1.84,1.84,0,0,1-.42,0,.25.25,0,0,0-.25.15l-.18.4-1.11-.12a.25.25,0,0,0-.16.46l2.34,1.47-2.45-.72a.25.25,0,0,0-.25.41l.65.68-.27.59a.25.25,0,0,0,.08.31,5.13,5.13,0,0,1,.5.41,5.07,5.07,0,0,1-.64-.12.25.25,0,0,0-.29.14l-.79,1.66a.25.25,0,0,0,.05.29,2,2,0,0,1,.27.32,2.17,2.17,0,0,1-.42,0,.26.26,0,0,0-.26.14l-.19.39-1.11-.16a.24.24,0,0,0-.27.16.25.25,0,0,0,.09.3l2.28,1.55-2.42-.81a.25.25,0,0,0-.29.1.25.25,0,0,0,0,.3l.62.7-.29.58a.25.25,0,0,0,.07.31,5.07,5.07,0,0,1,.48.43,5.06,5.06,0,0,1-.63-.14.25.25,0,0,0-.29.12l-.86,1.62a.25.25,0,0,0,0,.29,2,2,0,0,1,.25.33,2.54,2.54,0,0,1-.41,0,.25.25,0,0,0-.26.13l-.21.38-1.1-.22a.25.25,0,0,0-.2.44l2.18,1.66-2.36-.94a.25.25,0,0,0-.29.39l.58.73-.33.55a.25.25,0,0,0,0,.31,5.05,5.05,0,0,1,.45.46,5.09,5.09,0,0,1-.62-.18.25.25,0,0,0-.3.1l-1,1.56a.25.25,0,0,0,0,.29,2.05,2.05,0,0,1,.23.35,2,2,0,0,1-.41-.06.25.25,0,0,0-.27.11l-.23.36-1.08-.29a.25.25,0,0,0-.29.12.25.25,0,0,0,.05.31l2,1.81-2.27-1.11a.25.25,0,0,0-.32.36l.52.77-.37.52a.25.25,0,0,0,0,.32,5.25,5.25,0,0,1,.41.49,5.33,5.33,0,0,1-.6-.23.25.25,0,0,0-.31.08l-1.09,1.45a.25.25,0,0,0,0,.29,2.09,2.09,0,0,1,.2.37,2,2,0,0,1-.4-.1.25.25,0,0,0-.28.08l-.27.33-1-.41a.25.25,0,0,0-.27.4l1.89,2.06-2.18-1.4a.25.25,0,0,0-.3,0,.25.25,0,0,0-.05.3l.43.83-.08.09c-.11.13-.22.25-.33.37a.25.25,0,0,0,0,.32,5.06,5.06,0,0,1,.34.53,5.19,5.19,0,0,1-.56-.31.25.25,0,0,0-.32,0l-1.26,1.28a.25.25,0,0,0,0,.29,2.08,2.08,0,0,1,.14.39,2,2,0,0,1-.37-.16.25.25,0,0,0-.29,0l-.31.28-.95-.57a.25.25,0,0,0-.31,0,.25.25,0,0,0,0,.31c.52.77,1,1.56,1.53,2.34-.64-.59-1.28-1.18-1.9-1.77a.25.25,0,0,0-.41.26l.29.89-.27.2-.23.16a.25.25,0,0,0-.08.31,5,5,0,0,1,.24.59,5.19,5.19,0,0,1-.47-.41.25.25,0,0,0-.31,0l-.57.38-.34.22c-.19.12-.37.25-.57.35a.25.25,0,0,0-.13.28,2,2,0,0,1,0,.4,2.09,2.09,0,0,1-.32-.24.25.25,0,0,0-.3,0l-.34.19-.77-.81a.25.25,0,0,0-.42.25c.3.88.6,1.77.88,2.67-.46-.74-.91-1.49-1.34-2.23a.25.25,0,0,0-.47.13l0,.92-.08,0a4.22,4.22,0,0,1-.46.17.25.25,0,0,0-.18.28,5.12,5.12,0,0,1,0,.62,5,5,0,0,1-.32-.53.25.25,0,0,0-.3-.12,4.92,4.92,0,0,1-.63.18l-1,.24a.25.25,0,0,0-.19.21,1.91,1.91,0,0,1-.09.39,2,2,0,0,1-.24-.35.25.25,0,0,0-.26-.13l-.43.07-.52-1a.25.25,0,0,0-.28-.13.25.25,0,0,0-.19.25l.07,2.72-.74-2.41a.24.24,0,0,0-.25-.18.25.25,0,0,0-.24.19l-.21.92-.63.1a.25.25,0,0,0-.21.23,5,5,0,0,1-.08.65,4.89,4.89,0,0,1-.24-.59.25.25,0,0,0-.27-.17l-.43,0-1.38.13a.25.25,0,0,0-.22.19.23.23,0,1,1-.34,0,.25.25,0,0,0-.25-.15l-.43,0-.43-1a.25.25,0,0,0-.27-.15.25.25,0,0,0-.21.23l-.16,2.74-.52-2.46a.25.25,0,0,0-.23-.2.24.24,0,0,0-.25.17l-.29.89-.64,0a.25.25,0,0,0-.24.21,5.12,5.12,0,0,1-.13.62,5.08,5.08,0,0,1-.19-.62.26.26,0,0,0-.25-.19l-1.83.06a.25.25,0,0,0-.23.18,2,2,0,0,1-.17.39,2,2,0,0,1-.17-.37.25.25,0,0,0-.24-.17h-.42l-.35-1.06a.23.23,0,0,0-.26-.17.25.25,0,0,0-.23.21l-.38,2.7-.33-2.52a.25.25,0,0,0-.22-.21.26.26,0,0,0-.26.15l-.35.86h-.64a.24.24,0,0,0-.25.2,5,5,0,0,1-.18.62,5,5,0,0,1-.14-.62.25.25,0,0,0-.24-.21l-.79,0c-.34,0-.69,0-1,0a.24.24,0,0,0-.25.16,1.93,1.93,0,0,1-.19.36,2.1,2.1,0,0,1-.15-.4.25.25,0,0,0-.22-.18l-.43,0-.28-1.09a.25.25,0,0,0-.49,0l-.56,2.69-.17-2.53a.25.25,0,0,0-.47-.09l-.41.85-.65,0a.23.23,0,0,0-.26.18,5.24,5.24,0,0,1-.22.61,5,5,0,0,1-.1-.64.25.25,0,0,0-.22-.22l-1.83-.21a.25.25,0,0,0-.25.14.23.23,0,1,1-.34,0,.25.25,0,0,0-.22-.2l-.43,0-.22-1.09a.25.25,0,0,0-.24-.2.26.26,0,0,0-.25.19l-.71,2.67,0-2.55a.25.25,0,0,0-.47-.12l-.46.81-.64-.09a.24.24,0,0,0-.27.17,5.07,5.07,0,0,1-.25.59,5.06,5.06,0,0,1-.08-.64.25.25,0,0,0-.21-.23l-1.82-.26a.24.24,0,0,0-.26.13,2,2,0,0,1-.23.35,2,2,0,0,1-.11-.4.25.25,0,0,0-.21-.21l-.43-.07-.18-1.11a.25.25,0,0,0-.23-.21.23.23,0,0,0-.26.18l-.81,2.64.06-2.56a.25.25,0,0,0-.46-.14l-.49.8-.64-.11a.24.24,0,0,0-.28.16,5.09,5.09,0,0,1-.27.59,5.17,5.17,0,0,1-.06-.64.25.25,0,0,0-.21-.24l-1.82-.32a.25.25,0,0,0-.26.13,1.94,1.94,0,0,1-.24.34,2.08,2.08,0,0,1-.1-.41.25.25,0,0,0-.2-.21l-.43-.08-.15-1.11a.25.25,0,0,0-.23-.21.24.24,0,0,0-.26.17l-.87,2.63.11-2.56a.25.25,0,0,0-.46-.14l-.5.79-.64-.12a.25.25,0,0,0-.28.15,5.22,5.22,0,0,1-.28.58,5.36,5.36,0,0,1,0-.65.25.25,0,0,0-.2-.24l-1.82-.35a.26.26,0,0,0-.27.12,2,2,0,0,1-.24.34,2,2,0,0,1-.1-.41.25.25,0,0,0-.2-.21l-.43-.08-.14-1.11a.25.25,0,0,0-.22-.22.24.24,0,0,0-.26.17l-.9,2.63.13-2.57a.25.25,0,0,0-.46-.15l-.51.79-.64-.12a.26.26,0,0,0-.28.15,5,5,0,0,1-.28.58,5,5,0,0,1,0-.65.25.25,0,0,0-.2-.24l-1.82-.36a.26.26,0,0,0-.27.12,2,2,0,0,1-.24.34,2,2,0,0,1-.1-.41.25.25,0,0,0-.2-.21l-.43-.08-.14-1.11a.25.25,0,0,0-.22-.22.25.25,0,0,0-.26.17l-.9,2.63.13-2.57a.25.25,0,0,0-.46-.15l-.51.79-.64-.12a.24.24,0,0,0-.28.15,5.07,5.07,0,0,1-.28.58,5.18,5.18,0,0,1,0-.65.25.25,0,0,0-.2-.24l-1.82-.35a.24.24,0,0,0-.27.12,2,2,0,0,1-.24.34,2,2,0,0,1-.1-.41.25.25,0,0,0-.2-.21l-.43-.08-.16-1.11a.25.25,0,0,0-.23-.21.23.23,0,0,0-.26.17l-.87,2.65.1-2.58a.25.25,0,0,0-.46-.14l-.5.8-.65-.12a.25.25,0,0,0-.28.15,5.11,5.11,0,0,1-.28.59,5.23,5.23,0,0,1-.05-.65.25.25,0,0,0-.21-.24l-1.83-.33a.25.25,0,0,0-.26.13,2,2,0,0,1-.24.35,2,2,0,0,1-.11-.41.25.25,0,0,0-.21-.21l-.43-.07-.17-1.11a.25.25,0,0,0-.23-.21.23.23,0,0,0-.26.17l-.83,2.67.06-2.58a.25.25,0,0,0-.46-.14l-.49.81-.65-.11a.25.25,0,0,0-.27.16,5.11,5.11,0,0,1-.26.59,5.06,5.06,0,0,1-.07-.65.25.25,0,0,0-.21-.24l-1.83-.3a.26.26,0,0,0-.26.13,2,2,0,0,1-.23.36,2,2,0,0,1-.12-.4.25.25,0,0,0-.21-.2l-.43-.06-.2-1.1a.25.25,0,0,0-.23-.21.25.25,0,0,0-.25.18l-.77,2.68V178a.25.25,0,0,0-.47-.12l-.47.81-.65-.09a.26.26,0,0,0-.27.16,5,5,0,0,1-.25.6,5.06,5.06,0,0,1-.08-.65.25.25,0,0,0-.21-.23l-1.84-.26a.26.26,0,0,0-.26.14,2.05,2.05,0,0,1-.23.36,2,2,0,0,1-.12-.4.25.25,0,0,0-.22-.2l-.44-.05-.22-1.1a.25.25,0,0,0-.24-.2.27.27,0,0,0-.25.19l-.71,2.7-.06-2.59a.25.25,0,0,0-.47-.11l-.45.83-.65-.08a.25.25,0,0,0-.27.17,5.1,5.1,0,0,1-.24.6,5.33,5.33,0,0,1-.1-.65.25.25,0,0,0-.22-.23l-1.85-.22a.25.25,0,0,0-.26.14c-.07.15-.17.32-.21.4a1.87,1.87,0,0,1-.15-.41.25.25,0,0,0-.23-.19l-.45,0-.28-1.08a.26.26,0,0,0-.25-.19.25.25,0,0,0-.24.2c-.2.91-.39,1.82-.58,2.71-.07-.84-.14-1.69-.22-2.56a.25.25,0,0,0-.47-.08l-.4.85-.67,0a.28.28,0,0,0-.26.19,5,5,0,0,1-.19.62,5,5,0,0,1-.15-.63.25.25,0,0,0-.25-.21H279a.25.25,0,0,0-.24.17,2,2,0,0,1-.18.39,2,2,0,0,1-.18-.39.25.25,0,0,0-.24-.17h-.45l-.37-1.07a.25.25,0,0,0-.48.05l-.35,2.78-.42-2.59a.25.25,0,0,0-.22-.21.23.23,0,0,0-.26.16l-.33.89-.66,0a.25.25,0,0,0-.24.21,5.27,5.27,0,0,1-.15.64,5.2,5.2,0,0,1-.19-.62.25.25,0,0,0-.25-.19l-1.86.08a.25.25,0,0,0-.23.18,2,2,0,0,1-.16.39,2,2,0,0,1-.2-.38.27.27,0,0,0-.24-.16l-.44,0-.42-1.05a.24.24,0,0,0-.27-.16.25.25,0,0,0-.21.23l-.22,2.79-.52-2.53a.25.25,0,0,0-.23-.2.26.26,0,0,0-.25.17l-.3.9-.66,0a.25.25,0,0,0-.23.22,5.19,5.19,0,0,1-.13.64,5.21,5.21,0,0,1-.21-.61.24.24,0,0,0-.26-.18l-1.85.13a.25.25,0,0,0-.22.19,2,2,0,0,1-.15.4,2,2,0,0,1-.21-.37.24.24,0,0,0-.25-.15l-.44,0-.44-1a.25.25,0,0,0-.27-.15.25.25,0,0,0-.21.23l-.15,2.79-.58-2.51a.25.25,0,0,0-.23-.19.27.27,0,0,0-.25.18l-.27.9-.65.06a.25.25,0,0,0-.23.22,5.07,5.07,0,0,1-.11.64,5.29,5.29,0,0,1-.22-.61.24.24,0,0,0-.26-.18l-1.85.17a.25.25,0,0,0-.22.19,2.07,2.07,0,0,1-.14.4,2,2,0,0,1-.21-.37.25.25,0,0,0-.25-.15l-.44,0-.46-1a.25.25,0,0,0-.48.09l-.1,2.79-.62-2.5a.25.25,0,0,0-.24-.19.27.27,0,0,0-.25.18l-.26.9-.65.07a.25.25,0,0,0-.22.23,5.2,5.2,0,0,1-.1.64,5.18,5.18,0,0,1-.23-.61.25.25,0,0,0-.26-.17L251,179a.25.25,0,0,0-.22.2,2,2,0,0,1-.13.4,2,2,0,0,1-.22-.36.25.25,0,0,0-.25-.14l-.44,0-.47-1a.25.25,0,0,0-.28-.14.25.25,0,0,0-.2.24l-.07,2.78-.65-2.5a.25.25,0,0,0-.24-.19.26.26,0,0,0-.24.18l-.25.91-.65.08a.25.25,0,0,0-.22.23,5.13,5.13,0,0,1-.09.64,5.12,5.12,0,0,1-.24-.6.25.25,0,0,0-.27-.17l-1.84.21a.25.25,0,0,0-.22.2,2,2,0,0,1-.13.4,1.93,1.93,0,0,1-.22-.36.25.25,0,0,0-.25-.14l-.43,0-.48-1a.25.25,0,0,0-.28-.14.25.25,0,0,0-.2.24l-.05,2.78-.66-2.49a.25.25,0,0,0-.24-.19h0a.25.25,0,0,0-.24.19l-.24.91-.65.08a.25.25,0,0,0-.22.23,5.18,5.18,0,0,1-.09.64,5.15,5.15,0,0,1-.24-.6.25.25,0,0,0-.27-.17l-1.84.22a.25.25,0,0,0-.22.2,2,2,0,0,1-.13.4,2,2,0,0,1-.22-.36.25.25,0,0,0-.26-.14l-.43.05-.48-1a.25.25,0,0,0-.48.1l0,2.78-.67-2.49a.26.26,0,0,0-.48,0l-.24.91-.65.08a.25.25,0,0,0-.22.23,5.19,5.19,0,0,1-.09.64,5.16,5.16,0,0,1-.24-.6.25.25,0,0,0-.27-.17l-1.84.22a.25.25,0,0,0-.21.2,2,2,0,0,1-.13.4,2,2,0,0,1-.22-.36.25.25,0,0,0-.26-.14l-.43.05-.48-1a.25.25,0,0,0-.48.1l0,2.78-.66-2.49a.25.25,0,0,0-.24-.19h0a.25.25,0,0,0-.24.19l-.24.91-.65.08a.25.25,0,0,0-.22.23,5.18,5.18,0,0,1-.09.64,5.26,5.26,0,0,1-.24-.6A.25.25,0,0,0,225,182l-1.84.21a.25.25,0,0,0-.22.2,2,2,0,0,1-.13.4,2,2,0,0,1-.22-.36.25.25,0,0,0-.26-.14l-.43,0-.47-1a.25.25,0,0,0-.28-.14.25.25,0,0,0-.2.24l-.06,2.78-.65-2.49a.25.25,0,0,0-.24-.19h0a.25.25,0,0,0-.24.18l-.25.9-.65.07a.25.25,0,0,0-.22.23,5.21,5.21,0,0,1-.1.64,5.32,5.32,0,0,1-.23-.61.24.24,0,0,0-.27-.17l-1.84.2a.25.25,0,0,0-.22.19,2,2,0,0,1-.13.4,2,2,0,0,1-.21-.36.25.25,0,0,0-.25-.15l-.43,0-.46-1a.26.26,0,0,0-.28-.14.25.25,0,0,0-.2.24L214,185l-.62-2.49a.25.25,0,0,0-.24-.19h0a.25.25,0,0,0-.24.18l-.26.9-.65.06a.25.25,0,0,0-.23.22,5,5,0,0,1-.1.64,5.18,5.18,0,0,1-.23-.61.25.25,0,0,0-.26-.18l-1.84.17a.25.25,0,0,0-.22.19,2,2,0,0,1-.14.4,2,2,0,0,1-.21-.36.25.25,0,0,0-.25-.15l-.43,0-.44-1a.25.25,0,0,0-.27-.15.25.25,0,0,0-.2.23l-.13,2.77-.58-2.5a.25.25,0,0,0-.23-.19.26.26,0,0,0-.25.18l-.27.89-.65,0a.25.25,0,0,0-.23.22,5.08,5.08,0,0,1-.12.63,5,5,0,0,1-.21-.61.24.24,0,0,0-.26-.18l-1.84.14a.25.25,0,0,0-.22.19,2.05,2.05,0,0,1-.15.4,2,2,0,0,1-.2-.37.24.24,0,0,0-.25-.15l-.43,0-.42-1a.25.25,0,0,0-.48.08l-.21,2.74-.5-2.51a.25.25,0,0,0-.48,0l-.3.88-.65,0a.25.25,0,0,0-.24.21,5.26,5.26,0,0,1-.14.63,5,5,0,0,1-.19-.62.26.26,0,0,0-.25-.19l-1.84.08a.25.25,0,0,0-.23.18,2.07,2.07,0,0,1-.16.39,2,2,0,0,1-.18-.37.25.25,0,0,0-.24-.17h-.43l-.36-1.07a.25.25,0,0,0-.48,0l-.35,2.71-.36-2.51a.25.25,0,0,0-.22-.21.26.26,0,0,0-.26.16l-.35.87h-.64a.25.25,0,0,0-.24.2,5.2,5.2,0,0,1-.18.63,5.11,5.11,0,0,1-.15-.62.25.25,0,0,0-.24-.21h-.18a5.16,5.16,0,0,1-.52,0l-1.1-.08a.24.24,0,0,0-.25.16,2,2,0,0,1-.19.36,2,2,0,0,1-.14-.39.25.25,0,0,0-.23-.19l-.42,0-.24-1.08a.25.25,0,0,0-.24-.2h0a.25.25,0,0,0-.24.19c-.21.91-.43,1.82-.65,2.74,0-.91,0-1.76,0-2.58a.25.25,0,0,0-.19-.24.26.26,0,0,0-.28.12l-.44.79-.61-.11a.24.24,0,0,0-.28.16,5.09,5.09,0,0,1-.25.58,5,5,0,0,1-.05-.64.25.25,0,0,0-.21-.24l-.69-.12-.39-.07-.69-.13a.25.25,0,0,0-.27.11,1.93,1.93,0,0,1-.24.32,2,2,0,0,1-.08-.42.25.25,0,0,0-.18-.22l-.41-.11-.06-1.12a.25.25,0,0,0-.21-.23.24.24,0,0,0-.27.15c-.35.85-.71,1.71-1.07,2.58.11-.86.23-1.71.35-2.55a.25.25,0,0,0-.15-.27.25.25,0,0,0-.3.08l-.57.75-.11,0-.48-.14a.25.25,0,0,0-.3.12,5.07,5.07,0,0,1-.34.54,5.24,5.24,0,0,1,0-.65.25.25,0,0,0-.17-.27l-1.73-.6a.26.26,0,0,0-.28.08,2,2,0,0,1-.29.3,2,2,0,0,1,0-.41.25.25,0,0,0-.17-.24l-.4-.14,0-1.11a.25.25,0,0,0-.18-.25.25.25,0,0,0-.29.12l-1.31,2.39L173,180a.25.25,0,0,0-.12-.28.25.25,0,0,0-.3,0l-.64.68-.6-.24a.25.25,0,0,0-.3.09,5.1,5.1,0,0,1-.39.51,5.06,5.06,0,0,1,.09-.63.25.25,0,0,0-.15-.28l-.66-.27c-.34-.13-.68-.28-1-.44a.25.25,0,0,0-.29.06,2,2,0,0,1-.31.27,2.05,2.05,0,0,1,0-.42.25.25,0,0,0-.14-.25l-.39-.18.13-1.11a.25.25,0,0,0-.46-.16l-1.48,2.32.74-2.43a.25.25,0,0,0-.41-.26l-.69.65-.59-.27a.25.25,0,0,0-.3.08,5.09,5.09,0,0,1-.42.49,5.11,5.11,0,0,1,.13-.64.25.25,0,0,0-.13-.29l-1.64-.83a.25.25,0,0,0-.29,0,2.06,2.06,0,0,1-.33.26,2,2,0,0,1,0-.42.25.25,0,0,0-.13-.26l-.38-.19.18-1.1a.25.25,0,0,0-.45-.19l-1.6,2.24.87-2.41a.25.25,0,0,0-.09-.29.25.25,0,0,0-.3,0l-.71.6-.57-.31a.25.25,0,0,0-.31.06,5.25,5.25,0,0,1-.44.47,5.05,5.05,0,0,1,.15-.63.25.25,0,0,0-.12-.29l-1.62-.88a.25.25,0,0,0-.29,0,2,2,0,0,1-.33.25,2,2,0,0,1,0-.42.25.25,0,0,0-.12-.26l-.38-.22.22-1.1a.25.25,0,0,0-.44-.2l-1.69,2.18,1-2.37a.25.25,0,0,0-.39-.29l-.74.58-.56-.32a.25.25,0,0,0-.31,0,5,5,0,0,1-.46.45,5.17,5.17,0,0,1,.18-.62.25.25,0,0,0-.11-.3l-1.58-1a.25.25,0,0,0-.29,0,2,2,0,0,1-.35.24,2,2,0,0,1,.05-.41.25.25,0,0,0-.11-.27l-.37-.22.26-1.09a.25.25,0,0,0-.13-.28.25.25,0,0,0-.3.06l-1.76,2.13,1-2.34a.25.25,0,0,0-.38-.3l-.75.55-.55-.35a.25.25,0,0,0-.31,0,5,5,0,0,1-.48.44,5.19,5.19,0,0,1,.2-.62.25.25,0,0,0-.1-.3l-1.55-1a.25.25,0,0,0-.29,0,2,2,0,0,1-.35.23,2,2,0,0,1,.06-.42.25.25,0,0,0-.1-.27l-.36-.24.29-1.08a.25.25,0,0,0-.43-.23l-1.82,2.08,1.1-2.31a.25.25,0,0,0-.37-.31l-.77.53-.54-.36a.25.25,0,0,0-.32,0,5.15,5.15,0,0,1-.49.43,5.11,5.11,0,0,1,.21-.61.25.25,0,0,0-.09-.3l-1.52-1a.25.25,0,0,0-.29,0,2,2,0,0,1-.36.22,2,2,0,0,1,.08-.41.25.25,0,0,0-.1-.28l-.36-.25.32-1.07a.25.25,0,0,0-.42-.24l-1.88,2,1.17-2.27a.25.25,0,0,0-.36-.32l-.79.51-.52-.38a.25.25,0,0,0-.32,0,5,5,0,0,1-.53.43l0-.16.13-.62a.25.25,0,0,0-.1-.25l-.19-.14-.1,0-1.84-.38a.25.25,0,0,0-.27.12,2,2,0,0,1-.25.33,2,2,0,0,1-.08-.41.25.25,0,0,0-.19-.22l-.41-.1-.08-1.12a.25.25,0,0,0-.21-.23.24.24,0,0,0-.27.15l-1,2.53.29-2.51a.25.25,0,0,0-.16-.26.25.25,0,0,0-.29.08l-.55.75-.62-.17a.25.25,0,0,0-.29.13,5.15,5.15,0,0,1-.33.55,5.06,5.06,0,0,1,0-.64.25.25,0,0,0-.18-.26l-1.75-.53a.25.25,0,0,0-.28.09,2,2,0,0,1-.28.31,2,2,0,0,1,0-.41.25.25,0,0,0-.17-.24l-.41-.13v-1.12a.25.25,0,0,0-.47-.12l-1.23,2.43.5-2.47a.25.25,0,0,0-.43-.21l-.62.7-.6-.22a.25.25,0,0,0-.3.1,5.23,5.23,0,0,1-.37.52,5.07,5.07,0,0,1,.07-.64.25.25,0,0,0-.15-.28l-.66-.26-.7-.29-.32-.13a.24.24,0,0,0-.28.07,2,2,0,0,1-.3.28,2,2,0,0,1,0-.41.25.25,0,0,0-.15-.25l-.39-.17.12-1.11a.25.25,0,0,0-.46-.16c-.49.78-1,1.57-1.49,2.36.26-.83.52-1.66.78-2.47a.25.25,0,0,0-.1-.29.25.25,0,0,0-.3,0l-.68.63-.57-.28a.25.25,0,0,0-.31.07,5.26,5.26,0,0,1-.42.48,5.29,5.29,0,0,1,.15-.63.25.25,0,0,0-.12-.29l-.62-.33c-.32-.17-.64-.35-1-.54a.25.25,0,0,0-.29,0,2,2,0,0,1-.33.24,2,2,0,0,1,0-.41.25.25,0,0,0-.12-.27l-.07,0-.28-.17.28-1.08a.25.25,0,0,0-.43-.22c-.6.72-1.2,1.43-1.81,2.13.38-.79.75-1.56,1.13-2.32a.25.25,0,0,0-.36-.32l-.76.52-.51-.36a.25.25,0,0,0-.31,0,5.16,5.16,0,0,1-.5.4,5.14,5.14,0,0,1,.25-.59.25.25,0,0,0-.07-.31l-.77-.62c-.2-.16-.41-.32-.6-.5a.26.26,0,0,0-.3,0,2,2,0,0,1-.36.17,2,2,0,0,1,.13-.38.25.25,0,0,0-.06-.29l-.3-.27.51-1a.25.25,0,0,0-.38-.31c-.73.57-1.48,1.14-2.23,1.7.54-.68,1.09-1.35,1.64-2a.25.25,0,0,0,0-.31.25.25,0,0,0-.29-.09l-.85.33-.39-.46a.25.25,0,0,0-.31-.06,5.25,5.25,0,0,1-.58.27,5.12,5.12,0,0,1,.39-.49.25.25,0,0,0,0-.31l-.51-.72a6.06,6.06,0,0,1-.46-.7.25.25,0,0,0-.28-.13,2,2,0,0,1-.39.05,2,2,0,0,1,.24-.31.25.25,0,0,0,0-.29l-.11-.19-.09-.14q.4-.39.82-.75a.25.25,0,0,0,.05-.31.25.25,0,0,0-.3-.11c-.89.3-1.79.58-2.69.85.76-.46,1.51-.88,2.26-1.29a.25.25,0,0,0,.12-.29.24.24,0,0,0-.25-.18h-.89l-.19-.56a.24.24,0,0,0-.26-.17,4.17,4.17,0,0,1-.62,0,5.22,5.22,0,0,1,.55-.29.25.25,0,0,0,.14-.28l-.14-.67a5.19,5.19,0,0,1-.16-1,.25.25,0,0,0-.2-.23,2.08,2.08,0,0,1-.37-.11,1.9,1.9,0,0,1,.34-.18.3.3,0,0,0,.15-.3c0-.11,0-.22,0-.33l1.06-.33a.25.25,0,0,0,0-.49c-.93-.11-1.87-.23-2.8-.38.86-.08,1.72-.15,2.59-.2a.25.25,0,0,0,.09-.48l-.81-.37.07-.59a.25.25,0,0,0-.17-.27,5.28,5.28,0,0,1-.58-.24,5,5,0,0,1,.62,0,.25.25,0,0,0,.24-.19l.15-.66c0-.13.06-.26.09-.38a5.61,5.61,0,0,1,.16-.64.25.25,0,0,0-.1-.29,2,2,0,0,1-.3-.25,2,2,0,0,1,.38,0h0a.25.25,0,0,0,.24-.17l.12-.38,1.09.08a.25.25,0,0,0,.26-.18.25.25,0,0,0-.12-.29c-.81-.44-1.63-.9-2.44-1.37.84.23,1.67.48,2.5.73a.25.25,0,0,0,.25-.41l-.65-.66.28-.54a.25.25,0,0,0-.06-.31,4.84,4.84,0,0,1-.47-.42,5.1,5.1,0,0,1,.6.16.25.25,0,0,0,.3-.13,5.5,5.5,0,0,1,.34-.57l.58-.92a.25.25,0,0,0,0-.29,2.11,2.11,0,0,1-.22-.34,2.06,2.06,0,0,1,.4.08.26.26,0,0,0,.28-.09l.24-.33,1,.36a.25.25,0,0,0,.26-.42c-.67-.65-1.33-1.31-2-2,.75.44,1.49.88,2.23,1.34a.25.25,0,0,0,.35-.34l-.46-.81.4-.48a.25.25,0,0,0,0-.31,5.18,5.18,0,0,1-.35-.52,5.19,5.19,0,0,1,.57.3.25.25,0,0,0,.31,0l.48-.52c.24-.27.49-.53.76-.78a.25.25,0,0,0,0-.29,2,2,0,0,1-.15-.38,2,2,0,0,1,.38.15.25.25,0,0,0,.29,0l.3-.29,1,.54a.25.25,0,0,0,.33-.36c-.54-.76-1.07-1.52-1.6-2.29l2,1.67a.25.25,0,0,0,.4-.28l-.32-.88.49-.4a.25.25,0,0,0,.06-.31,5.09,5.09,0,0,1-.27-.58,5.16,5.16,0,0,1,.52.38.25.25,0,0,0,.32,0c.18-.15.35-.3.54-.44l1.33-1.12a.21.21,0,0,0,.06-.23,1.79,1.79,0,0,1-.07-.33,1.43,1.43,0,0,1,.27.16.17.17,0,0,0,.22,0l.26-.2.67.53a.17.17,0,0,0,.23,0,.21.21,0,0,0,0-.25l-.95-1.94,1.28,1.48a.18.18,0,0,0,.22,0,.21.21,0,0,0,.09-.22l-.16-.73.39-.29a.21.21,0,0,0,.07-.24,4.41,4.41,0,0,1-.16-.49,3.85,3.85,0,0,1,.36.35c.06.07.44-.07.54-.14l1.45-.86a.19.19,0,0,0,.07-.19,1.49,1.49,0,0,1,0-.29,1.36,1.36,0,0,1,.23.17.16.16,0,0,0,.2,0l.24-.16.56.53a.16.16,0,0,0,.21,0,.19.19,0,0,0,.06-.21l-.71-1.81,1.05,1.43a.16.16,0,0,0,.2.05.18.18,0,0,0,.1-.19l-.09-.66.37-.23a.19.19,0,0,0,.08-.21,3.81,3.81,0,0,1-.11-.45,3.56,3.56,0,0,1,.3.33.16.16,0,0,0,.21,0l1.51-1a.13.13,0,0,0,.07-.15.88.88,0,0,1,0-.22l.23.11a.19.19,0,0,0,.19,0l.24-.13.56.36a.19.19,0,0,0,.2,0,.12.12,0,0,0,.05-.16l-.73-1.3,1.05,1a.19.19,0,0,0,.19,0,.13.13,0,0,0,.09-.15l-.1-.49.36-.19a.13.13,0,0,0,.07-.16,2.29,2.29,0,0,1-.11-.32,3,3,0,0,1,.3.23.19.19,0,0,0,.2,0l1.35-.83c.06,0,.09-.08.08-.12a.51.51,0,0,1,0-.17l.23.07a.26.26,0,0,0,.2,0l.25-.13.57.23a.26.26,0,0,0,.21,0c.06,0,.09-.09.06-.13l-.71-1,1.06.7a.23.23,0,0,0,.2,0c.07,0,.11-.08.1-.13l-.09-.38.38-.18c.07,0,.1-.09.08-.14a1.31,1.31,0,0,1-.11-.25l.3.16a.24.24,0,0,0,.21,0l.42-.19.81-.51c.06,0,.08-.06.07-.09a.38.38,0,0,1,0-.14l.19.07a.24.24,0,0,0,.17,0l.22-.08.47.23a.24.24,0,0,0,.18,0c.06,0,.08-.07.06-.1l-.54-.82.86.63a.21.21,0,0,0,.17,0c.06,0,.1-.06.1-.09l-.05-.31.34-.12c.06,0,.09-.06.08-.1a1,1,0,0,1-.07-.2l.24.15a.22.22,0,0,0,.18,0l.37-.12.76-.4c.06,0,.08,0,.07-.06a.18.18,0,0,1,0-.09l.19,0a.35.35,0,0,0,.17,0l.22-.06.47.15a.35.35,0,0,0,.18,0c.06,0,.08,0,.06-.07l-.54-.55.86.42a.3.3,0,0,0,.17,0c.06,0,.1,0,.1-.06l-.05-.21.34-.08c.06,0,.09,0,.08-.07a.55.55,0,0,1-.07-.14l.24.1a.32.32,0,0,0,.18,0l1.06-.21-.31-.06-.76.15c-.39-.17-.52-.14-.59-.12s-.2,0-.06.27l-.32.08c-.05,0-.09,0-.08.06v0l-1.17-.57a.32.32,0,0,0-.19,0c-.07,0-.1,0-.07.07l.69.71-.1,0a.35.35,0,0,0-.17,0l-.23.06a1,1,0,0,0-.48,0c-.14,0-.15.12-.13.19l-.65.32-.27.09c-.39-.25-.52-.2-.59-.18s-.2.07-.06.4l-.32.11c-.05,0-.09.05-.08.09v.06l-1.17-.85a.22.22,0,0,0-.19,0c-.07,0-.1.07-.07.11l.69,1-.1,0a.24.24,0,0,0-.17,0l-.23.08a.71.71,0,0,0-.48-.06.22.22,0,0,0-.13.28l-.74.44-.3.14c-.47-.27-.63-.2-.7-.16s-.23.11,0,.51l-.37.18c-.06,0-.1.08-.09.12l0,.07-1.44-.95a.24.24,0,0,0-.22,0c-.07,0-.1.1-.07.14l.91,1.24-.12,0a.26.26,0,0,0-.2,0l-.26.13a.77.77,0,0,0-.56,0,.29.29,0,0,0-.12.37l-1.12.65c-.47-.39-.61-.32-.68-.28s-.21.11,0,.64l-.34.18a.13.13,0,0,0-.08.14l0,.09L124,105.21a.19.19,0,0,0-.21,0,.12.12,0,0,0-.06.17l.93,1.66-.11-.07a.19.19,0,0,0-.19,0l-.24.13a.6.6,0,0,0-.54-.09c-.15.08-.14.27-.1.45l-1.28.73c-.47-.57-.62-.48-.69-.43s-.22.13,0,.86l-.36.22a.18.18,0,0,0-.08.18l0,.12-1.42-1.93a.16.16,0,0,0-.22,0,.19.19,0,0,0-.07.22l.91,2.31-.11-.11a.16.16,0,0,0-.2,0l-.25.16c-.18-.14-.4-.26-.55-.16s-.16.36-.12.6l-1.56.84c-.57-.59-.72-.48-.81-.42s-.23.17.05,1l-.37.28a.21.21,0,0,0-.08.21l0,.13-1.75-2a.17.17,0,0,0-.24,0,.21.21,0,0,0-.06.26l1.21,2.5-.13-.11a.17.17,0,0,0-.22,0l-.26.21c-.22-.15-.47-.25-.63-.12s-.13.42-.06.68l-1.3,1-.4.32c-.83-.65-1-.48-1.12-.4s-.29.25.19,1.18L111,116a.25.25,0,0,0-.07.28l.05.14c-.86-.74-1.74-1.47-2.61-2.19a.25.25,0,0,0-.37.33c.64,1,1.3,1.91,2,2.86l-.18-.1a.25.25,0,0,0-.3,0l-.3.3c-.31-.14-.65-.22-.85,0s-.11.54,0,.84c-.25.24-.46.46-.65.68l-.34.37c-.92-.52-1.09-.33-1.18-.24s-.26.28.36,1.14l-.38.46a.25.25,0,0,0,0,.28l.07.12c-1-.59-2-1.17-3-1.73a.25.25,0,0,0-.32.06.25.25,0,0,0,0,.33c.8.84,1.61,1.67,2.43,2.49l-.17-.06a.25.25,0,0,0-.28.09l-.25.34c-.33-.08-.69-.1-.86.13s0,.55.21.83l-.49.77c-.1.16-.19.3-.27.43-1-.3-1.13-.07-1.19,0s-.18.34.62,1l-.27.52a.25.25,0,0,0,0,.29l.09.09c-1.08-.32-2.18-.62-3.27-.9a.25.25,0,0,0-.29.14.25.25,0,0,0,.1.31c1,.6,2,1.18,3,1.74H102a.26.26,0,0,0-.25.17l-.13.39c-.33,0-.68.1-.77.35s.15.53.41.73c0,.17-.09.35-.12.51s-.05.25-.08.37l-.11.47c-1.1,0-1.12.31-1.13.43s0,.38.94.75l-.07.57a.25.25,0,0,0,.14.25l.09,0c-1.13.08-2.24.19-3.36.34a.25.25,0,0,0,0,.49c1.12.21,2.25.39,3.39.54l-.14,0a.25.25,0,0,0-.17.22,2.67,2.67,0,0,0,0,.44c-.3.14-.58.35-.56.62s.35.42.67.5a5.4,5.4,0,0,0,.15.89l.1.46c-1,.47-.9.73-.87.85s.11.38,1.18.29l.18.54a.25.25,0,0,0,.23.17h.09c-1,.54-1.91,1.11-2.89,1.74a.25.25,0,0,0-.09.31.25.25,0,0,0,.29.14c1.1-.29,2.21-.61,3.3-1l-.11.1a.25.25,0,0,0-.06.27,2.42,2.42,0,0,0,.19.37v0c-.21.26-.38.57-.25.8s.49.24.82.18c.12.21.26.4.4.59l.4.56c-.71.83-.53,1-.45,1.13s.24.29,1.19-.18l.38.45a.26.26,0,0,0,.28.07l.11,0c-.71.87-1.42,1.76-2.11,2.66a.25.25,0,0,0,0,.33.25.25,0,0,0,.32,0c.94-.67,1.87-1.35,2.78-2.05l-.08.16a.25.25,0,0,0,.06.3l.31.28c-.12.31-.19.67,0,.85s.54.08.84-.08l.5.41.61.49c-.45,1-.24,1.13-.13,1.2s.31.22,1.11-.47l.49.35a.25.25,0,0,0,.29,0l.11-.08c-.49,1-1,2-1.46,3.08a.25.25,0,0,0,.41.27c.76-.86,1.52-1.74,2.27-2.63l0,.19a.25.25,0,0,0,.1.27l.37.23c-.05.33,0,.69.19.83s.55,0,.81-.24c.27.16.54.31.82.46l.44.24c-.28,1-.05,1.14.06,1.2s.34.19,1-.64l.54.27a.25.25,0,0,0,.28,0l.11-.1c-.34,1.07-.68,2.17-1,3.27a.25.25,0,0,0,.13.3.25.25,0,0,0,.31-.09c.64-1,1.27-2,1.88-2.93l0,.2a.25.25,0,0,0,.15.25l.4.18c0,.33,0,.69.29.8s.54-.1.78-.34l.16.07.72.29.47.19c-.16,1,.08,1.14.19,1.18s.36.14.94-.75l.57.21a.25.25,0,0,0,.27-.07l.11-.13L122,159a.25.25,0,0,0,.47.16l1.58-3.12v.23a.25.25,0,0,0,.17.24l.41.14c0,.34.11.69.36.77s.53-.15.75-.41l1.39.42c-.06,1.05.18,1.13.3,1.16s.37.11.87-.82l.59.16a.25.25,0,0,0,.27-.09l.1-.14-.39,3.41a.25.25,0,0,0,.48.12l1.31-3.24,0,.22a.25.25,0,0,0,.19.22l.42.1c0,.33.17.68.43.74s.52-.2.71-.48l1.63.33h0l-.09.47c-.07.37-.12.65.08.8s.31.22,1.1-.47l.5.36a.25.25,0,0,0,.28,0l.14-.09-1.57,3a.25.25,0,0,0,.41.28l2.38-2.56-.06.22a.25.25,0,0,0,.1.28l.36.25c-.08.33-.09.69.13.84s.55,0,.83-.18l1.21.83c-.38,1-.17,1.13-.07,1.2s.31.21,1.08-.51l.51.34a.25.25,0,0,0,.28,0l.14-.1-1.47,3.1a.25.25,0,0,0,.09.32.25.25,0,0,0,.33,0l2.31-2.64-.06.22a.25.25,0,0,0,.1.27l.37.24c-.07.33-.07.69.15.84s.55,0,.83-.2l1.24.79c-.35,1-.14,1.13,0,1.2s.32.2,1.07-.54l.52.33a.25.25,0,0,0,.28,0l.14-.1L146.31,171a.25.25,0,0,0,.42.26l2.22-2.7-.05.22a.25.25,0,0,0,.11.27l.38.23c-.06.33-.05.69.18.83s.55,0,.82-.23l1.26.76c-.33,1-.11,1.14,0,1.2s.33.2,1.06-.57l.54.31a.25.25,0,0,0,.28,0l.13-.11-1.28,3.18a.25.25,0,0,0,.43.25l2.14-2.77,0,.22a.25.25,0,0,0,.12.27l.38.22c0,.33,0,.7.2.83s.55,0,.81-.25l1.29.7c-.29,1-.06,1.14,0,1.2s.33.18,1-.61l.54.29a.25.25,0,0,0,.28,0l.13-.11-1.16,3.24a.25.25,0,0,0,.44.23l2-2.85,0,.22a.25.25,0,0,0,.13.26l.39.2c0,.33,0,.69.24.81s.55-.06.8-.29l1.31.66c-.25,1,0,1.14.09,1.2s.34.17,1-.65l.56.26a.25.25,0,0,0,.28,0l.13-.12-1,3.27a.25.25,0,0,0,.45.21l1.88-2.95,0,.22a.25.25,0,0,0,.14.26l.4.18c0,.34,0,.69.28.81s.54-.08.78-.32q.44.2.88.38l.47.19c-.18,1,.05,1.13.17,1.18s.35.15,1-.72l.57.23a.25.25,0,0,0,.28-.06l.12-.12-.79,3.35a.25.25,0,0,0,.15.29.25.25,0,0,0,.31-.11l1.68-3.05v.22a.25.25,0,0,0,.17.25l.41.14c0,.33.09.68.34.77s.54-.14.76-.39l1.37.47c-.1,1.06.14,1.14.26,1.18s.37.13.9-.78l.32.09.27.07a.24.24,0,0,0,.27-.09l.09-.12c-.16,1.12-.31,2.25-.44,3.38a.25.25,0,0,0,.48.13c.46-1.07.92-2.14,1.36-3.2v.21a.25.25,0,0,0,.18.23l.42.11c0,.33.15.68.41.75s.52-.18.71-.46l.55.1.38.07.49.09c0,1.05.3,1.1.42,1.12s.38.07.77-.91l.59.1a.25.25,0,0,0,.26-.13l.06-.12c0,1,0,2.15.09,3.42a.25.25,0,0,0,.49.05c.29-1.13.57-2.27.84-3.4l0,.19a.25.25,0,0,0,.23.19l.43,0c.1.32.27.64.54.66s.48-.27.62-.58l.92.07a4.38,4.38,0,0,0,.53,0c.21,1,.46,1,.59,1s.38,0,.63-1H192a.25.25,0,0,0,.23-.16l.06-.16.49,3.4a.25.25,0,0,0,.25.21h0a.25.25,0,0,0,.25-.22l.45-3.46.07.21a.25.25,0,0,0,.24.17h.44c.13.32.34.6.61.61s.45-.33.56-.64l1.46-.06c.27,1,.53,1,.65,1s.38,0,.57-1.06l.61,0a.25.25,0,0,0,.23-.17l.05-.16.67,3.37a.26.26,0,0,0,.26.2.25.25,0,0,0,.23-.23l.27-3.49.08.21a.23.23,0,0,0,.25.16l.44,0c.15.3.34.61.63.57s.44-.34.54-.66l1.46-.11c.31,1,.57,1,.69,1s.38,0,.53-1.07l.61,0a.25.25,0,0,0,.22-.18l0-.16.77,3.35a.24.24,0,0,0,.27.19.25.25,0,0,0,.23-.24l.17-3.5.09.21a.25.25,0,0,0,.25.15l.44,0c.15.3.37.58.64.56s.43-.35.53-.67L211,184c.33,1,.58,1,.71,1s.38,0,.51-1.08l.62-.06a.25.25,0,0,0,.22-.18l0-.16.83,3.33a.25.25,0,0,0,.27.19.25.25,0,0,0,.22-.24l.11-3.5.09.21a.25.25,0,0,0,.25.15l.44,0c.16.3.38.6.65.55s.42-.35.52-.68l1.46-.16c.35,1,.6,1,.72,1s.38,0,.5-1.09l.62-.07a.25.25,0,0,0,.21-.18l0-.17.86,3.32a.25.25,0,0,0,.49-.06l.08-3.5.1.21a.26.26,0,0,0,.26.14l.44-.05c.16.3.39.59.65.55s.42-.36.51-.68l1.46-.17c.35,1,.61,1,.73,1s.38,0,.49-1.09l.62-.07a.25.25,0,0,0,.21-.18l0-.17.88,3.32a.25.25,0,0,0,.49-.06l.06-3.5.1.2a.25.25,0,0,0,.26.14l.44-.05c.16.29.39.59.66.54s.42-.36.51-.68l1.46-.18c.36,1,.61,1,.73.95s.38,0,.49-1.09l.62-.07a.25.25,0,0,0,.21-.18l0-.17.89,3.31a.25.25,0,0,0,.27.18.25.25,0,0,0,.22-.24l.06-3.5.1.21a.25.25,0,0,0,.26.14l.44-.05c.16.29.38.58.66.54s.42-.36.51-.68l1.46-.17c.35,1,.6,1,.73.95s.38,0,.49-1.09l.62-.07a.25.25,0,0,0,.21-.18l0-.17.88,3.32a.25.25,0,0,0,.27.18.25.25,0,0,0,.22-.24l.06-3.5.1.21a.25.25,0,0,0,.25.14l.44,0c.16.3.4.59.65.55s.42-.36.51-.68l1.47-.17c.35,1,.6,1,.73,1s.38,0,.49-1.09l.62-.07a.25.25,0,0,0,.21-.18l0-.17.86,3.32a.25.25,0,0,0,.49-.06l.09-3.5.1.21a.25.25,0,0,0,.25.14l.44,0c.16.3.39.58.65.55s.43-.35.52-.68l1.47-.16c.34,1,.6,1,.72,1s.38,0,.5-1.09l.62-.06a.25.25,0,0,0,.21-.18l0-.17.82,3.33a.25.25,0,0,0,.27.19.25.25,0,0,0,.22-.24l.13-3.5.09.21a.25.25,0,0,0,.25.15l.44,0c.15.3.34.59.64.56s.43-.35.53-.67l1.47-.13c.33,1,.57,1,.71,1s.38,0,.52-1.08l.62-.06a.25.25,0,0,0,.22-.18l.05-.17.77,3.34a.24.24,0,0,0,.26.19.25.25,0,0,0,.23-.24l.18-3.49.09.21a.24.24,0,0,0,.25.15l.45,0c.15.3.37.62.63.57s.44-.34.54-.66l1.48-.1c.3,1,.56,1,.68,1s.38,0,.54-1.07l.62,0a.25.25,0,0,0,.22-.17l.06-.17.68,3.35a.25.25,0,0,0,.26.2.25.25,0,0,0,.23-.23l.28-3.48.08.21a.24.24,0,0,0,.24.16l.45,0c.14.3.34.59.6.59h0c.27,0,.45-.32.56-.64l1.48-.06c.27,1,.52,1,.65,1s.38,0,.58-1.05l.63,0a.25.25,0,0,0,.22-.16l.06-.16.54,3.4a.25.25,0,0,0,.5,0l.43-3.46.08.22a.25.25,0,0,0,.24.17H278c.13.31.32.62.59.62h0c.27,0,.46-.3.59-.62h1.49c.21,1,.45,1,.58,1s.38,0,.66-1l.63,0a.24.24,0,0,0,.24-.14l.08-.17c.1,1.17.19,2.33.27,3.43a.25.25,0,0,0,.23.23.24.24,0,0,0,.26-.2c.22-1.13.46-2.28.71-3.44l.06.24a.25.25,0,0,0,.23.19l.45,0c.1.32.26.64.54.65s.48-.27.64-.57l1.47.17c.12,1.05.37,1.08.49,1.09s.38,0,.73-.95l.62.07a.25.25,0,0,0,.25-.13l.08-.15.08,3.43a.25.25,0,0,0,.22.24.26.26,0,0,0,.27-.18l.89-3.38,0,.22a.25.25,0,0,0,.22.2l.44.05c.08.32.24.65.51.68s.49-.25.66-.54l1.46.21c.09,1.05.34,1.09.47,1.11s.38.05.75-.93l.62.09a.25.25,0,0,0,.25-.12l.09-.15v3.43a.25.25,0,0,0,.21.25.25.25,0,0,0,.28-.18l1-3.36,0,.22a.25.25,0,0,0,.21.2l.44.06c.08.33.22.66.49.69s.5-.24.67-.52l1.46.24c.07,1.05.32,1.1.45,1.12s.37.06.77-.92l.62.1a.25.25,0,0,0,.25-.12l.09-.15-.08,3.43a.25.25,0,0,0,.49.08l1-3.34,0,.22a.25.25,0,0,0,.21.21l.44.07c.07.33.21.66.47.7s.51-.22.68-.5l1.45.26c.05,1.06.3,1.1.42,1.12s.37.07.79-.9l.61.11a.24.24,0,0,0,.26-.11l.09-.15-.13,3.43a.25.25,0,0,0,.49.09l1.09-3.32,0,.22a.25.25,0,0,0,.2.21l.44.08c.07.33.2.67.46.72s.51-.21.69-.5l1.45.28c0,1.05.29,1.1.41,1.13s.37.08.79-.9l.61.12a.24.24,0,0,0,.26-.11l.09-.15-.17,3.42a.25.25,0,0,0,.2.26.24.24,0,0,0,.28-.17L319,182.7l0,.23a.25.25,0,0,0,.2.21l.43.09c.06.33.19.67.46.72s.51-.21.69-.49l1.45.28c0,1.06.28,1.1.41,1.13s.37.07.8-.89l.61.12a.25.25,0,0,0,.26-.11l.09-.14-.18,3.43a.25.25,0,0,0,.2.26.24.24,0,0,0,.28-.16l1.13-3.31,0,.23a.25.25,0,0,0,.2.21l.43.08c.06.33.19.67.46.72s.51-.21.69-.49l1.45.28c0,1.05.28,1.1.41,1.13s.37.07.79-.9l.61.11a.24.24,0,0,0,.26-.11l.09-.14-.15,3.43a.25.25,0,0,0,.49.09l1.1-3.32,0,.23a.25.25,0,0,0,.2.21l.43.08c.07.33.2.67.46.71s.51-.22.69-.5l1.45.26c.05,1.05.3,1.1.43,1.12s.37.06.78-.91l.61.1a.25.25,0,0,0,.26-.12l.09-.15-.08,3.43a.25.25,0,0,0,.21.25.25.25,0,0,0,.28-.17l1-3.34,0,.22a.25.25,0,0,0,.21.21l.43.07c.08.33.22.66.49.7s.5-.24.67-.53l1.45.21c.09,1.05.34,1.09.46,1.11s.38.05.75-.93l.61.09a.23.23,0,0,0,.25-.12l.08-.15,0,3.43a.25.25,0,0,0,.22.25.25.25,0,0,0,.27-.18l.9-3.39,0,.22a.25.25,0,0,0,.22.2l.44,0c.09.32.24.65.51.68s.49-.25.65-.55l1.45.16c.13,1.05.38,1.08.51,1.09s.38,0,.71-1l.62,0a.24.24,0,0,0,.24-.14l.08-.16.22,3.42a.25.25,0,0,0,.23.23.24.24,0,0,0,.26-.2l.72-3.42.06.22a.25.25,0,0,0,.22.19l.44,0c.11.32.28.64.54.66s.48-.27.62-.57l.88,0h.58c.2,1,.45,1,.58,1s.38,0,.64-1h.61a.32.32,0,0,0,.24-.15l.06-.16.45,3.41a.25.25,0,0,0,.25.22h0a.25.25,0,0,0,.25-.21l.48-3.45.07.22a.25.25,0,0,0,.25.17h.43c.13.31.32.59.59.6s.45-.32.57-.64l1.46,0c.27,1,.52,1,.65,1s.38,0,.57-1l.61,0a.25.25,0,0,0,.23-.17l.05-.16.71,3.34a.24.24,0,0,0,.26.2.25.25,0,0,0,.23-.23l.21-3.5.09.21a.24.24,0,0,0,.25.15l.43,0c.15.3.34.58.64.56s.43-.35.52-.67l1.21-.11.25,0c.36,1,.61,1,.74.93s.37-.06.47-1.11l.61-.09a.25.25,0,0,0,.21-.19l0-.17,1,3.28a.24.24,0,0,0,.28.17.25.25,0,0,0,.21-.25l-.09-3.49.1.2a.26.26,0,0,0,.26.13l.43-.07c.18.29.42.56.68.52s.41-.38.47-.71l.87-.2.48-.12c.51.91.76.83.88.8s.37-.12.25-1.16l.31-.12.23-.09a.25.25,0,0,0,.16-.24v-.11c.58,1,1.18,1.93,1.81,2.88a.26.26,0,0,0,.31.09.25.25,0,0,0,.14-.3c-.32-1.11-.66-2.21-1-3.31l.12.12a.25.25,0,0,0,.28.05l.38-.2c.26.21.57.39.8.25s.24-.49.19-.82l.45-.29.33-.21.41-.27c.78.72,1,.56,1.09.49s.31-.23-.12-1.19l.06,0,.43-.32a.25.25,0,0,0,.08-.27l0-.13c.83.77,1.67,1.54,2.52,2.29a.25.25,0,0,0,.38-.32c-.6-1-1.23-2-1.86-2.93l.16.09a.25.25,0,0,0,.3,0l.32-.28c.3.15.66.25.86.06s.12-.54,0-.85l.67-.66.34-.36c.91.54,1.08.35,1.17.26s.26-.28-.34-1.15l.21-.24.19-.22a.25.25,0,0,0,0-.28l-.07-.13c1,.62,1.93,1.24,2.89,1.83a.25.25,0,0,0,.32-.05.25.25,0,0,0,0-.33c-.75-.84-1.53-1.71-2.34-2.58l.19.07a.25.25,0,0,0,.29-.07l.27-.33c.32.1.69.14.85-.08s0-.55-.13-.84l.87-1.16c1,.42,1.12.21,1.19.11s.22-.31-.48-1.1l.35-.5a.25.25,0,0,0,0-.28l-.09-.14L397,174a.25.25,0,0,0,.32-.09.25.25,0,0,0,0-.33l-2.62-2.32.22.06a.25.25,0,0,0,.27-.1l.24-.37c.33.07.69.07.84-.15s0-.55-.21-.83l.77-1.24c1,.33,1.13.11,1.2,0s.19-.33-.57-1.05l.31-.53a.25.25,0,0,0,0-.28l-.11-.13,3.19,1.27a.25.25,0,0,0,.31-.11.25.25,0,0,0-.07-.32l-2.78-2.12.22,0a.25.25,0,0,0,.27-.12l.21-.38c.33,0,.69,0,.82-.22s0-.55-.26-.81l.69-1.29c1,.27,1.14,0,1.2-.06s.18-.34-.63-1l.28-.55a.25.25,0,0,0,0-.28l-.11-.13,3.25,1.1a.25.25,0,0,0,.22-.44l-2.89-2,.22,0a.25.25,0,0,0,.26-.14l.19-.39c.33,0,.7,0,.81-.25s-.07-.55-.3-.8l.63-1.32c1,.23,1.14,0,1.19-.12s.16-.34-.68-1l.26-.56a.25.25,0,0,0,0-.28l-.12-.12,3.29,1a.25.25,0,0,0,.3-.14.25.25,0,0,0-.09-.31l-3-1.86.22,0a.24.24,0,0,0,.25-.15l.18-.4c.35,0,.7,0,.8-.29s-.1-.54-.33-.78l.59-1.35c1,.19,1.14,0,1.19-.16s.15-.35-.71-1l.24-.57a.25.25,0,0,0-.05-.28l-.12-.12,3.32.87a.25.25,0,0,0,.19-.46l-3-1.77.23,0a.24.24,0,0,0,.25-.15l.17-.41c.34,0,.69-.06.79-.31s-.11-.54-.35-.78l.55-1.36c1,.17,1.14-.07,1.18-.18s.14-.35-.72-1l.23-.57a.25.25,0,0,0-.06-.27l-.12-.12,3.34.8a.25.25,0,0,0,.18-.46l-3-1.71H410a.25.25,0,0,0,.25-.16l.16-.41c.34,0,.69-.07.79-.32s-.12-.54-.36-.77l.53-1.37c1,.15,1.14-.08,1.18-.2s.13-.35-.74-.94l.22-.58A.25.25,0,0,0,412,135l-.13-.12,3.35.76a.25.25,0,0,0,.29-.16.25.25,0,0,0-.11-.31l-3.07-1.67h.23a.28.28,0,0,0,.24-.16L413,133c.34,0,.69-.08.79-.33s-.12-.54-.37-.77l.52-1.38c1.05.15,1.14-.09,1.18-.21s.14-.36-.75-.94l.22-.58a.25.25,0,0,0-.07-.27l-.13-.12,3.35.74A.26.26,0,0,0,418,129a.25.25,0,0,0-.12-.31L414.8,127H415a.25.25,0,0,0,.24-.16l.16-.41c.34,0,.69-.08.79-.33s-.12-.54-.37-.77l.52-1.38c1,.15,1.14-.09,1.18-.21s.13-.35-.75-.94l.22-.58A.25.25,0,0,0,417,122l-.13-.12,3.35.76a.26.26,0,0,0,.29-.16.25.25,0,0,0-.11-.31l-3.07-1.68h.23a.25.25,0,0,0,.24-.16l.16-.41c.34,0,.69-.07.79-.32s-.12-.54-.36-.77l.54-1.38c1,.16,1.14-.08,1.18-.2s.14-.35-.73-.95l.23-.58a.25.25,0,0,0-.06-.27l-.12-.12,3.33.83A.24.24,0,0,0,423,116a.25.25,0,0,0-.11-.31l-3-1.75h.23a.25.25,0,0,0,.25-.15l.17-.41c.33,0,.69-.06.8-.3s-.1-.54-.34-.78l.59-1.37c1,.2,1.14,0,1.19-.14s.16-.34-.69-1l.26-.57a.25.25,0,0,0,0-.27l-.12-.13,3.28,1a.25.25,0,0,0,.3-.13.25.25,0,0,0-.09-.32c-1-.63-1.95-1.28-2.93-1.93l.25,0a.27.27,0,0,0,.26-.14l.2-.4c.33,0,.69,0,.82-.24s-.06-.55-.27-.81l.75-1.32c1,.33,1.13.11,1.19,0s.2-.31-.53-1.07l.05-.08c.1-.15.2-.3.31-.45a.25.25,0,0,0,0-.28l-.13-.21c1.11.6,2.09,1.18,3,1.76a.25.25,0,0,0,.31-.38c-.92-.94-1.71-1.83-2.42-2.68l.35.15a.25.25,0,0,0,.29-.06,3.87,3.87,0,0,1,.38-.35l.18.08a.76.76,0,0,0,.67,0c.22-.14.24-.51.21-.85l.34-.15Z"/></g></svg>