<svg xmlns="http://www.w3.org/2000/svg" viewBox="0 0 480.5 200"><defs><style>.cls-1{fill:#ffff9d;}.cls-2{fill:#666;}.cls-3{fill:#00a388;}.cls-4{fill:#ff6138;}.cls-5{fill:#beeb9f;}.cls-6{fill:#79bd8f;}</style></defs><title>portable_network_analyzer</title><g id="Background"><rect class="cls-1" width="480" height="200"/></g><g id="Layer_1" data-name="Layer 1"><path class="cls-2" d="M480.5,130.5H323.75a4.73,4.73,0,0,1-4.29-2c-2.32-3.61.77-10.6,1.13-11.38l1.82.83c-.85,1.86-2.73,7.18-1.26,9.47a2.83,2.83,0,0,0,2.61,1.11H480.5Z"/><path d="M480.5,132H323.75c-3.41,0-5.08-1.54-5.88-2.83-2.37-3.83.33-9.66.89-10.79l4.47,2.24L321,119.5l2.24,1.11c-1,2-1.71,5-1.11,5.93.26.42,1.22.46,1.63.46H480.5Z"/><path class="cls-2" d="M302.5,130.5H.5v-2h302c1.55,0,2-.68,2.12-.9,1.18-1.88-.3-6.62-1.52-9.17l1.8-.86c.37.78,3.56,7.68,1.41,11.09A4.17,4.17,0,0,1,302.5,130.5Z"/><path d="M302.5,132H.5v-5h302c.54,0,1-.1,1.06-.25.55-.88-.25-4-1.3-6.14l4.47-2.23c.59,1.18,3.41,7.24,1.08,11A5.79,5.79,0,0,1,302.5,132Z"/><path class="cls-3" d="M153.61,102.07h0L0,92.57v69.76L150.52,169v0l1,0a33.5,33.5,0,0,0,2.11-66.93Z"/><path class="cls-4" d="M259.94,65.67l-6.45-6.86a3.63,3.63,0,0,0-2.67-1.11H176.41a4.84,4.84,0,0,0-4.65,4.14L158.28,170.09a3.65,3.65,0,0,0,.92,3l6.44,6.88a3.64,3.64,0,0,0,2.69,1.12h74.42a4.84,4.84,0,0,0,4.65-4.14L260.88,68.68A3.68,3.68,0,0,0,259.94,65.67Z"/><path class="cls-5" d="M248.61,61.67h-73.3L167,128.39h73.3l8.31-66.72"/><polyline points="178.2 136.02 166.92 136.02 165.52 147.29 176.79 147.29 178.2 136.02"/><polyline points="195.11 136.02 183.84 136.02 182.43 147.29 193.71 147.29 195.11 136.02"/><polyline points="212.03 136.02 200.75 136.02 199.35 147.29 210.62 147.29 212.03 136.02"/><polyline points="176.09 152.94 164.82 152.94 163.41 164.21 174.69 164.21 176.09 152.94"/><polyline points="193 152.94 181.73 152.94 180.33 164.21 191.6 164.21 193 152.94"/><polyline points="209.92 152.94 198.65 152.94 197.24 164.21 208.52 164.21 209.92 152.94"/><path d="M227.53,139.78a12,12,0,0,0-11.62,10.33,8.94,8.94,0,0,0,9,10.34,12.07,12.07,0,0,0,11.63-10.34,8.94,8.94,0,0,0-9.06-10.33"/><path class="cls-3" d="M199.13,104.54H171.31l-.12.94h34.49a42.38,42.38,0,0,1-6.56-.94m23.59-13.81c-.34.06-.69.11-1,.15-.59,1.47-1.11,3.19-1.64,4.94a39.17,39.17,0,0,1-2.48,6.72h.75l.26,0A43.71,43.71,0,0,0,220.93,96c.55-1.79,1.13-3.69,1.78-5.25m3-4.26A3.19,3.19,0,0,0,223.14,88a10.39,10.39,0,0,0,1.78-.59,1.59,1.59,0,0,1,.63-.13,1.27,1.27,0,0,1,1.24.88l0,.07c.87,1.56.94,5,1,8.07.09,4.69.17,9.13,2.74,9.13h11.12l.12-.94H230.67c-1.75,0-1.83-4.42-1.91-8.32-.1-5-.19-9.75-3.07-9.75"/><path class="cls-6" d="M203,67.08c-5.26,0-10.77,3.27-10.77,3.27s4.07,1.19,4.29,4.59-6.55,4.84-7.88,15.16c-1.06,8.19,2.56,12.57,10.52,14.44a42.38,42.38,0,0,0,6.56.94l12.24,0A1.74,1.74,0,0,0,219.6,104a1.28,1.28,0,0,0-1-1.46l-.26,0h-1.58a7.16,7.16,0,0,0,2.43-4.47,5.5,5.5,0,0,0-1.7-4.84,21.28,21.28,0,0,1,1.07-2.51,6.42,6.42,0,0,0,1.83.23,12.35,12.35,0,0,0,1.33-.08c.35,0,.7-.09,1-.15l.5-.09c1.09-.22,2.17-.36,2.59-.47a1.56,1.56,0,0,0,1-1.89l0-.07a1.27,1.27,0,0,0-1.24-.88,1.59,1.59,0,0,0-.63.13,10.39,10.39,0,0,1-1.78.59,7,7,0,0,1-1.53.18,4.79,4.79,0,0,1-1.39-.19,6.22,6.22,0,0,1,2.84-2.15,7,7,0,0,0,2.59.53,4.13,4.13,0,0,0,3.51-1.72c1.52-7.78-2.26-9.54-4.83-9.54l-.53,0c1.15-2.28,0-3.45,0-3.45s-2.61,1.31-2.3,3.69c-2.46.6-5.39,4.52-5.39,4.52s-11.75,3.58-14,11.9a13.83,13.83,0,0,0,.16,8c-1.35-1.19-2.94-3.92-1.29-10,2.28-8.43,14.43-11.61,9.13-19.28A8.15,8.15,0,0,0,203,67.08"/><path class="cls-3" d="M175,117.09l.49-1.21c.13-.33.27-.76.4-1.1h0c0,.34.09.76.15,1.1l.2,1.21H175m1.91-3.27h-1.69l-2.45,5.7h1.34l.59-1.46h1.63l.26,1.46h1.39l-1.06-5.7"/><path class="cls-3" d="M181.57,115.28a1.75,1.75,0,0,0-1.36.66h0v-.57h-1.12c0,.36-.07.8-.13,1.32l-.35,2.82h1.29l.3-2.38a1,1,0,0,1,.09-.32.8.8,0,0,1,.71-.48c.47,0,.61.36.54.9l-.29,2.29h1.29l.31-2.45c.15-1.22-.41-1.78-1.26-1.78"/><path class="cls-3" d="M185.16,118.7a.4.4,0,0,1-.45-.49c.06-.49.58-.65,1.23-.65h0l-.06.45-.05.22a.82.82,0,0,1-.73.47m.55-3.42a3.71,3.71,0,0,0-1.65.36l.13.83a2.55,2.55,0,0,1,1.18-.31c.63,0,.71.31.69.53v.06h0c-1.44,0-2.46.52-2.59,1.58a1.1,1.1,0,0,0,1.18,1.27,1.69,1.69,0,0,0,1.25-.51h0l0,.41h1.16a6.41,6.41,0,0,1,.07-1l.18-1.44c.12-1-.22-1.78-1.6-1.78"/><polyline class="cls-3" points="190.06 113.51 188.77 113.51 188.02 119.51 189.31 119.51 190.06 113.51"/><path class="cls-3" d="M194.75,115.38h-1.38l-.76,2c-.09.24-.2.55-.28.77h0c0-.22-.07-.52-.11-.77l-.36-2H190.4l1,3.78a.44.44,0,0,1,0,.21l-.09.19a1.77,1.77,0,0,1-.6.52,1.83,1.83,0,0,1-.59.22l.13,1.09a2.7,2.7,0,0,0,1.31-.57,7.48,7.48,0,0,0,1.79-2.71l1.3-2.72"/><path class="cls-3" d="M196.71,115.28a1.71,1.71,0,0,0-1.85,1.35c-.07.49.2,1,1,1.24.46.16.58.26.55.47s-.2.35-.59.35a2.28,2.28,0,0,1-1.07-.31l-.34.92a2.71,2.71,0,0,0,1.3.29c1.18,0,1.86-.57,2-1.34.07-.61-.21-1-1-1.28-.49-.18-.63-.28-.61-.47s.22-.34.53-.34a1.85,1.85,0,0,1,.87.24l.34-.89a2.57,2.57,0,0,0-1.14-.24"/><path class="cls-3" d="M200.11,115.38h-1.29l-.51,4.14h1.29l.51-4.14m-.42-1.8a.73.73,0,0,0-.76.65.55.55,0,0,0,.59.64.75.75,0,0,0,.77-.64.56.56,0,0,0-.6-.65"/><path class="cls-3" d="M202.7,115.28a1.71,1.71,0,0,0-1.85,1.35c-.07.49.2,1,1,1.24.46.16.58.26.55.47s-.2.35-.59.35a2.28,2.28,0,0,1-1.07-.31l-.34.92a2.71,2.71,0,0,0,1.3.29c1.18,0,1.86-.57,2-1.34.07-.61-.21-1-1-1.28-.49-.18-.63-.28-.61-.47s.22-.34.53-.34a1.85,1.85,0,0,1,.87.24l.34-.89a2.57,2.57,0,0,0-1.14-.24"/><path class="cls-3" d="M205.14,118.06a.86.86,0,0,0-.86.78.64.64,0,0,0,.66.77.85.85,0,0,0,.86-.77.64.64,0,0,0-.66-.78m.34-2.73a.86.86,0,0,0-.86.78.64.64,0,0,0,.66.77.85.85,0,0,0,.86-.77.63.63,0,0,0-.66-.78"/><path class="cls-3" d="M210.28,115.28a1.71,1.71,0,0,0-1.85,1.35c-.07.49.2,1,1,1.24.46.16.58.26.55.47s-.2.35-.59.35a2.28,2.28,0,0,1-1.07-.31l-.34.92a2.71,2.71,0,0,0,1.3.29c1.18,0,1.86-.57,2-1.34.07-.61-.21-1-1-1.28-.49-.18-.63-.28-.61-.47s.22-.34.53-.34a1.85,1.85,0,0,1,.87.24l.34-.89a2.57,2.57,0,0,0-1.14-.24"/><path class="cls-3" d="M213.93,118.59c-.54,0-.82-.45-.73-1.14s.44-1.17,1-1.17a.65.65,0,0,1,.66.62v.21l-.08.62-.07.28a.89.89,0,0,1-.82.58m.06-3.31a2.29,2.29,0,0,0-2.1,2.22c-.16,1.32.56,2.11,1.45,2.11a1.6,1.6,0,0,0,1.3-.61h0l-.27,2.19h1.29l.57-4.57c.05-.43.12-.85.18-1.24h-1.24l-.09.48h0a1.08,1.08,0,0,0-1.08-.58"/><path class="cls-3" d="M221.32,115.38H220l-.31,2.46a.77.77,0,0,1-.08.28.81.81,0,0,1-.7.45c-.45,0-.6-.36-.52-1l.28-2.22H217.4l-.3,2.43c-.16,1.28.39,1.8,1.23,1.8a1.7,1.7,0,0,0,1.38-.68h0v.58h1.12c0-.35.06-.79.13-1.33l.35-2.81"/><path class="cls-3" d="M223.64,115.38h-1.29l-.51,4.14h1.29l.51-4.14m-.42-1.8a.73.73,0,0,0-.76.65.55.55,0,0,0,.59.64.75.75,0,0,0,.77-.64.56.56,0,0,0-.6-.65"/><path class="cls-3" d="M226.95,115.28a1.42,1.42,0,0,0-1.22.85h0l.05-.76h-1.11c0,.36-.06.75-.14,1.36l-.35,2.77h1.29l.26-2.1a1.6,1.6,0,0,1,.06-.29,1,1,0,0,1,1-.65,1.77,1.77,0,0,1,.34,0l.15-1.21a1.29,1.29,0,0,0-.27,0"/><path class="cls-3" d="M230.16,115.28a1.42,1.42,0,0,0-1.22.85h0l.05-.76h-1.11c0,.36-.06.75-.14,1.36l-.35,2.77h1.29l.26-2.1a1.6,1.6,0,0,1,.06-.29,1,1,0,0,1,1-.65,1.77,1.77,0,0,1,.34,0l.15-1.21a1.29,1.29,0,0,0-.27,0"/><path class="cls-3" d="M231.81,117a1,1,0,0,1,.9-.84c.59,0,.66.52.62.84h-1.52m1.08-1.69a2.41,2.41,0,0,0-2.36,2.21,1.73,1.73,0,0,0,1.95,2.11,4.34,4.34,0,0,0,1.53-.25l-.06-.87a3.84,3.84,0,0,1-1.16.17c-.6,0-1.09-.25-1.07-.79h2.66a3.22,3.22,0,0,0,.11-.51c.13-1-.25-2.06-1.59-2.06"/><polyline class="cls-3" points="237.01 113.51 235.72 113.51 234.98 119.51 236.26 119.51 237.01 113.51"/><path class="cls-3" d="M39,0H0V30.06A75.86,75.86,0,0,0,26.29,14.74a8.54,8.54,0,0,0,11-12.26Q38.21,1.26,39,0Z"/></g></svg>