<?xml version="1.0" standalone="no"?>
<!DOCTYPE svg PUBLIC "-//W3C//DTD SVG 20010904//EN"
 "http://www.w3.org/TR/2001/REC-SVG-20010904/DTD/svg10.dtd">
<svg version="1.0" xmlns="http://www.w3.org/2000/svg"
 width="16.000000pt" height="16.000000pt" viewBox="0 0 16.000000 16.000000"
 preserveAspectRatio="xMidYMid meet">
<metadata>
Created by potrace 1.11, written by Peter Selinger 2001-2013
</metadata>
<g transform="translate(0.000000,16.000000) scale(0.001453,-0.001453)"
fill="#000000" stroke="none">
<path d="M10 5500 l0 -5500 5500 0 5500 0 0 5500 0 5500 -5500 0 -5500 0 0
-5500z m6690 3269 l0 -152 -82 6 c-46 4 -170 7 -275 7 l-193 0 0 145 0 145
275 0 275 0 0 -151z m1170 -134 c0 -157 -2 -285 -5 -285 -3 0 -38 16 -77 36
-124 62 -294 122 -450 158 l-28 6 0 185 0 185 280 0 280 0 0 -285z m1170 -270
l0 -555 -280 0 -280 0 0 555 0 555 280 0 280 0 0 -555z m1160 0 l0 -555 -275
0 -275 0 0 555 0 555 275 0 275 0 0 -555z m-7155 -201 c272 -4 545 -2 744 5
350 14 333 16 349 -54 7 -36 2 -99 -11 -111 -2 -3 -60 -13 -128 -24 -146 -22
-203 -39 -264 -74 -78 -46 -113 -108 -141 -248 -16 -75 -18 -260 -24 -1948 -7
-1935 -7 -1960 -51 -2265 -43 -299 -120 -522 -258 -745 -299 -480 -765 -760
-1268 -760 -180 0 -285 34 -313 100 -19 45 -8 127 27 201 38 80 72 122 132
157 67 39 154 35 370 -20 140 -35 182 -42 271 -42 95 -1 110 2 156 26 145 76
215 249 268 663 62 479 68 748 64 2740 -3 1602 -5 1758 -21 1842 -22 121 -49
190 -93 241 -73 86 -154 113 -405 136 -125 11 -155 17 -166 32 -17 24 -17 86
2 131 l15 36 158 -6 c86 -4 351 -10 587 -13z m3930 -8 c427 -59 708 -175 925
-382 106 -101 161 -176 221 -299 132 -270 150 -618 48 -916 -75 -219 -238
-434 -450 -594 -100 -75 -259 -169 -342 -201 -93 -37 -83 -72 103 -369 531
-850 837 -1266 1163 -1582 145 -140 234 -212 327 -261 81 -44 211 -85 303 -96
59 -8 77 -22 77 -64 0 -58 -92 -77 -370 -77 -240 1 -345 15 -510 67 -214 68
-376 173 -575 373 -223 223 -338 379 -720 980 -423 664 -443 691 -567 750 -93
45 -197 58 -413 53 -200 -4 -222 -12 -238 -84 -5 -21 -6 -358 -3 -749 5 -753
9 -827 54 -928 33 -75 57 -101 119 -134 64 -34 148 -55 293 -73 52 -7 106 -19
119 -27 21 -14 23 -20 19 -79 -6 -103 16 -98 -355 -85 -404 14 -679 14 -1108
0 l-339 -11 -18 22 c-22 27 -25 117 -5 144 10 14 46 22 162 37 338 43 407 99
446 364 16 107 25 3120 10 3438 -11 248 -22 318 -58 395 -44 93 -103 123 -296
147 -208 26 -197 23 -213 61 -28 66 -7 138 43 148 44 9 486 36 733 45 124 5
466 8 760 6 430 -2 559 -6 655 -19z m2065 -2071 l0 -555 -280 0 -280 0 0 315
0 316 44 92 c46 97 98 246 117 335 l11 52 194 0 194 0 0 -555z m1160 0 l0
-555 -275 0 -275 0 0 555 0 555 275 0 275 0 0 -555z m-8470 -305 l0 -280 -415
0 -415 0 0 280 0 280 415 0 415 0 0 -280z m800 0 l0 -280 -40 0 -40 0 0 280 0
280 40 0 40 0 0 -280z m2310 0 l0 -280 -415 0 -415 0 0 280 0 280 415 0 415 0
0 -280z m-3110 -1335 l0 -275 -415 0 -415 0 0 275 0 275 415 0 415 0 0 -275z
m800 0 l0 -275 -40 0 -40 0 0 275 0 275 40 0 40 0 0 -275z m2310 0 l0 -275
-415 0 -415 0 0 275 0 275 415 0 415 0 0 -275z m1860 -275 c0 -145 -3 -190
-12 -190 -34 1 -271 39 -276 45 -4 4 -9 81 -10 171 l-4 164 151 0 151 0 0
-190z m2340 40 c0 -82 -3 -150 -8 -150 -7 0 -146 139 -252 253 l-44 47 152 0
152 0 0 -150z m1160 -405 l0 -555 -214 0 -214 0 10 37 c5 21 8 82 6 138 -6
119 -28 186 -94 275 l-44 60 0 300 0 300 275 0 275 0 0 -555z m-2768 -210 c88
-102 241 -255 313 -313 l40 -32 -238 0 -237 0 0 242 c0 235 1 242 18 223 10
-11 57 -65 104 -120z m-5702 -480 l0 -275 -415 0 -415 0 0 275 0 275 415 0
415 0 0 -275z m760 240 c0 -41 -29 -315 -35 -330 -2 -5 -4 74 -4 178 -1 181 0
187 19 187 16 0 20 -7 20 -35z m1799 -27 c32 -156 133 -286 282 -363 90 -46
90 -46 179 -43 l90 3 0 -42 0 -43 -415 0 -415 0 0 275 0 275 133 0 133 0 13
-62z m2411 -1798 l0 -560 -275 0 -275 0 0 560 0 560 275 0 275 0 0 -560z
m1170 0 l0 -560 -277 2 -278 3 -3 545 c-1 300 0 551 3 558 3 9 69 12 280 12
l275 0 0 -560z m1165 0 l0 -555 -277 -3 -278 -2 0 560 0 560 278 -2 277 -3 0
-555z m1165 0 l0 -560 -275 0 -275 0 0 560 0 560 275 0 275 0 0 -560z m-8975
488 c37 -232 186 -402 416 -475 49 -15 89 -31 89 -35 0 -5 -187 -8 -415 -8
l-415 0 0 280 0 280 159 0 159 0 7 -42z m3615 -238 l0 -280 -415 0 -415 0 0
280 0 280 415 0 415 0 0 -280z m-1550 -20 l0 -260 -421 0 -420 0 3 25 c3 23
14 30 108 61 241 81 484 221 674 391 26 23 50 43 52 43 2 0 4 -117 4 -260z
m-1560 -1315 l0 -275 -415 0 -415 0 0 275 0 275 415 0 415 0 0 -275z m1560 0
l0 -275 -420 0 -420 0 0 275 0 275 420 0 420 0 0 -275z m1550 0 l0 -275 -415
0 -415 0 0 275 0 275 415 0 415 0 0 -275z"/>
<path d="M6102 7939 c-71 -12 -108 -33 -129 -72 -17 -30 -18 -95 -21 -957 -2
-509 0 -963 3 -1008 9 -106 19 -117 112 -128 117 -14 598 -10 698 5 342 52
556 199 690 476 90 184 121 357 112 630 -4 125 -11 192 -26 252 -114 454 -433
737 -906 802 -90 13 -457 13 -533 0z m598 -1508 l0 -208 -31 -7 c-17 -3 -85
-6 -150 -6 l-119 0 0 215 0 215 150 0 150 0 0 -209z"/>
</g>
</svg>
