<svg id="Layer_2" data-name="Layer 2" xmlns="http://www.w3.org/2000/svg" viewBox="0 0 192 192"><defs><style>.cls-1{fill:#fff;}</style></defs><title>Artboard 1</title><path d="M26.8,178.94c-10.92,0-14.8-6.29-14.8-11.69,0-9,7.28-15.22,13.81-15.22a26.19,26.19,0,0,1,7.71,1.2c.52.15,1.16.32,1.81.45,1.19-4.4,2.3-15.94,2.3-30.32V69.83a70.15,70.15,0,0,0-.4-9.31l-1.39-.14-5.76-.46L28.2,58.67a10.41,10.41,0,0,1-4.37-9.49,10.64,10.64,0,0,1,5.59-9.1l2-1,2.22.08c8.58.29,13.07.42,18.67.42,5.22,0,9.91-.13,15.71-.42l2.29-.11,2,1a10.62,10.62,0,0,1,5.58,9.1,10.38,10.38,0,0,1-4.37,9.49l-1.68,1.12-4.12.55-.85.12c-.23,2.32-.23,6.43-.23,9.37v52.53c0,11.08-.47,22.47-3.91,30.8C56.2,169.06,42.42,178.94,26.8,178.94Z"/><path class="cls-1" d="M46.35,69.83c0-15.72-1.42-17.42-9.77-18.13L33,51.42c-.85-.57-.57-3.12.28-3.54,8.21.28,13,.42,19,.42,5.67,0,10.48-.14,16.15-.42.85.42,1.13,3,.28,3.54l-2.12.28C58.24,52.83,58,54.81,58,69.83v52.53c0,11.19-.57,21-3.26,27.48C50,161.16,40,170.23,26.8,170.23c-1.7,0-6.08-.14-6.08-3,0-2.4,2.12-6.51,5.09-6.51a17.47,17.47,0,0,1,5.24.85,21.73,21.73,0,0,0,5.95,1,6.07,6.07,0,0,0,5.67-3.68c3.25-6.66,3.68-27.9,3.68-35.54Z"/><path d="M164.59,152c-15.72,0-25.26-5.64-36.44-21.55-2-2.81-4.4-6.64-7-10.69-2.4-3.8-4.88-7.73-7-10.76-.2-.29-.33-.47-.41-.56l-.41-.08v12.12c0,2.79,0,6.67.2,9l6.24.89,1.9,1.58a10.83,10.83,0,0,1,3.56,9.66,10.41,10.41,0,0,1-5.52,8.37l-2,1-2.26-.1c-6.73-.3-11.35-.42-16.47-.42-5.43,0-10.29.12-17.33.42l-2.25.09-2-1a10.25,10.25,0,0,1-5.37-7.3,11.48,11.48,0,0,1,2.37-9.7l2.21-2.58,6.91-.83.62-.08c.2-2.3.2-6.18.2-9V69.68c0-2.05,0-5.7-.17-8.11L79,60.92l-1.79-1.28a10.91,10.91,0,0,1-4.34-9.75,10.46,10.46,0,0,1,5.65-8.68L80,40.48l1.65-.15c8.92-.8,19.2-1.17,32.35-1.17,8.9,0,19.15.63,27.74,5.27C152.34,50,158.15,59.73,158.15,72c0,12.6-6.93,21.81-15.18,27.46,8.77,14,15.57,23.9,23.53,30.58l.17.14a8.3,8.3,0,0,0,4.65,1.81l1.34.1,1.25.5a9.75,9.75,0,0,1,6,7.62,10,10,0,0,1-3.63,9.26l-1.21,1-1.48.49A30.21,30.21,0,0,1,164.59,152ZM114.88,86.6c2.92,0,7.07-.2,9.32-1.91,1-.8,3.64-2.83,3.64-10.62,0-4.89-1.82-13.09-14-13.09h-.49V86.6Z"/><path class="cls-1" d="M93.08,69.68c0-13.45-.43-15.86-6.24-16.56l-4.53-.57c-1-.71-1-3,.14-3.54,7.93-.71,17.71-1.13,31.58-1.13,8.78,0,17.14.7,23.65,4.24,6.8,3.54,11.76,9.92,11.76,19.83,0,13.45-10.62,20.82-17.71,23.65-.7.85,0,2.26.71,3.4,11.33,18.27,18.84,29.6,28.47,37.67a16.91,16.91,0,0,0,9.77,4,1.18,1.18,0,0,1,.14,2,21.86,21.86,0,0,1-6.23.71c-12,0-19.26-3.54-29.31-17.84-3.69-5.24-9.49-15-13.88-21.38-2.13-3.12-4.39-4.54-10.06-4.54-6.37,0-6.65.15-6.65,3.12v17.84c0,14.87.28,16.57,8.49,17.7l3,.43c.85.71.56,3.11-.29,3.54-6.37-.28-11.18-.43-16.85-.43-5.94,0-11,.15-17.7.43-.85-.43-1.13-2.55-.28-3.54l3.54-.43c8.21-1,8.5-2.83,8.5-17.7Zm11.61,20.25c0,2.55,0,4.11.42,4.68s2.55.71,9.77.71c5.1,0,10.48-.57,14.59-3.69,3.82-3,7.08-7.93,7.08-17.56,0-11.18-6.94-21.8-22.66-21.8-8.78,0-9.2.56-9.2,4.53Z"/></svg>