<svg xmlns="http://www.w3.org/2000/svg" xmlns:xlink="http://www.w3.org/1999/xlink" viewBox="0 0 480 200"><defs><style>.cls-1{fill:#0d173e;}.cls-2{fill:url(#linear-gradient);}.cls-3{fill:#f1f2f5;}.cls-4{fill:#2f4974;}.cls-5{fill:url(#radial-gradient);}</style><linearGradient id="linear-gradient" x1="233" y1="26.57" x2="233" y2="200" gradientUnits="userSpaceOnUse"><stop offset="0" stop-color="#a0adc1"/><stop offset="1" stop-color="#0d173e"/></linearGradient><radialGradient id="radial-gradient" cx="223.01" cy="163.55" r="12.48" gradientUnits="userSpaceOnUse"><stop offset="0" stop-color="#a0adc1"/><stop offset="0.11" stop-color="#98a4ba" stop-opacity="0.94"/><stop offset="0.3" stop-color="#818ea6" stop-opacity="0.79"/><stop offset="0.54" stop-color="#5d6985" stop-opacity="0.54"/><stop offset="0.84" stop-color="#2b3659" stop-opacity="0.21"/><stop offset="1" stop-color="#0d173e" stop-opacity="0"/></radialGradient></defs><title>solar_battery_charger</title><g id="Background"><rect class="cls-1" width="480" height="200"/></g><g id="Layer_1" data-name="Layer 1"><polygon class="cls-2" points="224.5 22.5 241.5 22.5 307 199 159 199 224.5 22.5"/><g id="Street_Light" data-name="Street Light"><ellipse class="cls-3" cx="233" cy="22.5" rx="8.5" ry="3"/><path class="cls-4" d="M318,20h-4a2,2,0,0,0-2,2v5a2,2,0,0,0,1,1.72V42.28A2,2,0,0,0,312,44v1.74c-11.81-7.36-41.21-25.68-42.68-26.55a20.18,20.18,0,0,0-10-2.69h-6L253,15a2,2,0,0,0-2-2H232a10,10,0,0,0-10,9.07.84.84,0,0,0,.82.93H252a2,2,0,0,0,2-2l-.25-1.5h5.52a17.12,17.12,0,0,1,8.53,2.28c1.5.87,33.78,21,44.2,27.49V52a2,2,0,0,0,1,1.72V200h6V28.72A2,2,0,0,0,320,27V22A2,2,0,0,0,318,20Z"/></g><g id="Person_Holding_Up_Arm" data-name="Person Holding Up Arm"><path class="cls-1" d="M250.22,120.3a3.72,3.72,0,0,0-4.72,3.52c-.69,4.91-4.38,29.25-9.78,29.25h-24v0c-5.65.32-10.13,4.23-12.06,10.61-1,3.35-1.79,9.65,1.73,12a7.29,7.29,0,0,0,4,.93h.12l2.63-7.82c-.68.14-1.31.25-1.84.31a12.05,12.05,0,0,1,2-6.27,4.86,4.86,0,0,1,3.43-2.22v6.25a49.94,49.94,0,0,0,6.21-2.22l-.07-1.19a3.4,3.4,0,0,1,.89-2.54,2.89,2.89,0,0,1,2.12-.93h4.31a2.89,2.89,0,0,1,2.12.93,3.4,3.4,0,0,1,.89,2.54l-.6,9.94a2.8,2.8,0,0,1-2.83,2.59h-3.46a2.83,2.83,0,0,1-2.51-1.5,59.64,59.64,0,0,1-7.06,2.23V200H223v-7.9h1.5V200h11.26V160.58c12.76-2.25,17.14-35.67,17.14-35.67A3.75,3.75,0,0,0,250.22,120.3Z"/><path class="cls-1" d="M223.66,149.77a9.61,9.61,0,1,1,9.63-9.62A9.6,9.6,0,0,1,223.66,149.77Z"/><circle class="cls-5" cx="223.01" cy="163.55" r="12.48"/><path class="cls-4" d="M224.73,175h-3.46a1.82,1.82,0,0,1-1.83-1.65l-.6-9.94a2.15,2.15,0,0,1,2-2.41h4.31a2.15,2.15,0,0,1,2,2.41l-.6,9.94A1.82,1.82,0,0,1,224.73,175Z"/><path class="cls-1" d="M226.09,165.25a3.75,3.75,0,0,0-5.2-1c-3,2-9.91,4.14-13.73,4.78l-3,7.59c.38,0,.77.05,1.18.05,6.59,0,17.05-4.43,19.67-6.18A3.75,3.75,0,0,0,226.09,165.25Z"/></g><path class="cls-4" d="M238.62,193.38a12.3,12.3,0,0,1-5-1.11c-6.14-2.74-10.95-10.46-10.95-17.57h.75c0,6.84,4.61,14.25,10.5,16.88,3.25,1.45,8.29,2.13,13.87-2.87,10.14-9.09,19.41-52.31,13.77-64.23-1-2-2.26-2.88-4-2.62l-.11-.74c1.41-.21,3.38.13,4.75,3,5.72,12.09-3.67,55.9-13.95,65.11A14.48,14.48,0,0,1,238.62,193.38Z"/><rect class="cls-4" x="248" y="111" width="2" height="19" transform="translate(103.99 356.07) rotate(-84.21)"/></g></svg>