<svg xmlns="http://www.w3.org/2000/svg" xmlns:xlink="http://www.w3.org/1999/xlink" viewBox="0 0 480 200"><defs><style>.cls-1{fill:#d6b043;}.cls-2{fill:#69471a;}.cls-3{fill:#fff;}.cls-4{fill:#3e271f;}.cls-5{fill:#723612;}.cls-6{fill:url(#radial-gradient);}.cls-7{fill:url(#radial-gradient-2);}</style><radialGradient id="radial-gradient" cx="393.73" cy="135.59" r="12.92" gradientUnits="userSpaceOnUse"><stop offset="0" stop-color="#fff"/><stop offset="1" stop-color="#723612" stop-opacity="0"/></radialGradient><radialGradient id="radial-gradient-2" cx="329.73" cy="135.59" r="12.92" xlink:href="#radial-gradient"/></defs><title>ambient_charging</title><g id="Background"><rect class="cls-1" width="480" height="200"/></g><g id="Layer_1" data-name="Layer 1"><g id="Person"><path class="cls-2" d="M327.4,98.72a3,3,0,0,1-.53-.34L319.09,92a10.73,10.73,0,0,0-3-1.79c-1.21-.54-4.64-.81-9.88-1.15v22.84h38V99.71a60.45,60.45,0,0,1-11.82,1.19A6.92,6.92,0,0,1,327.4,98.72Z"/><path class="cls-2" d="M344.26,57.14h-38c-15.48,0-27.52,19.4-29.05,21.61a5.94,5.94,0,0,0,5.19,9.31c17-.87,31.34-.47,34.29,1a16.85,16.85,0,0,0,3.8.55c1.5,0,3.05,1,4.21-.12,2.35-2.29,1.4-6-.89-8.4s-6.13-4.82-24.14-5.17c-1.42,0-2.83,0-4.19,0,3.45-3.17,7.32-5.88,10.79-6.64v5.93c13,.77,17,2.94,19.26,5.22.1.11.2.22.29.33v0L333.5,87a70.88,70.88,0,0,0,10.76-.84V69c20.9,13,9,19-11.82,19a5.94,5.94,0,0,0,0,11.88C358.63,99.9,390.09,81,344.26,57.14Z"/><path class="cls-3" d="M316.75,90.75c.36-.48-.25-1.49,4.95.14,4.49,1.4,6-4.4,5.63-5.82s-3.69-5.19-2.53-5.82,7.2.82,7.2.82-7.5-2.73-9.58-2.36-.8,3.1-.8,3.1l1.71,5.51-2.52,2.84s-6.09-3.46-7.12-.91-.29,11.28-.29,11.28S316.39,91.23,316.75,90.75Z"/><path class="cls-4" d="M325.54,94.71l-5.15-4.21,5.7-7,4.56,3.73A6.89,6.89,0,0,1,332,87l-.39-.32L326,82.13l-7,8.51,5.62,4.6.55.45.76.62A6.87,6.87,0,0,1,325.54,94.71Z"/><path class="cls-2" d="M325.17,51.92a15.21,15.21,0,1,1,15.24-15.23A15.2,15.2,0,0,1,325.17,51.92Z"/><circle class="cls-2" cx="310.68" cy="40.12" r="1.75"/></g><g id="Wine"><path class="cls-4" d="M392.49,72.76l-.23-6.4a.34.34,0,0,1,.14-.32.25.25,0,0,0,.15-.23V64.36a.25.25,0,0,0-.11-.21.32.32,0,0,1-.18-.43.25.25,0,0,0-.05-.15h-4.39a.25.25,0,0,0-.05.15.32.32,0,0,1-.18.43.25.25,0,0,0-.11.21v1.45a.24.24,0,0,0,.14.23.33.33,0,0,1,.15.31l-.22,6.4a27.17,27.17,0,0,1-2.74,9.36,19.85,19.85,0,0,0-1.87,9.11V105.9a2,2,0,0,0,1.38,1.95,21.76,21.76,0,0,0,5.7.46,21,21,0,0,0,5.7-.46,2,2,0,0,0,1.38-1.95V91.22a19.85,19.85,0,0,0-1.87-9.1A27.23,27.23,0,0,1,392.49,72.76ZM396,105.9s0,.76-.58.91a16,16,0,0,1-4.37.43h-1.84a17.6,17.6,0,0,1-4.62-.42c-.57-.15-.59-.91-.59-.91V91.22a18.85,18.85,0,0,1,1.73-8.59,28,28,0,0,0,2.87-9.81l.23-6.43a1.53,1.53,0,0,0-.29-.93v-.71l.08-.11h2.76l.08.11v.7a1.49,1.49,0,0,0-.29.9l.23,6.44a28.13,28.13,0,0,0,2.86,9.82,18.76,18.76,0,0,1,1.74,8.6Z"/><path class="cls-4" d="M391.91,72.78,391.85,71c-1.2,0-2.36,0-3.68.08l-.06,1.65a27.35,27.35,0,0,1-2.81,9.61,19.28,19.28,0,0,0-1.8,8.83V105.9a1.43,1.43,0,0,0,1,1.4,18,18,0,0,0,4.76.44h1.84a16.4,16.4,0,0,0,4.5-.44,1.42,1.42,0,0,0,1-1.39V91.22a19.24,19.24,0,0,0-1.8-8.83A27.71,27.71,0,0,1,391.91,72.78Z"/><path class="cls-5" d="M395.84,90.57a57.75,57.75,0,0,0-11.64,0c-.61.15-.63.91-.63.91V101.6s0,.76.63.91a57.75,57.75,0,0,0,11.64,0c.61-.15.63-.9.63-.91V91.48S396.45,90.72,395.84,90.57Z"/></g><path id="Highball_Glass" data-name="Highball Glass" class="cls-4" d="M399,94.42v11a2,2,0,0,0,2,2h7a2,2,0,0,0,2-2v-11Zm10,11a1,1,0,0,1-1,1h-7a1,1,0,0,1-1-1v-10h9Z"/><rect class="cls-5" x="192" y="106.5" width="288" height="7"/><rect class="cls-5" x="470" y="148" width="10" height="52"/><path class="cls-5" d="M445.5,135H480V115H205.34v85H251V148H236.5a6.5,6.5,0,0,1,0-13h39a6.5,6.5,0,0,1,0,13H261v52h59V148H305.5a6.5,6.5,0,0,1,0-13h11.78a2,2,0,0,1-.28-1,2,2,0,0,1,2-2h25a2,2,0,0,1,1.66,3.11A6.5,6.5,0,0,1,344.5,148H330v52h60V148H375.5a6.5,6.5,0,0,1,0-13h5.78a2,2,0,0,1-.28-1,2,2,0,0,1,2-2h25a2,2,0,0,1,2,2,2,2,0,0,1-.28,1h4.78a6.5,6.5,0,0,1,0,13H400v52h60V148H445.5a6.5,6.5,0,0,1,0-13Z"/><rect class="cls-2" x="231" y="136" width="50" height="11" rx="5.5" ry="5.5"/><rect class="cls-2" x="252" y="148" width="8" height="52"/><rect class="cls-2" x="300" y="136" width="50" height="11" rx="5.5" ry="5.5"/><rect class="cls-2" x="321" y="148" width="8" height="52"/><rect class="cls-2" x="370" y="136" width="50" height="11" rx="5.5" ry="5.5"/><rect class="cls-2" x="391" y="148" width="8" height="52"/><rect class="cls-2" x="461" y="148" width="8" height="52"/><path class="cls-2" d="M480,136H445.5a5.5,5.5,0,0,0,0,11H480Z"/><path class="cls-2" d="M153.77,76.42H115.84a11,11,0,0,0-10.62,7c-.64-3.1-1.22-6.09-1.69-8.57A11.83,11.83,0,0,1,102,76.15L93.4,81.85c3,11.2,8.45,28.28,14.35,31.31,0,.09,4.74,2.37,7.11-2.37,1.66-3.31-4.58-22,1-22.5V200h17.78V138.06H136V200h17.78V88.27c5.43,0,1.91,41.72,1.28,48.77a5.92,5.92,0,1,0,11.76,1S173.92,76.42,153.77,76.42Z"/><path class="cls-2" d="M100.21,65.59A5.92,5.92,0,0,0,90.78,71l5.4-3.59A18.7,18.7,0,0,1,100.21,65.59Z"/><path class="cls-2" d="M119.6,56.74a15.16,15.16,0,1,0,.2-3.3,1.67,1.67,0,0,0-.2,3.3Z"/><g id="Beer"><path class="cls-4" d="M112.71,64.41c.07-.05.2,0,.27-.08l.24-.16c.11-.07.08-.28,0-.39l-1.28-1.92c-.07-.11-.25-.21-.36-.14l-.24.15c-.07,0-.11.17-.18.21-5.47,3.37-11.5,4.23-14.42,6.17L83.85,76.81a.73.73,0,0,0-.2,1l3.89,5.85a.73.73,0,0,0,1,.2l12.89-8.56C104.35,73.38,107.49,68.15,112.71,64.41ZM88.22,82.86,84.67,77.5l12.64-8.4A24.52,24.52,0,0,1,102.45,67a44.81,44.81,0,0,0,9.06-3.9l.42.63a44.8,44.8,0,0,0-7.11,6.84,24.5,24.5,0,0,1-4,3.92Z"/><path class="cls-4" d="M98,68.14a8.9,8.9,0,0,0-1,.54L84,77.36l4.11,6.19,13.06-8.68a24.76,24.76,0,0,0,4.06-4c.92-1,1.91-2.15,3-3.25C104,67.65,101.65,68.08,98,68.14Z"/><path class="cls-5" d="M100.53,75.42c-.45-.85-3.63-5.59-4.24-6.38-.27-.35-1,.19-1,.19l-4.52,3-.86.57-3.57,2.37s-.79.5-.58.88c.49.88,3.65,5.63,4.24,6.38.27.34,1-.19,1-.19l3.57-2.37.86-.57,4.52-3S100.73,75.8,100.53,75.42Z"/></g><g id="Person-2" data-name="Person"><path class="cls-4" d="M62.85,113H61a1,1,0,0,1-1-1V102h9v1.17c.23,0,.46,0,.69,0l.31,0V101H59v11a2,2,0,0,0,2,2h2.31A7.28,7.28,0,0,1,62.85,113Z"/><path class="cls-4" d="M62.38,110.44a7.28,7.28,0,0,1,2.23-5.24,48.21,48.21,0,0,1-5.11.3V112a1.5,1.5,0,0,0,1.5,1.5h2.06A7.26,7.26,0,0,1,62.38,110.44Z"/><path class="cls-2" d="M41.14,71.21A15.18,15.18,0,1,1,56.35,56,15.16,15.16,0,0,1,41.14,71.21Z"/><path class="cls-2" d="M60.19,76.42H22.26c-20.15,0-13,61.64-13,61.64A5.93,5.93,0,1,0,21,137c-.63-7.05-4.15-48.77,1.28-48.77V200H40V138.06h2.37V200H60.19V114.88A3,3,0,0,1,58,112V100h2.19V88.27c4.16,2.59,5.83,7,6.5,11.73H71v4.27a6.31,6.31,0,0,0-7.62,6.17c0,.21,0,.43,0,.63h0c0,2.08,3.07,11.4,8.9,10.25h0a5.23,5.23,0,0,0,3.88-2.25C79,115,80.34,76.42,60.19,76.42Z"/></g><rect class="cls-4" x="382" y="133" width="27" height="2" rx="1" ry="1"/><path class="cls-6" d="M405.25,133c0-.15,0-.31,0-.46a11.54,11.54,0,0,0-23.08,0c0,.16,0,.31,0,.46Z"/><rect class="cls-4" x="318" y="133" width="27" height="2" rx="1" ry="1"/><path class="cls-7" d="M341.25,133c0-.15,0-.31,0-.46a11.54,11.54,0,0,0-23.08,0c0,.16,0,.31,0,.46Z"/><path class="cls-4" d="M458.21,105.4a.5.5,0,0,0-.67.24c-.4.84-40.61,84.36-60.06,84.36-11.21,0-23.25-19-32.92-34.26-7.56-11.93-14.1-22.24-19.06-22.24v1c4.41,0,11.11,10.58,18.21,21.78C374,172.55,385.72,191,397.48,191c20.08,0,59.31-81.46,61-84.93A.5.5,0,0,0,458.21,105.4Z"/><path class="cls-4" d="M460.57,105.36a.51.51,0,0,0-.56.43c-3.32,23.7-13.84,85.21-22.5,85.21-4.51,0-7.25-11.52-10.15-23.71-3.77-15.84-8-33.79-17.85-33.79v1c9,0,13.2,17.54,16.88,33C429.5,180.66,432.2,192,437.5,192c7.28,0,13.93-32.53,16.12-43.22,4.33-21.18,7.35-42.64,7.38-42.85A.5.5,0,0,0,460.57,105.36Z"/></g></svg>