<svg xmlns="http://www.w3.org/2000/svg" xmlns:xlink="http://www.w3.org/1999/xlink" viewBox="0 0 480 200"><defs><style>.cls-1{fill:url(#linear-gradient);}.cls-2{fill:#fdffff;}</style><linearGradient id="linear-gradient" x1="240" y1="200" x2="240" gradientUnits="userSpaceOnUse"><stop offset="0" stop-color="#375479"/><stop offset="1" stop-color="#253f69"/></linearGradient></defs><title>alpine</title><g id="Background"><rect class="cls-1" width="480" height="200"/></g><g id="Layer_1" data-name="Layer 1"><polygon class="cls-2" points="152.74 95.31 141.95 114.59 185.71 114.59 152.74 57.49 119.77 114.59 133.26 114.59 152.74 80.75 165.43 101.88 156.97 101.88 152.74 95.31"/><path class="cls-2" d="M202.75,57.1h7.31V108H222v6.55H202.75Z"/><path class="cls-2" d="M236.29,57.1h9.63q7,0,10.12,3.72t3.16,11.91q0,11.47-6.36,14.82-3.2,1.52-9.24,1.53v25.51h-7.31Zm7.31,25.36q4.53,0,6.26-1.94t1.76-7q0-5.14-1.69-7.52a6.05,6.05,0,0,0-5.3-2.38h-1Z"/><path class="cls-2" d="M274,57.1h7.31v57.49H274Z"/><path class="cls-2" d="M298.41,57.1h6.82L312.5,80q3.16,9.72,5.59,20.74-.88-6.66-1.3-12.06t-.42-10.16V57.1h7.34v57.49h-6.85l-8.19-25.88q-1.12-3.61-2.12-7.41t-1.85-8c0-.35-.12-.77-.23-1.27l-.37-1.71.18,1.66c0,.46.08.85.1,1.17l.39,5.85.39,7.11c0,.4,0,.88.05,1.45s0,1.22,0,1.93l.39,25.06h-7.21Z"/><path class="cls-2" d="M340.79,57.1h19.43v6.55H348.1V81.86h10.75v6.55H348.1V108h12.12v6.55H340.79Z"/><path class="cls-2" d="M157,137a6.12,6.12,0,0,1-.45,2.38,5.67,5.67,0,0,1-1.24,1.87,5.56,5.56,0,0,1-1.88,1.22,6.37,6.37,0,0,1-2.37.44,6.3,6.3,0,0,1-2.36-.44,5.48,5.48,0,0,1-3.11-3.08,6.66,6.66,0,0,1,0-4.77,5.34,5.34,0,0,1,1.23-1.85,5.56,5.56,0,0,1,1.87-1.19,6.36,6.36,0,0,1,2.36-.43,6.43,6.43,0,0,1,2.37.43,5.55,5.55,0,0,1,1.88,1.19,5.46,5.46,0,0,1,1.24,1.85A6.16,6.16,0,0,1,157,137Zm-1.69,0a5,5,0,0,0-.3-1.73,4.39,4.39,0,0,0-.85-1.43,4,4,0,0,0-1.34-1,4.5,4.5,0,0,0-3.51,0,3.9,3.9,0,0,0-1.33,1,4.51,4.51,0,0,0-.85,1.43,5,5,0,0,0-.3,1.73,5.1,5.1,0,0,0,.3,1.76,4.3,4.3,0,0,0,.85,1.43,3.94,3.94,0,0,0,1.33,1,4.17,4.17,0,0,0,1.74.35,4.3,4.3,0,0,0,1.76-.35,3.91,3.91,0,0,0,1.34-1,4.3,4.3,0,0,0,.85-1.43A5.1,5.1,0,0,0,155.31,137Z"/><path class="cls-2" d="M173.84,142.61h-1.56V131.42h3.59a6.89,6.89,0,0,1,1.53.17,3.85,3.85,0,0,1,1.27.53,2.61,2.61,0,0,1,.86,1,3,3,0,0,1,.32,1.45,2.69,2.69,0,0,1-.76,2,3.53,3.53,0,0,1-2,1l3.13,5.14h-1.9l-2.84-5h-1.68Zm0-6.29h1.8a5.4,5.4,0,0,0,1-.1,2.56,2.56,0,0,0,.83-.31,1.51,1.51,0,0,0,.77-1.4,1.62,1.62,0,0,0-.21-.85,1.58,1.58,0,0,0-.54-.54,2.39,2.39,0,0,0-.8-.29,5.13,5.13,0,0,0-1-.09h-1.91Z"/><path class="cls-2" d="M196,142.61H194.3l4.85-11.19h1.42l4.81,11.19h-1.77l-1.14-2.75h-5.31Zm1.68-4.13h4.19l-2.09-5.25Z"/><path class="cls-2" d="M221.53,141.22h5v1.39H220V131.42h1.56Z"/><path class="cls-2" d="M261.2,142.61h-1.57v-9.82H256v-1.38h8.74v1.38H261.2Z"/><path class="cls-2" d="M281,141.22h5.85v1.39h-7.41V131.42h7.18v1.38H281v3.35h5.28v1.34H281Z"/><path class="cls-2" d="M311.37,140.88a5,5,0,0,1-1.72,1.46,5.36,5.36,0,0,1-2.55.56,6.31,6.31,0,0,1-2.36-.44,5.48,5.48,0,0,1-1.86-1.22,5.6,5.6,0,0,1-1.22-1.87,6.58,6.58,0,0,1,0-4.77,5.42,5.42,0,0,1,1.25-1.85,5.61,5.61,0,0,1,1.89-1.19,6.44,6.44,0,0,1,2.37-.43,6.22,6.22,0,0,1,1.15.11,5.75,5.75,0,0,1,1.12.33,4.52,4.52,0,0,1,1,.55,3.53,3.53,0,0,1,.76.75l-1.23.95a3.08,3.08,0,0,0-1.16-.94,3.59,3.59,0,0,0-1.62-.37,4.16,4.16,0,0,0-1.76.36,4,4,0,0,0-1.34,1,4.44,4.44,0,0,0-.85,1.43,5,5,0,0,0-.3,1.73,5.22,5.22,0,0,0,.29,1.77,4.21,4.21,0,0,0,.84,1.43,3.83,3.83,0,0,0,1.33,1,4.24,4.24,0,0,0,1.75.35,3.88,3.88,0,0,0,1.72-.38,3.32,3.32,0,0,0,1.28-1.11Z"/><path class="cls-2" d="M326,131.42h1.57v4.68h5.66v-4.68h1.58v11.19h-1.58v-5.12h-5.66v5.12H326Z"/></g></svg>