<svg id="Background" xmlns="http://www.w3.org/2000/svg" viewBox="0 0 480 200"><defs><style>.cls-1{fill:#fff;}.cls-2{fill:#424143;}</style></defs><title>alpine</title><rect class="cls-1" width="480" height="200"/><polygon class="cls-2" points="254.87 106.05 254.87 94.08 270.18 94.08 270.18 78.77 282.14 78.77 282.14 94.08 297.45 94.08 297.45 106.05 282.14 106.05 282.14 121.36 270.18 121.36 270.18 106.05 254.87 106.05"/><path class="cls-2" d="M276.16,73.74a26.33,26.33,0,1,1-26.32,26.32,26.36,26.36,0,0,1,26.32-26.32m0-9.61a35.94,35.94,0,1,0,35.94,35.93,36,36,0,0,0-35.94-35.93Z"/><polygon class="cls-2" points="203.94 64 239.97 136 227.21 136 203.94 89.49 180.66 136 167.9 136 203.94 64"/></svg>