<svg xmlns="http://www.w3.org/2000/svg" xmlns:xlink="http://www.w3.org/1999/xlink" viewBox="0 0 480 200.09"><defs><style>.cls-1{fill:#46ebff;}.cls-2{fill:#8e371c;}.cls-3{fill:#42210b;}.cls-4{fill:#262626;}.cls-5{fill:#603813;}.cls-6{fill:#1a1a1a;}.cls-7{fill:#36b5bf;}.cls-8{fill:#754c24;}.cls-9{fill:gray;}.cls-10{fill:#1e1e1e;}.cls-11{fill:url(#New_Gradient_Swatch_2);}.cls-12{fill:url(#New_Gradient_Swatch_2-2);}.cls-13{fill:url(#New_Gradient_Swatch_2-3);}.cls-14{fill:url(#New_Gradient_Swatch_2-4);}.cls-15{fill:#666;}.cls-16{fill:#4d4d4d;}.cls-17{fill:#141414;}.cls-18{fill:url(#New_Gradient_Swatch_2-5);}.cls-19{fill:url(#New_Gradient_Swatch_2-6);}.cls-20{fill:#22b573;}</style><linearGradient id="New_Gradient_Swatch_2" x1="190.34" y1="192.5" x2="236.28" y2="192.5" gradientTransform="matrix(1, 0.04, 0, 1, 0, -8.47)" gradientUnits="userSpaceOnUse"><stop offset="0"/><stop offset="0.03" stop-color="#121212"/><stop offset="0.07" stop-color="#282828"/><stop offset="0.12" stop-color="#393939"/><stop offset="0.19" stop-color="#444"/><stop offset="0.28" stop-color="#4b4b4b"/><stop offset="0.53" stop-color="#4d4d4d"/><stop offset="0.75" stop-color="#4b4b4b"/><stop offset="0.83" stop-color="#444"/><stop offset="0.89" stop-color="#393939"/><stop offset="0.94" stop-color="#282828"/><stop offset="0.98" stop-color="#121212"/><stop offset="1"/></linearGradient><linearGradient id="New_Gradient_Swatch_2-2" x1="186.39" y1="198.2" x2="236.28" y2="198.2" xlink:href="#New_Gradient_Swatch_2"/><linearGradient id="New_Gradient_Swatch_2-3" x1="243.1" y1="192.09" x2="291.82" y2="192.09" xlink:href="#New_Gradient_Swatch_2"/><linearGradient id="New_Gradient_Swatch_2-4" x1="243.1" y1="198.85" x2="296.19" y2="198.85" gradientTransform="matrix(1, 0, 0, 1, 0, 0)" xlink:href="#New_Gradient_Swatch_2"/><linearGradient id="New_Gradient_Swatch_2-5" x1="452.03" y1="199.43" x2="490.5" y2="197.12" gradientTransform="matrix(1, 0, 0, 1, 0, 0)" xlink:href="#New_Gradient_Swatch_2"/><linearGradient id="New_Gradient_Swatch_2-6" x1="456.72" y1="193.23" x2="492.82" y2="191.35" gradientTransform="matrix(1, 0, 0, 1, 0, 0)" xlink:href="#New_Gradient_Swatch_2"/></defs><title>augmented_driving_concept</title><g id="Background"><rect class="cls-1" width="480" height="200.09"/></g><g id="Outside"><path class="cls-2" d="M109.69,63.18a5,5,0,0,0-6.16,3.46h0c0,.11-1.09,6-2.4,12.42A9.3,9.3,0,0,0,92,73.12H60c-17,0-11,52-11,52a5,5,0,1,0,10,0s-4-42,1-42v94h0a7.49,7.49,0,0,0,14.95,0h0v-52h2v52h0a7.49,7.49,0,0,0,14.95,0h0v-94c5,0,1.59,16.17,3,19a4.31,4.31,0,0,0,6,2c7.51-3.86,12.16-34.78,12.16-34.78h0A5,5,0,0,0,109.69,63.18Z" transform="translate(0 0)"/><path class="cls-2" d="M75.92,68.73A12.8,12.8,0,1,0,63.14,55.89,12.86,12.86,0,0,0,75.92,68.73Z" transform="translate(0 0)"/><path class="cls-2" d="M421.42,72l-8.56,10.47,9.21,7.52c1.45,15.78-2,11.81-18.54,12.46v0a4.44,4.44,0,0,0-4.48,4.08h-2.74v.34h-1.8a5,5,0,0,0-5,5l-2.32,48.6h2.71l1.4-29.4h22.28l1.75,29.4h2.71l-2.91-48.62a4.9,4.9,0,0,0-.19-1.29c13.61-1.17,15.19-2.53,15.19-13.95l16.37,13.37v44.17h0a6.75,6.75,0,0,0,13.48,0h0V104.23Zm-30,57,.47-9.74h21l.58,9.74Zm21-17.21.33,5.55H392l.26-5.52a2.28,2.28,0,0,1,2.25-2.25h1.8v.31h3.82a4.49,4.49,0,0,0,3.28,1.54v0l.19,0a4.45,4.45,0,0,0,.54,0l8-.62A2.13,2.13,0,0,1,412.47,111.78Z" transform="translate(0 0)"/><path class="cls-2" d="M410.95,76.08A11.54,11.54,0,1,0,399.42,64.5,11.59,11.59,0,0,0,410.95,76.08Z" transform="translate(0 0)"/></g><g id="Inside"><rect class="cls-3" y="177.9" width="480" height="22.1"/><path class="cls-3" d="M431.25,139.17c2.54,1.83,37.34,27.25,37.34,27.25L480,169.33V103.25s-16.08,29.33-25.83,33.5c-9,3.84-14.91,3.1-19.79,2.5C434,139.2,431.65,139.21,431.25,139.17Z" transform="translate(0 0)"/><path class="cls-3" d="M48.22,138.89l-37.8,25.53L0,168.33V107.25s13.73,26.86,23.81,30.13C34.81,140.94,48.22,138.89,48.22,138.89Z" transform="translate(0 0)"/><path class="cls-4" d="M0,167.5c13.5-4.75,22.33-12,45.5-28s102.4-6.67,116.06-3c57.19-3.5,216.69-1.5,272.81,2.75,6.71,4.4,23.69,19.57,33.63,24.25,3.35,1.59,12,4,12,4v13.88c-70.63,4.81-252.5,5.13-298.37,1.31C148.75,176.25,0,180.38,0,180.38Z" transform="translate(0 0)"/><path class="cls-5" d="M161.87,0l5.43,22.32a19.65,19.65,0,0,1,5.26-1.14c3.72,2.43,8.27,11.41,16.69,15s89.17,4.49,98.53-.76c10.71-3.61,14.69-15,17.21-13.7a46.41,46.41,0,0,0,6.78,1.17L316.9,0Z" transform="translate(0 0)"/><path class="cls-6" d="M287.15,33.52c-8.52,6.51-25.29,4.13-29,6-3.92,2-9.25,11.4-6,38.19a3.63,3.63,0,0,1-.16,1.81H223.22a3.51,3.51,0,0,1-.09-1.81c1.44-8.37,2.11-33.79-5.14-38.19-3.83-2.32-21.26-1.72-29.15-7S178.85,0,178.85,0h118.3S295.67,27,287.15,33.52Z" transform="translate(0 0)"/><g id="Mirror"><path d="M284.83,52.11c-16.2-3.65-79.13-3.75-95.23,0-2.43.65-3.42,1.89-3.84,3.2-2.21,6.29-4.47,13.21-4.17,17.45.14,1.64,1.85,3,4.22,3.33,21,2,88.81,2.12,103.57.41,2.23-.32,3.37-1.64,3.52-3.27.47-4.41-.76-11.68-4-17.76C287.41,52.69,286.87,52.61,284.83,52.11Z" transform="translate(0 0)"/><path class="cls-7" d="M244.9,76.71c-25.54,0-48.7-.62-59-1.58-1.81-.23-3.22-1.25-3.32-2.42-.29-4.06,2-10.92,4.12-17,.26-.82.87-2,3.15-2.56,7.27-1.71,25.31-2.77,47.07-2.77,21.56,0,40.28,1.08,47.68,2.75l.13,0c1.76.43,2,.5,3.31,2.86,3.25,6.15,4.28,13.22,3.86,17.18-.12,1.31-1.07,2.16-2.67,2.39-6.21.72-23.21,1.17-44.33,1.17Z" transform="translate(0 0)"/></g><path class="cls-8" d="M166.25,0H0V35.5c24.74-.72,123.7-5.59,133.31-7.93a1.88,1.88,0,0,0,.78-.45,8.3,8.3,0,0,0,1.52-3.29c0-.14.16-.34.53-.44a22.73,22.73,0,0,1,3.55-.12.71.71,0,0,1,.61.4,14.3,14.3,0,0,0,1.19,1.82.8.8,0,0,0,.62.31,11.36,11.36,0,0,0,3.19-.17,18.74,18.74,0,0,0,1.52-2,.79.79,0,0,1,.63-.4l1.75-.1a.81.81,0,0,1,.7.24c1.52,1.58,4.15,3.43,5.6,3.46a31.53,31.53,0,0,0,13.37-3.06c1.71-1,2.79-1.54,2.46-4.08C171.13,16.17,166.25,0,166.25,0Z" transform="translate(0 0)"/><path class="cls-8" d="M310.14,0H480V35.41c-28.35-.63-127.31-5.51-136.92-7.84a1.88,1.88,0,0,1-.78-.45,8.3,8.3,0,0,1-1.52-3.29c0-.14-.16-.34-.53-.44a22.73,22.73,0,0,0-3.55-.12.71.71,0,0,0-.61.4,14.3,14.3,0,0,1-1.19,1.82.8.8,0,0,1-.62.31,11.36,11.36,0,0,1-3.19-.17,18.74,18.74,0,0,1-1.52-2,.79.79,0,0,0-.63-.4l-1.75-.1a.81.81,0,0,0-.7.24c-1.52,1.58-4.15,3.43-5.6,3.46a31.53,31.53,0,0,1-13.37-3.06c-1.71-1-2.79-1.54-2.46-4.08C305.27,16.17,310.14,0,310.14,0Z" transform="translate(0 0)"/><g id="Nav"><path d="M300,180.7c-37.18,0-75.6-.93-110.33-3.07-1.37-1.51,3.44-31.35,7.84-35.14,5-1.22,86.71-1.51,93.8.39C295,145.77,302.09,178.85,300,180.7Z" transform="translate(0 0)"/><path class="cls-9" d="M300.7,177.78c-.19-4.15-1.6-12.13-3.51-19.83-1-4.07-3.58-13.69-5.67-15.3l-.06,0-.07,0c-4.27-1.15-34.36-1.33-43.26-1.36-22.52-.07-47.87.28-50.71,1l-.07,0-.06,0c-3.76,3.24-7.7,24.64-8.13,32.37-.15,2.71.14,3,.27,3.18l.09.1h.13c15.65,1,32.79,1.72,51,2.24,18.73.53,38.68.82,59.34.85h.14l.1-.09C300.5,180.69,300.8,180.12,300.7,177.78Zm-.9,2.6c-20.59,0-40.47-.3-59.14-.83-18.15-.51-35.23-1.25-50.83-2.21-.37-1,.13-7.4,1.89-16.41,1.9-9.73,4.11-16.51,5.92-18.17,3.05-.65,28.1-1,50.48-.93,23.72.09,40,.58,43,1.33,3,2.58,8.5,26.33,8.87,34.62A5.94,5.94,0,0,1,299.8,180.38Z" transform="translate(0 0)"/><path class="cls-10" d="M288.91,179.81l-88.45-2.43a.94.94,0,0,1-.92-.92l0-31.24a.91.91,0,0,1,.93-.89l88.45.48a1,1,0,0,1,1,1l0,33.12A1,1,0,0,1,288.91,179.81Z" transform="translate(0 0)"/></g><g id="Center_Vents" data-name="Center Vents"><path d="M299.29,200.09c-2.79-4.16-5.84-7.85-8.45-9-2.62-.92-97.6-3.84-100.16-2.64-2.58,1.42-6.28,6.66-9.4,11.69Z" transform="translate(0 0)"/><path class="cls-11" d="M235.74,192.67l-44.89-1.25a.53.53,0,0,1-.52-.53.5.5,0,0,1,.52-.5l44.89,1.22a.55.55,0,0,1,.54.54A.51.51,0,0,1,235.74,192.67Z" transform="translate(0 0)"/><path class="cls-12" d="M235.74,198.42l-48.84-1.49a.53.53,0,0,1-.51-.53.49.49,0,0,1,.51-.49l48.84,1.47a.55.55,0,0,1,.54.54A.51.51,0,0,1,235.74,198.42Z" transform="translate(0 0)"/><path class="cls-13" d="M291.26,194.21l-47.61-1.32a.55.55,0,0,1-.54-.54.52.52,0,0,1,.54-.51l47.61,1.3a.57.57,0,0,1,.57.55A.53.53,0,0,1,291.26,194.21Z" transform="translate(0 0)"/><path class="cls-14" d="M243.65,198.66l47.05,1.43H296a.5.5,0,0,0,.16-.37.58.58,0,0,0-.57-.55l-52-1.56a.51.51,0,0,0-.54.51A.55.55,0,0,0,243.65,198.66Z" transform="translate(0 0)"/></g><g id="Instrument_Cluster" data-name="Instrument Cluster"><path class="cls-10" d="M158.37,200.09s6.4-17.49,6.15-21.26C163,155.59,143,153.25,133.39,150.55c-14.27-4-28.29-4.42-44.33-2.09-11.51,1.67-24.72,6.14-30.23,9.76s-11.18,9.17-12.43,19.12S49.13,200,49.13,200Z" transform="translate(0 0)"/><ellipse cx="84.35" cy="176.33" rx="18.3" ry="17.42"/><ellipse cx="130.35" cy="177.33" rx="18.3" ry="17.42"/><path class="cls-15" d="M84.35,160.41c9.26,0,16.8,7.14,16.8,15.92s-7.54,15.92-16.8,15.92-16.8-7.14-16.8-15.92,7.54-15.92,16.8-15.92m0-.5c-9.54,0-17.3,7.37-17.3,16.42s7.76,16.42,17.3,16.42,17.3-7.37,17.3-16.42-7.76-16.42-17.3-16.42Z" transform="translate(0 0)"/><path class="cls-15" d="M72.41,185.32l-1.62,1.18-.31-.39,1.62-1.17Zm-.52-2.07-2.43,1.4.27.42,2.43-1.4Zm1.24,2.86-1.48,1.34.35.36,1.49-1.34C73.36,186.34,73.25,186.22,73.13,186.1Zm-3.76-6.84-2,.42c0,.16.09.32.13.48l2-.42C69.46,179.58,69.41,179.42,69.37,179.26Zm4.9,7.89-1.34,1.48.38.33,1.34-1.49Zm-3.85-4.89-1.83.81.23.45,1.83-.81Zm-.61-1.47-1.9.62c.05.16.12.31.18.47l1.9-.62C69.93,181.1,69.86,180.95,69.81,180.79Zm7.61,7.13-1.59,2.68.44.24,1.6-2.68Zm3.68,2.49-.42,2,.49.09.42-2Zm1.49.23-.21,2,.5,0,.21-2Zm-7.09-2.57-1.17,1.62.41.28,1.18-1.62Zm18.92-.93-.38.32L95.39,189l.38-.33ZM79.63,190l-.62,1.9.48.14.62-1.9ZM69.12,177.68l-2,.21c0,.17,0,.33.07.5l2-.21C69.17,178,69.14,177.85,69.12,177.68Zm9.08,11.85-.81,1.83.46.19.81-1.83Zm10.38.65.62,1.9.48-.14-.62-1.9Zm-7-28-.42-2-.49.09.42,2Zm-1.48.33-.62-1.9-.48.14.62,1.9Zm4.24,27.27H84.1v3h.5v-3ZM78.67,163l-.81-1.83-.46.19.81,1.83Zm-2.74,1.35-1.18-1.62-.41.28,1.17,1.62Zm8.43-1.4h.25v-3h-.5v3Zm-6.51,1.65-1.58-2.73-.44.24,1.58,2.73ZM83.09,162l-.21-2-.5,0,.21,2ZM95.57,186.1c-.12.12-.23.24-.35.36l1.49,1.34.35-.36Zm-2.8,2.26L94,190l.41-.28-1.17-1.62Zm-7.17,2.34.21,2,.5,0-.21-2Zm1.5-.19.42,2,.49-.09-.42-2Zm3.8-2.35,1.53,2.68.44-.24-1.53-2.68ZM90,189.71l.81,1.83.46-.19-.81-1.83Zm-23-13.13h3c0-.08,0-.17,0-.25s0-.17,0-.25h-3c0,.08,0,.17,0,.25S67.06,176.5,67.06,176.58ZM87.6,162.24l.42-2-.49-.09-.42,2Zm5.59,2.34L94.37,163l-.41-.28-1.18,1.62Zm-20.07,2c.12-.12.23-.24.35-.36L72,164.86l-.35.36Zm1.14-1.05.38-.32-1.34-1.49-.38.33Zm14.8-2.89.62-1.9-.48-.14-.62,1.9Zm2.37,2,1.44-2.53-.44-.24L91,164.36Zm-.94-1.45.81-1.83-.46-.19L90,163ZM86.11,162l.21-2-.5,0-.21,2ZM69.37,173.4c0-.16.09-.32.13-.48l-2-.42c0,.16-.1.32-.13.48Zm.44-1.53c.05-.16.12-.31.18-.47l-1.9-.62c-.06.16-.13.31-.18.47ZM69.12,175c0-.17,0-.33.07-.5l-2-.21c0,.17-.05.33-.07.5Zm3-5.43.27-.42-2.63-1.54-.27.42Zm-1.67.85.23-.45-1.83-.81-.23.45Zm1.68-2.67.31-.39-1.62-1.18-.31.39Zm24.36,1.91L99.25,168,99,167.6l-2.79,1.63Zm3.12,8c0,.17,0,.33-.07.5l2,.21c0-.17.05-.33.07-.5Zm-.25,1.58c0,.16-.09.32-.13.48l2,.42c0-.16.1-.32.13-.48Zm-.68-2.93c0,.08,0,.17,0,.25h3c0-.08,0-.17,0-.25s0-.17,0-.25h-3C98.64,176.16,98.65,176.24,98.65,176.33Zm-.37,5.93-.23.45,1.83.81.23-.45Zm-1.71.83-.27.42L99,185.06l.27-.42Zm-2.14-17.58L95.77,164l-.38-.33L94,165.18Zm4.46,15.28c-.05.16-.12.31-.18.47l1.9.62c.06-.16.13-.31.18-.47Zm.69-5.81,2-.21c0-.17,0-.33-.07-.5l-2,.21C99.54,174.65,99.56,174.81,99.58,175Zm-3,9.94-.31.39,1.62,1.18.31-.39Zm0-17.19,1.62-1.17-.31-.39-1.62,1.18Zm-1-1.17,1.48-1.34-.35-.36-1.49,1.34C95.35,166.32,95.46,166.44,95.57,166.56Zm3.76,6.84,2-.42c0-.16-.09-.32-.13-.48l-2,.42C99.24,173.08,99.3,173.24,99.33,173.4Zm-1-3,1.83-.81-.23-.45-1.83.81Zm.61,1.47,1.9-.62c-.05-.16-.12-.31-.18-.47l-1.9.62C98.77,171.56,98.84,171.71,98.89,171.87Z" transform="translate(0 0)"/><path class="cls-16" d="M130.35,161.41c9.26,0,16.8,7.14,16.8,15.92s-7.54,15.92-16.8,15.92-16.8-7.14-16.8-15.92,7.54-15.92,16.8-15.92m0-.5c-9.54,0-17.3,7.37-17.3,16.42s7.76,16.42,17.3,16.42,17.3-7.37,17.3-16.42-7.76-16.42-17.3-16.42Z" transform="translate(0 0)"/><path class="cls-16" d="M117.89,184.24l-2.43,1.4.27.42,2.43-1.4Zm5.53,4.68-1.59,2.68.44.24,1.6-2.68Zm6.93,1.83h-.25v3h.5v-3Zm0-26.84h.25v-3h-.5v3Zm-6.51,1.65-1.58-2.73-.44.24,1.58,2.73Zm13.06,23.6,1.53,2.68.44-.24-1.53-2.68Zm-23.84-11.57h3c0-.08,0-.17,0-.25s0-.17,0-.25h-3c0,.08,0,.17,0,.25S113.06,177.5,113.06,177.58Zm24.38-12,1.44-2.53-.44-.24L137,165.36Zm-19.36,5,.27-.42-2.63-1.54-.27.42Zm24.37.09,2.79-1.63-.27-.42-2.79,1.63Zm2.2,6.68c0,.08,0,.17,0,.25h3c0-.08,0-.17,0-.25s0-.17,0-.25h-3C144.64,177.16,144.65,177.24,144.65,177.33Zm-2.08,6.76-.27.42,2.68,1.55.27-.42Z" transform="translate(0 0)"/><polygon class="cls-2" points="84.86 180.19 83.37 180.03 85.33 164.09 86.42 164.21 84.86 180.19"/><polygon class="cls-2" points="132.78 179.51 131.69 180.54 120.78 168.76 121.58 168 132.78 179.51"/></g><path id="Steering_Wheel" data-name="Steering Wheel" class="cls-17" d="M121.52,141.15C86.32,119,39.63,129.79,17.23,165.33A76.28,76.28,0,0,0,5.68,200H156.35A75,75,0,0,0,121.52,141.15ZM137.41,198c-4.18,0-12.77-4.74-15-5.91a65.06,65.06,0,0,1-6.51-4.5c-.91-.73-5.91-4-9.55-4.95s-19-1.63-25.4-1.6-16.51.86-20,1.78a54.42,54.42,0,0,0-9.9,3.92c-1.44.75-4.18,3.15-5.46,3.75-2,.92-12.11,4.89-22.82,3.74-2.31-1-2.57-4.69-.65-7.62,3.64-6,10.88-10.32,16.23-20.93,1.51-2.2,1.67-5.4,4-9.15s12.36-13.11,38.63-14c30.49-1,42.23,15.3,42.23,15.3s3.71,5.15,4.61,9.78,12.13,18.9,13.54,22.27S141.59,198,137.41,198Z" transform="translate(0 0)"/><g id="Center_Vents-2" data-name="Center Vents"><path d="M480,188.84c-12.69.77-22,1.44-22.82,1.74-2.67,1.28-5.79,5.13-8.63,9.42H480Z" transform="translate(0 0)"/><path class="cls-18" d="M480,197.32l-27.61,1.46a.59.59,0,0,0-.57.57.52.52,0,0,0,.57.5L480,198.38Z" transform="translate(0 0)"/><path class="cls-19" d="M480,191.51l-23.24,1.17a.59.59,0,0,0-.57.56.52.52,0,0,0,.57.5L480,192.57Z" transform="translate(0 0)"/></g><path class="cls-20" d="M158.66,105a2.35,2.35,0,0,0,.75-.18,1.39,1.39,0,0,0,.57-.43,1.15,1.15,0,0,0,.2-.76,1.36,1.36,0,0,0-.5-1.09,1.72,1.72,0,0,0-1.09-.38,1.46,1.46,0,0,0-1.26.56,2.13,2.13,0,0,0-.37,1.41h-2.11a4.64,4.64,0,0,1,.25-1.56,3.41,3.41,0,0,1,.73-1.21,3.26,3.26,0,0,1,1.16-.78,4,4,0,0,1,1.53-.28,4.62,4.62,0,0,1,1.32.2,3.88,3.88,0,0,1,1.2.59,3.35,3.35,0,0,1,.88,1,2.63,2.63,0,0,1,.37,1.31,2.58,2.58,0,0,1-.34,1.42,1.85,1.85,0,0,1-1.12.84v0a2.48,2.48,0,0,1,1.45.88,2.67,2.67,0,0,1,.57,1.62,3.37,3.37,0,0,1-.29,1.54,3.22,3.22,0,0,1-.86,1.13,3.82,3.82,0,0,1-1.28.69,4.91,4.91,0,0,1-1.52.24,5.09,5.09,0,0,1-1.69-.27,3.64,3.64,0,0,1-1.31-.78,3.6,3.6,0,0,1-.86-1.25,4.52,4.52,0,0,1-.33-1.7h2.11a3.24,3.24,0,0,0,.17.84,2.15,2.15,0,0,0,.38.69,1.79,1.79,0,0,0,.6.46,1.9,1.9,0,0,0,.84.17,1.77,1.77,0,0,0,1.25-.46,1.57,1.57,0,0,0,.48-1.27,1.65,1.65,0,0,0-.27-1,1.45,1.45,0,0,0-.63-.48,2.6,2.6,0,0,0-.83-.17l-.85,0-.05-1.58A4.64,4.64,0,0,0,158.66,105Z" transform="translate(0 0)"/><path class="cls-20" d="M163.63,103.33a4.72,4.72,0,0,1,.82-1.76,3,3,0,0,1,1.25-.95,4.14,4.14,0,0,1,1.54-.28,4.32,4.32,0,0,1,1.57.28,3.31,3.31,0,0,1,1.31.95,5,5,0,0,1,.93,1.76,9.88,9.88,0,0,1,.4,2.71,10,10,0,0,1-.25,2.77,4.65,4.65,0,0,1-.83,1.77,3,3,0,0,1-1.25.94,4.18,4.18,0,0,1-1.55.28,4.26,4.26,0,0,1-1.55-.28,3.24,3.24,0,0,1-1.3-.94,5,5,0,0,1-.92-1.77,10.25,10.25,0,0,1-.4-2.77A9.68,9.68,0,0,1,163.63,103.33Zm2,3.85a6.26,6.26,0,0,0,.23,1.29,2.88,2.88,0,0,0,.55,1.06,1.29,1.29,0,0,0,1,.44,1.26,1.26,0,0,0,1-.44,2.64,2.64,0,0,0,.5-1.06,6.13,6.13,0,0,0,.16-1.29q0-.67,0-1.14c0-.19,0-.42,0-.69a7.67,7.67,0,0,0-.09-.83,7.88,7.88,0,0,0-.18-.84,2.7,2.7,0,0,0-.33-.75,1.77,1.77,0,0,0-.53-.54,1.41,1.41,0,0,0-.77-.2,1.31,1.31,0,0,0-.75.2,1.58,1.58,0,0,0-.49.54,2.84,2.84,0,0,0-.28.75,5.83,5.83,0,0,0-.13.84q0,.43,0,.83c0,.27,0,.5,0,.69S165.64,106.73,165.67,107.18Z" transform="translate(0 0)"/><path class="cls-20" d="M179,103.45l0,1h0a2.37,2.37,0,0,1,1-1,3.11,3.11,0,0,1,1.37-.3,3.41,3.41,0,0,1,2.82,1.33A4.2,4.2,0,0,1,185,106a6.32,6.32,0,0,1,.26,1.66,5.59,5.59,0,0,1-.18,1.57,3.9,3.9,0,0,1-.63,1.34,3.2,3.2,0,0,1-1.09.93,3.28,3.28,0,0,1-1.55.35,3.19,3.19,0,0,1-1.39-.31,2.71,2.71,0,0,1-1.06-.9h0l.1,3.85h-2.22l-.28-11Zm3,6.46a1.72,1.72,0,0,0,.58-.57,2.33,2.33,0,0,0,.3-.83,4.9,4.9,0,0,0,.07-1,4.6,4.6,0,0,0-.12-1,2.63,2.63,0,0,0-.36-.84,2,2,0,0,0-.62-.6,1.7,1.7,0,0,0-.91-.23,1.68,1.68,0,0,0-.91.23,1.76,1.76,0,0,0-.58.59,2.41,2.41,0,0,0-.3.84,5,5,0,0,0-.07,1,4.57,4.57,0,0,0,.13,1,2.56,2.56,0,0,0,.35.83,1.82,1.82,0,0,0,.62.57,1.79,1.79,0,0,0,.91.22A1.72,1.72,0,0,0,182.05,109.91Z" transform="translate(0 0)"/><path class="cls-20" d="M190.91,103.45l0,1.5h-1.63l.09,4a1.12,1.12,0,0,0,.2.76,1.1,1.1,0,0,0,.75.19l.36,0,.33,0,0,1.73a5.19,5.19,0,0,1-.62.06l-.67,0a6.48,6.48,0,0,1-1-.07,2.32,2.32,0,0,1-.82-.28,1.49,1.49,0,0,1-.57-.58,2.12,2.12,0,0,1-.23-1l-.11-4.81h-1.35l0-1.5h1.35L187,101h2.23l.05,2.45Z" transform="translate(0 0)"/><path class="cls-20" d="M194,109.58a1.33,1.33,0,0,0,.39.42,1.67,1.67,0,0,0,.54.24,2.52,2.52,0,0,0,.63.08,2.36,2.36,0,0,0,.49-.05,1.65,1.65,0,0,0,.47-.17,1,1,0,0,0,.35-.31.82.82,0,0,0,.13-.5q0-.5-.68-.76a13.53,13.53,0,0,0-1.86-.5q-.49-.11-1-.26a3.28,3.28,0,0,1-.83-.39,2,2,0,0,1-.59-.61,1.78,1.78,0,0,1-.24-.91,2.43,2.43,0,0,1,.28-1.29,2.19,2.19,0,0,1,.79-.8,3.45,3.45,0,0,1,1.12-.41,6.84,6.84,0,0,1,1.28-.12,6.42,6.42,0,0,1,1.28.13,3.43,3.43,0,0,1,1.11.43,2.63,2.63,0,0,1,.82.8,2.73,2.73,0,0,1,.41,1.25H196.8a1,1,0,0,0-.5-.88,2.23,2.23,0,0,0-1-.23l-.41,0a1.33,1.33,0,0,0-.4.1.8.8,0,0,0-.3.23.6.6,0,0,0-.12.4.63.63,0,0,0,.23.49,1.72,1.72,0,0,0,.58.31,7.26,7.26,0,0,0,.81.21l.93.2a9.36,9.36,0,0,1,1,.27,3.17,3.17,0,0,1,.83.42,2.08,2.08,0,0,1,.59.65,1.93,1.93,0,0,1,.24,1,2.58,2.58,0,0,1-.3,1.35,2.5,2.5,0,0,1-.82.87,3.35,3.35,0,0,1-1.17.46,6.87,6.87,0,0,1-1.35.13,6.71,6.71,0,0,1-1.38-.14,3.72,3.72,0,0,1-1.21-.47A2.65,2.65,0,0,1,191.7,109h2.11A1.25,1.25,0,0,0,194,109.58Z" transform="translate(0 0)"/><path class="cls-20" d="M201.58,125.37H153.35a7.63,7.63,0,0,1-7.55-7.31L145,95.19a7.12,7.12,0,0,1,7.11-7.46h48.85a7.57,7.57,0,0,1,7.49,7.46l.34,22.86A7.18,7.18,0,0,1,201.58,125.37Zm-49.4-34.65a4.27,4.27,0,0,0-4.27,4.47l.8,22.86a4.58,4.58,0,0,0,4.53,4.39h48.29a4.31,4.31,0,0,0,4.31-4.39l-.36-22.86a4.54,4.54,0,0,0-4.5-4.47Z" transform="translate(0 0)"/><path class="cls-20" d="M119.4,121.48H44.64L39,39.26h76.71Zm-73.86-1h72.84l-3.63-80.21H40.07Z" transform="translate(0 0)"/><polygon class="cls-20" points="146.87 107.31 117.81 107.31 117.77 106.33 146.84 106.33 146.87 107.31"/><path class="cls-20" d="M317.55,59.32l-.5,2.58,0,0a2.89,2.89,0,0,1,1-.67,3.31,3.31,0,0,1,1.2-.2,3.25,3.25,0,0,1,1.45.31,3.11,3.11,0,0,1,1.05.83,3.53,3.53,0,0,1,.64,1.23,4.77,4.77,0,0,1,.2,1.5,4,4,0,0,1-.37,1.63,4.28,4.28,0,0,1-.93,1.3A4.09,4.09,0,0,1,318.41,69a5.37,5.37,0,0,1-1.54-.22,3.74,3.74,0,0,1-1.29-.67,3.26,3.26,0,0,1-.89-1.12,3.5,3.5,0,0,1-.33-1.56h2.25a1.85,1.85,0,0,0,.55,1.24,1.88,1.88,0,0,0,2,.27,2,2,0,0,0,.61-.49,2.27,2.27,0,0,0,.4-.7,2.55,2.55,0,0,0,.15-.82,2.61,2.61,0,0,0-.11-.83,1.88,1.88,0,0,0-.37-.68,1.73,1.73,0,0,0-.59-.45,1.88,1.88,0,0,0-.81-.16,2,2,0,0,0-1,.22,2.39,2.39,0,0,0-.73.69h-2L316,57.41h6.22l0,1.9Z" transform="translate(0 0)"/><path class="cls-20" d="M330.43,60.39l0,1.07h0a2.59,2.59,0,0,1,1.07-1,3.21,3.21,0,0,1,1.41-.31,3.44,3.44,0,0,1,1.66.37,3.33,3.33,0,0,1,1.13,1,4.11,4.11,0,0,1,.64,1.44,6.45,6.45,0,0,1,.18,1.71,5.93,5.93,0,0,1-.27,1.62,4.29,4.29,0,0,1-.71,1.38,3.51,3.51,0,0,1-1.15,1,3.39,3.39,0,0,1-1.59.36,3.1,3.1,0,0,1-1.39-.31,2.57,2.57,0,0,1-1-.93h0l-.1,4H328l.28-11.3ZM333.19,67a1.9,1.9,0,0,0,.62-.59,2.56,2.56,0,0,0,.35-.85,5.22,5.22,0,0,0,.12-1,4.72,4.72,0,0,0-.08-1,2.6,2.6,0,0,0-.32-.87,1.85,1.85,0,0,0-.6-.62,1.65,1.65,0,0,0-.91-.24,1.74,1.74,0,0,0-.93.24,1.94,1.94,0,0,0-.62.61,2.65,2.65,0,0,0-.35.86,5.3,5.3,0,0,0-.12,1,4.66,4.66,0,0,0,.08,1,2.51,2.51,0,0,0,.31.85,1.67,1.67,0,0,0,1.51.82A1.79,1.79,0,0,0,333.19,67Z" transform="translate(0 0)"/><path class="cls-20" d="M342.51,60.39l0,1.54h-1.65l-.12,4.15a1.12,1.12,0,0,0,.17.78,1.06,1.06,0,0,0,.76.19l.37,0,.33,0-.05,1.78a5.27,5.27,0,0,1-.64.07l-.68,0a6.41,6.41,0,0,1-1-.07,2.21,2.21,0,0,1-.82-.28,1.42,1.42,0,0,1-.55-.6,2.14,2.14,0,0,1-.18-1l.14-4.94h-1.37l0-1.54h1.37l.07-2.52h2.26l-.07,2.52Z" transform="translate(0 0)"/><path class="cls-20" d="M345.3,66.69a1.27,1.27,0,0,0,.37.44,1.6,1.6,0,0,0,.54.25,2.48,2.48,0,0,0,.64.08,2.4,2.4,0,0,0,.5-.06,1.75,1.75,0,0,0,.48-.18,1.14,1.14,0,0,0,.37-.32.89.89,0,0,0,.16-.51q0-.52-.65-.78a13.06,13.06,0,0,0-1.86-.52q-.49-.11-1-.27a3.12,3.12,0,0,1-.82-.4,1.87,1.87,0,0,1-.57-.63,1.79,1.79,0,0,1-.19-.93,2.62,2.62,0,0,1,.35-1.33,2.41,2.41,0,0,1,.84-.82,3.64,3.64,0,0,1,1.16-.42,6.94,6.94,0,0,1,1.31-.12,6.33,6.33,0,0,1,1.29.13,3.28,3.28,0,0,1,1.11.44,2.49,2.49,0,0,1,.79.82,2.73,2.73,0,0,1,.35,1.29h-2.14a1,1,0,0,0-.46-.9,2.17,2.17,0,0,0-1-.23l-.41,0a1.39,1.39,0,0,0-.41.11.88.88,0,0,0-.32.23.65.65,0,0,0-.14.41.62.62,0,0,0,.21.5,1.63,1.63,0,0,0,.57.32,7,7,0,0,0,.81.22l.93.21a9,9,0,0,1,1,.28,3,3,0,0,1,.82.43,2,2,0,0,1,.57.66,1.94,1.94,0,0,1,.19,1,2.65,2.65,0,0,1-1.25,2.28,3.54,3.54,0,0,1-1.21.48,7,7,0,0,1-1.38.14,6.61,6.61,0,0,1-1.39-.15,3.55,3.55,0,0,1-1.2-.49,2.63,2.63,0,0,1-.84-.9A2.8,2.8,0,0,1,343,66h2.14A1.26,1.26,0,0,0,345.3,66.69Z" transform="translate(0 0)"/><path class="cls-20" d="M356.6,82.94H307.67a7.33,7.33,0,0,1-7.28-7.52l.36-23.52a7.74,7.74,0,0,1,7.61-7.68h49.55a7.27,7.27,0,0,1,7.21,7.68l-.86,23.52A7.8,7.8,0,0,1,356.6,82.94ZM308.31,47.29a4.64,4.64,0,0,0-4.56,4.6l-.39,23.52a4.4,4.4,0,0,0,4.37,4.52h49a4.68,4.68,0,0,0,4.6-4.52l.84-23.52a4.36,4.36,0,0,0-4.32-4.6Z" transform="translate(0 0)"/><path class="cls-20" d="M462.66,128.42H382.13l3.43-79.33h82.54Zm-79.52-1h78.61L467,50.12H386.51Z" transform="translate(0 0)"/><polygon class="cls-20" points="385.18 63.84 362.98 63.84 363.02 62.83 385.23 62.83 385.18 63.84"/><path class="cls-15" d="M228.07,151v-1H232v1h-1.45v4.21H229.5V151Z" transform="translate(0 0)"/><path class="cls-15" d="M231.73,152.57a1.77,1.77,0,0,1,.37-.62,1.62,1.62,0,0,1,.57-.4,1.88,1.88,0,0,1,.75-.14,1.92,1.92,0,0,1,.75.14,1.64,1.64,0,0,1,.58.4,1.8,1.8,0,0,1,.37.63,2.46,2.46,0,0,1,.13.82,2.4,2.4,0,0,1-.13.82,1.77,1.77,0,0,1-.37.62,1.58,1.58,0,0,1-.58.39,2.12,2.12,0,0,1-1.5,0,1.62,1.62,0,0,1-.57-.4,1.8,1.8,0,0,1-.37-.62,2.41,2.41,0,0,1-.13-.81A2.44,2.44,0,0,1,231.73,152.57Zm.88,1.26a1.24,1.24,0,0,0,.14.39.78.78,0,0,0,.26.27.76.76,0,0,0,.41.1.77.77,0,0,0,.41-.1.75.75,0,0,0,.27-.27,1.23,1.23,0,0,0,.14-.39,2.35,2.35,0,0,0,0-.44,2.44,2.44,0,0,0,0-.45,1.19,1.19,0,0,0-.14-.39.81.81,0,0,0-.27-.27.75.75,0,0,0-.41-.11.73.73,0,0,0-.41.1.81.81,0,0,0-.26.27,1.18,1.18,0,0,0-.14.38,2.43,2.43,0,0,0,0,.44A2.36,2.36,0,0,0,232.6,153.83Z" transform="translate(0 0)"/><path class="cls-15" d="M238.42,154.84a1,1,0,0,1-.45.44,1.43,1.43,0,0,1-.63.13,1.43,1.43,0,0,1-1.2-.62,2.1,2.1,0,0,1-.3-.65,2.87,2.87,0,0,1-.1-.76,2.69,2.69,0,0,1,.1-.73,1.94,1.94,0,0,1,.3-.62,1.5,1.5,0,0,1,.49-.43,1.4,1.4,0,0,1,.69-.16,1.33,1.33,0,0,1,.61.14,1.08,1.08,0,0,1,.45.42h0v-1.91h1v5.25h-.94v-.48Zm0-1.88a1.15,1.15,0,0,0-.14-.38.83.83,0,0,0-.26-.27.73.73,0,0,0-.4-.1.76.76,0,0,0-.41.1.78.78,0,0,0-.27.27,1.23,1.23,0,0,0-.14.38,2.17,2.17,0,0,0,0,.45,2.05,2.05,0,0,0,0,.44,1.25,1.25,0,0,0,.16.39.9.9,0,0,0,.27.28.7.7,0,0,0,.39.11.71.71,0,0,0,.67-.37,1.27,1.27,0,0,0,.14-.39,2.43,2.43,0,0,0,0-.46A2.37,2.37,0,0,0,238.37,153Z" transform="translate(0 0)"/><path class="cls-15" d="M240.07,152.7a1.26,1.26,0,0,1,.17-.61,1.21,1.21,0,0,1,.39-.39,1.63,1.63,0,0,1,.54-.21,2.88,2.88,0,0,1,.6-.06,3.92,3.92,0,0,1,.56,0,1.69,1.69,0,0,1,.51.16,1,1,0,0,1,.38.33,1,1,0,0,1,.15.56v2a4.23,4.23,0,0,0,0,.5.93.93,0,0,0,.1.36h-1a1.41,1.41,0,0,1,0-.18,1.66,1.66,0,0,1,0-.19,1.28,1.28,0,0,1-.56.36,2.14,2.14,0,0,1-.66.1,1.7,1.7,0,0,1-.48-.07,1.09,1.09,0,0,1-.39-.21,1,1,0,0,1-.26-.36,1.26,1.26,0,0,1-.09-.51,1.15,1.15,0,0,1,.11-.53.93.93,0,0,1,.28-.33,1.21,1.21,0,0,1,.39-.18l.45-.1.44-.06A2.57,2.57,0,0,0,242,153a.66.66,0,0,0,.27-.13.29.29,0,0,0,.09-.25.59.59,0,0,0-.05-.27.4.4,0,0,0-.14-.16.55.55,0,0,0-.2-.07l-.25,0a.73.73,0,0,0-.46.13.6.6,0,0,0-.2.44Zm2.3.79a.42.42,0,0,1-.16.09l-.2.05-.23,0-.24,0-.22.06a.63.63,0,0,0-.19.1.46.46,0,0,0-.13.16.53.53,0,0,0,0,.24.52.52,0,0,0,0,.24.4.4,0,0,0,.13.15.56.56,0,0,0,.2.08l.23,0a.84.84,0,0,0,.46-.1.67.67,0,0,0,.24-.25.81.81,0,0,0,.09-.29,2.1,2.1,0,0,0,0-.24Z" transform="translate(0 0)"/><path class="cls-15" d="M245.51,156.54a1.4,1.4,0,0,1-.81.19h-.31l-.31,0v-.87l.29,0h.3a.39.39,0,0,0,.29-.16.54.54,0,0,0,.1-.31.66.66,0,0,0,0-.24l-1.28-3.61h1.07l.83,2.64h0l.81-2.63h1.05L246,155.87A1.28,1.28,0,0,1,245.51,156.54Z" transform="translate(0 0)"/><path class="cls-15" d="M247.91,152.77v-1.15H249v1.15Zm1.13,1.5v1.15h-1.13v-1.15Z" transform="translate(0 0)"/><path class="cls-15" d="M213.55,164.1V166l1.84.06v-1.93l1,0v5l-1,0V167l-1.84-.06v2.16l-1,0v-5Z" transform="translate(0 0)"/><path class="cls-15" d="M217.2,165v-.83l.91,0v.83Zm.91.59v3.66l-.91,0v-3.65Z" transform="translate(0 0)"/><path class="cls-15" d="M222,169.69a1.24,1.24,0,0,1-.24.52,1.36,1.36,0,0,1-.53.4,2.07,2.07,0,0,1-.92.13,2,2,0,0,1-.5-.09,1.59,1.59,0,0,1-.47-.23A1.25,1.25,0,0,1,219,170a1.16,1.16,0,0,1-.16-.54l.91,0a.6.6,0,0,0,.25.4.87.87,0,0,0,.43.13.62.62,0,0,0,.57-.23,1,1,0,0,0,.17-.64v-.48h0a.9.9,0,0,1-.43.42,1.25,1.25,0,0,1-.58.12,1.39,1.39,0,0,1-.65-.17,1.32,1.32,0,0,1-.45-.41,1.79,1.79,0,0,1-.26-.6,3.06,3.06,0,0,1-.08-.71,2.45,2.45,0,0,1,.09-.68,1.79,1.79,0,0,1,.27-.57,1.32,1.32,0,0,1,.45-.39,1.34,1.34,0,0,1,1.2,0,1.1,1.1,0,0,1,.42.47h0v-.49l.88,0v3.45A2.65,2.65,0,0,1,222,169.69Zm-1.27-1.27a.7.7,0,0,0,.25-.22,1,1,0,0,0,.15-.32,1.44,1.44,0,0,0,0-.38,2.3,2.3,0,0,0,0-.43,1.18,1.18,0,0,0-.13-.36.74.74,0,0,0-.24-.26.72.72,0,0,0-.38-.1.61.61,0,0,0-.33.07.69.69,0,0,0-.23.22,1,1,0,0,0-.14.33,1.75,1.75,0,0,0,0,.39,2.23,2.23,0,0,0,0,.4,1.16,1.16,0,0,0,.12.36.8.8,0,0,0,.23.26.63.63,0,0,0,.36.11A.66.66,0,0,0,220.74,168.42Z" transform="translate(0 0)"/><path class="cls-15" d="M223.74,164.37v1.92h0a1.08,1.08,0,0,1,.45-.45,1.13,1.13,0,0,1,.54-.13,1.51,1.51,0,0,1,.62.13,1,1,0,0,1,.38.32,1.29,1.29,0,0,1,.2.49,3.27,3.27,0,0,1,.06.63v2.28l-.94,0v-2.09a1.42,1.42,0,0,0-.13-.69.52.52,0,0,0-.47-.24.61.61,0,0,0-.55.23,1.43,1.43,0,0,0-.17.81v1.94l-.93,0v-5.1Z" transform="translate(0 0)"/><path class="cls-15" d="M229.49,168.41a.84.84,0,0,0,.23.3,1,1,0,0,0,.34.18,1.56,1.56,0,0,0,.4.07h.3a1,1,0,0,0,.3-.09.64.64,0,0,0,.24-.19.51.51,0,0,0,.09-.32.49.49,0,0,0-.13-.34,1,1,0,0,0-.33-.23,3.23,3.23,0,0,0-.46-.17l-.52-.16a4.61,4.61,0,0,1-.52-.19A1.82,1.82,0,0,1,229,167a1.31,1.31,0,0,1-.33-.42,1.36,1.36,0,0,1-.12-.61,1.4,1.4,0,0,1,.16-.68,1.43,1.43,0,0,1,.41-.48,1.71,1.71,0,0,1,.58-.27,2.28,2.28,0,0,1,.65-.08,2.89,2.89,0,0,1,.73.11,1.82,1.82,0,0,1,.62.31,1.52,1.52,0,0,1,.43.53,1.71,1.71,0,0,1,.16.77l-1,0a1,1,0,0,0-.09-.39.66.66,0,0,0-.21-.25.85.85,0,0,0-.29-.13,1.69,1.69,0,0,0-.36,0l-.26,0a.65.65,0,0,0-.23.1.58.58,0,0,0-.17.18.47.47,0,0,0,.2.7,2.68,2.68,0,0,0,.44.17l.73.22.38.12a1.84,1.84,0,0,1,.48.26,1.55,1.55,0,0,1,.41.46,1.37,1.37,0,0,1,.17.72,1.65,1.65,0,0,1-.13.66,1.36,1.36,0,0,1-.38.51,1.72,1.72,0,0,1-.63.32,2.75,2.75,0,0,1-.87.09,2.9,2.9,0,0,1-.77-.13,2,2,0,0,1-.66-.35,1.67,1.67,0,0,1-.45-.59,1.84,1.84,0,0,1-.16-.83l1,0A1,1,0,0,0,229.49,168.41Z" transform="translate(0 0)"/><path class="cls-15" d="M234.65,166.78a.64.64,0,0,0-.39.1.84.84,0,0,0-.26.28,1.29,1.29,0,0,0-.14.39,2.26,2.26,0,0,0,0,.42,2.22,2.22,0,0,0,0,.42,1.39,1.39,0,0,0,.13.39.84.84,0,0,0,.25.29.77.77,0,0,0,.92-.07,1,1,0,0,0,.24-.55l.94,0a1.68,1.68,0,0,1-.55,1.13,1.65,1.65,0,0,1-1.16.35,1.85,1.85,0,0,1-.73-.17,1.69,1.69,0,0,1-.56-.42,1.91,1.91,0,0,1-.36-.62,2.27,2.27,0,0,1-.13-.78,2.61,2.61,0,0,1,.12-.81,1.78,1.78,0,0,1,.35-.64,1.54,1.54,0,0,1,.57-.41,1.8,1.8,0,0,1,.77-.13,2.1,2.1,0,0,1,.61.11,1.64,1.64,0,0,1,.52.28,1.48,1.48,0,0,1,.37.46,1.52,1.52,0,0,1,.17.64l-1,0A.69.69,0,0,0,234.65,166.78Z" transform="translate(0 0)"/><path class="cls-15" d="M236.92,167.24a1.72,1.72,0,0,1,.37-.62,1.6,1.6,0,0,1,.58-.39,1.9,1.9,0,0,1,.76-.12,2,2,0,0,1,.77.17,1.74,1.74,0,0,1,.59.42,1.87,1.87,0,0,1,.38.64,2.49,2.49,0,0,1,.13.83,2.37,2.37,0,0,1-.13.82,1.73,1.73,0,0,1-.38.62,1.56,1.56,0,0,1-.59.38,2,2,0,0,1-.77.11,2,2,0,0,1-.76-.17,1.71,1.71,0,0,1-.58-.42,1.88,1.88,0,0,1-.37-.64,2.45,2.45,0,0,1-.13-.82A2.41,2.41,0,0,1,236.92,167.24Zm.89,1.3a1.28,1.28,0,0,0,.14.39.82.82,0,0,0,.27.28.8.8,0,0,0,.42.12.78.78,0,0,0,.42-.09.73.73,0,0,0,.27-.27,1.2,1.2,0,0,0,.14-.39,2.33,2.33,0,0,0,0-.44,2.46,2.46,0,0,0,0-.45,1.22,1.22,0,0,0-.14-.39.85.85,0,0,0-.27-.28.79.79,0,0,0-.42-.12.74.74,0,0,0-.42.09.79.79,0,0,0-.27.27,1.15,1.15,0,0,0-.14.38,2.41,2.41,0,0,0,0,.45A2.38,2.38,0,0,0,237.81,168.54Z" transform="translate(0 0)"/><path class="cls-15" d="M242.1,166.32V167h0a1.28,1.28,0,0,1,.19-.32,1.24,1.24,0,0,1,.27-.25,1.27,1.27,0,0,1,.33-.16,1.14,1.14,0,0,1,.37,0,.76.76,0,0,1,.22,0v1l-.17,0-.19,0a1,1,0,0,0-.47.08.78.78,0,0,0-.31.25,1,1,0,0,0-.17.38,2.19,2.19,0,0,0,0,.48v1.72l-1,0v-3.82Z" transform="translate(0 0)"/><path class="cls-15" d="M244.84,169.32a.91.91,0,0,0,.65.25.85.85,0,0,0,.53-.14.62.62,0,0,0,.27-.33l.89,0a1.68,1.68,0,0,1-.66,1,1.82,1.82,0,0,1-1.07.26,2,2,0,0,1-.78-.17,1.7,1.7,0,0,1-.59-.43,2,2,0,0,1-.37-.65,2.47,2.47,0,0,1-.13-.82,2.29,2.29,0,0,1,.13-.8,1.84,1.84,0,0,1,.38-.63,1.75,1.75,0,0,1,.59-.41,1.81,1.81,0,0,1,.76-.13,1.69,1.69,0,0,1,1.4.74,2.2,2.2,0,0,1,.33.74,2.86,2.86,0,0,1,.07.86l-2.66-.09A1.13,1.13,0,0,0,244.84,169.32Zm1.14-2a.72.72,0,0,0-.55-.22.83.83,0,0,0-.4.07.74.74,0,0,0-.26.2.76.76,0,0,0-.13.26,1.24,1.24,0,0,0,0,.25l1.65.05A1.29,1.29,0,0,0,246,167.34Z" transform="translate(0 0)"/><path class="cls-15" d="M247.91,167.71v-1.15l1.13,0v1.15Zm1.13,1.53v1.15l-1.13,0v-1.15Z" transform="translate(0 0)"/><path class="cls-15" d="M255.18,151.07l-.21,1.2h0a1.3,1.3,0,0,1,.46-.31,1.51,1.51,0,0,1,.55-.09,1.55,1.55,0,0,1,.68.15,1.52,1.52,0,0,1,.5.39,1.69,1.69,0,0,1,.31.57,2.27,2.27,0,0,1,.11.7,1.86,1.86,0,0,1-.16.76,1.91,1.91,0,0,1-.42.61,1.84,1.84,0,0,1-1.35.52,2.5,2.5,0,0,1-.72-.11,1.78,1.78,0,0,1-.61-.32,1.59,1.59,0,0,1-.42-.53,1.66,1.66,0,0,1-.16-.73h1a.89.89,0,0,0,.27.58.82.82,0,0,0,.58.22.79.79,0,0,0,.37-.08.88.88,0,0,0,.28-.23,1,1,0,0,0,.18-.32,1.2,1.2,0,0,0,.06-.38,1.26,1.26,0,0,0-.06-.39.93.93,0,0,0-.18-.32.86.86,0,0,0-.28-.21,1,1,0,0,0-.83,0,1.06,1.06,0,0,0-.33.32h-.94l.51-2.92h2.89v.89Z" transform="translate(0 0)"/><path class="cls-15" d="M258,151.52a2.35,2.35,0,0,1,.41-.85,1.48,1.48,0,0,1,.61-.46,2,2,0,0,1,.74-.14,2,2,0,0,1,.75.14,1.52,1.52,0,0,1,.62.46,2.34,2.34,0,0,1,.42.85,4.78,4.78,0,0,1,.15,1.31,5,5,0,0,1-.15,1.34,2.31,2.31,0,0,1-.42.86,1.5,1.5,0,0,1-.62.45,2.07,2.07,0,0,1-1.48,0,1.5,1.5,0,0,1-.61-.46,2.38,2.38,0,0,1-.41-.86,5,5,0,0,1-.15-1.34A4.76,4.76,0,0,1,258,151.52Zm.92,1.86a3.07,3.07,0,0,0,.09.63,1.36,1.36,0,0,0,.25.52.6.6,0,0,0,.5.22.61.61,0,0,0,.51-.21,1.31,1.31,0,0,0,.25-.51,2.92,2.92,0,0,0,.09-.63q0-.32,0-.55t0-.33a3.83,3.83,0,0,0,0-.4,3.91,3.91,0,0,0-.08-.41,1.27,1.27,0,0,0-.15-.36.83.83,0,0,0-.25-.26.65.65,0,0,0-.37-.1.63.63,0,0,0-.36.1.78.78,0,0,0-.24.26,1.43,1.43,0,0,0-.15.36,3,3,0,0,0-.07.41c0,.14,0,.27,0,.4s0,.24,0,.33S259,153.17,259,153.38Z" transform="translate(0 0)"/><path class="cls-15" d="M255.47,170.63v-3.44l-1.3,0v-.81a2.39,2.39,0,0,0,.53,0,1.32,1.32,0,0,0,.46-.16,1.08,1.08,0,0,0,.34-.32,1.15,1.15,0,0,0,.18-.5l.84,0v5.31Z" transform="translate(0 0)"/><path class="cls-15" d="M258.12,166.6a1.89,1.89,0,0,1,.36-.67,1.56,1.56,0,0,1,.6-.44,2,2,0,0,1,.84-.14,2.08,2.08,0,0,1,.69.13,1.81,1.81,0,0,1,.57.34,1.61,1.61,0,0,1,.4.54,1.66,1.66,0,0,1,.15.71,1.68,1.68,0,0,1-.13.69,1.74,1.74,0,0,1-.34.51,2.72,2.72,0,0,1-.48.39l-.54.35q-.27.17-.53.37a2.26,2.26,0,0,0-.45.47l2.49.09v.93l-3.85-.14a2.22,2.22,0,0,1,.13-.8,2.08,2.08,0,0,1,.35-.6,3,3,0,0,1,.53-.48l.64-.44.37-.24a2.29,2.29,0,0,0,.36-.27,1.4,1.4,0,0,0,.27-.34.94.94,0,0,0-.11-1,.8.8,0,0,0-.57-.23.66.66,0,0,0-.39.1.79.79,0,0,0-.26.28,1.3,1.3,0,0,0-.14.39,2.23,2.23,0,0,0,0,.43l-1,0A2.59,2.59,0,0,1,258.12,166.6Z" transform="translate(0 0)"/><path class="cls-15" d="M264.6,166.49a.65.65,0,0,0-.47-.21.68.68,0,0,0-.48.16,1.2,1.2,0,0,0-.31.41,2.19,2.19,0,0,0-.17.53,3.35,3.35,0,0,0-.06.5v0a1.25,1.25,0,0,1,.52-.44,1.58,1.58,0,0,1,.69-.12,1.63,1.63,0,0,1,.67.17,1.75,1.75,0,0,1,.56.42,1.65,1.65,0,0,1,.31.57,2.22,2.22,0,0,1,0,1.41,1.75,1.75,0,0,1-.38.61,1.67,1.67,0,0,1-.59.39,1.83,1.83,0,0,1-.76.12,1.84,1.84,0,0,1-1.62-.93,2.74,2.74,0,0,1-.32-.9,5.55,5.55,0,0,1-.09-1,4.41,4.41,0,0,1,.11-1,2.82,2.82,0,0,1,.36-.89,2,2,0,0,1,.64-.64,1.71,1.71,0,0,1,1-.23,2,2,0,0,1,.64.12,1.71,1.71,0,0,1,.53.3,1.55,1.55,0,0,1,.37.48,1.9,1.9,0,0,1,.19.65l-1,0A1,1,0,0,0,264.6,166.49Zm-.91,1.73a.73.73,0,0,0-.27.21.94.94,0,0,0-.16.31,1.3,1.3,0,0,0-.05.38,1.21,1.21,0,0,0,.06.37,1,1,0,0,0,.17.33.86.86,0,0,0,.27.24.79.79,0,0,0,.36.1.68.68,0,0,0,.35-.07.82.82,0,0,0,.26-.21.94.94,0,0,0,.16-.31,1.21,1.21,0,0,0,.05-.36,1.42,1.42,0,0,0,0-.37,1.09,1.09,0,0,0-.15-.33.81.81,0,0,0-.26-.24.75.75,0,0,0-.36-.1A.84.84,0,0,0,263.69,168.22Z" transform="translate(0 0)"/><path class="cls-15" d="M266.45,167a2.3,2.3,0,0,1,.43-.85,1.47,1.47,0,0,1,.63-.45,2.05,2.05,0,0,1,.76-.12,2.14,2.14,0,0,1,.77.16,1.62,1.62,0,0,1,.63.48,2.46,2.46,0,0,1,.43.88,4.83,4.83,0,0,1,.16,1.34,4.9,4.9,0,0,1-.16,1.36,2.27,2.27,0,0,1-.43.86,1.49,1.49,0,0,1-.63.44,2.07,2.07,0,0,1-.77.11,2.12,2.12,0,0,1-.76-.17,1.61,1.61,0,0,1-.63-.49,2.48,2.48,0,0,1-.43-.88,5,5,0,0,1-.16-1.36A4.73,4.73,0,0,1,266.45,167Zm.95,1.91a3,3,0,0,0,.1.64,1.41,1.41,0,0,0,.26.53.64.64,0,0,0,.51.23.62.62,0,0,0,.52-.2,1.28,1.28,0,0,0,.26-.51,3,3,0,0,0,.1-.63c0-.22,0-.41,0-.56s0-.21,0-.34a3.85,3.85,0,0,0,0-.41q0-.21-.08-.42a1.34,1.34,0,0,0-.15-.37.86.86,0,0,0-.25-.27.7.7,0,0,0-.38-.11.65.65,0,0,0-.37.09.76.76,0,0,0-.25.26,1.36,1.36,0,0,0-.15.36,2.85,2.85,0,0,0-.08.41c0,.14,0,.27,0,.4s0,.24,0,.34S267.39,168.68,267.4,168.9Z" transform="translate(0 0)"/></g></svg>