<svg xmlns="http://www.w3.org/2000/svg" xmlns:xlink="http://www.w3.org/1999/xlink" viewBox="0 0 480 200.2"><defs><style>.cls-1{fill:#acebae;}.cls-2{fill:#4d4d4d;}.cls-3{fill:#141414;}.cls-4{fill:#333;}.cls-5{fill:gray;}.cls-6{fill:#1e1e1e;}.cls-7{fill:#ed1c24;}.cls-8{fill:url(#New_Gradient_Swatch_2);}.cls-9{fill:url(#New_Gradient_Swatch_2-2);}.cls-10{fill:url(#New_Gradient_Swatch_2-3);}.cls-11{fill:url(#New_Gradient_Swatch_2-4);}.cls-12{fill:url(#New_Gradient_Swatch_2-5);}.cls-13{fill:url(#New_Gradient_Swatch_2-6);}.cls-14{fill:url(#New_Gradient_Swatch_2-7);}.cls-15{fill:url(#New_Gradient_Swatch_2-8);}.cls-16{fill:#00d502;}.cls-17{fill:#d80004;}.cls-18{fill:url(#linear-gradient);}.cls-19{fill:#fff;}.cls-20{fill:#698c82;}.cls-21{fill:#142623;}.cls-22{fill:#b8bfbe;}.cls-23{fill:#d91136;}.cls-24{fill-rule:evenodd;}.cls-25{fill:#039;}.cls-26{fill:#f29191;}</style><linearGradient id="New_Gradient_Swatch_2" x1="19.18" y1="125.06" x2="115.67" y2="125.06" gradientUnits="userSpaceOnUse"><stop offset="0"/><stop offset="0.03" stop-color="#121212"/><stop offset="0.07" stop-color="#282828"/><stop offset="0.12" stop-color="#393939"/><stop offset="0.19" stop-color="#444"/><stop offset="0.28" stop-color="#4b4b4b"/><stop offset="0.53" stop-color="#4d4d4d"/><stop offset="0.75" stop-color="#4b4b4b"/><stop offset="0.83" stop-color="#444"/><stop offset="0.89" stop-color="#393939"/><stop offset="0.94" stop-color="#282828"/><stop offset="0.98" stop-color="#121212"/><stop offset="1"/></linearGradient><linearGradient id="New_Gradient_Swatch_2-2" x1="10.68" y1="137.25" x2="115.67" y2="137.25" xlink:href="#New_Gradient_Swatch_2"/><linearGradient id="New_Gradient_Swatch_2-3" x1="2.18" y1="149.44" x2="97.94" y2="149.44" xlink:href="#New_Gradient_Swatch_2"/><linearGradient id="New_Gradient_Swatch_2-4" x1="0" y1="161.63" x2="94.61" y2="161.63" xlink:href="#New_Gradient_Swatch_2"/><linearGradient id="New_Gradient_Swatch_2-5" x1="129.64" y1="125.06" x2="226.87" y2="125.06" xlink:href="#New_Gradient_Swatch_2"/><linearGradient id="New_Gradient_Swatch_2-6" x1="129.64" y1="137.25" x2="235.37" y2="137.25" xlink:href="#New_Gradient_Swatch_2"/><linearGradient id="New_Gradient_Swatch_2-7" x1="148.11" y1="149.44" x2="243.87" y2="149.44" xlink:href="#New_Gradient_Swatch_2"/><linearGradient id="New_Gradient_Swatch_2-8" x1="151.44" y1="161.63" x2="251.63" y2="161.63" xlink:href="#New_Gradient_Swatch_2"/><linearGradient id="linear-gradient" x1="57" y1="60.5" x2="189" y2="60.5" gradientUnits="userSpaceOnUse"><stop offset="0" stop-color="lime"/><stop offset="1" stop-color="red"/></linearGradient></defs><title>automotive_sensor_visualization</title><g id="Background"><rect class="cls-1" width="480" height="200"/></g><g id="Layer_1" data-name="Layer 1"><g id="Nav_System" data-name="Nav System"><rect class="cls-2" width="271.51" height="200"/><path d="M258.21,168.77S238.63,125.92,225,119.64c-5.12-1.77-199.56-2.74-205,0C14.46,122.8,6.67,134.08,0,145V200.2H271.51V168.77Z"/><path class="cls-3" d="M148.78,168.77c-.81-4.56-4-21.8-6.31-24.56-2.06-1.72-37.4-2-40.08,0-1.94,2.92-5.39,20-6.28,24.56H0V200.2H271.51V168.77Z"/><path class="cls-4" d="M0,0V110.68c86.17,2,175.22,1.39,271.51-.61V0Z"/><path d="M228.65,11C213.5,6.63,28.49,7.95,16.59,11,10.3,16.66,3.66,45.33,0,68.46V99c81.72,2.76,167.75,2.27,247.12-.07C251.56,94.52,236.55,17.71,228.65,11Z"/><path class="cls-5" d="M248.62,92.12c-.4-9.65-3.39-28.14-7.44-46-2.14-9.46-7.6-31.87-12-35.63l-.12-.1-.15,0c-9.12-2.65-74.71-2.85-94.6-2.85-51.38,0-111,1.09-117.85,2.85l-.17,0-.13.12C10,15.9,3.78,41.73,0,64v9.31C.71,68.45,1.61,63,2.71,57.12,7.27,32.78,12.58,15.85,16.95,11.7,24.26,10,83.19,8.94,134.26,8.94c52.51,0,87.57,1,94,2.75,6.46,6,18.05,61.21,18.85,80.49.17,4.15-.19,5.57-.41,6-43.9,1.29-87.39,1.95-129.26,1.95-41,0-80.52-.63-117.47-1.88v1.48c37,1.25,76.46,1.88,117.47,1.88,42,0,85.63-.66,129.67-2h.29l.21-.21C248.22,98.9,248.84,97.55,248.62,92.12Z"/><rect class="cls-6" x="21.58" y="15.58" width="204.3" height="82.02" rx="2.22" ry="2.22"/><path d="M142.32,166.08H102.55s3.19-16.72,4.87-19.14,28-2.28,30,0S142.32,166.08,142.32,166.08Z"/><path class="cls-7" d="M121.79,148.81l-7.5,13a.74.74,0,0,0,.64,1.11h15a.74.74,0,0,0,.64-1.11l-7.5-13A.74.74,0,0,0,121.79,148.81Z"/><path d="M122,151.28l-5.48,9.5a.46.46,0,0,0,.4.7h11a.46.46,0,0,0,.4-.7l-5.48-9.5A.46.46,0,0,0,122,151.28Z"/><path class="cls-7" d="M122.22,153.74l-3.45,6a.25.25,0,0,0,.21.37h6.91a.25.25,0,0,0,.21-.37l-3.45-6A.25.25,0,0,0,122.22,153.74Z"/><path d="M122.26,156.09l-1.43,2.48a.21.21,0,0,0,.18.31h2.86a.21.21,0,0,0,.18-.31l-1.43-2.48A.21.21,0,0,0,122.26,156.09Z"/><path class="cls-8" d="M114.56,126.17H20.28a1.11,1.11,0,0,1,0-2.22h94.28a1.11,1.11,0,1,1,0,2.22Z"/><path class="cls-9" d="M114.56,138.36H11.79a1.11,1.11,0,0,1,0-2.22H114.56a1.11,1.11,0,0,1,0,2.22Z"/><path class="cls-10" d="M96.83,150.55H3.29a1.11,1.11,0,1,1,0-2.22H96.83a1.11,1.11,0,1,1,0,2.22Z"/><path class="cls-11" d="M93.5,160.52H0v2.22H93.5a1.11,1.11,0,1,0,0-2.22Z"/><path class="cls-12" d="M225.76,126.17h-95a1.11,1.11,0,0,1,0-2.22h95a1.11,1.11,0,1,1,0,2.22Z"/><path class="cls-13" d="M234.26,138.36H130.75a1.11,1.11,0,0,1,0-2.22H234.26a1.11,1.11,0,1,1,0,2.22Z"/><path class="cls-14" d="M242.76,150.55H149.22a1.11,1.11,0,0,1,0-2.22h93.54a1.11,1.11,0,0,1,0,2.22Z"/><path class="cls-15" d="M250.52,162.74h-98a1.11,1.11,0,0,1,0-2.22h98a1.11,1.11,0,0,1,0,2.22Z"/><rect class="cls-5" x="38.14" y="146.29" width="23.4" height="3.27" rx="1.63" ry="1.63"/><rect class="cls-5" x="182.59" y="146.29" width="23.4" height="3.27" rx="1.63" ry="1.63"/><path class="cls-5" d="M259.15,167.3c-2.94-6.3-20.5-43-33.58-49l-.07,0-.07,0c-3.38-1.17-70.95-1.79-118.42-1.79-23.75,0-44.24.14-59.26.4-26.47.46-27.84,1.14-28.5,1.47l0,0,0,0C13.82,121.47,6.48,131.77,0,142.21v4.27c6.75-11.19,14.77-23,20.26-26.19,2.26-1,35.48-1.63,86.76-1.63,58.83,0,114.75.79,117.67,1.66,13.27,6.16,32.65,48.33,32.85,48.75l.2.43h13.77V167.3Z"/><path class="cls-4" d="M250.19,179.24a2.22,2.22,0,0,1-2.09,1.48H219.29a2.22,2.22,0,0,1-2.09-1.48Zm0-4.19a2.22,2.22,0,0,0-2.09-1.48H219.29a2.22,2.22,0,0,0-2.09,1.48Zm-21.45.74h-2.31v2.71h2.31Zm-8.31,0h-2.49v2.71h2.49Zm4.16,0h-2.31v2.71h2.31Zm8.31,0h-2.31v2.71h2.31Zm16.81,0h-2.49v2.71h2.49Zm-4.34,0h-2.31v2.71h2.31Zm-8.31,0h-2.31v2.71h2.31Zm4.16,0H238.9v2.71h2.31Z"/><path id="Car_Icon" data-name="Car Icon" class="cls-16" d="M64.57,25.32A16.55,16.55,0,0,0,51,32.42h-.06A10.83,10.83,0,0,0,40.44,40.5v.17a.63.63,0,0,0,.62.63h5.11a4.37,4.37,0,0,0,8.74,0h13a4.37,4.37,0,0,0,8.74,0h3.88a.63.63,0,0,0,.56-.61A16.56,16.56,0,0,0,64.57,25.32Zm-.28,6.9h-10a.63.63,0,0,1-.23-.73A13.72,13.72,0,0,1,64.2,27.18h.09Zm10.44,0H66.21v-5a13.48,13.48,0,0,1,8.85,4.37A.63.63,0,0,1,74.72,32.22Z"/><path id="Car_Icon-2" data-name="Car Icon" class="cls-17" d="M184.51,25.32c-5.65,0-6.64,2.82-9.65,7.13,0,0,0,1.89-.06,1.89-.25,0-.5-1.85-.73-1.82-.43,0-.81,2-1.16,2.07-.53.11-1-1.65-1.35-1.49s-.56,2.17-.78,2.33-.47-1.45-.62-1.2c-.83,1.39-.23,3.53-.95,6.31v.17a.63.63,0,0,0,.63.63l.2,0a4.39,4.39,0,0,0,8.78,0h9a4.39,4.39,0,0,0,8.78,0h3.9a.63.63,0,0,0,.56-.61A16.64,16.64,0,0,0,184.51,25.32Zm-.29,6.93h-6a.63.63,0,0,1-.23-.73c2.67-2.81,2.24-4.34,6.17-4.34h.09Zm10.49,0h-8.55v-5a13.54,13.54,0,0,1,8.89,4.39A.63.63,0,0,1,194.71,32.25Z"/><polygon class="cls-18" points="180 51 180 56 66 56 66 51 57 51 57 70 66 70 66 65 180 65 180 70 189 70 189 51 180 51"/><polygon class="cls-19" points="92.51 70 82.7 87 102.33 87 92.51 70"/><path class="cls-4" d="M17.24,178.5v-2.71h2.31v2.71ZM0,175.06H28.53a2.22,2.22,0,0,0-2.09-1.48H0Zm15.39,3.45v-2.71H13.08v2.71Zm12.65,0v-2.71H25.55v2.71Zm-4.34,0v-2.71H21.39v2.71Zm-20.78,0v-2.71H.61v2.71ZM0,180.72H26.44a2.22,2.22,0,0,0,2.09-1.48H0Zm7.08-2.22v-2.71H4.77v2.71Zm4.16,0v-2.71H8.92v2.71Z"/></g><polygon class="cls-20" points="263.11 0 250.87 54 480 54 480 0 263.11 0"/><polygon class="cls-21" points="217.75 200 480 200 480 61 249.28 61 217.75 200"/><polygon class="cls-22" points="249.28 61 480 61 480 54 250.87 54 249.28 61"/><g id="Car"><path class="cls-23" d="M254.26,173.12a23.25,23.25,0,0,0,3.57,5.46s2.76,2,4.3,3.21c2.42,1.84,4.35,5,7.31,6.08,5.47,2.05,14.52-.49,19.75-2.45,8.08-3,16.06-6.28,24.23-9.15,1.56,1.93,3.61,4.53,6.66,3.35-.25-2.08-2.38-3-3-4.71,9.53-3.51,18.93-6.94,28.35-10.66,9.21-3.64,18.95-6.56,28-10.56,4-1.75,7.49-4.59,11.32-6.65,3.14-1.69,7.2-3.29,9.2-6.38,4.71-7.27,1.45-19-1.06-25.48-2.57-6.62-7.61-16.26-15.14-18.16-3.57-.9-7.65.48-11.12,1.28-4.24,1-8.76,1.17-12.89,2.47-9.42,3-18.67,7.19-28,10.54-9.53,3.42-18.86,7.05-28.33,10.71-.66-1.76.36-3.82-.83-5.54-3.07,1.11-2.9,4.43-2.79,6.91-8,3.23-16.18,6.06-24.25,9.12-5.23,2-13.7,6-16.46,11.19-1.49,2.78-.87,6.41-1.48,9.39-.38,1.88-1.53,5.41-1.53,5.41C249.93,163.19,251.88,168.69,254.26,173.12Z"/><path class="cls-24" d="M318.15,127.5l11.54-4.59a3.51,3.51,0,0,1,4.51,2L343,148.3a3.51,3.51,0,0,1-2,4.51L329.26,157a3.51,3.51,0,0,1-4.51-2L316.11,132A3.51,3.51,0,0,1,318.15,127.5Z"/><path d="M306.94,174.93l.07,0h0l.23-.14c2.37-1.36,11.28-6.67,15.16-8.95,15.17-8.6,30.39-15.44,61.56-23.56h0c4.75-1.31-8.45-41.06-14.71-39-2.09.79-6.6,3-10.24,4.9-22.14,10.14-34.68,14.31-49.85,17.57-2,.27-14.55,2-19.09,3.6h0l-.29.11C282,134,297,176.53,306.94,174.93Zm47-63.5c5.84,9.14,11.81,23.15,13.11,34.61-6.35,1.93-11.92,3.81-16.93,5.7a188.59,188.59,0,0,0-26.46,12.32c-7.69-9.82-12.74-25.5-14.09-37.53C323.4,123.55,335.09,119.79,353.91,111.43Z"/><path d="M310.5,175.34c12.36-7.1,20.8-14.47,52.87-24.79,8.05-2.59,10-2.85,11.39-2.24-1.06,1.62-5,3.17-10.11,5.62C356.73,157.7,326,170.6,310.5,175.34Z"/><path d="M292.06,126.43c14-2.82,25.18-2.86,56.08-16.27,7.76-3.37,9.43-4.49,10-5.83-1.87-.52-5.82.9-11.3,2.45C338.44,109.17,306.83,119.77,292.06,126.43Z"/><path class="cls-24" d="M320.07,179.61c-.78.23-4.25-4.36-4.48-5a1.38,1.38,0,0,1,1.44.27C317.8,176.75,319.88,177.65,320.07,179.61Z"/><path class="cls-24" d="M296.51,116.44c-.73.34-.32,6.08-.08,6.69a1.38,1.38,0,0,0,.91-1.15C296.69,120.09,297.66,118,296.51,116.44Z"/><path d="M394.94,138.67a9.29,9.29,0,0,1-4.12,5C390.56,142.19,393.68,141.21,394.94,138.67Z"/><path d="M379.72,97.74a8.94,8.94,0,0,0-6.34-.91C374.15,98.1,377.1,96.66,379.72,97.74Z"/><path d="M275.08,188.62c-5.53-.18-7.82-2.34-11.41-5.46C268,188,268.91,188.39,275.08,188.62Z"/><path d="M256.8,139.38c-4.16,3.63-4.36,6.89-5,11.59C251.9,144.46,252.11,143.39,256.8,139.38Z"/></g><g id="Car-2" data-name="Car"><path class="cls-24" d="M473.19,133.27c-.81-.06-2.44-5.57-2.44-6.24a1.38,1.38,0,0,1,1.26.76C472.08,129.79,473.71,131.36,473.19,133.27Z"/><path class="cls-24" d="M473.42,65.85c-.81.06-2.44,5.57-2.44,6.24a1.38,1.38,0,0,0,1.26-.76C472.31,69.32,473.94,67.75,473.42,65.85Z"/><path d="M427.91,125.83c-5.11-2.12-6.49-5-8.75-9.13C421.54,122.75,422.23,123.45,427.91,125.83Z"/><path d="M428.18,73.31c-5.17,1.93-6.5,4.91-8.76,9.08C421.8,76.34,422.37,75.41,428.18,73.31Z"/><path class="cls-25" d="M480,127.85V71.3l-7.76.06c0-1.88,1.68-3.44,1.18-5.48-3.26,0-4.27,3.12-5,5.48-8.66.19-17.28,0-25.9,0-5.59,0-15,.82-19.35,4.67-2.37,2.08-3.08,5.69-4.7,8.27-1,1.62-3.34,4.52-3.34,4.52C413.35,93.17,413.24,99,413.9,104a23.25,23.25,0,0,0,1.41,6.37s1.86,2.89,2.89,4.52c1.62,2.58,2.32,6.19,4.7,8.27,4.39,3.85,13.76,4.66,19.35,4.67,8.63,0,17.24-.21,25.9,0,.77,2.36,1.78,5.52,5,5.48.5-2-1.18-3.6-1.18-5.48Z"/><path d="M480,73.24c-5.37,0-10.32.14-14.26.39,4.81.78,9.21,1.76,14.26,2.63Z"/><path d="M480,123.26c-5,.88-9.45,1.85-14.26,2.63,3.93.25,8.89.36,14.26.39Z"/><path d="M480,110.13a86.07,86.07,0,0,1,0-18.37V78.51c-4.23-.93-13.17-2.8-17.08-2.91h-.36c-8.93,1.52-9.84,46.66,0,48.66h.08l.27,0c2.65-.43,12.54-2.2,17.09-3Z"/></g><path class="cls-26" d="M403.11,118a.5.5,0,0,1-.45-.71,7.25,7.25,0,0,0-3.55-9.62.5.5,0,1,1,.42-.91,8.25,8.25,0,0,1,4,10.94A.5.5,0,0,1,403.11,118Z"/><path class="cls-26" d="M401.29,117.21a.5.5,0,0,1-.45-.71,5.24,5.24,0,0,0-2.57-7,.5.5,0,1,1,.42-.91,6.24,6.24,0,0,1,3.06,8.29A.5.5,0,0,1,401.29,117.21Z"/><path class="cls-26" d="M399.48,116.37a.5.5,0,0,1-.45-.71,3.24,3.24,0,0,0-1.59-4.31.5.5,0,0,1,.42-.91,4.24,4.24,0,0,1,2.08,5.63A.5.5,0,0,1,399.48,116.37Z"/></g></svg>