<svg xmlns="http://www.w3.org/2000/svg" viewBox="0 0 480 200"><defs><style>.cls-1{fill:#595241;}.cls-2{fill:#b8ae9c;}.cls-3{fill:gray;}.cls-4{fill:#accfcc;}.cls-5{fill:#8a0917;}</style></defs><title>biometric_flash_drive</title><g id="Background"><rect class="cls-1" width="480" height="200"/></g><g id="Layer_1" data-name="Layer 1"><path class="cls-2" d="M462,200v-9.46a3.55,3.55,0,0,0-3.54-3.54H331.54a3.55,3.55,0,0,0-3.54,3.54V200Z"/><path class="cls-2" d="M307,200v-9.46a3.55,3.55,0,0,0-3.54-3.54H176.54a3.55,3.55,0,0,0-3.54,3.54V200Z"/><path class="cls-2" d="M152,200v-9.46a3.55,3.55,0,0,0-3.54-3.54H21.54A3.55,3.55,0,0,0,18,190.54V200Z"/><path class="cls-1" d="M394.67,194.5a5.5,5.5,0,0,0-5.5,5.5h11A5.5,5.5,0,0,0,394.67,194.5Z"/><path class="cls-1" d="M84.67,194.5a5.5,5.5,0,0,0-5.5,5.5h11A5.5,5.5,0,0,0,84.67,194.5Z"/><path class="cls-1" d="M239.67,194.5a5.5,5.5,0,0,0-5.5,5.5h11A5.5,5.5,0,0,0,239.67,194.5Z"/><path class="cls-3" d="M390.69,199.09a4,4,0,0,0,.2.91h7.58a4,4,0,0,0,.2-.91l.5-6q0-.19,0-.38a4.5,4.5,0,0,0-9,0q0,.19,0,.38Z"/><path class="cls-3" d="M235.69,199.09a4,4,0,0,0,.2.91h7.58a4,4,0,0,0,.2-.91l.5-6q0-.19,0-.38a4.5,4.5,0,0,0-9,0q0,.19,0,.38Z"/><path class="cls-3" d="M80.69,199.09a4,4,0,0,0,.2.91h7.58a4,4,0,0,0,.2-.91l.5-6q0-.19,0-.38a4.5,4.5,0,0,0-9,0q0,.19,0,.38Z"/><rect class="cls-2" x="18" y="27" width="134" height="146" rx="3.54" ry="3.54"/><g id="USB_Drive" data-name="USB Drive"><rect class="cls-3" x="37" y="126" width="19" height="17" transform="translate(-88 181) rotate(-90)"/><path class="cls-4" d="M54,148h66v0a13.5,13.5,0,0,0,0-27v0H54Z"/><rect class="cls-1" x="45.5" y="137.5" width="4" height="3" transform="translate(-91.5 186.5) rotate(-90)"/><rect class="cls-1" x="45.5" y="128.5" width="4" height="3" transform="translate(-82.5 177.5) rotate(-90)"/></g><path class="cls-1" d="M134.31,157H35.69A6.69,6.69,0,0,1,29,150.31V118.69A6.69,6.69,0,0,1,35.69,112h98.63a6.69,6.69,0,0,1,6.69,6.69v31.63A6.69,6.69,0,0,1,134.31,157ZM35.69,113A5.69,5.69,0,0,0,30,118.69v31.63A5.69,5.69,0,0,0,35.69,156h98.63a5.69,5.69,0,0,0,5.69-5.69V118.69a5.69,5.69,0,0,0-5.69-5.69Z"/><path class="cls-1" d="M103.89,40H90.17a5.5,5.5,0,0,0-11,0H65.46a5.5,5.5,0,1,0,0,11h38.5a5.5,5.5,0,1,0,0-11Z"/><path class="cls-1" d="M65.31,87.29a5.58,5.58,0,0,0,2.74.78c2.15,0,2.81-1.37,2.79-2.39,0-1.73-1.58-2.47-3.19-2.47h-.93V82h.93c1.22,0,2.75-.63,2.75-2.09,0-1-.63-1.86-2.17-1.86a4.53,4.53,0,0,0-2.47.82l-.44-1.22a5.87,5.87,0,0,1,3.23-.95c2.43,0,3.53,1.44,3.53,2.94a3.07,3.07,0,0,1-2.28,2.91v0a3.22,3.22,0,0,1,2.75,3.17c0,2-1.54,3.7-4.5,3.7a6.28,6.28,0,0,1-3.21-.84Z"/><path class="cls-1" d="M74.65,89.21v-1L76,86.91c3.15-3,4.58-4.6,4.6-6.46A2.2,2.2,0,0,0,78.11,78a4.2,4.2,0,0,0-2.62,1L75,77.9a5.42,5.42,0,0,1,3.5-1.25,3.47,3.47,0,0,1,3.78,3.59c0,2.28-1.65,4.12-4.26,6.63l-1,.91v0h5.55v1.39Z"/><path class="cls-1" d="M94.74,88.64a11.94,11.94,0,0,1-3.93.7,6,6,0,0,1-6.57-6.46c0-3.82,2.64-6.61,6.93-6.61a7.92,7.92,0,0,1,3.19.59L94,78.21a6.64,6.64,0,0,0-2.83-.55A4.79,4.79,0,0,0,86,82.81c0,3.25,2,5.17,4.94,5.17a5.39,5.39,0,0,0,2.2-.34V83.81h-2.6V82.48h4.22Z"/><path class="cls-1" d="M97.26,76.57a16,16,0,0,1,3-.27,5.29,5.29,0,0,1,3.51.93,2.69,2.69,0,0,1,1.06,2.26,3,3,0,0,1-2.17,2.81v0a3.3,3.3,0,0,1,2.64,3.21,3.45,3.45,0,0,1-1.08,2.56c-.89.82-2.34,1.2-4.43,1.2a19.29,19.29,0,0,1-2.56-.15Zm1.65,5.24h1.5c1.75,0,2.77-.91,2.77-2.15,0-1.5-1.14-2.09-2.81-2.09a7.07,7.07,0,0,0-1.46.11Zm0,6.14a8.81,8.81,0,0,0,1.39.08c1.71,0,3.29-.63,3.29-2.49s-1.5-2.47-3.31-2.47H98.92Z"/><path class="cls-3" d="M84.67,28.25a4.5,4.5,0,0,0-4.5,4.5q0,.19,0,.38l.5,6a4,4,0,0,0,8,0l.5-6q0-.19,0-.38A4.5,4.5,0,0,0,84.67,28.25Z"/><rect class="cls-2" x="173" y="27" width="134" height="146" rx="3.54" ry="3.54"/><g id="USB_Drive-2" data-name="USB Drive"><rect class="cls-3" x="192" y="96" width="19" height="17" transform="translate(97 306) rotate(-90)"/><rect class="cls-1" x="200.5" y="107.5" width="4" height="3" transform="translate(93.5 311.5) rotate(-90)"/><rect class="cls-1" x="200.5" y="98.5" width="4" height="3" transform="translate(102.5 302.5) rotate(-90)"/><rect class="cls-5" x="209" y="91" width="78.76" height="27"/><rect class="cls-3" x="253" y="95" width="32" height="19" rx="2.68" ry="2.68"/></g><path class="cls-1" d="M289.31,127H190.69a6.69,6.69,0,0,1-6.69-6.69V88.69A6.69,6.69,0,0,1,190.69,82h98.63A6.69,6.69,0,0,1,296,88.69v31.63A6.69,6.69,0,0,1,289.31,127ZM190.69,83A5.69,5.69,0,0,0,185,88.69v31.63a5.69,5.69,0,0,0,5.69,5.69h98.63a5.69,5.69,0,0,0,5.69-5.69V88.69A5.69,5.69,0,0,0,289.31,83Z"/><path class="cls-1" d="M258.89,40H245.17a5.5,5.5,0,0,0-11,0H220.46a5.5,5.5,0,1,0,0,11h38.5a5.5,5.5,0,1,0,0-11Z"/><path class="cls-3" d="M239.67,28.25a4.5,4.5,0,0,0-4.5,4.5q0,.19,0,.38l.5,6a4,4,0,0,0,8,0l.5-6q0-.19,0-.38A4.5,4.5,0,0,0,239.67,28.25Z"/><path class="cls-1" d="M194.14,74.13a2.08,2.08,0,0,0,.92.26c.32,0,.46-.11.46-.29s-.1-.26-.5-.39c-.71-.24-1-.62-1-1,0-.64.55-1.12,1.39-1.12a2.29,2.29,0,0,1,1,.2l-.19.74a1.68,1.68,0,0,0-.74-.2c-.26,0-.41.11-.41.28s.13.25.55.39c.65.22.92.55.93,1.06s-.5,1.11-1.48,1.11a2.43,2.43,0,0,1-1.11-.24Z"/><path class="cls-1" d="M198,73.68c0,.44.47.65,1,.65a3,3,0,0,0,.95-.14l.14.72a3.39,3.39,0,0,1-1.24.21A1.64,1.64,0,0,1,197,73.38a1.72,1.72,0,0,1,1.73-1.83,1.52,1.52,0,0,1,1.53,1.71,2.51,2.51,0,0,1,0,.42Zm1.25-.73a.62.62,0,0,0-.6-.69A.7.7,0,0,0,198,73Z"/><path class="cls-1" d="M203.45,75a2.6,2.6,0,0,1-1,.15,1.66,1.66,0,0,1-1.81-1.75,1.79,1.79,0,0,1,2-1.82,2.47,2.47,0,0,1,.81.13l-.17.79a1.44,1.44,0,0,0-.6-.11,1,1,0,0,0,0,1.92,1.66,1.66,0,0,0,.61-.1Z"/><path class="cls-1" d="M207.26,74c0,.45,0,.81,0,1.1h-.92l0-.48h0a1.22,1.22,0,0,1-1.07.56c-.69,0-1.2-.43-1.2-1.49v-2h1.07v1.84c0,.5.16.8.53.8a.57.57,0,0,0,.53-.37.59.59,0,0,0,0-.23v-2h1.07Z"/><path class="cls-1" d="M208.12,72.76c0-.5,0-.83,0-1.13H209l0,.63h0a1,1,0,0,1,.92-.71h.22v1a1.55,1.55,0,0,0-.29,0,.68.68,0,0,0-.73.54,1.27,1.27,0,0,0,0,.24v1.74h-1.06Z"/><path class="cls-1" d="M211.54,73.68c0,.44.47.65,1,.65a3,3,0,0,0,.95-.14l.14.72a3.39,3.39,0,0,1-1.24.21,1.64,1.64,0,0,1-1.83-1.74,1.72,1.72,0,0,1,1.73-1.83,1.52,1.52,0,0,1,1.53,1.71,2.51,2.51,0,0,1,0,.42Zm1.25-.73a.62.62,0,0,0-.6-.69.7.7,0,0,0-.66.69Z"/><path class="cls-1" d="M217.74,70.08v4c0,.38,0,.79,0,1h-.95l0-.5h0a1.2,1.2,0,0,1-1.07.58,1.57,1.57,0,0,1-1.46-1.76,1.62,1.62,0,0,1,1.53-1.82,1,1,0,0,1,.9.39h0V70.08Zm-1.06,3a1.75,1.75,0,0,0,0-.19.64.64,0,0,0-.62-.53c-.48,0-.74.43-.74,1s.29.95.73.95a.62.62,0,0,0,.62-.51.91.91,0,0,0,0-.25Z"/><path class="cls-1" d="M220.74,71.63,221,73c.07.36.14.74.2,1.13h0c.07-.39.17-.78.25-1.12l.36-1.41h.84L223,73c.09.39.18.77.25,1.16h0c0-.39.12-.78.2-1.17l.29-1.36h1l-1.05,3.42h-1l-.32-1.21c-.08-.34-.15-.64-.22-1.06h0a8.07,8.07,0,0,1-.22,1.06l-.34,1.21h-1l-1-3.42Z"/><path class="cls-1" d="M226.42,70.68a.53.53,0,0,1-.57.53.54.54,0,1,1,0-1.07A.53.53,0,0,1,226.42,70.68Zm-1.1,4.38V71.63h1.06v3.42Z"/><path class="cls-1" d="M228.42,70.65v1h.76v.78h-.76v1.24c0,.41.1.6.42.6a1.78,1.78,0,0,0,.32,0V75a2.07,2.07,0,0,1-.69.09,1.1,1.1,0,0,1-.8-.29,1.42,1.42,0,0,1-.29-1v-1.4h-.46v-.78h.46v-.74Z"/><path class="cls-1" d="M229.8,70.08h1.06v2h0a1.28,1.28,0,0,1,.42-.35,1.19,1.19,0,0,1,.55-.13c.68,0,1.2.47,1.2,1.5v2H232V73.17c0-.45-.15-.76-.55-.76a.57.57,0,0,0-.53.37.68.68,0,0,0,0,.24v2H229.8Z"/><path class="cls-1" d="M236.12,71.63l.51,1.68c.06.2.13.46.17.64h0c0-.18.1-.44.15-.64l.42-1.68h1.14l-.8,2.25a5.24,5.24,0,0,1-1.21,2.25,2,2,0,0,1-1,.47l-.22-.9a1.35,1.35,0,0,0,.46-.18,1.22,1.22,0,0,0,.44-.43.28.28,0,0,0,.06-.15.38.38,0,0,0,0-.17l-1.25-3.13Z"/><path class="cls-1" d="M242.26,73.31a1.72,1.72,0,0,1-1.81,1.83,1.68,1.68,0,0,1-1.77-1.76,1.71,1.71,0,0,1,1.83-1.81A1.67,1.67,0,0,1,242.26,73.31Zm-2.48,0c0,.59.25,1,.7,1s.68-.41.68-1-.2-1-.68-1S239.78,72.84,239.78,73.34Z"/><path class="cls-1" d="M246.14,74c0,.45,0,.81,0,1.1h-.92l0-.48h0a1.22,1.22,0,0,1-1.07.56c-.69,0-1.2-.43-1.2-1.49v-2H244v1.84c0,.5.16.8.53.8a.57.57,0,0,0,.53-.37.59.59,0,0,0,0-.23v-2h1.07Z"/><path class="cls-1" d="M247,72.76c0-.5,0-.83,0-1.13h.92l0,.63h0a1,1,0,0,1,.92-.71h.22v1a1.55,1.55,0,0,0-.29,0,.68.68,0,0,0-.73.54,1.27,1.27,0,0,0,0,.24v1.74H247Z"/><path class="cls-1" d="M251.19,75.06V72.42h-.45v-.78h.45v-.15c0-.95.74-1.48,1.79-1.48a2.29,2.29,0,0,1,1,.21l-.2.81a1.68,1.68,0,0,0-.78-.17c-.56,0-.76.29-.76.67v.12h2.08v3.42h-1.06V72.42h-1v2.64Z"/><path class="cls-1" d="M255.18,72.72c0-.43,0-.79,0-1.09h.92l0,.47h0a1.26,1.26,0,0,1,1.06-.55c.7,0,1.22.46,1.22,1.47v2h-1.06v-1.9c0-.44-.15-.74-.54-.74a.57.57,0,0,0-.54.4.75.75,0,0,0,0,.27v2h-1.06Z"/><path class="cls-1" d="M262.56,71.63c0,.22,0,.5,0,1v1.91A2,2,0,0,1,262,76.1a2.12,2.12,0,0,1-1.39.42,2.66,2.66,0,0,1-1.23-.27l.21-.8a2.11,2.11,0,0,0,1,.26.82.82,0,0,0,.89-.9v-.22h0a1.1,1.1,0,0,1-.92.45,1.51,1.51,0,0,1-1.45-1.67,1.64,1.64,0,0,1,1.56-1.8,1,1,0,0,1,.94.48h0l0-.41ZM261.46,73a.81.81,0,0,0,0-.2.58.58,0,0,0-.57-.47c-.38,0-.7.35-.7,1s.25.91.7.91a.58.58,0,0,0,.56-.43.89.89,0,0,0,0-.28Z"/><path class="cls-1" d="M264.2,73.68c0,.44.47.65,1,.65a3,3,0,0,0,.95-.14l.14.72a3.39,3.39,0,0,1-1.24.21,1.64,1.64,0,0,1-1.83-1.74,1.72,1.72,0,0,1,1.73-1.83,1.52,1.52,0,0,1,1.53,1.71,2.46,2.46,0,0,1,0,.42Zm1.25-.73a.62.62,0,0,0-.6-.69.7.7,0,0,0-.66.69Z"/><path class="cls-1" d="M267.08,72.76c0-.5,0-.83,0-1.13H268l0,.63h0a1,1,0,0,1,.92-.71h.22v1a1.55,1.55,0,0,0-.29,0,.68.68,0,0,0-.73.54,1.27,1.27,0,0,0,0,.24v1.74h-1.06Z"/><path class="cls-1" d="M269.74,72.78c0-.45,0-.83,0-1.15h.92l0,.48h0a1.31,1.31,0,0,1,1.14-.55,1.55,1.55,0,0,1,1.42,1.74,1.63,1.63,0,0,1-1.55,1.83,1.06,1.06,0,0,1-.89-.39h0V81h-1.06Zm1.06.81a1.08,1.08,0,0,0,0,.22.65.65,0,0,0,.62.5c.46,0,.74-.39.74-1s-.25-1-.72-1a.67.67,0,0,0-.64.54.84.84,0,0,0,0,.19Z"/><path class="cls-1" d="M273.92,72.76c0-.5,0-.83,0-1.13h.92l0,.63h0a1,1,0,0,1,.92-.71H276v1a1.55,1.55,0,0,0-.29,0,.68.68,0,0,0-.73.54,1.27,1.27,0,0,0,0,.24v1.74h-1.06Z"/><path class="cls-1" d="M277.68,70.68a.53.53,0,0,1-.57.53.54.54,0,1,1,0-1.07A.54.54,0,0,1,277.68,70.68Zm-1.1,4.38V71.63h1.06v3.42Z"/><path class="cls-1" d="M278.5,72.72c0-.43,0-.79,0-1.09h.92l0,.47h0a1.25,1.25,0,0,1,1.06-.55c.7,0,1.23.46,1.23,1.47v2h-1.06v-1.9c0-.44-.15-.74-.54-.74a.57.57,0,0,0-.54.4.75.75,0,0,0,0,.27v2H278.5Z"/><path class="cls-1" d="M283.75,70.65v1h.76v.78h-.76v1.24c0,.41.1.6.42.6a1.78,1.78,0,0,0,.32,0V75a2.06,2.06,0,0,1-.69.09,1.1,1.1,0,0,1-.8-.29,1.42,1.42,0,0,1-.29-1v-1.4h-.46v-.78h.46v-.74Z"/><path class="cls-1" d="M285,74.5a.63.63,0,1,1,.63.64A.61.61,0,0,1,285,74.5Zm.23-1-.16-3.17h1.11L286,73.51Z"/><path class="cls-5" d="M179.49,63a5.05,5.05,0,0,0,2.2.55c.91,0,1.39-.38,1.39-.95s-.42-.86-1.47-1.23c-1.46-.51-2.4-1.31-2.4-2.59,0-1.5,1.25-2.64,3.31-2.64a5.36,5.36,0,0,1,2.24.44l-.44,1.6a4.17,4.17,0,0,0-1.83-.42c-.86,0-1.27.39-1.27.84s.49.81,1.63,1.24c1.55.57,2.27,1.38,2.27,2.61,0,1.47-1.13,2.72-3.54,2.72a5.73,5.73,0,0,1-2.48-.53Z"/><path class="cls-5" d="M194.47,60.58c0,2.87-1.74,4.62-4.3,4.62s-4.12-2-4.12-4.46,1.68-4.59,4.26-4.59S194.47,58.17,194.47,60.58Zm-6.33.12c0,1.72.81,2.93,2.13,2.93s2.11-1.27,2.11-3-.75-2.92-2.12-2.92S188.14,59,188.14,60.7Z"/><path class="cls-5" d="M203.79,60.58c0,2.87-1.74,4.62-4.3,4.62s-4.12-2-4.12-4.46,1.68-4.59,4.26-4.59S203.79,58.17,203.79,60.58Zm-6.33.12c0,1.72.81,2.93,2.13,2.93s2.11-1.27,2.11-3-.75-2.92-2.12-2.92S197.46,59,197.46,60.7Z"/><path class="cls-5" d="M205.09,56.41a16.29,16.29,0,0,1,2.68-.18,4.2,4.2,0,0,1,2.68.7,2.56,2.56,0,0,1,.94,2,2.8,2.8,0,0,1-.81,2.08,4.06,4.06,0,0,1-2.85.92,5.08,5.08,0,0,1-.68,0v3.13h-2Zm2,4a3,3,0,0,0,.66.05c1.05,0,1.7-.53,1.7-1.43s-.56-1.29-1.55-1.29a3.37,3.37,0,0,0-.82.08Z"/><path class="cls-5" d="M217.86,61.35h-3.22v2.08h3.6v1.62h-5.59V56.29h5.41v1.63h-3.42v1.82h3.22Z"/><path class="cls-5" d="M219.58,56.41a17.48,17.48,0,0,1,2.64-.18,4.47,4.47,0,0,1,2.83.69,2.22,2.22,0,0,1,.81,1.83,2.32,2.32,0,0,1-1.55,2.16v0a2.21,2.21,0,0,1,1.17,1.64c.27,1,.55,2.13.71,2.47h-2a10.94,10.94,0,0,1-.61-2c-.23-1.09-.61-1.39-1.42-1.4h-.6v3.45h-2Zm2,3.77h.78c1,0,1.57-.49,1.57-1.26s-.55-1.21-1.46-1.22a4.9,4.9,0,0,0-.9.07Z"/><path class="cls-5" d="M230,63a5.05,5.05,0,0,0,2.2.55c.91,0,1.39-.38,1.39-.95s-.42-.86-1.47-1.23c-1.46-.51-2.4-1.31-2.4-2.59,0-1.5,1.25-2.64,3.31-2.64a5.36,5.36,0,0,1,2.24.44l-.44,1.6a4.17,4.17,0,0,0-1.83-.42c-.86,0-1.27.39-1.27.84s.49.81,1.63,1.24c1.55.57,2.27,1.38,2.27,2.61,0,1.47-1.13,2.72-3.54,2.72a5.73,5.73,0,0,1-2.48-.53Z"/><path class="cls-5" d="M242.15,61.35h-3.22v2.08h3.6v1.62h-5.59V56.29h5.41v1.63h-3.42v1.82h3.22Z"/><path class="cls-5" d="M250.32,64.81a5.66,5.66,0,0,1-2.25.38c-3,0-4.59-1.88-4.59-4.38a4.47,4.47,0,0,1,4.78-4.65,5.18,5.18,0,0,1,2.16.39l-.4,1.57a4.28,4.28,0,0,0-1.66-.33,2.88,2.88,0,0,0,0,5.76,4.94,4.94,0,0,0,1.65-.29Z"/><path class="cls-5" d="M253.59,56.29v5c0,1.51.57,2.27,1.59,2.27s1.61-.73,1.61-2.27v-5h2v4.92c0,2.7-1.37,4-3.65,4s-3.51-1.22-3.51-4V56.29Z"/><path class="cls-5" d="M260.48,56.41a17.49,17.49,0,0,1,2.64-.18,4.47,4.47,0,0,1,2.83.69,2.23,2.23,0,0,1,.81,1.83,2.32,2.32,0,0,1-1.55,2.16v0a2.21,2.21,0,0,1,1.17,1.64c.27,1,.55,2.13.71,2.47h-2a11,11,0,0,1-.61-2c-.23-1.09-.61-1.39-1.42-1.4h-.6v3.45h-2Zm2,3.77h.78c1,0,1.57-.49,1.57-1.26s-.55-1.21-1.46-1.22a4.89,4.89,0,0,0-.9.07Z"/><path class="cls-5" d="M273.4,61.35h-3.22v2.08h3.6v1.62h-5.59V56.29h5.41v1.63h-3.42v1.82h3.22Z"/><path class="cls-5" d="M277.76,56.41a16.28,16.28,0,0,1,2.68-.18,4.2,4.2,0,0,1,2.68.7,2.56,2.56,0,0,1,.94,2,2.8,2.8,0,0,1-.81,2.08,4.06,4.06,0,0,1-2.85.92,5.08,5.08,0,0,1-.68,0v3.13h-2Zm2,4a3,3,0,0,0,.66.05c1.05,0,1.7-.53,1.7-1.43s-.56-1.29-1.55-1.29a3.38,3.38,0,0,0-.82.08Z"/><path class="cls-5" d="M285.31,56.41a17.5,17.5,0,0,1,2.64-.18,4.47,4.47,0,0,1,2.83.69,2.22,2.22,0,0,1,.81,1.83A2.32,2.32,0,0,1,290,60.91v0a2.21,2.21,0,0,1,1.17,1.64c.27,1,.55,2.13.71,2.47h-2a11,11,0,0,1-.61-2c-.23-1.09-.61-1.39-1.42-1.4h-.6v3.45h-2Zm2,3.77h.78c1,0,1.57-.49,1.57-1.26s-.55-1.21-1.46-1.22a4.89,4.89,0,0,0-.9.07Z"/><path class="cls-5" d="M301,60.58c0,2.87-1.74,4.62-4.3,4.62s-4.12-2-4.12-4.46,1.68-4.59,4.26-4.59S301,58.17,301,60.58Zm-6.33.12c0,1.72.81,2.93,2.13,2.93s2.11-1.27,2.11-3-.75-2.92-2.12-2.92S294.66,59,294.66,60.7Z"/><polygon class="cls-1" points="270.8 87.2 270.8 84.01 269.74 84.01 269.74 87.2 267.74 87.2 270.27 89.73 272.8 87.2 270.8 87.2"/><path class="cls-1" d="M192,136.15l.31,1.6c.08.41.16.84.22,1.29h0c.08-.45.19-.9.29-1.28l.42-1.61h1l.39,1.56c.1.44.21.88.29,1.33h0c.06-.45.14-.89.22-1.33l.34-1.55h1.19l-1.2,3.91h-1.14l-.37-1.37c-.1-.38-.17-.74-.25-1.22h0a9.11,9.11,0,0,1-.26,1.22l-.39,1.38h-1.14l-1.14-3.91Z"/><path class="cls-1" d="M199.36,140.06l-.07-.39h0a1.41,1.41,0,0,1-1.12.48,1.2,1.2,0,0,1-1.26-1.2c0-1,.91-1.5,2.29-1.5v-.06c0-.21-.11-.5-.71-.5a2.2,2.2,0,0,0-1.08.3l-.22-.78a3.23,3.23,0,0,1,1.52-.34,1.52,1.52,0,0,1,1.72,1.69v1.36a6.12,6.12,0,0,0,.06,1Zm-.14-1.85c-.64,0-1.14.14-1.14.62a.44.44,0,0,0,.48.46.66.66,0,0,0,.63-.45.87.87,0,0,0,0-.21Z"/><path class="cls-1" d="M202.18,136.15l.58,1.92c.06.23.14.52.19.73h0c.06-.21.12-.5.18-.73l.48-1.92h1.3l-.91,2.58a6,6,0,0,1-1.37,2.57,2.24,2.24,0,0,1-1.18.54l-.26-1a1.51,1.51,0,0,0,.53-.21,1.39,1.39,0,0,0,.5-.49.32.32,0,0,0,.06-.18.44.44,0,0,0-.06-.2l-1.43-3.57Z"/><path class="cls-1" d="M207.06,137.39c0-.49,0-.9,0-1.25h1l.06.53h0a1.36,1.36,0,0,1,1.18-.62,1.11,1.11,0,0,1,1.07.66h0a1.74,1.74,0,0,1,.5-.47,1.41,1.41,0,0,1,.74-.19c.75,0,1.32.53,1.32,1.7v2.3h-1.18v-2.13c0-.57-.18-.9-.58-.9a.6.6,0,0,0-.56.42,1,1,0,0,0,0,.31v2.29h-1.18v-2.19c0-.5-.18-.83-.56-.83a.62.62,0,0,0-.57.44.81.81,0,0,0,0,.3v2.28h-1.18Z"/><path class="cls-1" d="M217.81,138.06a2,2,0,0,1-2.06,2.09,1.92,1.92,0,0,1-2-2,2,2,0,0,1,2.09-2.07A1.9,1.9,0,0,1,217.81,138.06Zm-2.83,0c0,.67.28,1.18.8,1.18s.78-.47.78-1.18-.22-1.18-.78-1.18S215,137.52,215,138.1Z"/><path class="cls-1" d="M218.56,137.43c0-.58,0-1,0-1.29h1l0,.72h0a1.15,1.15,0,0,1,1.06-.81,1.21,1.21,0,0,1,.26,0v1.14a1.78,1.78,0,0,0-.33,0,.78.78,0,0,0-.83.62,1.43,1.43,0,0,0,0,.27v2h-1.22Z"/><path class="cls-1" d="M222.47,138.49c0,.5.54.74,1.1.74a3.46,3.46,0,0,0,1.08-.16l.16.82a3.86,3.86,0,0,1-1.42.24,1.88,1.88,0,0,1-2.09-2,2,2,0,0,1,2-2.09,1.73,1.73,0,0,1,1.74,2,2.87,2.87,0,0,1,0,.48Zm1.43-.83a.71.71,0,0,0-.69-.79.8.8,0,0,0-.75.79Z"/><path class="cls-1" d="M227.37,139a2.38,2.38,0,0,0,1,.3c.37,0,.52-.13.52-.33s-.12-.3-.58-.45c-.81-.27-1.12-.71-1.11-1.18,0-.73.62-1.28,1.59-1.28a2.62,2.62,0,0,1,1.1.22l-.22.84a1.92,1.92,0,0,0-.85-.22c-.3,0-.46.12-.46.32s.15.28.63.45c.74.26,1.06.63,1.06,1.21,0,.73-.58,1.26-1.69,1.26a2.78,2.78,0,0,1-1.26-.27Z"/><path class="cls-1" d="M231.78,138.49c0,.5.54.74,1.1.74a3.45,3.45,0,0,0,1.08-.16l.16.82a3.86,3.86,0,0,1-1.42.24,1.88,1.88,0,0,1-2.09-2,2,2,0,0,1,2-2.09,1.73,1.73,0,0,1,1.74,2,2.87,2.87,0,0,1,0,.48Zm1.43-.83a.71.71,0,0,0-.69-.79.8.8,0,0,0-.75.79Z"/><path class="cls-1" d="M238,140a3,3,0,0,1-1.09.18,1.9,1.9,0,0,1-2.07-2,2,2,0,0,1,2.24-2.08,2.83,2.83,0,0,1,.93.15l-.19.9a1.67,1.67,0,0,0-.68-.12,1.1,1.1,0,0,0,0,2.19,1.89,1.89,0,0,0,.7-.12Z"/><path class="cls-1" d="M242.37,138.8c0,.51,0,.93,0,1.25h-1.06l-.06-.55h0a1.39,1.39,0,0,1-1.22.64c-.79,0-1.38-.5-1.38-1.7v-2.29h1.22v2.1c0,.57.18.91.61.91a.65.65,0,0,0,.61-.42.68.68,0,0,0,0-.26v-2.33h1.22Z"/><path class="cls-1" d="M243.34,137.43c0-.58,0-1,0-1.29h1l0,.72h0a1.15,1.15,0,0,1,1.05-.81,1.21,1.21,0,0,1,.26,0v1.14a1.78,1.78,0,0,0-.33,0,.78.78,0,0,0-.83.62,1.39,1.39,0,0,0,0,.27v2h-1.21Z"/><path class="cls-1" d="M247.26,138.49c0,.5.54.74,1.1.74a3.45,3.45,0,0,0,1.08-.16l.16.82a3.85,3.85,0,0,1-1.42.24,1.88,1.88,0,0,1-2.09-2,2,2,0,0,1,2-2.09,1.73,1.73,0,0,1,1.74,2,2.79,2.79,0,0,1,0,.48Zm1.43-.83a.71.71,0,0,0-.69-.79.8.8,0,0,0-.75.79Z"/><path class="cls-1" d="M253.52,135v1.12h.87v.9h-.87v1.42c0,.47.11.69.48.69a2,2,0,0,0,.36,0V140a2.37,2.37,0,0,1-.79.1,1.26,1.26,0,0,1-.91-.34,1.62,1.62,0,0,1-.33-1.16V137h-.52v-.9h.52v-.85Z"/><path class="cls-1" d="M255.1,134.38h1.21v2.23h0a1.46,1.46,0,0,1,.48-.4,1.37,1.37,0,0,1,.63-.15c.78,0,1.37.54,1.37,1.71v2.29h-1.21v-2.15c0-.51-.18-.86-.63-.86a.65.65,0,0,0-.61.42.77.77,0,0,0,0,.27v2.32H255.1Z"/><path class="cls-1" d="M262,140.06l-.07-.39h0a1.41,1.41,0,0,1-1.12.48,1.2,1.2,0,0,1-1.26-1.2c0-1,.91-1.5,2.29-1.5v-.06c0-.21-.11-.5-.71-.5a2.2,2.2,0,0,0-1.08.3l-.22-.78a3.24,3.24,0,0,1,1.52-.34,1.52,1.52,0,0,1,1.72,1.69v1.36a6.18,6.18,0,0,0,.06,1Zm-.14-1.85c-.64,0-1.14.14-1.14.62a.44.44,0,0,0,.48.46.66.66,0,0,0,.63-.45.85.85,0,0,0,0-.21Z"/><path class="cls-1" d="M264,137.39c0-.49,0-.9,0-1.25H265l.06.54h0a1.43,1.43,0,0,1,1.21-.62c.8,0,1.4.53,1.4,1.68v2.32H266.5v-2.17c0-.5-.18-.85-.62-.85a.65.65,0,0,0-.62.46.83.83,0,0,0,0,.3v2.25H264Z"/><path class="cls-1" d="M271.67,135v1.12h.87v.9h-.87v1.42c0,.47.11.69.48.69a2,2,0,0,0,.36,0V140a2.36,2.36,0,0,1-.79.1,1.26,1.26,0,0,1-.91-.34,1.62,1.62,0,0,1-.34-1.16V137H270v-.9h.52v-.85Z"/><path class="cls-1" d="M273.25,134.38h1.21v2.23h0a1.46,1.46,0,0,1,.48-.4,1.37,1.37,0,0,1,.63-.15c.78,0,1.37.54,1.37,1.71v2.29h-1.21v-2.15c0-.51-.18-.86-.63-.86a.65.65,0,0,0-.61.42.77.77,0,0,0,0,.27v2.32h-1.21Z"/><path class="cls-1" d="M278.87,138.49c0,.5.54.74,1.1.74a3.45,3.45,0,0,0,1.08-.16l.16.82a3.85,3.85,0,0,1-1.42.24,1.88,1.88,0,0,1-2.09-2,2,2,0,0,1,2-2.09,1.73,1.73,0,0,1,1.74,2,2.79,2.79,0,0,1,0,.48Zm1.43-.83a.71.71,0,0,0-.69-.79.8.8,0,0,0-.75.79Z"/><path class="cls-1" d="M282.15,139a2.38,2.38,0,0,0,1,.3c.37,0,.52-.13.52-.33s-.12-.3-.58-.45c-.81-.27-1.12-.71-1.11-1.18,0-.73.62-1.28,1.59-1.28a2.62,2.62,0,0,1,1.1.22l-.22.84a1.92,1.92,0,0,0-.85-.22c-.3,0-.46.12-.46.32s.15.28.63.45c.74.26,1.06.63,1.06,1.21,0,.73-.58,1.26-1.69,1.26a2.78,2.78,0,0,1-1.26-.27Z"/><path class="cls-1" d="M286.57,138.49c0,.5.54.74,1.1.74a3.46,3.46,0,0,0,1.08-.16l.16.82a3.86,3.86,0,0,1-1.42.24,1.88,1.88,0,0,1-2.09-2,2,2,0,0,1,2-2.09,1.73,1.73,0,0,1,1.74,2,3,3,0,0,1,0,.48Zm1.43-.83a.71.71,0,0,0-.69-.79.8.8,0,0,0-.75.79Z"/><path class="cls-1" d="M297.49,138.77l-6.42.31v-1.49l6.42.31-.42-2.29,3.36,2.73-3.36,2.73Z"/><path class="cls-1" d="M182.9,141.07l-3.2-2.73,3.2-2.73-.4,2.29,6.13-.31v1.49l-6.12-.31Z"/><path class="cls-1" d="M183.75,149.67v2.07h2v-2.07H187v5.39h-1.22V152.8h-2v2.25h-1.22v-5.39Z"/><path class="cls-1" d="M188.91,153.49c0,.5.54.74,1.1.74a3.46,3.46,0,0,0,1.08-.16l.16.82a3.86,3.86,0,0,1-1.42.24,1.88,1.88,0,0,1-2.09-2,2,2,0,0,1,2-2.09,1.73,1.73,0,0,1,1.74,2,2.87,2.87,0,0,1,0,.48Zm1.43-.83a.71.71,0,0,0-.69-.79.8.8,0,0,0-.75.79Z"/><path class="cls-1" d="M195.13,155a3,3,0,0,1-1.09.18,1.9,1.9,0,0,1-2.07-2,2,2,0,0,1,2.24-2.08,2.83,2.83,0,0,1,.93.15l-.19.9a1.67,1.67,0,0,0-.68-.12,1.1,1.1,0,0,0,0,2.19,1.89,1.89,0,0,0,.7-.12Z"/><path class="cls-1" d="M197,152.79h0c.09-.16.18-.32.28-.47l.79-1.18h1.46l-1.4,1.58,1.6,2.33h-1.5l-.94-1.61-.31.38v1.22h-1.22v-5.68H197Z"/><path class="cls-1" d="M199.7,156a13.51,13.51,0,0,0,.58-2.27l1.24-.08a11.1,11.1,0,0,1-1,2.28Z"/><path class="cls-1" d="M205.23,150v1.12h.87v.9h-.87v1.42c0,.47.11.69.48.69a2,2,0,0,0,.36,0V155a2.37,2.37,0,0,1-.79.1,1.26,1.26,0,0,1-.91-.34,1.62,1.62,0,0,1-.34-1.16V152h-.52v-.9H204v-.85Z"/><path class="cls-1" d="M206.81,149.38H208v2.23h0a1.45,1.45,0,0,1,.48-.4,1.37,1.37,0,0,1,.63-.15c.78,0,1.37.54,1.37,1.71v2.29H209.3v-2.15c0-.51-.18-.86-.63-.86a.65.65,0,0,0-.61.42.77.77,0,0,0,0,.27v2.32h-1.22Z"/><path class="cls-1" d="M213.72,155.06l-.07-.39h0a1.41,1.41,0,0,1-1.12.48,1.2,1.2,0,0,1-1.26-1.2c0-1,.91-1.5,2.29-1.5v-.06c0-.21-.11-.5-.71-.5a2.2,2.2,0,0,0-1.08.3l-.22-.78a3.23,3.23,0,0,1,1.52-.34,1.52,1.52,0,0,1,1.72,1.69v1.36a6.12,6.12,0,0,0,.06,1Zm-.14-1.85c-.64,0-1.14.14-1.14.62a.44.44,0,0,0,.48.46.66.66,0,0,0,.63-.45.87.87,0,0,0,0-.21Z"/><path class="cls-1" d="M217,150v1.12h.87v.9H217v1.42c0,.47.11.69.48.69a2,2,0,0,0,.36,0V155a2.37,2.37,0,0,1-.79.1,1.26,1.26,0,0,1-.91-.34,1.62,1.62,0,0,1-.34-1.16V152h-.52v-.9h.52v-.85Z"/><path class="cls-1" d="M224.07,153.06a2,2,0,0,1-2.06,2.09,1.92,1.92,0,0,1-2-2,2,2,0,0,1,2.09-2.07A1.9,1.9,0,0,1,224.07,153.06Zm-2.83,0c0,.67.28,1.18.8,1.18s.78-.47.78-1.18-.22-1.18-.78-1.18S221.24,152.52,221.24,153.1Z"/><path class="cls-1" d="M224.82,152.39c0-.49,0-.9,0-1.25h1.06l.06.54h0a1.43,1.43,0,0,1,1.21-.62c.8,0,1.4.53,1.4,1.68v2.32h-1.22v-2.17c0-.5-.18-.85-.62-.85a.65.65,0,0,0-.62.46.84.84,0,0,0,0,.3v2.25h-1.22Z"/><path class="cls-1" d="M230.45,153.49c0,.5.54.74,1.1.74a3.46,3.46,0,0,0,1.08-.16l.16.82a3.86,3.86,0,0,1-1.42.24,1.88,1.88,0,0,1-2.09-2,2,2,0,0,1,2-2.09,1.73,1.73,0,0,1,1.74,2,2.87,2.87,0,0,1,0,.48Zm1.43-.83a.71.71,0,0,0-.69-.79.8.8,0,0,0-.75.79Z"/><path class="cls-1" d="M235.35,152.46c0-.51,0-1,0-1.31h1.06l.06.54h0a1.5,1.5,0,0,1,1.3-.63,1.77,1.77,0,0,1,1.62,2,1.86,1.86,0,0,1-1.78,2.09,1.21,1.21,0,0,1-1-.45h0v1.94h-1.22Zm1.22.92a1.24,1.24,0,0,0,0,.26.74.74,0,0,0,.71.58c.53,0,.84-.44.84-1.1s-.28-1.09-.82-1.09a.76.76,0,0,0-.73.62,1,1,0,0,0,0,.22Z"/><path class="cls-1" d="M240.13,152.43c0-.58,0-1,0-1.29h1l0,.72h0a1.15,1.15,0,0,1,1.06-.81,1.21,1.21,0,0,1,.26,0v1.14a1.79,1.79,0,0,0-.33,0,.78.78,0,0,0-.83.62,1.39,1.39,0,0,0,0,.27v2h-1.22Z"/><path class="cls-1" d="M245.31,155.06l-.07-.39h0a1.41,1.41,0,0,1-1.12.48,1.2,1.2,0,0,1-1.26-1.2c0-1,.91-1.5,2.29-1.5v-.06c0-.21-.11-.5-.71-.5a2.2,2.2,0,0,0-1.08.3l-.22-.78a3.23,3.23,0,0,1,1.52-.34,1.52,1.52,0,0,1,1.72,1.69v1.36a6.06,6.06,0,0,0,.06,1Zm-.14-1.85c-.64,0-1.13.14-1.13.62a.44.44,0,0,0,.48.46.67.67,0,0,0,.63-.45.9.9,0,0,0,0-.21Z"/><path class="cls-1" d="M250.25,155a3,3,0,0,1-1.09.18,1.9,1.9,0,0,1-2.07-2,2,2,0,0,1,2.24-2.08,2.82,2.82,0,0,1,.93.15l-.19.9a1.67,1.67,0,0,0-.68-.12,1.1,1.1,0,0,0,0,2.19,1.89,1.89,0,0,0,.7-.12Z"/><path class="cls-1" d="M252.41,150v1.12h.87v.9h-.87v1.42c0,.47.11.69.48.69a2,2,0,0,0,.36,0V155a2.37,2.37,0,0,1-.79.1,1.26,1.26,0,0,1-.91-.34,1.62,1.62,0,0,1-.34-1.16V152h-.52v-.9h.52v-.85Z"/><path class="cls-1" d="M255.24,150.06a.61.61,0,0,1-.66.61.61.61,0,1,1,0-1.22A.61.61,0,0,1,255.24,150.06Zm-1.26,5v-3.91h1.22v3.91Z"/><path class="cls-1" d="M259.11,155a3,3,0,0,1-1.09.18,1.9,1.9,0,0,1-2.07-2,2,2,0,0,1,2.24-2.08,2.82,2.82,0,0,1,.93.15l-.19.9a1.67,1.67,0,0,0-.68-.12,1.1,1.1,0,0,0,0,2.19,1.89,1.89,0,0,0,.7-.12Z"/><path class="cls-1" d="M262,155.06l-.07-.39h0a1.41,1.41,0,0,1-1.12.48,1.2,1.2,0,0,1-1.26-1.2c0-1,.91-1.5,2.29-1.5v-.06c0-.21-.11-.5-.71-.5a2.2,2.2,0,0,0-1.08.3l-.22-.78a3.23,3.23,0,0,1,1.52-.34,1.52,1.52,0,0,1,1.72,1.69v1.36a6.06,6.06,0,0,0,.06,1Zm-.14-1.85c-.64,0-1.13.14-1.13.62a.44.44,0,0,0,.48.46.67.67,0,0,0,.63-.45.9.9,0,0,0,0-.21Z"/><path class="cls-1" d="M264,149.38h1.22v5.68H264Z"/><path class="cls-1" d="M266.24,149.38h1.22v5.68h-1.22Z"/><path class="cls-1" d="M269.35,151.15l.58,1.92c.06.23.14.52.19.73h0c.06-.21.12-.5.18-.73l.48-1.92h1.3l-.91,2.58a6,6,0,0,1-1.37,2.57,2.24,2.24,0,0,1-1.18.54l-.26-1a1.52,1.52,0,0,0,.53-.21,1.38,1.38,0,0,0,.5-.49.32.32,0,0,0,.06-.18.44.44,0,0,0-.06-.2L268,151.15Z"/><path class="cls-1" d="M277.17,155a3,3,0,0,1-1.09.18,1.9,1.9,0,0,1-2.07-2,2,2,0,0,1,2.24-2.08,2.82,2.82,0,0,1,.93.15l-.19.9a1.67,1.67,0,0,0-.68-.12,1.1,1.1,0,0,0,0,2.19,1.89,1.89,0,0,0,.7-.12Z"/><path class="cls-1" d="M281.62,153.06a2,2,0,0,1-2.06,2.09,1.92,1.92,0,0,1-2-2,2,2,0,0,1,2.09-2.07A1.9,1.9,0,0,1,281.62,153.06Zm-2.83,0c0,.67.28,1.18.8,1.18s.78-.47.78-1.18-.22-1.18-.78-1.18S278.79,152.52,278.79,153.1Z"/><path class="cls-1" d="M282.37,152.39c0-.49,0-.9,0-1.25h1l.06.53h0a1.35,1.35,0,0,1,1.18-.62,1.11,1.11,0,0,1,1.07.66h0a1.72,1.72,0,0,1,.5-.47,1.41,1.41,0,0,1,.74-.19c.75,0,1.32.53,1.32,1.7v2.3H287.1v-2.13c0-.57-.18-.9-.58-.9a.59.59,0,0,0-.56.42,1,1,0,0,0,0,.31v2.29h-1.18v-2.19c0-.5-.18-.83-.56-.83a.62.62,0,0,0-.57.44.81.81,0,0,0,0,.3v2.28h-1.18Z"/><path class="cls-1" d="M290.19,153.49c0,.5.54.74,1.1.74a3.46,3.46,0,0,0,1.08-.16l.16.82a3.85,3.85,0,0,1-1.42.24,1.88,1.88,0,0,1-2.09-2,2,2,0,0,1,2-2.09,1.73,1.73,0,0,1,1.74,2,2.81,2.81,0,0,1,0,.48Zm1.43-.83a.71.71,0,0,0-.69-.79.8.8,0,0,0-.75.79Z"/><path class="cls-1" d="M293.47,154a2.38,2.38,0,0,0,1,.3c.37,0,.52-.13.52-.33s-.12-.3-.58-.45c-.81-.27-1.12-.71-1.11-1.18,0-.73.62-1.28,1.59-1.28a2.62,2.62,0,0,1,1.1.22l-.22.84a1.93,1.93,0,0,0-.85-.22c-.3,0-.46.12-.46.32s.15.28.63.45c.74.26,1.05.63,1.06,1.21,0,.73-.58,1.26-1.7,1.26a2.78,2.78,0,0,1-1.26-.27Z"/><path class="cls-1" d="M183.33,160.75l.31,1.6c.08.41.16.84.22,1.29h0c.08-.45.19-.9.29-1.28l.42-1.61h1l.39,1.56c.1.44.21.88.29,1.33h0c.06-.45.14-.89.22-1.33l.34-1.55H188l-1.2,3.91h-1.14l-.37-1.37c-.1-.38-.17-.74-.25-1.22h0a9.11,9.11,0,0,1-.26,1.22l-.39,1.38h-1.14l-1.14-3.91Z"/><path class="cls-1" d="M189.81,159.66a.61.61,0,0,1-.66.61.61.61,0,1,1,0-1.22A.61.61,0,0,1,189.81,159.66Zm-1.26,5v-3.91h1.22v3.91Z"/><path class="cls-1" d="M192.11,159.63v1.12H193v.9h-.87v1.42c0,.47.11.69.48.69a2,2,0,0,0,.36,0v.92a2.37,2.37,0,0,1-.79.1,1.26,1.26,0,0,1-.91-.34,1.62,1.62,0,0,1-.34-1.16v-1.6h-.52v-.9h.52v-.85Z"/><path class="cls-1" d="M193.69,159h1.22v2.23h0a1.45,1.45,0,0,1,.48-.4,1.37,1.37,0,0,1,.63-.15c.78,0,1.37.54,1.37,1.71v2.29h-1.22v-2.15c0-.51-.18-.86-.63-.86a.65.65,0,0,0-.61.42.77.77,0,0,0,0,.27v2.32h-1.22Z"/><path class="cls-1" d="M200.07,163.4a3.12,3.12,0,0,0,1.35.33c.56,0,.86-.23.86-.58s-.26-.53-.9-.76c-.9-.31-1.48-.81-1.48-1.59s.77-1.62,2-1.62a3.31,3.31,0,0,1,1.38.27l-.27,1a2.57,2.57,0,0,0-1.13-.26c-.53,0-.78.24-.78.52s.3.5,1,.76c1,.35,1.4.85,1.4,1.61s-.7,1.67-2.17,1.67a3.53,3.53,0,0,1-1.53-.33Z"/><path class="cls-1" d="M205.63,159.63v1.12h.87v.9h-.87v1.42c0,.47.11.69.48.69a2,2,0,0,0,.36,0v.92a2.37,2.37,0,0,1-.79.1,1.26,1.26,0,0,1-.91-.34,1.62,1.62,0,0,1-.34-1.16v-1.6h-.52v-.9h.52v-.85Z"/><path class="cls-1" d="M210.89,163.4c0,.51,0,.93,0,1.25h-1.06l-.06-.55h0a1.39,1.39,0,0,1-1.22.64c-.79,0-1.38-.5-1.38-1.7v-2.29h1.22v2.1c0,.57.18.91.61.91a.65.65,0,0,0,.61-.42.68.68,0,0,0,0-.26v-2.33h1.22Z"/><path class="cls-1" d="M212.8,160.75l.38.65.32.58h0c.1-.21.2-.41.3-.6l.34-.63h1.32l-1.29,1.86,1.3,2h-1.37l-.39-.7c-.11-.19-.21-.39-.3-.59h0c-.1.21-.2.4-.3.59l-.37.7h-1.34l1.33-2-1.29-1.92Z"/><path class="cls-1" d="M216,162c0-.49,0-.9,0-1.25H217l.06.54h0a1.43,1.43,0,0,1,1.21-.62c.8,0,1.4.53,1.4,1.68v2.32h-1.22v-2.17c0-.5-.18-.85-.62-.85a.65.65,0,0,0-.62.46.84.84,0,0,0,0,.3v2.25H216Z"/><path class="cls-1" d="M221.65,163.09c0,.5.54.74,1.1.74a3.46,3.46,0,0,0,1.08-.16l.16.82a3.86,3.86,0,0,1-1.42.24,1.88,1.88,0,0,1-2.09-2,2,2,0,0,1,2-2.09,1.73,1.73,0,0,1,1.74,2,2.87,2.87,0,0,1,0,.48Zm1.43-.83a.71.71,0,0,0-.69-.79.8.8,0,0,0-.75.79Z"/><path class="cls-1" d="M226.29,159.63v1.12h.87v.9h-.87v1.42c0,.47.11.69.48.69a2,2,0,0,0,.36,0v.92a2.37,2.37,0,0,1-.79.1,1.26,1.26,0,0,1-.91-.34,1.62,1.62,0,0,1-.34-1.16v-1.6h-.52v-.9h.52v-.85Z"/><path class="cls-1" d="M229.49,162.06c0-.51,0-1,0-1.31h1.06l.06.54h0a1.5,1.5,0,0,1,1.3-.63,1.77,1.77,0,0,1,1.62,2,1.86,1.86,0,0,1-1.77,2.09,1.21,1.21,0,0,1-1-.45h0v1.94h-1.22Zm1.22.92a1.21,1.21,0,0,0,0,.26.74.74,0,0,0,.71.58c.53,0,.84-.44.84-1.1s-.28-1.09-.82-1.09a.76.76,0,0,0-.73.62.93.93,0,0,0,0,.22Z"/><path class="cls-1" d="M234.27,162c0-.58,0-1,0-1.29h1l0,.72h0a1.15,1.15,0,0,1,1.06-.81,1.21,1.21,0,0,1,.26,0v1.14a1.79,1.79,0,0,0-.33,0,.78.78,0,0,0-.83.62,1.43,1.43,0,0,0,0,.27v2h-1.22Z"/><path class="cls-1" d="M238.18,163.09c0,.5.54.74,1.1.74a3.46,3.46,0,0,0,1.08-.16l.16.82a3.85,3.85,0,0,1-1.42.24,1.88,1.88,0,0,1-2.09-2,2,2,0,0,1,2-2.09,1.73,1.73,0,0,1,1.74,2,2.81,2.81,0,0,1,0,.48Zm1.43-.83a.71.71,0,0,0-.69-.79.8.8,0,0,0-.75.79Z"/><path class="cls-1" d="M243.56,162.15V163h-2.09v-.81Z"/><path class="cls-1" d="M245.54,159.66a.61.61,0,0,1-.66.61.61.61,0,1,1,0-1.22A.61.61,0,0,1,245.54,159.66Zm-1.26,5v-3.91h1.22v3.91Z"/><path class="cls-1" d="M246.48,162c0-.49,0-.9,0-1.25h1.05l.06.54h0a1.43,1.43,0,0,1,1.21-.62c.8,0,1.4.53,1.4,1.68v2.32H249v-2.17c0-.5-.18-.85-.62-.85a.65.65,0,0,0-.62.46.83.83,0,0,0,0,.3v2.25h-1.22Z"/><path class="cls-1" d="M251.16,163.59a2.38,2.38,0,0,0,1,.3c.37,0,.52-.13.52-.33s-.12-.3-.58-.45c-.81-.27-1.12-.71-1.11-1.18,0-.73.62-1.28,1.59-1.28a2.62,2.62,0,0,1,1.1.22l-.22.84a1.93,1.93,0,0,0-.85-.22c-.3,0-.46.12-.46.32s.15.28.63.45c.74.26,1.05.63,1.06,1.21,0,.73-.58,1.26-1.7,1.26a2.78,2.78,0,0,1-1.26-.27Z"/><path class="cls-1" d="M256,159.63v1.12h.87v.9H256v1.42c0,.47.11.69.48.69a2,2,0,0,0,.36,0v.92a2.37,2.37,0,0,1-.79.1,1.26,1.26,0,0,1-.91-.34,1.62,1.62,0,0,1-.34-1.16v-1.6h-.52v-.9h.52v-.85Z"/><path class="cls-1" d="M259.8,164.66l-.07-.39h0a1.41,1.41,0,0,1-1.12.48,1.2,1.2,0,0,1-1.26-1.2c0-1,.91-1.5,2.29-1.5V162c0-.21-.11-.5-.71-.5a2.2,2.2,0,0,0-1.08.3l-.22-.78a3.23,3.23,0,0,1,1.52-.34,1.52,1.52,0,0,1,1.72,1.69v1.36a6.06,6.06,0,0,0,.06,1Zm-.14-1.85c-.64,0-1.13.14-1.13.62a.44.44,0,0,0,.48.46.67.67,0,0,0,.63-.45.9.9,0,0,0,0-.21Z"/><path class="cls-1" d="M261.8,159H263v5.68H261.8Z"/><path class="cls-1" d="M264,159h1.22v5.68H264Z"/><path class="cls-1" d="M267.13,163.09c0,.5.54.74,1.1.74a3.46,3.46,0,0,0,1.08-.16l.16.82a3.85,3.85,0,0,1-1.42.24,1.88,1.88,0,0,1-2.09-2,2,2,0,0,1,2-2.09,1.73,1.73,0,0,1,1.74,2,2.81,2.81,0,0,1,0,.48Zm1.43-.83a.71.71,0,0,0-.69-.79.8.8,0,0,0-.75.79Z"/><path class="cls-1" d="M274.21,159v4.51c0,.44,0,.9,0,1.17h-1.08l-.06-.58h0a1.36,1.36,0,0,1-1.22.66,1.79,1.79,0,0,1-1.67-2,1.85,1.85,0,0,1,1.75-2.08,1.19,1.19,0,0,1,1,.44h0V159ZM273,162.4a1.8,1.8,0,0,0,0-.22.73.73,0,0,0-.71-.6c-.55,0-.84.5-.84,1.11s.33,1.08.83,1.08a.71.71,0,0,0,.7-.58,1,1,0,0,0,0-.28Z"/><path class="cls-1" d="M297.54,161l-19.31,2.19-.13-1.49,19.37-1.58-.62-2.25,3.58,2.43-3.1,3Z"/><rect class="cls-2" x="328" y="27" width="134" height="146" rx="3.54" ry="3.54"/><g id="USB_Drive-3" data-name="USB Drive"><rect class="cls-3" x="347" y="126" width="19" height="17" transform="translate(222 491) rotate(-90)"/><path class="cls-4" d="M364,148h66v0a13.5,13.5,0,0,0,0-27v0H364Z"/><rect class="cls-1" x="355.5" y="137.5" width="4" height="3" transform="translate(218.5 496.5) rotate(-90)"/><rect class="cls-1" x="355.5" y="128.5" width="4" height="3" transform="translate(227.5 487.5) rotate(-90)"/></g><path class="cls-1" d="M444.31,157H345.69a6.69,6.69,0,0,1-6.69-6.69V118.69a6.69,6.69,0,0,1,6.69-6.69h98.63a6.69,6.69,0,0,1,6.69,6.69v31.63A6.69,6.69,0,0,1,444.31,157Zm-98.63-44a5.69,5.69,0,0,0-5.69,5.69v31.63a5.69,5.69,0,0,0,5.69,5.69h98.63a5.69,5.69,0,0,0,5.69-5.69V118.69a5.69,5.69,0,0,0-5.69-5.69Z"/><path class="cls-1" d="M413.89,40H400.17a5.5,5.5,0,0,0-11,0H375.46a5.5,5.5,0,1,0,0,11h38.5a5.5,5.5,0,1,0,0-11Z"/><path class="cls-1" d="M382,78a6,6,0,0,0-1.25.08,5,5,0,0,0-4.29,4.39h.06a3.76,3.76,0,0,1,6.71,2.56,4.13,4.13,0,0,1-4.1,4.35c-2.64,0-4.37-2.05-4.37-5.26a7.76,7.76,0,0,1,2.09-5.57,6.72,6.72,0,0,1,4-1.82,8.07,8.07,0,0,1,1.22-.09Zm-.48,7.12c0-1.77-1-2.83-2.54-2.83a2.75,2.75,0,0,0-2.39,1.52,1.42,1.42,0,0,0-.19.74c0,2,1,3.53,2.72,3.53C380.51,88.12,381.48,86.93,381.48,85.16Z"/><path class="cls-1" d="M389.82,89.21V85.85h-5.74v-1.1l5.51-7.88h1.8v7.67h1.73v1.31H391.4v3.36Zm0-4.67V80.41q0-1,.06-1.94h-.06c-.38.72-.68,1.25-1,1.82l-3,4.2v0Z"/><path class="cls-1" d="M404.74,88.64a11.94,11.94,0,0,1-3.93.7,6,6,0,0,1-6.57-6.46c0-3.82,2.64-6.61,6.93-6.61a7.92,7.92,0,0,1,3.19.59l-.4,1.35a6.64,6.64,0,0,0-2.83-.55A4.79,4.79,0,0,0,396,82.81c0,3.25,2,5.17,4.94,5.17a5.39,5.39,0,0,0,2.2-.34V83.81h-2.6V82.48h4.22Z"/><path class="cls-1" d="M407.26,76.57a16,16,0,0,1,3-.27,5.29,5.29,0,0,1,3.51.93,2.68,2.68,0,0,1,1.06,2.26,3,3,0,0,1-2.17,2.81v0a3.3,3.3,0,0,1,2.64,3.21,3.45,3.45,0,0,1-1.08,2.56c-.89.82-2.34,1.2-4.43,1.2a19.29,19.29,0,0,1-2.56-.15Zm1.65,5.24h1.5c1.75,0,2.77-.91,2.77-2.15,0-1.5-1.14-2.09-2.81-2.09a7.06,7.06,0,0,0-1.46.11Zm0,6.14a8.8,8.8,0,0,0,1.39.08c1.71,0,3.29-.63,3.29-2.49s-1.5-2.47-3.31-2.47h-1.37Z"/><path class="cls-3" d="M394.67,28.25a4.5,4.5,0,0,0-4.5,4.5q0,.19,0,.38l.5,6a4,4,0,0,0,8,0l.5-6q0-.19,0-.38A4.5,4.5,0,0,0,394.67,28.25Z"/><path class="cls-2" d="M18,0V9.46A3.55,3.55,0,0,0,21.54,13H148.46A3.55,3.55,0,0,0,152,9.46V0Z"/><path class="cls-2" d="M173,0V9.46A3.55,3.55,0,0,0,176.54,13H303.46A3.55,3.55,0,0,0,307,9.46V0Z"/><path class="cls-2" d="M328,0V9.46A3.55,3.55,0,0,0,331.54,13H458.46A3.55,3.55,0,0,0,462,9.46V0Z"/></g></svg>