<svg xmlns="http://www.w3.org/2000/svg" viewBox="0 0 480 200"><defs><style>.cls-1{fill:#2d6894;}.cls-2{fill:#81a632;}.cls-3{fill:#59380f;}.cls-4{fill:#1d3503;}.cls-5{fill:#f8f3db;}</style></defs><title>bird_recognition</title><g id="Background"><rect class="cls-1" width="480" height="200"/><rect class="cls-2" y="164" width="480" height="36"/></g><g id="Layer_1" data-name="Layer 1"><g id="Person"><rect class="cls-3" x="67" y="134" width="15" height="53"/><circle class="cls-3" cx="74.5" cy="186.5" r="7.5"/><rect class="cls-3" x="84" y="134" width="15" height="53"/><circle class="cls-3" cx="91.5" cy="186.5" r="7.5"/><path class="cls-3" d="M145.4,79.42l1.18,9.93S104,93,99,93l-1-.12V83h1C116,83,145.4,79.42,145.4,79.42Z"/><circle class="cls-3" cx="145.89" cy="84.39" r="5" transform="translate(52.59 224.75) rotate(-86.43)"/><path class="cls-3" d="M56,135H66s-4-42,1-42h1V83H67C50,83,56,135,56,135Z"/><circle class="cls-3" cx="61" cy="135" r="5"/><rect class="cls-3" x="67" y="83" width="32" height="52"/><path class="cls-3" d="M82.93,78.61A12.8,12.8,0,1,1,95.76,65.79,12.79,12.79,0,0,1,82.93,78.61Z"/><circle class="cls-3" cx="93.5" cy="72.5" r="1.5"/></g><path class="cls-4" d="M164.73,186.84c-5.15,0-10.55-1-14.15-6.57-3.49-5.39-5.2-34-5.08-85V93a.5.5,0,0,1,1,0v2.26c-.14,63.3,2.6,80.87,4.92,84.46,4.38,6.76,11.85,6.3,17.84,5.93,1.33-.08,2.58-.16,3.74-.16a.5.5,0,0,1,0,1c-1.13,0-2.36.08-3.67.16C167.86,186.75,166.3,186.84,164.73,186.84Z"/><path class="cls-4" d="M170.24,65.53a2,2,0,0,0-1.53,1.27l-2.25.38-3.19-18.73c-6.19,1.05-12.67,9.39-12.69,18.9l-6.22,1.06-4.93.84a1,1,0,0,0-.82,1.15l.84,4.93,3.19,18.73a1,1,0,0,0,1.15.82l4.93-.84a1,1,0,0,0,.82-1.15l-3-17.74,5.24-.89c3.17,9,12,14.69,18.23,13.63L166.8,69.16l2.25-.38a2,2,0,1,0,1.19-3.25Z"/><rect class="cls-4" x="167" y="130" width="49" height="64" rx="1" ry="1"/><rect class="cls-5" x="170" y="133" width="43" height="39" rx="1" ry="1"/><path class="cls-5" d="M175,182.5h-3a.5.5,0,0,1,0-1h3a.5.5,0,0,1,0,1Z"/><path class="cls-5" d="M211,182.5H195a.5.5,0,0,1,0-1h16a.5.5,0,0,1,0,1Z"/><path class="cls-2" d="M210,149.18a2.59,2.59,0,0,1-.83,1.78l-.09.09-4.83,5.09a30.12,30.12,0,0,1-2.62,2.5,3.28,3.28,0,0,1-1.53.88,2.33,2.33,0,0,1-1.16-.44,2.22,2.22,0,0,1-.9-.91,7.14,7.14,0,0,1-.32-1.66,23,23,0,0,1-.15-2.74,2.09,2.09,0,0,1,.67-1.49,2,2,0,0,1,1.48-.68q.77,0,.92,1.41l0,.24a7.07,7.07,0,0,0,.29,1.52q.16.43.45.43a1,1,0,0,0,.44-.25,9.93,9.93,0,0,0,.77-.69l5-4.91a7.23,7.23,0,0,1,1.12-.95,1.62,1.62,0,0,1,.84-.32.39.39,0,0,1,.37.2,1.43,1.43,0,0,1,.11.66Z"/><path class="cls-3" d="M186.21,152a7.65,7.65,0,0,0-2.18.32v-6a1,1,0,0,0-.29-.71v-5.11a2.1,2.1,0,0,0,1.31-1.88c0-1.08.67-3-1.77-3.18l.44-.66a.15.15,0,0,0-.24-.16l-.31.47v-1a.15.15,0,0,0-.29,0v1.1l-.48-.48a.15.15,0,0,0-.21.21l.49.49c-2.35.17-1.7,2.1-1.7,3.18a2.1,2.1,0,0,0,1.31,1.88v5.11a1,1,0,0,0-.29.71v6a7.65,7.65,0,0,0-2.18-.32c-3.77,0-6.82,2.65-6.82,5.93a5.39,5.39,0,0,0,1.26,3.42,8,8,0,0,0,5.56,6.09V171H181v-3.25a10,10,0,0,0,3.77.06V171h1.16v-3.47a8,8,0,0,0,5.85-6.18,5.39,5.39,0,0,0,1.26-3.42C193,154.65,190,152,186.21,152Zm-1.6-15.38a.29.29,0,1,1-.29.29A.29.29,0,0,1,184.61,136.61Zm-3.48.29a.29.29,0,1,1,.29.29A.29.29,0,0,1,181.13,136.9Zm1.89,2.9a.14.14,0,0,1-.09,0l-1.45-1.16a.15.15,0,0,1,.18-.23l1.36,1.09,1.36-1.09a.15.15,0,0,1,.18.23l-1.45,1.16A.15.15,0,0,1,183,139.8Z"/><path class="cls-5" d="M89.95,38.56a4.19,4.19,0,0,1,.19-.76,1.87,1.87,0,0,1,.29-.51,2.5,2.5,0,0,1,.44-.41l.65-.47.6-.44a4.84,4.84,0,0,0,.56-.46,3,3,0,0,0,.45-.54,1.87,1.87,0,0,0,.26-.7,1.9,1.9,0,0,0-.24-1.4,1.71,1.71,0,0,0-1.22-.74,2,2,0,0,0-1.47.26,2.31,2.31,0,0,0-.9,1.21l-1.48-.43A3.69,3.69,0,0,1,88.75,32a3.06,3.06,0,0,1,.94-.76,3.55,3.55,0,0,1,1.17-.36,4.29,4.29,0,0,1,1.32,0,4.21,4.21,0,0,1,1.25.42,3.08,3.08,0,0,1,.94.75,2.65,2.65,0,0,1,.53,1.06,3.15,3.15,0,0,1,0,1.32,3,3,0,0,1-.33,1,3.62,3.62,0,0,1-.56.75,5,5,0,0,1-.74.61l-.84.57a5.88,5.88,0,0,0-.5.36,1.46,1.46,0,0,0-.31.34,1.59,1.59,0,0,0-.19.42,6,6,0,0,0-.13.59l-.14.77-1.41-.25Zm.27,2.58A1,1,0,0,1,91,42.32a1,1,0,0,1-.44.66,1,1,0,0,1-1.39-.24A1,1,0,0,1,89,42a1,1,0,0,1,1.18-.83Z"/><path class="cls-3" d="M386.73,50.16a22.42,22.42,0,0,1-2.27.12A21.84,21.84,0,0,1,377.07,49a21.93,21.93,0,0,1-18.15,3.3,21.93,21.93,0,0,1-27.39-3.09,22.11,22.11,0,0,1-2.6.16,21.73,21.73,0,0,1-9.1-2,21.8,21.8,0,0,1-2.94,1.09c6.72,16.87,10.67,37.38,10.67,59.5,0,35.72-10.28,67.24-26,86H402.66c-15.67-18.78-26-50.3-26-86C376.71,86.59,380.4,66.7,386.73,50.16Z"/><path class="cls-4" d="M248.2,1a21,21,0,0,0,12.24,10.8A21,21,0,0,0,276.66,27,20.94,20.94,0,0,0,292.77,38.2a20.95,20.95,0,0,0,27.05,8.09,20.85,20.85,0,0,0,9.1,2.08,21.09,21.09,0,0,0,3-.21,20.92,20.92,0,0,0,26.85,3.07,20.93,20.93,0,0,0,18.17-3.35,20.93,20.93,0,0,0,24.25-6.93,21.13,21.13,0,0,0,2.4.14,20.93,20.93,0,0,0,18.3-10.76,21,21,0,0,0,13.08-10.65,21,21,0,0,0,8-7.16A21,21,0,0,0,457.93,1Z"/><polyline class="cls-5" points="289.91 24.51 268.38 34.03 288.23 30.69 275.45 43.72 294.62 30.97"/><path class="cls-4" d="M295.5,23a4.44,4.44,0,0,0-.56.06,4.44,4.44,0,0,0,.06-.56,4.5,4.5,0,1,0-4.5,4.5,4.44,4.44,0,0,0,.56-.06,4.44,4.44,0,0,0-.06.56,4.5,4.5,0,1,0,4.5-4.5Z"/><path class="cls-2" d="M238.58,39.26h.56a18,18,0,0,1,3.4,2.87q1.87,1.94,1.87,2.64a.82.82,0,0,1-.19.41q-.19.27-.36.26t-.58-.41a18.69,18.69,0,0,0-1.81-1.76,17.94,17.94,0,0,0-2.25-1.74l.24,12.75a2.41,2.41,0,0,1-.66,1.79,6.31,6.31,0,0,1-2,1.22,7,7,0,0,1-2.7.56,4.15,4.15,0,0,1-2.81-.9,2.74,2.74,0,0,1-1-2.13,3.19,3.19,0,0,1,1.51-2.59,5.67,5.67,0,0,1,3.46-1.11,8.74,8.74,0,0,1,3.67.87Z"/><path class="cls-2" d="M248.5,49a.5.5,0,0,1-.18-1l13-5a.5.5,0,1,1,.36.93l-13,5A.51.51,0,0,1,248.5,49Z"/></g></svg>