<svg xmlns="http://www.w3.org/2000/svg" viewBox="0 0 480 200"><defs><style>.cls-1{fill:#d9c8a9;}.cls-2{fill:#468c65;}.cls-3{fill:#385c5f;}.cls-4{fill:#5c2020;}.cls-5{fill:#4b7b7f;}.cls-6{fill:#8c7c5e;}</style></defs><title>ble_bootloader</title><g id="Background"><rect class="cls-1" width="480" height="200"/></g><g id="Layer_1" data-name="Layer 1"><g id="Person_WTF" data-name="Person WTF"><path class="cls-2" d="M226.93,79.61a12.8,12.8,0,1,1,12.83-12.82A12.79,12.79,0,0,1,226.93,79.61Z"/><path class="cls-3" d="M239.41,63.65l.12-.92c.62-5,5.1-8.5-7.87-10.14l-5.81-.73c-13-1.63-9.51,2.92-10.14,7.87l-.12.92Z"/><path class="cls-3" d="M239.66,68.23l-19.75-2c.09-.11.17-.23.27-.34-3.41-.66-4.56-1.82-6.65-1.23-3.1,1.92,0,11.15,2.92,10.62,2.75-.49,2.53-.3,3.59-.87l-.28-.57,18.28-.17a.5.5,0,0,0,0-1h0l-18.71.18a6.44,6.44,0,0,1,0-5.67l20.27,2.07h.05a.5.5,0,0,0,.05-1Z"/><polygon class="cls-2" points="226 176 226 139.93 211 142.39 211 176 226 176"/><path class="cls-2" d="M233.29,176a6.53,6.53,0,0,1,6.21-5H243V148.23A6,6,0,0,1,237.47,138l1.58-1.2,0,0-5.39,1.92-5.62.92V176Z"/><path class="cls-2" d="M228,186v2h0A7.49,7.49,0,0,0,243,188h0v-2Z"/><path class="cls-2" d="M216,186l-.33,1.65a4.94,4.94,0,0,1-.07,6.77A7.49,7.49,0,0,0,226,188h0v-2Z"/><path class="cls-2" d="M179.68,80.59s8.07,33.83,16.16,32.83C201.67,112.7,204.5,93.75,211,94v24.47l15.39-2.6L243,110V94c4-.15,6.61,6.95,9.38,12.61l15.46-5.51a164.62,164.62,0,0,0,6.48-20.51h0a5,5,0,1,0-9.71-2.19h0A164.58,164.58,0,0,1,259,95.73C255.83,90.39,250.73,85,243,84H211c-7.73,1-12.83,6.39-16,11.73a164.58,164.58,0,0,1-5.53-17.35h0a5,5,0,0,0-.47-1.31,5,5,0,0,0-9.24,3.5Z"/></g><path class="cls-4" d="M297.35,156.23a18.83,18.83,0,0,1-6.85-1.3c-9.87-3.82-17-15.55-21.16-24.72a120.82,120.82,0,0,1-6.82-19.09l1-.24c.09.36,9,36,27.37,43.12,6.22,2.41,12.91,1.26,19.87-3.41,19.7-13.23,20-54.3,20.22-84.29.16-21.94.28-37.8,7.06-37.8,8.71,0,9.53,27.32,9.7,63,.09,18.43.18,39.32,3.3,39.32a3.31,3.31,0,0,0,2.31-1.18c3-3.11,5.81-12.06,7.77-25.19A230.3,230.3,0,0,0,363.5,68l1,0c.43,21.15-3.35,55.12-10.48,62.4a4.26,4.26,0,0,1-3,1.48c-3.92,0-4.18-14.57-4.3-40.32-.13-27.64-.29-62-8.7-62-5.79,0-5.91,17.06-6.06,36.81-.22,30.21-.53,71.58-20.66,85.11C306.51,154.62,301.84,156.23,297.35,156.23Z"/><g id="PatientInBed"><g id="HospitalBed"><path class="cls-5" d="M214.6,188l.4-2h-6l.4,2a4,4,0,1,0,5.21,0Z"/><path class="cls-5" d="M294.6,188l.4-2h-6l.4,2a4,4,0,1,0,5.21,0Z"/><path class="cls-5" d="M321.41,112.44l-.32-2a1.5,1.5,0,0,0-1.72-1.24l-37.54,6-49.59,17.68-60.57,9.83a1.5,1.5,0,0,0-1.24,1.72l.32,2a1.5,1.5,0,0,0,1.72,1.24l60.89-10,6.25-2.23.27.78a1,1,0,0,0,1.27.61l4.83-1.69V172h-6.5a5.66,5.66,0,0,0-5.4,5H210a3.25,3.25,0,0,0-3,3.43V185h90v-4.57a3.25,3.25,0,0,0-3-3.43H269.9a5.66,5.66,0,0,0-5.4-5H258V131l5.82-2a1,1,0,0,0,.61-1.27l-.32-.93,18.44-6.57,37.61-6A1.5,1.5,0,0,0,321.41,112.44Z"/></g><path class="cls-6" d="M285.06,101a12.8,12.8,0,1,1,16.39,7.78A12.79,12.79,0,0,1,285.06,101Z"/><path class="cls-6" d="M284.15,112.27l-5-14.13-49,17.46-3.49,1.24-46.26,7.81v0a7.49,7.49,0,0,0,2.48,14.74v0l48-8.08,5.26-2,24.11-8.6c-9.08,8.25-22.08,17.94-22.08,17.94a5,5,0,1,0,6.71,7.41s23.9-17.09,31.09-31Z"/></g><g id="IV"><circle class="cls-5" cx="328" cy="192" r="3"/><circle class="cls-5" cx="374" cy="192" r="3"/><path class="cls-5" d="M376.05,187H352V39l.9-9h8.28A3,3,0,0,0,364,32c1.66,0,3-1.34,3-4h-2c0,1.55-.45,2-1,2a1,1,0,0,1-1-1V28H339v1a1,1,0,0,1-1,1c-.55,0-1-.45-1-2h-2c0,2.66,1.34,4,3,4a3,3,0,0,0,2.82-2h8.28l.9,9V187H325.95A3,3,0,0,0,323,190v1h1.67a3.48,3.48,0,0,1,6.65,0h39.35a3.48,3.48,0,0,1,6.65,0H379v-1A3,3,0,0,0,376.05,187Z"/><rect class="cls-5" x="363" y="67" width="2" height="2"/><path class="cls-4" d="M358,50.07V65.16a2.09,2.09,0,0,0,2.15,2h7.69a2.09,2.09,0,0,0,2.15-2V50.75C364.45,51.76,363.55,49.06,358,50.07Zm5,4.43a1.5,1.5,0,1,1,1.5,1.5A1.5,1.5,0,0,1,363,54.5Zm2,10a.5.5,0,1,1,.5-.5A.5.5,0,0,1,365,64.5Zm1-3.5a1,1,0,1,1,1-1A1,1,0,0,1,366,61Z"/><path class="cls-5" d="M368.5,40.5h-9a2,2,0,0,0-2,2v23a2,2,0,0,0,2,2h9a2,2,0,0,0,2-2v-23A2,2,0,0,0,368.5,40.5Zm1.07,24.25a2,2,0,0,1-2,2h-7.14a2,2,0,0,1-2-2V43.25a2,2,0,0,1,2-2h7.14a2,2,0,0,1,2,2Z"/><polygon class="cls-5" points="365.5 32.46 364.57 32.82 366.93 39 361.06 39 364.16 30.88 363.23 30.52 360 39 360 40 368 40 368 39 365.5 32.46"/></g><g id="ProductCart"><rect class="cls-5" x="399.42" y="129" width="2.84" height="57.48"/><rect class="cls-5" x="398" y="187.9" width="2.84" height="7.1" rx="1" ry="1"/><rect class="cls-5" x="400.84" y="187.9" width="2.84" height="7.1" rx="1" ry="1"/><rect class="cls-5" x="445.94" y="129" width="2.84" height="57.48"/><rect class="cls-5" x="444.52" y="187.9" width="2.84" height="7.1" rx="1" ry="1"/><rect class="cls-5" x="447.36" y="187.9" width="2.84" height="7.1" rx="1" ry="1"/><rect class="cls-5" x="423.39" y="113.52" width="1.42" height="42.26" transform="translate(558.75 -289.45) rotate(90)"/><rect class="cls-5" x="423.39" y="141.92" width="1.42" height="42.26" transform="translate(587.15 -261.05) rotate(90)"/></g><g id="Computer"><rect class="cls-5" x="401.5" y="91" width="45" height="28" rx="1" ry="1"/><path class="cls-5" d="M438.5,130h-29a1,1,0,0,0-1,1v2h31v-2A1,1,0,0,0,438.5,130Z"/><rect class="cls-5" x="422" y="120" width="4" height="9"/><rect class="cls-3" x="403" y="92.5" width="42" height="25" rx="1" ry="1"/><path class="cls-1" d="M404.7,96.67a6.22,6.22,0,0,1,.93-.07A1.94,1.94,0,0,1,407,97a1.56,1.56,0,0,1,.48,1.21,1.78,1.78,0,0,1-.49,1.31,2.07,2.07,0,0,1-1.49.49,7,7,0,0,1-.79,0Zm.43,3a2.76,2.76,0,0,0,.44,0A1.3,1.3,0,0,0,407,98.25a1.2,1.2,0,0,0-1.37-1.3,2.46,2.46,0,0,0-.51,0Z"/><path class="cls-1" d="M410.91,98.28a1.58,1.58,0,0,1-1.57,1.78,1.55,1.55,0,0,1-1.52-1.71,1.6,1.6,0,0,1,1.57-1.77A1.54,1.54,0,0,1,410.91,98.28Zm-2.62.06c0,.72.39,1.37,1.08,1.37s1.08-.64,1.08-1.4-.35-1.37-1.08-1.37S408.3,97.59,408.3,98.33Z"/><path class="cls-1" d="M412.54,100V96.63H413l1.08,1.71a9.38,9.38,0,0,1,.61,1.1h0c0-.45,0-.86,0-1.39V96.63h.41V100h-.44l-1.07-1.71a10.62,10.62,0,0,1-.63-1.13h0c0,.43,0,.83,0,1.39V100Z"/><path class="cls-1" d="M418.71,98.28a1.58,1.58,0,0,1-1.57,1.78,1.55,1.55,0,0,1-1.52-1.71,1.6,1.6,0,0,1,1.57-1.77A1.54,1.54,0,0,1,418.71,98.28Zm-2.62.06c0,.72.39,1.37,1.08,1.37s1.08-.64,1.08-1.4-.35-1.37-1.08-1.37S416.09,97.59,416.09,98.33Z"/><path class="cls-1" d="M419.79,97h-1v-.37h2.5V97h-1v3h-.44Z"/><path class="cls-1" d="M423.13,97h-1v-.37h2.5V97h-1v3h-.44Z"/><path class="cls-1" d="M425.41,96.63v2c0,.76.34,1.08.79,1.08s.82-.33.82-1.08v-2h.44v2c0,1-.55,1.46-1.28,1.46s-1.21-.4-1.21-1.44v-2Z"/><path class="cls-1" d="M428.21,96.67a4.55,4.55,0,0,1,.84-.07,1.38,1.38,0,0,1,1,.28.84.84,0,0,1,.26.64.89.89,0,0,1-.64.86v0a.84.84,0,0,1,.5.68,5.48,5.48,0,0,0,.26.93H430a4.44,4.44,0,0,1-.23-.81c-.1-.47-.28-.64-.67-.66h-.41V100h-.44Zm.44,1.54h.45c.47,0,.76-.25.76-.64s-.32-.63-.78-.63a1.8,1.8,0,0,0-.43,0Z"/><path class="cls-1" d="M430.89,100V96.63h.48l1.08,1.71a9.38,9.38,0,0,1,.61,1.1h0c0-.45,0-.86,0-1.39V96.63h.41V100H433l-1.07-1.71a10.62,10.62,0,0,1-.63-1.13h0c0,.43,0,.83,0,1.39V100Z"/><path class="cls-1" d="M438.13,98.28a1.58,1.58,0,0,1-1.57,1.78A1.55,1.55,0,0,1,435,98.34a1.6,1.6,0,0,1,1.57-1.77A1.54,1.54,0,0,1,438.13,98.28Zm-2.62.06c0,.72.39,1.37,1.08,1.37s1.08-.64,1.08-1.4-.35-1.37-1.08-1.37S435.51,97.59,435.51,98.33Z"/><path class="cls-1" d="M438.69,96.63h1.82V97h-1.38v1.12h1.28v.36h-1.28V100h-.44Z"/><path class="cls-1" d="M441.13,96.63h1.82V97h-1.38v1.12h1.28v.36h-1.28V100h-.44Z"/><path class="cls-1" d="M405.93,106v-1.43l-1.07-1.94h.5l.48.93c.13.25.23.46.33.7h0c.1-.22.21-.44.34-.7l.49-.93h.5l-1.13,1.94V106Z"/><path class="cls-1" d="M410.59,104.28a1.58,1.58,0,0,1-1.57,1.78,1.55,1.55,0,0,1-1.52-1.71,1.6,1.6,0,0,1,1.57-1.77A1.54,1.54,0,0,1,410.59,104.28Zm-2.62.06c0,.72.39,1.37,1.08,1.37s1.08-.63,1.08-1.4-.35-1.37-1.08-1.37S408,103.59,408,104.33Z"/><path class="cls-1" d="M411.59,102.63v2c0,.76.34,1.08.79,1.08s.82-.33.82-1.08v-2h.44v2c0,1-.54,1.46-1.28,1.46s-1.21-.39-1.21-1.44v-2Z"/><path class="cls-1" d="M414.39,102.67a4.53,4.53,0,0,1,.83-.07,1.38,1.38,0,0,1,1,.28.84.84,0,0,1,.26.64.89.89,0,0,1-.63.86h0a.84.84,0,0,1,.5.68,5.46,5.46,0,0,0,.26.93h-.45a4.39,4.39,0,0,1-.22-.81c-.1-.47-.28-.64-.68-.66h-.41V106h-.43Zm.43,1.54h.45c.46,0,.76-.25.76-.64s-.31-.63-.78-.63a1.84,1.84,0,0,0-.43,0Z"/><path class="cls-1" d="M420.5,105.89a2.16,2.16,0,0,1-.89.16,1.58,1.58,0,0,1-1.67-1.71,1.68,1.68,0,0,1,1.76-1.77,1.81,1.81,0,0,1,.8.15l-.1.36a1.59,1.59,0,0,0-.68-.14,1.25,1.25,0,0,0-1.32,1.39,1.23,1.23,0,0,0,1.3,1.36,1.74,1.74,0,0,0,.71-.14Z"/><path class="cls-1" d="M423.82,104.28a1.58,1.58,0,0,1-1.57,1.78,1.55,1.55,0,0,1-1.52-1.71,1.6,1.6,0,0,1,1.57-1.77A1.54,1.54,0,0,1,423.82,104.28Zm-2.62.06c0,.72.39,1.37,1.08,1.37s1.08-.63,1.08-1.4-.35-1.37-1.08-1.37S421.2,103.59,421.2,104.33Z"/><path class="cls-1" d="M427.22,104.52c0-.47-.06-1-.05-1.46h0c-.12.39-.25.82-.43,1.28l-.6,1.64h-.33l-.55-1.61c-.16-.47-.29-.91-.39-1.31h0c0,.42,0,1-.06,1.49L424.7,106h-.42l.24-3.37h.56l.58,1.63c.14.42.26.79.34,1.14h0c.08-.34.21-.71.36-1.14l.6-1.63h.56l.21,3.37h-.42Z"/><path class="cls-1" d="M428.4,102.67a5,5,0,0,1,.83-.07,1.38,1.38,0,0,1,.95.28.91.91,0,0,1,.29.71,1,1,0,0,1-.26.72,1.4,1.4,0,0,1-1,.37,1.48,1.48,0,0,1-.35,0V106h-.43Zm.43,1.63a1.45,1.45,0,0,0,.36,0c.53,0,.85-.25.85-.72s-.31-.66-.79-.66a1.8,1.8,0,0,0-.41,0Z"/><path class="cls-1" d="M431.49,102.63v2c0,.76.34,1.08.79,1.08s.82-.33.82-1.08v-2h.44v2c0,1-.55,1.46-1.28,1.46s-1.21-.39-1.21-1.44v-2Z"/><path class="cls-1" d="M434.93,103h-1v-.37h2.5V103h-1v3h-.44Z"/><path class="cls-1" d="M438.52,104.42h-1.31v1.22h1.46V106h-1.9v-3.37h1.82V103h-1.39v1.07h1.31Z"/><path class="cls-1" d="M439.24,102.67a4.53,4.53,0,0,1,.83-.07,1.38,1.38,0,0,1,1,.28.84.84,0,0,1,.26.64.89.89,0,0,1-.63.86h0a.84.84,0,0,1,.5.68,5.46,5.46,0,0,0,.26.93H441a4.39,4.39,0,0,1-.22-.81c-.1-.47-.28-.64-.68-.66h-.41V106h-.43Zm.43,1.54h.45c.46,0,.76-.25.76-.64s-.31-.63-.78-.63a1.84,1.84,0,0,0-.43,0Z"/><path class="cls-1" d="M441.83,105.74a.29.29,0,0,1,.29-.31.31.31,0,0,1,0,.62A.29.29,0,0,1,441.83,105.74ZM442,105l-.07-2.4h.48l-.07,2.4Z"/><path class="cls-1" d="M420.84,110.42h0l-.79.43-.12-.47,1-.53h.53v4.55h-.59Z"/><path class="cls-1" d="M425.14,111.13c0,1-.5,1.44-1.09,1.44s-1.06-.46-1.06-1.37.5-1.42,1.1-1.42S425.14,110.26,425.14,111.13Zm-1.67,0c0,.58.2,1,.59,1s.59-.43.59-1-.16-1-.59-1S423.47,110.6,423.47,111.17Zm.53,3.3,2.68-4.71h.39l-2.68,4.71Zm4.1-1.46c0,1-.5,1.44-1.09,1.44S426,114,426,113.08s.5-1.43,1.1-1.43S428.1,112.14,428.1,113Zm-1.67,0c0,.58.22,1,.59,1s.59-.43.59-1-.16-1-.59-1S426.44,112.48,426.44,113.05Z"/></g><path class="cls-5" d="M161,72l-60,2a8,8,0,0,1-8-8V28a8,8,0,0,1,8-8l61,2a8,8,0,0,1,8,8l-1,34A8,8,0,0,1,161,72Z"/><path class="cls-5" d="M26,3v7a4,4,0,0,0,4,4H75a4,4,0,0,0,4-4V3Z"/><path class="cls-5" d="M52,45a6,6,0,0,1,3,.81V15H49V45.81A6,6,0,0,1,52,45Z"/><circle class="cls-5" cx="52" cy="51" r="5"/><path class="cls-5" d="M58.17,51a6,6,0,0,0-.88-3.11l34.38-.73.2,7.69-34.58-.74A6,6,0,0,0,58.17,51Z"/><polygon class="cls-3" points="164 68 98 70 98 24 165 26 164 68"/><path class="cls-1" d="M109.23,34.4a3.53,3.53,0,0,1-3.79,3.79,3.64,3.64,0,0,1-3.72-3.83,3.57,3.57,0,0,1,3.84-3.78A3.62,3.62,0,0,1,109.23,34.4Zm-6.36,0a2.8,2.8,0,0,0,2.63,3c1.68,0,2.62-1.33,2.62-3a2.81,2.81,0,0,0-2.61-3.06C103.75,31.3,102.87,32.74,102.87,34.36Z"/><path class="cls-1" d="M110.44,37a4,4,0,0,0,1.86.51c1.06,0,1.67-.47,1.67-1.21s-.43-1.07-1.5-1.48c-1.31-.45-2.12-1.09-2.12-2.12s1-1.95,2.6-1.9a4,4,0,0,1,1.76.41l-.28.75a3.49,3.49,0,0,0-1.51-.39c-1.09,0-1.51.55-1.51,1,0,.68.49,1,1.59,1.44,1.35.51,2,1.11,2,2.18s-.91,2.07-2.79,2a4.55,4.55,0,0,1-2.05-.5Z"/><path class="cls-1" d="M119.88,31.14v4.24c0,1.61.77,2.3,1.81,2.32s1.87-.66,1.87-2.24V31.25l1,0v4.14c0,2.18-1.24,3.06-2.91,3s-2.79-.89-2.79-3.12V31.11Z"/><path class="cls-1" d="M126.27,31.42a12,12,0,0,1,1.88-.08,3.31,3.31,0,0,1,2.11.65,1.89,1.89,0,0,1,.65,1.49,2,2,0,0,1-.58,1.49,3.18,3.18,0,0,1-2.3.72,3.63,3.63,0,0,1-.79-.08v2.83l-1,0Zm1,3.44a3.51,3.51,0,0,0,.81.09c1.17,0,1.89-.49,1.89-1.46s-.7-1.4-1.77-1.43a4.35,4.35,0,0,0-.92,0Z"/><path class="cls-1" d="M137.79,38.31a7,7,0,0,1-2.24.34,4,4,0,0,1-2.75-1,3.56,3.56,0,0,1-1-2.63c0-2.09,1.53-3.57,4-3.5a4.79,4.79,0,0,1,1.82.37l-.23.72a4,4,0,0,0-1.61-.35,2.6,2.6,0,0,0-3,2.73,2.69,2.69,0,0,0,2.84,2.88,3.2,3.2,0,0,0,1.26-.16V35.68l-1.49,0v-.72l2.41.06Z"/><path class="cls-1" d="M139.22,31.83a10,10,0,0,1,1.79-.09,3.08,3.08,0,0,1,2.07.62,1.73,1.73,0,0,1,.56,1.32,1.76,1.76,0,0,1-1.34,1.72v0a1.77,1.77,0,0,1,1,1.41,10.75,10.75,0,0,0,.55,1.89l-.95,0a8.76,8.76,0,0,1-.48-1.65c-.21-1-.59-1.32-1.43-1.37l-.87,0v3l-.93,0Zm.93,3.17.95,0c1,0,1.61-.48,1.61-1.26s-.67-1.29-1.64-1.33a4,4,0,0,0-.92.05Z"/><path class="cls-1" d="M146.12,36.62l-.73,2.13-.94,0L146.84,32l1.09,0,2.37,6.83-1,0-.74-2.15Zm2.3-.64-.68-2c-.16-.45-.26-.85-.36-1.25h0c-.1.4-.22.81-.35,1.22l-.69,2Z"/><path class="cls-1" d="M151.31,32.19a12.81,12.81,0,0,1,1.88-.08A4,4,0,0,1,156,33a3.14,3.14,0,0,1,1,2.42,3.44,3.44,0,0,1-1,2.57,4.17,4.17,0,0,1-3,.91,14.61,14.61,0,0,1-1.61-.11Zm.89,6a5.72,5.72,0,0,0,.9.07,2.54,2.54,0,0,0,2.9-2.78c0-1.58-.89-2.6-2.75-2.66a5.07,5.07,0,0,0-1,.06Z"/><path class="cls-1" d="M161.48,35.93l-2.58-.06v2.39l2.88.05V39L158,39V32.31l3.6.11v.72l-2.73-.08v2.1l2.58.06Z"/><path class="cls-1" d="M103,43.88a13.75,13.75,0,0,1,2-.13,3.65,3.65,0,0,1,2.3.63,1.89,1.89,0,0,1,.71,1.54,2,2,0,0,1-.63,1.57,3.63,3.63,0,0,1-2.5.81,4.11,4.11,0,0,1-.86-.06v3H103Zm1.07,3.57a4,4,0,0,0,.88.08c1.28,0,2.06-.56,2.06-1.57s-.76-1.44-1.93-1.45a5,5,0,0,0-1,.07Z"/><path class="cls-1" d="M109.45,43.84h1v6.51l3.42,0v.79l-4.47,0Z"/><path class="cls-1" d="M119.13,47.71h-3.05v2.6l3.4,0v.78l-4.42,0V43.87l4.25,0v.78l-3.23,0v2.28h3.05Z"/><path class="cls-1" d="M122,48.81l-.8,2.25h-1l2.63-7.15H124l2.6,7.1h-1l-.81-2.23Zm2.52-.72-.75-2c-.17-.47-.28-.89-.4-1.3h0c-.11.42-.24.86-.39,1.29l-.75,2.06Z"/><path class="cls-1" d="M127.6,49.91a3.61,3.61,0,0,0,1.74.45c1,0,1.57-.5,1.57-1.21s-.4-1-1.41-1.39c-1.23-.41-2-1-2-2s1-1.91,2.43-1.9a3.58,3.58,0,0,1,1.65.35l-.26.74a3.14,3.14,0,0,0-1.42-.34c-1,0-1.42.57-1.42,1,0,.66.46,1,1.49,1.36,1.26.46,1.9,1,1.9,2.06s-.85,2-2.62,2a4.09,4.09,0,0,1-1.92-.44Z"/><path class="cls-1" d="M137,47.7h-2.85v2.52l3.17,0V51l-4.13,0V44l4,0v.75l-3,0V47H137Z"/><path class="cls-1" d="M141.6,50.92,139.78,44h1l.85,3.48c.21.86.4,1.71.53,2.37h0c.12-.68.34-1.5.58-2.38l1-3.45h1l.86,3.47c.2.81.39,1.62.49,2.34h0c.15-.75.34-1.51.56-2.36l.93-3.43h.92l-2,6.8h-1l-.89-3.55a20.26,20.26,0,0,1-.46-2.23h0a20.64,20.64,0,0,1-.55,2.23l-1,3.57Z"/><path class="cls-1" d="M149.84,48.74l-.72,2.13h-.93l2.36-6.77h1.07L154,50.84H153l-.73-2.11Zm2.26-.69-.67-1.94c-.15-.44-.25-.84-.36-1.23h0c-.1.4-.21.81-.35,1.22l-.68,2Z"/><path class="cls-1" d="M155.83,44.14v6.68H155v-6.7Z"/><path class="cls-1" d="M158.62,44.89h-2v-.73l4.94,0v.73h-2V50.8h-.87Z"/><path class="cls-1" d="M127,62.56a3.39,3.39,0,0,0,1.61.38c1.26,0,1.65-.8,1.64-1.36,0-.95-.92-1.33-1.87-1.31h-.55v-.69h.55c.71,0,1.62-.38,1.62-1.19,0-.54-.37-1-1.27-1a2.85,2.85,0,0,0-1.46.48L127,57.2a3.69,3.69,0,0,1,1.9-.56c1.42,0,2.07.75,2.07,1.58a1.75,1.75,0,0,1-1.33,1.63v0a1.75,1.75,0,0,1,1.61,1.7c0,1.08-.9,2.06-2.63,2.11a3.82,3.82,0,0,1-1.9-.4Z"/><path class="cls-1" d="M135.65,58.53c0,1.41-.78,2.14-1.7,2.16s-1.66-.63-1.67-2,.78-2.12,1.72-2.14S135.65,57.25,135.65,58.53Zm-2.6.12c0,.86.32,1.51.92,1.49s.92-.66.92-1.55-.25-1.49-.92-1.48S133.05,57.8,133.05,58.65Zm.83,4.87,4.15-7h.6l-4.14,7Zm6.33-2.34c0,1.4-.77,2.12-1.66,2.15s-1.63-.62-1.64-2,.77-2.12,1.69-2.14S140.21,59.91,140.21,61.18Zm-2.55.13c0,.85.33,1.49.92,1.47s.9-.66.9-1.54-.25-1.48-.9-1.46S137.66,60.47,137.66,61.31Z"/><rect class="cls-5" x="428" y="138" width="15" height="23"/><path class="cls-1" d="M436.5,160a.5.5,0,0,1-.5-.5v-8a.5.5,0,0,1,1,0v8A.5.5,0,0,1,436.5,160Z"/><path class="cls-1" d="M438.5,160a.5.5,0,0,1-.5-.5v-8a.5.5,0,0,1,1,0v8A.5.5,0,0,1,438.5,160Z"/><path class="cls-1" d="M440.5,160a.5.5,0,0,1-.5-.5v-8a.5.5,0,0,1,1,0v8A.5.5,0,0,1,440.5,160Z"/><rect class="cls-2" x="430" y="140" width="3" height="2"/><circle class="cls-5" cx="91" cy="192" r="3"/><circle class="cls-5" cx="131" cy="192" r="3"/><path class="cls-5" d="M133.05,187H114V141h-6v46H88.95A3,3,0,0,0,86,190v1h1.67a3.48,3.48,0,0,1,6.65,0h33.35a3.48,3.48,0,0,1,6.65,0H136v-1A3,3,0,0,0,133.05,187Z"/><rect class="cls-5" x="91" y="100" width="40" height="41" rx="4" ry="4"/><rect class="cls-3" x="93" y="102" width="36" height="30" rx="4" ry="4"/><rect class="cls-1" x="110" y="135" width="14" height="2"/><path class="cls-6" d="M122.84,166.67h-12S113,136,110.89,136h12C125.44,136,122.84,166.67,122.84,166.67Z"/><path class="cls-3" d="M120.21,166.67h-.5c0-.21,0-1.07.07-1.51-5.7,0-5.7-.53-5.7-.77,0-.42.5-.48,3-.57,1.4-.05,4-.15,4.24-.5-.13-.26-1.91-.48-2.87-.59-1.93-.24-2.86-.37-2.86-.93s1-.72,3.13-1.08c1.18-.2,3.62-.61,3.63-1-.24-.35-3-.37-4.7-.38-3.13,0-4.14-.08-4.14-.65s1-.68,3.67-.79a14.43,14.43,0,0,0,3.05-.29,14.57,14.57,0,0,0-2.93-.62c-2-.32-2.76-.45-2.75-.9s.78-.63,3.85-1.1c.83-.13,1.87-.29,2.48-.43-.37,0-.88-.08-1.3-.1-1.9-.11-3-.21-3-.81a.44.44,0,0,1,.13-.32c.28-.29,1-.31,2.09-.32a9.61,9.61,0,0,0,1.32-.06,24.61,24.61,0,0,0-2.91-1c-2.93-.86-3.72-1.15-3.71-1.62s.86-.61,4.25-.79a31.28,31.28,0,0,0,3.33-.28,13,13,0,0,0-1.54-.2c-1.54-.14-2.41-.25-2.41-.81s.78-1,1.61-1.45a8,8,0,0,0,.9-.56,28.55,28.55,0,0,0-2.95-.49c-3.38-.47-4.24-.65-4.24-1.14s.76-.7,6.12-1.35c.78-.1,1.63-.2,2.2-.28l-1.14-.36c-2.12-.64-2.47-.8-2.5-1.1s.41-.49,1.71-.78c.34-.07.78-.17,1.09-.26-.54-.12-1.52-.25-2.23-.34-2.42-.32-2.67-.39-2.66-.74s.3-.42,2.39-.79c.46-.08,1-.18,1.41-.27l-.25-.08c-.75-.23-1.47-.44-1.47-.93s.69-.53,1.35-.54h.3c-.47-.05-1.16-.14-1.17-.81h.5c0,.2.23.26.74.32s.84.1.86.5a.37.37,0,0,1-.1.28c-.18.2-.54.21-1.12.22a3.93,3.93,0,0,0-.83.06,4.26,4.26,0,0,0,1.08.42c.61.18.94.28,1,.57s-.28.41-2.18.75c-.45.08-1.05.19-1.49.29.48.08,1.17.18,1.73.25,2.61.35,3,.45,3,.81s-.52.5-1.8.78c-.35.08-.82.18-1.11.27.44.18,1.31.45,1.94.64,1.85.56,2,.64,2,.92s0,.31-3.15.7a46.37,46.37,0,0,0-5.51.86,28.86,28.86,0,0,0,3.64.64c3.06.42,3.49.54,3.47.93s-.43.6-1.24,1.06c-.44.25-1.36.78-1.36,1a7.85,7.85,0,0,0,2,.31c1.34.13,2.22.21,2.21.74s-.82.57-4,.74a26.39,26.39,0,0,0-3.66.33,23,23,0,0,0,3.24,1.09c2.72.79,3.41,1,3.41,1.47s-.78.53-2,.53a6.69,6.69,0,0,0-1.68.13,10.22,10.22,0,0,0,2.47.32c1.63.1,2.2.15,2.2.57s-.4.5-3.33,1a28.45,28.45,0,0,0-3.25.61,19.24,19.24,0,0,0,2.16.41c2.42.38,3.4.58,3.39,1.16s-1,.65-3.57.75a17.88,17.88,0,0,0-3.05.27,23.91,23.91,0,0,0,3.5.17c2.83,0,4.59.07,5.05.55a.47.47,0,0,1,.14.34c0,.75-1.54,1.06-4,1.48a13.3,13.3,0,0,0-2.66.59,10.81,10.81,0,0,0,2.37.43c2,.25,3.3.44,3.3,1.12s-1.44.84-4.71,1c-.69,0-1.48.06-2,.11a42.88,42.88,0,0,0,4.93.24h.26l0,.26S120.21,166.4,120.21,166.67Z"/><circle class="cls-6" cx="97" cy="136" r="2"/><circle class="cls-6" cx="104" cy="136" r="2"/><path class="cls-1" d="M101.66,104v2.39c0,.9.4,1.29.94,1.29s1-.4,1-1.29V104h.53v2.36c0,1.24-.65,1.75-1.53,1.75s-1.45-.47-1.45-1.73V104Z"/><path class="cls-1" d="M105,104a6.14,6.14,0,0,1,1-.08,1.67,1.67,0,0,1,1.13.34,1.09,1.09,0,0,1,.35.85,1.19,1.19,0,0,1-.31.86,1.67,1.67,0,0,1-1.24.44,1.83,1.83,0,0,1-.42,0V108H105Zm.52,1.95a1.74,1.74,0,0,0,.43,0c.63,0,1-.31,1-.86s-.38-.79-1-.79a2.16,2.16,0,0,0-.49,0Z"/><path class="cls-1" d="M108.22,104a7.62,7.62,0,0,1,1.11-.08,2.31,2.31,0,0,1,1.64.5,1.86,1.86,0,0,1,.57,1.45,2.14,2.14,0,0,1-.58,1.57,2.49,2.49,0,0,1-1.79.58,8.58,8.58,0,0,1-.95,0Zm.52,3.57a3.24,3.24,0,0,0,.53,0A1.55,1.55,0,0,0,111,105.9a1.44,1.44,0,0,0-1.64-1.56,2.93,2.93,0,0,0-.61.05Z"/><path class="cls-1" d="M112.78,106.73l-.42,1.27h-.54l1.37-4h.63l1.38,4h-.56l-.43-1.27Zm1.33-.41-.4-1.16c-.09-.26-.15-.5-.21-.74h0c-.06.24-.13.49-.2.73l-.4,1.17Z"/><path class="cls-1" d="M116.11,104.4h-1.23V104h3v.44h-1.24V108h-.53Z"/><path class="cls-1" d="M120.41,106.11h-1.57v1.46h1.75V108h-2.27v-4h2.18v.44h-1.66v1.28h1.57Z"/><path class="cls-1" d="M102.74,111.21a5.37,5.37,0,0,1,1-.08,1.66,1.66,0,0,1,1.17.33,1,1,0,0,1,.32.77,1.06,1.06,0,0,1-.76,1v0a1,1,0,0,1,.59.82,6.42,6.42,0,0,0,.31,1.11h-.54a5.22,5.22,0,0,1-.27-1c-.12-.56-.33-.77-.81-.79h-.49v1.75h-.52Zm.52,1.84h.53c.56,0,.91-.3.91-.77s-.38-.75-.93-.75a2.18,2.18,0,0,0-.52,0Z"/><path class="cls-1" d="M108.06,113.3h-1.57v1.46h1.75v.44H106v-4h2.18v.44h-1.66v1.28h1.57Z"/><path class="cls-1" d="M109.58,113.93l-.42,1.27h-.54l1.37-4h.63l1.38,4h-.56l-.43-1.27Zm1.33-.41-.4-1.16c-.09-.26-.15-.5-.21-.74h0c-.06.24-.13.49-.2.73l-.4,1.17Z"/><path class="cls-1" d="M112.59,111.21a7.35,7.35,0,0,1,1.11-.08,2.31,2.31,0,0,1,1.64.5,1.86,1.86,0,0,1,.57,1.45,2.13,2.13,0,0,1-.58,1.57,2.49,2.49,0,0,1-1.79.58,8.1,8.1,0,0,1-.95,0Zm.52,3.57a3.37,3.37,0,0,0,.53,0,1.55,1.55,0,0,0,1.72-1.71,1.44,1.44,0,0,0-1.64-1.56,3,3,0,0,0-.61.05Z"/><path class="cls-1" d="M117.32,115.2v-1.71L116,111.16h.59l.57,1.12c.16.31.28.55.4.83h0c.11-.26.25-.53.41-.83l.58-1.12h.59l-1.36,2.32v1.72Z"/><path class="cls-1" d="M108.5,118.8h-1.23v-.44h3v.44H109v3.6h-.53Z"/><path class="cls-1" d="M114,120.34a1.89,1.89,0,0,1-1.88,2.13,1.85,1.85,0,0,1-1.82-2.05,1.92,1.92,0,0,1,1.88-2.12A1.84,1.84,0,0,1,114,120.34Zm-3.14.07c0,.86.47,1.64,1.29,1.64s1.3-.76,1.3-1.68-.42-1.64-1.29-1.64S110.87,119.52,110.87,120.4Z"/><path class="cls-1" d="M100.93,125.56v4h-.52v-4Z"/><path class="cls-1" d="M101.85,129.6v-4h.57l1.29,2a11.41,11.41,0,0,1,.73,1.31h0c0-.54-.06-1-.06-1.66v-1.69h.49v4h-.53l-1.28-2.05a12.75,12.75,0,0,1-.75-1.35h0c0,.51,0,1,0,1.67v1.73Z"/><path class="cls-1" d="M105.72,129a1.85,1.85,0,0,0,.94.26c.53,0,.85-.28.85-.69s-.22-.59-.76-.8-1.07-.58-1.07-1.15a1.16,1.16,0,0,1,1.31-1.1,1.83,1.83,0,0,1,.89.2l-.14.43a1.6,1.6,0,0,0-.77-.19c-.55,0-.76.33-.76.61s.25.56.8.78,1,.59,1,1.19-.46,1.16-1.42,1.16a2.09,2.09,0,0,1-1-.26Z"/><path class="cls-1" d="M109.52,126h-1.23v-.44h3V126H110v3.6h-.53Z"/><path class="cls-1" d="M111.94,128.33l-.42,1.27H111l1.37-4H113l1.38,4h-.56l-.43-1.27Zm1.33-.41-.4-1.16c-.09-.26-.15-.5-.21-.74h0c-.06.24-.13.49-.2.73l-.4,1.17Z"/><path class="cls-1" d="M115,125.56h.52v3.6h1.73v.44H115Z"/><path class="cls-1" d="M117.79,125.56h.52v3.6H120v.44h-2.25Z"/><path class="cls-1" d="M120.5,129.29a.35.35,0,0,1,.35-.37.37.37,0,0,1,0,.74A.35.35,0,0,1,120.5,129.29Zm.15-.86-.08-2.88h.58l-.08,2.88Z"/><polygon class="cls-3" points="278.7 74.25 264.01 80.73 263.17 78.82 278.02 72.72 278.7 74.25"/><path class="cls-3" d="M287.11,70.51l-7.6,3.36-.7-1.58C283.84,68.54,287.11,70.51,287.11,70.51Z"/><path class="cls-4" d="M287.11,70.43s-5,2.05-5,1.27-2.12-.34-1.54-.64C284.61,68.92,287.11,70.43,287.11,70.43Z"/></g></svg>