<svg id="Layer_1" data-name="Layer 1" xmlns="http://www.w3.org/2000/svg" viewBox="0 0 480 200"><defs><style>.cls-1{fill:#478eb0;}.cls-2{fill:#3a7345;}.cls-3{fill:#9fb3b6;}.cls-4{fill:#73a353;}.cls-5,.cls-6,.cls-7{fill:#547b80;}.cls-18,.cls-25,.cls-6{stroke:#478eb0;}.cls-12,.cls-13,.cls-15,.cls-16,.cls-18,.cls-19,.cls-20,.cls-22,.cls-24,.cls-25,.cls-6{stroke-miterlimit:10;}.cls-7{stroke:#547b80;}.cls-21,.cls-23,.cls-7{stroke-linejoin:round;}.cls-8{fill:#b2b247;}.cls-9{fill:#6d775b;}.cls-10,.cls-12,.cls-15,.cls-16{fill:#b5882d;}.cls-11{fill:#f5e8d0;}.cls-12,.cls-13,.cls-15{stroke:#767977;}.cls-12,.cls-13,.cls-15,.cls-25{stroke-width:0.5px;}.cls-13,.cls-14{fill:#767977;}.cls-13,.cls-15,.cls-16{stroke-linecap:round;}.cls-16{stroke:#fff;}.cls-17,.cls-18,.cls-20{fill:#1a1f1c;}.cls-19,.cls-25{fill:none;}.cls-19,.cls-21,.cls-22{stroke:#1a1f1c;}.cls-20{stroke:#9fb3b6;}.cls-21,.cls-22{fill:#cadadd;}.cls-23{fill:#e3bc3d;stroke:#b5882d;}.cls-24{fill:#9a988e;stroke:#9a988e;}</style></defs><title>encrypted_communications</title><rect class="cls-1" width="480" height="200"/><rect class="cls-2" y="115" width="480" height="85"/><rect class="cls-3" x="240" width="240" height="200"/><rect class="cls-4" x="240" y="115" width="240" height="85"/><g id="Statue_of_Liberty" data-name="Statue of Liberty"><path class="cls-5" d="M46.9,38H33.25c-2.12.26-2.6-17.73-2.6-17.73a2.13,2.13,0,1,0-4.23.52S26.57,42,33.25,42.23V82.34h0a3.18,3.18,0,0,0,6.35,0h0V60.16h.85V82.34h0a3.18,3.18,0,0,0,6.35,0h0V42.25c2.13,0,4.26,11.94,4.26,11.94l3.41-2.56S54.15,38,46.9,38Z"/><path class="cls-5" d="M40,36.11a5.46,5.46,0,1,0-5.45-5.48A5.48,5.48,0,0,0,40,36.11Z"/><rect class="cls-6" x="39.65" y="41.82" width="10.24" height="13.65" transform="translate(15.15 -10.46) rotate(16.01)"/><path class="cls-6" d="M54.14,51.22c-.21-.16-.43-.29-.66-.44l-1.35-.88-1.81-1.18-1.91-1.24-1.65-1.07-1-.67a2.57,2.57,0,0,0-1.37-.51,2.13,2.13,0,0,0-1.22,3.9l.52.34,1.34.87,1.79,1.17,1.9,1.23,1.66,1.08,1.06.69a2.65,2.65,0,0,0,1.41.54,2.13,2.13,0,0,0,1.79-3.35A2.16,2.16,0,0,0,54.14,51.22Z"/><polygon class="cls-7" points="47.32 24.26 44.19 24.54 42.72 24.54 43.91 21.84 40.99 24.54 41.24 24.54 38.86 19.41 38.48 24.54 38.73 24.54 34.81 21.84 37.01 24.54 35.95 24.54 32.82 24.26 36.38 25.49 36.84 26.46 43.22 26.46 43.62 25.57 47.32 24.26"/><path class="cls-8" d="M30.5,14.31c.53-1.35-.73-2.7-.65-4.07A9.74,9.74,0,0,1,31.58,6c-.13.22-.65.43-.86.57-.55.39-1.09.8-1.62,1.22a6.84,6.84,0,0,0-2.59,4,3.32,3.32,0,0,0,.92,2.86,1.81,1.81,0,0,0,2.81.09A1.72,1.72,0,0,0,30.5,14.31Z"/><polygon class="cls-5" points="29.84 16.23 27.28 16.23 27.71 20.93 29.41 20.93 29.84 16.23"/><rect class="cls-5" x="26" y="14.74" width="5.12" height="2.13"/></g><rect class="cls-9" x="26.5" y="82.5" width="27" height="3"/><rect class="cls-9" x="18.5" y="110.5" width="43" height="5"/><rect class="cls-9" x="23" y="104.5" width="34" height="5"/><rect class="cls-9" x="28.5" y="86.5" width="23" height="17"/><g id="Parliament"><rect class="cls-10" x="457.29" y="55.49" width="15.08" height="15.08"/><polygon class="cls-10" points="469.85 49.46 459.8 49.46 458.29 52.98 458.29 54.99 471.36 54.99 471.36 52.98 469.85 49.46"/><polygon class="cls-10" points="458.29 71.07 458.29 93.18 457.79 93.18 457.79 115.8 458.29 115.8 471.36 115.8 471.36 71.07 458.29 71.07"/><rect class="cls-10" x="437.69" y="93.18" width="8.54" height="22.62"/><rect class="cls-10" x="288.42" y="93.18" width="33.17" height="22.62"/><rect class="cls-10" x="268.32" y="93.18" width="8.54" height="22.62"/><rect class="cls-10" x="391.45" y="93.18" width="34.68" height="22.62"/><rect class="cls-10" x="333.15" y="90.17" width="46.74" height="25.63"/><rect class="cls-10" x="459.8" y="43.93" width="10.05" height="5.03"/><path class="cls-10" d="M464.82,27.35c-1,7.54-5,16.08-5,16.08h10.05S465.83,34.88,464.82,27.35Z"/><circle class="cls-11" cx="464.82" cy="63.03" r="5.03"/><line class="cls-12" x1="464.82" y1="57.88" x2="464.82" y2="68.18"/><line class="cls-12" x1="469.98" y1="63.03" x2="459.67" y2="63.03"/><line class="cls-12" x1="469.29" y1="65.6" x2="460.36" y2="60.45"/><line class="cls-12" x1="462.25" y1="58.57" x2="467.4" y2="67.49"/><line class="cls-12" x1="467.4" y1="58.57" x2="462.25" y2="67.49"/><line class="cls-12" x1="469.29" y1="60.45" x2="460.36" y2="65.6"/><circle class="cls-11" cx="464.82" cy="63.03" r="3.52"/><line class="cls-13" x1="465.98" y1="58.66" x2="464.7" y2="63.51"/><path class="cls-14" d="M465,63.85a.38.38,0,0,0-.73-.19.37.37,0,0,1-.13.49.38.38,0,1,0,.73.19.37.37,0,0,1,.13-.49Z"/><line class="cls-15" x1="467.84" y1="63.09" x2="463.82" y2="63.01"/><path class="cls-14" d="M464.06,63.39a.38.38,0,1,0,0-.75.37.37,0,0,1-.5,0,.38.38,0,0,0,0,.75.37.37,0,0,1,.5,0Z"/><polygon class="cls-10" points="278.37 51.47 266.31 51.47 269.12 44.43 275.55 44.43 278.37 51.47"/><path class="cls-10" d="M263.29,29.36a40.18,40.18,0,0,1-2.51,9h5A40.18,40.18,0,0,1,263.29,29.36Z"/><path class="cls-10" d="M281.38,29.36a40.18,40.18,0,0,1-2.51,9h5A40.18,40.18,0,0,1,281.38,29.36Z"/><path class="cls-10" d="M276.86,115.55V79.89a.25.25,0,0,1,.25-.25V77.86a.25.25,0,0,1-.23-.36,16.23,16.23,0,0,0,1.23-3.95.25.25,0,0,1,.25-.22V51.72H266.31V73.33a.25.25,0,0,1,.25.22,16.23,16.23,0,0,0,1.23,3.95.25.25,0,0,1-.23.36v1.79a.25.25,0,0,1,.25.25v35.66Z"/><path class="cls-10" d="M279.85,77.5a.25.25,0,0,1-.23.36v1.79a.25.25,0,0,1,.25.25v3.26l1.05-2.87a.25.25,0,0,1,.24-.16h2.73V42.75h-.5v-4.1h-4v4.1h-.5v32A18.5,18.5,0,0,0,279.85,77.5Z"/><path class="cls-10" d="M263.51,80.12a.25.25,0,0,1,.24.16l1.05,2.87V79.89a.25.25,0,0,1,.25-.25V77.86a.25.25,0,0,1-.23-.36,18.5,18.5,0,0,0,1-2.72v-32h-.5v-4.1h-4v4.1h-.5V80.12Z"/><rect class="cls-10" x="449.24" y="84.14" width="5.53" height="31.66"/><polygon class="cls-10" points="454.77 83.89 449.24 83.89 450.53 80.37 453.48 80.37 454.77 83.89"/><path class="cls-10" d="M447.74,73.58a16.38,16.38,0,0,1-1.26,4H449A16.38,16.38,0,0,1,447.74,73.58Z"/><path class="cls-10" d="M456.28,73.58a16.38,16.38,0,0,1-1.26,4h2.51A16.38,16.38,0,0,1,456.28,73.58Z"/><polygon class="cls-10" points="448.74 79.89 448.74 77.86 446.73 77.86 446.73 79.89 446.48 79.89 446.48 116.05 448.99 116.05 448.99 79.89 448.74 79.89"/><polygon class="cls-10" points="457.29 79.89 457.29 77.86 455.27 77.86 455.27 79.89 455.02 79.89 455.02 116.05 457.54 116.05 457.54 79.89 457.29 79.89"/><rect class="cls-10" x="351.74" y="69.06" width="11.06" height="20.61"/><polygon class="cls-10" points="362.8 68.56 351.74 68.56 353.25 65.54 361.29 65.54 362.8 68.56"/><path class="cls-10" d="M357.27,38.4a49.78,49.78,0,0,1-3,11.06h6A49.81,49.81,0,0,1,357.27,38.4Z"/><polygon class="cls-10" points="360.54 53.61 360.54 49.84 354 49.84 354 53.61 353.25 53.61 353.25 65.17 361.29 65.17 361.29 53.61 360.54 53.61"/><line class="cls-16" x1="272.34" y1="44.43" x2="272.34" y2="22.32"/><circle class="cls-10" cx="272.34" cy="22.07" r="0.5"/><rect class="cls-10" x="272.84" y="22.82" width="6.03" height="4.02"/><rect class="cls-10" x="429.14" y="84.14" width="5.53" height="31.66"/><polygon class="cls-10" points="434.67 83.89 429.14 83.89 430.43 80.37 433.38 80.37 434.67 83.89"/><path class="cls-10" d="M427.63,73.58a16.38,16.38,0,0,1-1.26,4h2.51A16.38,16.38,0,0,1,427.63,73.58Z"/><path class="cls-10" d="M436.18,73.58a16.38,16.38,0,0,1-1.26,4h2.51A16.38,16.38,0,0,1,436.18,73.58Z"/><polygon class="cls-10" points="428.64 79.89 428.64 77.86 426.63 77.86 426.63 79.89 426.38 79.89 426.38 116.05 428.89 116.05 428.89 79.89 428.64 79.89"/><polygon class="cls-10" points="437.18 79.89 437.18 77.86 435.17 77.86 435.17 79.89 434.92 79.89 434.92 116.05 437.43 116.05 437.43 79.89 437.18 79.89"/><rect class="cls-10" x="382.9" y="84.14" width="5.53" height="31.66"/><polygon class="cls-10" points="388.43 83.89 382.9 83.89 384.19 80.37 387.14 80.37 388.43 83.89"/><path class="cls-10" d="M381.4,73.58a16.38,16.38,0,0,1-1.26,4h2.51A16.38,16.38,0,0,1,381.4,73.58Z"/><path class="cls-10" d="M389.94,73.58a16.38,16.38,0,0,1-1.26,4h2.51A16.38,16.38,0,0,1,389.94,73.58Z"/><polygon class="cls-10" points="382.4 79.89 382.4 77.86 380.39 77.86 380.39 79.89 380.14 79.89 380.14 116.05 382.65 116.05 382.65 79.89 382.4 79.89"/><polygon class="cls-10" points="390.94 79.89 390.94 77.86 388.94 77.86 388.94 79.89 388.68 79.89 388.68 116.05 391.2 116.05 391.2 79.89 390.94 79.89"/><rect class="cls-10" x="324.6" y="84.14" width="5.53" height="31.66"/><polygon class="cls-10" points="330.13 83.89 324.61 83.89 325.89 80.37 328.84 80.37 330.13 83.89"/><path class="cls-10" d="M323.1,73.58a16.38,16.38,0,0,1-1.26,4h2.51A16.38,16.38,0,0,1,323.1,73.58Z"/><path class="cls-10" d="M331.64,73.58a16.38,16.38,0,0,1-1.26,4h2.51A16.38,16.38,0,0,1,331.64,73.58Z"/><polygon class="cls-10" points="324.1 79.89 324.1 77.86 322.09 77.86 322.09 79.89 321.84 79.89 321.84 116.05 324.35 116.05 324.35 79.89 324.1 79.89"/><polygon class="cls-10" points="332.65 79.89 332.65 77.86 330.64 77.86 330.64 79.89 330.38 79.89 330.38 116.05 332.9 116.05 332.9 79.89 332.65 79.89"/><rect class="cls-10" x="279.87" y="84.14" width="5.53" height="31.66"/><polygon class="cls-10" points="285.4 83.89 279.88 83.89 281.17 80.37 284.11 80.37 285.4 83.89"/><path class="cls-10" d="M278.37,73.58a16.38,16.38,0,0,1-1.26,4h2.51A16.38,16.38,0,0,1,278.37,73.58Z"/><path class="cls-10" d="M286.91,73.58a16.38,16.38,0,0,1-1.26,4h2.51A16.38,16.38,0,0,1,286.91,73.58Z"/><polygon class="cls-10" points="279.37 79.89 279.37 77.86 277.36 77.86 277.36 79.89 277.11 79.89 277.11 116.05 279.62 116.05 279.62 79.89 279.37 79.89"/><polygon class="cls-10" points="287.92 79.89 287.92 77.86 285.91 77.86 285.91 79.89 285.65 79.89 285.65 116.05 288.17 116.05 288.17 79.89 287.92 79.89"/><rect class="cls-10" x="259.27" y="84.14" width="5.53" height="31.66"/><polygon class="cls-10" points="264.8 83.89 259.27 83.89 260.56 80.37 263.51 80.37 264.8 83.89"/><path class="cls-10" d="M257.76,73.58a16.38,16.38,0,0,1-1.26,4H259A16.38,16.38,0,0,1,257.76,73.58Z"/><path class="cls-10" d="M266.31,73.58a16.38,16.38,0,0,1-1.26,4h2.51A16.38,16.38,0,0,1,266.31,73.58Z"/><polygon class="cls-10" points="258.77 79.89 258.77 77.86 256.76 77.86 256.76 79.89 256.5 79.89 256.5 116.05 259.02 116.05 259.02 79.89 258.77 79.89"/><polygon class="cls-10" points="267.31 79.89 267.31 77.86 265.3 77.86 265.3 79.89 265.05 79.89 265.05 116.05 267.56 116.05 267.56 79.89 267.31 79.89"/></g><g id="Person_on_Phone" data-name="Person on Phone"><path class="cls-17" d="M120,91.63c-.58-11.28-2.1-26-2.1-26a5,5,0,0,0-10,.89s1,7.37,2.16,15.59A17.07,17.07,0,0,0,108,82H76c-17,0-11,52-11,52a5,5,0,0,0,10,0s-4-42,1-42v94h0A7.49,7.49,0,0,0,91,186h0V134h2v52h0A7.49,7.49,0,0,0,108,186h0V92c2,0,3.2,1.92,3.92,4.23.41,3.34.7,6,.76,7.23a3.63,3.63,0,0,0,7,.54,6.83,6.83,0,0,0,.37-2A30.11,30.11,0,0,0,120,91.63Z"/><path class="cls-17" d="M91.93,77.61A12.8,12.8,0,1,0,79.15,64.77,12.86,12.86,0,0,0,91.93,77.61Z"/></g><polygon class="cls-18" points="109.63 75.47 103.81 73.94 108.45 57.6 114.19 58.06 109.63 75.47"/><line class="cls-19" x1="112" y1="59" x2="113.31" y2="54.31"/><circle class="cls-17" cx="113.31" cy="54.31" r="0.94"/><g id="Person_on_Phone-2" data-name="Person on Phone"><path class="cls-17" d="M362.48,90.63c.58-11.28,2.1-26,2.1-26a5,5,0,0,1,10,.89s-1,7.37-2.16,15.59a17.07,17.07,0,0,1,2.08-.14h32c17,0,11,52,11,52a5,5,0,0,1-10,0s4-42-1-42v94h0a7.49,7.49,0,0,1-14.95,0h0V133h-2v52h0a7.49,7.49,0,0,1-14.95,0h0V91c-2,0-3.2,1.92-3.92,4.23-.41,3.34-.7,6-.76,7.23a3.63,3.63,0,0,1-7,.54,6.83,6.83,0,0,1-.37-2A30.11,30.11,0,0,1,362.48,90.63Z"/><path class="cls-17" d="M390.54,76.61a12.8,12.8,0,1,1,12.78-12.84A12.86,12.86,0,0,1,390.54,76.61Z"/></g><polygon class="cls-20" points="372.44 75.47 378.25 73.94 373.62 57.6 367.87 58.06 372.44 75.47"/><line class="cls-19" x1="370.07" y1="59" x2="368.76" y2="54.31"/><circle class="cls-17" cx="368.76" cy="54.31" r="0.94"/><polygon class="cls-21" points="177.17 59.11 179.56 51.79 115.87 53.87 191.24 43.85 187.46 51.63 247.55 50.41 177.17 59.11"/><polygon class="cls-21" points="304.25 59.11 301.86 51.79 365.55 53.87 290.17 43.85 293.96 51.63 233.87 50.41 304.25 59.11"/><path class="cls-22" d="M275.81,42.54a22.5,22.5,0,0,0-42.16-15.15A16,16,0,0,0,208.5,40.5c0,.51,0,1,.08,1.5H208a14,14,0,0,0,0,28h64a14,14,0,0,0,3.81-27.46Z"/><rect class="cls-23" x="232.5" y="45" width="18" height="18" rx="2" ry="2"/><path class="cls-24" d="M245.5,44.5v-4a4,4,0,0,0-8,0v4h-2v-4a6,6,0,0,1,12,0v4Z"/><path class="cls-17" d="M243.5,53a2,2,0,1,0-3.5,1.31V57a1.5,1.5,0,0,0,3,0V54.31A2,2,0,0,0,243.5,53Z"/><path class="cls-25" d="M31.92,31.72c0-3,3.65-5.64,8.11-5.62s8,2.64,8.05,5.63"/></svg>