<svg xmlns="http://www.w3.org/2000/svg" viewBox="0 0 480 200"><defs><style>.cls-1{fill:#ff9800;}.cls-2{fill:#7e8aa2;}.cls-3{fill:#263248;}.cls-4{fill:none;stroke:#263248;stroke-miterlimit:10;}</style></defs><title>gestural_data_transfer</title><g id="Background"><rect class="cls-1" width="480" height="200"/></g><g id="Layer_1" data-name="Layer 1"><g id="Person_Throwing" data-name="Person Throwing"><path d="M114.14,77.29a12.5,12.5,0,1,1,17.64,1.53A12.49,12.49,0,0,1,114.14,77.29Z"/><path d="M164.46,91.33l-32-.75L107,75.95a4.91,4.91,0,0,0-.51-.23,5,5,0,0,0-5.71.54l-31.9,27L35.94,123.55l-18.29-1.73a7.5,7.5,0,0,0-1.42,14.93l20.79,2q.35,0,.71,0a7.5,7.5,0,0,0,3.93-1.11L72.11,118.9l1.62,18.94L69,168.37a7.5,7.5,0,1,0,14.83,2.28l4.82-31.42a7.5,7.5,0,0,0,.06-1.78l-1.88-21.9,9.93-8.41-3.32,21.63a5,5,0,0,0,4.18,5.7,5.1,5.1,0,0,0,.77.06,5,5,0,0,0,4.94-4.24l3.95-25.69,2.4-8.39,4.62-3.92a4.93,4.93,0,0,0,.35-.36l13.85,8a5,5,0,0,0,2.38.66l33.3.78h.12a5,5,0,0,0,.11-10Z"/></g><g id="Office_Chair" data-name="Office Chair"><rect class="cls-2" x="375" y="137" width="4" height="31"/><rect class="cls-2" x="354" y="133" width="46" height="5" rx="2.5" ry="2.5"/><path class="cls-2" d="M397.05,166H356.95A3,3,0,0,0,354,169v1h46v-1A3,3,0,0,0,397.05,166Z"/><rect class="cls-2" x="355" y="170.5" width="2" height="5" rx="1" ry="1"/><rect class="cls-2" x="357" y="170.5" width="2" height="5" rx="1" ry="1"/><rect class="cls-2" x="395" y="170.5" width="2" height="5" rx="1" ry="1"/><rect class="cls-2" x="397" y="170.5" width="2" height="5" rx="1" ry="1"/><rect class="cls-2" x="372" y="128" width="10" height="4"/><rect class="cls-2" x="374" y="137" width="6" height="20"/><rect class="cls-2" x="379" y="142" width="20" height="1"/><rect class="cls-2" x="394" y="141.5" width="6" height="2" rx="1" ry="1"/><path class="cls-2" d="M396.06,120.5,400,87a6,6,0,0,0-6-6H360a6,6,0,0,0-6,6l3.94,33.5Z"/><path class="cls-2" d="M361,126.19a5.94,5.94,0,0,0,3,.81h26a5.94,5.94,0,0,0,3-.81Z"/></g><g id="Person_Sitting_Facing_Away" data-name="Person Sitting Facing Away"><rect x="360" y="131" width="15" height="38"/><circle cx="367.5" cy="168.5" r="7.5"/><rect x="379" y="131" width="15" height="38"/><circle cx="386.5" cy="168.5" r="7.5"/><path d="M411,82.41a12.64,12.64,0,0,0,.86-2.16,12.8,12.8,0,1,0-22.6,4L376,80.39l0,.15L370,79l15.65-18.94A5,5,0,1,0,378,53.68l-20.63,25a5,5,0,0,0,2.58,8L371,89.59l-19.46-1.28L351,85a5,5,0,0,0-9.88,1.57l1.14,7.19a5,5,0,0,0,4.51,4.2l23.59,1.59-5.8,19.89h33.33l8.77-30.07-2.54-.74a12.94,12.94,0,0,0,5.25-3.73A1.5,1.5,0,1,0,411,82.41Z"/></g><g id="Office_Desk" data-name="Office Desk"><rect class="cls-3" x="298" y="118" width="156" height="5"/><rect class="cls-3" x="302" y="124" width="148" height="43"/><polygon class="cls-3" points="447 177 444 177 443 168 448 168 447 177"/><polygon class="cls-3" points="308 177 305 177 304 168 309 168 308 177"/></g><g id="Phone"><rect x="257" y="76" width="21" height="11" rx="1" ry="1"/><rect class="cls-2" x="260" y="77" width="17" height="9"/></g><line class="cls-4" x1="186" y1="80.5" x2="251" y2="80.5"/><line class="cls-4" x1="180" y1="82.5" x2="251" y2="82.5"/></g></svg>