<svg xmlns="http://www.w3.org/2000/svg" viewBox="0 0 480 200"><defs><style>.cls-1{fill:#a6d3eb;}.cls-2{fill:#f1f7e5;}.cls-3{fill:#1c5379;}.cls-4{fill:none;stroke:#1c5379;stroke-miterlimit:10;stroke-width:2px;}.cls-5{fill:#e5901a;}.cls-6{fill:#0078a4;}.cls-7{fill:#f4f9ea;}.cls-8{opacity:0.6;}.cls-9{opacity:0.4;}.cls-10{opacity:0.8;}.cls-11{fill:#eaa648;}</style></defs><title>gestural_input_device</title><g id="Background"><rect class="cls-1" width="480" height="200"/></g><g id="Layer_1" data-name="Layer 1"><path class="cls-2" d="M292,200V99a8,8,0,0,0-8-8H254a8,8,0,0,0-8,8V200Z" transform="translate(0 0)"/><path class="cls-3" d="M248,200V99a6,6,0,0,1,6-6h30a6,6,0,0,1,6,6V200h4V99a10,10,0,0,0-10-10H254a10,10,0,0,0-10,10V200Z" transform="translate(0 0)"/><path class="cls-2" d="M356,200V99a8,8,0,0,0-8-8H318a8,8,0,0,0-8,8V200Z" transform="translate(0 0)"/><path class="cls-3" d="M312,200V99a6,6,0,0,1,6-6h30a6,6,0,0,1,6,6V200h4V99a10,10,0,0,0-10-10H318a10,10,0,0,0-10,10V200Z" transform="translate(0 0)"/><rect class="cls-2" x="246" y="5" width="46" height="73" rx="8" ry="8"/><path class="cls-3" d="M284,80H254a10,10,0,0,1-10-10V13A10,10,0,0,1,254,3h30a10,10,0,0,1,10,10V70A10,10,0,0,1,284,80ZM254,7a6,6,0,0,0-6,6V70a6,6,0,0,0,6,6h30a6,6,0,0,0,6-6V13a6,6,0,0,0-6-6Z" transform="translate(0 0)"/><rect class="cls-2" x="310" y="5" width="46" height="73" rx="8" ry="8"/><path class="cls-3" d="M348,80H318a10,10,0,0,1-10-10V13A10,10,0,0,1,318,3h30a10,10,0,0,1,10,10V70A10,10,0,0,1,348,80ZM318,7a6,6,0,0,0-6,6V70a6,6,0,0,0,6,6h30a6,6,0,0,0,6-6V13a6,6,0,0,0-6-6Z" transform="translate(0 0)"/><path class="cls-2" d="M480,5H397a8,8,0,0,0-8,8v87a8,8,0,0,0,8,8h83Z" transform="translate(0 0)"/><path class="cls-3" d="M480,106H397a6,6,0,0,1-6-6V13a6,6,0,0,1,6-6h83V3H397a10,10,0,0,0-10,10v87a10,10,0,0,0,10,10h83Z" transform="translate(0 0)"/><path class="cls-2" d="M54,5H0V108H54a8,8,0,0,0,8-8V13A8,8,0,0,0,54,5Z" transform="translate(0 0)"/><path class="cls-3" d="M54,3H0V7H54a6,6,0,0,1,6,6v87a6,6,0,0,1-6,6H0v4H54a10,10,0,0,0,10-10V13A10,10,0,0,0,54,3Z" transform="translate(0 0)"/><rect class="cls-2" x="76" y="5" width="146" height="103" rx="8" ry="8"/><path class="cls-3" d="M214,110H84a10,10,0,0,1-10-10V13A10,10,0,0,1,84,3H214a10,10,0,0,1,10,10v87A10,10,0,0,1,214,110ZM84,7a6,6,0,0,0-6,6v87a6,6,0,0,0,6,6H214a6,6,0,0,0,6-6V13a6,6,0,0,0-6-6Z" transform="translate(0 0)"/><rect class="cls-3" x="363" width="2" height="200"/><line class="cls-4" x1="301" x2="301" y2="200"/><rect class="cls-3" x="237" width="2" height="200"/><g id="Person_Gesturing" data-name="Person Gesturing"><path class="cls-5" d="M305.57,200V136.43h2.7V200H328.5V79.79c11.38,6.41,21,11.2,21,11.2a8.58,8.58,0,0,0,3.92,1.28,6.72,6.72,0,0,0,4.78-2l23.46-21.36a6.74,6.74,0,0,0-7.56-11.17c-1,.7-21.88,19.86-21.88,19.86-4.91-2.49-15.9-8-23.69-11.31H285.34V200Z" transform="translate(0 0)"/><path class="cls-5" d="M239.12,30.8l-9.22,9.83s48.7,39.16,55.44,39.16h1.35V66.3h-1.35C262.08,52.48,239.12,30.8,239.12,30.8Z" transform="translate(0 0)"/><circle class="cls-5" cx="234.32" cy="35.53" r="6.74" transform="translate(96.09 228.04) rotate(-62.94)"/><rect class="cls-6" x="229" y="25" width="12" height="21" rx="2" ry="2" transform="translate(49.41 -112.96) rotate(30.07)"/><rect class="cls-7" x="225.5" y="30.5" width="19" height="10" rx="1" ry="1" transform="matrix(-0.5, 0.87, -0.87, -0.5, 383.46, -150.09)"/><g class="cls-8"><path class="cls-5" d="M224,57l-2.84,13.18s57.46,9.57,64.2,9.57h1.35V66.3h-1.35C260.19,62,224,57,224,57Z" transform="translate(0 0)"/><circle class="cls-5" cx="222.74" cy="63.66" r="6.74" transform="translate(-0.15 0.52) rotate(-0.13)"/><rect class="cls-6" x="218" y="53" width="12" height="21" rx="2" ry="2" transform="translate(13.02 -34.96) rotate(9.19)"/><rect class="cls-7" x="214.5" y="58.5" width="19" height="10" rx="1" ry="1" transform="translate(322.46 -147.48) rotate(99.19)"/></g><g class="cls-9"><path class="cls-5" d="M222.46,85.1l5.68,12.23s41.2-15.17,57.21-17.55h1.35V66.3h-1.35C258,70.56,222.46,85.1,222.46,85.1Z" transform="translate(0 0)"/><circle class="cls-5" cx="225.29" cy="91.22" r="6.74" transform="translate(-17.46 103.3) rotate(-24.89)"/><rect class="cls-6" x="220" y="80" width="12" height="21" rx="2" ry="2" transform="translate(-15.69 61.29) rotate(-14.93)"/><rect class="cls-7" x="216.5" y="85.5" width="19" height="10" rx="1" ry="1" transform="translate(255.21 -151.19) rotate(75.07)"/></g><g class="cls-8"><path class="cls-5" d="M235.66,113.91,246.42,122s22.91-39.87,38.92-42.25h1.35V66.3h-1.35C258,70.56,235.66,113.91,235.66,113.91Z" transform="translate(0 0)"/><circle class="cls-5" cx="241.04" cy="117.97" r="6.74" transform="translate(1.7 239.36) rotate(-52.97)"/><rect class="cls-6" x="234" y="105" width="12" height="21" rx="2" ry="2" transform="translate(1.13 233.31) rotate(-51.95)"/><rect class="cls-7" x="230.5" y="110.5" width="19" height="10" rx="1" ry="1" transform="translate(122.19 -123.37) rotate(38.05)"/></g><g class="cls-10"><path class="cls-5" d="M255.68,130.65l13.09,3.26s9.83-54.12,16.57-54.12h1.35V66.3h-1.35C262.41,66.3,255.68,130.65,255.68,130.65Z" transform="translate(0 0)"/><circle class="cls-5" cx="262.23" cy="132.28" r="6.74" transform="translate(70.56 354.82) rotate(-76.03)"/><rect class="cls-6" x="256" y="120" width="12" height="21" rx="2" ry="2" transform="translate(76.43 356.86) rotate(-77.13)"/><rect class="cls-7" x="252.5" y="125.5" width="19" height="10" rx="1" ry="1" transform="translate(35.64 -55.07) rotate(12.87)"/></g><path class="cls-5" d="M306.82,60.38a17.27,17.27,0,1,1,17.3-17.29A17.25,17.25,0,0,1,306.82,60.38Z" transform="translate(0 0)"/><circle class="cls-5" cx="290" cy="44" r="2"/></g><path class="cls-6" d="M38,166c-5-6-10.56-73.23-11.87-76.11s-9.26-2-9.95,1S22,176,25,179s64,3,65,0,3-9,0-13S43,172,38,166Z" transform="translate(0 0)"/><rect class="cls-6" x="25" y="183" width="65" height="6"/><rect class="cls-6" x="53" y="186" width="8" height="14"/><path class="cls-6" d="M146,166c-5-6-10.56-73.23-11.87-76.11s-9.26-2-9.95,1S130,176,133,179s64,3,65,0,3-9,0-13S151,172,146,166Z" transform="translate(0 0)"/><rect class="cls-6" x="133" y="183" width="65" height="6"/><rect class="cls-6" x="161" y="186" width="8" height="14"/><path class="cls-6" d="M469,181h11V166H469a4,4,0,0,0-4,4v7A4,4,0,0,0,469,181Z" transform="translate(0 0)"/><path class="cls-6" d="M480,88h-7a4,4,0,0,0-4,4l-2,73h13Z" transform="translate(0 0)"/><rect class="cls-6" x="392" y="166" width="68" height="15" rx="4" ry="4"/><path class="cls-6" d="M456,92a4,4,0,0,0-4-4H400a4,4,0,0,0-4,4l-2,73h64Z" transform="translate(0 0)"/><polygon class="cls-6" points="480 189 480 183 393 183 393 189 421 189 421 200 429 200 429 189 480 189"/><path class="cls-11" d="M40,159.84a9.9,9.9,0,0,0,9.63,7.73H88.26V200H108V158.36h0c0-.22,0-.44,0-.66a9.9,9.9,0,0,0-9.87-9.87h-40l-2.53-17.07c1.48,2,3.06,3.43,4.83,3.65,11.72,1.45,23.42-47.57,23.42-47.57h0A7.24,7.24,0,1,0,69.7,83.64h0v0a7.19,7.19,0,0,0-.14.87c-.62,3.85-3.26,19.12-7.86,32.22A47.71,47.71,0,0,0,50.88,98.95l-1.43-9.68L29.92,92.15l10,67.7Z" transform="translate(0 0)"/><path class="cls-11" d="M42.92,85.55A16.85,16.85,0,1,0,23.81,71.29,16.92,16.92,0,0,0,42.92,85.55Z" transform="translate(0 0)"/><circle class="cls-11" cx="57" cy="68" r="2"/><path class="cls-11" d="M113.54,150.87a6.55,6.55,0,0,0,5.63-7.36s-5.7-61.66,14.51-54.91l10.11,65.79a9.82,9.82,0,0,0-.36,2.62v43h19.66V165.95l6.76-.9,4.77,35h19.85l-5.88-43.1a9.78,9.78,0,0,0-2.57-5.39l-7.19-54c7.27.85,12.57,6.31,19.52,7.17,10.72,1.33-7.65-46.41-7.65-46.41h0a6.62,6.62,0,1,0-13.19,1.24h0v0a6.6,6.6,0,0,0,.7,2.38c1.59,5.29,5.71,18.17,10.32,26.61-2.71-2.2-6.16-3.53-11.46-4.27v0l-9.85-1.87a16.78,16.78,0,1,0-27.45-5.21l-6.6-1.25-1.47-.28c-34.69,0-25.51,69.62-25.51,69.62A6.55,6.55,0,0,0,113.54,150.87Z" transform="translate(0 0)"/><path class="cls-11" d="M395.88,158.15a6.64,6.64,0,0,0,7.09-3.42,9.91,9.91,0,0,0-1.11,3.45L396.5,200h20.08l4.71-36.73,9.89,1.85,4.5,34.88h20.08l-5.26-40.83A9.91,9.91,0,0,0,448,153.8l8.93-47.71c6.05,1.13,4,47.94,3.68,54.74a6.64,6.64,0,1,0,13.23.58S481.57,97.2,459.39,93l-1.3-.24-40.45-7.57c-22.18-4.15-27.05,65.17-27.05,65.17A6.64,6.64,0,0,0,395.88,158.15Zm7.75-5.3a6.65,6.65,0,0,0,.11-1.14c.76-7.9,5.48-54.55,11.45-53.43L405.14,152a9.94,9.94,0,0,0-2.16,2.73A6.64,6.64,0,0,0,403.63,152.84Z" transform="translate(0 0)"/><path class="cls-11" d="M439.49,83.39a17,17,0,1,0-13.54-19.87A17.07,17.07,0,0,0,439.49,83.39Z" transform="translate(0 0)"/><circle class="cls-11" cx="426" cy="65.68" r="2"/><rect class="cls-6" x="374" width="6" height="200"/><rect class="cls-6" x="237" y="-229" width="6" height="480" transform="translate(229 251) rotate(-90)"/><rect class="cls-6" x="372" y="6" width="10" height="10" rx="2" ry="2"/><path class="cls-6" d="M127.33,35.75a2,2,0,0,0-2-2h-5.5V16h1a2,2,0,0,0,2-2V8a2,2,0,0,0-2-2h-6a2,2,0,0,0-2,2v6a2,2,0,0,0,2,2h1V33.75h-5.5a2,2,0,0,0-2,2l-2,11a2,2,0,0,0,2,2h19a2,2,0,0,0,2-2Zm-2.53,10.5H110.87a1.41,1.41,0,0,1-1.47-1.33l1.47-7.33a1.41,1.41,0,0,1,1.47-1.33h11a1.41,1.41,0,0,1,1.47,1.33l1.47,7.33A1.41,1.41,0,0,1,124.8,46.25Z" transform="translate(0 0)"/><path class="cls-6" d="M475.33,35.75a2,2,0,0,0-2-2h-5.5V16h1a2,2,0,0,0,2-2V8a2,2,0,0,0-2-2h-6a2,2,0,0,0-2,2v6a2,2,0,0,0,2,2h1V33.75h-5.5a2,2,0,0,0-2,2l-2,11a2,2,0,0,0,2,2h19a2,2,0,0,0,2-2Zm-2.53,10.5H458.87a1.41,1.41,0,0,1-1.47-1.33l1.47-7.33a1.41,1.41,0,0,1,1.47-1.33h11a1.41,1.41,0,0,1,1.47,1.33l1.47,7.33A1.41,1.41,0,0,1,472.8,46.25Z" transform="translate(0 0)"/><path class="cls-6" d="M12.33,35.75a2,2,0,0,0-2-2H4.83V16h1a2,2,0,0,0,2-2V8a2,2,0,0,0-2-2H0V16H.83V33.75H0v2.5H8.33A1.41,1.41,0,0,1,9.8,37.58l1.47,7.33A1.41,1.41,0,0,1,9.8,46.25H0v2.5H12.33a2,2,0,0,0,2-2Z" transform="translate(0 0)"/></g></svg>