<svg id="Layer_1" data-name="Layer 1" xmlns="http://www.w3.org/2000/svg" viewBox="0 0 480 200"><defs><style>.cls-1{fill:#e3e3e3;}.cls-2,.cls-5,.cls-6,.cls-9{stroke:#000;}.cls-10,.cls-2,.cls-3,.cls-5,.cls-6,.cls-7,.cls-8,.cls-9{stroke-miterlimit:10;}.cls-10,.cls-3,.cls-5,.cls-6,.cls-8{fill:none;}.cls-10,.cls-3,.cls-8{stroke:#fff;}.cls-3{stroke-linecap:round;}.cls-4,.cls-9{fill:#fff;}.cls-5{stroke-width:2px;}.cls-7{stroke:#e3e3e3;}.cls-8{stroke-width:0.5px;}</style></defs><title>IME_157</title><rect class="cls-1" width="480" height="200"/><path d="M298.74,23.43l-4.61-3-7.2-4.69a1.35,1.35,0,0,1-.48-2.12c.55-.82,1.15-.9,2.08-.3l10.93,7.07a2,2,0,0,0,.95.37c-1.36-1.66-2.71-3.32-4.07-5s-2.81-3.39-4.23-5.07a1.45,1.45,0,0,1,0-2,1.35,1.35,0,0,1,2.29-.1q2.66,3,5.25,6.1c2,2.32,3.91,4.65,6,7.2,0-.73-.06-1.22-.1-1.7-.27-3.21-.57-6.42-.82-9.64-.1-1.26.28-1.68,1.36-1.78s1.71.3,1.86,1.52c.61,4.69,1.2,9.38,1.83,14.07a2.5,2.5,0,0,0,.51,1.2q18.14,22,36.29,43.93A3.71,3.71,0,0,0,349,70.78a25,25,0,0,0,8.45.24,4.43,4.43,0,0,0,3.08-1.82q13.08-17.71,26.22-35.38a1.38,1.38,0,0,1,.1-.15c2.66-2.74,3.72-6.11,4.16-9.82.33-2.8,1-5.56,1.58-8.34.2-1,.69-1.28,1.7-1.08s1.55.78,1.41,1.71c-.52,3.39-1,6.79-1.57,10.18,0,.28-.06.56-.11,1l1-.67,13.5-9.25c.52-.35,1.12-.74,1.63-.22a3.1,3.1,0,0,1,.84,1.68c0,.36-.41.91-.77,1.18-3.23,2.38-6.49,4.71-9.74,7.06a2.19,2.19,0,0,0-.66.67c.29-.09.59-.16.88-.26l12.52-4.14a1.39,1.39,0,0,1,2,1.41c0,.83-.46,1.14-1.16,1.37-4.14,1.37-8.28,2.76-12.42,4.14l-.83.29v.23h2.42l10.58,0a4.85,4.85,0,0,1,.63,0,1.41,1.41,0,0,1,1.28,1.57,1.23,1.23,0,0,1-1.42,1.28c-3.89,0-7.78-.09-11.66-.13h-2.08c.41.18.59.28.78.34l8.44,2.67c.92.29,1.22.79,1,1.59s-.7,1.06-1.68.78c-4.2-1.19-8.4-2.37-12.59-3.61a1.08,1.08,0,0,0-1.49.58q-27,44.45-54.05,88.88a2.16,2.16,0,0,1-1.52,1.09q-29.57,6.62-59.13,13.29l-22.83,5.11-23.18,5.14a4.3,4.3,0,0,1-5.16-2.14,9,9,0,0,1-.88-8.06,4.41,4.41,0,0,1,3.18-2.94c6.8-1.7,13.59-3.48,20.42-5.07q31.45-7.32,62.93-14.51a2.81,2.81,0,0,0,1-.45,12,12,0,0,1-1.19-.92q-24.49-24.31-49-48.65c-3.16-3.15-6.16-6.46-9.29-9.64a7.07,7.07,0,0,1-1.66-8c1.09-2.94,3.57-4,6.46-4.31a4,4,0,0,1,3.48,1.29q19.61,18.7,39.33,37.27,9.53,9,19.11,18l.78.7c.18-.26.34-.46.48-.68q6.41-10.49,12.83-21a1,1,0,0,0,0-1.35Q319.9,54.41,302.76,29.77a1.22,1.22,0,0,0-1.18-.6c-4.07.11-8.14.18-12.2.27-.33,0-.66,0-1,0-.87,0-1.27-.38-1.25-1.18s.29-1.23,1.18-1.27c3.22-.14,6.44-.33,9.69-.64l-.86-.23-11.92-3c-1.3-.33-1.69-.83-1.41-1.83s1-1.23,2.19-.92l12.35,3.11.35.06Z"/><path d="M353.75,66.84A10.86,10.86,0,1,1,364.63,56,10.84,10.84,0,0,1,353.75,66.84Z"/><path d="M267.13,155.26l1.13,6.92c1.38-.81,1.86-2.28,2.82-3.42,1.21,2.13.52,4.37.49,6.59.72-.29,1.39-.61,2.09-.83a2.33,2.33,0,0,1,2.2.25c-1.53,2.29-2.29,4.9-3.25,7.41a8,8,0,0,1-7.52,5.41l-1.88.11a3.27,3.27,0,0,1-.33,0,.72.72,0,0,1,.45-1,8.83,8.83,0,0,0,3.59-3.87l-1.71.49c-.19-1.76,1.21-3,1.35-4.7a2.26,2.26,0,0,1-2.17.9V166l-2,1L262,165.1l-.18-.08-.75,1.66-1.65-1.34c-.11,1.83.48,3.58.11,5.32-1.34.14-1.73-1-2.5-1.7-.59,1.25,0,2.29.38,3.39l-.76.35a8,8,0,0,0,4.87,4.1v.89a7.43,7.43,0,0,1-.91,0c-1.12-.14-2.26-.22-3.35-.47a6.82,6.82,0,0,1-5-4.28c-.41-1-.76-2-1.08-3a22.43,22.43,0,0,0-2.87-6.46c.89.08,1.62.08,2.32.21a21.76,21.76,0,0,1,2.14.64l-.57-5.24,3.36,2c.42-2.42-.41-4.51-1.17-6.66,1.94-.29,3.27.79,4.63,1.82.15-1.53.22-3,.47-4.5a5.4,5.4,0,0,1,2.27-3.83,35.87,35.87,0,0,0,3.1,10.68l2-3.32Z"/><path d="M252.9,178.15h17.76v2.22H252.9Z"/><path d="M392.82,133.53l1.13,6.92c1.38-.81,1.86-2.28,2.82-3.42,1.21,2.13.52,4.37.49,6.59.72-.29,1.39-.61,2.09-.83a2.33,2.33,0,0,1,2.2.25c-1.53,2.29-2.29,4.9-3.25,7.41a8,8,0,0,1-7.52,5.41l-1.88.11a3.27,3.27,0,0,1-.33,0,.72.72,0,0,1,.45-1,8.83,8.83,0,0,0,3.59-3.87l-1.71.49c-.19-1.76,1.21-3,1.35-4.7a2.26,2.26,0,0,1-2.17.9v-3.49l-2,1-.42-1.91-.18-.08-.75,1.66-1.65-1.34c-.11,1.83.48,3.58.11,5.32-1.34.14-1.73-1-2.5-1.7-.59,1.25,0,2.29.38,3.39l-.76.35a8,8,0,0,0,4.87,4.1v.89a7.43,7.43,0,0,1-.91,0c-1.12-.14-2.26-.22-3.35-.47a6.82,6.82,0,0,1-5-4.28c-.41-1-.76-2-1.08-3a22.43,22.43,0,0,0-2.87-6.46c.89.08,1.62.08,2.32.21a21.76,21.76,0,0,1,2.14.64l-.57-5.24,3.36,2c.42-2.42-.41-4.51-1.17-6.66,1.94-.29,3.27.79,4.63,1.82.15-1.53.22-3,.47-4.5a5.4,5.4,0,0,1,2.27-3.83,35.87,35.87,0,0,0,3.1,10.68l2-3.32Z"/><path d="M378.59,156.42h17.76v2.22H378.59Z"/><path d="M447.35,151.35l1.13,6.92c1.38-.81,1.86-2.28,2.82-3.42,1.21,2.13.52,4.37.49,6.59.72-.29,1.39-.61,2.09-.83a2.33,2.33,0,0,1,2.2.25c-1.53,2.29-2.29,4.9-3.25,7.41a8,8,0,0,1-7.52,5.41l-1.88.11a3.27,3.27,0,0,1-.33,0,.72.72,0,0,1,.45-1,8.83,8.83,0,0,0,3.59-3.87l-1.71.49c-.19-1.76,1.21-3,1.35-4.7a2.26,2.26,0,0,1-2.17.9v-3.49l-2,1-.42-1.91-.18-.08-.75,1.66-1.65-1.34c-.11,1.83.48,3.58.11,5.32-1.34.14-1.73-1-2.5-1.7-.59,1.25,0,2.29.38,3.39l-.76.35a8,8,0,0,0,4.87,4.1v.89a7.43,7.43,0,0,1-.91,0c-1.12-.14-2.26-.22-3.35-.47a6.82,6.82,0,0,1-5-4.28c-.41-1-.76-2-1.08-3a22.43,22.43,0,0,0-2.87-6.46c.89.08,1.62.08,2.32.21a21.76,21.76,0,0,1,2.14.64l-.57-5.24,3.36,2c.42-2.42-.41-4.51-1.17-6.66,1.94-.29,3.27.79,4.63,1.82.15-1.53.22-3,.47-4.5A5.4,5.4,0,0,1,442,144a35.87,35.87,0,0,0,3.1,10.68l2-3.32Z"/><path d="M433.12,174.25h17.76v2.22H433.12Z"/><g id="NC_Drill" data-name="NC Drill"><polygon class="cls-2" points="140 56 140 72 143.5 74.5 145.5 74.5 146.5 77.5 149.5 77.5 150.5 74.5 152.5 74.5 156 72 156 56 140 56"/><polygon points="147 86.79 149 84.79 149 83.21 147 85.21 147 86.79"/><polygon points="147 83.79 149 81.79 149 80.21 147 82.21 147 83.79"/><polygon points="147 88.21 147 88.5 148 89.5 149 88.5 149 86.21 147 88.21"/><polygon points="149 78.79 149 77.5 147 77.5 147 80.79 149 78.79"/><line class="cls-3" x1="153.5" y1="70.5" x2="148.5" y2="70.5"/><line class="cls-3" x1="153.5" y1="68.5" x2="148.5" y2="68.5"/><line class="cls-3" x1="153.5" y1="66.5" x2="148.5" y2="66.5"/><path d="M153,23H138a3,3,0,0,0-3,3V36a3,3,0,0,0,3,3h2v3.5h16V26A3,3,0,0,0,153,23Z"/><circle class="cls-4" cx="141" cy="28" r="3"/><circle cx="141" cy="28" r="2"/><path class="cls-5" d="M136.5,32.5h-1a3,3,0,0,0-3,3v7"/><path class="cls-5" d="M143.5,43"/><path class="cls-5" d="M143.5,55"/><path class="cls-5" d="M132.5,55.5v4a3,3,0,0,0,3,3h5"/><path class="cls-6" d="M130.5,55.5v4a5,5,0,0,0,5,5h6"/><path class="cls-6" d="M137.5,30.5h-2a5,5,0,0,0-5,5v7"/><rect class="cls-2" x="76" y="104" width="144" height="70"/><rect class="cls-2" x="78" y="176.5" width="16" height="3"/><rect class="cls-2" x="202" y="176.5" width="16" height="3"/><rect class="cls-2" x="76" y="42" width="8" height="60"/><rect class="cls-2" x="212" y="42" width="8" height="60"/><rect class="cls-2" x="86" y="44" width="124" height="10"/><rect class="cls-4" x="185" y="140" width="3" height="3"/><rect class="cls-4" x="190" y="140" width="3" height="3"/><rect class="cls-4" x="195" y="140" width="3" height="3"/><rect class="cls-4" x="200" y="140" width="3" height="3"/><rect class="cls-4" x="185" y="145" width="3" height="3"/><rect class="cls-4" x="190" y="145" width="3" height="3"/><rect class="cls-4" x="195" y="145" width="3" height="3"/><rect class="cls-4" x="200" y="145" width="3" height="3"/><rect class="cls-4" x="185" y="150" width="3" height="3"/><rect class="cls-4" x="190" y="150" width="3" height="3"/><rect class="cls-4" x="195" y="150" width="3" height="3"/><rect class="cls-4" x="200" y="150" width="3" height="3"/><rect class="cls-4" x="185" y="155" width="3" height="3"/><rect class="cls-4" x="190" y="155" width="3" height="3"/><rect class="cls-4" x="195" y="155" width="3" height="3"/><rect class="cls-4" x="200" y="155" width="3" height="3"/><rect class="cls-4" x="205" y="140" width="3" height="3"/><rect class="cls-4" x="205" y="145" width="3" height="3"/><rect class="cls-4" x="205" y="150" width="3" height="3"/><rect class="cls-4" x="205" y="155" width="3" height="3"/><rect class="cls-4" x="185" y="160" width="3" height="3"/><rect class="cls-4" x="190" y="160" width="3" height="3"/><rect class="cls-4" x="195" y="160" width="3" height="3"/><rect class="cls-4" x="200" y="160" width="3" height="3"/><rect class="cls-4" x="205" y="160" width="3" height="3"/></g><polygon points="186.89 92.2 89.46 96.4 186.94 94.35 186.89 92.2"/><polygon points="186.94 95.4 125.11 97.49 186.94 97.54 186.94 95.4"/><rect class="cls-7" x="185.41" y="87.53" width="142.62" height="7.34" transform="translate(-4.39 13.46) rotate(-2.98)"/><g id="Cabinet"><rect class="cls-2" x="25" y="104" width="46" height="70"/><rect class="cls-2" x="27" y="176.5" width="12" height="3"/><rect class="cls-2" x="57" y="176.5" width="12" height="3"/><rect class="cls-8" x="27.5" y="106.5" width="41" height="65"/><line class="cls-3" x1="63" y1="137" x2="55" y2="137"/><path class="cls-4" d="M59,139c1.66,0,3-.9,3-2H56C56,138.1,57.34,139,59,139Z"/></g><g id="Computer"><path class="cls-2" d="M65,63.5a2,2,0,0,0-2-2H33a2,2,0,0,0-2,2v35h2V102H63V98.5h2Z"/><line class="cls-3" x1="61.5" y1="92" x2="48.5" y2="92"/><rect class="cls-9" x="32.5" y="63.5" width="31" height="23" rx="2" ry="2"/><line class="cls-10" x1="34" y1="92" x2="36" y2="92"/><rect x="44.5" y="72" width="1" height="2"/><rect x="50.5" y="72" width="1" height="2"/><rect x="44.5" y="68.5" width="1" height="1"/><rect x="45.5" y="69.5" width="1" height="1"/><rect x="43.5" y="67.5" width="1" height="1"/><rect x="50.5" y="68.5" width="1" height="1"/><rect x="51.5" y="67.5" width="1" height="1"/><rect x="49.5" y="69.5" width="1" height="1"/><rect x="42.5" y="79.5" width="1" height="1"/><rect x="43.5" y="78.5" width="9" height="1"/><rect x="52.5" y="79.5" width="1" height="1"/><rect x="52.5" y="80.5" width="1" height="1"/><rect x="42.5" y="80.5" width="1" height="1"/></g></svg>