<svg xmlns="http://www.w3.org/2000/svg" viewBox="0 0 480 200"><defs><style>.cls-1{fill:#ded8a0;}.cls-2{fill:#e89700;}.cls-3{fill:#6b4b00;}.cls-4{fill:#263d23;}.cls-5{fill:#8d937c;}.cls-6{fill:#71785b;}</style></defs><title>ime_157</title><g id="Background"><rect id="Background-2" data-name="Background" class="cls-1" width="480" height="200"/></g><g id="Layer_1" data-name="Layer 1"><path class="cls-2" d="M267.13,166.26l1.13,6.92c1.38-.81,1.86-2.28,2.82-3.42,1.21,2.13.52,4.37.49,6.59.72-.29,1.39-.61,2.09-.83a2.33,2.33,0,0,1,2.2.25c-1.53,2.29-2.29,4.9-3.25,7.41a8,8,0,0,1-7.52,5.41l-1.88.11a3.27,3.27,0,0,1-.33,0,.72.72,0,0,1,.45-1,8.83,8.83,0,0,0,3.59-3.87l-1.71.49c-.19-1.76,1.21-3,1.35-4.7a2.26,2.26,0,0,1-2.17.9V177l-2,1L262,176.1l-.18-.08-.75,1.66-1.65-1.34c-.11,1.83.48,3.58.11,5.32-1.34.14-1.73-1-2.5-1.7-.59,1.25,0,2.29.38,3.39l-.76.35a8,8,0,0,0,4.87,4.1v.89a7.43,7.43,0,0,1-.91,0c-1.12-.14-2.26-.22-3.35-.47a6.82,6.82,0,0,1-5-4.28c-.41-1-.76-2-1.08-3a22.43,22.43,0,0,0-2.87-6.46c.89.08,1.62.08,2.32.21a21.76,21.76,0,0,1,2.14.64l-.57-5.24,3.36,2c.42-2.42-.41-4.51-1.17-6.66,1.94-.29,3.27.79,4.63,1.82.15-1.53.22-3,.47-4.5a5.4,5.4,0,0,1,2.27-3.83,35.87,35.87,0,0,0,3.1,10.68l2-3.32Z"/><path class="cls-2" d="M252.9,189.15h17.76v2.22H252.9Z"/><path class="cls-2" d="M392.82,144.53l1.13,6.92c1.38-.81,1.86-2.28,2.82-3.42,1.21,2.13.52,4.37.49,6.59.72-.29,1.39-.61,2.09-.83a2.33,2.33,0,0,1,2.2.25c-1.53,2.29-2.29,4.9-3.25,7.41a8,8,0,0,1-7.52,5.41l-1.88.11a3.27,3.27,0,0,1-.33,0,.72.72,0,0,1,.45-1,8.83,8.83,0,0,0,3.59-3.87l-1.71.49c-.19-1.76,1.21-3,1.35-4.7a2.26,2.26,0,0,1-2.17.9v-3.49l-2,1-.42-1.91-.18-.08-.75,1.66-1.65-1.34c-.11,1.83.48,3.58.11,5.32-1.34.14-1.73-1-2.5-1.7-.59,1.25,0,2.29.38,3.39l-.76.35a8,8,0,0,0,4.87,4.1v.89a7.43,7.43,0,0,1-.91,0c-1.12-.14-2.26-.22-3.35-.47a6.82,6.82,0,0,1-5-4.28c-.41-1-.76-2-1.08-3a22.43,22.43,0,0,0-2.87-6.46c.89.08,1.62.08,2.32.21a21.76,21.76,0,0,1,2.14.64l-.57-5.24,3.36,2c.42-2.42-.41-4.51-1.17-6.66,1.94-.29,3.27.79,4.63,1.82.15-1.53.22-3,.47-4.5a5.4,5.4,0,0,1,2.27-3.83,35.87,35.87,0,0,0,3.1,10.68l2-3.32Z"/><path class="cls-2" d="M378.59,167.42h17.76v2.22H378.59Z"/><path class="cls-2" d="M447.35,162.35l1.13,6.92c1.38-.81,1.86-2.28,2.82-3.42,1.21,2.13.52,4.37.49,6.59.72-.29,1.39-.61,2.09-.83a2.33,2.33,0,0,1,2.2.25c-1.53,2.29-2.29,4.9-3.25,7.41a8,8,0,0,1-7.52,5.41l-1.88.11a3.27,3.27,0,0,1-.33,0,.72.72,0,0,1,.45-1,8.83,8.83,0,0,0,3.59-3.87l-1.71.49c-.19-1.76,1.21-3,1.35-4.7a2.26,2.26,0,0,1-2.17.9v-3.49l-2,1-.42-1.91-.18-.08-.75,1.66-1.65-1.34c-.11,1.83.48,3.58.11,5.32-1.34.14-1.73-1-2.5-1.7-.59,1.25,0,2.29.38,3.39l-.76.35a8,8,0,0,0,4.87,4.1v.89a7.43,7.43,0,0,1-.91,0c-1.12-.14-2.26-.22-3.35-.47a6.82,6.82,0,0,1-5-4.28c-.41-1-.76-2-1.08-3a22.43,22.43,0,0,0-2.87-6.46c.89.08,1.62.08,2.32.21a21.76,21.76,0,0,1,2.14.64l-.57-5.24,3.36,2c.42-2.42-.41-4.51-1.17-6.66,1.94-.29,3.27.79,4.63,1.82.15-1.53.22-3,.47-4.5A5.4,5.4,0,0,1,442,155a35.87,35.87,0,0,0,3.1,10.68l2-3.32Z"/><path class="cls-2" d="M433.12,185.25h17.76v2.22H433.12Z"/><g id="NC_Drill" data-name="NC Drill"><path class="cls-3" d="M147,99.21l2-2V99.5l-1,1-1-1Zm0-4.41,2-2V91.21l-2,2Zm0,3,2-2V94.21l-2,2ZM140,72.5h-4.5a2,2,0,0,1-2-2v-4h-2v4a4,4,0,0,0,4,4H140V75h-4.5a4.5,4.5,0,0,1-4.5-4.5v-4h-1v4a5.51,5.51,0,0,0,5.5,5.5H140v7l3.5,2.5h2l1,3h.5v3.29l2-2V88.5h.5l1-3h2L156,83V67H140ZM153,34H138a3,3,0,0,0-3,3v4a5.51,5.51,0,0,0-5,5.47v7h1v-7a4.49,4.49,0,0,1,4-4.45v.5a4,4,0,0,0-3.5,3.95v7h2v-7a2,2,0,0,1,1.5-1.93V47a3,3,0,0,0,3,3h2v3.5h16V37A3,3,0,0,0,153,34Z"/><path class="cls-1" d="M153.5,82h-5a.5.5,0,0,1,0-1h5a.5.5,0,0,1,0,1Z"/><path class="cls-1" d="M153.5,80h-5a.5.5,0,0,1,0-1h5a.5.5,0,0,1,0,1Z"/><path class="cls-1" d="M153.5,78h-5a.5.5,0,0,1,0-1h5a.5.5,0,0,1,0,1Z"/><path class="cls-1" d="M141,36a3,3,0,1,0,3,3A3,3,0,0,0,141,36Zm0,5a2,2,0,1,1,2-2A2,2,0,0,1,141,41Z"/><rect class="cls-3" x="76" y="115" width="144" height="70"/><rect class="cls-3" x="78" y="186.5" width="16" height="3"/><rect class="cls-3" x="202" y="186.5" width="16" height="3"/><rect class="cls-3" x="76" y="53" width="8" height="60"/><rect class="cls-3" x="86" y="55" width="124" height="10"/><polygon class="cls-3" points="220 99.44 220 53 212 53 212 99.85 220 99.44"/><polygon class="cls-3" points="212 109.21 212 113 220 113 220 108.79 212 109.21"/><rect class="cls-1" x="185" y="151" width="3" height="3"/><rect class="cls-1" x="190" y="151" width="3" height="3"/><rect class="cls-1" x="195" y="151" width="3" height="3"/><rect class="cls-1" x="200" y="151" width="3" height="3"/><rect class="cls-1" x="185" y="156" width="3" height="3"/><rect class="cls-1" x="190" y="156" width="3" height="3"/><rect class="cls-1" x="195" y="156" width="3" height="3"/><rect class="cls-1" x="200" y="156" width="3" height="3"/><rect class="cls-1" x="185" y="161" width="3" height="3"/><rect class="cls-1" x="190" y="161" width="3" height="3"/><rect class="cls-1" x="195" y="161" width="3" height="3"/><rect class="cls-1" x="200" y="161" width="3" height="3"/><rect class="cls-1" x="185" y="166" width="3" height="3"/><rect class="cls-1" x="190" y="166" width="3" height="3"/><rect class="cls-1" x="195" y="166" width="3" height="3"/><rect class="cls-1" x="200" y="166" width="3" height="3"/><rect class="cls-1" x="205" y="151" width="3" height="3"/><rect class="cls-1" x="205" y="156" width="3" height="3"/><rect class="cls-1" x="205" y="161" width="3" height="3"/><rect class="cls-1" x="205" y="166" width="3" height="3"/><rect class="cls-1" x="185" y="171" width="3" height="3"/><rect class="cls-1" x="190" y="171" width="3" height="3"/><rect class="cls-1" x="195" y="171" width="3" height="3"/><rect class="cls-1" x="200" y="171" width="3" height="3"/><rect class="cls-1" x="205" y="171" width="3" height="3"/><rect class="cls-4" x="185.41" y="98.53" width="142.62" height="7.34" transform="translate(-4.96 13.48) rotate(-2.98)"/><polygon class="cls-4" points="184.37 103.31 89.46 107.4 184.48 105.4 184.37 103.31"/><polygon class="cls-4" points="184.54 106.48 125.11 108.49 184.64 108.54 184.54 106.48"/></g><g id="Cabinet"><rect class="cls-3" x="25" y="115" width="46" height="70"/><rect class="cls-3" x="27" y="186.5" width="12" height="3"/><rect class="cls-3" x="57" y="186.5" width="12" height="3"/><path class="cls-1" d="M68.75,182.75H27.25v-65.5h41.5Zm-41-.5h40.5v-64.5H27.75Z"/><path class="cls-1" d="M63,147.5H55a.5.5,0,0,0,0,1h1.11a3.54,3.54,0,0,0,5.79,0H63a.5.5,0,0,0,0-1Z"/></g><g id="Computer"><path class="cls-3" d="M65,74.5a2,2,0,0,0-2-2H33a2,2,0,0,0-2,2v35h2V113H63v-3.5h2Z"/><path class="cls-1" d="M61.5,103.5h-13a.5.5,0,0,1,0-1h13a.5.5,0,0,1,0,1Z"/><rect class="cls-5" x="33" y="75" width="30" height="22" rx="2" ry="2"/><rect class="cls-1" x="34" y="102.5" width="2" height="1"/><rect class="cls-4" x="44.5" y="83" width="1" height="2"/><rect class="cls-4" x="50.5" y="83" width="1" height="2"/><rect class="cls-4" x="44.5" y="79.5" width="1" height="1"/><rect class="cls-4" x="45.5" y="80.5" width="1" height="1"/><rect class="cls-4" x="43.5" y="78.5" width="1" height="1"/><rect class="cls-4" x="50.5" y="79.5" width="1" height="1"/><rect class="cls-4" x="51.5" y="78.5" width="1" height="1"/><rect class="cls-4" x="49.5" y="80.5" width="1" height="1"/><rect class="cls-4" x="42.5" y="90.5" width="1" height="1"/><rect class="cls-4" x="43.5" y="89.5" width="9" height="1"/><rect class="cls-4" x="52.5" y="90.5" width="1" height="1"/><rect class="cls-4" x="52.5" y="91.5" width="1" height="1"/><rect class="cls-4" x="42.5" y="91.5" width="1" height="1"/></g><path class="cls-6" d="M342.92,67a10.85,10.85,0,1,1,10.83,10.88A10.85,10.85,0,0,1,342.92,67Zm71.5-25.08a4.86,4.86,0,0,0-.63,0l-10.58,0h-2.42v-.23l.83-.29c4.14-1.38,8.27-2.78,12.42-4.14.7-.23,1.19-.54,1.16-1.37a1.39,1.39,0,0,0-2-1.41L400.67,38.5c-.29.1-.59.17-.88.26a2.19,2.19,0,0,1,.66-.67c3.25-2.35,6.51-4.68,9.74-7.06.37-.27.82-.82.77-1.18a3.1,3.1,0,0,0-.84-1.68c-.51-.52-1.11-.13-1.63.22L395,37.65l-1,.67c0-.44.07-.73.11-1,.52-3.39,1.05-6.79,1.57-10.18.14-.93-.34-1.5-1.41-1.71s-1.49.07-1.7,1.08C392,29.27,391.29,32,391,34.84c-.44,3.72-1.5,7.09-4.16,9.82a1.38,1.38,0,0,0-.1.15Q373.58,62.5,360.48,80.19A4.43,4.43,0,0,1,357.4,82a25,25,0,0,1-8.45-.24,3.71,3.71,0,0,1-2.31-1.29q-18.13-22-36.29-43.93a2.5,2.5,0,0,1-.51-1.2c-.63-4.69-1.23-9.38-1.83-14.07-.16-1.22-.66-1.63-1.86-1.52s-1.45.52-1.36,1.78c.24,3.22.54,6.43.82,9.64,0,.48.06,1,.1,1.7-2.14-2.55-4.08-4.88-6-7.2q-2.6-3.07-5.25-6.1a1.35,1.35,0,0,0-2.29.1,1.45,1.45,0,0,0,0,2c1.42,1.68,2.83,3.37,4.23,5.07s2.71,3.31,4.07,5a2,2,0,0,1-.95-.37l-10.93-7.07c-.93-.6-1.53-.51-2.08.3a1.35,1.35,0,0,0,.48,2.12l7.2,4.69,4.61,3-.05.15-.35-.06L286,31.41c-1.23-.31-1.94,0-2.19.92s.11,1.51,1.41,1.83l11.92,3,.86.23c-3.25.31-6.47.51-9.69.64-.89,0-1.16.53-1.18,1.27s.38,1.15,1.25,1.18c.33,0,.66,0,1,0,4.07-.08,8.14-.16,12.2-.27a1.22,1.22,0,0,1,1.18.6Q319.9,65.41,337.09,90a1,1,0,0,1,0,1.35q-6.43,10.48-12.83,21c-.13.22-.3.42-.48.68l-.78-.7-9-8.42L293,105l21.52,21.38a12,12,0,0,0,1.19.92,2.81,2.81,0,0,1-1,.45q-31.46,7.25-62.93,14.51c-6.83,1.59-13.62,3.37-20.42,5.07a4.41,4.41,0,0,0-3.18,2.94,9,9,0,0,0,.88,8.06,4.3,4.3,0,0,0,5.16,2.14l23.18-5.15,22.83-5.11q29.57-6.65,59.13-13.29a2.16,2.16,0,0,0,1.52-1.09q27-44.44,54.05-88.88a1.08,1.08,0,0,1,1.49-.58c4.19,1.24,8.39,2.42,12.59,3.61,1,.28,1.43,0,1.68-.78s-.05-1.3-1-1.59l-8.44-2.67c-.19-.06-.37-.16-.78-.34h2.08c3.89,0,7.78.1,11.66.13a1.23,1.23,0,0,0,1.42-1.28A1.41,1.41,0,0,0,414.42,41.87ZM265.6,77.72q9.24,9.2,18.5,18.38L304.65,95l-.73-.68q-19.69-18.61-39.33-37.27a4,4,0,0,0-3.48-1.29c-2.89.35-5.37,1.38-6.46,4.31a7.07,7.07,0,0,0,1.66,8C259.44,71.26,262.44,74.57,265.6,77.72Z"/></g></svg>