<svg id="Layer_1" data-name="Layer 1" xmlns="http://www.w3.org/2000/svg" viewBox="0 0 160 50"><defs><style>.cls-1{fill:#fff;}.cls-2{fill:#595959;}</style></defs><title>Mindtribe_logo_old</title><rect class="cls-1" width="160" height="50"/><path class="cls-2" d="M23.87,24.24c1.33.19,2-.4,2.69-1.72s1.19-2.8-.2-2.87c-.67,0-1.24.19-1.87,1.17C23.65,22.12,22.85,24.09,23.87,24.24Z"/><path class="cls-2" d="M20.15,23.93c1.35,0,1.94-.55,2.52-1.94.49-1.19.49-2.6-.9-2.48a2.13,2.13,0,0,0-1.57,1.32C19.6,22.26,19.12,23.93,20.15,23.93Z"/><path class="cls-2" d="M15.12,28.16a2.61,2.61,0,0,0,1.39-2.3,6.1,6.1,0,0,0,0-2.42C16,22,15,21.38,14,23.32c-.37.73.19,1.55.25,2.35S14.13,28.61,15.12,28.16Z"/><path class="cls-2" d="M22.22,18.35c1.07,0,1.64-.38,2.25-1.67.8-1.69.79-3.16-.3-3a2.7,2.7,0,0,0-2.15,2C21.64,16.58,21.11,18.4,22.22,18.35Z"/><path class="cls-2" d="M26.88,18.47a2.82,2.82,0,0,0,2.49-1.68c1.51-2.42,1.55-3.88.05-3.67-1.08.15-1.54.87-2.36,2.34C26.34,16.73,25.71,18.44,26.88,18.47Z"/><path class="cls-2" d="M27.42,25.36c1.4.68,3.55-3,4.22-4.14.78-1.27,2.29-3.92.76-3.84-.95,0-1.88,1.45-2.87,3S26.38,24.85,27.42,25.36Z"/><path class="cls-2" d="M30,27.28c.92.22,1.56-.53,2.14-1.18,1.1-1.23,1.5-2.45.49-2.54-.55-.05-.9.25-1.8,1.19C30.18,25.49,28.69,27,30,27.28Z"/><path class="cls-2" d="M25.1,26.18a8.44,8.44,0,0,0-4.93-.34c-2.5.54-1.87,2.15-3.9,3.73A4.11,4.11,0,0,0,15,33.94a2.48,2.48,0,0,0,.7,1.19,1.55,1.55,0,0,0,.37.25.72.72,0,0,0,.64,0l2.79-2.62c.38-.35.16-.53-.14-.57l-1.16-.12c-.33-.05-.4-.26-.11-.53l2.79-2.32a1.15,1.15,0,0,1,.87-.19c.14,0,1,0,2-.06a11.11,11.11,0,0,0,1.91-.19.24.24,0,0,1,.2,0,4,4,0,0,1,.32.42.17.17,0,0,1-.09.2L22,31.26c-.28.14-.25.42,0,.46l1.5.18c.32,0,.42.36.16.54L19,35s-.42.24,0,.65a5.1,5.1,0,0,0,3.61,1.25c3.24-.55,2.68-2.85,4.55-4.72C28.71,30.67,30.54,27.86,25.1,26.18Z"/><path class="cls-2" d="M43.21,28v8.35H40V21h2.57l4.14,8.11h.48L51.35,21h2.46V36.39H50.56V28l-3.18,7h-1.1Z"/><path class="cls-2" d="M60.73,36.39H57.38V21.71h3.35Z"/><path class="cls-2" d="M67.44,28.63v7.76H64.33V21.71h1.74l6.05,8v-8h3.11V36.39H73.42Z"/><path class="cls-2" d="M78.49,21.71h5.78c2.46,0,4.86.77,4.86,2.46V34c0,1.61-2.33,2.36-4.72,2.36H78.49ZM81.84,34.8h1.61c1.54,0,2.32-.56,2.32-1.23V24.5c0-.71-.89-1.19-2.19-1.19H81.84Z"/><path class="cls-2" d="M97.5,36.39H94.15V22.65H90.53V21h10.6v1.67H97.5Z"/><path class="cls-2" d="M106.09,36.39h-3.35V21.71h8.65c1.61,0,2.29.56,2.29,1.23v5.4c0,.84-1,1.25-2.26,1.25H111l3.25,6.8H110.5L107,28.59l.58-.6h2.7V23.31h-4.24Z"/><path class="cls-2" d="M120.34,36.39H117V21.71h3.35Z"/><path class="cls-2" d="M134.34,27a.87.87,0,0,1-.55.94l-1.85.73,1.51.56c.68.23,1.06.58,1.06,1.06v4.84c0,.77-.86,1.25-2.36,1.25h-8.21V21.71h8.18c1.33,0,2.22.48,2.22,1.21Zm-7-3.73v4.44h2.5l1.2-.54v-3.9Zm0,11.53h3.87V30.22l-1.47-.58h-2.4Z"/><path class="cls-2" d="M146.08,36.39h-8.52V21.71H146v1.59h-5.06v4.77h4.75v1.61h-4.75V34.8h5.17Z"/></svg>