<svg id="Layer_1" data-name="Layer 1" xmlns="http://www.w3.org/2000/svg" viewBox="0 0 40 50"><defs><style>.cls-1{fill:#fff;}</style></defs><title>Mindtribe_logo</title><rect class="cls-1" width="40" height="50"/><path d="M20.61,25.66H19.39V24.28h1.22Zm6.27-2.57h-7.5V21.71H22a1.84,1.84,0,0,1-.89-1.64c0-1.51,1.31-2.22,2.94-2.22S27,18.56,27,20.07a1.84,1.84,0,0,1-.89,1.64h.76Zm-.94-2.65a1,1,0,0,0-1.08-1.16H23.28a1,1,0,0,0-1.08,1.16c0,.88.57,1.27,1.46,1.27h.84C25.38,21.71,25.95,21.32,25.95,20.44ZM21.13,14.6a2.49,2.49,0,0,1,2.69-2.51h.69V15.7h.37a1,1,0,0,0,1.06-1.11A1,1,0,0,0,25,13.5V12.13a2.27,2.27,0,0,1,2,2.47c0,1.6-1.19,2.54-3,2.54S21.13,16.12,21.13,14.6Zm1.07,0a1,1,0,0,0,1,1.1h.2V13.49h-.2A1,1,0,0,0,22.2,14.6Zm-3.33,6.76a1.8,1.8,0,0,0-1-1.71,1.53,1.53,0,0,0,1-1.58,1.66,1.66,0,0,0-.95-1.55h.82V15.14H13.11v1.38h3.25c.82,0,1.38.44,1.38,1.1s-.36.8-1,.8H13.11V19.8h3.25c.82,0,1.38.44,1.38,1.1s-.36.8-1,.8H13.11v1.38H16.8C18.09,23.09,18.87,22.5,18.87,21.36Zm2.39,4.3h5.62V24.28H21.26ZM18.87,29.9a1.79,1.79,0,0,0-.95-1.66h.82V26.86H13.11v1.38h3.25a1.22,1.22,0,0,1,1.38,1.21c0,.66-.39.92-1,.92H13.11v1.38H16.8C18.09,31.75,18.87,31.16,18.87,29.9Zm3.47-3H21.26v3h5.62V28.5H22.34Zm3.47,5.88H22.33V31.11H21.26v1.63H19.39v1.38h1.87v1.11h1.07V34.12h4.55v-3H25.82ZM18,36.54h2.64v1.38h-7.5V36.54h.76A1.81,1.81,0,0,1,13,34.92c0-1.5,1.31-2.24,2.94-2.24s2.94.71,2.94,2.22A1.84,1.84,0,0,1,18,36.54Zm-.18-1.27a1.06,1.06,0,0,0-1.08-1.16H15.13a1.06,1.06,0,0,0-1.08,1.16c0,.88.57,1.27,1.46,1.27h.84C17.23,36.54,17.8,36.15,17.8,35.27Zm.94-11H13.11v1.38h5.62Z"/></svg>