<svg id="Layer_1" data-name="Layer 1" xmlns="http://www.w3.org/2000/svg" viewBox="0 0 138 50"><defs><style>.cls-1{fill:#fff;}.cls-2{fill:#ffd938;}</style></defs><title>Mindtribe_logo_original</title><rect class="cls-1" width="138" height="50"/><path class="cls-2" d="M15.88,27.72c1,.42,1.82-1.23,1.9-3.19a4.51,4.51,0,0,0-1-3.14c-1.39-1.67-1.51-.43-1.74.33a11.69,11.69,0,0,0,.24,3C15.43,26.62,15.14,27.41,15.88,27.72Z"/><path class="cls-2" d="M22.44,23.62c1.34.61,1.5-.75,2.13-2.21s.68-2.79.15-3.07c-.85-.44-1.5.75-2.13,2.21S21.9,23.37,22.44,23.62Z"/><path class="cls-2" d="M24.76,17.41c.69.34.84-.62,2.22-2.3s1.49-3.69.8-4S26,12.28,25.06,14.23,24.07,17.07,24.76,17.41Z"/><path class="cls-2" d="M25.68,24.77c.52.26,1.62-.78,2.48-2.37s1.76-2.86.62-3.37c-.53-.24-1.62.78-2.48,2.37S24.48,24.17,25.68,24.77Z"/><path class="cls-2" d="M29.25,18.26c-.62-.45.11-1.19.73-3.24s2.27-3.23,3-2.91-.08,2.17-1.16,4S30.06,18.64,29.25,18.26Z"/><path class="cls-2" d="M28.48,26.64c.41.2,2.43-1.55,3-2.62s4.65-7,3.38-7.92-2.26,3-3.46,4.61a27.84,27.84,0,0,0-2.6,3.59C28.31,25.4,27.69,26.26,28.48,26.64Z"/><path class="cls-2" d="M30.77,28.9c.46.21,1.29-.06,2.73-2.39,1-1.65,3.07-2.81,1.32-3.57-.46-.2-1.31.3-2.7,2.64C31.14,27.26,29.5,28.32,30.77,28.9Z"/><path class="cls-2" d="M26.91,27.32c-2.11-1.56-3.4-1.65-3.84-1.64-2.6.06-1.94,1.56-2.91,2.3a6.25,6.25,0,0,1-2.35,1.16,3.22,3.22,0,0,0-1.75,1.31,5.14,5.14,0,0,0-.84,2.83c.08,1.47.39,2.65,1.57,3l3.8-1.88a.11.11,0,0,0,0-.2l-1.23-.89a.1.1,0,0,1,0-.19l2.86-1.25a.11.11,0,0,0,0-.2L21.4,31a.12.12,0,0,1,0-.21l2.24-1.17a.49.49,0,0,1,.36,0s.84.34,2.07.7a7.92,7.92,0,0,0,1.28.28l0,.12-4,.71c-.11,0-.11.07,0,.12l1.44.7c.1,0,.1.12,0,.16l-3.22,1.31c-.1,0-.1.11,0,.16l1.63.75c.1,0,.09.11,0,.13l-4.32,1.43a14.34,14.34,0,0,0,2.3,2.35c2.59,1.49,4.46-1,6.14-3.77C28.65,32.6,31.58,30.76,26.91,27.32Z"/><path class="cls-2" d="M49.24,37.23l-.83-8.49-4.09,8.49h-.67l-4.09-8.49-.9,8.49H37.1L39,24.68H40.5l4.23,8.72,4.37-8.72h1.49l1.54,12.55Z"/><path class="cls-2" d="M53.81,37.23V25.29h2.62V37.23Z"/><path class="cls-2" d="M67.37,37.23l-7.74-8.45v8.45h-1.4V25.29H60l7.54,8.23V25.29h1.4V37.23Z"/><path class="cls-2" d="M79.07,30.94c0,3.41-1.55,5.23-4.14,5.23H73.34V26.33h1.59C77.52,26.33,79.07,27.58,79.07,30.94ZM82,31c0-4-2.25-5.66-6.31-5.66H70.72V37.22H75.6A6.09,6.09,0,0,0,82,31Z"/><path class="cls-2" d="M87.95,26V37.23H85.16V26H81.85V24.68h9.41V26Z"/><path class="cls-2" d="M97.65,28.45c0,2.18-1.33,2.53-2.78,2.53V26.33h.77C97.4,26.33,97.65,27.36,97.65,28.45Zm3.67,8.78L97.6,31.3a3.17,3.17,0,0,0,2.74-3.21c0-1.76-1.24-2.79-3.72-2.79H92.25V37.23h2.62V31.7H95l3.12,5.52Z"/><path class="cls-2" d="M102.36,37.23V25.29H105V37.23Z"/><path class="cls-2" d="M112.17,28.21a2,2,0,0,1-2,2.21h-.73v-4.1h.73A1.83,1.83,0,0,1,112.17,28.21ZM115,33.87c0-2.17-1.7-2.89-3.29-3.05,1.36-.2,3-1.07,3-2.93,0-2.07-1.77-2.59-4-2.59h-4V37.22h3.85C112.94,37.22,115,36.17,115,33.87Zm-3.12,0a2.14,2.14,0,0,1-2.19,2.3H109V31.48h.73C110.6,31.48,111.92,31.74,111.92,33.87Z"/><path class="cls-2" d="M116.46,37.23V25.29H123v1.26h-3.92v3.9h3.84v1.28h-3.84V36H123v1.26Z"/></svg>