<svg xmlns="http://www.w3.org/2000/svg" viewBox="0 0 480 200"><defs><style>.cls-1{fill:#91b7d9;}.cls-2{fill:#707324;}.cls-3{fill:#736055;}.cls-4{fill:#564840;}.cls-5{fill:#797979;}.cls-6{fill:#262401;}.cls-7{fill:#f2f2f2;}</style></defs><title>mobile_notification_device</title><g id="Background"><rect class="cls-1" width="480" height="200"/></g><g id="Layer_1" data-name="Layer 1"><g id="Building"><path class="cls-2" d="M213,188.38V101.7c-3.21,9.21-2,25.07-.21,34.13a6,6,0,0,1-4.71,7,5.91,5.91,0,0,1-1.18.12,6,6,0,0,1-5.88-4.83,123.17,123.17,0,0,1-2-21.69c.05-16.7,4.49-27.41,13.19-31.83a4.9,4.9,0,0,1,.81-.33V84h8V78.31c-.28-.24-.56-.49-.83-.75A13.81,13.81,0,0,1,221,57.31V0H0V32H77V144H0v56H95V32h93V200h33v-3.15A8.51,8.51,0,0,1,213,188.38Z"/><g id="Door"><rect class="cls-3" x="96" y="33" width="91" height="161"/><rect class="cls-4" x="169" y="97" width="7" height="30"/></g><rect id="Window" class="cls-5" y="33" width="76" height="110"/></g><rect id="Ground" class="cls-3" y="195" width="480" height="5"/><g id="Person"><path class="cls-6" d="M229.93,80.61a12.81,12.81,0,1,0-12.78-12.84A12.86,12.86,0,0,0,229.93,80.61Z"/><path class="cls-6" d="M248.26,85.54A4.92,4.92,0,0,0,246,85v0H214v.11a4.89,4.89,0,0,0-1.36.43c-8.34,4.24-12.59,14.65-12.64,30.95A121.68,121.68,0,0,0,202,138a5,5,0,0,0,4.9,4,4.73,4.73,0,0,0,1-.1,5,5,0,0,0,3.93-5.87c-2-10-3.52-30.31,2.19-38.65v91a7.5,7.5,0,0,0,15,0V137h2v51.38a7.5,7.5,0,0,0,15,0V96.23c6.75,7.44,5.17,29.32,3.1,39.8A5,5,0,0,0,253,141.9a4.57,4.57,0,0,0,1,.1,5,5,0,0,0,4.9-4,120.09,120.09,0,0,0,2-21.48C260.86,100.19,256.61,89.78,248.26,85.54Z"/></g><g id="Sign"><path id="Paper" class="cls-7" d="M424.78,143.5c-16.59-20.75-32.66-31.3-49.14-32.25-12.77-.75-23.33-5.69-33.54-10.46-12.21-5.72-23.7-11.11-40.77-11l-.29-30c23.85-.23,40.45,7.53,53.78,13.78,8.68,4.06,15.54,7.27,22.56,7.68C402.84,82.78,426,97,448.21,124.77Z"/><g id="Call_Mom" data-name="Call Mom"><path class="cls-3" d="M316.41,68.47a7.1,7.1,0,0,1,5.68-.68q4.17,1.11,5.35,4.4a6.29,6.29,0,0,1,.31,3.41l-3.49-.93a4.92,4.92,0,0,0-.37-2,3.91,3.91,0,0,0-5.82-1.08,7.82,7.82,0,0,0-2.24,4,6.8,6.8,0,0,0,0,4.51,3.69,3.69,0,0,0,2.51,2.17,3.37,3.37,0,0,0,3.06-.47,5.37,5.37,0,0,0,1.38-1.7l3.46.93a7.8,7.8,0,0,1-3.48,3.82,6.88,6.88,0,0,1-5.18.44,7.31,7.31,0,0,1-5-3.81,9.65,9.65,0,0,1-.33-6.9C313.07,71.67,314.44,69.64,316.41,68.47Z"/><path class="cls-3" d="M338.28,73.8,342,75.43,340.73,93.7l-3.59-1.56.37-3.71-5.83-2.54-2.49,2.79-3.46-1.51Zm-4.51,9.75,4.05,1.77.72-7.1Z"/><path class="cls-3" d="M349.69,79.05l3.3,1.47-5.78,12.94L355.09,97l-1.27,2.84-11.17-5Z"/><path class="cls-3" d="M361.7,84.57l3.54.67-2.65,13.92,8.47,1.62-.58,3-12-2.3Z"/><path class="cls-3" d="M396.06,92l4.86,1.81-6,16.19-3.15-1.18,4.08-11,.51-1.32c.21-.56.38-1,.5-1.3l-8.13,12.43-3.29-1.22,2-14.72q-.18.47-.48,1.32c-.21.57-.37,1-.48,1.33l-4.09,10.94-3.15-1.17,6-16.19,4.92,1.84-1.8,13.82Z"/><path class="cls-3" d="M408.71,117.56a9,9,0,0,1-9.31-6.43q-.75-3.54,1.89-7.36t6.22-4.37a9,9,0,0,1,9.31,6.44c.53,2.3-.11,4.74-1.9,7.35S411.08,117.2,408.71,117.56Zm-.36-3.44a7.08,7.08,0,0,0,3.6-3,7.17,7.17,0,0,0,1.52-4.42,4.13,4.13,0,0,0-1.9-3.24,4.17,4.17,0,0,0-3.72-.64,8.52,8.52,0,0,0-5.11,7.4,4.2,4.2,0,0,0,1.91,3.25A4.13,4.13,0,0,0,408.35,114.12Z"/><path class="cls-3" d="M431.77,117.49l3.69,3.65-12.15,12.28-2.39-2.36,8.22-8.31,1-1,1-1-12.52,8-2.49-2.47L424,113.71l-1,1-1,1-8.22,8.3-2.39-2.36,12.15-12.28,3.73,3.69L420,125Z"/></g></g><g id="Drone"><path class="cls-6" d="M421.8,54.07l-7.74-2a100.43,100.43,0,0,0-56.15-14.2l-7.92-2a2.32,2.32,0,0,0-1.14,4.49l5.45,1.37,6.62,5.82-6.46,27.92c-.32,1.39,1.3,1.92,1.8.59,0,0,5.08-20.92,9.21-24.38,0,0,0,0,0-.07,3.69,3.3,6.17,5.69,6.82,6.93a1.89,1.89,0,0,0,1.22,1l16.25,4.11a1.92,1.92,0,0,0,1.53-.26c1.16-.78,4.5-1.71,9.34-2.87a.4.4,0,0,0,0,.11c2,5-3.49,25.82-3.49,25.82-.19,1.41,1.49,1.71,1.86.34l7.61-27.66,8.52-2,5.51,1.4a2.32,2.32,0,1,0,1.13-4.49Z"/><path class="cls-6" d="M353.59,29.18l-2.25-.57a.92.92,0,0,0-1.12.67l-1.14,4.49a.93.93,0,0,0,.67,1.12L356,36.48a.92.92,0,0,0,1.12-.67l1.14-4.49a.93.93,0,0,0-.67-1.12l-2.25-.57.51-2c.93.73,3.14,2.31,4.64,2.16,4.9-.59,11.34,1.07,14.85,1.72.15,0,.17-.1,0-.14l-19.22-4.86a.93.93,0,0,0-1.8-.46l-19.22-4.86c-.15,0-.2.09-.05.14C338.5,22.4,345,24,349,26.85c1.25.85,3.95.51,5.11.31Z"/><path class="cls-6" d="M441.83,48.15,422.6,43.29a.92.92,0,1,0-1.79-.46L401.58,38c-.14,0-.19.09-.05.14,3.4,1.09,9.86,2.69,13.89,5.54,1.24.85,3.95.51,5.1.31L420,46l-2.24-.57a.93.93,0,0,0-1.13.67l-1.13,4.49a.92.92,0,0,0,.67,1.12l6.28,1.59a.93.93,0,0,0,1.13-.67l1.13-4.49a.91.91,0,0,0-.67-1.12l-2.24-.57.51-2c.92.73,3.14,2.31,4.64,2.16,4.9-.59,11.34,1.07,14.85,1.72C442,48.32,442,48.19,441.83,48.15Z"/><rect class="cls-6" x="379.84" y="55.05" width="2.78" height="16.67" rx="0.93" transform="translate(226.3 417.44) rotate(-75.81)"/><rect class="cls-6" x="378.47" y="65.12" width="3.7" height="3.7" rx="0.93" transform="translate(222.14 419.27) rotate(-75.81)"/><path class="cls-6" d="M384.24,70.36l-9-2.27a.91.91,0,0,0-1.12.67l-1.82,7.18a.93.93,0,0,0,.67,1.12l9,2.27a.91.91,0,0,0,1.12-.67l1.82-7.18A.92.92,0,0,0,384.24,70.36Zm-6.3,6a2.77,2.77,0,1,1,3.37-2A2.78,2.78,0,0,1,377.94,76.4Z"/></g><g id="Drone_Motion_Lines" data-name="Drone Motion Lines"><rect class="cls-6" x="390.43" y="16" width="22.14" height="1" transform="translate(258.88 392.18) rotate(-71.57)"/><rect class="cls-6" x="383.43" y="19" width="22.14" height="1" transform="translate(251.25 387.59) rotate(-71.57)"/></g></g></svg>