<svg xmlns="http://www.w3.org/2000/svg" viewBox="0 0 480 200"><defs><style>.cls-1{fill:#d4b996;}.cls-2{fill:#8e3634;}.cls-3{fill:#554739;}.cls-4{fill:#17333f;}.cls-5{fill:#d5a00f;}.cls-6{fill:#549b31;}.cls-7{fill:#f4cdbb;}.cls-8{fill:#367d81;}.cls-9{fill:#0d0b0c;}.cls-10{fill:#dddad7;}</style></defs><title>scent_dispenser</title><g id="Background"><rect class="cls-1" width="480" height="200"/></g><g id="Layer_1" data-name="Layer 1"><path class="cls-2" d="M382.61,145.3l-44.69,10.75h0l-.42.1v0a6.56,6.56,0,0,0,3.06,12.72v0l.43-.1h0l44.69-10.75Z"/><path class="cls-2" d="M430.57,82.12a11.21,11.21,0,1,0,8.89,13.08A11.2,11.2,0,0,0,430.57,82.12Z"/><path class="cls-2" d="M416.89,128.19a10.75,10.75,0,0,1-1.18,1c-4.64,3.25-13.84,4.69-29.81,4.69v0a4.36,4.36,0,1,0,0,8.72v0c13.32,0,22.47-1,28.88-3.3l-2.3,12.13,12.9,2.45,8.49-44.73L421,106.7Z"/><path class="cls-3" d="M453.16,87.46,450,86.73a8,8,0,0,0-9.6,6L428.81,142.6H382.52a8,8,0,0,0-8,8v11.63L353,167.56a5.94,5.94,0,0,0-4.33,7.17l.31,1.24a5.94,5.94,0,0,0,7.17,4.33l18.41-4.55V188a8,8,0,0,0,8,8h48.79a8,8,0,0,0,8-8v-5.4l19.84-85.54A8,8,0,0,0,453.16,87.46Z"/><g id="Flat_Panel_TV" data-name="Flat Panel TV"><rect class="cls-3" x="246.38" y="76.06" width="5.25" height="80.54"/><rect class="cls-3" x="235" y="172.36" width="42.9" height="23.64"/><rect class="cls-3" x="243.75" y="110.2" width="3.5" height="19.26"/><path class="cls-3" d="M271.77,168H241.13a1.76,1.76,0,0,0-1.75,1.75v1.75h34.14v-1.75A1.76,1.76,0,0,0,271.77,168Z"/><path class="cls-3" d="M244.63,143.37V110.2H242v34.2A6.94,6.94,0,0,1,244.63,143.37Z"/><path class="cls-3" d="M242,150.45v18.41h2.63V147.54A6.25,6.25,0,0,0,242,150.45Z"/></g><path class="cls-3" d="M335.52,59s1.82-21.28,7.05-19.38S335.52,59,335.52,59Z"/><path class="cls-3" d="M335.52,59s-12.28,17.47-7.05,19.38S335.52,59,335.52,59Z"/><rect class="cls-3" x="329.92" y="57.14" width="5.77" height="1.65" transform="translate(39.9 -110.33) rotate(20)"/><circle class="cls-3" cx="335.52" cy="58.95" r="1.65" transform="translate(165.37 354.08) rotate(-70)"/><path class="cls-3" d="M331.09,49.44l-19.38-7.05a8.46,8.46,0,0,0-7.36.48,5.82,5.82,0,0,1,.95.26.41.41,0,0,1-.28.78,4.63,4.63,0,0,0-1.65-.29,7,7,0,0,0-1.62,2.17l2.67,1a.41.41,0,0,1-.28.78l-2.71-1A7.5,7.5,0,0,0,301,49a4.74,4.74,0,0,0,1.8,1.13.41.41,0,0,1-.28.78,5.86,5.86,0,0,1-1.44-.77,8.15,8.15,0,0,0,5.59,6.23L326,63.39a.83.83,0,0,0,1.06-.49l4.51-12.4A.83.83,0,0,0,331.09,49.44Z"/><polygon class="cls-3" points="320 43.75 320 17 317 17 317 43.52 320 43.75"/><path class="cls-3" d="M321.21,43.72,316.48,42a1.44,1.44,0,0,0-1.86.78l-.21.59,7.52,2.74.21-.59A1.44,1.44,0,0,0,321.21,43.72Z"/><path class="cls-3" d="M306.61,15.5v1.86a1.85,1.85,0,0,0,1.84,1.84H328.7a1.85,1.85,0,0,0,1.84-1.84V15.5Z"/><rect class="cls-3" x="306.61" y="10.51" width="23.94" height="1.99"/><path class="cls-4" d="M41.76,30.16a.5.5,0,0,1-.47-.67l.48-1.33a.5.5,0,1,1,.94.34l-.48,1.33A.5.5,0,0,1,41.76,30.16Z"/><path class="cls-4" d="M43.26,30.16a.5.5,0,0,1-.47-.67l.48-1.33a.5.5,0,1,1,.94.34l-.48,1.33A.5.5,0,0,1,43.26,30.16Z"/><path class="cls-4" d="M44.76,30.16a.5.5,0,0,1-.47-.67l.48-1.33a.5.5,0,1,1,.94.34l-.48,1.33A.5.5,0,0,1,44.76,30.16Z"/><path class="cls-4" d="M46.26,30.16a.5.5,0,0,1-.47-.67l.48-1.33a.5.5,0,1,1,.94.34l-.48,1.33A.5.5,0,0,1,46.26,30.16Z"/><path class="cls-4" d="M47.76,30.16a.5.5,0,0,1-.47-.67l.48-1.33a.5.5,0,1,1,.94.34l-.48,1.33A.5.5,0,0,1,47.76,30.16Z"/><path class="cls-4" d="M49.26,30.16a.5.5,0,0,1-.47-.67l.48-1.33a.5.5,0,1,1,.94.34l-.48,1.33A.5.5,0,0,1,49.26,30.16Z"/><path class="cls-4" d="M50.76,30.16a.5.5,0,0,1-.47-.67l.48-1.33a.5.5,0,1,1,.94.34l-.48,1.33A.5.5,0,0,1,50.76,30.16Z"/><path class="cls-4" d="M52.26,30.16a.5.5,0,0,1-.47-.67l.48-1.33a.5.5,0,1,1,.94.34l-.48,1.33A.5.5,0,0,1,52.26,30.16Z"/><path class="cls-4" d="M53.76,30.16a.5.5,0,0,1-.47-.67l.48-1.33a.5.5,0,1,1,.94.34l-.48,1.33A.5.5,0,0,1,53.76,30.16Z"/><path class="cls-4" d="M55.26,30.16a.5.5,0,0,1-.47-.67l.48-1.33a.5.5,0,1,1,.94.34l-.48,1.33A.5.5,0,0,1,55.26,30.16Z"/><path class="cls-4" d="M56.76,30.16a.5.5,0,0,1-.47-.67l.48-1.33a.5.5,0,1,1,.94.34l-.48,1.33A.5.5,0,0,1,56.76,30.16Z"/><path class="cls-4" d="M58.26,30.16a.5.5,0,0,1-.47-.67l.48-1.33a.5.5,0,1,1,.94.34l-.48,1.33A.5.5,0,0,1,58.26,30.16Z"/><path class="cls-4" d="M59.76,30.16a.5.5,0,0,1-.47-.67l.48-1.33a.5.5,0,1,1,.94.34l-.48,1.33A.5.5,0,0,1,59.76,30.16Z"/><path class="cls-4" d="M61.26,30.16a.5.5,0,0,1-.47-.67l.48-1.33a.5.5,0,1,1,.94.34l-.48,1.33A.5.5,0,0,1,61.26,30.16Z"/><path class="cls-4" d="M62.76,30.16a.5.5,0,0,1-.47-.67l.48-1.33a.5.5,0,1,1,.94.34l-.48,1.33A.5.5,0,0,1,62.76,30.16Z"/><path class="cls-4" d="M64.26,30.16a.5.5,0,0,1-.47-.67l.48-1.33a.5.5,0,1,1,.94.34l-.48,1.33A.5.5,0,0,1,64.26,30.16Z"/><path class="cls-4" d="M65.76,30.16a.5.5,0,0,1-.47-.67l.48-1.33a.5.5,0,1,1,.94.34l-.48,1.33A.5.5,0,0,1,65.76,30.16Z"/><path class="cls-4" d="M67.26,30.16a.5.5,0,0,1-.47-.67l.48-1.33a.5.5,0,1,1,.94.34l-.48,1.33A.5.5,0,0,1,67.26,30.16Z"/><path class="cls-4" d="M68.76,30.16a.5.5,0,0,1-.47-.67l.48-1.33a.5.5,0,1,1,.94.34l-.48,1.33A.5.5,0,0,1,68.76,30.16Z"/><path class="cls-4" d="M70.26,30.16a.5.5,0,0,1-.47-.67l.48-1.33a.5.5,0,1,1,.94.34l-.48,1.33A.5.5,0,0,1,70.26,30.16Z"/><path class="cls-4" d="M71.76,30.16a.5.5,0,0,1-.47-.67l.48-1.33a.5.5,0,1,1,.94.34l-.48,1.33A.5.5,0,0,1,71.76,30.16Z"/><path class="cls-4" d="M73.26,30.16a.5.5,0,0,1-.47-.67l.48-1.33a.5.5,0,1,1,.94.34l-.48,1.33A.5.5,0,0,1,73.26,30.16Z"/><path class="cls-4" d="M74.76,30.16a.5.5,0,0,1-.47-.67l.48-1.33a.5.5,0,0,1,.94.34l-.48,1.33A.5.5,0,0,1,74.76,30.16Z"/><path class="cls-4" d="M76.26,30.16a.5.5,0,0,1-.47-.67l.48-1.33a.5.5,0,0,1,.94.34l-.48,1.33A.5.5,0,0,1,76.26,30.16Z"/><path class="cls-4" d="M77.76,30.16a.5.5,0,0,1-.47-.67l.48-1.33a.5.5,0,0,1,.94.34l-.48,1.33A.5.5,0,0,1,77.76,30.16Z"/><path class="cls-4" d="M79.26,30.16a.5.5,0,0,1-.47-.67l.48-1.33a.5.5,0,0,1,.94.34l-.48,1.33A.5.5,0,0,1,79.26,30.16Z"/><path class="cls-4" d="M80.76,30.16a.5.5,0,0,1-.47-.67l.48-1.33a.5.5,0,0,1,.94.34l-.48,1.33A.5.5,0,0,1,80.76,30.16Z"/><path class="cls-4" d="M82.26,30.16a.5.5,0,0,1-.47-.67l.48-1.33a.5.5,0,0,1,.94.34l-.48,1.33A.5.5,0,0,1,82.26,30.16Z"/><path class="cls-4" d="M83.76,30.16a.5.5,0,0,1-.47-.67l.48-1.33a.5.5,0,0,1,.94.34l-.48,1.33A.5.5,0,0,1,83.76,30.16Z"/><path class="cls-4" d="M85.26,30.16a.5.5,0,0,1-.47-.67l.48-1.33a.5.5,0,0,1,.94.34l-.48,1.33A.5.5,0,0,1,85.26,30.16Z"/><path class="cls-4" d="M86.76,30.16a.5.5,0,0,1-.47-.67l.48-1.33a.5.5,0,0,1,.94.34l-.48,1.33A.5.5,0,0,1,86.76,30.16Z"/><path class="cls-4" d="M88.26,30.16a.5.5,0,0,1-.47-.67l.48-1.33a.5.5,0,0,1,.94.34l-.48,1.33A.5.5,0,0,1,88.26,30.16Z"/><path class="cls-4" d="M89.76,30.16a.5.5,0,0,1-.47-.67l.48-1.33a.5.5,0,0,1,.94.34l-.48,1.33A.5.5,0,0,1,89.76,30.16Z"/><path class="cls-4" d="M91.26,30.16a.5.5,0,0,1-.47-.67l.48-1.33a.5.5,0,0,1,.94.34l-.48,1.33A.5.5,0,0,1,91.26,30.16Z"/><path class="cls-4" d="M92.76,30.16a.5.5,0,0,1-.47-.67l.48-1.33a.5.5,0,0,1,.94.34l-.48,1.33A.5.5,0,0,1,92.76,30.16Z"/><path class="cls-4" d="M94.26,30.16a.5.5,0,0,1-.47-.67l.48-1.33a.5.5,0,0,1,.94.34l-.48,1.33A.5.5,0,0,1,94.26,30.16Z"/><path class="cls-4" d="M95.76,30.16a.5.5,0,0,1-.47-.67l.48-1.33a.5.5,0,0,1,.94.34l-.48,1.33A.5.5,0,0,1,95.76,30.16Z"/><path class="cls-4" d="M97.26,30.16a.5.5,0,0,1-.47-.67l.48-1.33a.5.5,0,0,1,.94.34l-.48,1.33A.5.5,0,0,1,97.26,30.16Z"/><path class="cls-4" d="M98.76,30.16a.5.5,0,0,1-.47-.67l.48-1.33a.5.5,0,0,1,.94.34l-.48,1.33A.5.5,0,0,1,98.76,30.16Z"/><path class="cls-4" d="M100.26,30.16a.5.5,0,0,1-.47-.67l.48-1.33a.5.5,0,1,1,.94.34l-.48,1.33A.5.5,0,0,1,100.26,30.16Z"/><path class="cls-4" d="M101.76,30.16a.5.5,0,0,1-.47-.67l.48-1.33a.5.5,0,1,1,.94.34l-.48,1.33A.5.5,0,0,1,101.76,30.16Z"/><path class="cls-4" d="M103.26,30.16a.5.5,0,0,1-.47-.67l.48-1.33a.5.5,0,1,1,.94.34l-.48,1.33A.5.5,0,0,1,103.26,30.16Z"/><path class="cls-4" d="M104.76,30.16a.5.5,0,0,1-.47-.67l.48-1.33a.5.5,0,1,1,.94.34l-.48,1.33A.5.5,0,0,1,104.76,30.16Z"/><path class="cls-4" d="M106.26,30.16a.5.5,0,0,1-.47-.67l.48-1.33a.5.5,0,1,1,.94.34l-.48,1.33A.5.5,0,0,1,106.26,30.16Z"/><path class="cls-4" d="M107.76,30.16a.5.5,0,0,1-.47-.67l.48-1.33a.5.5,0,1,1,.94.34l-.48,1.33A.5.5,0,0,1,107.76,30.16Z"/><path class="cls-4" d="M109.26,30.16a.5.5,0,0,1-.47-.67l.48-1.33a.5.5,0,1,1,.94.34l-.48,1.33A.5.5,0,0,1,109.26,30.16Z"/><path class="cls-4" d="M110.76,30.16a.5.5,0,0,1-.47-.67l.48-1.33a.5.5,0,1,1,.94.34l-.48,1.33A.5.5,0,0,1,110.76,30.16Z"/><path class="cls-4" d="M112.26,30.16a.5.5,0,0,1-.47-.67l.48-1.33a.5.5,0,1,1,.94.34l-.48,1.33A.5.5,0,0,1,112.26,30.16Z"/><path class="cls-4" d="M113.76,30.16a.5.5,0,0,1-.47-.67l.48-1.33a.5.5,0,1,1,.94.34l-.48,1.33A.5.5,0,0,1,113.76,30.16Z"/><path class="cls-4" d="M115.26,30.16a.5.5,0,0,1-.47-.67l.48-1.33a.5.5,0,1,1,.94.34l-.48,1.33A.5.5,0,0,1,115.26,30.16Z"/><path class="cls-4" d="M116.76,30.16a.5.5,0,0,1-.47-.67l.48-1.33a.5.5,0,1,1,.94.34l-.48,1.33A.5.5,0,0,1,116.76,30.16Z"/><path class="cls-4" d="M118.26,30.16a.5.5,0,0,1-.47-.67l.48-1.33a.5.5,0,1,1,.94.34l-.48,1.33A.5.5,0,0,1,118.26,30.16Z"/><path class="cls-4" d="M119.76,30.16a.5.5,0,0,1-.47-.67l.48-1.33a.5.5,0,1,1,.94.34l-.48,1.33A.5.5,0,0,1,119.76,30.16Z"/><path class="cls-4" d="M121.26,30.16a.5.5,0,0,1-.47-.67l.48-1.33a.5.5,0,1,1,.94.34l-.48,1.33A.5.5,0,0,1,121.26,30.16Z"/><path class="cls-4" d="M122.76,30.16a.5.5,0,0,1-.47-.67l.48-1.33a.5.5,0,1,1,.94.34l-.48,1.33A.5.5,0,0,1,122.76,30.16Z"/><path class="cls-4" d="M124.26,30.16a.5.5,0,0,1-.47-.67l.48-1.33a.5.5,0,1,1,.94.34l-.48,1.33A.5.5,0,0,1,124.26,30.16Z"/><path class="cls-4" d="M125.76,30.16a.5.5,0,0,1-.47-.67l.48-1.33a.5.5,0,1,1,.94.34l-.48,1.33A.5.5,0,0,1,125.76,30.16Z"/><path class="cls-4" d="M127.26,30.16a.5.5,0,0,1-.47-.67l.48-1.33a.5.5,0,1,1,.94.34l-.48,1.33A.5.5,0,0,1,127.26,30.16Z"/><path class="cls-4" d="M128.76,30.16a.5.5,0,0,1-.47-.67l.48-1.33a.5.5,0,1,1,.94.34l-.48,1.33A.5.5,0,0,1,128.76,30.16Z"/><path class="cls-4" d="M130.26,30.16a.5.5,0,0,1-.47-.67l.48-1.33a.5.5,0,1,1,.94.34l-.48,1.33A.5.5,0,0,1,130.26,30.16Z"/><path class="cls-4" d="M131.76,30.16a.5.5,0,0,1-.47-.67l.48-1.33a.5.5,0,1,1,.94.34l-.48,1.33A.5.5,0,0,1,131.76,30.16Z"/><path class="cls-4" d="M133.26,30.16a.5.5,0,0,1-.47-.67l.48-1.33a.5.5,0,1,1,.94.34l-.48,1.33A.5.5,0,0,1,133.26,30.16Z"/><path class="cls-4" d="M134.76,30.16a.5.5,0,0,1-.47-.67l.48-1.33a.5.5,0,1,1,.94.34l-.48,1.33A.5.5,0,0,1,134.76,30.16Z"/><path class="cls-4" d="M136.26,30.16a.5.5,0,0,1-.47-.67l.48-1.33a.5.5,0,1,1,.94.34l-.48,1.33A.5.5,0,0,1,136.26,30.16Z"/><path class="cls-4" d="M137.76,30.16a.5.5,0,0,1-.47-.67l.48-1.33a.5.5,0,1,1,.94.34l-.48,1.33A.5.5,0,0,1,137.76,30.16Z"/><path class="cls-4" d="M139.26,30.16a.5.5,0,0,1-.47-.67l.48-1.33a.5.5,0,1,1,.94.34l-.48,1.33A.5.5,0,0,1,139.26,30.16Z"/><path class="cls-4" d="M140.76,30.16a.5.5,0,0,1-.47-.67l.48-1.33a.5.5,0,1,1,.94.34l-.48,1.33A.5.5,0,0,1,140.76,30.16Z"/><path class="cls-4" d="M142.26,30.16a.5.5,0,0,1-.47-.67l.48-1.33a.5.5,0,1,1,.94.34l-.48,1.33A.5.5,0,0,1,142.26,30.16Z"/><path class="cls-4" d="M143.76,30.16a.5.5,0,0,1-.47-.67l.48-1.33a.5.5,0,1,1,.94.34l-.48,1.33A.5.5,0,0,1,143.76,30.16Z"/><path class="cls-4" d="M145.26,30.16a.5.5,0,0,1-.47-.67l.48-1.33a.5.5,0,1,1,.94.34l-.48,1.33A.5.5,0,0,1,145.26,30.16Z"/><path class="cls-4" d="M146.76,30.16a.5.5,0,0,1-.47-.67l.48-1.33a.5.5,0,1,1,.94.34l-.48,1.33A.5.5,0,0,1,146.76,30.16Z"/><path class="cls-4" d="M148.26,30.16a.5.5,0,0,1-.47-.67l.48-1.33a.5.5,0,1,1,.94.34l-.48,1.33A.5.5,0,0,1,148.26,30.16Z"/><path class="cls-4" d="M149.76,30.16a.5.5,0,0,1-.47-.67l.48-1.33a.5.5,0,1,1,.94.34l-.48,1.33A.5.5,0,0,1,149.76,30.16Z"/><path class="cls-4" d="M151.26,30.16a.5.5,0,0,1-.47-.67l.48-1.33a.5.5,0,1,1,.94.34l-.48,1.33A.5.5,0,0,1,151.26,30.16Z"/><path class="cls-4" d="M152.76,30.16a.5.5,0,0,1-.47-.67l.48-1.33a.5.5,0,1,1,.94.34l-.48,1.33A.5.5,0,0,1,152.76,30.16Z"/><path class="cls-4" d="M154.26,30.16a.5.5,0,0,1-.47-.67l.48-1.33a.5.5,0,1,1,.94.34l-.48,1.33A.5.5,0,0,1,154.26,30.16Z"/><path class="cls-4" d="M155.76,30.16a.5.5,0,0,1-.47-.67l.48-1.33a.5.5,0,1,1,.94.34l-.48,1.33A.5.5,0,0,1,155.76,30.16Z"/><path class="cls-4" d="M157.26,30.16a.5.5,0,0,1-.47-.67l.48-1.33a.5.5,0,1,1,.94.34l-.48,1.33A.5.5,0,0,1,157.26,30.16Z"/><path class="cls-4" d="M158.76,30.16a.5.5,0,0,1-.47-.67l.48-1.33a.5.5,0,1,1,.94.34l-.48,1.33A.5.5,0,0,1,158.76,30.16Z"/><path class="cls-4" d="M160.26,30.16a.5.5,0,0,1-.47-.67l.48-1.33a.5.5,0,1,1,.94.34l-.48,1.33A.5.5,0,0,1,160.26,30.16Z"/><path class="cls-4" d="M161.76,30.16a.5.5,0,0,1-.47-.67l.48-1.33a.5.5,0,1,1,.94.34l-.48,1.33A.5.5,0,0,1,161.76,30.16Z"/><path class="cls-4" d="M163.26,30.16a.5.5,0,0,1-.47-.67l.48-1.33a.5.5,0,1,1,.94.34l-.48,1.33A.5.5,0,0,1,163.26,30.16Z"/><path class="cls-4" d="M164.76,30.16a.5.5,0,0,1-.47-.67l.48-1.33a.5.5,0,1,1,.94.34l-.48,1.33A.5.5,0,0,1,164.76,30.16Z"/><path class="cls-4" d="M166.26,30.16a.5.5,0,0,1-.47-.67l.48-1.33a.5.5,0,1,1,.94.34l-.48,1.33A.5.5,0,0,1,166.26,30.16Z"/><path class="cls-4" d="M167.76,30.16a.5.5,0,0,1-.47-.67l.48-1.33a.5.5,0,1,1,.94.34l-.48,1.33A.5.5,0,0,1,167.76,30.16Z"/><path class="cls-4" d="M169.26,30.16a.5.5,0,0,1-.47-.67l.48-1.33a.5.5,0,1,1,.94.34l-.48,1.33A.5.5,0,0,1,169.26,30.16Z"/><path class="cls-4" d="M170.76,30.16a.5.5,0,0,1-.47-.67l.48-1.33a.5.5,0,1,1,.94.34l-.48,1.33A.5.5,0,0,1,170.76,30.16Z"/><path class="cls-4" d="M172.26,30.16a.5.5,0,0,1-.47-.67l.48-1.33a.5.5,0,1,1,.94.34l-.48,1.33A.5.5,0,0,1,172.26,30.16Z"/><path class="cls-4" d="M173.76,30.16a.5.5,0,0,1-.47-.67l.48-1.33a.5.5,0,1,1,.94.34l-.48,1.33A.5.5,0,0,1,173.76,30.16Z"/><path class="cls-4" d="M175.26,30.16a.5.5,0,0,1-.47-.67l.48-1.33a.5.5,0,1,1,.94.34l-.48,1.33A.5.5,0,0,1,175.26,30.16Z"/><path class="cls-4" d="M176.76,30.16a.5.5,0,0,1-.47-.67l.48-1.33a.5.5,0,1,1,.94.34l-.48,1.33A.5.5,0,0,1,176.76,30.16Z"/><path class="cls-4" d="M178.26,30.16a.5.5,0,0,1-.47-.67l.48-1.33a.5.5,0,1,1,.94.34l-.48,1.33A.5.5,0,0,1,178.26,30.16Z"/><path class="cls-4" d="M179.76,30.16a.5.5,0,0,1-.47-.67l.48-1.33a.5.5,0,1,1,.94.34l-.48,1.33A.5.5,0,0,1,179.76,30.16Z"/><path class="cls-4" d="M181.26,30.16a.5.5,0,0,1-.47-.67l.48-1.33a.5.5,0,1,1,.94.34l-.48,1.33A.5.5,0,0,1,181.26,30.16Z"/><path class="cls-4" d="M182.76,30.16a.5.5,0,0,1-.47-.67l.48-1.33a.5.5,0,1,1,.94.34l-.48,1.33A.5.5,0,0,1,182.76,30.16Z"/><path class="cls-4" d="M184.26,30.16a.5.5,0,0,1-.47-.67l.48-1.33a.5.5,0,1,1,.94.34l-.48,1.33A.5.5,0,0,1,184.26,30.16Z"/><path class="cls-4" d="M185.76,30.16a.5.5,0,0,1-.47-.67l.48-1.33a.5.5,0,1,1,.94.34l-.48,1.33A.5.5,0,0,1,185.76,30.16Z"/><path class="cls-4" d="M187.26,30.16a.5.5,0,0,1-.47-.67l.48-1.33a.5.5,0,1,1,.94.34l-.48,1.33A.5.5,0,0,1,187.26,30.16Z"/><path class="cls-4" d="M188.76,30.16a.5.5,0,0,1-.47-.67l.48-1.33a.5.5,0,1,1,.94.34l-.48,1.33A.5.5,0,0,1,188.76,30.16Z"/><path class="cls-4" d="M190.26,30.16a.5.5,0,0,1-.47-.67l.48-1.33a.5.5,0,1,1,.94.34l-.48,1.33A.5.5,0,0,1,190.26,30.16Z"/><path class="cls-4" d="M191.76,30.16a.5.5,0,0,1-.47-.67l.48-1.33a.5.5,0,1,1,.94.34l-.48,1.33A.5.5,0,0,1,191.76,30.16Z"/><path class="cls-4" d="M193.26,30.16a.5.5,0,0,1-.47-.67l.48-1.33a.5.5,0,1,1,.94.34l-.48,1.33A.5.5,0,0,1,193.26,30.16Z"/><path class="cls-4" d="M194.76,30.16a.5.5,0,0,1-.47-.67l.48-1.33a.5.5,0,1,1,.94.34l-.48,1.33A.5.5,0,0,1,194.76,30.16Z"/><path class="cls-4" d="M196.26,30.16a.5.5,0,0,1-.47-.67l.48-1.33a.5.5,0,1,1,.94.34l-.48,1.33A.5.5,0,0,1,196.26,30.16Z"/><path class="cls-4" d="M197.76,30.16a.5.5,0,0,1-.47-.67l.48-1.33a.5.5,0,1,1,.94.34l-.48,1.33A.5.5,0,0,1,197.76,30.16Z"/><path class="cls-4" d="M199.26,30.16a.5.5,0,0,1-.47-.67l.48-1.33a.5.5,0,1,1,.94.34l-.48,1.33A.5.5,0,0,1,199.26,30.16Z"/><path class="cls-4" d="M200.76,30.16a.5.5,0,0,1-.47-.67l.48-1.33a.5.5,0,1,1,.94.34l-.48,1.33A.5.5,0,0,1,200.76,30.16Z"/><path class="cls-4" d="M202.26,30.16a.5.5,0,0,1-.47-.67l.48-1.33a.5.5,0,1,1,.94.34l-.48,1.33A.5.5,0,0,1,202.26,30.16Z"/><path class="cls-4" d="M203.76,30.16a.5.5,0,0,1-.47-.67l.48-1.33a.5.5,0,1,1,.94.34l-.48,1.33A.5.5,0,0,1,203.76,30.16Z"/><path class="cls-4" d="M205.26,30.16a.5.5,0,0,1-.47-.67l.48-1.33a.5.5,0,1,1,.94.34l-.48,1.33A.5.5,0,0,1,205.26,30.16Z"/><path class="cls-4" d="M206.76,30.16a.5.5,0,0,1-.47-.67l.48-1.33a.5.5,0,1,1,.94.34l-.48,1.33A.5.5,0,0,1,206.76,30.16Z"/><path class="cls-4" d="M208.26,30.16a.5.5,0,0,1-.47-.67l.48-1.33a.5.5,0,1,1,.94.34l-.48,1.33A.5.5,0,0,1,208.26,30.16Z"/><path class="cls-4" d="M209.76,30.16a.5.5,0,0,1-.47-.67l.48-1.33a.5.5,0,1,1,.94.34l-.48,1.33A.5.5,0,0,1,209.76,30.16Z"/><path class="cls-4" d="M211.26,30.16a.5.5,0,0,1-.47-.67l.48-1.33a.5.5,0,1,1,.94.34l-.48,1.33A.5.5,0,0,1,211.26,30.16Z"/><path class="cls-4" d="M212.76,30.16a.5.5,0,0,1-.47-.67l.48-1.33a.5.5,0,1,1,.94.34l-.48,1.33A.5.5,0,0,1,212.76,30.16Z"/><path class="cls-4" d="M214.26,30.16a.5.5,0,0,1-.47-.67l.48-1.33a.5.5,0,1,1,.94.34l-.48,1.33A.5.5,0,0,1,214.26,30.16Z"/><path class="cls-4" d="M215.76,30.16a.5.5,0,0,1-.47-.67l.48-1.33a.5.5,0,1,1,.94.34l-.48,1.33A.5.5,0,0,1,215.76,30.16Z"/><path class="cls-4" d="M217.26,30.16a.5.5,0,0,1-.47-.67l.48-1.33a.5.5,0,1,1,.94.34l-.48,1.33A.5.5,0,0,1,217.26,30.16Z"/><path class="cls-4" d="M218.76,30.16a.5.5,0,0,1-.47-.67l.48-1.33a.5.5,0,1,1,.94.34l-.48,1.33A.5.5,0,0,1,218.76,30.16Z"/><path class="cls-4" d="M220.26,30.16a.5.5,0,0,1-.47-.67l.48-1.33a.5.5,0,1,1,.94.34l-.48,1.33A.5.5,0,0,1,220.26,30.16Z"/><path class="cls-4" d="M221.76,30.16a.5.5,0,0,1-.47-.67l.48-1.33a.5.5,0,1,1,.94.34l-.48,1.33A.5.5,0,0,1,221.76,30.16Z"/><path class="cls-4" d="M223.26,30.16a.5.5,0,0,1-.47-.67l.48-1.33a.5.5,0,1,1,.94.34l-.48,1.33A.5.5,0,0,1,223.26,30.16Z"/><path class="cls-4" d="M224.76,30.16a.5.5,0,0,1-.47-.67l.48-1.33a.5.5,0,1,1,.94.34l-.48,1.33A.5.5,0,0,1,224.76,30.16Z"/><path class="cls-4" d="M226.26,30.16a.5.5,0,0,1-.47-.67l.48-1.33a.5.5,0,1,1,.94.34l-.48,1.33A.5.5,0,0,1,226.26,30.16Z"/><path class="cls-4" d="M227.76,30.16a.5.5,0,0,1-.47-.67l.48-1.33a.5.5,0,1,1,.94.34l-.48,1.33A.5.5,0,0,1,227.76,30.16Z"/><path class="cls-4" d="M229.26,30.16a.5.5,0,0,1-.47-.67l.48-1.33a.5.5,0,1,1,.94.34l-.48,1.33A.5.5,0,0,1,229.26,30.16Z"/><path class="cls-4" d="M230.76,30.16a.5.5,0,0,1-.47-.67l.48-1.33a.5.5,0,1,1,.94.34l-.48,1.33A.5.5,0,0,1,230.76,30.16Z"/><path class="cls-4" d="M232.26,30.16a.5.5,0,0,1-.47-.67l.48-1.33a.5.5,0,1,1,.94.34l-.48,1.33A.5.5,0,0,1,232.26,30.16Z"/><path class="cls-4" d="M233.76,30.16a.5.5,0,0,1-.47-.67l.48-1.33a.5.5,0,1,1,.94.34l-.48,1.33A.5.5,0,0,1,233.76,30.16Z"/><path class="cls-4" d="M235.26,30.16a.5.5,0,0,1-.47-.67l.48-1.33a.5.5,0,1,1,.94.34l-.48,1.33A.5.5,0,0,1,235.26,30.16Z"/><path class="cls-4" d="M236.76,30.16a.5.5,0,0,1-.47-.67l.48-1.33a.5.5,0,1,1,.94.34l-.48,1.33A.5.5,0,0,1,236.76,30.16Z"/><path class="cls-4" d="M238.26,30.16a.5.5,0,0,1-.47-.67l.48-1.33a.5.5,0,1,1,.94.34l-.48,1.33A.5.5,0,0,1,238.26,30.16Z"/><path class="cls-4" d="M239.76,30.16a.5.5,0,0,1-.47-.67l.48-1.33a.5.5,0,1,1,.94.34l-.48,1.33A.5.5,0,0,1,239.76,30.16Z"/><path class="cls-4" d="M241.26,30.16a.5.5,0,0,1-.47-.67l.48-1.33a.5.5,0,1,1,.94.34l-.48,1.33A.5.5,0,0,1,241.26,30.16Z"/><path class="cls-4" d="M242.76,30.16a.5.5,0,0,1-.47-.67l.48-1.33a.5.5,0,0,1,.94.34l-.48,1.33A.5.5,0,0,1,242.76,30.16Z"/><path class="cls-4" d="M244.26,30.16a.5.5,0,0,1-.47-.67l.48-1.33a.5.5,0,0,1,.94.34l-.48,1.33A.5.5,0,0,1,244.26,30.16Z"/><path class="cls-4" d="M245.76,30.16a.5.5,0,0,1-.47-.67l.48-1.33a.5.5,0,0,1,.94.34l-.48,1.33A.5.5,0,0,1,245.76,30.16Z"/><path class="cls-4" d="M247.26,30.16a.5.5,0,0,1-.47-.67l.48-1.33a.5.5,0,0,1,.94.34l-.48,1.33A.5.5,0,0,1,247.26,30.16Z"/><path class="cls-4" d="M248.76,30.16a.5.5,0,0,1-.47-.67l.48-1.33a.5.5,0,0,1,.94.34l-.48,1.33A.5.5,0,0,1,248.76,30.16Z"/><path class="cls-4" d="M250.26,30.16a.5.5,0,0,1-.47-.67l.48-1.33a.5.5,0,0,1,.94.34l-.48,1.33A.5.5,0,0,1,250.26,30.16Z"/><path class="cls-4" d="M251.76,30.16a.5.5,0,0,1-.47-.67l.48-1.33a.5.5,0,0,1,.94.34l-.48,1.33A.5.5,0,0,1,251.76,30.16Z"/><path class="cls-4" d="M253.26,30.16a.5.5,0,0,1-.47-.67l.48-1.33a.5.5,0,0,1,.94.34l-.48,1.33A.5.5,0,0,1,253.26,30.16Z"/><path class="cls-4" d="M254.76,30.16a.5.5,0,0,1-.47-.67l.48-1.33a.5.5,0,0,1,.94.34l-.48,1.33A.5.5,0,0,1,254.76,30.16Z"/><path class="cls-4" d="M256.26,30.16a.5.5,0,0,1-.47-.67l.48-1.33a.5.5,0,0,1,.94.34l-.48,1.33A.5.5,0,0,1,256.26,30.16Z"/><path class="cls-4" d="M257.76,30.16a.5.5,0,0,1-.47-.67l.48-1.33a.5.5,0,0,1,.94.34l-.48,1.33A.5.5,0,0,1,257.76,30.16Z"/><path class="cls-4" d="M259.26,30.16a.5.5,0,0,1-.47-.67l.48-1.33a.5.5,0,0,1,.94.34l-.48,1.33A.5.5,0,0,1,259.26,30.16Z"/><path class="cls-4" d="M260.76,30.16a.5.5,0,0,1-.47-.67l.48-1.33a.5.5,0,0,1,.94.34l-.48,1.33A.5.5,0,0,1,260.76,30.16Z"/><path class="cls-4" d="M262.26,30.16a.5.5,0,0,1-.47-.67l.48-1.33a.5.5,0,0,1,.94.34l-.48,1.33A.5.5,0,0,1,262.26,30.16Z"/><path class="cls-4" d="M263.76,30.16a.5.5,0,0,1-.47-.67l.48-1.33a.5.5,0,0,1,.94.34l-.48,1.33A.5.5,0,0,1,263.76,30.16Z"/><path class="cls-4" d="M265.26,30.16a.5.5,0,0,1-.47-.67l.48-1.33a.5.5,0,0,1,.94.34l-.48,1.33A.5.5,0,0,1,265.26,30.16Z"/><path class="cls-4" d="M266.76,30.16a.5.5,0,0,1-.47-.67l.48-1.33a.5.5,0,0,1,.94.34l-.48,1.33A.5.5,0,0,1,266.76,30.16Z"/><path class="cls-4" d="M268.26,30.16a.5.5,0,0,1-.47-.67l.48-1.33a.5.5,0,0,1,.94.34l-.48,1.33A.5.5,0,0,1,268.26,30.16Z"/><path class="cls-4" d="M269.76,30.16a.5.5,0,0,1-.47-.67l.48-1.33a.5.5,0,0,1,.94.34l-.48,1.33A.5.5,0,0,1,269.76,30.16Z"/><path class="cls-4" d="M271.26,30.16a.5.5,0,0,1-.47-.67l.48-1.33a.5.5,0,0,1,.94.34l-.48,1.33A.5.5,0,0,1,271.26,30.16Z"/><path class="cls-4" d="M272.76,30.16a.5.5,0,0,1-.47-.67l.48-1.33a.5.5,0,0,1,.94.34l-.48,1.33A.5.5,0,0,1,272.76,30.16Z"/><path class="cls-4" d="M274.26,30.16a.5.5,0,0,1-.47-.67l.48-1.33a.5.5,0,0,1,.94.34l-.48,1.33A.5.5,0,0,1,274.26,30.16Z"/><path class="cls-4" d="M275.76,30.16a.5.5,0,0,1-.47-.67l.48-1.33a.5.5,0,0,1,.94.34l-.48,1.33A.5.5,0,0,1,275.76,30.16Z"/><path class="cls-4" d="M277.26,30.16a.5.5,0,0,1-.47-.67l.48-1.33a.5.5,0,0,1,.94.34l-.48,1.33A.5.5,0,0,1,277.26,30.16Z"/><path class="cls-4" d="M278.76,30.16a.5.5,0,0,1-.47-.67l.48-1.33a.5.5,0,0,1,.94.34l-.48,1.33A.5.5,0,0,1,278.76,30.16Z"/><path class="cls-4" d="M280.26,30.16a.5.5,0,0,1-.47-.67l.48-1.33a.5.5,0,0,1,.94.34l-.48,1.33A.5.5,0,0,1,280.26,30.16Z"/><path class="cls-4" d="M281.76,30.16a.5.5,0,0,1-.47-.67l.48-1.33a.5.5,0,0,1,.94.34l-.48,1.33A.5.5,0,0,1,281.76,30.16Z"/><path class="cls-4" d="M283.26,30.16a.5.5,0,0,1-.47-.67l.48-1.33a.5.5,0,0,1,.94.34l-.48,1.33A.5.5,0,0,1,283.26,30.16Z"/><path class="cls-4" d="M284.76,30.16a.5.5,0,0,1-.47-.67l.48-1.33a.5.5,0,0,1,.94.34l-.48,1.33A.5.5,0,0,1,284.76,30.16Z"/><path class="cls-4" d="M286.26,30.16a.5.5,0,0,1-.47-.67l.48-1.33a.5.5,0,0,1,.94.34l-.48,1.33A.5.5,0,0,1,286.26,30.16Z"/><path class="cls-4" d="M287.76,30.16a.5.5,0,0,1-.47-.67l.48-1.33a.5.5,0,0,1,.94.34l-.48,1.33A.5.5,0,0,1,287.76,30.16Z"/><path class="cls-4" d="M289.26,30.16a.5.5,0,0,1-.47-.67l.48-1.33a.5.5,0,0,1,.94.34l-.48,1.33A.5.5,0,0,1,289.26,30.16Z"/><path class="cls-4" d="M290.76,30.16a.5.5,0,0,1-.47-.67l.48-1.33a.5.5,0,0,1,.94.34l-.48,1.33A.5.5,0,0,1,290.76,30.16Z"/><path class="cls-4" d="M292.26,30.16a.5.5,0,0,1-.47-.67l.48-1.33a.5.5,0,0,1,.94.34l-.48,1.33A.5.5,0,0,1,292.26,30.16Z"/><path class="cls-4" d="M293.76,30.16a.5.5,0,0,1-.47-.67l.48-1.33a.5.5,0,0,1,.94.34l-.48,1.33A.5.5,0,0,1,293.76,30.16Z"/><path class="cls-4" d="M295.26,30.16a.5.5,0,0,1-.47-.67l.48-1.33a.5.5,0,0,1,.94.34l-.48,1.33A.5.5,0,0,1,295.26,30.16Z"/><path class="cls-4" d="M296.76,30.16a.5.5,0,0,1-.47-.67l.48-1.33a.5.5,0,0,1,.94.34l-.48,1.33A.5.5,0,0,1,296.76,30.16Z"/><path class="cls-4" d="M298.26,30.16a.5.5,0,0,1-.47-.67l.48-1.33a.5.5,0,0,1,.94.34l-.48,1.33A.5.5,0,0,1,298.26,30.16Z"/><path class="cls-4" d="M299.76,30.16a.5.5,0,0,1-.47-.67l.48-1.33a.5.5,0,0,1,.94.34l-.48,1.33A.5.5,0,0,1,299.76,30.16Z"/><path class="cls-4" d="M301.26,30.16a.5.5,0,0,1-.47-.67l.48-1.33a.5.5,0,0,1,.94.34l-.48,1.33A.5.5,0,0,1,301.26,30.16Z"/><path class="cls-4" d="M302.76,30.16a.5.5,0,0,1-.47-.67l.48-1.33a.5.5,0,0,1,.94.34l-.48,1.33A.5.5,0,0,1,302.76,30.16Z"/><path class="cls-4" d="M304.26,30.16a.5.5,0,0,1-.47-.67l.48-1.33a.5.5,0,0,1,.94.34l-.48,1.33A.5.5,0,0,1,304.26,30.16Z"/><path class="cls-4" d="M305.76,30.16a.5.5,0,0,1-.47-.67l.48-1.33a.5.5,0,0,1,.94.34l-.48,1.33A.5.5,0,0,1,305.76,30.16Z"/><path class="cls-4" d="M307.26,30.16a.5.5,0,0,1-.47-.67l.48-1.33a.5.5,0,0,1,.94.34l-.48,1.33A.5.5,0,0,1,307.26,30.16Z"/><path class="cls-4" d="M308.76,30.16a.5.5,0,0,1-.47-.67l.48-1.33a.5.5,0,0,1,.94.34l-.48,1.33A.5.5,0,0,1,308.76,30.16Z"/><path class="cls-4" d="M310.26,30.16a.5.5,0,0,1-.47-.67l.48-1.33a.5.5,0,0,1,.94.34l-.48,1.33A.5.5,0,0,1,310.26,30.16Z"/><path class="cls-4" d="M311.76,30.16a.5.5,0,0,1-.47-.67l.48-1.33a.5.5,0,0,1,.94.34l-.48,1.33A.5.5,0,0,1,311.76,30.16Z"/><path class="cls-4" d="M313.26,30.16a.5.5,0,0,1-.47-.67l.48-1.33a.5.5,0,0,1,.94.34l-.48,1.33A.5.5,0,0,1,313.26,30.16Z"/><path class="cls-4" d="M314.76,30.16a.5.5,0,0,1-.47-.67l.48-1.33a.5.5,0,0,1,.94.34l-.48,1.33A.5.5,0,0,1,314.76,30.16Z"/><path class="cls-4" d="M316.26,30.16a.5.5,0,0,1-.47-.67l.48-1.33a.5.5,0,0,1,.94.34l-.48,1.33A.5.5,0,0,1,316.26,30.16Z"/><path class="cls-4" d="M317.76,30.16a.5.5,0,0,1-.47-.67l.48-1.33a.5.5,0,0,1,.94.34l-.48,1.33A.5.5,0,0,1,317.76,30.16Z"/><path class="cls-4" d="M319.26,30.16a.5.5,0,0,1-.47-.67l.48-1.33a.5.5,0,0,1,.94.34l-.48,1.33A.5.5,0,0,1,319.26,30.16Z"/><path class="cls-4" d="M320.76,30.16a.5.5,0,0,1-.47-.67l.48-1.33a.5.5,0,0,1,.94.34l-.48,1.33A.5.5,0,0,1,320.76,30.16Z"/><path class="cls-4" d="M322.26,30.16a.5.5,0,0,1-.47-.67l.48-1.33a.5.5,0,0,1,.94.34l-.48,1.33A.5.5,0,0,1,322.26,30.16Z"/><path class="cls-4" d="M323.76,30.16a.5.5,0,0,1-.47-.67l.48-1.33a.5.5,0,0,1,.94.34l-.48,1.33A.5.5,0,0,1,323.76,30.16Z"/><path class="cls-4" d="M325.26,30.16a.5.5,0,0,1-.47-.67l.48-1.33a.5.5,0,0,1,.94.34l-.48,1.33A.5.5,0,0,1,325.26,30.16Z"/><path class="cls-4" d="M326.76,30.16a.5.5,0,0,1-.47-.67l.48-1.33a.5.5,0,0,1,.94.34l-.48,1.33A.5.5,0,0,1,326.76,30.16Z"/><path class="cls-4" d="M328.26,30.16a.5.5,0,0,1-.47-.67l.48-1.33a.5.5,0,0,1,.94.34l-.48,1.33A.5.5,0,0,1,328.26,30.16Z"/><path class="cls-4" d="M329.76,30.16a.5.5,0,0,1-.47-.67l.48-1.33a.5.5,0,0,1,.94.34l-.48,1.33A.5.5,0,0,1,329.76,30.16Z"/><path class="cls-4" d="M331.26,30.16a.5.5,0,0,1-.47-.67l.48-1.33a.5.5,0,0,1,.94.34l-.48,1.33A.5.5,0,0,1,331.26,30.16Z"/><path class="cls-4" d="M332.76,30.16a.5.5,0,0,1-.47-.67l.48-1.33a.5.5,0,0,1,.94.34l-.48,1.33A.5.5,0,0,1,332.76,30.16Z"/><path class="cls-4" d="M334.26,30.16a.5.5,0,0,1-.47-.67l.48-1.33a.5.5,0,0,1,.94.34l-.48,1.33A.5.5,0,0,1,334.26,30.16Z"/><path class="cls-4" d="M335.76,30.16a.5.5,0,0,1-.47-.67l.48-1.33a.5.5,0,0,1,.94.34l-.48,1.33A.5.5,0,0,1,335.76,30.16Z"/><path class="cls-4" d="M337.26,30.16a.5.5,0,0,1-.47-.67l.48-1.33a.5.5,0,0,1,.94.34l-.48,1.33A.5.5,0,0,1,337.26,30.16Z"/><path class="cls-4" d="M338.76,30.16a.5.5,0,0,1-.47-.67l.48-1.33a.5.5,0,0,1,.94.34l-.48,1.33A.5.5,0,0,1,338.76,30.16Z"/><path class="cls-4" d="M340.26,30.16a.5.5,0,0,1-.47-.67l.48-1.33a.5.5,0,0,1,.94.34l-.48,1.33A.5.5,0,0,1,340.26,30.16Z"/><path class="cls-4" d="M341.76,30.16a.5.5,0,0,1-.47-.67l.48-1.33a.5.5,0,0,1,.94.34l-.48,1.33A.5.5,0,0,1,341.76,30.16Z"/><path class="cls-4" d="M343.26,30.16a.5.5,0,0,1-.47-.67l.48-1.33a.5.5,0,0,1,.94.34l-.48,1.33A.5.5,0,0,1,343.26,30.16Z"/><path class="cls-4" d="M344.76,30.16a.5.5,0,0,1-.47-.67l.48-1.33a.5.5,0,0,1,.94.34l-.48,1.33A.5.5,0,0,1,344.76,30.16Z"/><path class="cls-4" d="M346.26,30.16a.5.5,0,0,1-.47-.67l.48-1.33a.5.5,0,0,1,.94.34l-.48,1.33A.5.5,0,0,1,346.26,30.16Z"/><path class="cls-4" d="M347.76,30.16a.5.5,0,0,1-.47-.67l.48-1.33a.5.5,0,0,1,.94.34l-.48,1.33A.5.5,0,0,1,347.76,30.16Z"/><path class="cls-4" d="M349.26,30.16a.5.5,0,0,1-.47-.67l.48-1.33a.5.5,0,0,1,.94.34l-.48,1.33A.5.5,0,0,1,349.26,30.16Z"/><path class="cls-4" d="M350.76,30.16a.5.5,0,0,1-.47-.67l.48-1.33a.5.5,0,0,1,.94.34l-.48,1.33A.5.5,0,0,1,350.76,30.16Z"/><path class="cls-4" d="M352.26,30.16a.5.5,0,0,1-.47-.67l.48-1.33a.5.5,0,0,1,.94.34l-.48,1.33A.5.5,0,0,1,352.26,30.16Z"/><path class="cls-4" d="M353.76,30.16a.5.5,0,0,1-.47-.67l.48-1.33a.5.5,0,0,1,.94.34l-.48,1.33A.5.5,0,0,1,353.76,30.16Z"/><path class="cls-4" d="M355.26,30.16a.5.5,0,0,1-.47-.67l.48-1.33a.5.5,0,0,1,.94.34l-.48,1.33A.5.5,0,0,1,355.26,30.16Z"/><path class="cls-4" d="M356.76,30.16a.5.5,0,0,1-.47-.67l.48-1.33a.5.5,0,0,1,.94.34l-.48,1.33A.5.5,0,0,1,356.76,30.16Z"/><path class="cls-4" d="M358.26,30.16a.5.5,0,0,1-.47-.67l.48-1.33a.5.5,0,0,1,.94.34l-.48,1.33A.5.5,0,0,1,358.26,30.16Z"/><path class="cls-4" d="M359.76,30.16a.5.5,0,0,1-.47-.67l.48-1.33a.5.5,0,0,1,.94.34l-.48,1.33A.5.5,0,0,1,359.76,30.16Z"/><path class="cls-4" d="M361.26,30.16a.5.5,0,0,1-.47-.67l.48-1.33a.5.5,0,0,1,.94.34l-.48,1.33A.5.5,0,0,1,361.26,30.16Z"/><path class="cls-4" d="M362.76,30.16a.5.5,0,0,1-.47-.67l.48-1.33a.5.5,0,0,1,.94.34l-.48,1.33A.5.5,0,0,1,362.76,30.16Z"/><path class="cls-4" d="M364.26,30.16a.5.5,0,0,1-.47-.67l.48-1.33a.5.5,0,0,1,.94.34l-.48,1.33A.5.5,0,0,1,364.26,30.16Z"/><path class="cls-4" d="M365.76,30.16a.5.5,0,0,1-.47-.67l.48-1.33a.5.5,0,0,1,.94.34l-.48,1.33A.5.5,0,0,1,365.76,30.16Z"/><path class="cls-4" d="M367.26,30.16a.5.5,0,0,1-.47-.67l.48-1.33a.5.5,0,0,1,.94.34l-.48,1.33A.5.5,0,0,1,367.26,30.16Z"/><path class="cls-4" d="M368.76,30.16a.5.5,0,0,1-.47-.67l.48-1.33a.5.5,0,0,1,.94.34l-.48,1.33A.5.5,0,0,1,368.76,30.16Z"/><path class="cls-4" d="M37.26,30.16a.5.5,0,0,1-.47-.67l.48-1.33a.5.5,0,1,1,.94.34l-.48,1.33A.5.5,0,0,1,37.26,30.16Z"/><path class="cls-4" d="M38.76,30.16a.5.5,0,0,1-.47-.67l.48-1.33a.5.5,0,1,1,.94.34l-.48,1.33A.5.5,0,0,1,38.76,30.16Z"/><path class="cls-4" d="M40.26,30.16a.5.5,0,0,1-.47-.67l.48-1.33a.5.5,0,1,1,.94.34l-.48,1.33A.5.5,0,0,1,40.26,30.16Z"/><rect class="cls-3" x="47" y="83.07" width="162" height="4.93"/><polygon class="cls-3" points="62 101.25 58 101.25 57 88.75 63 88.75 62 101.25"/><polygon class="cls-3" points="198 101.25 194 101.25 193 88.75 199 88.75 198 101.25"/><rect class="cls-4" x="49.83" y="81.31" width="26.67" height="0.81" rx="0.41" ry="0.41"/><path class="cls-4" d="M53.69,68.2c0,.3,0,.59,0,.88a3.08,3.08,0,0,0-.57-.07c-2.09,0-3.79,2.09-3.79,4.67s1.7,4.67,3.79,4.67A3.23,3.23,0,0,0,55,77.72c1.21,2.54,3.53,4.12,8,4.12,8.83,0,9.31-6.11,9.31-13.65Zm-.56,9.15c-1.54,0-2.79-1.64-2.79-3.67S51.59,70,53.13,70a2.15,2.15,0,0,1,.58.08,22.33,22.33,0,0,0,.89,6.69A2.31,2.31,0,0,1,53.13,77.34Z"/><path class="cls-3" d="M60.58,64.75a.5.5,0,0,1-.47-.67,9.36,9.36,0,0,0-.44-7.34c-.75-1.91-1.45-3.71.56-5.72a.5.5,0,0,1,.71.71c-1.55,1.54-1.07,2.78-.34,4.65a10.33,10.33,0,0,1,.46,8A.5.5,0,0,1,60.58,64.75Z"/><path class="cls-3" d="M65.58,61.75a.5.5,0,0,1-.47-.67,9.36,9.36,0,0,0-.44-7.34c-.75-1.91-1.45-3.71.56-5.72a.5.5,0,0,1,.71.71c-1.55,1.54-1.07,2.78-.34,4.65a10.33,10.33,0,0,1,.46,8A.5.5,0,0,1,65.58,61.75Z"/><path class="cls-3" d="M94.38,69.16a2.51,2.51,0,0,0-2.5-2.5H81.25a2.5,2.5,0,0,0-1.39,4.57c-1,2.47.14,9.89.14,9.89a1,1,0,0,0,1,1H92.13a1,1,0,0,0,1-1s1-7.12.11-9.87A2.5,2.5,0,0,0,94.38,69.16Z"/><path class="cls-5" d="M89.36,72.7,87.63,71a1,1,0,0,0-1.41,0L84.49,72.7a1,1,0,0,0,0,1.41l.26.26v1.55a.5.5,0,0,0,1,0v-.55l.47.47a1,1,0,0,0,1,.24v1.84a.5.5,0,0,0,1,0V75.29l1.18-1.18A1,1,0,0,0,89.36,72.7Z"/><path class="cls-2" d="M113.62,74.73c-.59,4-4.66,9.52-7.39,6.39-3.06,3.38-6.86-2.35-7.39-6.39s1.21-7.64,7.39-6.39C111.75,66.79,114.21,70.67,113.62,74.73Z"/><path class="cls-6" d="M106.22,68a35.4,35.4,0,0,1,.82-5.2l.93.4A19.53,19.53,0,0,0,106.22,68Z"/><path class="cls-3" d="M125.05,65.39c2.15,0,5.5,2.35,5,4.8,1.41.42,2.19,1.22,2,2.74.55.44,1.09.51,1.49,1.19a3.25,3.25,0,0,1,.19,2.54c1,.66,1.71,1,1.9,2.27A2.15,2.15,0,0,1,134,81.36a15,15,0,0,1-7.1.3,10.42,10.42,0,0,0-3.51-.16c-1.24.23-2.47.62-3.69.05-2.26-1.06-1.08-4.25.95-4.9a3,3,0,0,1,0-2.29A2.68,2.68,0,0,1,122.27,73a2.75,2.75,0,0,1,0-2.42c.46-1,1.79-1.07,1.92-1.31s-.35-.56-.14-1.16.65-.54.76-.88C125,66.67,124.28,65.39,125.05,65.39Z"/><path class="cls-6" d="M176.56,57.79a2.47,2.47,0,0,1-.55-1.07s0-.06,0-.08c-1,1.73-.94,3.63-.74,6.91.1,1.69.23,3.79.23,6.45h1c0-2.69-.13-4.81-.23-6.51C176.1,60.81,176,59.17,176.56,57.79Z"/><path class="cls-3" d="M184.25,67h-16.5a.75.75,0,0,0-.75.75V70a.75.75,0,0,0,.75.75h.75l2.25,10.5a.75.75,0,0,0,.75.75h9a.75.75,0,0,0,.75-.75l2.25-10.5h.75A.75.75,0,0,0,185,70V67.75A.75.75,0,0,0,184.25,67Z"/><path class="cls-2" d="M187.2,51.08a9.71,9.71,0,0,0-1,0,10,10,0,0,0,1-.38A1.5,1.5,0,0,0,185.83,48c-.12.06-.34.19-.6.36l.21-.28a1.5,1.5,0,0,0-2.5-1.66,12.11,12.11,0,0,0-.62,1.17,12,12,0,0,0,.05-1.31,1.5,1.5,0,1,0-3,.19,13.06,13.06,0,0,0,.24,1.44,10.72,10.72,0,0,0-.69-.9,1.5,1.5,0,1,0-2.2,2c.1.11.31.3.57.52-.28-.1-.52-.17-.65-.2a1.5,1.5,0,0,0-.68,2.92l.17,0-.27.09A1.5,1.5,0,1,0,177,55.19l.49-.24c-.14.18-.25.33-.31.42a1.5,1.5,0,0,0,2.31,1.87v0a1.5,1.5,0,0,0,2.83.69,1.5,1.5,0,0,0,2.55-1.54l0,0,.07,0A1.5,1.5,0,0,0,186.7,54l.13,0a1.5,1.5,0,1,0,.36-3Z"/><circle class="cls-7" cx="181.75" cy="52.23" r="1.24" transform="translate(82.29 213.07) rotate(-74.3)"/><path class="cls-6" d="M175.68,63.25s-9.31.94-9.87-4.31C173.06,58.31,175.68,63.25,175.68,63.25Z"/><rect class="cls-2" x="190" y="72.83" width="16.5" height="9.1" rx="1" ry="1"/><path class="cls-7" d="M192.15,77.83a.81.81,0,0,0,.11.4.72.72,0,0,0,.66.29,1.11,1.11,0,0,0,.38-.06.44.44,0,0,0,.33-.43.38.38,0,0,0-.14-.33,1.39,1.39,0,0,0-.45-.17l-.38-.09a1.68,1.68,0,0,1-.52-.19.61.61,0,0,1-.26-.54.84.84,0,0,1,.26-.63,1,1,0,0,1,.74-.25,1.25,1.25,0,0,1,.75.22.79.79,0,0,1,.31.7h-.37a.74.74,0,0,0-.12-.35.68.68,0,0,0-.58-.22.65.65,0,0,0-.47.14.46.46,0,0,0-.14.34.33.33,0,0,0,.17.31,2.41,2.41,0,0,0,.51.16l.39.09a1.16,1.16,0,0,1,.44.18A.69.69,0,0,1,194,78a.74.74,0,0,1-.34.68,1.49,1.49,0,0,1-.79.21,1.15,1.15,0,0,1-.82-.27.93.93,0,0,1-.29-.74Z"/><path class="cls-7" d="M197.68,76.3a1.58,1.58,0,0,1,.29,1,1.71,1.71,0,0,1-.33,1.07,1.45,1.45,0,0,1-2.13.06,1.65,1.65,0,0,1-.34-1.07,1.7,1.7,0,0,1,.29-1,1.25,1.25,0,0,1,1.1-.53A1.31,1.31,0,0,1,197.68,76.3Zm-.34,1.83a1.57,1.57,0,0,0,.23-.85,1.21,1.21,0,0,0-.26-.82.9.9,0,0,0-.72-.31.94.94,0,0,0-.73.31,1.29,1.29,0,0,0-.28.9,1.32,1.32,0,0,0,.24.8.91.91,0,0,0,.78.33A.81.81,0,0,0,197.34,78.13Z"/><path class="cls-7" d="M200,75.89h.44l1,2.87h-.43l-.3-.86h-1.13l-.31.86h-.4Zm.64,1.69-.44-1.27-.46,1.27Z"/><path class="cls-7" d="M202.66,75.89h1.28a.87.87,0,0,1,.62.22.78.78,0,0,1,.23.61.88.88,0,0,1-.21.58.79.79,0,0,1-.64.25H203v1.21h-.39Zm1.51.39a.84.84,0,0,0-.35-.06H203v1h.77a.73.73,0,0,0,.42-.11.44.44,0,0,0,.16-.39A.43.43,0,0,0,204.16,76.28Z"/><rect class="cls-8" x="22" y="3.5" width="431" height="6"/><path class="cls-4" d="M235.91,158.46C231.69,172.19,225.91,191,197,191H152v2h45c30.38,0,36.66-20.43,40.82-33.95,2.17-7.07,3.78-12.27,7.56-12.78v-2C240.15,144.72,238.26,150.81,235.91,158.46Z"/><rect class="cls-8" x="103" y="148" width="48" height="48" rx="3" ry="3"/><rect class="cls-4" x="107" y="152" width="4" height="4" rx="1" ry="1"/><rect class="cls-2" x="113" y="152" width="4" height="4" rx="1" ry="1"/><rect class="cls-4" x="119" y="152" width="4" height="4" rx="1" ry="1"/><path class="cls-1" d="M146,187.5H131a.5.5,0,0,1,0-1h15a.5.5,0,0,1,0,1Z"/><path class="cls-1" d="M146,189.5H131a.5.5,0,0,1,0-1h15a.5.5,0,0,1,0,1Z"/><path class="cls-1" d="M146,191.5H131a.5.5,0,0,1,0-1h15a.5.5,0,0,1,0,1Z"/><path class="cls-4" d="M93.55,190.74c-38.75.65-58.19,1-61.06-22.36-2.67-21.76-1.84-77.24-1.29-114,.11-7.63.22-14.51.27-19.93h-2c-.05,5.41-.15,12.28-.27,19.9-.55,36.76-1.38,92.32,1.31,114.22,2.62,21.37,18.42,24.3,46.88,24.3,5,0,10.41-.09,16.2-.19l8.41-.13v-2Z"/><path class="cls-8" d="M443,12a6,6,0,0,1,2,.35V10.5h-4v1.85A6,6,0,0,1,443,12Z"/><path class="cls-8" d="M443,13a5,5,0,1,0,5,5A5,5,0,0,0,443,13Zm0,6a1,1,0,1,1,1-1A1,1,0,0,1,443,19Z"/><path class="cls-8" d="M53.09,15.13,53,15a5.07,5.07,0,0,0-.65-.71,5,5,0,1,0,0,7.35l.23-.23a5,5,0,0,0,.47-.57l.07-.1a5,5,0,0,0,0-5.52ZM49,19a1,1,0,1,1,1-1A1,1,0,0,1,49,19Zm7.5,4.58v.92a1,1,0,0,1-1,1h-13v7a1,1,0,0,1-1,1h-14a1,1,0,0,1-1-1v-21a1,1,0,0,1,1-1h28a1,1,0,0,1,1,1v1H51.39a6,6,0,1,0-.05,11l1.56,0Zm-2.08-3a5.93,5.93,0,0,0,0-5.06H56.5v5.08Z"/><path class="cls-4" d="M53.86,14.5H438.14a6,6,0,0,1,.91-1H53A6,6,0,0,1,53.86,14.5Z"/><path class="cls-4" d="M438.43,21.88c-42.93,3.52-71.07,3.2-280.26.84L53.82,21.55a6,6,0,0,1-.92,1l105.25,1.18c99.94,1.13,158.56,1.79,197.22,1.79,42.84,0,61.17-.81,84-2.71A6,6,0,0,1,438.43,21.88Z"/><polygon class="cls-8" points="381.83 41.63 375.2 41.63 373.89 43.4 383.14 43.4 381.83 41.63"/><polygon class="cls-8" points="381.83 41.06 375.2 41.06 373.89 39.28 383.14 39.28 381.83 41.06"/><polygon class="cls-8" points="381.83 36.94 375.2 36.94 373.89 38.71 383.14 38.71 381.83 36.94"/><polygon class="cls-8" points="381.83 36.37 375.2 36.37 373.89 34.6 383.14 34.6 381.83 36.37"/><polygon class="cls-8" points="381.83 45.76 375.2 45.76 373.89 43.99 383.14 43.99 381.83 45.76"/><polygon class="cls-8" points="381.83 32.24 375.2 32.24 373.89 34.01 383.14 34.01 381.83 32.24"/><path class="cls-8" d="M375.35,50.5a3.5,3.5,0,1,0,6.3,0Z"/><polygon class="cls-8" points="376.94 65.52 373.44 58.77 379.15 51.09 375.33 51.06 369.68 58.67 375.86 68.03 376.88 67.43 376.94 65.52"/><polygon class="cls-8" points="380.4 65.56 383.77 58.76 377.93 51.18 381.75 51.08 387.54 58.59 381.52 68.06 380.48 67.47 380.4 65.56"/><rect class="cls-8" x="376" y="46.5" width="5" height="3"/><path class="cls-8" d="M389.5,24.66V24h-6v.66h-10V24h-6v.66h-.89V29.5a1.85,1.85,0,0,0,1.84,1.84H388.7a1.85,1.85,0,0,0,1.84-1.84V24.66Z"/><path class="cls-9" d="M381.1,81h-1.25l.11,2.19c-.24.2-.52.15-.52.57,0,.63.37,1.14.83,1.14s.83-.51.83-1.14V81Z"/><path class="cls-9" d="M377.1,81h-1.25l.11,2.19c-.24.2-.52.15-.52.57,0,.63.37,1.14.83,1.14s.83-.51.83-1.14V81Z"/><path class="cls-9" d="M375.94,77.71h-1.25l.11,2.19c-.24.2-.52.15-.52.57,0,.63.37,1.14.83,1.14s.83-.51.83-1.14V77.71Z"/><path class="cls-9" d="M358.07,70.77c3.57,3.75,5.94,7,10.36,7.25s5.05-2.93,5.68-3.13l.37-3.21c-4.49-2.58-5.49-8-5.49-8l-1,2.4s-2.18-5.12-3.23-6.36-2.59-3.16-4.45-3.67c-2.62-.72-5.18.71-7.51,3.56a10.06,10.06,0,0,0-2,7.08c.12,1.8-1.74,4.93-1.81,5S354.51,67,358.07,70.77Z"/><path class="cls-10" d="M375.1,72.69l-6.55-4.61.18,1.39s-3.46-3.17-3.62-4,.76-.6.76-.6-4.62-7.76-7.41-7.4c-4.77.61-5.42,9.31-9.42,14.26,7-6.42,4.68-11.84,9.34-12.2s5.52,5.09,5.52,5.09-1.7.22-1.09,1.32,7.08,5.48,7.08,5.48V70.16Z"/><path class="cls-9" d="M384.15,72.88s3.93,8.49-5.5,8.72-5.5-8.72-5.5-8.72,3.57-8.72,5.5-8.72S384.15,72.88,384.15,72.88Z"/><path class="cls-10" d="M379.35,64.78a1.23,1.23,0,0,0-.7-.31,1.42,1.42,0,0,0-.86.44l.67,4.48.48-1s1.41,5.25,5.34,6C380.71,72,379.65,67.08,379.35,64.78Z"/><path class="cls-9" d="M393.39,78.16A1,1,0,0,0,393,78a1,1,0,0,0-.24,0s-.13-.06-.16-.08l-.18-.11a3.31,3.31,0,0,1-.38-.29,4.14,4.14,0,0,1-.77-.93,4.83,4.83,0,0,1-.6-1.44,2.17,2.17,0,0,0-.39-.72,4.54,4.54,0,0,0-.55-.65l-.25-.21a4.91,4.91,0,0,0-1.6-.81c-.37-.56-1.14-1.3-1.41-1.25s-.47.54-.67,1.07a4,4,0,0,0-3.53,3,4.27,4.27,0,0,0,3.5,4.9,5,5,0,0,0,1.09.13c1.7-.12,5.91-.61,5.91-.61a1,1,0,0,0,.62-1.79Zm-4.68-1.74a.47.47,0,1,1,.56-.35A.47.47,0,0,1,388.71,76.42Z"/><path class="cls-10" d="M389.43,73.58a4.87,4.87,0,0,0-1.43-.74l2.33,2.36-.66-1.41Z"/></g></svg>