<svg xmlns="http://www.w3.org/2000/svg" viewBox="0 0 480 200"><defs><style>.cls-1{fill:#95989d;}.cls-2{fill:#686b70;}.cls-3{fill:#59150f;}.cls-4{fill:#324359;}.cls-5{fill:#708189;}</style></defs><title>shared_desk_contention</title><g id="Background"><rect class="cls-1" width="480" height="200"/></g><g id="Layer_1" data-name="Layer 1"><g id="Office_Chair" data-name="Office Chair"><rect class="cls-2" x="401.03" y="129.22" width="33.79" height="3.67" rx="1.84" ry="1.84"/><path class="cls-2" d="M432.66,153.48H403.19a2.17,2.17,0,0,0-2.17,2.17v.72h33.79v-.72A2.17,2.17,0,0,0,432.66,153.48Z"/><rect class="cls-2" x="401.76" y="156.76" width="1.47" height="3.67" rx="0.73" ry="0.73"/><rect class="cls-2" x="403.23" y="156.76" width="1.47" height="3.67" rx="0.73" ry="0.73"/><rect class="cls-2" x="431.15" y="156.76" width="1.47" height="3.67" rx="0.73" ry="0.73"/><rect class="cls-2" x="432.62" y="156.76" width="1.47" height="3.67" rx="0.73" ry="0.73"/><rect class="cls-2" x="414.25" y="125.54" width="7.35" height="2.94"/><rect class="cls-2" x="415.72" y="132.15" width="4.41" height="14.69"/><rect class="cls-2" x="419.39" y="135.83" width="14.69" height="0.73"/><rect class="cls-2" x="430.41" y="135.46" width="4.41" height="1.47" rx="0.73" ry="0.73"/><path class="cls-2" d="M403.92,120l0,.4a4.42,4.42,0,0,0,4.41,4.41h19.1a4.42,4.42,0,0,0,4.41-4.41l0-.4Z"/><path class="cls-2" d="M432.28,117l2.54-21.58A4.42,4.42,0,0,0,430.41,91h-25A4.42,4.42,0,0,0,401,95.42L403.57,117Z"/><rect class="cls-2" x="416.46" y="151.5" width="2.94" height="3.43"/><rect class="cls-2" x="416.46" y="132.15" width="2.94" height="15.35"/></g><g id="Person_Sitting" data-name="Person Sitting"><path class="cls-3" d="M438.34,99.44c-.42-8.15-1.52-18.78-1.52-18.78a3.61,3.61,0,1,0-7.2.65s.76,5.33,1.56,11.27a12.33,12.33,0,0,0-1.51-.1H406.17c-10.52,0-8.7,12.92-7.86,17a3.67,3.67,0,1,0,6.74-.38c-.65-3-1.67-9.26,1.12-9.26V117h23.51V99.71c1.45,0,2.31,1.39,2.83,3.06.29,2.41.5,4.33.55,5.23a2.62,2.62,0,0,0,5.09.39,4.93,4.93,0,0,0,.27-1.44A21.76,21.76,0,0,0,438.34,99.44Z"/><path class="cls-3" d="M417.92,70.45a9.34,9.34,0,0,0-9.35,10.66A1,1,0,0,0,409,83h0a9.4,9.4,0,1,0,8.89-12.55Z"/><path class="cls-3" d="M416.46,147.5V130.69h2.94V147.5h11V124.81a5.48,5.48,0,0,0-.73-2.74V120h-2.09a5.49,5.49,0,0,0-5.37,0h-8.59a5.49,5.49,0,0,0-5.37,0h-2.09v2.07a5.48,5.48,0,0,0-.73,2.74V147.5Z"/><path class="cls-3" d="M419.39,151.5v1.22h0a5.5,5.5,0,0,0,11,0h0V151.5Z"/><path class="cls-3" d="M405.44,151.5v1.22h0a5.5,5.5,0,0,0,11,0h0V151.5Z"/></g><g id="Office_Desk" data-name="Office Desk"><polygon class="cls-4" points="470.08 157.87 467.88 157.87 467.14 151.25 470.82 151.25 470.08 157.87"/><polygon class="cls-4" points="367.97 157.87 365.77 157.87 365.03 151.25 368.7 151.25 367.97 157.87"/><path class="cls-4" d="M378.43,127.63a1.74,1.74,0,0,1-2.25,1l-12.62-5v26.92H472.29V118.93H381.88Z"/><polygon class="cls-4" points="383.63 114.52 382.17 118.2 475.23 118.2 475.23 114.52 383.63 114.52"/></g><g id="Office_Chair-2" data-name="Office Chair"><rect class="cls-2" x="221.88" y="129.22" width="33.79" height="3.67" rx="1.84" ry="1.84"/><path class="cls-2" d="M253.51,153.48H224a2.17,2.17,0,0,0-2.17,2.17v.72h33.79v-.72A2.17,2.17,0,0,0,253.51,153.48Z"/><rect class="cls-2" x="222.61" y="156.76" width="1.47" height="3.67" rx="0.73" ry="0.73"/><rect class="cls-2" x="224.08" y="156.76" width="1.47" height="3.67" rx="0.73" ry="0.73"/><rect class="cls-2" x="252" y="156.76" width="1.47" height="3.67" rx="0.73" ry="0.73"/><rect class="cls-2" x="253.47" y="156.76" width="1.47" height="3.67" rx="0.73" ry="0.73"/><rect class="cls-2" x="235.1" y="125.54" width="7.35" height="2.94"/><rect class="cls-2" x="236.57" y="132.15" width="4.41" height="14.69"/><rect class="cls-2" x="240.25" y="135.83" width="14.69" height="0.73"/><rect class="cls-2" x="251.26" y="135.46" width="4.41" height="1.47" rx="0.73" ry="0.73"/><path class="cls-2" d="M253.13,117l2.54-21.58A4.42,4.42,0,0,0,251.26,91h-25a4.42,4.42,0,0,0-4.41,4.41L224.42,117Z"/><path class="cls-2" d="M224.88,121a4.41,4.41,0,0,0,4.35,3.81h19.1a4.41,4.41,0,0,0,4.35-3.81Z"/><rect class="cls-2" x="237.31" y="132.15" width="2.94" height="15.35"/><rect class="cls-2" x="237.31" y="151.5" width="2.94" height="3.43"/></g><g id="Office_Desk-2" data-name="Office Desk"><polygon class="cls-4" points="292.4 157.87 290.2 157.87 289.46 151.25 293.14 151.25 292.4 157.87"/><polygon class="cls-4" points="190.29 157.87 188.09 157.87 187.35 151.25 191.03 151.25 190.29 157.87"/><path class="cls-4" d="M293.67,123a4.67,4.67,0,0,1-3.42-4H198.79a4.58,4.58,0,0,1,.05.53,4.68,4.68,0,0,1-4.67,4.67h-8.28v26.38H294.61V123.23Z"/><path class="cls-4" d="M194.17,114.79a4.67,4.67,0,0,1,4.48,3.41h91.57a4.62,4.62,0,0,1,2.18-3.67H182.94v.27Z"/></g><g id="Office_Chair-3" data-name="Office Chair"><rect class="cls-2" x="44.4" y="129.22" width="33.79" height="3.67" rx="1.84" ry="1.84"/><path class="cls-2" d="M76,153.48H46.57a2.17,2.17,0,0,0-2.17,2.17v.72H78.2v-.72A2.17,2.17,0,0,0,76,153.48Z"/><rect class="cls-2" x="45.14" y="156.76" width="1.47" height="3.67" rx="0.73" ry="0.73"/><rect class="cls-2" x="46.61" y="156.76" width="1.47" height="3.67" rx="0.73" ry="0.73"/><rect class="cls-2" x="74.52" y="156.76" width="1.47" height="3.67" rx="0.73" ry="0.73"/><rect class="cls-2" x="75.99" y="156.76" width="1.47" height="3.67" rx="0.73" ry="0.73"/><rect class="cls-2" x="57.63" y="125.54" width="7.35" height="2.94"/><rect class="cls-2" x="59.1" y="132.15" width="4.41" height="14.69"/><rect class="cls-2" x="62.77" y="135.83" width="14.69" height="0.73"/><rect class="cls-2" x="73.79" y="135.46" width="4.41" height="1.47" rx="0.73" ry="0.73"/><path class="cls-2" d="M75.66,117,78.2,95.42A4.42,4.42,0,0,0,73.79,91h-25a4.42,4.42,0,0,0-4.41,4.41L46.94,117Z"/><path class="cls-2" d="M47.3,120l0,.4a4.42,4.42,0,0,0,4.41,4.41h19.1a4.42,4.42,0,0,0,4.41-4.41l0-.4Z"/><rect class="cls-2" x="59.83" y="132.15" width="2.94" height="15.35"/><rect class="cls-2" x="59.83" y="151.5" width="2.94" height="3.43"/></g><g id="Person_Sitting-2" data-name="Person Sitting"><path class="cls-3" d="M73.05,92.48H49.51C23.56,117,45.64,114.36,53.1,114.36a3.67,3.67,0,1,0-1.26-7.11c-6.55,1.42-15.42,5.88-2.34-7.42h0v7c.68-.18,1.36-.36,2-.5A4.62,4.62,0,0,1,53.1,106a4.67,4.67,0,1,1,0,9.35c-.6,0-1.28,0-2,0l-1.52,0V117H73.05v-1.57l-1.56,0c-.75,0-1.44,0-2,0a4.67,4.67,0,1,1,0-9.35,4.62,4.62,0,0,1,1.53.27c.68.15,1.37.33,2.06.51v-7c13.08,13.29,4.21,8.83-2.34,7.42a3.67,3.67,0,1,0-1.26,7.11C76.93,114.36,99,117,73.05,92.48Z"/><path class="cls-5" d="M54.89,115H67.68a4.67,4.67,0,0,1,.92-8.9L69,100H53l.4,6a4.66,4.66,0,0,1,1.48,9Z"/><path class="cls-3" d="M71,82a1,1,0,0,0-.44-.8,9.27,9.27,0,0,0,.11-1.36A9.46,9.46,0,1,0,70.12,83,1,1,0,0,0,71,82Z"/><path class="cls-3" d="M59.83,147.5V130.69h2.94V147.5h11V124.81a5.48,5.48,0,0,0-.73-2.74V120H71a5.49,5.49,0,0,0-5.37,0H57a5.49,5.49,0,0,0-5.37,0H49.55v2.07a5.48,5.48,0,0,0-.73,2.74V147.5Z"/><path class="cls-3" d="M48.81,151.5v1.22h0a5.5,5.5,0,0,0,11,0h0V151.5Z"/><path class="cls-3" d="M62.77,151.5v1.22h0a5.5,5.5,0,0,0,11,0h0V151.5Z"/></g><g id="Office_Desk-3" data-name="Office Desk"><polygon class="cls-4" points="113.46 157.87 111.25 157.87 110.52 151.25 114.19 151.25 113.46 157.87"/><polygon class="cls-4" points="11.35 157.87 9.14 157.87 8.41 151.25 12.08 151.25 11.35 157.87"/><path class="cls-4" d="M101.94,116.25a1.73,1.73,0,0,1-.29-1.73H4v3.67h99.59Z"/><polygon class="cls-4" points="104.21 118.93 6.94 118.93 6.94 150.52 115.66 150.52 115.66 132.44 104.21 118.93"/></g><g id="Person_Running_Left" data-name="Person Running Left"><path class="cls-3" d="M166.27,97.4A9.18,9.18,0,1,1,178.51,93,9.17,9.17,0,0,1,166.27,97.4Z"/><path class="cls-3" d="M194.17,115.79h-14.1l-6.46-10.61a3.65,3.65,0,0,0-1.07-1.12l-14-6.55a3.64,3.64,0,0,0-1-.18l-13.38-.48a3.67,3.67,0,0,0-2.29.7l-13.52,9.84a3.67,3.67,0,0,0,4.32,5.94l12.49-9.09,10,.36L144.37,128h0L127.5,164.16a5.51,5.51,0,1,0,10,4.66l13.18-28.27,13.2,6.29-11.41,12.74a5.51,5.51,0,0,0,8.21,7.35L177,148.7a5.51,5.51,0,0,0-1.74-8.65l-15.95-7.59L169,111.7l5.88,9.67a3.67,3.67,0,0,0,3.14,1.76h16.16a3.67,3.67,0,0,0,0-7.35Z"/><path class="cls-3" d="M135.89,124.07l-5.23-6.16,1.68-1.43a3,3,0,0,0,.34-4.14l-3.8-4.48a3,3,0,0,0-4.14-.34l-1.68,1.43-5.23-6.16a.74.74,0,0,0-1-.09l-14,11.88a.74.74,0,0,0-.09,1l18.05,21.29a.74.74,0,0,0,1,.09l14-11.88A.74.74,0,0,0,135.89,124.07Zm-10.2-15.43a1.47,1.47,0,0,1,2.07.17l3.8,4.48a1.47,1.47,0,0,1-.17,2.07l-1.68,1.43-5.7-6.72Z"/></g><g id="Person_Running_Right" data-name="Person Running Right"><path class="cls-3" d="M322.78,96.4A9.18,9.18,0,1,0,310.54,92,9.17,9.17,0,0,0,322.78,96.4Z"/><path class="cls-3" d="M361.19,101.5l-15-5.43a3.69,3.69,0,0,0-1.38-.22l-13.38.48a3.64,3.64,0,0,0-1,.18l-14,6.56a3.64,3.64,0,0,0-1.49,2.09l-3.65,13.94-15.53-4.18a3.67,3.67,0,0,0-1.91,7.09l19.1,5.14a3.67,3.67,0,0,0,4.51-2.62l3.23-12.33,9,19.25L313.8,139a5.51,5.51,0,0,0-1.78,8.6l13.38,15.29a5.51,5.51,0,0,0,8.29-7.26l-8.59-9.81,13.28-6.32,13.18,28.27a5.51,5.51,0,1,0,10-4.66l-15-32.07h0L333.78,103.6l10.59-.38,14.32,5.19a3.67,3.67,0,1,0,2.5-6.91Z"/><path class="cls-3" d="M359.48,120.9l17.07,6.77a.74.74,0,0,0,1-.41l10.29-25.95a.74.74,0,0,0-.41-1l-17.07-6.77a.74.74,0,0,0-1,.41l-3,7.51-2-.81a3,3,0,0,0-3.81,1.65l-2.17,5.46a3,3,0,0,0,1.65,3.81l2,.81-3,7.51A.74.74,0,0,0,359.48,120.9Zm6.36-18-3.25,8.19-2-.81a1.47,1.47,0,0,1-.82-1.91l2.17-5.46a1.47,1.47,0,0,1,1.91-.82Z"/></g><rect class="cls-5" x="429" y="73" width="2" height="15" rx="1" ry="1" transform="translate(18.07 -66.78) rotate(9.07)"/></g></svg>