<svg xmlns="http://www.w3.org/2000/svg" viewBox="0 0 480 200"><defs><style>.cls-1{fill:#97a433;}.cls-2{fill:#74714d;}.cls-3{fill:#323212;}.cls-4{fill:#bb9c58;}.cls-5{fill:#636d53;}.cls-6{fill:none;stroke:#bb9c58;stroke-miterlimit:10;stroke-width:0.75px;}</style></defs><title>smart_toy_workshop</title><g id="Background"><rect class="cls-1" width="480" height="200"/></g><g id="Layer_1" data-name="Layer 1"><rect class="cls-2" x="229.5" y="-62.5" width="154" height="298" transform="translate(393 -220) rotate(90)"/><rect class="cls-3" x="162" y="15" width="288" height="144"/><path class="cls-4" d="M389.84,151.38h-8.77a1.63,1.63,0,0,1-1.63-1.63v-5a1.63,1.63,0,0,1,1.25-1.58V123.8h-4.26v19.35a1.63,1.63,0,0,1,1.25,1.58v5a1.63,1.63,0,0,1-1.63,1.63h-8.77a1.63,1.63,0,0,1-1.63-1.63v-5a1.63,1.63,0,0,1,1.25-1.58V123.8H366a1.63,1.63,0,0,1-1.63-1.63V120a2.89,2.89,0,0,1-2.51-2.86V103.75h-.5v15.59a1.63,1.63,0,0,1,1.25,1.58v3.76a1.63,1.63,0,0,1-1.63,1.63h-3.76a1.63,1.63,0,0,1-1.63-1.63v-3.76a1.63,1.63,0,0,1,1.25-1.58V103.7a1.63,1.63,0,0,1-1.25-1.58v-10a1.63,1.63,0,0,1,1.63-1.63h4.64v-.88a2.88,2.88,0,0,1,2.88-2.88h5.89V84.95h-.88a2.88,2.88,0,0,1-2.88-2.88V76.91l-2.51-.84V73.83a3.47,3.47,0,0,1-1.79-3V62.15a2.25,2.25,0,1,1,2,0v8.3l2.29-.76V64.15h23.31v5.54l2.48.83V62.15a2.26,2.26,0,1,1,2,0v8.64a3.49,3.49,0,0,1-2,3.15v2.13l-2.51.84v5.16a2.88,2.88,0,0,1-2.88,2.88h-.88v1.76h5.89a2.88,2.88,0,0,1,2.88,2.88v.88h4.64a1.63,1.63,0,0,1,1.63,1.63v10a1.63,1.63,0,0,1-1.25,1.58v15.63a1.63,1.63,0,0,1,1.25,1.58v3.76a1.63,1.63,0,0,1-1.63,1.63h-3.76a1.63,1.63,0,0,1-1.63-1.63v-3.76a1.63,1.63,0,0,1,1.25-1.58V103.75h-.5v13.41a2.89,2.89,0,0,1-2.51,2.86v2.16a1.63,1.63,0,0,1-1.63,1.63h-.88v19.35a1.63,1.63,0,0,1,1.25,1.58v5A1.63,1.63,0,0,1,389.84,151.38Zm-8.77-7.52a.88.88,0,0,0-.88.88v5a.88.88,0,0,0,.88.88h8.77a.88.88,0,0,0,.88-.88v-5a.88.88,0,0,0-.88-.88h-.37v-20.8h1.63a.88.88,0,0,0,.88-.88v-2.88h.38a2.13,2.13,0,0,0,2.13-2.13V103h2v17h-.37a.88.88,0,0,0-.88.88v3.76a.88.88,0,0,0,.88.88h3.76a.88.88,0,0,0,.88-.88v-3.76a.88.88,0,0,0-.88-.88h-.37V103h.38a.88.88,0,0,0,.88-.88v-10a.88.88,0,0,0-.88-.88h-5.39V89.59a2.13,2.13,0,0,0-2.13-2.13h-6.64V84.2h1.63a2.13,2.13,0,0,0,2.13-2.13v-5.7l2.51-.84V73.44l.24-.09a2.74,2.74,0,0,0,1.74-2.56V61.63l.25-.09a1.5,1.5,0,1,0-1,0l.25.09v9.15a2.24,2.24,0,0,1-.86,1.76L392,73v-2l-2.51-.84V64.9H367.66v5.33l-2.51.84v2l-.64-.66a2.24,2.24,0,0,1-.64-1.57V61.63l.25-.09a1.51,1.51,0,1,0-1,0l.25.09v9.15a2.74,2.74,0,0,0,1.57,2.48l.21.1v2.16l2.51.84v5.7a2.13,2.13,0,0,0,2.13,2.13h1.63v3.26h-6.64a2.13,2.13,0,0,0-2.13,2.13v1.63h-5.39a.88.88,0,0,0-.88.88v10a.88.88,0,0,0,.88.88h.38v17h-.37a.88.88,0,0,0-.88.88v3.76a.88.88,0,0,0,.88.88H361a.88.88,0,0,0,.88-.88v-3.76A.88.88,0,0,0,361,120h-.37V103h2v14.16a2.13,2.13,0,0,0,2.13,2.13h.38v2.88a.88.88,0,0,0,.88.88h1.63v20.8h-.37a.88.88,0,0,0-.88.88v5a.88.88,0,0,0,.88.88h8.77a.88.88,0,0,0,.88-.88v-5a.88.88,0,0,0-.88-.88h-.37v-20.8h5.76v20.8Zm5-62.67H371a1.63,1.63,0,0,1-1.63-1.63V78.31A1.63,1.63,0,0,1,371,76.68h15a1.63,1.63,0,0,1,1.63,1.63v1.25A1.63,1.63,0,0,1,386.08,81.19Zm-15-3.76a.88.88,0,0,0-.88.88v1.25a.88.88,0,0,0,.88.88h15a.88.88,0,0,0,.88-.88V78.31a.88.88,0,0,0-.88-.88Zm13.16-5a3.51,3.51,0,1,1,3.51-3.51A3.51,3.51,0,0,1,384.2,72.42Zm0-6.27A2.76,2.76,0,1,0,387,68.91,2.76,2.76,0,0,0,384.2,66.15Zm-11.28,6.27a3.51,3.51,0,1,1,3.51-3.51A3.51,3.51,0,0,1,372.92,72.42Zm0-6.27a2.76,2.76,0,1,0,2.76,2.76A2.76,2.76,0,0,0,372.92,66.15Z"/><path class="cls-5" d="M83.11,59.69A17.35,17.35,0,1,0,65.79,42.3,17.42,17.42,0,0,0,83.11,59.69Z"/><path class="cls-5" d="M169.59,63.29a6.74,6.74,0,0,0-2.36.13c-9.13.49-42.6,2.22-62.35,2.22H61.53c-23,0-14.9,70.44-14.9,70.44a6.77,6.77,0,1,0,13.44-1.16c-.72-8.06-4.74-55.73,1.46-55.73V200H81.85V136.08h2.71V200h20.32V79.18c6.77,0,63-2.45,63-2.45a6.77,6.77,0,0,0,1.67-13.44Z"/><path class="cls-4" d="M260.65,80.86l-.31-.88a11.61,11.61,0,0,1-.78-4.06c-5.21-.8-6.21-6.7-6.22-6.77l-.05-.34.3-.17c.14-.08,3.36-1.86,7.37,1.07.84-2.64,4-9.4,13.77-9l.95,0ZM254.4,69.37c.29,1.25,1.56,5.25,5.72,5.62l.5,0,0,.5a8.87,8.87,0,0,0,.41,3.21l12.73-17.06c-9.36.12-11.63,7.49-12,9l-.19.78-.62-.52C257.84,68.39,255.28,69,254.4,69.37Z"/><path class="cls-4" d="M265.16,143.55c-21.49,0-25.68,0-26.61-.12v0c-28.93-2.09-41.79-12.54-41.7-33.89.06-13.85,5.44-20.38,9.37-25.14,2.41-2.92,4.14-5,3.64-7.67-1.32-7-10.11-9.57-10.2-9.59l-1.07-.3.93-.6c.26-.16,25.85-16.29,39.54.5,8.3,10.18,2.25,17.06-4.15,24.35-4.56,5.2-9.28,10.57-10.35,17.89-1.54,10.58.83,16.45,3.67,19.67a31.15,31.15,0,0,1-1.68-15.41C229,95.91,251.62,87.85,253.85,87.1a35.57,35.57,0,0,1,6.64-7.67l.21-.17,22.65,7.18.08.25a31.26,31.26,0,0,1,1,11.19V98l-.06.1c-3.74,6.23-12,3.37-13.36,2.86a10.54,10.54,0,0,0-4.73,3.83,15,15,0,0,0,9-1.4,3.73,3.73,0,0,1,4.93,1.86,4.05,4.05,0,0,1,0,3.34,2.92,2.92,0,0,1-1.92,1.62c-.46.12-1.25.25-2.25.43s-2.11.37-3.27.6c-2.83.58-6.8,1.09-10,.31a42.26,42.26,0,0,0-1.39,4.66,14,14,0,0,1,1.52,19.88h2.28a3.73,3.73,0,0,1,0,7.46Zm-26.49-1.08c1,0,17.69.07,26.49.08a2.73,2.73,0,0,0,0-5.46H260.5l.88-.86a13,13,0,0,0-.88-19.45l-.24-.2.07-.3a42.83,42.83,0,0,1,1.65-5.52l.16-.43.45.13c3.2.93,7.6.27,9.94-.21,1.16-.24,2.32-.44,3.3-.61s1.75-.3,2.17-.41a1.93,1.93,0,0,0,1.26-1.08,3,3,0,0,0,0-2.5,2.73,2.73,0,0,0-3.61-1.36c-2.64,1.2-6.58,2.38-10.4,1.28l-.66-.19.39-.57a11.83,11.83,0,0,1,5.83-4.86l.18-.06.17.07c.09,0,8.59,3.58,12.23-2.28a30.53,30.53,0,0,0-.85-10.46l-21.64-6.86a36.13,36.13,0,0,0-6.31,7.41l-.1.16-.18.06c-.24.08-24.27,7.87-26.78,25.42a30.42,30.42,0,0,0,2.49,17l.84,1.87-1.61-1.28c-3.65-2.9-7.61-9.09-5.7-22.18,1.11-7.61,6.15-13.35,10.59-18.41,6.64-7.56,11.89-13.53,4.12-23.05-11.7-14.35-32.68-3.5-37.31-.84,2.51.94,8.69,3.86,9.86,10,.59,3.11-1.37,5.48-3.85,8.49-3.83,4.65-9.08,11-9.14,24.51-.09,21,12.1,30.82,40.77,32.88Z"/><path class="cls-6" d="M389.84,64.52a2.51,2.51,0,0,0,.9-3.43l-.95-1.62.77-1.17-1.26-2.16,1.08-.63a2.51,2.51,0,0,0,.9-3.43L390,49.9a2.51,2.51,0,0,0-3.43-.9l-1.08.63-1.26-2.16-1.4.09-.95-1.62a2.51,2.51,0,0,0-3.43-.9Z"/><g id="Brain"><path class="cls-4" d="M310.36,56.35l-.26,0c-1.1-.17-1.46-1.62-1.91-3.45-.17-.69-.35-1.4-.57-2.09a4.56,4.56,0,0,1-3.32-4.37,4.51,4.51,0,0,1,1.42-3.27,4.27,4.27,0,0,1-.07-.77,4.54,4.54,0,0,1,4.54-4.54h.23a4.49,4.49,0,0,1,6.11-1.47,4.6,4.6,0,0,1,5.3-.65,4.53,4.53,0,0,1,6.31,2A4.55,4.55,0,0,1,331.18,42a4.48,4.48,0,0,1-.27,1.54,4.48,4.48,0,0,1,.27,1.54,4.53,4.53,0,0,1-5.07,4.5,4.49,4.49,0,0,1-6.52,1.23,4.55,4.55,0,0,1-5,.27c-.5.74-.94,1.52-1.33,2.22C312.37,54.93,311.58,56.35,310.36,56.35Zm-.18-17.51a3.5,3.5,0,0,0-3.43,4.37l.07.3-.24.2a3.52,3.52,0,0,0,1.52,6.17l.28.06.09.27c.28.82.5,1.68.68,2.43.29,1.17.65,2.63,1.1,2.7.68.1,1.36-1.12,2.16-2.54A26.42,26.42,0,0,1,314,50.14l.14-.19.42,0,.23.1a3.55,3.55,0,0,0,4.43-.23l.33-.3.33.3a3.49,3.49,0,0,0,5.48-1l.17-.33.37.07a3.53,3.53,0,0,0,4-4.81l-.08-.19.08-.19a3.51,3.51,0,0,0-2.29-4.73l-.23-.07-.09-.22a3.53,3.53,0,0,0-5.21-1.59l-.28.18-.28-.18a3.59,3.59,0,0,0-4.58.62l-.3.34-.37-.27a3.5,3.5,0,0,0-5.18,1.2l-.16.3-.47-.06Z"/><path class="cls-4" d="M329.87,44.54a.5.5,0,0,0-.71.1,2.42,2.42,0,0,1-1.6.91,1.92,1.92,0,0,1-1.33-.59A4.45,4.45,0,0,0,328,41.37a.5.5,0,0,0-1,0c0,.11,0,2.77-2.26,3.12-1.58.24-2.59-.6-3.58-1.41a8.13,8.13,0,0,0-1.27-.88c.1-2.71,1.55-3.7,1.61-3.74a.5.5,0,0,0-.53-.86,5.4,5.4,0,0,0-2.06,4.15,6,6,0,0,0-5.5.51c-.29-.11-.49-.26-.53-.44-.16-.72,1-2.17,1.94-3a.5.5,0,1,0-.67-.76c-.44.39-2.61,2.39-2.25,3.94a1.54,1.54,0,0,0,.6.87c-.27.21-.54.45-.82.72a6.41,6.41,0,0,0-1.48,2.46c-.56,0-1.84-.3-2.51-2.23a.5.5,0,1,0-1,.33,3.93,3.93,0,0,0,3.16,2.89,21.06,21.06,0,0,0-.17,8.28.5.5,0,0,0,.5.42h.08a.5.5,0,0,0,.42-.58,20.8,20.8,0,0,1-.11-6.62.49.49,0,0,0,.24.07c5.48,0,6-2.69,6-2.81a.5.5,0,0,0-.4-.58.51.51,0,0,0-.59.39s-.48,2-5,2h-.07a6.56,6.56,0,0,1,1.59-3.31c3-2.91,5.23-2,6.8-1.41a5.16,5.16,0,0,1,1.23.84,2.6,2.6,0,0,0-.59,1.62c0,1.91,1.89,3.72,2,3.8a.5.5,0,0,0,.69-.74s-1.68-1.59-1.65-3a1.61,1.61,0,0,1,.37-1,4.64,4.64,0,0,0,3.69,1.08,3.38,3.38,0,0,0,.37-.1,3.14,3.14,0,0,0,2.28,1.17h.06A3.41,3.41,0,0,0,330,45.24.5.5,0,0,0,329.87,44.54Z"/></g><path class="cls-4" d="M274.37,79.49l-1-.31A39.38,39.38,0,0,1,298.56,53.6l.3,1A38.37,38.37,0,0,0,274.37,79.49Z"/><polygon class="cls-4" points="296.94 59.08 296.05 58.61 298.36 54.26 293.85 52.27 294.25 51.36 299.75 53.77 296.94 59.08"/><path class="cls-4" d="M374.44,54.84c-6-11.71-25.71-14.44-37.08-11.86l-.22-1c11.68-2.65,32,.22,38.19,12.38Z"/><polygon class="cls-4" points="369.6 53.86 369.89 52.9 374.61 54.33 375.69 49.52 376.67 49.74 375.35 55.6 369.6 53.86"/></g></svg>