<svg id="Layer_1" data-name="Layer 1" xmlns="http://www.w3.org/2000/svg" viewBox="0 0 97.41 95"><defs><style>.cls-1{fill:#fff;fill-rule:evenodd;}</style></defs><title>social_icon_github</title><path class="cls-1" d="M48.45,2.52A48.71,48.71,0,0,0,34.61,97.42c2.44.45,3.32-1.06,3.32-2.35s0-4.22-.07-8.28c-13.55,2.94-16.41-6.53-16.41-6.53-2.21-5.63-5.41-7.12-5.41-7.12-4.42-3,.33-3,.33-3,4.89.34,7.46,5,7.46,5,4.34,7.44,11.4,5.29,14.17,4a10.41,10.41,0,0,1,3.09-6.51C30.3,71.5,18.93,67.32,18.93,48.66a18.83,18.83,0,0,1,5-13.07c-.5-1.23-2.17-6.18.48-12.89,0,0,4.09-1.31,13.39,5a46.16,46.16,0,0,1,24.39,0c9.3-6.3,13.38-5,13.38-5,2.66,6.71,1,11.66.48,12.89a18.79,18.79,0,0,1,5,13.07c0,18.71-11.39,22.83-22.24,24,1.75,1.5,3.31,4.48,3.31,9,0,6.51-.06,11.76-.06,13.36,0,1.3.88,2.82,3.35,2.34a48.71,48.71,0,0,0-17-94.89Z" transform="translate(-1.3 -2.5)"/></svg>