<svg id="Layer_1" data-name="Layer 1" xmlns="http://www.w3.org/2000/svg" viewBox="0 0 100 100"><defs><style>.cls-1{fill:#fff;}</style></defs><title>social_icon_linkedin</title><path class="cls-1" d="M92,0H8A8,8,0,0,0,0,8V92a8,8,0,0,0,8,8H92a8,8,0,0,0,8-8V8A8,8,0,0,0,92,0ZM29.73,85.21H14.89V37.49H29.73ZM22.31,31a8.6,8.6,0,1,1,8.6-8.6A8.6,8.6,0,0,1,22.31,31Zm63,54.24H70.45V62c0-5.53-.1-12.65-7.71-12.65s-8.9,6-8.9,12.26v23.6H39V37.49H53.25V44h.2c2-3.75,6.82-7.71,14-7.71,15,0,17.79,9.88,17.79,22.73Z"/></svg>