<svg xmlns="http://www.w3.org/2000/svg" viewBox="0 0 480 200"><defs><style>.cls-1{fill:#b7d7d8;}.cls-2{fill:#ff8984;}.cls-3{fill:#204e5f;}.cls-4{fill:#fff;}.cls-5{fill:#bf957e;}.cls-6,.cls-8{fill:none;stroke:#204e5f;}.cls-6{stroke-miterlimit:10;stroke-width:4px;}.cls-7{fill:#edf7f5;}.cls-8{stroke-linejoin:round;}.cls-9{fill:#ffc6a8;}</style></defs><title>sports_watch</title><g id="Background"><rect class="cls-1" width="480" height="200"/></g><g id="Layer_1" data-name="Layer 1"><path class="cls-2" d="M353,66.82a15.56,15.56,0,1,0-1.64-22A15.62,15.62,0,0,0,353,66.82Z"/><path class="cls-2" d="M420.19,82.61a6,6,0,0,0-7.94-3,122.21,122.21,0,0,1-20.78,6.82c-13,2.9-22.46,2-26.73-2.4a3.91,3.91,0,0,0-.44-.37l.07-.08L334.85,58.27l-.12.14c-23.52-15.09-58.92,4.58-60.42,5.43a6,6,0,0,0,5.9,10.45c8.19-4.63,31.9-14.42,46.59-6.63l-30,34.93-70.2,3.67a9,9,0,0,0,.46,18h.48l80.19-4.18a9,9,0,0,0,1.74-.26l.72.62a9.64,9.64,0,0,0-.24,1.8l-2.3,70.23a8.94,8.94,0,0,0,3.69,7.56H322a9,9,0,0,0,3.71-7l2.19-66.88L356.5,92.76c5.54,5.46,13.4,7.37,21.65,7.37,17.18,0,36.05-8.22,39.05-9.58A6,6,0,0,0,420.19,82.61Z"/><g id="TableTennis"><g id="Table"><rect class="cls-3" x="144" y="142" width="6" height="58"/><rect class="cls-3" x="369" y="142" width="6" height="58"/><rect class="cls-3" x="140" y="134" width="239" height="7"/><rect class="cls-3" x="134" y="129" width="250" height="4"/></g><g id="Net"><path d="M382.25,127.75H135.75v-15.5h246.5Zm-246-.5h245.5v-14.5H136.25Z"/><rect x="136" y="115.25" width="246" height="0.5"/><rect x="136" y="118.25" width="246" height="0.5"/><rect x="136" y="121.25" width="246" height="0.5"/><rect x="136" y="124.25" width="246" height="0.5"/><rect x="138.75" y="112.5" width="0.5" height="15"/><rect x="141.75" y="112.5" width="0.5" height="15"/><rect x="144.75" y="112.5" width="0.5" height="15"/><rect x="147.75" y="112.5" width="0.5" height="15"/><rect x="150.75" y="112.5" width="0.5" height="15"/><rect x="153.75" y="112.5" width="0.5" height="15"/><rect x="156.75" y="112.5" width="0.5" height="15"/><rect x="159.75" y="112.5" width="0.5" height="15"/><rect x="162.75" y="112.5" width="0.5" height="15"/><rect x="165.75" y="112.5" width="0.5" height="15"/><rect x="168.75" y="112.5" width="0.5" height="15"/><rect x="171.75" y="112.5" width="0.5" height="15"/><rect x="174.75" y="112.5" width="0.5" height="15"/><rect x="177.75" y="112.5" width="0.5" height="15"/><rect x="180.75" y="112.5" width="0.5" height="15"/><rect x="183.75" y="112.5" width="0.5" height="15"/><rect x="186.75" y="112.5" width="0.5" height="15"/><rect x="189.75" y="112.5" width="0.5" height="15"/><rect x="192.75" y="112.5" width="0.5" height="15"/><rect x="195.75" y="112.5" width="0.5" height="15"/><rect x="198.75" y="112.5" width="0.5" height="15"/><rect x="201.75" y="112.5" width="0.5" height="15"/><rect x="204.75" y="112.5" width="0.5" height="15"/><rect x="207.75" y="112.5" width="0.5" height="15"/><rect x="210.75" y="112.5" width="0.5" height="15"/><rect x="213.75" y="112.5" width="0.5" height="15"/><rect x="216.75" y="112.5" width="0.5" height="15"/><rect x="219.75" y="112.5" width="0.5" height="15"/><rect x="222.75" y="112.5" width="0.5" height="15"/><rect x="225.75" y="112.5" width="0.5" height="15"/><rect x="228.75" y="112.5" width="0.5" height="15"/><rect x="231.75" y="112.5" width="0.5" height="15"/><rect x="234.75" y="112.5" width="0.5" height="15"/><rect x="237.75" y="112.5" width="0.5" height="15"/><rect x="240.75" y="112.5" width="0.5" height="15"/><rect x="243.75" y="112.5" width="0.5" height="15"/><rect x="246.75" y="112.5" width="0.5" height="15"/><rect x="249.75" y="112.5" width="0.5" height="15"/><rect x="252.75" y="112.5" width="0.5" height="15"/><rect x="255.75" y="112.5" width="0.5" height="15"/><rect x="258.75" y="112.5" width="0.5" height="15"/><rect x="261.75" y="112.5" width="0.5" height="15"/><rect x="264.75" y="112.5" width="0.5" height="15"/><rect x="267.75" y="112.5" width="0.5" height="15"/><rect x="270.75" y="112.5" width="0.5" height="15"/><rect x="273.75" y="112.5" width="0.5" height="15"/><rect x="276.75" y="112.5" width="0.5" height="15"/><rect x="279.75" y="112.5" width="0.5" height="15"/><rect x="282.75" y="112.5" width="0.5" height="15"/><rect x="285.75" y="112.5" width="0.5" height="15"/><rect x="288.75" y="112.5" width="0.5" height="15"/><rect x="291.75" y="112.5" width="0.5" height="15"/><rect x="294.75" y="112.5" width="0.5" height="15"/><rect x="297.75" y="112.5" width="0.5" height="15"/><rect x="300.75" y="112.5" width="0.5" height="15"/><rect x="303.75" y="112.5" width="0.5" height="15"/><rect x="306.75" y="112.5" width="0.5" height="15"/><rect x="309.75" y="112.5" width="0.5" height="15"/><rect x="312.75" y="112.5" width="0.5" height="15"/><rect x="315.75" y="112.5" width="0.5" height="15"/><rect x="318.75" y="112.5" width="0.5" height="15"/><rect x="321.75" y="112.5" width="0.5" height="15"/><rect x="324.75" y="112.5" width="0.5" height="15"/><rect x="327.75" y="112.5" width="0.5" height="15"/><rect x="330.75" y="112.5" width="0.5" height="15"/><rect x="333.75" y="112.5" width="0.5" height="15"/><rect x="336.75" y="112.5" width="0.5" height="15"/><rect x="339.75" y="112.5" width="0.5" height="15"/><rect x="342.75" y="112.5" width="0.5" height="15"/><rect x="345.75" y="112.5" width="0.5" height="15"/><rect x="348.75" y="112.5" width="0.5" height="15"/><rect x="351.75" y="112.5" width="0.5" height="15"/><rect x="354.75" y="112.5" width="0.5" height="15"/><rect x="357.75" y="112.5" width="0.5" height="15"/><rect x="360.75" y="112.5" width="0.5" height="15"/><rect x="363.75" y="112.5" width="0.5" height="15"/><rect x="366.75" y="112.5" width="0.5" height="15"/><rect x="369.75" y="112.5" width="0.5" height="15"/><rect x="372.75" y="112.5" width="0.5" height="15"/><rect x="375.75" y="112.5" width="0.5" height="15"/><rect x="378.75" y="112.5" width="0.5" height="15"/><rect x="133" y="111" width="2" height="22"/><rect x="383" y="111" width="2" height="22"/><rect x="382" y="113" width="2" height="2" transform="translate(269 497) rotate(-90)"/><rect x="382" y="125" width="2" height="2" transform="translate(257 509) rotate(-90)"/><rect x="134" y="125" width="2" height="2" transform="translate(9 261) rotate(-90)"/><rect x="134" y="113" width="2" height="2" transform="translate(21 249) rotate(-90)"/><rect class="cls-4" x="135" y="111" width="248" height="2"/></g></g><path class="cls-2" d="M175,106.66c-.93-1.26-23.08-31.12-44.7-42.1a6.44,6.44,0,0,0-3.27-.69v0H86v.06a6.52,6.52,0,0,0-5.26,4.26c-4.37,12.25-7.5,18.06-9.36,20.77A59.54,59.54,0,0,1,69,76a6.5,6.5,0,0,0-13,1,87.31,87.31,0,0,0,1.71,11.08c.83,3.63,3.36,14.65,11.72,15.76a10.43,10.43,0,0,0,1.35.09c6,0,10.76-5.39,15.25-14.4v36.51c0,.35-.06.7-.06,1.05v71.26a9.66,9.66,0,0,0,.15,1.62h18.7a8.72,8.72,0,0,0,.15-1.62V131.52h3.13v66.86a9.66,9.66,0,0,0,.14,1.62H127a9.66,9.66,0,0,0,.15-1.62V127.12a9.26,9.26,0,0,0-.07-1.05V77.6c18.14,10.7,37.3,36.5,37.5,36.77A6.5,6.5,0,0,0,175,106.66Z"/><path class="cls-2" d="M90,48a2,2,0,0,0,2,2l.16,0a16.49,16.49,0,1,0-1.55-3.41A2,2,0,0,0,90,48Z"/><path class="cls-5" d="M427.61,53.19c-6.21-2.31-13.35,1.49-15.95,8.48a14.66,14.66,0,0,0-.8,7.17,6.66,6.66,0,0,0,1,2.66A13.82,13.82,0,0,0,413,72.85c1,1.19,2.48,2.94,3.52,4.38l-4,10.89,3.75,1.39,4-10.89c1.74-.4,4-.78,5.53-1a12.76,12.76,0,0,0,1.76-.27,6.49,6.49,0,0,0,2.5-1.35,14.68,14.68,0,0,0,4.07-6C436.76,63,433.82,55.49,427.61,53.19Z"/><path class="cls-5" d="M220.8,52.09c-4.15-5.16-12.23-5.56-18-.89A14.72,14.72,0,0,0,198.4,57a6.48,6.48,0,0,0-.49,2.8,13.34,13.34,0,0,0,.3,1.76c.26,1.54.62,3.79.78,5.57l-9.05,7.27,2.51,3.12,9.05-7.28c1.69.54,3.82,1.37,5.27,2a12.37,12.37,0,0,0,1.65.67,6.32,6.32,0,0,0,2.84.12,14.71,14.71,0,0,0,6.55-3C223.62,65.23,225,57.25,220.8,52.09Z"/><line class="cls-6" x1="168.5" y1="96.5" x2="157.5" y2="106.5"/><rect class="cls-3" x="163.04" y="92.91" width="12.66" height="5.07" transform="translate(126.52 -94.18) rotate(47.86)"/><circle class="cls-4" cx="410.5" cy="36.5" r="4.5"/><rect class="cls-3" x="61" y="65" width="10" height="17" rx="1" transform="translate(-14.74 16.58) rotate(-12.9)"/><rect class="cls-7" x="61.6" y="66.02" width="8.8" height="14.95" rx="0.88" transform="translate(-14.74 16.58) rotate(-12.9)"/><rect class="cls-3" x="190" y="73" width="5" height="4" transform="translate(118.51 -117.89) rotate(47.73)"/><polyline class="cls-8" points="168.5 93.5 176.5 93.5 177.5 83.5 187.5 83.5 189.5 71.5 195.5 78.5 183.5 78.5 182.5 88.5 171.5 88.5 170.5 96.5"/><path class="cls-9" d="M68.44,70.44c-1.18.21-1,1.34-.85,2.43a4,4,0,0,1-.17,2.64,3.47,3.47,0,0,0,0-1.28,3,3,0,0,0-2-2.33,1.56,1.56,0,0,0,.42-1.45,1.5,1.5,0,0,0-.23-.55l-.17-1.54-.71.92a1.47,1.47,0,0,0-.75,0,1.54,1.54,0,0,0-.62.29l-1-.51.44,1.29a1.44,1.44,0,0,0,0,.8,1.55,1.55,0,0,0,1,1.14A3,3,0,0,0,63,75.2a3.29,3.29,0,0,0,1.1,1.88l.07.3a.59.59,0,0,0-.33.61s0,.08,0,.11l1.29-.28s0-.08,0-.12a.31.31,0,0,0-.06-.13,1.89,1.89,0,0,0,.71,0,1.82,1.82,0,0,0,.65-.29.71.71,0,0,0,0,.14l0,.11,1.29-.29a.45.45,0,0,0,0-.11.58.58,0,0,0-.55-.41l-.07-.29c1.27-.91,1-2.43.87-3.61s-.2-1.8.48-1.92a.23.23,0,1,0-.07-.45Z"/></g></svg>