<svg xmlns="http://www.w3.org/2000/svg" viewBox="0 0 480 200"><defs><style>.cls-1{fill:#cee8f3;}.cls-2,.cls-3,.cls-8{fill:none;}.cls-2,.cls-8{stroke:#1a4457;}.cls-2,.cls-3{stroke-linejoin:round;}.cls-3{stroke:#834760;stroke-width:4px;}.cls-3,.cls-6{stroke-linecap:round;}.cls-4{fill:#1a4457;}.cls-5,.cls-6{fill:#59add3;}.cls-6{stroke:#5b5d5f;}.cls-6,.cls-8{stroke-miterlimit:10;}.cls-7{fill:#5b5d5f;}.cls-8{stroke-width:2px;}</style></defs><title>surgical_robot</title><g id="Background"><rect class="cls-1" width="480" height="200"/></g><g id="Layer_1" data-name="Layer 1"><path class="cls-2" d="M440,57c.5,24.5-4.5,63.36-13,63.36S429.5,18,414,18s6.5,99.5-27,122c-32.79,22-48-40-48-40"/><path class="cls-3" d="M327.23,99.36C326,89,302,93,291.5,85.5s4-24,4-24"/><g id="PatientInBed"><g id="HospitalBed"><path class="cls-4" d="M370,166H286a3.25,3.25,0,0,0-3,3.43V174h90v-4.57A3.25,3.25,0,0,0,370,166Z"/><circle class="cls-4" cx="288" cy="180" r="4"/><polygon class="cls-4" points="290 180 286 180 285 175 291 175 290 180"/><circle class="cls-4" cx="368" cy="180" r="4"/><polygon class="cls-4" points="370 180 366 180 365 175 371 175 370 180"/><path class="cls-4" d="M396.17,103.16l-37.61,6-49.18,17.53-60.89,10a1.5,1.5,0,0,1-1.72-1.24l-.32-2a1.5,1.5,0,0,1,1.24-1.72l60.57-9.83,49.59-17.68,37.54-6a1.5,1.5,0,0,1,1.72,1.24l.32,2A1.5,1.5,0,0,1,396.17,103.16Z"/><path class="cls-4" d="M346,166.42A5.71,5.71,0,0,0,340.5,161h-25a5.71,5.71,0,0,0-5.47,5.42h0V171h36v-4.58Z"/><polygon class="cls-4" points="334 117 322 121 322 164 334 164 334 117"/><path class="cls-4" d="M315.23,123.37l.66,1.89a1,1,0,0,0,1.27.61L339.82,118a1,1,0,0,0,.61-1.27l-.66-1.89Z"/></g><g id="Patient"><path class="cls-5" d="M361.06,90a12.8,12.8,0,1,1,16.39,7.78A12.79,12.79,0,0,1,361.06,90Z"/><path class="cls-5" d="M360.15,101.27l-5-14.13-49,17.46-3.49,1.24-46.26,7.81v0a7.49,7.49,0,0,0,2.48,14.74v0l48-8.08,5.26-2,24.11-8.6c-9.08,8.25-22.08,17.94-22.08,17.94a5,5,0,1,0,6.71,7.41s23.9-17.09,31.09-31Z"/></g></g><g id="IV"><circle class="cls-4" cx="404" cy="181" r="3"/><circle class="cls-4" cx="450" cy="181" r="3"/><path class="cls-4" d="M452.05,176H401.95A3,3,0,0,0,399,179v1h1.67a3.48,3.48,0,0,1,6.65,0h39.35a3.48,3.48,0,0,1,6.65,0H455v-1A3,3,0,0,0,452.05,176Z"/><path class="cls-4" d="M441,17c0,1.55-.45,2-1,2a1,1,0,0,1-1-1V17H415v1a1,1,0,0,1-1,1c-.55,0-1-.45-1-2h-2c0,2.66,1.34,4,3,4a3,3,0,0,0,2.82-2h20.37A3,3,0,0,0,440,21c1.66,0,3-1.34,3-4Z"/><polygon class="cls-4" points="428 18 426 18 425 18 426 28 426 178 428 178 428 28 429 18 428 18"/><rect class="cls-4" x="439" y="56" width="2" height="2"/><path class="cls-5" d="M434,39.07V54.16a2.09,2.09,0,0,0,2.15,2h7.69a2.09,2.09,0,0,0,2.15-2V39.75C440.45,40.76,439.55,38.06,434,39.07Zm5,4.43a1.5,1.5,0,1,1,1.5,1.5A1.5,1.5,0,0,1,439,43.5Zm2,10a.5.5,0,1,1,.5-.5A.5.5,0,0,1,441,53.5Zm1-3.5a1,1,0,1,1,1-1A1,1,0,0,1,442,50Z"/><path class="cls-4" d="M444.5,29.5h-9a2,2,0,0,0-2,2v23a2,2,0,0,0,2,2h9a2,2,0,0,0,2-2v-23A2,2,0,0,0,444.5,29.5Zm1.07,24.25a2,2,0,0,1-2,2h-7.14a2,2,0,0,1-2-2V32.25a2,2,0,0,1,2-2h7.14a2,2,0,0,1,2,2Z"/><polygon class="cls-4" points="441.5 21.46 440.57 21.82 442.93 28 437.06 28 440.16 19.88 439.23 19.52 436 28 436 29 444 29 444 28 441.5 21.46"/></g><g id="Doctor"><rect class="cls-5" x="44" y="124" width="15" height="53"/><circle class="cls-5" cx="51.5" cy="176.5" r="7.5"/><rect class="cls-5" x="61" y="124" width="15" height="53"/><circle class="cls-5" cx="68.5" cy="176.5" r="7.5"/><rect class="cls-5" x="44" y="73" width="32" height="52"/><path class="cls-5" d="M59.93,68.61A12.8,12.8,0,1,1,72.76,55.79,12.79,12.79,0,0,1,59.93,68.61Z"/><line class="cls-6" x1="54" y1="57" x2="47" y2="55"/><line class="cls-6" x1="54" y1="62" x2="48.5" y2="62.5"/><line class="cls-6" x1="66" y1="57" x2="73" y2="55"/><line class="cls-6" x1="66" y1="62" x2="70.5" y2="62.5"/><path class="cls-7" d="M64.29,64H55.71a2,2,0,0,1-2-2V58a2,2,0,0,1,2-2A12,12,0,0,1,60,55a12.81,12.81,0,0,1,4.33,1,2,2,0,0,1,2,2v4A2,2,0,0,1,64.29,64Z"/><polygon class="cls-4" points="70 116 51 116 50 97 71 97 70 116"/><path class="cls-1" d="M77,96.51a11,11,0,0,1-.53,1.05A6.12,6.12,0,0,1,71,101a6,6,0,0,0,0,12,11.08,11.08,0,0,0,6-1.82Z"/><path class="cls-5" d="M71,112V102c10,0,10-19,5-19H75V73h1C93,73,87,112,71,112Z"/><circle class="cls-5" cx="71" cy="107" r="5"/><path class="cls-1" d="M49,101a6.12,6.12,0,0,1-5.47-3.44A11,11,0,0,1,43,96.51v14.67A11.08,11.08,0,0,0,49,113a6,6,0,1,0,0-12Z"/><path class="cls-5" d="M49,112V102c-10,0-10-19-5-19h1V73H44C27,73,33,112,49,112Z"/><circle class="cls-5" cx="49" cy="107" r="5"/><polygon class="cls-4" points="70 95 51 95 50 97 71 97 70 95"/></g><g id="RobotArm"><path class="cls-4" d="M256,184V170.32c0-3.47-2-6.32-4.4-6.32H180.4c-2.42,0-4.4,2.84-4.4,6.32V184Z"/><polygon class="cls-4" points="296.05 89.84 284.43 89.72 278.16 76.48 275.37 81.63 281.59 94.73 298.67 93.1 298.6 91.29 296.05 89.84"/><polygon class="cls-4" points="298.75 70.29 283.93 69.11 280.5 73.42 280.47 73.57 295.08 74.73 299.33 85.55 301.58 87.41 303.31 86.84 298.75 70.29"/><polygon class="cls-4" points="264.71 75.5 274.13 61.8 272.59 59.15 261.69 75.01 264.71 75.5"/><polygon class="cls-4" points="265.18 75.83 274.6 62.12 277.63 62.61 266.72 78.48 265.18 75.83"/><polygon class="cls-4" points="270.22 79.29 279.64 65.59 278.1 62.94 267.19 78.8 270.22 79.29"/><polygon class="cls-4" points="270.69 79.61 280.11 65.91 283.13 66.4 272.23 82.26 270.69 79.61"/><polygon class="cls-4" points="259.66 72.03 269.08 58.33 272.1 58.82 261.2 74.68 259.66 72.03"/><polygon class="cls-4" points="275.74 83.08 285.16 69.38 283.62 66.73 272.72 82.59 275.74 83.08"/><polygon class="cls-4" points="235.5 153.75 194.5 155.75 191.5 159.5 239.5 158.5 235.5 153.75"/><polygon class="cls-4" points="235.5 153 194.5 155 191.5 152.25 237.5 147.25 235.5 153"/><polygon class="cls-4" points="231.5 142.75 195.5 147.75 191.5 151.5 237.5 146.5 231.5 142.75"/><polygon class="cls-4" points="231.5 142 195.5 147 192.5 144.25 232.5 137.25 231.5 142"/><polygon class="cls-4" points="226.5 133.75 194.5 139.75 192.5 143.5 232.5 136.5 226.5 133.75"/><polygon class="cls-4" points="235.5 164.25 194.5 164.25 191.5 160.25 239.5 159.25 235.5 164.25"/><circle class="cls-4" cx="195" cy="76" r="14.5"/><circle class="cls-4" cx="252.9" cy="56.78" r="11.5" transform="translate(-4.56 86.77) rotate(-19.3)"/><path class="cls-4" d="M207.8,85.57a15.91,15.91,0,0,1-18.51,5.36L197,140l28-5.33Z"/><path class="cls-4" d="M266.1,57a13.21,13.21,0,0,1-8.83,12.21l-.25.07,3.53,2.42,8.65-12.58Z"/><path class="cls-4" d="M245.64,67.81a13.15,13.15,0,0,1-5.29-15.1L206.26,64.64a15.89,15.89,0,0,1,4.18,15.49Z"/></g><path class="cls-8" d="M60,96c.5-36.5-2.5,89.5,36,90,30.5.4,79.5,3.5,60-2s30-3,30-3"/></g></svg>