<svg xmlns="http://www.w3.org/2000/svg" viewBox="0 0 480 200"><defs><style>.cls-1{fill:#cee8f3;}.cls-2{fill:#1a4457;}.cls-3{fill:#834760;}.cls-4{fill:#59add3;}.cls-5{fill:#fff;}</style></defs><title>surgical_robot</title><g id="Background"><rect class="cls-1" width="480" height="200"/></g><g id="Layer_1" data-name="Layer 1"><path class="cls-2" d="M373.35,145.23a18.83,18.83,0,0,1-6.85-1.3c-9.87-3.82-17-15.55-21.16-24.72a120.82,120.82,0,0,1-6.82-19.09l1-.24c.09.36,9,36,27.37,43.12,6.22,2.41,12.91,1.26,19.87-3.41,19.7-13.23,20-54.3,20.22-84.29.16-21.94.28-37.8,7.06-37.8,8.71,0,9.53,27.32,9.7,63,.09,18.43.18,39.32,3.3,39.32a3.31,3.31,0,0,0,2.31-1.18c3-3.11,5.81-12.06,7.77-25.19A230.3,230.3,0,0,0,439.5,57l1,0c.43,21.15-3.35,55.12-10.48,62.4a4.26,4.26,0,0,1-3,1.48c-3.92,0-4.18-14.57-4.3-40.32-.13-27.64-.29-62-8.7-62-5.79,0-5.91,17.06-6.06,36.81-.22,30.21-.53,71.58-20.66,85.11C382.51,143.62,377.84,145.23,373.35,145.23Z"/><path class="cls-3" d="M327.23,101.36a2,2,0,0,1-2-1.76c-.52-4.38-8-5.53-15.82-6.75-7-1.08-14.17-2.2-19.09-5.71a10.53,10.53,0,0,1-4.57-7.6c-1-8.72,7.85-18.92,8.23-19.35a2,2,0,0,1,3,2.64c-.08.09-8.07,9.3-7.26,16.26a6.59,6.59,0,0,0,2.92,4.8c4.15,3,10.87,4,17.38,5,9.41,1.46,18.3,2.84,19.18,10.23a2,2,0,0,1-1.75,2.22Z"/><g id="PatientInBed"><g id="HospitalBed"><path class="cls-2" d="M290.6,177l.4-2h-6l.4,2a4,4,0,1,0,5.21,0Z"/><path class="cls-2" d="M370.6,177l.4-2h-6l.4,2a4,4,0,1,0,5.21,0Z"/><path class="cls-2" d="M397.41,101.44l-.32-2a1.5,1.5,0,0,0-1.72-1.24l-37.54,6-49.59,17.68-60.57,9.83a1.5,1.5,0,0,0-1.24,1.72l.32,2a1.5,1.5,0,0,0,1.72,1.24l60.89-10,6.25-2.23.27.78a1,1,0,0,0,1.27.61l4.83-1.69V161h-6.5a5.66,5.66,0,0,0-5.4,5H286a3.25,3.25,0,0,0-3,3.43V174h90v-4.57a3.25,3.25,0,0,0-3-3.43H345.9a5.66,5.66,0,0,0-5.4-5H334V120l5.82-2a1,1,0,0,0,.61-1.27l-.32-.93,18.44-6.57,37.61-6A1.5,1.5,0,0,0,397.41,101.44Z"/></g><g id="Patient"><path class="cls-4" d="M361.06,90a12.8,12.8,0,1,1,16.39,7.78A12.79,12.79,0,0,1,361.06,90Z"/><path class="cls-4" d="M360.15,101.27l-5-14.13-49,17.46-3.49,1.24-46.26,7.81v0a7.49,7.49,0,0,0,2.48,14.74v0l48-8.08,5.26-2,24.11-8.6c-9.08,8.25-22.08,17.94-22.08,17.94a5,5,0,1,0,6.71,7.41s23.9-17.09,31.09-31Z"/></g></g><g id="IV"><circle class="cls-2" cx="404" cy="181" r="3"/><circle class="cls-2" cx="450" cy="181" r="3"/><path class="cls-2" d="M452.05,176H428V28l.9-9h8.28A3,3,0,0,0,440,21c1.66,0,3-1.34,3-4h-2c0,1.55-.45,2-1,2a1,1,0,0,1-1-1V17H415v1a1,1,0,0,1-1,1c-.55,0-1-.45-1-2h-2c0,2.66,1.34,4,3,4a3,3,0,0,0,2.82-2h8.28l.9,9V176H401.95A3,3,0,0,0,399,179v1h1.67a3.48,3.48,0,0,1,6.65,0h39.35a3.48,3.48,0,0,1,6.65,0H455v-1A3,3,0,0,0,452.05,176Z"/><rect class="cls-2" x="439" y="56" width="2" height="2"/><path class="cls-4" d="M434,39.07V54.16a2.09,2.09,0,0,0,2.15,2h7.69a2.09,2.09,0,0,0,2.15-2V39.75C440.45,40.76,439.55,38.06,434,39.07Zm5,4.43a1.5,1.5,0,1,1,1.5,1.5A1.5,1.5,0,0,1,439,43.5Zm2,10a.5.5,0,1,1,.5-.5A.5.5,0,0,1,441,53.5Zm1-3.5a1,1,0,1,1,1-1A1,1,0,0,1,442,50Z"/><path class="cls-2" d="M444.5,29.5h-9a2,2,0,0,0-2,2v23a2,2,0,0,0,2,2h9a2,2,0,0,0,2-2v-23A2,2,0,0,0,444.5,29.5Zm1.07,24.25a2,2,0,0,1-2,2h-7.14a2,2,0,0,1-2-2V32.25a2,2,0,0,1,2-2h7.14a2,2,0,0,1,2,2Z"/><polygon class="cls-2" points="441.5 21.46 440.57 21.82 442.93 28 437.06 28 440.16 19.88 439.23 19.52 436 28 436 29 444 29 444 28 441.5 21.46"/></g><g id="Doctor"><path class="cls-4" d="M59.93,68.61A12.8,12.8,0,1,1,72.76,55.79,12.79,12.79,0,0,1,59.93,68.61Z"/><path class="cls-5" d="M73.48,56.86a.51.51,0,0,0-.62-.34l-7,2a.49.49,0,0,0-.15.08,2,2,0,0,0-1.42-.6A12.81,12.81,0,0,0,60,57a12,12,0,0,0-4.24,1,2,2,0,0,0-1.42.6.49.49,0,0,0-.15-.08l-7-2a.5.5,0,1,0-.27,1l6.93,2a2,2,0,0,0-.08.54v3.52L50.45,64a.5.5,0,0,0,0,1h0l3.25-.48A2,2,0,0,0,55.71,66h8.57a2,2,0,0,0,1.92-1.47l3.24.47h.06a.5.5,0,0,0,.05-1l-3.27-.47V60a2,2,0,0,0-.08-.54l6.93-2A.5.5,0,0,0,73.48,56.86Z"/><path class="cls-4" d="M71,102a5,5,0,0,0,0,10c16,0,22-39,5-39H44c-17,0-11,39,5,39a5,5,0,0,0,0-10c-10,0-10-19-5-19V98.29A5.91,5.91,0,0,0,49,101a6,6,0,1,1,0,12,10.83,10.83,0,0,1-5-1.25V177h0A7.49,7.49,0,0,0,59,177h0V125h2v52h0A7.49,7.49,0,0,0,76,177h0V111.75A10.83,10.83,0,0,1,71,113a6,6,0,0,1,0-12,5.91,5.91,0,0,0,5-2.71V83C81,83,81,102,71,102Z"/><path class="cls-2" d="M70.79,101,71,97l-1-2H51l-1,2,.22,4.12a6,6,0,0,1,.61,11.59L51,116H70l.16-3.07A6,6,0,0,1,70.79,101Z"/><path class="cls-5" d="M72,51v-.93c0-5,4-9.07-9.07-9.07H57.07C44,41,48,45.08,48,50.07V51Z"/></g><g id="RobotArm"><path class="cls-2" d="M256,184V170.32c0-3.47-2-6.32-4.4-6.32H180.4c-2.42,0-4.4,2.84-4.4,6.32V184Z"/><polygon class="cls-2" points="296.05 89.84 284.43 89.72 278.16 76.48 275.37 81.63 281.59 94.73 298.67 93.1 298.6 91.29 296.05 89.84"/><polygon class="cls-2" points="298.75 70.29 283.93 69.11 280.5 73.42 280.47 73.57 295.08 74.73 299.33 85.55 301.58 87.41 303.31 86.84 298.75 70.29"/><polygon class="cls-2" points="264.71 75.5 274.13 61.8 272.59 59.15 261.69 75.01 264.71 75.5"/><polygon class="cls-2" points="265.18 75.83 274.6 62.12 277.63 62.61 266.72 78.48 265.18 75.83"/><polygon class="cls-2" points="270.22 79.29 279.64 65.59 278.1 62.94 267.19 78.8 270.22 79.29"/><polygon class="cls-2" points="270.69 79.61 280.11 65.91 283.13 66.4 272.23 82.26 270.69 79.61"/><polygon class="cls-2" points="259.66 72.03 269.08 58.33 272.1 58.82 261.2 74.68 259.66 72.03"/><polygon class="cls-2" points="275.74 83.08 285.16 69.38 283.62 66.73 272.72 82.59 275.74 83.08"/><polygon class="cls-2" points="235.5 153.75 194.5 155.75 191.5 159.5 239.5 158.5 235.5 153.75"/><polygon class="cls-2" points="235.5 153 194.5 155 191.5 152.25 237.5 147.25 235.5 153"/><polygon class="cls-2" points="231.5 142.75 195.5 147.75 191.5 151.5 237.5 146.5 231.5 142.75"/><polygon class="cls-2" points="231.5 142 195.5 147 192.5 144.25 232.5 137.25 231.5 142"/><polygon class="cls-2" points="226.5 133.75 194.5 139.75 192.5 143.5 232.5 136.5 226.5 133.75"/><polygon class="cls-2" points="235.5 164.25 194.5 164.25 191.5 160.25 239.5 159.25 235.5 164.25"/><circle class="cls-2" cx="195" cy="76" r="14.5"/><circle class="cls-2" cx="252.9" cy="56.78" r="11.5" transform="translate(-4.56 86.77) rotate(-19.3)"/><path class="cls-2" d="M207.8,85.57a15.91,15.91,0,0,1-18.51,5.36L197,140l28-5.33Z"/><path class="cls-2" d="M266.1,57a13.21,13.21,0,0,1-8.83,12.21l-.25.07,3.53,2.42,8.65-12.58Z"/><path class="cls-2" d="M245.64,67.81a13.15,13.15,0,0,1-5.29-15.1L206.26,64.64a15.89,15.89,0,0,1,4.18,15.49Z"/></g><path class="cls-2" d="M148.44,188.22c-6.11,0-15-.21-27.74-.6-8.44-.26-17.17-.52-24.71-.62-13.48-.17-23.61-14.68-30.1-43.1-3.08-13.47-5.22-29.57-6.37-47.9H59l0-3.37c0-1.12,0-1.94,0-2.48,0-.86,0-1.75,1-1.77s1,.37,1.15,2.93C62.73,119.35,69.09,184.65,96,185c7.56.1,16.29.36,24.74.62,14.69.45,32.58,1,37.67.21-.58-.22-1.43-.51-2.7-.87-4.14-1.17-5.47-2-5.26-3.29.18-1.09.4-2.45,18.43-2.22,8.5.11,17.07.54,17.15.54l-.1,2c-13.69-.69-28.59-.83-32.71,0a25.62,25.62,0,0,0,3,1c4.1,1.16,5.36,1.93,5.17,3.16C161.22,187.61,158.74,188.22,148.44,188.22Z"/><path class="cls-3" d="M304,58.46c-.76.34-1.78-.29-3.81.07,1.62-1.28,1.82-2.47,2.57-2.81A1.5,1.5,0,0,1,304,58.46Z"/><path class="cls-3" d="M299,51.58C299,52.4,298,54,297.37,56c-.4-2-1.36-3.74-1.32-4.57a1.5,1.5,0,0,1,3,.15Z"/></g></svg>