<svg xmlns="http://www.w3.org/2000/svg" xmlns:xlink="http://www.w3.org/1999/xlink" viewBox="0 0 480 200"><defs><style>.cls-1{fill:#77d1ff;}.cls-2{fill:#33759f;}.cls-3{fill:#878b8f;}.cls-4{fill:#ff5400;}.cls-5{fill:#fff;}.cls-6{fill:url(#radial-gradient);}.cls-7{fill:url(#radial-gradient-2);}.cls-8{fill:#bf3f00;}.cls-12,.cls-9{fill:#bfbdb9;}.cls-10{fill:url(#radial-gradient-3);}.cls-11{fill:url(#radial-gradient-4);}.cls-12{font-size:16px;font-family:MyriadPro-Bold, Myriad Pro;font-weight:700;}</style><radialGradient id="radial-gradient" cx="145.32" cy="61.02" r="2.1" gradientTransform="translate(-1.91 -0.46)" gradientUnits="userSpaceOnUse"><stop offset="0" stop-color="#fff"/><stop offset="1" stop-color="#fff" stop-opacity="0"/></radialGradient><radialGradient id="radial-gradient-2" cx="124.25" cy="61.07" r="2.1" gradientTransform="translate(-1.8 1.63)" xlink:href="#radial-gradient"/><radialGradient id="radial-gradient-3" cx="349.81" cy="81.54" r="2.1" gradientTransform="translate(435.03 -286.22) rotate(90)" xlink:href="#radial-gradient"/><radialGradient id="radial-gradient-4" cx="328.73" cy="81.59" r="2.1" gradientTransform="translate(414.25 -268.35) rotate(90)" xlink:href="#radial-gradient"/></defs><title>tv_hid</title><g id="Background"><rect class="cls-1" width="480" height="200"/></g><g id="Layer_1" data-name="Layer 1"><rect class="cls-2" x="102.41" y="29" width="275.18" height="126" rx="2.02" ry="2.02"/><rect class="cls-3" x="106.5" y="33.5" width="266" height="117"/><g id="Person_Sitting" data-name="Person Sitting"><path class="cls-4" d="M148.16,85a1.21,1.21,0,0,0-.46-.94c0-.41.06-.82.06-1.24a12.88,12.88,0,1,0-.46,3.34A1.22,1.22,0,0,0,148.16,85Z"/><path class="cls-4" d="M164.49,141.69s-1.24-47.5-18-44.56L115,102.69a5,5,0,0,0-2.72,1.55l-29,32.42a5,5,0,1,0,7.46,6.67L117,114l7,39.88a7.22,7.22,0,0,0,1,2.61v35h0a7,7,0,0,0,14,0h0V158.64l2-.35v33.18h0a7,7,0,0,0,14,0h0V156a7,7,0,0,0-.49-2.57,7.25,7.25,0,0,0,1-5.09l-.86-4.92a5,5,0,0,0,9.85-1.73Zm-9.9.55a5,5,0,0,0,.05,1.18L148.24,107C152.65,106.2,154.29,135.95,154.59,142.24Z"/></g><g id="Future_Chair" data-name="Future Chair"><ellipse class="cls-2" cx="140" cy="133" rx="30" ry="32"/><rect class="cls-2" x="137.5" y="162.5" width="5" height="33"/><path class="cls-2" d="M155,195.5c-3.5,0-8.5-3-15-3s-8.5,3-15,3a5.73,5.73,0,0,0,0,3h30A5.73,5.73,0,0,0,155,195.5Z"/></g><path class="cls-2" d="M133,0V3a8,8,0,0,0,8,8H338a8,8,0,0,0,8-8V0Z"/><rect class="cls-2" x="237" y="12" width="6" height="16"/><g id="Helmet"><path class="cls-2" d="M133.3,66.15a14,14,0,0,0-12.54,15.32l27.86-2.78A14,14,0,0,0,133.3,66.15Z"/><path class="cls-5" d="M126.74,68.82a.25.25,0,0,1-.18-.07l-5.43-5.48a.25.25,0,0,1,0-.38L123,61.63a.24.24,0,0,1,.2,0,.25.25,0,0,1,.16.13L127,68.46a.25.25,0,0,1-.22.37Zm-5-5.69,4,4.06-2.65-5Z"/><g id="Edison_Bulb" data-name="Edison Bulb"><path class="cls-2" d="M121.74,59.91c-.31.11-1,0-1.15.12s-.28.79-.48,1a2.64,2.64,0,0,0-.21,3.14c.07.1.23.27.23.27l4.66,4.83a1,1,0,0,0,1.4.23l1.62-1.17a1,1,0,0,0,.23-1.4L125,61s-.12-.21-.19-.31A2.64,2.64,0,0,0,121.74,59.91Zm2.35,1.6,3.11,6,0,.06-1.62,1.17,0-.06-4.71-4.88-.14-.16a1.65,1.65,0,0,1,.19-1.95,2.6,2.6,0,0,0,.36-.72,2.61,2.61,0,0,0,.8-.11,1.65,1.65,0,0,1,1.91.44C124,61.37,124.09,61.5,124.09,61.51Z"/></g><path class="cls-5" d="M140.35,67.47l-.11,0a.25.25,0,0,1-.13-.3l2.18-7.31a.25.25,0,0,1,.13-.15.26.26,0,0,1,.2,0l2.06.86a.25.25,0,0,1,.11.37l-4.24,6.45A.25.25,0,0,1,140.35,67.47Zm2.34-7.22-1.61,5.41,3.14-4.77Z"/><g id="Edison_Bulb-2" data-name="Edison Bulb"><path class="cls-2" d="M145.36,58.74c-.25-.22-.5-.85-.68-.93s-.82.15-1.15.11a2.64,2.64,0,0,0-2.82,1.39c-.05.11-.12.34-.12.34l-1.85,6.45a1,1,0,0,0,.5,1.32l1.82.82a1,1,0,0,0,1.32-.5L146,62.1s.13-.21.18-.32A2.64,2.64,0,0,0,145.36,58.74Zm-.21,2.84-3.64,5.69,0,.07-1.82-.82,0-.07,1.87-6.52s0-.13.07-.2a1.65,1.65,0,0,1,1.78-.81,2.6,2.6,0,0,0,.8-.05,2.61,2.61,0,0,0,.49.64,1.65,1.65,0,0,1,.57,1.87C145.24,61.45,145.16,61.57,145.15,61.58Z"/></g><path class="cls-2" d="M133.21,65.16a15,15,0,0,1,3.27,0l-.23-2.35a1,1,0,0,0-1.09-.9l-4,.4a1,1,0,0,0-.9,1.09l.22,2.25A15,15,0,0,1,133.21,65.16Z"/><circle class="cls-6" cx="143.41" cy="60.56" r="2.1" transform="translate(-5.3 14.52) rotate(-5.69)"/><circle class="cls-7" cx="122.45" cy="62.7" r="2.1" transform="translate(-5.61 12.45) rotate(-5.69)"/></g><path class="cls-2" d="M131.77,63.78c-1.66-19.64,8.24-27.47,17-34.39,7.14-5.65,13.31-10.53,13.31-20.9h3c0,11.82-7.35,17.64-14.45,23.26-8.54,6.76-17.37,13.74-15.85,31.78Z"/><g id="Person"><path class="cls-8" d="M251.91,86.8a18.72,18.72,0,1,1,21.21-15.9A18.7,18.7,0,0,1,251.91,86.8Z"/><path class="cls-8" d="M203.45,122.61a7.31,7.31,0,0,1-7.2-6.06l-4-22.82-1,0a7.31,7.31,0,1,1,.22-14.62l7.05.11a7.31,7.31,0,0,1,7.09,6.06l3.2,18.42,19.73-11.52A7.31,7.31,0,0,1,236,104.78l-28.81,16.83A7.3,7.3,0,0,1,203.45,122.61Z"/><path class="cls-8" d="M268.87,134.52a7.31,7.31,0,0,1-4.51-1.56l-48-37.65a7.31,7.31,0,0,1,9-11.5l38.14,29.9,1.69-11.23a7.31,7.31,0,1,1,14.46,2.17l-3.55,23.64a7.31,7.31,0,0,1-7.23,6.22Z"/><polygon class="cls-8" points="266.62 149.99 274.25 96.48 227.95 89.87 219.37 149.99 266.62 149.99"/></g><rect class="cls-9" x="179.1" y="51.3" width="26.83" height="27.32"/><g id="Person_Sitting-2" data-name="Person Sitting"><path class="cls-4" d="M340,69a12.79,12.79,0,0,0-12.79,11.59,1.2,1.2,0,0,0,0,2.35A12.8,12.8,0,1,0,340,69Z"/><path class="cls-4" d="M356,99l-32,0a5,5,0,0,0-3.71,2.29l-9.4,14.9-4.51,17.06a5,5,0,0,0,2.41,5.63A7,7,0,0,0,311.27,152a7.07,7.07,0,0,0,.75.05l12.47,1.58a7.27,7.27,0,0,0,.61,1.21A7,7,0,0,0,325,156v35.47h0a7,7,0,0,0,14,0h0V158.29h9.71a7.28,7.28,0,0,0,5.55-2.59,6.95,6.95,0,0,0,3.14-6.24A5,5,0,0,0,366,146S373,99,356,99Zm.15,45.83a5,5,0,0,0-.12.86l0,0V109C360.47,109,356.95,138.58,356.15,144.83Zm-40.1-9,4.12-15.57L324,114.2v25.25l-9.43-1.2A5,5,0,0,0,316.06,135.84Z"/></g><g id="Future_Chair-2" data-name="Future Chair"><ellipse class="cls-2" cx="340" cy="133" rx="30" ry="32"/><rect class="cls-2" x="337.5" y="162.5" width="5" height="33"/><path class="cls-2" d="M355,195.5c-3.5,0-8.5-3-15-3s-8.5,3-15,3a5.73,5.73,0,0,0,0,3h30A5.73,5.73,0,0,0,355,195.5Z"/></g><g id="Helmet-2" data-name="Helmet"><path class="cls-2" d="M342.3,66.45a14,14,0,0,0-16,11.67L354,82.45A14,14,0,0,0,342.3,66.45Z"/><path class="cls-5" d="M335.33,67.39a.25.25,0,0,1-.22-.12l-3.87-6.67a.25.25,0,0,1,0-.21.25.25,0,0,1,.15-.15l2.1-.74a.25.25,0,0,1,.2,0,.25.25,0,0,1,.12.16l1.76,7.42a.25.25,0,0,1-.15.29Zm-3.5-6.79,2.87,4.94-1.31-5.49Z"/><g id="Edison_Bulb-3" data-name="Edison Bulb"><path class="cls-2" d="M332.68,57.5c-.33,0-1-.24-1.14-.17s-.47.69-.73.89a2.64,2.64,0,0,0-1,3c0,.11.16.32.16.32l3.3,5.85a1,1,0,0,0,1.29.57l1.87-.72a1,1,0,0,0,.57-1.29l-1.48-6.54s-.06-.23-.1-.35A2.64,2.64,0,0,0,332.68,57.5Zm1.87,2.14L336,66.23l0,.07-1.87.72,0-.07L330.85,61s-.07-.12-.09-.19a1.65,1.65,0,0,1,.67-1.84,2.6,2.6,0,0,0,.53-.61,2.61,2.61,0,0,0,.8.1,1.65,1.65,0,0,1,1.73.91C334.51,59.49,334.55,59.63,334.55,59.64Z"/></g><path class="cls-5" d="M348.85,69.51a.25.25,0,0,1-.21-.38l3.95-6.52a.25.25,0,0,1,.17-.12.25.25,0,0,1,.2,0l1.78,1.35a.25.25,0,0,1,.1.19.25.25,0,0,1-.08.2L349,69.44A.25.25,0,0,1,348.85,69.51Zm4-6.4-2.92,4.83,4.24-3.83Z"/><g id="Edison_Bulb-4" data-name="Edison Bulb"><path class="cls-2" d="M355.83,62.32c-.18-.27-.27-.95-.42-1.07s-.83-.06-1.14-.18a2.64,2.64,0,0,0-3.08.64c-.08.1-.2.3-.2.3l-3.41,5.78a1,1,0,0,0,.15,1.41l1.56,1.26a1,1,0,0,0,1.41-.15l4.92-4.56s.17-.17.25-.26A2.64,2.64,0,0,0,355.83,62.32ZM354.91,65l-5,4.59,0,.06-1.56-1.26,0-.06,3.45-5.84s.07-.12.12-.18A1.65,1.65,0,0,1,353.9,62a2.6,2.6,0,0,0,.79.15,2.61,2.61,0,0,0,.32.74,1.65,1.65,0,0,1,.08,2Z"/></g><path class="cls-2" d="M342.45,65.47a15,15,0,0,1,3.15.86L346,64a1,1,0,0,0-.83-1.14l-4-.62a1,1,0,0,0-1.14.83l-.35,2.24A15,15,0,0,1,342.45,65.47Z"/><circle class="cls-10" cx="353.49" cy="63.59" r="2.1" transform="translate(236.01 402.99) rotate(-81.11)"/><circle class="cls-11" cx="332.66" cy="60.38" r="2.1" transform="translate(221.57 379.7) rotate(-81.11)"/></g><path class="cls-2" d="M344.33,64.37l-3-.54c3.43-18.8-3-24.81-9.88-31.19-6-5.61-12.25-11.4-12.28-25.34h3c0,12.64,5.51,17.74,11.32,23.15C340.68,37.09,348.05,44,344.33,64.37Z"/><text class="cls-12" transform="matrix(0.99, 0.15, -0.15, 0.99, 288.09, 50.88)">BUY<tspan x="-3.53" y="19.2">THIS!</tspan></text><g id="Future_Table" data-name="Future Table"><rect class="cls-2" x="407.5" y="163.5" width="5" height="33"/><path class="cls-2" d="M425,196.5c-3.5,0-8.5-3-15-3s-8.5,3-15,3a2.41,2.41,0,0,0,0,2h30A2.41,2.41,0,0,0,425,196.5Z"/><path class="cls-2" d="M434,160s-21.5,2.5-24,5c-2.5-2.5-24-5-24-5a2,2,0,0,1-2-2h0a2,2,0,0,1,2-2h48a2,2,0,0,1,2,2h0A2,2,0,0,1,434,160Z"/></g><g id="Future_Table-2" data-name="Future Table"><rect class="cls-2" x="69.5" y="163.5" width="5" height="33"/><path class="cls-2" d="M87,196.5c-3.5,0-8.5-3-15-3s-8.5,3-15,3a2.41,2.41,0,0,0,0,2H87A2.41,2.41,0,0,0,87,196.5Z"/><path class="cls-2" d="M96,160s-21.5,2.5-24,5c-2.5-2.5-24-5-24-5a2,2,0,0,1-2-2h0a2,2,0,0,1,2-2H96a2,2,0,0,1,2,2h0A2,2,0,0,1,96,160Z"/></g><path id="Highball_Glass" data-name="Highball Glass" class="cls-2" d="M71,142.42v11a2,2,0,0,0,2,2h7a2,2,0,0,0,2-2v-11Zm10,11a1,1,0,0,1-1,1H73a1,1,0,0,1-1-1v-10h9Z"/><path class="cls-2" d="M71.5,148.36v5.07a1.5,1.5,0,0,0,1.5,1.5h7a1.5,1.5,0,0,0,1.5-1.5V148A90.26,90.26,0,0,0,71.5,148.36Z"/><path id="Highball_Glass-2" data-name="Highball Glass" class="cls-2" d="M406,142.42v11a2,2,0,0,0,2,2h7a2,2,0,0,0,2-2v-11Zm10,11a1,1,0,0,1-1,1h-7a1,1,0,0,1-1-1v-10h9Z"/><path class="cls-2" d="M406.5,153.2v1.33c0,.22.67.39,1.5.39h7c.83,0,1.5-.18,1.5-.39v-1.44C413,153,409.53,153.15,406.5,153.2Z"/><path class="cls-9" d="M208.58,59.16A21.75,21.75,0,0,1,202,57.91l1-2.82c2.65,1,7,1.69,8.33.35s.4-5.84-.34-7.73l2.79-1.09c.31.78,2.89,7.72-.34,10.94A6.72,6.72,0,0,1,208.58,59.16Z"/><path class="cls-9" d="M168.94,89.42c-.47-1.28-4.41-12.69.35-17.45,4.94-4.94,13.71-.46,14.08-.27L182,74.37c-.07,0-7.19-3.66-10.57-.27-2.89,2.9-.66,11.51.35,14.3Z"/></g></svg>