<svg xmlns="http://www.w3.org/2000/svg" viewBox="0 0 480 200.39"><defs><style>.cls-1{fill:#3498db;}.cls-2{fill:#2c3e50;}.cls-3{fill:#ecf0f1;}.cls-4{fill:#e74c3c;}.cls-5{fill:#2980b9;}</style></defs><title>usb_camera_driver</title><g id="Background"><rect class="cls-1" width="480" height="200"/></g><g id="Layer_1" data-name="Layer 1"><g id="Office_Desk" data-name="Office Desk"><rect class="cls-2" x="76" y="143.14" width="324.73" height="10.41"/><rect class="cls-2" x="84.33" y="155.63" width="308.08" height="44.76"/></g><g id="Computer"><rect class="cls-2" x="184.5" y="28" width="130.71" height="81.33" rx="2.9" ry="2.9"/><path class="cls-2" d="M292,133.29H207.74a2.91,2.91,0,0,0-2.9,2.9V142h90v-5.81A2.91,2.91,0,0,0,292,133.29Z"/><rect class="cls-2" x="244.05" y="111" width="11.62" height="21"/><rect class="cls-3" x="188.86" y="32.36" width="122" height="72.62" rx="2.9" ry="2.9"/><path d="M202.61,45.51a4.78,4.78,0,0,1,1.67.29,3.64,3.64,0,0,1,1.34.86,4,4,0,0,1,.88,1.43,5.78,5.78,0,0,1,.32,2,6.43,6.43,0,0,1-.26,1.87,4.12,4.12,0,0,1-.79,1.48,3.68,3.68,0,0,1-1.31,1,4.45,4.45,0,0,1-1.85.36h-4V45.51Zm-.14,7.57a2.63,2.63,0,0,0,.86-.14,1.89,1.89,0,0,0,.74-.47,2.38,2.38,0,0,0,.52-.86,3.8,3.8,0,0,0,.19-1.3,5.42,5.42,0,0,0-.14-1.27,2.52,2.52,0,0,0-.45-1,2,2,0,0,0-.83-.62,3.3,3.3,0,0,0-1.27-.21h-1.46v5.85Z"/><path d="M209.8,48.08v1.25h0a2.26,2.26,0,0,1,.35-.58,2.3,2.3,0,0,1,.51-.46,2.49,2.49,0,0,1,.61-.29,2.2,2.2,0,0,1,.68-.1,1.44,1.44,0,0,1,.4.06v1.72l-.31,0-.35,0a2,2,0,0,0-.86.17,1.49,1.49,0,0,0-.57.46,1.85,1.85,0,0,0-.31.68,3.7,3.7,0,0,0-.09.85v3H208V48.08Z"/><path d="M213.15,47V45.51H215V47Zm1.85,1V54.8h-1.85V48.08Z"/><path d="M218.12,54.8l-2.3-6.72h1.94l1.42,4.59h0l1.42-4.59h1.83l-2.27,6.72Z"/><path d="M225.19,53.18a1.89,1.89,0,0,0,2.16.12,1.16,1.16,0,0,0,.49-.59h1.63a3.08,3.08,0,0,1-1.2,1.73,3.52,3.52,0,0,1-1.95.52,3.84,3.84,0,0,1-1.43-.25,3,3,0,0,1-1.08-.72,3.25,3.25,0,0,1-.68-1.12,4.09,4.09,0,0,1-.24-1.43,3.92,3.92,0,0,1,.25-1.4,3.25,3.25,0,0,1,1.79-1.87,3.48,3.48,0,0,1,1.4-.27,3.2,3.2,0,0,1,1.5.33,3,3,0,0,1,1,.89,3.67,3.67,0,0,1,.59,1.27,4.74,4.74,0,0,1,.13,1.5h-4.85A1.86,1.86,0,0,0,225.19,53.18Zm2.09-3.54a1.3,1.3,0,0,0-1-.36,1.61,1.61,0,0,0-.73.15,1.4,1.4,0,0,0-.47.37,1.35,1.35,0,0,0-.25.47,2.08,2.08,0,0,0-.08.44h3A2.14,2.14,0,0,0,227.28,49.65Z"/><path d="M232.43,48.08v1.25h0a2.26,2.26,0,0,1,.35-.58,2.3,2.3,0,0,1,.51-.46,2.49,2.49,0,0,1,.61-.29,2.2,2.2,0,0,1,.68-.1,1.44,1.44,0,0,1,.4.06v1.72l-.31,0-.35,0a2,2,0,0,0-.86.17,1.49,1.49,0,0,0-.57.46,1.85,1.85,0,0,0-.31.68,3.7,3.7,0,0,0-.09.85v3h-1.85V48.08Z"/><path d="M241.1,48.08V49h0a2.12,2.12,0,0,1,.91-.85,2.64,2.64,0,0,1,1.14-.27,3.14,3.14,0,0,1,1.22.2,1.81,1.81,0,0,1,.75.56,2.18,2.18,0,0,1,.38.87,5.45,5.45,0,0,1,.11,1.14V54.8H243.8V51a2.35,2.35,0,0,0-.26-1.24,1,1,0,0,0-.92-.41,1.28,1.28,0,0,0-1.09.45,2.49,2.49,0,0,0-.34,1.48V54.8h-1.85V48.08Z"/><path d="M247.09,50a3.07,3.07,0,0,1,1.79-1.83,3.84,3.84,0,0,1,1.43-.25,3.89,3.89,0,0,1,1.44.25,3.06,3.06,0,0,1,1.8,1.83,4.14,4.14,0,0,1,.25,1.46,4.08,4.08,0,0,1-.25,1.46,3.16,3.16,0,0,1-.7,1.11,3.06,3.06,0,0,1-1.1.71,4,4,0,0,1-1.44.25,3.93,3.93,0,0,1-1.43-.25,3.08,3.08,0,0,1-1.09-.71,3.15,3.15,0,0,1-.7-1.11,4.06,4.06,0,0,1-.25-1.46A4.12,4.12,0,0,1,247.09,50Zm1.68,2.25a2.08,2.08,0,0,0,.27.69,1.42,1.42,0,0,0,.5.49,1.53,1.53,0,0,0,.78.18,1.56,1.56,0,0,0,.79-.18,1.4,1.4,0,0,0,.51-.49,2.08,2.08,0,0,0,.27-.69,3.89,3.89,0,0,0,.08-.79,4,4,0,0,0-.08-.79,2,2,0,0,0-.27-.69,1.48,1.48,0,0,0-.51-.49,1.52,1.52,0,0,0-.79-.19A1.42,1.42,0,0,0,249,50a2,2,0,0,0-.27.69,4.05,4.05,0,0,0-.08.79A4,4,0,0,0,248.77,52.23Z"/><path d="M258.69,48.08v1.24h-1.35v3.33a.63.63,0,0,0,.78.78h.3l.27,0V54.8a4.35,4.35,0,0,1-.52.05h-.56a5.36,5.36,0,0,1-.81-.06,1.91,1.91,0,0,1-.68-.23,1.2,1.2,0,0,1-.46-.48,1.72,1.72,0,0,1-.17-.82v-4h-1.12V48.08h1.12v-2h1.85v2Z"/><path d="M262.49,49.31V48.08h1.1v-.52a2,2,0,0,1,.56-1.47,2.27,2.27,0,0,1,1.69-.57l.49,0,.48,0v1.38a5.69,5.69,0,0,0-.68,0,.71.71,0,0,0-.54.18.86.86,0,0,0-.16.59v.4h1.27v1.24h-1.27V54.8h-1.85V49.31Z"/><path d="M267.56,50a3.07,3.07,0,0,1,1.79-1.83,3.83,3.83,0,0,1,1.43-.25,3.89,3.89,0,0,1,1.44.25A3.06,3.06,0,0,1,274,50a4.12,4.12,0,0,1,.25,1.46A4.06,4.06,0,0,1,274,52.9a3.17,3.17,0,0,1-.7,1.11,3.06,3.06,0,0,1-1.1.71,4,4,0,0,1-1.44.25,3.92,3.92,0,0,1-1.43-.25,3.06,3.06,0,0,1-1.09-.71,3.16,3.16,0,0,1-.7-1.11,4.06,4.06,0,0,1-.25-1.46A4.12,4.12,0,0,1,267.56,50Zm1.68,2.25a2.1,2.1,0,0,0,.27.69,1.41,1.41,0,0,0,.5.49,1.52,1.52,0,0,0,.78.18,1.56,1.56,0,0,0,.79-.18,1.4,1.4,0,0,0,.51-.49,2.1,2.1,0,0,0,.27-.69,4,4,0,0,0,.08-.79,4.05,4.05,0,0,0-.08-.79,2,2,0,0,0-.27-.69,1.48,1.48,0,0,0-.51-.49,1.52,1.52,0,0,0-.79-.19,1.48,1.48,0,0,0-.78.19,1.5,1.5,0,0,0-.5.49,2,2,0,0,0-.27.69,4.05,4.05,0,0,0-.08.79A4,4,0,0,0,269.23,52.23Z"/><path d="M280,54.8v-.94h0a2.08,2.08,0,0,1-.91.85,2.69,2.69,0,0,1-1.14.26,3.23,3.23,0,0,1-1.21-.19,1.75,1.75,0,0,1-.75-.55,2.16,2.16,0,0,1-.38-.87,5.37,5.37,0,0,1-.11-1.14V48.08h1.85v3.8a2.36,2.36,0,0,0,.26,1.24,1,1,0,0,0,.92.41,1.28,1.28,0,0,0,1.09-.45,2.49,2.49,0,0,0,.34-1.48V48.08h1.85V54.8Z"/><path d="M284.92,48.08V49h0a2.12,2.12,0,0,1,.91-.85,2.63,2.63,0,0,1,1.14-.27,3.14,3.14,0,0,1,1.22.2,1.8,1.8,0,0,1,.75.56,2.15,2.15,0,0,1,.38.87,5.52,5.52,0,0,1,.11,1.14V54.8h-1.85V51a2.35,2.35,0,0,0-.26-1.24,1,1,0,0,0-.92-.41,1.28,1.28,0,0,0-1.09.45,2.5,2.5,0,0,0-.34,1.48V54.8h-1.85V48.08Z"/><path d="M295.65,53.94a1.91,1.91,0,0,1-.85.79,2.83,2.83,0,0,1-1.19.24,2.87,2.87,0,0,1-1.33-.29,2.66,2.66,0,0,1-.94-.79,3.6,3.6,0,0,1-.56-1.15,4.82,4.82,0,0,1-.19-1.35,4.53,4.53,0,0,1,.19-1.31,3.4,3.4,0,0,1,.56-1.11,2.71,2.71,0,0,1,2.23-1.07,2.64,2.64,0,0,1,1.14.25,2,2,0,0,1,.85.75h0V45.51h1.85V54.8h-1.75v-.86Zm-.08-3.32a2,2,0,0,0-.27-.68,1.51,1.51,0,0,0-.49-.47,1.43,1.43,0,0,0-.75-.18,1.5,1.5,0,0,0-.77.18,1.45,1.45,0,0,0-.5.48,2.13,2.13,0,0,0-.27.68,3.69,3.69,0,0,0-.08.8,3.43,3.43,0,0,0,.09.78,2.12,2.12,0,0,0,.29.7,1.62,1.62,0,0,0,.51.49,1.37,1.37,0,0,0,.73.19,1.46,1.46,0,0,0,.76-.18,1.38,1.38,0,0,0,.49-.49,2.18,2.18,0,0,0,.26-.7,4,4,0,0,0,.08-.81A4,4,0,0,0,295.57,50.62Z"/><path d="M300.94,52.79v2h-2v-2Z"/><path d="M204.49,70.4l-1.57-6.32h0l-1.55,6.32h-2.07l-2.46-9.28h2l1.47,6.32h0L202,61.11h1.91l1.59,6.4h0l1.52-6.4h2l-2.5,9.28Z"/><path d="M209.06,65.58a3.07,3.07,0,0,1,1.79-1.83,3.84,3.84,0,0,1,1.43-.25,3.89,3.89,0,0,1,1.44.25,3.06,3.06,0,0,1,1.8,1.83,4.13,4.13,0,0,1,.25,1.46,4.07,4.07,0,0,1-.25,1.46,3.16,3.16,0,0,1-.7,1.11,3.06,3.06,0,0,1-1.1.71,4,4,0,0,1-1.44.25,3.93,3.93,0,0,1-1.43-.25,3.07,3.07,0,0,1-1.09-.71,3.15,3.15,0,0,1-.7-1.11,4.06,4.06,0,0,1-.25-1.46A4.12,4.12,0,0,1,209.06,65.58Zm1.68,2.25a2.09,2.09,0,0,0,.27.69,1.42,1.42,0,0,0,.5.49,1.52,1.52,0,0,0,.78.18,1.56,1.56,0,0,0,.79-.18,1.4,1.4,0,0,0,.51-.49,2.09,2.09,0,0,0,.27-.69,3.92,3.92,0,0,0,.08-.79,4,4,0,0,0-.08-.79,2,2,0,0,0-.27-.69,1.48,1.48,0,0,0-.51-.49,1.52,1.52,0,0,0-.79-.19,1.42,1.42,0,0,0-1.28.68,2,2,0,0,0-.27.69,4.05,4.05,0,0,0-.08.79A4,4,0,0,0,210.73,67.83Z"/><path d="M221.51,70.4v-.94h0a2.08,2.08,0,0,1-.91.85,2.7,2.7,0,0,1-1.14.26,3.23,3.23,0,0,1-1.22-.19,1.75,1.75,0,0,1-.75-.55,2.17,2.17,0,0,1-.38-.87,5.41,5.41,0,0,1-.11-1.14V63.68h1.85v3.8a2.35,2.35,0,0,0,.26,1.24,1,1,0,0,0,.92.41,1.28,1.28,0,0,0,1.09-.45,2.49,2.49,0,0,0,.34-1.48V63.68h1.85V70.4Z"/><path d="M226.57,61.11V70.4h-1.85V61.11Z"/><path d="M232.79,69.54a1.91,1.91,0,0,1-.85.79,2.83,2.83,0,0,1-1.19.24,2.88,2.88,0,0,1-1.33-.29,2.66,2.66,0,0,1-.94-.79,3.59,3.59,0,0,1-.56-1.15,4.84,4.84,0,0,1-.19-1.35,4.54,4.54,0,0,1,.19-1.31,3.39,3.39,0,0,1,.56-1.11,2.71,2.71,0,0,1,2.23-1.07,2.64,2.64,0,0,1,1.14.25,2,2,0,0,1,.85.75h0V61.11h1.85V70.4h-1.75v-.86Zm-.08-3.32a2,2,0,0,0-.27-.68,1.5,1.5,0,0,0-.49-.47,1.43,1.43,0,0,0-.75-.18,1.5,1.5,0,0,0-.77.18,1.44,1.44,0,0,0-.5.48,2.12,2.12,0,0,0-.27.68,3.69,3.69,0,0,0-.08.8,3.43,3.43,0,0,0,.09.78,2.13,2.13,0,0,0,.29.7,1.62,1.62,0,0,0,.51.49,1.37,1.37,0,0,0,.73.19A1.46,1.46,0,0,0,232,69a1.38,1.38,0,0,0,.49-.49,2.18,2.18,0,0,0,.26-.7,4.11,4.11,0,0,0,.08-.81A4,4,0,0,0,232.72,66.22Z"/><path d="M242.06,72.4a2.68,2.68,0,0,1-1.48.35l-.57,0-.57,0V71.16l.53.05a3.85,3.85,0,0,0,.55,0,.72.72,0,0,0,.54-.29.92.92,0,0,0,.18-.55,1.11,1.11,0,0,0-.08-.42l-2.35-6.31h2l1.52,4.6h0l1.47-4.6h1.91l-2.81,7.55A2.27,2.27,0,0,1,242.06,72.4Z"/><path d="M246.37,65.58a3.07,3.07,0,0,1,1.79-1.83,3.83,3.83,0,0,1,1.43-.25,3.89,3.89,0,0,1,1.44.25,3.06,3.06,0,0,1,1.8,1.83,4.12,4.12,0,0,1,.25,1.46,4.06,4.06,0,0,1-.25,1.46,3.17,3.17,0,0,1-.7,1.11,3.06,3.06,0,0,1-1.1.71,4,4,0,0,1-1.44.25,3.92,3.92,0,0,1-1.43-.25,3.06,3.06,0,0,1-1.09-.71,3.16,3.16,0,0,1-.7-1.11,4.06,4.06,0,0,1-.25-1.46A4.12,4.12,0,0,1,246.37,65.58ZM248,67.83a2.1,2.1,0,0,0,.27.69,1.41,1.41,0,0,0,.5.49,1.52,1.52,0,0,0,.78.18,1.56,1.56,0,0,0,.79-.18,1.4,1.4,0,0,0,.51-.49,2.1,2.1,0,0,0,.27-.69,4,4,0,0,0,.08-.79,4.05,4.05,0,0,0-.08-.79,2,2,0,0,0-.27-.69,1.48,1.48,0,0,0-.51-.49,1.52,1.52,0,0,0-.79-.19,1.48,1.48,0,0,0-.78.19,1.5,1.5,0,0,0-.5.49,2,2,0,0,0-.27.69A4.05,4.05,0,0,0,248,67,4,4,0,0,0,248,67.83Z"/><path d="M258.82,70.4v-.94h0a2.08,2.08,0,0,1-.91.85,2.69,2.69,0,0,1-1.14.26,3.23,3.23,0,0,1-1.21-.19,1.75,1.75,0,0,1-.75-.55,2.16,2.16,0,0,1-.38-.87,5.37,5.37,0,0,1-.11-1.14V63.68h1.85v3.8a2.36,2.36,0,0,0,.26,1.24,1,1,0,0,0,.92.41,1.28,1.28,0,0,0,1.09-.45,2.49,2.49,0,0,0,.34-1.48V63.68h1.85V70.4Z"/><path d="M267.49,61.11V70.4h-1.85V61.11Z"/><path d="M269,62.64V61.11h1.85v1.52Zm1.85,1V70.4H269V63.68Z"/><path d="M274.32,61.11v5l2.33-2.42h2.18l-2.54,2.47,2.82,4.25h-2.24l-1.85-3-.72.69V70.4h-1.85V61.11Z"/><path d="M281.74,68.78a1.89,1.89,0,0,0,2.16.12,1.16,1.16,0,0,0,.49-.59H286a3.08,3.08,0,0,1-1.2,1.73,3.52,3.52,0,0,1-2,.52,3.84,3.84,0,0,1-1.43-.25,3,3,0,0,1-1.08-.72,3.26,3.26,0,0,1-.68-1.12,4.1,4.1,0,0,1-.24-1.43,3.91,3.91,0,0,1,.25-1.4,3.25,3.25,0,0,1,1.79-1.87,3.47,3.47,0,0,1,1.4-.27,3.19,3.19,0,0,1,1.5.33,3,3,0,0,1,1,.89A3.69,3.69,0,0,1,286,66a4.77,4.77,0,0,1,.13,1.5h-4.85A1.87,1.87,0,0,0,281.74,68.78Zm2.09-3.54a1.3,1.3,0,0,0-1-.36,1.61,1.61,0,0,0-.73.15,1.41,1.41,0,0,0-.47.37,1.36,1.36,0,0,0-.25.47,2.12,2.12,0,0,0-.08.44h3A2.13,2.13,0,0,0,283.83,65.25Z"/><path d="M294.53,63.68v1.24h-1.35v3.33A.63.63,0,0,0,294,69h.3l.27,0V70.4a4.33,4.33,0,0,1-.52.05h-.56a5.37,5.37,0,0,1-.81-.06,1.92,1.92,0,0,1-.68-.23,1.2,1.2,0,0,1-.46-.48,1.71,1.71,0,0,1-.17-.82v-4h-1.12V63.68h1.12v-2h1.85v2Z"/><path d="M295.45,65.58a3.07,3.07,0,0,1,1.79-1.83,3.84,3.84,0,0,1,1.43-.25,3.89,3.89,0,0,1,1.44.25,3.06,3.06,0,0,1,1.8,1.83,4.14,4.14,0,0,1,.25,1.46,4.08,4.08,0,0,1-.25,1.46,3.16,3.16,0,0,1-.7,1.11,3.06,3.06,0,0,1-1.1.71,4,4,0,0,1-1.44.25,3.93,3.93,0,0,1-1.43-.25,3.06,3.06,0,0,1-1.09-.71,3.14,3.14,0,0,1-.7-1.11,4.06,4.06,0,0,1-.25-1.46A4.12,4.12,0,0,1,295.45,65.58Zm1.68,2.25a2.08,2.08,0,0,0,.27.69,1.41,1.41,0,0,0,.5.49,1.53,1.53,0,0,0,.78.18,1.56,1.56,0,0,0,.79-.18,1.41,1.41,0,0,0,.51-.49,2.12,2.12,0,0,0,.27-.69,4,4,0,0,0,.08-.79,4.05,4.05,0,0,0-.08-.79,2,2,0,0,0-.27-.69,1.49,1.49,0,0,0-.51-.49,1.52,1.52,0,0,0-.79-.19,1.42,1.42,0,0,0-1.28.68,2,2,0,0,0-.27.69,4.05,4.05,0,0,0-.08.79A4,4,0,0,0,297.13,67.83Z"/><path d="M205.85,79.28v1.24H204.5v3.33a.63.63,0,0,0,.78.78h.3l.27,0V86a4.36,4.36,0,0,1-.52.05h-.56A5.38,5.38,0,0,1,204,86a1.91,1.91,0,0,1-.68-.23,1.2,1.2,0,0,1-.46-.48,1.72,1.72,0,0,1-.17-.82v-4h-1.12V79.28h1.12v-2h1.85v2Z"/><path d="M208.49,79.28v1.25h0a2.26,2.26,0,0,1,.35-.58,2.3,2.3,0,0,1,.51-.46,2.49,2.49,0,0,1,.61-.29,2.2,2.2,0,0,1,.68-.1,1.44,1.44,0,0,1,.4.06v1.72l-.31,0-.35,0a2,2,0,0,0-.86.17,1.49,1.49,0,0,0-.57.46,1.85,1.85,0,0,0-.31.68,3.7,3.7,0,0,0-.09.85v3h-1.85V79.28Z"/><path d="M214.28,88a2.68,2.68,0,0,1-1.48.35l-.57,0-.57,0V86.76l.53.05a3.85,3.85,0,0,0,.55,0,.72.72,0,0,0,.54-.29.92.92,0,0,0,.18-.55,1.11,1.11,0,0,0-.08-.42L211,79.28h2l1.52,4.6h0l1.47-4.6h1.91l-2.81,7.55A2.28,2.28,0,0,1,214.28,88Z"/><path d="M227.94,86l-1.2-4.51h0L225.57,86h-1.91l-2.13-6.72h1.95l1.24,4.56h0l1.12-4.56h1.79l1.14,4.55h0l1.23-4.55H232L229.84,86Z"/><path d="M234.49,79.28v1.25h0a2.26,2.26,0,0,1,.35-.58,2.3,2.3,0,0,1,.51-.46,2.49,2.49,0,0,1,.61-.29,2.2,2.2,0,0,1,.68-.1,1.44,1.44,0,0,1,.4.06v1.72l-.31,0-.35,0a2,2,0,0,0-.86.17,1.49,1.49,0,0,0-.57.46,1.85,1.85,0,0,0-.31.68,3.7,3.7,0,0,0-.09.85v3h-1.85V79.28Z"/><path d="M237.84,78.24V76.71h1.85v1.52Zm1.85,1V86h-1.85V79.28Z"/><path d="M244.84,79.28v1.24h-1.35v3.33a.63.63,0,0,0,.78.78h.3l.27,0V86a4.35,4.35,0,0,1-.52.05h-.56a5.36,5.36,0,0,1-.81-.06,1.91,1.91,0,0,1-.68-.23,1.2,1.2,0,0,1-.46-.48,1.72,1.72,0,0,1-.17-.82v-4h-1.12V79.28h1.12v-2h1.85v2Z"/><path d="M245.77,78.24V76.71h1.85v1.52Zm1.85,1V86h-1.85V79.28Z"/><path d="M250.83,79.28v.94h0a2.12,2.12,0,0,1,.91-.85,2.64,2.64,0,0,1,1.14-.27,3.14,3.14,0,0,1,1.22.2,1.81,1.81,0,0,1,.75.56,2.18,2.18,0,0,1,.38.87,5.45,5.45,0,0,1,.11,1.14V86h-1.85V82.2a2.35,2.35,0,0,0-.26-1.24,1,1,0,0,0-.92-.41,1.28,1.28,0,0,0-1.09.45,2.49,2.49,0,0,0-.34,1.48V86h-1.85V79.28Z"/><path d="M263.14,86.49a2.28,2.28,0,0,1-.47,1,2.83,2.83,0,0,1-1.05.76,4.54,4.54,0,0,1-1.85.31,4.32,4.32,0,0,1-1-.12,3.2,3.2,0,0,1-.94-.38,2.29,2.29,0,0,1-.7-.67,1.93,1.93,0,0,1-.32-1h1.83a1.05,1.05,0,0,0,.51.72,1.81,1.81,0,0,0,.87.2,1.34,1.34,0,0,0,1.14-.47,1.84,1.84,0,0,0,.34-1.18v-.88h0a1.82,1.82,0,0,1-.85.79,2.75,2.75,0,0,1-1.16.25,2.93,2.93,0,0,1-1.3-.27,2.46,2.46,0,0,1-.9-.73,3,3,0,0,1-.51-1.08,5.07,5.07,0,0,1-.16-1.31,4.18,4.18,0,0,1,.19-1.25,3.26,3.26,0,0,1,.55-1.07,2.65,2.65,0,0,1,.9-.73,2.71,2.71,0,0,1,1.24-.27,2.6,2.6,0,0,1,1.16.25,2,2,0,0,1,.84.83h0v-.9h1.75v6.29A4.53,4.53,0,0,1,263.14,86.49Zm-2.53-2.24a1.45,1.45,0,0,0,.49-.42,1.87,1.87,0,0,0,.29-.59,2.44,2.44,0,0,0,.1-.7,3.83,3.83,0,0,0-.08-.79,2,2,0,0,0-.26-.66,1.34,1.34,0,0,0-.48-.45,1.52,1.52,0,0,0-.75-.17,1.36,1.36,0,0,0-.67.16,1.42,1.42,0,0,0-.47.42,1.78,1.78,0,0,0-.27.61,3,3,0,0,0-.08.72,3.73,3.73,0,0,0,.07.72,2,2,0,0,0,.25.64,1.43,1.43,0,0,0,.46.47,1.3,1.3,0,0,0,.71.18A1.47,1.47,0,0,0,260.61,84.25Z"/><path d="M268.38,81.18a3.07,3.07,0,0,1,1.79-1.83,3.83,3.83,0,0,1,1.43-.25,3.88,3.88,0,0,1,1.44.25,3.05,3.05,0,0,1,1.8,1.83,4.12,4.12,0,0,1,.25,1.46,4.06,4.06,0,0,1-.25,1.46,3.15,3.15,0,0,1-.7,1.11,3.07,3.07,0,0,1-1.1.71,4,4,0,0,1-1.44.25,3.92,3.92,0,0,1-1.43-.25,3.07,3.07,0,0,1-1.09-.71,3.16,3.16,0,0,1-.7-1.11,4.08,4.08,0,0,1-.25-1.46A4.14,4.14,0,0,1,268.38,81.18Zm1.68,2.25a2.1,2.1,0,0,0,.27.69,1.42,1.42,0,0,0,.5.49,1.53,1.53,0,0,0,.78.18,1.56,1.56,0,0,0,.79-.18,1.4,1.4,0,0,0,.51-.49,2.1,2.1,0,0,0,.27-.69,4,4,0,0,0,.08-.79,4.05,4.05,0,0,0-.08-.79,2,2,0,0,0-.27-.69,1.48,1.48,0,0,0-.51-.49,1.52,1.52,0,0,0-.79-.19,1.49,1.49,0,0,0-.78.19,1.51,1.51,0,0,0-.5.49,2,2,0,0,0-.27.69,4,4,0,0,0-.08.79A3.89,3.89,0,0,0,270.06,83.43Z"/><path d="M278,79.28v.94h0a2.12,2.12,0,0,1,.91-.85,2.64,2.64,0,0,1,1.14-.27,3.14,3.14,0,0,1,1.22.2,1.81,1.81,0,0,1,.75.56,2.17,2.17,0,0,1,.38.87,5.45,5.45,0,0,1,.11,1.14V86h-1.85V82.2a2.36,2.36,0,0,0-.26-1.24,1,1,0,0,0-.92-.41,1.28,1.28,0,0,0-1.09.45,2.5,2.5,0,0,0-.34,1.48V86h-1.85V79.28Z"/><path d="M286,84.38a1.89,1.89,0,0,0,2.16.12,1.16,1.16,0,0,0,.49-.59h1.63a3.08,3.08,0,0,1-1.2,1.73,3.52,3.52,0,0,1-2,.52,3.84,3.84,0,0,1-1.43-.25,3,3,0,0,1-1.08-.72,3.24,3.24,0,0,1-.68-1.12,4.08,4.08,0,0,1-.24-1.43,3.93,3.93,0,0,1,.25-1.4,3.25,3.25,0,0,1,1.79-1.87,3.48,3.48,0,0,1,1.4-.27,3.19,3.19,0,0,1,1.5.33,3,3,0,0,1,1,.89,3.69,3.69,0,0,1,.59,1.27,4.77,4.77,0,0,1,.13,1.5h-4.85A1.87,1.87,0,0,0,286,84.38Zm2.09-3.54a1.3,1.3,0,0,0-1-.36,1.61,1.61,0,0,0-.73.15,1.4,1.4,0,0,0-.47.37,1.36,1.36,0,0,0-.25.47,2.12,2.12,0,0,0-.08.44h3A2.13,2.13,0,0,0,288.06,80.85Z"/><path d="M291.41,78.42a3,3,0,0,1,.64-1,2.86,2.86,0,0,1,1-.67,3.35,3.35,0,0,1,1.29-.24,4.07,4.07,0,0,1,1.54.25,3,3,0,0,1,1,.63,2.28,2.28,0,0,1,.54.81,2.33,2.33,0,0,1,.16.81,2.77,2.77,0,0,1-.16,1,2.52,2.52,0,0,1-.4.69,2.7,2.7,0,0,1-.53.49l-.55.4a2.6,2.6,0,0,0-.46.46,1.32,1.32,0,0,0-.25.65v.49h-1.75v-.58a2.65,2.65,0,0,1,.21-.94,2.69,2.69,0,0,1,.41-.64,3.27,3.27,0,0,1,.49-.46q.26-.19.48-.39a1.74,1.74,0,0,0,.36-.43,1.07,1.07,0,0,0,.12-.58,1.19,1.19,0,0,0-.29-.88,1.11,1.11,0,0,0-.81-.29,1.26,1.26,0,0,0-.6.14,1.21,1.21,0,0,0-.42.36,1.58,1.58,0,0,0-.24.53,2.62,2.62,0,0,0-.08.66h-1.91A3.73,3.73,0,0,1,291.41,78.42ZM295.3,84v2h-2V84Z"/></g><path class="cls-4" d="M152,65.31a26.65,26.65,0,1,0-26.61-26.73A26.77,26.77,0,0,0,152,65.31Z"/><path class="cls-4" d="M106.31,193.1a10.36,10.36,0,0,0,10.24-12.19c-1.11-12.39-7.28-85.65,2.24-85.65v71a15.52,15.52,0,0,0-2.08,7.77v26h31.22V182.69h8.33V200h31.22V174a15.52,15.52,0,0,0-2.08-7.77v-71c9.53,0,3.36,73.26,2.24,85.65a10.4,10.4,0,1,0,20.65,1.78S220.8,74.45,185.41,74.45H118.8c-35.39,0-22.9,108.24-22.9,108.24A10.41,10.41,0,0,0,106.31,193.1Z"/><path class="cls-5" d="M129,176h46.12a10.67,10.67,0,0,0,10.64-10.64L192.9,105a10.67,10.67,0,0,0-10.64-10.64H121.95A10.67,10.67,0,0,0,111.3,105l7.1,60.31A10.67,10.67,0,0,0,129,176Z"/><rect class="cls-5" x="141.69" y="177.12" width="20.82" height="8.33"/><path class="cls-5" d="M145.86,200h12.49v-3.06h36.43a5.2,5.2,0,1,0,0-10.41H109.43a5.2,5.2,0,1,0,0,10.41h36.43Z"/><path class="cls-2" d="M360.5,120.47a14.08,14.08,0,0,1-2-.15V137h4V120.32A14.08,14.08,0,0,1,360.5,120.47Z"/><circle class="cls-2" cx="360.5" cy="108.5" r="11"/><rect class="cls-2" x="348.5" y="138" width="24" height="4" rx="2" ry="2"/><path class="cls-2" d="M318.72,141.39c-9.62,0-18.54-.28-23.23-.9l.13-1c9.72,1.29,37.72,1.09,52.33,0l.07,1C340.41,141.07,329.15,141.39,318.72,141.39Z"/><circle class="cls-5" cx="360.5" cy="108.5" r="3.91"/></g></svg>