<svg xmlns="http://www.w3.org/2000/svg" viewBox="0 0 480 200"><defs><style>.cls-1{fill:#a2a22a;}.cls-2{fill:#c66c3a;}.cls-3{fill:#48a048;}.cls-4{fill:#95512c;}.cls-5{fill:#4248c8;}.cls-6{fill:#c84848;}.cls-7{fill:#367836;}.cls-8{fill:none;stroke:#95512c;stroke-miterlimit:10;}</style></defs><title>warefare_training_system</title><g id="Background"><rect class="cls-1" width="480" height="200"/></g><g id="Layer_1" data-name="Layer 1"><rect class="cls-2" x="197" y="65" width="87" height="61" rx="3" ry="3"/><rect class="cls-3" x="204" y="72.36" width="63" height="46.29" rx="7.99" ry="7.99"/><circle class="cls-4" cx="275.5" cy="76.5" r="4.5"/><rect class="cls-4" x="272" y="86" width="7" height="32"/><polygon class="cls-5" points="220.64 87.67 220.88 86.8 216.13 85.47 216.49 84.18 217.36 84.42 218.08 81.83 209.45 79.42 208.72 82 210.88 82.61 209.92 86.06 207.76 85.46 207.03 88.05 215.67 90.46 216.39 87.87 215.53 87.63 215.89 86.34 220.64 87.67"/><polygon class="cls-6" points="248 108.03 248 108.93 252.93 108.93 252.93 110.28 252.03 110.28 252.03 112.97 261 112.97 261 110.28 258.76 110.28 258.76 106.69 261 106.69 261 104 252.03 104 252.03 106.69 252.93 106.69 252.93 108.03 248 108.03"/><rect class="cls-7" x="233.88" y="84" width="4.62" height="21.46"/><rect class="cls-2" x="159" y="127" width="167" height="30"/><polygon class="cls-2" points="173 173 171 173 169 158 175 158 173 173"/><polygon class="cls-2" points="314 173 312 173 310 158 316 158 314 173"/><rect class="cls-4" x="257" y="130" width="66" height="24"/><rect class="cls-2" x="283" y="145.1" width="35" height="7.9"/><rect class="cls-2" x="295" y="140" width="11" height="4"/><path class="cls-8" d="M177,114.9c21.78,0-17.53,70.77,47.73,70.77S266,149.79,288,149.79"/><path class="cls-8" d="M332,105c-14,0-8.06,78-22,78-10.67,0-11.33-33.24-18.36-33.24"/><g id="Person_Sitting" data-name="Person Sitting"><path class="cls-4" d="M126,56.8a17.34,17.34,0,1,0-10.77-22.08A17.32,17.32,0,0,0,126,56.8Z"/><path class="cls-4" d="M163,120.27a6.73,6.73,0,0,1-2.68-.56c-.68-.29-16.87-7.32-33.45-16.55C101.86,89.22,90.47,78.62,90,68.8c-.16-3.07.67-8.83,8-13a6.75,6.75,0,0,1,6.61,11.77,5.82,5.82,0,0,0-1.08.74c.45,1.4,3.92,8.51,30,23,15.95,8.88,32,15.85,32.18,15.92A6.75,6.75,0,0,1,163,120.27Z"/><rect class="cls-2" x="160" y="110" width="20" height="7"/><rect class="cls-2" x="163" y="108" width="14" height="1"/><rect class="cls-2" x="166.5" y="106" width="7" height="1"/><rect class="cls-2" x="168.5" y="90" width="3" height="15"/><path class="cls-4" d="M172.91,96A6.75,6.75,0,0,0,164,92.59l-11.26,5c.15-1,.29-2.06.41-3.12,1.52-13.72-1.42-22.1-8.7-25l0-.05-41-14.11-17.18,49.9-.72,2.09-4.68,13.58a8,8,0,0,0,3.2,9.3L83,182.27h0a10.15,10.15,0,0,0,20.24.48h0v-.68s0,0,0,0l.94-44.62,7.44,2.56a7.92,7.92,0,0,0,3.62.36L118,183.1h0a10.15,10.15,0,0,0,20.21-1.26h0l0-.68h0l-3.15-50.69a10.15,10.15,0,0,0-8.4-9.37l.61-1.76,12.42-36.08c1,4.23-.12,14.73-2.8,24a6.75,6.75,0,0,0,9.21,8.06l23.35-10.34A6.75,6.75,0,0,0,172.91,96Z"/></g><g id="Chair"><polygon class="cls-2" points="74.2 192.35 72.86 192.11 80.84 142.65 83.5 143.13 74.2 192.35"/><polygon class="cls-2" points="120.09 190.99 121.43 190.75 113.45 142.65 110.79 143.13 120.09 190.99"/><path class="cls-2" d="M122.8,141.54H109.94v-18.8a12.54,12.54,0,0,1,11.8-12.47l-1-21.71a2.72,2.72,0,0,0-2.71-2.71h-42a2.72,2.72,0,0,0-2.71,2.71l-1,21.71a12.54,12.54,0,0,1,11.8,12.47v18.8H71.34a1.35,1.35,0,1,0,0,2.71H122.8a1.35,1.35,0,1,0,0-2.71Z"/></g><g id="Person_Sitting-2" data-name="Person Sitting"><path class="cls-4" d="M380.09,57.34A17.34,17.34,0,1,1,395.28,38,17.32,17.32,0,0,1,380.09,57.34Z"/><path class="cls-4" d="M345.79,92.06c-1.9,0-3.06,0-3.22,0a6.75,6.75,0,0,1,.1-13.5h.1c.13,0,13.39.19,27.52-.81,18.49-1.3,25.91-3.7,28.72-5l-.27-.25a6.75,6.75,0,0,1,8.94-10.11c7.08,6.26,6.3,12,5.2,14.8-2.14,5.52-8.49,11.48-39.4,13.91C362.05,91.93,351.06,92.06,345.79,92.06Zm54.45-18h0Z"/><rect class="cls-2" x="329" y="97" width="20" height="7"/><rect class="cls-2" x="332" y="95" width="14" height="1"/><rect class="cls-2" x="335.5" y="93" width="7" height="1"/><rect class="cls-2" x="337.5" y="77" width="3" height="15"/><path class="cls-4" d="M410.64,129.52l-1.7-14.26-.26-2.19-6.26-52.41-43,5.14v.06c-7.94,1.32-12.27,9.6-12.86,24.65-.11,2.77-.09,5.51,0,8L336.17,95a6.75,6.75,0,1,0-4.29,12.8l19.93,6.68a6.75,6.75,0,0,0,8.85-7.2c-1.28-10.67-.76-21,.58-25.89l4.4,36.79.26,2.19.28,2.33a10.16,10.16,0,0,0-6.13,9.33v51.46h0a10.15,10.15,0,0,0,20.25,0h0V141.2l7.42-.89v43.21h0a10.15,10.15,0,0,0,20.25,0h0V136.35A8,8,0,0,0,410.64,129.52Z"/></g><g id="Chair-2" data-name="Chair"><polygon class="cls-2" points="367.2 192.35 365.87 192.11 373.84 142.65 376.5 143.13 367.2 192.35"/><polygon class="cls-2" points="413.09 190.99 414.43 190.75 406.45 142.65 403.79 143.13 413.09 190.99"/><path class="cls-2" d="M415.8,141.54H402.94v-18.8a12.54,12.54,0,0,1,11.8-12.47l-1-21.71a2.72,2.72,0,0,0-2.71-2.71h-42a2.72,2.72,0,0,0-2.71,2.71l-1,21.71a12.54,12.54,0,0,1,11.8,12.47v18.8H364.34a1.35,1.35,0,1,0,0,2.71H415.8a1.35,1.35,0,1,0,0-2.71Z"/></g></g></svg>