<svg xmlns="http://www.w3.org/2000/svg" viewBox="0 0 480 200"><defs><style>.cls-1{fill:#ffcd91;}.cls-2{fill:#290b18;}.cls-3{fill:#766537;}.cls-4{fill:#947256;}.cls-5{fill:#55272b;}.cls-6{fill:#520c07;}</style></defs><title>wine_preservation</title><g id="Background"><rect class="cls-1" width="480" height="200"/></g><g id="Layer_1" data-name="Layer 1"><g id="Person"><rect class="cls-2" x="411" y="131" width="15" height="53"/><circle class="cls-2" cx="418.5" cy="183.5" r="7.5"/><rect class="cls-2" x="428" y="131" width="15" height="53"/><circle class="cls-2" cx="435.5" cy="183.5" r="7.5"/><rect class="cls-2" x="411" y="80" width="32" height="52"/><path class="cls-2" d="M426.93,75.61a12.8,12.8,0,1,1,12.83-12.82A12.79,12.79,0,0,1,426.93,75.61Z"/><path class="cls-2" d="M358.45,88.22l3.65,9.31S392,90,411,90l1-.12V80h-1C394,80,358.45,88.22,358.45,88.22Z"/><circle class="cls-2" cx="360.27" cy="92.88" r="5" transform="translate(-9.07 137.72) rotate(-21.38)"/><path class="cls-2" d="M464.16,76.22l-9.63-2.7s-1.08,6-2.4,12.43A9.3,9.3,0,0,0,443,80h-1V90h1c5,0-.41,16.17,1,19a4.31,4.31,0,0,0,6,2C457.51,107.14,464.16,76.22,464.16,76.22Z"/><circle class="cls-2" cx="459.35" cy="74.87" r="5" transform="translate(263.23 496.94) rotate(-74.34)"/><path class="cls-2" d="M469.08,73.63c-3.5.75-14,.41-18.5,0s-4.56-2.53,0-3.37a71.88,71.88,0,0,1,18.5,0Z"/><rect class="cls-3" x="470.08" y="70.46" width="1" height="2.95"/><rect class="cls-3" x="472.08" y="70.9" width="1" height="2.08"/><path class="cls-4" d="M451.94,70.13a6.11,6.11,0,0,0-.11,1,1.11,1.11,0,0,0,0,1.62,8.11,8.11,0,0,0,.14.94l1.93.11c0-.28-.07-.62-.09-1a1.12,1.12,0,0,0,0-1.77,8.62,8.62,0,0,1,.1-1.08C453.22,70,452.56,70.05,451.94,70.13Z"/><path class="cls-4" d="M473.58,68.75a.5.5,0,0,1-.47-.67,9.36,9.36,0,0,0-.44-7.34c-.75-1.91-1.45-3.71.56-5.72a.5.5,0,0,1,.71.71c-1.55,1.54-1.07,2.78-.34,4.65a10.33,10.33,0,0,1,.46,8A.5.5,0,0,1,473.58,68.75Z"/><path class="cls-5" d="M360.73,74.65c-7.23-.15-8.53-2-14.49-1.06A43.43,43.43,0,0,0,347.83,83c.75,2,4.17,3,6.68,3.62a9.61,9.61,0,0,1,2.66.92l.79.67.1-1a9.9,9.9,0,0,1,1.43-2.4c1.4-2,3.52-5,2.77-7.07A21,21,0,0,0,360.73,74.65Z"/><path class="cls-4" d="M363.16,98.7c-.17,0-.62-.29-.88-.76s-1.78-4.05-1.78-4.05-2.15-5.64-2-6.53c.42-1.58,5.4-6.46,4.19-9.77s-5.39-9.07-6.81-10.84c-.08-.23-2.46.47-5.31,1.51s-5.12,2-5,2.27c0,2.28.58,9.37,1.78,12.68S355.53,87,356.87,88c.72.56,2.72,6.25,2.72,6.25s1.17,3.8,1.25,4.25a1.54,1.54,0,0,1-.19,1.15c-2.84,1.21-4.81,2.66-4.52,3.46s3.45.59,7-.69,6.09-3,5.76-4S366.15,97.78,363.16,98.7Zm-8.52-12.53c-2.26-.6-5.68-1.5-6.34-3.31-1.08-3-1.64-9.3-1.71-11.86a57.56,57.56,0,0,1,8.87-3.24c1.56,2,5.26,7.22,6.34,10.17.66,1.81-1.37,4.7-2.71,6.61a9.85,9.85,0,0,0-1.51,2.56,1.11,1.11,0,0,0,0,.14l-.08-.06A9.67,9.67,0,0,0,354.64,86.17Zm8.1,15.28a15.9,15.9,0,0,1-5.29,1.15,13.61,13.61,0,0,1,3.59-2.06l.09,0,.08-.05a1.84,1.84,0,0,0,.64-1.41,1.85,1.85,0,0,0,1.41.67h.1l.09,0a13.47,13.47,0,0,1,4.08-.74A15.84,15.84,0,0,1,362.74,101.46Z"/><path class="cls-2" d="M418.24,53.46A39.47,39.47,0,0,1,437,54.77q0-2.33.16-4.71a77.75,77.75,0,0,1,2-13.45,79.56,79.56,0,0,0-20.79-1.08,77.84,77.84,0,0,1,.27,13.34Q418.52,51.2,418.24,53.46Z"/><ellipse class="cls-2" cx="427.44" cy="53.41" rx="2.2" ry="14.46" transform="translate(346.77 476.56) rotate(-86.33)"/><ellipse class="cls-4" cx="431.18" cy="61.31" rx="3.11" ry="3.29"/><path class="cls-4" d="M432.13,66.38a.46.46,0,0,1-.5-.44c0-.1,0-.16,0-.16a.48.48,0,0,1,.52-.47.5.5,0,0,1,.47.52h0a.54.54,0,0,1-.49.56Zm3.35,7.37a.5.5,0,0,0,.1-.7l-.13-.17a.5.5,0,1,0-.81.59l.14.19a.5.5,0,0,0,.7.1ZM434.3,72.1a.5.5,0,0,0,.18-.68l-.11-.19a.5.5,0,0,0-.87.5l.12.2a.5.5,0,0,0,.68.18Zm-1-1.79a.5.5,0,0,0,.26-.66l-.08-.2a.5.5,0,0,0-.93.38l.09.22a.5.5,0,0,0,.66.26Zm-.64-1.93a.5.5,0,0,0,.26-.66l-.08-.2a.5.5,0,0,0-.93.38l.09.22a.5.5,0,0,0,.66.26Z"/></g><path class="cls-5" d="M103,172.5c-2.24,0-3.42-4.4-4.63-9.72-.93-4.07-1.66-7.28-3.37-7.28s-2.44,3.21-3.37,7.28c-1.21,5.32-2.4,9.72-4.63,9.72H76.5v-2H86c1.64,0,2.34-3,3.31-7.09,1.15-4.86,2.57-10.91,5.69-10.91s4.54,6,5.69,10.91c1,4.12,1.67,7.09,3.31,7.09h6.5v2Z"/><path class="cls-4" d="M104,170c-3,0-3-18-9-18s-6,18-9,18H76v3H87c5,0,5-17,8-17s3,17,8,17h8v-3Zm6,2h-7c-2,0-3.3-5.62-4.15-9.33-1-4.45-1.75-7.67-3.85-7.67s-2.84,3.22-3.85,7.67C90.3,166.38,89,172,87,172H77v-1h9c2,0,2.74-3,3.8-7.48S92.28,153,95,153s4.16,6.08,5.2,10.52S102,171,104,171h6Z"/><path class="cls-5" d="M170,172.5c-2.24,0-3.42-4.4-4.63-9.72-.93-4.07-1.66-7.28-3.37-7.28s-2.44,3.21-3.37,7.28c-1.21,5.32-2.4,9.72-4.63,9.72H143.5v-2H153c1.64,0,2.34-3,3.31-7.09,1.15-4.86,2.57-10.91,5.69-10.91s4.54,6,5.69,10.91c1,4.12,1.67,7.09,3.31,7.09h6.5v2Z"/><path class="cls-4" d="M171,170c-3,0-3-18-9-18s-6,18-9,18H143v3h11c5,0,5-17,8-17s3,17,8,17h8v-3Zm6,2h-7c-2,0-3.3-5.62-4.15-9.33-1-4.45-1.75-7.67-3.85-7.67s-2.84,3.22-3.85,7.67C157.3,166.38,156,172,154,172H144v-1h9c2,0,2.74-3,3.8-7.48S159.28,153,162,153s4.16,6.08,5.2,10.52S169,171,171,171h6Z"/><path class="cls-5" d="M266,172.5c-2.24,0-3.42-4.4-4.63-9.72-.93-4.07-1.66-7.28-3.37-7.28s-2.44,3.21-3.37,7.28c-1.21,5.32-2.4,9.72-4.63,9.72H239.5v-2H249c1.64,0,2.34-3,3.31-7.09,1.15-4.86,2.57-10.91,5.69-10.91s4.54,6,5.69,10.91c1,4.12,1.67,7.09,3.31,7.09h6.5v2Z"/><path class="cls-4" d="M267,170c-3,0-3-18-9-18s-6,18-9,18H239v3h11c5,0,5-17,8-17s3,17,8,17h8v-3Zm6,2h-7c-2,0-3.3-5.62-4.15-9.33-1-4.45-1.75-7.67-3.85-7.67s-2.84,3.22-3.85,7.67C253.3,166.38,252,172,250,172H240v-1h9c2,0,2.74-3,3.8-7.48S255.28,153,258,153s4.16,6.08,5.2,10.52S265,171,267,171h6Z"/><path class="cls-4" d="M69.57,105.23a1.23,1.23,0,0,1,.48.15l1.17.67a1.24,1.24,0,0,1,.53.61l5,2.66A25.21,25.21,0,0,0,84,111.27V105H69.7Z"/><path class="cls-4" d="M76.71,94.7l-5,2.64a1.24,1.24,0,0,1-.52.6L70,98.62a1.23,1.23,0,0,1-.48.15l.13.23H83.83a26.83,26.83,0,0,0-1.39-6.05A25.26,25.26,0,0,0,76.71,94.7Z"/><path class="cls-4" d="M60.76,114.5h-.48a1.24,1.24,0,0,1,.08.43v1.35a1.23,1.23,0,0,1-.26.76l.2,5.67A24.41,24.41,0,0,0,62.73,131a18.94,18.94,0,0,1,1.84,8.25,37.77,37.77,0,0,0,8.78-2.93Z"/><path class="cls-4" d="M53.7,122.65l.2-5.62a1.24,1.24,0,0,1-.26-.76v-1.35a1.23,1.23,0,0,1,.08-.43h-.9L40.33,136.12a37.7,37.7,0,0,0,9.1,3.1A18.89,18.89,0,0,1,51.28,131,24.23,24.23,0,0,0,53.7,122.65Z"/><path class="cls-4" d="M66.32,93.14a1.22,1.22,0,0,1,.37-.34l1.17-.67a1.22,1.22,0,0,1,.62-.17h.17l4.81-3a25.73,25.73,0,0,0,4.4-4.12A27.15,27.15,0,0,0,72.71,80l-7,12.08Z"/><path class="cls-4" d="M40.51,88.67l4.76,3h.17a1.24,1.24,0,0,1,.62.17l1.17.67a1.23,1.23,0,0,1,.5.57l.32-.56L41,80.26a27.15,27.15,0,0,0-4.75,4.47A25.45,25.45,0,0,0,40.51,88.67Z"/><path class="cls-4" d="M44.49,98.46h0a1.24,1.24,0,0,1-.62-.17l-1.17-.67a1.23,1.23,0,0,1-.53-.61l-5-2.66a25.65,25.65,0,0,0-5.51-1.7A26.84,26.84,0,0,0,30.17,99H44.3l.31-.55Z"/><path class="cls-4" d="M35.17,133.07l12-20.84-1,.55a1.25,1.25,0,0,1-.62.17h-.17l-4.81,3a24.54,24.54,0,0,0-5.95,6.24,17.91,17.91,0,0,1-4.69,4.7v1.82A38.19,38.19,0,0,0,35.17,133.07Z"/><path class="cls-4" d="M30,105v7.19a24.8,24.8,0,0,0,7.38-2l5-2.63a1.28,1.28,0,0,1,.53-.61l1.17-.68a1.23,1.23,0,0,1,.62-.17l.21,0,.08,0L44.3,105Z"/><path class="cls-4" d="M84,128.73v-2.82a17.45,17.45,0,0,1-4.61-4.66,24.3,24.3,0,0,0-6-6.25l-4.76-3h-.17a1.24,1.24,0,0,1-.63-.17l-1.16-.67a1.22,1.22,0,0,1-.37-.34l-.37.63,12.58,21.8A38.13,38.13,0,0,0,84,128.73Z"/><path class="cls-4" d="M64.58,148.36v5.21a2.85,2.85,0,0,1-2,2.78,16.53,16.53,0,0,1-4.58.46H56.27a18.28,18.28,0,0,1-4.84-.47,2.84,2.84,0,0,1-2-2.78v-5.19A46.7,46.7,0,0,1,30,140.47V188H84V140.46A46.73,46.73,0,0,1,64.58,148.36Z"/><path class="cls-4" d="M60.3,81.35,60.1,87a1.24,1.24,0,0,1,.26.76v1.35a1.23,1.23,0,0,1-.08.43h0l7.15-12.39a26.81,26.81,0,0,0-5.8-1.7A25.29,25.29,0,0,0,60.3,81.35Z"/><path class="cls-4" d="M53.26,89.5h.46a1.24,1.24,0,0,1-.08-.43V87.72A1.23,1.23,0,0,1,53.9,87l-.2-5.67a25.51,25.51,0,0,0-1.38-5.89,26.79,26.79,0,0,0-6.13,1.85Z"/><path class="cls-4" d="M18,102a38.89,38.89,0,0,0,2.46,13.65l-6.13,3.54a46,46,0,0,1-.19-33.91l6.15,3.55A38.89,38.89,0,0,0,18,102Zm3.16-28.83,6.15,3.55A39,39,0,0,1,50,63.64V56.53A46,46,0,0,0,21.16,73.17Zm6.49,54.5-6.16,3.56A45.94,45.94,0,0,0,50,147.47v-7.11A39,39,0,0,1,27.65,127.66ZM64,140.36v7.09a46,46,0,0,0,29.06-16.91L86.93,127A39,39,0,0,1,64,140.36Zm36-54.74-6.16,3.56a39,39,0,0,1,0,25.64l6.16,3.55a46.1,46.1,0,0,0,0-32.75ZM64,56.53v7.11A39,39,0,0,1,86.93,77l6.15-3.55A46,46,0,0,0,64,56.53Z"/><polygon class="cls-4" points="49.78 89.5 52.1 89.5 37.47 64.15 34 66.15 48.63 91.49 49.78 89.5"/><polygon class="cls-4" points="64.22 89.5 65.16 91.13 79.68 65.97 76.22 63.97 61.48 89.5 64.22 89.5"/><polygon class="cls-4" points="70.28 100 71.43 102 70.28 104 99 104 99 100 70.28 100"/><polygon class="cls-4" points="42.57 102 43.72 100 15 100 15 104 43.72 104 42.57 102"/><polygon class="cls-4" points="64.22 114.5 61.92 114.5 76.02 138.92 79.48 136.92 65.38 112.49 64.22 114.5"/><polygon class="cls-4" points="49.78 114.5 48.41 112.13 33.52 137.92 36.98 139.92 51.66 114.5 49.78 114.5"/><path class="cls-4" d="M59.5,93.36a9,9,0,0,1,4.09,2.52L66,94.51l-2.32-4H59.5Z"/><path class="cls-4" d="M66,102a8.89,8.89,0,0,1-.27,2.16l2.48,1.43L70.28,102l-1.82-3.16-2.61,1.51A8.82,8.82,0,0,1,66,102Z"/><path class="cls-4" d="M48.4,104.65a8.95,8.95,0,0,1-.13-4.8l-2.48-1.43L43.72,102,46,106Z"/><path class="cls-4" d="M54.5,110.64a8.92,8.92,0,0,1-3.35-1.81l-2.61,1.51,1.82,3.16H54.5Z"/><path class="cls-4" d="M63.23,108.48a9,9,0,0,1-3.73,2.16v2.86h4.14l2.07-3.58Z"/><path class="cls-4" d="M50.77,95.52a9,9,0,0,1,3.73-2.16V90.5H50.36l-2.07,3.58Z"/><path class="cls-5" d="M56,114.5v-5.06l-.41-.08a7.45,7.45,0,0,1-3.95-2.12l-.27-.28-4.45,2.57-1-1.73,4.33-2.5-.17-.41a7.46,7.46,0,0,1-.16-5.37l.14-.39-4.38-2.53,1-1.73,4.38,2.53.27-.31a7.52,7.52,0,0,1,4.27-2.47l.41-.08V89.5h2v5.06l.41.08A7.47,7.47,0,0,1,63,97.47l.27.35,4.34-2.51,1,1.73-4.46,2.57.1.37a7.36,7.36,0,0,1-.14,4.47l-.14.39,4.38,2.53-1,1.73-4.38-2.53-.27.31a7.51,7.51,0,0,1-4.27,2.47l-.41.08v5.06Z"/><path class="cls-4" d="M65,102a8,8,0,0,0-.3-2.15l4.55-2.63-1.5-2.6-4.39,2.54a8,8,0,0,0-4.86-3V89h-3v5.15A8,8,0,0,0,51,96.78L46.49,94.2,45,96.8l4.46,2.57a8,8,0,0,0,.17,5.72l-4.38,2.53,1.5,2.6,4.55-2.63a8,8,0,0,0,4.21,2.26V115h3v-5.15A8,8,0,0,0,63,107.22l4.46,2.57,1.5-2.6-4.46-2.57A8,8,0,0,0,65,102Zm2.64,5.57-.5.87-4.31-2.49-.54.63a7,7,0,0,1-4,2.3l-.81.15v5h-1v-5l-.81-.15a7,7,0,0,1-3.68-2l-.54-.55-4.36,2.51-.5-.87,4.28-2.47-.34-.81a7,7,0,0,1-.15-5l.27-.78-4.31-2.49.5-.87,4.31,2.49.54-.62a7,7,0,0,1,4-2.3L56.5,95V90h1v5l.81.15a7,7,0,0,1,4.25,2.64l.53.7L67.39,96l.5.87-4.36,2.52.21.75a6.86,6.86,0,0,1-.13,4.18l-.27.78Z"/><path class="cls-5" d="M56.26,155.31a16.74,16.74,0,0,1-4.44-.41,1.36,1.36,0,0,1-.91-1.33V139.91a18.08,18.08,0,0,1,1.67-8.23,25.67,25.67,0,0,0,2.61-8.92l.21-6a.92.92,0,0,0-.17-.55l-.1-.13v-1l.11-.14.15-.22.31-.06h2.83l.15.22.11.14.05.25v.82l-.1.13a.89.89,0,0,0-.17.54l.21,6a25.92,25.92,0,0,0,2.61,8.92,18.08,18.08,0,0,1,1.68,8.23v13.66a1.36,1.36,0,0,1-.91,1.33,15.29,15.29,0,0,1-4.19.41Z"/><path class="cls-2" d="M59.3,122.74l-.21-6a.32.32,0,0,1,.13-.29.23.23,0,0,0,.14-.21v-1.35a.23.23,0,0,0-.1-.19.29.29,0,0,1-.17-.4.23.23,0,0,0,0-.14H55a.23.23,0,0,0,0,.14.3.3,0,0,1-.16.4.24.24,0,0,0-.1.19v1.35a.22.22,0,0,0,.13.21.31.31,0,0,1,.14.29l-.21,6a25.27,25.27,0,0,1-2.55,8.71,18.46,18.46,0,0,0-1.74,8.47v13.66a1.86,1.86,0,0,0,1.28,1.81,20.24,20.24,0,0,0,5.3.43,19.51,19.51,0,0,0,5.3-.43,1.86,1.86,0,0,0,1.28-1.81V139.91a18.47,18.47,0,0,0-1.74-8.47A25.33,25.33,0,0,1,59.3,122.74Zm3.28,30.83s0,.71-.54.85a14.89,14.89,0,0,1-4.06.4H56.27a16.37,16.37,0,0,1-4.3-.39c-.53-.14-.55-.84-.55-.85V139.91a17.53,17.53,0,0,1,1.61-8,26.06,26.06,0,0,0,2.67-9.13l.21-6a1.43,1.43,0,0,0-.27-.87v-.66l.08-.1h2.56l.08.1v.65a1.39,1.39,0,0,0-.27.84l.21,6A26.17,26.17,0,0,0,61,131.91a17.46,17.46,0,0,1,1.62,8Z"/><path class="cls-2" d="M62.42,139.31a53.73,53.73,0,0,0-10.83,0c-.57.14-.59.84-.59.85v9.42s0,.71.59.85a53.73,53.73,0,0,0,10.83,0c.57-.14.58-.84.58-.85v-9.42S63,139.45,62.42,139.31Z"/><path class="cls-5" d="M58.59,87.21l.17-4.91c-1.15.09-2,.34-3.51.39l.16,4.53a.89.89,0,0,1-.17.54l-.1.13v.82l.05.25.11.14.15.22h2.83l.31-.06.15-.22.11-.14v-1l-.1-.13A.92.92,0,0,1,58.59,87.21Z"/><path class="cls-2" d="M54.7,81.26l.21,6a.32.32,0,0,1-.13.29.23.23,0,0,0-.14.21v1.35a.23.23,0,0,0,.1.19.29.29,0,0,1,.17.4.23.23,0,0,0,0,.14H59a.23.23,0,0,0,0-.14.3.3,0,0,1,.16-.4.24.24,0,0,0,.1-.19V87.72a.22.22,0,0,0-.13-.21.31.31,0,0,1-.14-.29l.21-6a25.27,25.27,0,0,1,2.55-8.71,18.46,18.46,0,0,0,1.74-8.47V50.43a1.86,1.86,0,0,0-1.28-1.81,20.24,20.24,0,0,0-5.3-.43,19.51,19.51,0,0,0-5.3.43,1.86,1.86,0,0,0-1.28,1.81V64.09a18.47,18.47,0,0,0,1.74,8.47A25.33,25.33,0,0,1,54.7,81.26ZM51.42,50.43s0-.71.54-.85a14.89,14.89,0,0,1,4.06-.4h1.71a16.37,16.37,0,0,1,4.3.39c.53.14.55.84.55.85V64.09a17.53,17.53,0,0,1-1.61,8,26.06,26.06,0,0,0-2.67,9.13l-.21,6a1.43,1.43,0,0,0,.27.87v.66l-.08.1H55.72l-.08-.1v-.65a1.39,1.39,0,0,0,.27-.84l-.21-6A26.17,26.17,0,0,0,53,72.09a17.46,17.46,0,0,1-1.62-8Z"/><path class="cls-2" d="M51.58,64.69a53.73,53.73,0,0,0,10.83,0c.57-.14.59-.84.59-.85V54.43s0-.71-.59-.85a53.73,53.73,0,0,0-10.83,0c-.57.14-.58.84-.58.85v9.42S51,64.55,51.58,64.69Z"/><path class="cls-5" d="M99.57,133.08a1.72,1.72,0,0,1-.79-.21L87,126a18.16,18.16,0,0,1-6.29-5.56,25.61,25.61,0,0,0-6.42-6.72l-5.06-3.16a1,1,0,0,0-.47-.13l-.17,0-.23-.08-.73-.42-.06-.17-.12-.24.11-.3,1.42-2.45.27,0,.17,0,.24.08.71.41.07.15a.89.89,0,0,0,.38.42l5.28,2.8a26,26,0,0,0,9,2.2,17.86,17.86,0,0,1,8,2.67l11.83,6.83a1.37,1.37,0,0,1,.7,1.46,15.29,15.29,0,0,1-1.74,3.84l-.86,1.48a16.73,16.73,0,0,1-2.57,3.64A1.15,1.15,0,0,1,99.57,133.08Z"/><path class="cls-2" d="M76.28,110.2,71,107.41a.32.32,0,0,1-.19-.26.23.23,0,0,0-.12-.23l-1.17-.67a.23.23,0,0,0-.22,0,.29.29,0,0,1-.43-.06.23.23,0,0,0-.15,0l-2,3.54a.23.23,0,0,0,.1.11c.19,0,.3.16.27.34a.24.24,0,0,0,.12.19l1.17.67a.22.22,0,0,0,.25,0,.31.31,0,0,1,.32,0L74,114.18a25.27,25.27,0,0,1,6.27,6.56,18.46,18.46,0,0,0,6.47,5.74l11.83,6.83a1.86,1.86,0,0,0,2.21-.2,20.24,20.24,0,0,0,3-4.38,19.51,19.51,0,0,0,2.28-4.81,1.86,1.86,0,0,0-.93-2l-11.83-6.83a18.47,18.47,0,0,0-8.2-2.73A25.33,25.33,0,0,1,76.28,110.2Zm28.34,12.57s.6.37.46.89a14.89,14.89,0,0,1-1.69,3.72l-.86,1.48a16.37,16.37,0,0,1-2.49,3.53c-.39.39-1,.05-1,0l-11.83-6.83a17.53,17.53,0,0,1-6.11-5.39,26.06,26.06,0,0,0-6.57-6.88l-5.08-3.17a1.43,1.43,0,0,0-.88-.2l-.57-.33,0-.12,1.28-2.22.13,0,.57.33a1.39,1.39,0,0,0,.59.65l5.29,2.81a26.17,26.17,0,0,0,9.25,2.26,17.46,17.46,0,0,1,7.74,2.6Z"/><path class="cls-2" d="M92.19,115.79a53.73,53.73,0,0,0-5.42,9.38c-.16.57.44.93.44.93l4.12,2.38.78.45,3.25,1.88a.9.9,0,0,0,1-.08,53.73,53.73,0,0,0,5.41-9.38c.16-.56-.44-.92-.44-.93l-3.25-1.88-.78-.45-4.12-2.38A.9.9,0,0,0,92.19,115.79Z"/><path class="cls-5" d="M81.89,81.95a10.93,10.93,0,0,0-1.22,1.57,25.76,25.76,0,0,1-6.42,6.72l-5.07,3.17a1,1,0,0,1-.51.12h0l-.17,0-.71.41-.19.17-.06.17-.12.24,1.55,2.68.27,0,.26,0,.87-.5.07-.15a.93.93,0,0,1,.39-.42L76,93.35a25.59,25.59,0,0,1,9-2.2,18.08,18.08,0,0,0,8-2.67l10.25-5.92C93.72,82.49,90.56,81,81.89,81.95Zm-1.08,6.86a.94.94,0,1,1,.94-.94A.94.94,0,0,1,80.81,88.81Z"/><path class="cls-2" d="M74,89.81,68.93,93a.32.32,0,0,1-.32,0,.23.23,0,0,0-.25,0l-1.17.67a.23.23,0,0,0-.12.19c0,.19-.08.3-.27.35a.23.23,0,0,0-.1.11l2,3.54a.23.23,0,0,0,.15,0,.3.3,0,0,1,.43-.06.24.24,0,0,0,.22,0l1.17-.67a.22.22,0,0,0,.12-.22A.31.31,0,0,1,71,96.6l5.26-2.8a25.27,25.27,0,0,1,8.82-2.15,18.46,18.46,0,0,0,8.21-2.73l11.83-6.83a1.86,1.86,0,0,0,.93-2,20.24,20.24,0,0,0-2.28-4.81,19.51,19.51,0,0,0-3-4.38,1.86,1.86,0,0,0-2.21-.2L86.71,77.52a18.47,18.47,0,0,0-6.47,5.74A25.33,25.33,0,0,1,74,89.81ZM99,71.55s.62-.34,1,0a14.89,14.89,0,0,1,2.37,3.32l.86,1.48a16.37,16.37,0,0,1,1.81,3.92c.14.53-.46.89-.46.9L92.8,88.05a17.53,17.53,0,0,1-7.72,2.6,26.06,26.06,0,0,0-9.24,2.25l-5.29,2.81a1.43,1.43,0,0,0-.62.67l-.57.33-.13,0L68,94.47l.05-.12.57-.33a1.39,1.39,0,0,0,.86-.19l5.08-3.18a26.17,26.17,0,0,0,6.58-6.88,17.46,17.46,0,0,1,6.12-5.4Z"/><path class="cls-2" d="M86.77,78.83a53.73,53.73,0,0,0,5.41,9.38.9.9,0,0,0,1,.08l4.12-2.38.78-.45,3.25-1.88s.6-.37.44-.93a53.73,53.73,0,0,0-5.42-9.38.9.9,0,0,0-1-.08l-3.25,1.88-.78.45L87.21,77.9S86.61,78.27,86.77,78.83Z"/><path class="cls-5" d="M46.39,93.86l-.06-.17-.73-.42-.23-.08-.17,0a1,1,0,0,1-.47-.13l-5.06-3.16a25.62,25.62,0,0,1-6.42-6.72,9,9,0,0,0-.65-.89c-6.64-.34-12.37.49-21.22.38l9.5,5.48a17.85,17.85,0,0,0,8,2.66,25.8,25.8,0,0,1,9,2.2l5.28,2.8a.89.89,0,0,1,.38.42l.07.15.71.41.24.08.18,0,.27,0,1.42-2.45.11-.3ZM30.92,87a.92.92,0,1,1,.92-.92A.92.92,0,0,1,30.92,87Zm3.42,3.34a.66.66,0,1,1,.66-.66A.66.66,0,0,1,34.34,90.31Z"/><path class="cls-2" d="M37.64,93.48l5.26,2.79a.32.32,0,0,1,.19.26.23.23,0,0,0,.12.23l1.17.67a.23.23,0,0,0,.22,0,.29.29,0,0,1,.43.06.23.23,0,0,0,.15,0l2-3.54a.23.23,0,0,0-.1-.11c-.19,0-.3-.16-.27-.34a.24.24,0,0,0-.12-.19l-1.17-.67a.22.22,0,0,0-.25,0,.31.31,0,0,1-.32,0L39.95,89.5a25.27,25.27,0,0,1-6.27-6.56,18.46,18.46,0,0,0-6.47-5.74L15.38,70.37a1.86,1.86,0,0,0-2.21.2,20.24,20.24,0,0,0-3,4.38,19.51,19.51,0,0,0-2.28,4.81,1.86,1.86,0,0,0,.93,2L20.63,88.6a18.47,18.47,0,0,0,8.2,2.73A25.33,25.33,0,0,1,37.64,93.48ZM9.3,80.9s-.6-.37-.46-.89a14.89,14.89,0,0,1,1.69-3.72l.86-1.48a16.37,16.37,0,0,1,2.49-3.53c.39-.39,1-.05,1,0l11.83,6.83a17.53,17.53,0,0,1,6.11,5.39,26.06,26.06,0,0,0,6.57,6.88l5.08,3.17a1.43,1.43,0,0,0,.88.2l.57.33,0,.12-1.28,2.22-.13,0L44,96.06a1.39,1.39,0,0,0-.59-.65l-5.29-2.81a26.17,26.17,0,0,0-9.25-2.26,17.46,17.46,0,0,1-7.74-2.6Z"/><path class="cls-2" d="M21.73,87.89a53.73,53.73,0,0,0,5.42-9.38c.16-.57-.44-.93-.44-.93L22.59,75.2l-.78-.45-3.25-1.88a.9.9,0,0,0-1,.08,53.73,53.73,0,0,0-5.41,9.38c-.16.56.44.92.44.93l3.25,1.88.78.45L20.71,88A.9.9,0,0,0,21.73,87.89Z"/><path class="cls-5" d="M14.52,134a1.14,1.14,0,0,1-.82-.33,15.33,15.33,0,0,1-2.45-3.42l-.86-1.48a16.76,16.76,0,0,1-1.86-4,1.35,1.35,0,0,1,.68-1.45L21,116.43a18,18,0,0,1,8-2.67,25.7,25.7,0,0,0,9-2.2l5.27-2.8a.92.92,0,0,0,.39-.42l.07-.15.87-.5.18,0,.27,0,.21.24,1.42,2.45-.12.24-.06.17-.19.17-.71.41-.17,0h0a1,1,0,0,0-.51.12l-5.07,3.17a25.66,25.66,0,0,0-6.42,6.72A18,18,0,0,1,27.13,127L15.3,133.79A1.7,1.7,0,0,1,14.52,134Z"/><path class="cls-2" d="M40.11,115.1l5.05-3.16a.32.32,0,0,1,.32,0,.23.23,0,0,0,.25,0l1.17-.67a.23.23,0,0,0,.12-.19c0-.19.08-.3.27-.35a.23.23,0,0,0,.1-.11l-2-3.54a.23.23,0,0,0-.15,0,.3.3,0,0,1-.43.06.24.24,0,0,0-.22,0l-1.17.67a.22.22,0,0,0-.12.22.31.31,0,0,1-.18.26l-5.26,2.8A25.27,25.27,0,0,1,29,113.26,18.46,18.46,0,0,0,20.8,116L9,122.82a1.86,1.86,0,0,0-.93,2,20.24,20.24,0,0,0,2.28,4.81,19.51,19.51,0,0,0,3,4.38,1.86,1.86,0,0,0,2.21.2l11.83-6.83a18.47,18.47,0,0,0,6.47-5.74A25.33,25.33,0,0,1,40.11,115.1ZM15.05,133.36s-.62.34-1,0A14.89,14.89,0,0,1,11.67,130l-.86-1.48A16.37,16.37,0,0,1,9,124.59c-.14-.53.46-.89.46-.9l11.83-6.83a17.53,17.53,0,0,1,7.72-2.6A26.06,26.06,0,0,0,38.26,112l5.29-2.81a1.43,1.43,0,0,0,.62-.67l.57-.33.13,0,1.28,2.22-.05.12-.57.33a1.39,1.39,0,0,0-.86.19l-5.08,3.18A26.17,26.17,0,0,0,33,121.13a17.46,17.46,0,0,1-6.12,5.4Z"/><path class="cls-2" d="M27.32,126.08a53.73,53.73,0,0,0-5.41-9.38.9.9,0,0,0-1-.08L16.76,119l-.78.45-3.25,1.88s-.6.37-.44.93a53.73,53.73,0,0,0,5.42,9.38.9.9,0,0,0,1,.08L22,129.84l.78-.45L26.88,127S27.48,126.65,27.32,126.08Z"/><path class="cls-1" d="M79.5,178H62a.5.5,0,0,1,0-1H79.5a.5.5,0,0,1,0,1Z"/><path class="cls-1" d="M79.5,181H62a.5.5,0,0,1,0-1H79.5a.5.5,0,0,1,0,1Z"/><path class="cls-1" d="M79.5,184H62a.5.5,0,0,1,0-1H79.5a.5.5,0,0,1,0,1Z"/><rect class="cls-4" x="108" y="156" width="41" height="32"/><path class="cls-1" d="M144.5,178h-11a.5.5,0,0,1,0-1h11a.5.5,0,0,1,0,1Z"/><path class="cls-1" d="M144.5,181h-11a.5.5,0,0,1,0-1h11a.5.5,0,0,1,0,1Z"/><path class="cls-1" d="M144.5,184h-11a.5.5,0,0,1,0-1h11a.5.5,0,0,1,0,1Z"/><path class="cls-5" d="M116.2,143.84a1.5,1.5,0,0,1-.26-3l26.59-4.69.26,0a1.5,1.5,0,0,1,.26,3l-26.59,4.69Z"/><path class="cls-5" d="M116.2,133.84a1.5,1.5,0,0,1-.26-3l26.59-4.69.26,0a1.5,1.5,0,0,1,.26,3l-26.59,4.69Z"/><path class="cls-5" d="M116.2,123.84a1.5,1.5,0,0,1-.26-3l26.59-4.69.26,0a1.5,1.5,0,0,1,.26,3l-26.59,4.69Z"/><path class="cls-5" d="M116.2,113.84a1.5,1.5,0,0,1-.26-3l26.59-4.69.26,0a1.5,1.5,0,0,1,.26,3l-26.59,4.69Z"/><path class="cls-5" d="M116.2,103.84a1.5,1.5,0,0,1-.26-3l26.59-4.69.26,0a1.5,1.5,0,0,1,.26,3l-26.59,4.69Z"/><path class="cls-5" d="M116.2,93.84a1.5,1.5,0,0,1-.26-3l26.59-4.69.26,0a1.5,1.5,0,0,1,.26,3l-26.59,4.69Z"/><path class="cls-5" d="M116.2,83.84a1.5,1.5,0,0,1-.26-3l26.59-4.69.26,0a1.5,1.5,0,0,1,.26,3l-26.59,4.69Z"/><path class="cls-5" d="M116.2,73.84a1.5,1.5,0,0,1-.26-3l26.59-4.69.26,0a1.5,1.5,0,0,1,.26,3l-26.59,4.69Z"/><path class="cls-5" d="M116.2,63.84a1.5,1.5,0,0,1-.26-3l21.59-3.69.26,0a1.5,1.5,0,0,1,.26,3l-21.59,3.69Z"/><path class="cls-4" d="M142.45,135.69l-26.59,4.69a2,2,0,1,0,.69,3.94l26.59-4.69a2,2,0,1,0-.69-3.94Zm.52,3-26.59,4.69a1,1,0,1,1-.35-2l26.59-4.69a1,1,0,1,1,.35,2Z"/><path class="cls-4" d="M142.45,125.69l-26.59,4.69a2,2,0,1,0,.69,3.94l26.59-4.69a2,2,0,1,0-.69-3.94Zm.52,3-26.59,4.69a1,1,0,1,1-.35-2l26.59-4.69a1,1,0,1,1,.35,2Z"/><path class="cls-4" d="M142.45,115.69l-26.59,4.69a2,2,0,1,0,.69,3.94l26.59-4.69a2,2,0,1,0-.69-3.94Zm.52,3-26.59,4.69a1,1,0,0,1-.35-2l26.59-4.69a1,1,0,1,1,.35,2Z"/><path class="cls-4" d="M142.45,105.69l-26.59,4.69a2,2,0,1,0,.69,3.94l26.59-4.69a2,2,0,1,0-.69-3.94Zm.52,3-26.59,4.69a1,1,0,0,1-.35-2l26.59-4.69a1,1,0,1,1,.35,2Z"/><path class="cls-4" d="M142.45,95.69l-26.59,4.69a2,2,0,1,0,.69,3.94l26.59-4.69a2,2,0,1,0-.69-3.94Zm.52,3-26.59,4.69a1,1,0,0,1-.35-2l26.59-4.69a1,1,0,0,1,.35,2Z"/><path class="cls-4" d="M142.45,85.69l-26.59,4.69a2,2,0,1,0,.69,3.94l26.59-4.69a2,2,0,1,0-.69-3.94Zm.52,3-26.59,4.69a1,1,0,0,1-.35-2l26.59-4.69a1,1,0,0,1,.35,2Z"/><path class="cls-4" d="M142.45,75.69l-26.59,4.69a2,2,0,1,0,.69,3.94l26.59-4.69a2,2,0,1,0-.69-3.94Zm.52,3-26.59,4.69a1,1,0,0,1-.35-2l26.59-4.69a1,1,0,0,1,.35,2Z"/><path class="cls-4" d="M142.45,65.69l-26.59,4.69a2,2,0,1,0,.69,3.94l26.59-4.69a2,2,0,1,0-.69-3.94Zm.52,3-26.59,4.69a1,1,0,0,1-.35-2l26.59-4.69a1,1,0,0,1,.35,2Z"/><path class="cls-4" d="M137.45,56.69l-21.59,3.69a2,2,0,1,0,.69,3.94l21.59-3.69a2,2,0,1,0-.69-3.94Zm.52,3-21.59,3.69a1,1,0,0,1-.35-2l21.59-3.69a1,1,0,0,1,.35,2Z"/><polygon class="cls-2" points="135 95.98 135 94.45 128.28 93.26 119.64 94.78 130.72 96.74 135 95.98"/><polygon class="cls-2" points="135 85.98 135 84.45 128.28 83.26 119.64 84.78 130.72 86.74 135 85.98"/><polygon class="cls-2" points="135 75.98 135 74.45 128.28 73.26 119.64 74.78 130.72 76.74 135 75.98"/><polygon class="cls-2" points="135 65.98 135 64.45 128.28 63.26 119.64 64.78 130.72 66.74 135 65.98"/><polygon class="cls-2" points="135 105.98 135 104.45 128.28 103.26 119.64 104.78 130.72 106.74 135 105.98"/><polygon class="cls-2" points="135 134.45 128.28 133.26 119.64 134.78 130.72 136.74 135 135.98 135 134.45"/><polygon class="cls-2" points="135 115.98 135 114.45 128.28 113.26 119.64 114.78 130.72 116.74 135 115.98"/><polygon class="cls-2" points="135 125.98 135 124.45 128.78 123.35 119.79 124.93 130.72 126.74 135 125.98"/><polygon class="cls-4" points="118.7 125.13 129.28 126.99 132.16 126.48 121.58 124.62 118.7 125.13"/><polygon class="cls-4" points="127.34 123.6 135 124.95 135 123.94 130.22 123.1 127.34 123.6"/><polygon class="cls-4" points="126.84 113.52 135 114.95 135 113.94 129.72 113.01 126.84 113.52"/><polygon class="cls-4" points="135 133.94 129.72 133.01 126.84 133.51 135 134.95 135 133.94"/><polygon class="cls-4" points="135 63.94 129.72 63.01 126.84 63.52 135 64.95 135 63.94"/><polygon class="cls-4" points="126.84 73.52 135 74.95 135 73.94 129.72 73.01 126.84 73.52"/><polygon class="cls-4" points="126.84 93.52 135 94.95 135 93.94 129.72 93.01 126.84 93.52"/><polygon class="cls-4" points="126.84 103.52 135 104.95 135 103.94 129.72 103.01 126.84 103.52"/><polygon class="cls-4" points="126.84 83.52 135 84.95 135 83.94 129.72 83.01 126.84 83.52"/><polygon class="cls-4" points="132.16 116.48 121.08 114.53 118.2 115.04 129.28 116.99 132.16 116.48"/><polygon class="cls-4" points="132.16 66.48 121.08 64.53 118.2 65.04 129.28 66.99 132.16 66.48"/><polygon class="cls-4" points="132.16 106.48 121.08 104.53 118.2 105.04 129.28 106.99 132.16 106.48"/><polygon class="cls-4" points="118.2 135.04 129.28 136.99 132.16 136.49 121.08 134.53 118.2 135.04"/><polygon class="cls-4" points="132.16 76.48 121.08 74.53 118.2 75.04 129.28 76.99 132.16 76.48"/><polygon class="cls-4" points="132.16 96.48 121.08 94.53 118.2 95.04 129.28 96.99 132.16 96.48"/><polygon class="cls-4" points="132.16 86.48 121.08 84.53 118.2 85.04 129.28 86.99 132.16 86.48"/><polygon class="cls-2" points="139.5 65.19 139.5 61.28 136.5 61.81 136.5 65.72 139.5 65.19"/><polygon class="cls-2" points="139.5 75.19 139.5 71.28 136.5 71.81 136.5 75.72 139.5 75.19"/><polygon class="cls-2" points="139.5 85.19 139.5 81.28 136.5 81.81 136.5 85.72 139.5 85.19"/><polygon class="cls-2" points="139.5 95.19 139.5 91.28 136.5 91.81 136.5 95.72 139.5 95.19"/><polygon class="cls-2" points="139.5 105.19 139.5 101.28 136.5 101.81 136.5 105.72 139.5 105.19"/><polygon class="cls-2" points="139.5 115.19 139.5 111.28 136.5 111.81 136.5 115.72 139.5 115.19"/><polygon class="cls-2" points="139.5 125.19 139.5 121.28 136.5 121.81 136.5 125.72 139.5 125.19"/><polygon class="cls-2" points="136.5 141.81 136.5 155 139.5 155 139.5 141.28 136.5 141.81"/><polygon class="cls-2" points="139.5 135.19 139.5 131.28 136.5 131.81 136.5 135.72 139.5 135.19"/><polygon class="cls-4" points="137 121.72 136 121.9 136 125.81 137 125.63 137 121.72"/><polygon class="cls-4" points="137 111.72 136 111.9 136 115.81 137 115.63 137 111.72"/><polygon class="cls-4" points="140 111.19 139 111.37 139 115.28 140 115.1 140 111.19"/><polygon class="cls-4" points="136 85.81 137 85.63 137 81.72 136 81.9 136 85.81"/><polygon class="cls-4" points="139 85.28 140 85.1 140 81.19 139 81.37 139 85.28"/><polygon class="cls-4" points="139 105.28 140 105.1 140 101.19 139 101.37 139 105.28"/><polygon class="cls-4" points="136 95.81 137 95.63 137 91.72 136 91.9 136 95.81"/><polygon class="cls-4" points="139 95.28 140 95.1 140 91.19 139 91.37 139 95.28"/><polygon class="cls-4" points="137 101.72 136 101.9 136 105.81 137 105.63 137 101.72"/><polygon class="cls-4" points="140 131.19 139 131.37 139 135.28 140 135.1 140 131.19"/><polygon class="cls-4" points="139 75.28 140 75.1 140 71.19 139 71.37 139 75.28"/><polygon class="cls-4" points="140 121.19 139 121.37 139 125.28 140 125.1 140 121.19"/><polygon class="cls-4" points="137 131.72 136 131.9 136 135.81 137 135.63 137 131.72"/><polygon class="cls-4" points="136 75.81 137 75.63 137 71.72 136 71.9 136 75.81"/><polygon class="cls-4" points="136 61.84 136 61.9 136 63.8 136 65.81 137 65.63 137 63.62 137 61.72 137 61.67 136 61.84"/><polygon class="cls-4" points="140 155 140 141.19 139 141.37 139 155 140 155"/><polygon class="cls-4" points="137 155 137 141.72 136 141.9 136 155 137 155"/><path class="cls-4" d="M139,58.65v6.63l1-.18V58.65a2,2,0,0,0-2-2v1A1,1,0,0,1,139,58.65Z"/><path class="cls-5" d="M117.5,155V145l-.77.14a3,3,0,0,1-.52,0h0a3,3,0,0,1-1.7-.54V155Z"/><polygon class="cls-4" points="118 155 118 144.87 117 145.05 117 155 118 155"/><path class="cls-4" d="M115,155V142.3a1,1,0,0,1,1-1v-1a2,2,0,0,0-2,2V155Z"/><path class="cls-5" d="M211.51,72.25v-.5c4.06-.1,10.2-3.41,10.26-3.44l.24.44C221.74,68.89,215.68,72.15,211.51,72.25Z"/><path class="cls-5" d="M211.51,72.25v-.5a45.22,45.22,0,0,0,10.55-2l.15.48A45.76,45.76,0,0,1,211.51,72.25Z"/><rect class="cls-5" x="211.49" y="71.48" width="10.7" height="0.5" transform="translate(-3.25 10.68) rotate(-2.8)"/><path class="cls-5" d="M222.23,73.25a68.79,68.79,0,0,0-10.74-1v-.5a69.37,69.37,0,0,1,10.82,1Z"/><path class="cls-5" d="M222.13,74.89c-.06,0-6.35-2.5-10.64-2.64l0-.5c4.37.15,10.54,2.57,10.8,2.67Z"/><path class="cls-5" d="M220.28,77.17c.44-6.16-.5-7.95-1.85-10.66,1.84,1.8,3.2,1.83,3.3,2.09,0,.1.61,1.29.58,5.83C222.31,74.7,221.3,74.89,220.28,77.17Z"/><path class="cls-5" d="M207.27,72.25c-4.18-.1-10.23-3.36-10.49-3.5l.24-.44c.06,0,6.2,3.34,10.26,3.44Z"/><path class="cls-5" d="M207.27,72.25a45.76,45.76,0,0,1-10.7-2l.15-.48a45.22,45.22,0,0,0,10.55,2Z"/><rect class="cls-5" x="201.69" y="66.38" width="0.5" height="10.7" transform="translate(120.27 269.86) rotate(-87.15)"/><path class="cls-5" d="M196.55,73.25l-.1-.49a69.37,69.37,0,0,1,10.82-1v.5A68.79,68.79,0,0,0,196.55,73.25Z"/><path class="cls-5" d="M196.65,74.89l-.18-.46c.26-.1,6.43-2.53,10.8-2.67l0,.5C203,72.39,196.72,74.86,196.65,74.89Z"/><path class="cls-5" d="M198.86,77.58a20.5,20.5,0,0,1,2.46-12.07c-1.84,1.8-4.2,2.83-4.3,3.09,0,.1-.61,1.29-.58,5.83C196.43,74.7,197.84,75.3,198.86,77.58Z"/><circle class="cls-5" cx="202.04" cy="64.51" r="0.32"/><circle class="cls-5" cx="199.81" cy="79.56" r="0.38"/><circle class="cls-5" cx="200.77" cy="81.51" r="0.42"/><circle class="cls-5" cx="199.25" cy="78.42" r="0.29"/><circle class="cls-5" cx="218.02" cy="65.51" r="0.25"/><circle class="cls-5" cx="220.01" cy="77.56" r="0.29"/><circle class="cls-5" cx="219.08" cy="78.92" r="0.41"/><circle class="cls-4" cx="209.5" cy="72" r="2"/><rect class="cls-4" x="208.5" y="73" width="2" height="24"/><rect class="cls-4" x="210.5" y="71" width="3" height="2"/><rect class="cls-4" x="205.5" y="71" width="3" height="2"/><path class="cls-5" d="M196.5,87.26V95.5h26V87.63c-.7,0-1.37,0-2-.05-1.76-.14-2.56-3.07-2.56-3.07s-.44,3-2.73,2.87c-4.66-.22-7.85-.42-11.93-.38-1.37.07-2.26-1.81-2.26-1.81a2.89,2.89,0,0,1-2.46,2C197.91,87.19,197.22,87.21,196.5,87.26Z"/><circle class="cls-5" cx="217.95" cy="84.51" r="0.29"/><path class="cls-4" d="M223,72A13.48,13.48,0,0,0,196,72l0,26h27Zm-1,25H197V72.43l0-.39a12.46,12.46,0,0,1,13.6-12A12.72,12.72,0,0,1,222,72.38V97Z"/><polygon class="cls-4" points="225 95 194 95 178.44 110.54 194 126.07 194 140 225 140 225 126.07 240.56 110.54 225 95"/><polygon class="cls-4" points="243.83 104.15 232.07 92.39 229.18 93.43 242.79 107.04 243.83 104.15"/><polygon class="cls-4" points="244.23 103.75 232.47 91.99 233.51 89.1 247.12 102.71 244.23 103.75"/><polygon class="cls-4" points="248.56 99.42 236.8 87.67 233.91 88.7 247.52 102.31 248.56 99.42"/><polygon class="cls-4" points="248.96 99.02 237.2 87.26 238.24 84.38 251.84 97.98 248.96 99.02"/><polygon class="cls-4" points="239.49 108.48 227.74 96.73 228.77 93.84 242.38 107.45 239.49 108.48"/><polygon class="cls-4" points="253.29 94.69 241.53 82.93 238.65 83.96 252.26 97.57 253.29 94.69"/><rect class="cls-4" x="238.34" y="85" width="21.53" height="4" rx="1" ry="1" transform="translate(134.48 -150.66) rotate(45)"/><polygon class="cls-4" points="190.49 95.12 178.73 106.88 177.64 109.06 192.66 94.03 190.49 95.12"/><polygon class="cls-4" points="190.08 94.72 178.32 106.47 176.15 107.56 191.17 92.54 190.08 94.72"/><polygon class="cls-4" points="188.59 93.22 176.83 104.98 175.74 107.16 190.76 92.13 188.59 93.22"/><polygon class="cls-4" points="188.18 92.82 176.43 104.57 174.25 105.66 189.27 90.64 188.18 92.82"/><polygon class="cls-4" points="191.99 96.63 180.23 108.38 178.06 109.47 193.08 94.45 191.99 96.63"/><polygon class="cls-4" points="186.68 91.31 174.92 103.07 173.83 105.25 188.86 90.22 186.68 91.31"/><rect class="cls-4" x="168.47" y="93.29" width="20.85" height="4" rx="1" ry="1" transform="translate(-14.98 154.41) rotate(-45)"/><path class="cls-4" d="M243,140H176a3,3,0,0,0-3,3v45h73V143A3,3,0,0,0,243,140Z"/><line x1="185.27" y1="168.24" x2="201.87" y2="150.2"/><rect class="cls-1" x="181.31" y="158.72" width="24.52" height="1" transform="translate(-54.67 193.81) rotate(-47.37)"/><line class="cls-1" x1="188.65" y1="173.31" x2="211.69" y2="164.93"/><rect class="cls-1" x="187.91" y="168.62" width="24.52" height="1" transform="translate(-45.76 78.63) rotate(-19.99)"/><path class="cls-4" d="M191.08,170.36a3.5,3.5,0,1,1-3.5-3.5A3.5,3.5,0,0,1,191.08,170.36Z"/><path class="cls-1" d="M187.58,174.36a4,4,0,1,1,1.37-.24A4,4,0,0,1,187.58,174.36Zm0-7a3,3,0,1,0,3,3A3,3,0,0,0,187.58,167.36Z"/><path class="cls-4" d="M218.08,156.36a9.5,9.5,0,1,1-9.5-9.5A9.5,9.5,0,0,1,218.08,156.36Z"/><path class="cls-1" d="M208.58,166.36a10,10,0,1,1,3.42-.6A10,10,0,0,1,208.58,166.36Zm0-19a9,9,0,1,0,9,9A9,9,0,0,0,208.58,147.36Z"/><path class="cls-1" d="M241.5,178H224a.5.5,0,0,1,0-1h17.5a.5.5,0,0,1,0,1Z"/><path class="cls-1" d="M241.5,181H224a.5.5,0,0,1,0-1h17.5a.5.5,0,0,1,0,1Z"/><path class="cls-1" d="M241.5,184H224a.5.5,0,0,1,0-1h17.5a.5.5,0,0,1,0,1Z"/><path class="cls-5" d="M344.5,60.68a10.56,10.56,0,0,1-2.42,2h7.6v-2Z"/><path class="cls-5" d="M336.69,44.69a9,9,0,0,0-7.1,14.5h2.76l-.4-.37a7,7,0,1,1,4.74,1.87H321.63v2h15.06a9,9,0,0,0,0-18Z"/><path class="cls-4" d="M342.84,62.18h6.85v1h-8.56A10.49,10.49,0,0,0,342.84,62.18Zm2.08-2a10.59,10.59,0,0,1-.88,1h5.65v-1Z"/><path class="cls-4" d="M336.69,61.19a7.53,7.53,0,1,0-5.08-2h1.63a6.49,6.49,0,1,1,3.45,1H322.13v1Z"/><path class="cls-4" d="M336.69,44.19a9.49,9.49,0,0,0-7.74,15h1.27a8.49,8.49,0,1,1,6.47,3H322.13v1h14.56a9.5,9.5,0,0,0,0-19Z"/><rect class="cls-4" x="270" y="35" width="54" height="153"/><rect class="cls-6" x="281" y="95" width="3" height="3"/><rect class="cls-6" x="291" y="95" width="3" height="3"/><rect class="cls-6" x="301" y="95" width="3" height="3"/><rect class="cls-6" x="311" y="95" width="3" height="3"/><rect class="cls-6" x="281" y="103" width="3" height="3"/><rect class="cls-6" x="291" y="103" width="3" height="3"/><rect class="cls-6" x="301" y="103" width="3" height="3"/><rect class="cls-6" x="311" y="103" width="3" height="3"/><rect class="cls-6" x="281" y="111" width="3" height="3"/><rect class="cls-6" x="291" y="111" width="3" height="3"/><rect class="cls-6" x="301" y="111" width="3" height="3"/><rect class="cls-6" x="311" y="111" width="3" height="3"/><rect class="cls-5" x="284" y="121" width="27" height="2"/><path class="cls-1" d="M308.89,181h-23s4-59,0-59h23C313.89,122,308.89,181,308.89,181Z"/><path class="cls-2" d="M303.83,181h-1c0-.4.09-2,.14-2.89-11,0-11-1-11-1.5,0-.83,1-.94,5.89-1.13,2.67-.1,7.65-.29,8.13-1-.27-.47-3.68-.89-5.51-1.11-3.73-.46-5.52-.72-5.51-1.82s1.85-1.4,6-2.1c2.08-.35,7-1.16,7-1.91-.47-.64-5.82-.69-9-.72-6-.05-8-.16-8-1.27s1.94-1.33,7.08-1.53a31.17,31.17,0,0,0,5.78-.52c-.79-.46-3.72-.91-5.54-1.19-4-.61-5.32-.87-5.32-1.76s1.11-1.17,7.42-2.14c1.54-.24,3.47-.54,4.66-.8-.7-.08-1.63-.13-2.39-.18-3.66-.22-5.73-.4-5.75-1.57a.87.87,0,0,1,.26-.64c.55-.56,1.89-.61,4-.62a19.62,19.62,0,0,0,2.48-.11,49.74,49.74,0,0,0-5.55-1.82c-5.64-1.65-7.17-2.22-7.15-3.13s1.67-1.19,8.19-1.53c2.2-.12,5.07-.27,6.33-.51a26.49,26.49,0,0,0-2.87-.37c-2.7-.25-4.64-.44-4.64-1.57s1.51-1.88,3.1-2.8a15.93,15.93,0,0,0,1.69-1.06,56.89,56.89,0,0,0-5.64-.94c-6.52-.9-8.16-1.25-8.16-2.21s1.47-1.36,11.8-2.62c1.47-.18,3.06-.37,4.14-.53-.65-.21-1.45-.46-2.12-.66-4.07-1.24-4.75-1.54-4.82-2.12-.09-.78,1-1,3.31-1.52.62-.13,1.43-.31,2-.48-1.05-.22-2.88-.47-4.21-.65-4.5-.6-5.15-.74-5.13-1.43s.78-.85,4.63-1.54c.85-.15,1.89-.34,2.63-.5l-.42-.13c-1.46-.44-2.84-.85-2.84-1.81s1.33-1,2.62-1h.33c-.88-.11-2-.36-2-1.55l1,0c0,.38.44.49,1.41.6.72.09,1.63.19,1.67,1a.74.74,0,0,1-.2.55c-.36.38-1.06.41-2.17.43a7.85,7.85,0,0,0-1.57.12,9.27,9.27,0,0,0,2.06.78c1.18.35,1.83.55,1.87,1.11s-.48.8-4.2,1.47c-.84.15-1.94.35-2.77.53.92.16,2.19.33,3.23.47,5,.67,5.73.87,5.74,1.57s-1,1-3.47,1.52c-.65.14-1.52.33-2.09.5.85.35,2.49.85,3.67,1.21,3.46,1.05,3.9,1.22,3.89,1.78s0,.62-6.08,1.36c-3.42.42-8.88,1.08-10.55,1.64a57.63,57.63,0,0,0,6.93,1.2c5.91.81,6.72,1,6.7,1.8s-.84,1.16-2.4,2.05c-.84.48-2.6,1.49-2.6,1.93a16.12,16.12,0,0,0,3.74.58c2.58.24,4.29.4,4.26,1.44s-1.49,1.11-7.75,1.44a52.52,52.52,0,0,0-7,.63,45.75,45.75,0,0,0,6.18,2.08c5.25,1.53,6.58,2,6.57,2.85,0,1-1.51,1-3.77,1a13.59,13.59,0,0,0-3.18.24,20.77,20.77,0,0,0,4.71.59c3.15.19,4.24.3,4.25,1.12s-.78,1-6.43,1.85a57.2,57.2,0,0,0-6.19,1.16,38.92,38.92,0,0,0,4.09.77c4.67.72,6.56,1.13,6.53,2.25s-1.81,1.26-6.88,1.46a36.23,36.23,0,0,0-5.8.49,48.71,48.71,0,0,0,6.67.31c5.46,0,8.83.14,9.73,1.07a.92.92,0,0,1,.27.67c0,1.49-3,2.06-7.8,2.87a26.69,26.69,0,0,0-5.08,1.12,21.85,21.85,0,0,0,4.51.82c4,.48,6.37.85,6.37,2.18s-2.77,1.63-9.07,1.87c-1.26,0-2.7.1-3.74.19a85.39,85.39,0,0,0,9.31.43.5.5,0,0,1,.5.53S303.83,180.49,303.83,181Z"/><rect class="cls-2" x="283" y="56" width="29" height="29" rx="3" ry="3"/><path class="cls-4" d="M287.24,79.86h0c-.87,0-1-1.15-1.44-6.38-.22-2.88-.63-8.25-1.4-8.62v-1h0c1.48,0,1.87,3.08,2.36,9.54.13,1.77.29,3.88.5,4.94a28.38,28.38,0,0,0,.33-2.92c.24-3,.43-4.75,1.52-4.75s1.71,1.59,2.4,3.27a16.78,16.78,0,0,0,.74,1.65c.29-1,.64-3.6.91-5.56.9-6.52,1.25-8.16,2.21-8.16s1.36,1.47,2.62,11.8c.18,1.47.37,3.06.53,4.14.21-.65.46-1.45.66-2.12,1.24-4.07,1.54-4.75,2.13-4.82.76-.09,1,1,1.52,3.31.13.62.31,1.43.48,2,.22-1.05.47-2.88.65-4.21.6-4.5.7-5.12,1.43-5.13s.85.78,1.54,4.63c.13.73.29,1.6.43,2.3v-.06c.26-1.43.52-2.92,1.53-2.92s1,1.12,1,2.21c0,.64.09,1.84.43,1.84h0v1h0c-1.29,0-1.37-1.61-1.42-2.79a8,8,0,0,0-.11-1.15,11.28,11.28,0,0,0-.47,2c-.22,1.23-.34,1.91-.95,2s-.8-.48-1.47-4.2c-.15-.84-.35-1.94-.53-2.77-.16.92-.33,2.19-.47,3.23-.67,5-.87,5.73-1.57,5.74h0c-.73,0-1-1-1.51-3.47-.14-.65-.33-1.52-.5-2.09-.35.85-.85,2.49-1.21,3.67-1,3.43-1.22,3.89-1.77,3.89h0c-.6,0-.62,0-1.36-6.08-.42-3.42-1.08-8.88-1.64-10.55a57.66,57.66,0,0,0-1.2,6.93c-.82,5.91-1,6.76-1.8,6.7s-1.15-1-1.77-2.54c-.31-.75-1-2.46-1.42-2.63a14.32,14.32,0,0,0-.58,3.82C288.4,78.12,288.26,79.86,287.24,79.86Z"/><path class="cls-5" d="M349.28,61.68c1.19.08,2.88.32,3.33,1.64a2.82,2.82,0,0,1-.22,2.23,1.27,1.27,0,0,1-1.92,0,1.81,1.81,0,0,1-.22-1.68,2,2,0,0,0,0-1,1.8,1.8,0,0,0-.45-.7C349.7,62,349.46,61.69,349.28,61.68Z"/></g></svg>