<svg xmlns="http://www.w3.org/2000/svg" xmlns:xlink="http://www.w3.org/1999/xlink" viewBox="0 0 480 200"><defs><style>.cls-1{fill:#362524;}.cls-2{fill:url(#linear-gradient);}.cls-3{fill:#ede9cf;}.cls-10,.cls-11,.cls-12,.cls-13,.cls-14,.cls-4,.cls-5,.cls-6,.cls-7,.cls-8,.cls-9{fill:none;stroke:#bcab99;stroke-miterlimit:10;}.cls-10,.cls-11,.cls-12,.cls-13,.cls-14,.cls-5,.cls-6,.cls-7,.cls-8,.cls-9{stroke-linecap:round;}.cls-6{stroke-dasharray:1.01 2.02;}.cls-7{stroke-dasharray:1.01 2.01;}.cls-10,.cls-11,.cls-12,.cls-8,.cls-9{stroke-width:2px;}.cls-9{stroke-dasharray:3.84 3.84;}.cls-10{stroke-dasharray:3.84 3.84;}.cls-11{stroke-dasharray:3.96 3.96;}.cls-12{stroke-dasharray:4 4;}.cls-13{stroke-dasharray:0.5 1;}.cls-14{stroke-dasharray:0.51 1.01;}.cls-15{fill:#701313;}.cls-16{fill:#492a2a;}</style><linearGradient id="linear-gradient" x1="239.7" y1="0.25" x2="239.7" y2="199.88" gradientUnits="userSpaceOnUse"><stop offset="0" stop-color="#7a5452"/><stop offset="0.23" stop-color="#704d4b"/><stop offset="0.62" stop-color="#553b39"/><stop offset="1" stop-color="#362524"/></linearGradient></defs><title>placeholder</title><g id="Background"><rect class="cls-1" width="480" height="200"/><polygon class="cls-2" points="422.73 200 56.66 200 116.66 0 362.73 0 422.73 200"/></g><g id="Layer_1" data-name="Layer 1"><rect class="cls-3" x="199.69" y="36.88" width="81.61" height="66.24" transform="translate(310.5 -170.5) rotate(90)"/><rect class="cls-4" x="193.19" y="15" width="94.62" height="110"/><polyline class="cls-5" points="195.69 123 195.19 123 195.19 122.5"/><line class="cls-6" x1="195.19" y1="120.48" x2="195.19" y2="18.51"/><polyline class="cls-5" points="195.19 17.5 195.19 17 195.69 17"/><line class="cls-7" x1="197.7" y1="17" x2="284.3" y2="17"/><polyline class="cls-5" points="285.31 17 285.81 17 285.81 17.5"/><line class="cls-6" x1="285.81" y1="19.52" x2="285.81" y2="121.49"/><polyline class="cls-5" points="285.81 122.5 285.81 123 285.31 123"/><line class="cls-7" x1="283.3" y1="123" x2="196.69" y2="123"/><rect class="cls-4" x="188.5" y="25.69" width="104" height="88.62" transform="translate(310.5 -170.5) rotate(90)"/><polyline class="cls-8" points="200.19 120 198.19 120 198.19 118"/><line class="cls-9" x1="198.19" y1="114.16" x2="198.19" y2="23.92"/><polyline class="cls-8" points="198.19 22 198.19 20 200.19 20"/><line class="cls-10" x1="204.03" y1="20" x2="278.89" y2="20"/><polyline class="cls-8" points="280.81 20 282.81 20 282.81 22"/><line class="cls-9" x1="282.81" y1="25.84" x2="282.81" y2="116.08"/><polyline class="cls-8" points="282.81 118 282.81 120 280.81 120"/><line class="cls-10" x1="276.97" y1="120" x2="202.11" y2="120"/><rect class="cls-4" x="191.5" y="28.69" width="98" height="82.62" transform="translate(310.5 -170.5) rotate(90)"/><polyline class="cls-8" points="202.5 117.5 200.5 117.5 200.5 115.5"/><line class="cls-11" x1="200.5" y1="111.54" x2="200.5" y2="26.48"/><polyline class="cls-8" points="200.5 24.5 200.5 22.5 202.5 22.5"/><line class="cls-12" x1="206.5" y1="22.5" x2="276.5" y2="22.5"/><polyline class="cls-8" points="278.5 22.5 280.5 22.5 280.5 24.5"/><line class="cls-11" x1="280.5" y1="28.46" x2="280.5" y2="113.52"/><polyline class="cls-8" points="280.5 115.5 280.5 117.5 278.5 117.5"/><line class="cls-12" x1="274.5" y1="117.5" x2="204.5" y2="117.5"/><rect class="cls-5" x="195" y="32" width="91" height="76" transform="translate(310.5 -170.5) rotate(90)"/><polyline class="cls-5" points="206.63 111.81 206.38 111.81 206.38 111.56"/><line class="cls-13" x1="206.38" y1="110.56" x2="206.38" y2="28.94"/><polyline class="cls-5" points="206.38 28.44 206.38 28.19 206.63 28.19"/><line class="cls-14" x1="207.64" y1="28.19" x2="273.86" y2="28.19"/><polyline class="cls-5" points="274.37 28.19 274.62 28.19 274.62 28.44"/><line class="cls-13" x1="274.62" y1="29.44" x2="274.62" y2="111.06"/><polyline class="cls-5" points="274.62 111.56 274.62 111.81 274.37 111.81"/><line class="cls-14" x1="273.36" y1="111.81" x2="207.14" y2="111.81"/><rect class="cls-4" x="196.69" y="33.88" width="87.61" height="72.24" transform="translate(310.5 -170.5) rotate(90)"/><rect class="cls-4" x="199.69" y="36.88" width="81.61" height="66.24" transform="translate(310.5 -170.5) rotate(90)"/><path class="cls-15" d="M226,51.63a.92.92,0,0,1-1,.91.92.92,0,1,1,0-1.83A.91.91,0,0,1,226,51.63Zm-1.88,7.5V53.26h1.82v5.87Z"/><path class="cls-15" d="M227.37,55.13c0-.73,0-1.36,0-1.87h1.54l.08.79h0a2,2,0,0,1,1.77-.92,1.66,1.66,0,0,1,1.61,1h0a2.63,2.63,0,0,1,.76-.71,2.11,2.11,0,0,1,1.12-.29c1.13,0,2,.79,2,2.54v3.45h-1.77V55.93c0-.85-.28-1.34-.86-1.34a.89.89,0,0,0-.84.64,1.53,1.53,0,0,0-.07.47v3.43h-1.78V55.84c0-.74-.26-1.25-.84-1.25a.93.93,0,0,0-.85.66,1.21,1.21,0,0,0-.07.46v3.42h-1.78Z"/><path class="cls-15" d="M241,59.12l-.11-.59h0a2.11,2.11,0,0,1-1.68.72,1.8,1.8,0,0,1-1.9-1.8c0-1.52,1.37-2.25,3.44-2.24v-.08c0-.31-.17-.76-1.07-.76a3.29,3.29,0,0,0-1.62.44l-.34-1.18a4.85,4.85,0,0,1,2.28-.52,2.28,2.28,0,0,1,2.58,2.53v2a9,9,0,0,0,.08,1.43Zm-.22-2.77c-1,0-1.7.22-1.7.92a.66.66,0,0,0,.72.7,1,1,0,0,0,.95-.67,1.31,1.31,0,0,0,0-.31Z"/><path class="cls-15" d="M249.63,53.26c0,.37,0,.86,0,1.74v3.27a3.37,3.37,0,0,1-.89,2.64,3.62,3.62,0,0,1-2.39.72,4.57,4.57,0,0,1-2.11-.46l.36-1.38a3.6,3.6,0,0,0,1.7.44,1.4,1.4,0,0,0,1.52-1.55v-.38h0a1.88,1.88,0,0,1-1.58.77,2.58,2.58,0,0,1-2.48-2.87,2.8,2.8,0,0,1,2.66-3.08A1.77,1.77,0,0,1,248,54h0l.06-.7Zm-1.87,2.39a1.42,1.42,0,0,0,0-.34,1,1,0,0,0-1-.8c-.66,0-1.2.6-1.2,1.67,0,.88.43,1.56,1.2,1.56a1,1,0,0,0,1-.74,1.56,1.56,0,0,0,.06-.48Z"/><path class="cls-15" d="M252.45,56.77c.06.75.8,1.12,1.66,1.12a5.16,5.16,0,0,0,1.62-.24l.24,1.24a5.78,5.78,0,0,1-2.12.36,2.81,2.81,0,0,1-3.13-3,2.94,2.94,0,0,1,3-3.13c1.9,0,2.61,1.48,2.61,2.93a4.3,4.3,0,0,1-.06.72Zm2.15-1.25a1.06,1.06,0,0,0-1-1.19,1.2,1.2,0,0,0-1.13,1.19Z"/><path class="cls-15" d="M225.2,73.38a4.46,4.46,0,0,1-1.63.26,2.84,2.84,0,0,1-3.11-3,3.06,3.06,0,0,1,3.36-3.12,4.24,4.24,0,0,1,1.39.23l-.29,1.36a2.48,2.48,0,0,0-1-.18,1.64,1.64,0,0,0,0,3.29,2.8,2.8,0,0,0,1-.18Z"/><path class="cls-15" d="M231.87,70.52a2.94,2.94,0,0,1-3.09,3.13,2.87,2.87,0,0,1-3-3,2.93,2.93,0,0,1,3.13-3.11A2.85,2.85,0,0,1,231.87,70.52Zm-4.25.06c0,1,.42,1.76,1.2,1.76s1.16-.71,1.16-1.76c0-.87-.34-1.76-1.16-1.76S227.63,69.72,227.63,70.58Z"/><path class="cls-15" d="M233,69.53c0-.73,0-1.36,0-1.87h1.54l.08.79h0a2,2,0,0,1,1.77-.92,1.66,1.66,0,0,1,1.61,1h0a2.63,2.63,0,0,1,.76-.71,2.12,2.12,0,0,1,1.12-.29c1.13,0,2,.79,2,2.54v3.45h-1.78V70.33c0-.85-.28-1.34-.86-1.34a.89.89,0,0,0-.84.64,1.53,1.53,0,0,0-.07.47v3.43h-1.77V70.24c0-.74-.26-1.25-.84-1.25a.93.93,0,0,0-.85.66,1.21,1.21,0,0,0-.07.46v3.42H233Z"/><path class="cls-15" d="M245.21,66a.92.92,0,0,1-1,.91.92.92,0,1,1,0-1.83A.92.92,0,0,1,245.21,66Zm-1.88,7.5V67.66h1.82v5.86Z"/><path class="cls-15" d="M246.61,69.53c0-.73,0-1.36,0-1.87h1.58l.08.8h0a2.15,2.15,0,0,1,1.81-.94c1.2,0,2.1.79,2.1,2.52v3.48h-1.82V70.27c0-.76-.26-1.27-.92-1.27a1,1,0,0,0-.92.68,1.26,1.26,0,0,0-.07.46v3.38h-1.82Z"/><path class="cls-15" d="M259.24,67.66c0,.37,0,.86,0,1.74v3.27a3.37,3.37,0,0,1-.89,2.64,3.62,3.62,0,0,1-2.39.72,4.58,4.58,0,0,1-2.11-.46l.36-1.38a3.61,3.61,0,0,0,1.7.44,1.4,1.4,0,0,0,1.52-1.55v-.38h0a1.87,1.87,0,0,1-1.58.77,2.58,2.58,0,0,1-2.48-2.87A2.81,2.81,0,0,1,256,67.53a1.77,1.77,0,0,1,1.61.83h0l.06-.7ZM257.37,70a1.47,1.47,0,0,0,0-.34,1,1,0,0,0-1-.8c-.66,0-1.2.6-1.2,1.67,0,.88.43,1.56,1.2,1.56a1,1,0,0,0,1-.74,1.52,1.52,0,0,0,.06-.48Z"/><path class="cls-15" d="M227.66,86.33a3.56,3.56,0,0,0,1.57.44c.55,0,.78-.19.78-.49s-.18-.44-.86-.67c-1.21-.41-1.68-1.07-1.67-1.76,0-1.09.94-1.92,2.39-1.92a3.94,3.94,0,0,1,1.66.33l-.32,1.26a2.88,2.88,0,0,0-1.27-.34c-.44,0-.7.18-.7.48s.23.42.95.67c1.12.38,1.58.95,1.6,1.81,0,1.09-.86,1.89-2.54,1.89a4.14,4.14,0,0,1-1.89-.41Z"/><path class="cls-15" d="M238.67,84.92a2.94,2.94,0,0,1-3.09,3.13,2.87,2.87,0,0,1-3-3,2.93,2.93,0,0,1,3.13-3.11A2.85,2.85,0,0,1,238.67,84.92Zm-4.25.06c0,1,.42,1.76,1.2,1.76s1.16-.71,1.16-1.76c0-.87-.34-1.76-1.16-1.76S234.42,84.12,234.42,85Z"/><path class="cls-15" d="M245.63,84.92a2.94,2.94,0,0,1-3.09,3.13,2.87,2.87,0,0,1-3-3,2.93,2.93,0,0,1,3.13-3.11A2.85,2.85,0,0,1,245.63,84.92Zm-4.25.06c0,1,.42,1.76,1.2,1.76s1.16-.71,1.16-1.76c0-.87-.34-1.76-1.16-1.76S241.38,84.12,241.38,85Z"/><path class="cls-15" d="M246.76,83.93c0-.73,0-1.36,0-1.87h1.58l.08.8h0a2.15,2.15,0,0,1,1.81-.94c1.2,0,2.1.79,2.1,2.52v3.48H250.5V84.67c0-.76-.26-1.27-.92-1.27a1,1,0,0,0-.92.68,1.24,1.24,0,0,0-.07.46v3.38h-1.82Z"/><path class="cls-16" d="M316.35,129.65a2.11,2.11,0,0,0-1.39-.59h0a1.82,1.82,0,0,0-1.24.52l-2.07.79a2,2,0,0,0-2.35-.69c-50.72,20.08-91,20-139.18-.15a2,2,0,0,0-2.37.65l-1.5-.61a2.36,2.36,0,0,0-1.86-.4,1.24,1.24,0,0,0-.76.61.51.51,0,0,0,.23.68.49.49,0,0,0,.66-.22c.09-.15.45-.27,1.28.22l1.57.64a2,2,0,0,0,1.2,2.12c24.67,10.34,47.33,15.51,70.32,15.51s46.06-5.11,71.89-15.34a2,2,0,0,0,1.24-2.1l2.16-.83.17-.11a.86.86,0,0,1,1.29,0,.5.5,0,0,0,.71-.71Z"/><path class="cls-1" d="M332.5,183h-.59a1.48,1.48,0,0,0,.09-.5,1.5,1.5,0,0,0-1.5-1.5h-.59a1.48,1.48,0,0,0,.09-.5,1.5,1.5,0,0,0-1.5-1.5H323V132h2a1,1,0,0,0,0-2h-2v-2a5,5,0,1,0-6,0v2h-2a1,1,0,0,0,0,2h2v47h-5.5a1.5,1.5,0,0,0-1.5,1.5,1.48,1.48,0,0,0,.09.5h-.59a1.5,1.5,0,0,0-1.5,1.5,1.48,1.48,0,0,0,.09.5h-.59a1.5,1.5,0,0,0-1.5,1.5v1h28v-1A1.5,1.5,0,0,0,332.5,183Z"/><path class="cls-1" d="M172.5,183h-.59a1.48,1.48,0,0,0,.09-.5,1.5,1.5,0,0,0-1.5-1.5h-.59a1.48,1.48,0,0,0,.09-.5,1.5,1.5,0,0,0-1.5-1.5H163V132h2a1,1,0,0,0,0-2h-2v-2a5,5,0,1,0-6,0v2h-2a1,1,0,0,0,0,2h2v47h-5.5a1.5,1.5,0,0,0-1.5,1.5,1.48,1.48,0,0,0,.09.5h-.59a1.5,1.5,0,0,0-1.5,1.5,1.48,1.48,0,0,0,.09.5h-.59a1.5,1.5,0,0,0-1.5,1.5v1h28v-1A1.5,1.5,0,0,0,172.5,183Z"/><path class="cls-1" d="M381.45,96.38H353.31c-15,0-9.67,45.73-9.67,45.73a4.4,4.4,0,0,0,8.79,0s-3.52-36.94.88-36.94v82.67h0a6.59,6.59,0,0,0,13.15,0h0V142.11h1.76v45.73h0a6.59,6.59,0,0,0,13.15,0h0V105.18c4.4,0,.88,36.94.88,36.94a4.4,4.4,0,0,0,8.79,0S396.4,96.38,381.45,96.38Z"/><path class="cls-1" d="M356.09,81c0,.08,0,.16,0,.25a11.3,11.3,0,1,0,.41-3h-.12a1.38,1.38,0,0,0-.29,2.72Z"/></g></svg>