<svg xmlns="http://www.w3.org/2000/svg" viewBox="0 0 480 200"><defs><style>.cls-1{fill:#f2ebdf;}.cls-2{fill:#a6775b;}.cls-3,.cls-4,.cls-6{fill:none;}.cls-3,.cls-4{stroke:#a6775b;stroke-linecap:round;stroke-linejoin:round;}.cls-3{stroke-width:10px;}.cls-4{stroke-width:15px;}.cls-5{fill:#d99789;}.cls-6{stroke:#2994f2;}.cls-6,.cls-9{stroke-miterlimit:10;}.cls-7,.cls-9{fill:#162440;}.cls-8{fill:#f2ecce;}.cls-9{stroke:#f2ebdf;}</style></defs><title>chemical_sensing_system</title><g id="Background"><rect class="cls-1" width="480" height="200"/></g><g id="Layer_1" data-name="Layer 1"><g id="Person_Poseable" data-name="Person Poseable"><rect class="cls-2" x="193" y="85" width="32" height="48"/><path class="cls-2" d="M208.93,80.61a12.8,12.8,0,1,1,12.83-12.82A12.79,12.79,0,0,1,208.93,80.61Z"/><path class="cls-3" d="M225,90c15.75,8,8,43,8,43"/><line class="cls-4" x1="200.5" y1="129.63" x2="200.5" y2="180.38"/><line class="cls-4" x1="217.5" y1="129.63" x2="217.5" y2="180.38"/><path class="cls-3" d="M193.91,90c-15.75,8-23,27-23,27"/></g><g id="Bag"><rect class="cls-5" x="155" y="136.5" width="32" height="53" rx="3.89" ry="3.89"/><rect class="cls-5" x="186.5" y="182.5" width="2" height="8" rx="1" ry="1"/><rect class="cls-5" x="154.5" y="182.5" width="2" height="8" rx="1" ry="1"/><rect class="cls-5" x="164" y="119" width="2" height="17"/><rect class="cls-5" x="176" y="119" width="2" height="17"/><rect class="cls-5" x="161.5" y="115.5" width="19" height="3" rx="1" ry="1"/></g><path class="cls-6" d="M134.5,156.5s-27-32-32-37-7,7-7,7v6"/><g id="Policeman"><rect class="cls-2" x="44" y="81" width="32" height="52"/><path class="cls-2" d="M59.93,76.61A12.8,12.8,0,1,1,72.76,63.79,12.79,12.79,0,0,1,59.93,76.61Z"/><ellipse class="cls-2" cx="72" cy="66.75" rx="1.5" ry="1.25"/><path class="cls-3" d="M76,86c5,16,23,37,23,37"/><line class="cls-4" x1="51.5" y1="129.63" x2="51.5" y2="184.38"/><line class="cls-4" x1="68.5" y1="129.63" x2="68.5" y2="184.38"/><path class="cls-3" d="M44.91,86c-15.75,8-8,47-8,47"/><g id="Police_Hat" data-name="Police Hat"><path class="cls-7" d="M67,45c-3,3-20,5-20,5l2,3v4H71V53l2-3S68,47,67,45Z"/><path class="cls-8" d="M68.25,51h-1.5c-.41,0-.75.45-.75,1,0,0,0,1.65,0,1.69.07,1,.71,1.81,1.49,1.81s1.41-.8,1.49-1.81c0,0,0-1.69,0-1.69C69,51.45,68.66,51,68.25,51Z"/><path class="cls-7" d="M71,57c0-.55-4.92-1-11-1s-11,.45-11,1,16.92,2,23,2S71,57.55,71,57Z"/></g></g><path class="cls-6" d="M210.5,157.5s48-36,52-36c7,0,7,3,8,6a29.18,29.18,0,0,1,1,7.5"/><g id="Policeman-2" data-name="Policeman"><rect class="cls-2" x="295.91" y="81" width="32" height="52" transform="translate(623.81 214) rotate(-180)"/><path class="cls-2" d="M312,76.61a12.8,12.8,0,1,0-12.83-12.82A12.79,12.79,0,0,0,312,76.61Z"/><ellipse class="cls-2" cx="299.91" cy="66.75" rx="1.5" ry="1.25"/><path class="cls-3" d="M295.91,86c-4.91,16-29,38-29,38"/><line class="cls-4" x1="320.41" y1="129.63" x2="320.41" y2="184.38"/><line class="cls-4" x1="303.41" y1="129.62" x2="303.41" y2="184.37"/><path class="cls-3" d="M327,86c15.75,8,8,47,8,47"/><g id="Police_Hat-2" data-name="Police Hat"><path class="cls-7" d="M304.78,45c3,3,20,5,20,5l-2,3v4h-22V53l-2-3S303.73,47,304.78,45Z"/><path class="cls-1" d="M303.48,51H305c.41,0,.75.45.75,1,0,0,0,1.65,0,1.69-.07,1-.71,1.81-1.49,1.81s-1.41-.8-1.49-1.81c0,0,0-1.69,0-1.69C302.73,51.45,303.07,51,303.48,51Z"/><path class="cls-7" d="M300.73,57c0-.55,4.92-1,11-1s11,.45,11,1-16.92,2-23,2S300.73,57.55,300.73,57Z"/></g></g><g id="Robodog"><path class="cls-7" d="M233.4,159a7.46,7.46,0,0,0-3.84.72,18.28,18.28,0,0,1-2.94,1.47,10.13,10.13,0,0,1-3.5.33,12,12,0,0,1-4.91-1.85c-3.12-1.72-6.56-2.37-9.76-.49a8.93,8.93,0,0,0,4.09,16.68c2.49.17,4.35-1,6.47-2.15a9.83,9.83,0,0,1,6.6-1c3.52.66,6.45,3.15,10.17,1.78a8,8,0,0,0,2.94-13.11A8.32,8.32,0,0,0,233.4,159Z"/><rect class="cls-7" x="203.12" y="156.01" width="6.66" height="8.88" transform="translate(-52.99 192.98) rotate(-45)"/><rect class="cls-7" x="189.8" y="149.35" width="17.77" height="11.1" rx="5.55" ry="5.55" transform="translate(-51.34 185.86) rotate(-45)"/><path class="cls-9" d="M200.24,149.4l-.29,9.28a1.35,1.35,0,0,0,1.79,1.31l6.32-2.22a1.35,1.35,0,0,0,.58-2.15l-6-7.06A1.35,1.35,0,0,0,200.24,149.4Z"/><path class="cls-7" d="M236.14,161.14l3.41,2.41a.3.3,0,0,0,.51-.18c.4-4.92-2.82-10.64-4.45-12.66a.3.3,0,0,0-.5.31c1,2.06,2.09,7.28,1,9.79A.29.29,0,0,0,236.14,161.14Z"/><g id="FrontLeg"><polygon class="cls-7" points="211 181 207 181 206 173 212 173 211 181"/><polygon class="cls-7" points="209.94 188.56 205.13 187.17 207.08 180.44 210.92 181.56 209.94 188.56"/><path class="cls-7" d="M203.5,191h4a2.51,2.51,0,0,0,2.5-2.5h0a2.51,2.51,0,0,0-2.5-2.5l-4,1a2.51,2.51,0,0,0-2.5,2.5h0C201,190.88,202.12,191,203.5,191Z"/><circle class="cls-7" cx="209" cy="171" r="4.5"/><path class="cls-1" d="M209,167a4,4,0,1,1-4,4,4,4,0,0,1,4-4m0-1a5,5,0,1,0,5,5,5,5,0,0,0-5-5Z"/><circle class="cls-7" cx="209" cy="181" r="2.5"/><path class="cls-1" d="M209,179a2,2,0,1,1-2,2,2,2,0,0,1,2-2m0-1a3,3,0,1,0,3,3,3,3,0,0,0-3-3Z"/></g><g id="BackLeg"><polygon class="cls-7" points="239.09 180.65 235.13 181.2 233.03 173.42 238.97 172.58 239.09 180.65"/><polygon class="cls-7" points="240.43 187.8 235.44 188.11 235 181.12 239 180.88 240.43 187.8"/><path class="cls-7" d="M234,191h4a2.51,2.51,0,0,0,2.5-2.5h0A2.51,2.51,0,0,0,238,186l-4,1a2.51,2.51,0,0,0-2.5,2.5h0C231.5,190.88,232.62,191,234,191Z"/><circle class="cls-7" cx="236" cy="171" r="4.5"/><path class="cls-1" d="M236,167a4,4,0,1,1-4,4,4,4,0,0,1,4-4m0-1a5,5,0,1,0,5,5,5,5,0,0,0-5-5Z"/><circle class="cls-7" cx="237" cy="181" r="2.5"/><path class="cls-1" d="M237,179a2,2,0,1,1-2,2,2,2,0,0,1,2-2m0-1a3,3,0,1,0,3,3,3,3,0,0,0-3-3Z"/></g><circle class="cls-7" cx="191.5" cy="158.5" r="1.5"/></g><g id="Robodog_front"><ellipse class="cls-7" cx="136" cy="167" rx="7" ry="9"/><g id="Head"><rect class="cls-7" x="134.41" y="149.35" width="17.77" height="11.1" rx="5.55" ry="5.55" transform="translate(135.09 365.76) rotate(-135)"/><path class="cls-9" d="M141.73,149.4l.29,9.28a1.35,1.35,0,0,1-1.79,1.31l-6.32-2.22a1.35,1.35,0,0,1-.58-2.15l6-7.06A1.35,1.35,0,0,1,141.73,149.4Z"/><circle class="cls-7" cx="150.47" cy="158.5" r="1.5"/></g><g id="Leg"><rect class="cls-7" x="141.5" y="167" width="3" height="23"/><rect class="cls-9" x="141.5" y="167" width="3" height="8"/><rect class="cls-9" x="141.5" y="179" width="3" height="4"/><rect class="cls-7" x="140.5" y="187" width="5" height="4" rx="1.87" ry="1.87"/></g><g id="Leg-2" data-name="Leg"><rect class="cls-7" x="127.5" y="167" width="3" height="23"/><rect class="cls-9" x="127.5" y="167" width="3" height="8"/><rect class="cls-9" x="127.5" y="179" width="3" height="4"/><rect class="cls-7" x="126.5" y="187" width="5" height="4" rx="1.87" ry="1.87"/></g><path class="cls-7" d="M132.94,160.42l-2.4,3.42a.3.3,0,0,1-.54,0c-2-4.5-.92-11-.07-13.42a.3.3,0,0,1,.57.13c-.23,2.27.48,7.56,2.38,9.55A.29.29,0,0,1,132.94,160.42Z"/></g><rect class="cls-5" x="407" y="127" width="43" height="32" rx="4.42" ry="4.42" transform="translate(-10.34 250.15) rotate(-32.18)"/><path class="cls-2" d="M480,164H402a1,1,0,0,0-1,1v23a1,1,0,0,0,1,1h78Z"/><polygon class="cls-2" points="420 167 474 135 480 135 480 167 420 167"/></g></svg>