<svg xmlns="http://www.w3.org/2000/svg" xmlns:xlink="http://www.w3.org/1999/xlink" viewBox="0 0 480 200"><defs><style>.cls-1{fill:#46ebff;}.cls-2{fill:#4d4d4d;}.cls-3{fill:#141414;}.cls-4{fill:#333;}.cls-5{fill:gray;}.cls-6{fill:#1e1e1e;}.cls-7{fill:#ed1c24;}.cls-8{fill:url(#New_Gradient_Swatch_1);}.cls-9{fill:url(#New_Gradient_Swatch_1-2);}.cls-10{fill:url(#New_Gradient_Swatch_1-3);}.cls-11{fill:url(#New_Gradient_Swatch_1-4);}.cls-12{fill:url(#New_Gradient_Swatch_1-5);}.cls-13{fill:url(#New_Gradient_Swatch_1-6);}.cls-14{fill:url(#New_Gradient_Swatch_1-7);}.cls-15{fill:url(#New_Gradient_Swatch_1-8);}.cls-16,.cls-20{fill:none;}.cls-16,.cls-19,.cls-20{stroke:gray;stroke-miterlimit:10;}.cls-16{stroke-width:1.16px;}.cls-17{fill:#5de02d;}.cls-18{fill:#6f3;}.cls-19{fill:#fff;stroke-width:2px;}.cls-20{stroke-width:0.89px;}.cls-21{fill:#a6a6a6;}</style><linearGradient id="New_Gradient_Swatch_1" x1="39.17" y1="121.56" x2="126.23" y2="121.56" gradientUnits="userSpaceOnUse"><stop offset="0"/><stop offset="0.03" stop-color="#121212"/><stop offset="0.07" stop-color="#282828"/><stop offset="0.12" stop-color="#393939"/><stop offset="0.19" stop-color="#444"/><stop offset="0.28" stop-color="#4b4b4b"/><stop offset="0.53" stop-color="#4d4d4d"/><stop offset="0.75" stop-color="#4b4b4b"/><stop offset="0.83" stop-color="#444"/><stop offset="0.89" stop-color="#393939"/><stop offset="0.94" stop-color="#282828"/><stop offset="0.98" stop-color="#121212"/><stop offset="1"/></linearGradient><linearGradient id="New_Gradient_Swatch_1-2" x1="31.5" y1="132.56" x2="126.23" y2="132.56" xlink:href="#New_Gradient_Swatch_1"/><linearGradient id="New_Gradient_Swatch_1-3" x1="23.83" y1="143.56" x2="110.23" y2="143.56" xlink:href="#New_Gradient_Swatch_1"/><linearGradient id="New_Gradient_Swatch_1-4" x1="16.83" y1="154.56" x2="107.23" y2="154.56" xlink:href="#New_Gradient_Swatch_1"/><linearGradient id="New_Gradient_Swatch_1-5" x1="138.83" y1="121.56" x2="226.56" y2="121.56" xlink:href="#New_Gradient_Swatch_1"/><linearGradient id="New_Gradient_Swatch_1-6" x1="138.83" y1="132.56" x2="234.23" y2="132.56" xlink:href="#New_Gradient_Swatch_1"/><linearGradient id="New_Gradient_Swatch_1-7" x1="155.5" y1="143.56" x2="241.9" y2="143.56" xlink:href="#New_Gradient_Swatch_1"/><linearGradient id="New_Gradient_Swatch_1-8" x1="158.5" y1="154.56" x2="248.9" y2="154.56" xlink:href="#New_Gradient_Swatch_1"/></defs><title>automotive_head_unit_concept</title><g id="Background"><rect class="cls-1" width="480" height="200.09"/></g><g id="Dashboard"><g id="Nav_System" data-name="Nav System"><rect class="cls-2" x="0.17" width="479.83" height="200"/><path d="M254.83,161s-17.66-38.67-30-44.33c-4.61-1.6-180-2.48-185,0-10.33,6-30,44.33-30,44.33H0v28.35H266.83V161Z"/><path class="cls-3" d="M156.1,161c-.73-4.11-3.6-19.67-5.69-22.16-1.85-1.55-33.74-1.81-36.16,0-1.75,2.64-4.86,18.07-5.67,22.16H.17v28.35H480V161Z"/><path class="cls-4" d="M480,0H.17V108c152.06,2.42,308.94,2,479.83,0Z"/><path d="M244.83,98c-72.26,2.13-150.67,2.57-225,0-3-3.33,7.45-70.78,17-79.33,10.74-2.78,177.67-4,191.34,0C235.3,24.7,248.83,94,244.83,98Z"/><path class="cls-5" d="M246.18,91.83c-.36-8.7-3.06-25.39-6.71-41.52-1.93-8.54-6.86-28.76-10.87-32.15l-.11-.09-.14,0c-8.23-2.39-67.41-2.58-85.35-2.58-46.36,0-100.19,1-106.33,2.57l-.16,0-.12.11c-8.17,7.32-16.71,55.65-17.66,73.12-.33,6.12.33,6.85.61,7.16l.19.21h.28c33.93,1.17,70.28,1.76,108.05,1.76s77.25-.59,117-1.76h.27l.18-.19C245.82,98,246.39,96.74,246.18,91.83Zm-1.7,5.51c-39.61,1.17-78.85,1.76-116.62,1.76S54,98.51,20.22,97.35c-.82-2.23.27-16.71,4.09-37.09,4.12-22,8.91-37.24,12.85-41,6.59-1.49,59.76-2.48,105.84-2.48,47.38,0,79,.92,84.84,2.48,5.83,5.41,16.29,55.22,17,72.62C245,95.64,244.68,96.92,244.48,97.34Z"/><rect class="cls-6" x="41.33" y="22.78" width="184.33" height="74" rx="2"/><path d="M150.28,158.57H114.39s2.88-15.09,4.39-17.27,25.3-2.06,27.1,0S150.28,158.57,150.28,158.57Z"/><path class="cls-7" d="M131.75,143,125,154.71a.66.66,0,0,0,.58,1H139.1a.66.66,0,0,0,.58-1L132.91,143A.67.67,0,0,0,131.75,143Z"/><path d="M132,145.22l-5,8.57a.42.42,0,0,0,.37.62h9.89a.41.41,0,0,0,.36-.62l-4.94-8.57A.42.42,0,0,0,132,145.22Z"/><path class="cls-7" d="M132.14,147.43l-3.11,5.4a.22.22,0,0,0,.19.33h6.23a.22.22,0,0,0,.19-.33l-3.11-5.4A.23.23,0,0,0,132.14,147.43Z"/><path d="M132.17,149.56l-1.29,2.23a.19.19,0,0,0,.16.28h2.58a.18.18,0,0,0,.16-.28l-1.29-2.23A.18.18,0,0,0,132.17,149.56Z"/><path class="cls-8" d="M125.23,122.56H40.17a1,1,0,0,1,0-2h85.06a1,1,0,1,1,0,2Z"/><path class="cls-9" d="M125.23,133.56H32.5a1,1,0,0,1,0-2h92.73a1,1,0,1,1,0,2Z"/><path class="cls-10" d="M109.23,144.56H24.83a1,1,0,1,1,0-2h84.4a1,1,0,1,1,0,2Z"/><path class="cls-11" d="M106.23,155.56H17.83a1,1,0,1,1,0-2h88.4a1,1,0,1,1,0,2Z"/><path class="cls-12" d="M225.56,122.56H139.83a1,1,0,1,1,0-2h85.73a1,1,0,0,1,0,2Z"/><path class="cls-13" d="M233.23,133.56h-93.4a1,1,0,1,1,0-2h93.4a1,1,0,0,1,0,2Z"/><path class="cls-14" d="M240.9,144.56H156.5a1,1,0,0,1,0-2h84.4a1,1,0,1,1,0,2Z"/><path class="cls-15" d="M247.9,155.56H159.5a1,1,0,0,1,0-2h88.4a1,1,0,1,1,0,2Z"/><rect class="cls-5" x="56.28" y="140.71" width="21.11" height="2.95" rx="1.47"/><rect class="cls-5" x="186.61" y="140.71" width="21.11" height="2.95" rx="1.47"/><path class="cls-5" d="M255.69,159.67c-2.66-5.69-18.5-38.8-30.3-44.21l-.06,0-.06,0c-3.05-1.06-64-1.62-106.85-1.62-21.43,0-39.92.12-53.47.36-23.88.41-25.12,1-25.71,1.32l0,0,0,0C29.29,121.25,11.88,154.17,9,159.67H.17v2H10.24l.19-.37c.19-.38,19.66-38.16,29.71-44,2-.91,32-1.47,78.28-1.47,53.07,0,103.53.71,106.17,1.5,12,5.56,29.46,43.6,29.64,44l.17.39H480v-2Z"/><path class="cls-4" d="M47.6,170.44a2,2,0,0,1-1.88,1.34h-26a2,2,0,0,1-1.88-1.34Zm0-3.77a2,2,0,0,0-1.88-1.34h-26a2,2,0,0,0-1.88,1.34Zm-19.35.66H26.17v2.45h2.08Zm-7.5,0H18.5v2.45h2.25Zm3.75,0H22.42v2.45H24.5Zm7.5,0H29.92v2.45H32Zm15.17,0H44.92v2.45h2.25Zm-3.92,0H41.17v2.45h2.08Zm-7.5,0H33.67v2.45h2.08Zm3.75,0H37.42v2.45H39.5Z"/><path class="cls-4" d="M247.6,170.44a2,2,0,0,1-1.88,1.34h-26a2,2,0,0,1-1.88-1.34Zm0-3.77a2,2,0,0,0-1.88-1.34h-26a2,2,0,0,0-1.88,1.34Zm-19.35.66h-2.08v2.45h2.08Zm-7.5,0H218.5v2.45h2.25Zm3.75,0h-2.08v2.45h2.08Zm7.5,0h-2.08v2.45H232Zm15.17,0h-2.25v2.45h2.25Zm-3.92,0h-2.08v2.45h2.08Zm-7.5,0h-2.08v2.45h2.08Zm3.75,0h-2.08v2.45h2.08Z"/></g><path id="Jar" class="cls-16" d="M441.94,153.33h-59.2a5.82,5.82,0,0,1-5.81-5.8L360.68,22.15a5.83,5.83,0,0,1,5.8-5.81H458.2a5.83,5.83,0,0,1,5.8,5.81L447.75,147.53A5.82,5.82,0,0,1,441.94,153.33Z"/><rect id="Base" x="376.35" y="154.49" width="71.98" height="32.51" rx="6.97"/><path class="cls-17" d="M364.55,38.66l14,107.79a5.57,5.57,0,0,0,5.55,5.55h56.54a5.57,5.57,0,0,0,5.55-5.55l11.32-85.37C418.72,109.22,379.25,74.39,364.55,38.66Z"/><path class="cls-18" d="M371.67,92.92l6.85,53.53a5.57,5.57,0,0,0,5.55,5.55h56.54a5.57,5.57,0,0,0,5.55-5.55L460,43.31C429.79,87.69,411.76,117.34,371.67,92.92Z"/><path d="M459.34,1.65c0-.13,0-.26,0-.4A7.36,7.36,0,0,0,459.24,0h-93.8a7.36,7.36,0,0,0-.12,1.25c0,.14,0,.27,0,.4a7,7,0,0,0,2.3,13.53H457a7,7,0,0,0,2.31-13.53Z"/><path class="cls-3" d="M321.11,123.5c5.74-4,9.39-16,12.39-18.5s8.5-2,8.5-2a14,14,0,0,0,14-14c0-.17,0-.33,0-5.5H280c0,5.17,0,5.33,0,5.5a14,14,0,0,0,14,14s7,0,9.5,2c3,2.5,6.65,14.5,12.39,18.5l.61,50.92c-9.42,5.79-25.06,10.36-25.06,10.36a1,1,0,0,0,.39,1.91h53.34a1,1,0,0,0,.39-1.91s-15.64-4.57-25.06-10.36Z"/><path class="cls-2" d="M303.5,105c3,2.5,6.65,14.5,12.39,18.5l.52,43.17h4.18l.52-43.17c5.74-4,9.39-16,12.39-18.5s8.5-2,8.5-2a14,14,0,0,0,14-14c0-.17,0-.33,0-5.5H280c0,5.17,0,5.33,0,5.5a14,14,0,0,0,14,14S301,103,303.5,105Z"/><path class="cls-19" d="M316.41,166.67a4.77,4.77,0,0,0,4.18,0"/><path class="cls-4" d="M294,103s7,0,9.5,2c.58.49,3.55.16,4.19,1.23,0,0,.65,6.82,10.77,18.27,10-11,11.13-18.43,11.13-18.43.62-1,3.34-.6,3.91-1.07,3-2.5,8.5-2,8.5-2a14,14,0,0,0,14-14c0-.17,0-.33,0-5.5H280c0,5.17,0,5.33,0,5.5A14,14,0,0,0,294,103Z"/><g id="Glass"><path class="cls-20" d="M321.11,123.5c5.74-4,9.39-16,12.39-18.5s8.5-2,8.5-2a14,14,0,0,0,14-14c0-.17,0-.33,0-5.5H280c0,5.17,0,5.33,0,5.5a14,14,0,0,0,14,14s7,0,9.5,2c3,2.5,6.65,14.5,12.39,18.5l.61,50.92c-9.42,5.79-25.06,10.36-25.06,10.36a1,1,0,0,0,.39,1.91h53.34a1,1,0,0,0,.39-1.91s-15.64-4.57-25.06-10.36Z"/><path class="cls-20" d="M308.5,104.5s12,2,19,0"/><path class="cls-20" d="M344.66,98.85c3.84-.35,6.84-4.35,6.84-12.08"/></g><path class="cls-21" d="M57.73,40.34h1.94l6.08,9.85V40.34h1.58v12.2H65.48L59.31,42.7v9.84H57.73Z"/><path class="cls-21" d="M80.05,42.08a6.72,6.72,0,0,1,1.21,4.15,7.22,7.22,0,0,1-1.39,4.54,6.16,6.16,0,0,1-9.06.26,7,7,0,0,1-1.44-4.53,7.18,7.18,0,0,1,1.23-4.23A5.32,5.32,0,0,1,75.27,40,5.6,5.6,0,0,1,80.05,42.08Zm-1.46,7.78a6.7,6.7,0,0,0,1-3.6,5.16,5.16,0,0,0-1.13-3.47,3.84,3.84,0,0,0-3.07-1.31,4,4,0,0,0-3.09,1.3,5.46,5.46,0,0,0-1.2,3.83,5.64,5.64,0,0,0,1,3.42,3.84,3.84,0,0,0,3.32,1.39A3.44,3.44,0,0,0,78.59,49.86Z"/><path class="cls-21" d="M84,40.34l2.3,9.91,2.75-9.91h1.79l2.76,9.93,2.3-9.93h1.81l-3.2,12.2H92.81L90,42.43,87.17,52.54H85.43l-3.19-12.2Z"/><path class="cls-21" d="M104.07,40.34H109a4.56,4.56,0,0,1,3.84,1.79A6.59,6.59,0,0,1,114,46.25a8.13,8.13,0,0,1-.73,3.51,4.44,4.44,0,0,1-4.36,2.78h-4.86Zm4.55,10.78A4.27,4.27,0,0,0,110,51a3,3,0,0,0,1.54-1.24,5.23,5.23,0,0,0,.69-1.9,7.44,7.44,0,0,0,.12-1.28,6,6,0,0,0-.88-3.52,3.24,3.24,0,0,0-2.84-1.25h-2.86v9.36Z"/><path class="cls-21" d="M116.65,40.34h1.67v12.2h-1.67Z"/><path class="cls-21" d="M122.08,48.6a3.37,3.37,0,0,0,.47,1.69,3.1,3.1,0,0,0,2.79,1.21,4.68,4.68,0,0,0,1.63-.27,1.86,1.86,0,0,0,1.42-1.84,1.62,1.62,0,0,0-.6-1.42,5.87,5.87,0,0,0-1.91-.72l-1.6-.38a7,7,0,0,1-2.22-.8,2.58,2.58,0,0,1-1.13-2.28,3.55,3.55,0,0,1,1.11-2.7A4.36,4.36,0,0,1,125.17,40a5.31,5.31,0,0,1,3.17.93,3.38,3.38,0,0,1,1.31,3h-1.56a3.15,3.15,0,0,0-.51-1.5,2.87,2.87,0,0,0-2.45-1,2.77,2.77,0,0,0-2,.62,1.94,1.94,0,0,0-.61,1.42,1.42,1.42,0,0,0,.72,1.32,11.3,11.3,0,0,0,2.15.66l1.66.39a5.17,5.17,0,0,1,1.85.77A2.93,2.93,0,0,1,130,49.12a3.14,3.14,0,0,1-1.43,2.9,6.32,6.32,0,0,1-3.34.87,4.91,4.91,0,0,1-3.48-1.16,4,4,0,0,1-1.23-3.13Z"/><path class="cls-21" d="M132.49,40.34H138a3.7,3.7,0,0,1,2.61.92,3.31,3.31,0,0,1,1,2.58,3.74,3.74,0,0,1-.89,2.48A3.34,3.34,0,0,1,138,47.38h-3.8v5.16h-1.66ZM138.9,42a3.56,3.56,0,0,0-1.49-.26h-3.26V46h3.26a3.08,3.08,0,0,0,1.79-.48,1.87,1.87,0,0,0,.69-1.67A1.83,1.83,0,0,0,138.9,42Z"/><path class="cls-21" d="M143.83,40.34h8.85v1.5h-7.24v3.7h6.69V47h-6.69v4.13h7.37v1.46h-9Z"/><path class="cls-21" d="M155,40.34h2L163,50.19V40.34h1.58v12.2h-1.86l-6.17-9.84v9.84H155Z"/><path class="cls-21" d="M168.37,48.6a3.48,3.48,0,0,0,.47,1.69,3.1,3.1,0,0,0,2.79,1.21,4.68,4.68,0,0,0,1.63-.27,1.87,1.87,0,0,0,1.43-1.84,1.62,1.62,0,0,0-.61-1.42,5.69,5.69,0,0,0-1.91-.72l-1.6-.38a7,7,0,0,1-2.22-.8,2.58,2.58,0,0,1-1.13-2.28,3.55,3.55,0,0,1,1.11-2.7A4.38,4.38,0,0,1,171.46,40a5.28,5.28,0,0,1,3.17.93,3.38,3.38,0,0,1,1.31,3h-1.55a3.15,3.15,0,0,0-.51-1.5,2.88,2.88,0,0,0-2.46-1,2.73,2.73,0,0,0-2,.62,2,2,0,0,0-.62,1.42,1.41,1.41,0,0,0,.73,1.32,11.11,11.11,0,0,0,2.14.66l1.66.39a5.09,5.09,0,0,1,1.85.77,2.93,2.93,0,0,1,1.13,2.48,3.12,3.12,0,0,1-1.44,2.9,6.32,6.32,0,0,1-3.34.87,4.87,4.87,0,0,1-3.47-1.16,4,4,0,0,1-1.23-3.13Z"/><path class="cls-21" d="M179,40.34h1.67v12.2H179Z"/><path class="cls-21" d="M183.35,40.34h2l6.08,9.85V40.34H193v12.2H191.1l-6.17-9.84v9.84h-1.58Z"/><path class="cls-21" d="M203.75,40.69A4.35,4.35,0,0,1,205.94,44H204.3a3,3,0,0,0-1.21-1.95,4.05,4.05,0,0,0-2.31-.61,3.6,3.6,0,0,0-2.8,1.27,5.56,5.56,0,0,0-1.13,3.78,6.17,6.17,0,0,0,.93,3.54,3.45,3.45,0,0,0,3.05,1.37,3.87,3.87,0,0,0,2.69-1,4.06,4.06,0,0,0,1.08-3.1h-3.82V46h5.36v6.53h-1.06l-.4-1.57a6.45,6.45,0,0,1-1.46,1.28,5.53,5.53,0,0,1-2.72.61,5.27,5.27,0,0,1-3.67-1.4,6.72,6.72,0,0,1-1.67-4.83,7,7,0,0,1,1.63-4.88,5.18,5.18,0,0,1,4-1.72A6.15,6.15,0,0,1,203.75,40.69Z"/><path class="cls-21" d="M61.71,60.74h1.67v12.2H61.71Z"/><path class="cls-21" d="M74.68,61.63a4.32,4.32,0,0,1,1.4,2.77H74.47a3.31,3.31,0,0,0-1.07-1.87,3.38,3.38,0,0,0-2.25-.68,3.6,3.6,0,0,0-2.86,1.26A5.9,5.9,0,0,0,67.2,67a5.67,5.67,0,0,0,1,3.47,3.4,3.4,0,0,0,2.93,1.34,3.09,3.09,0,0,0,2.73-1.41,5.35,5.35,0,0,0,.74-1.94H76.2a5.5,5.5,0,0,1-1.41,3.23,5,5,0,0,1-3.87,1.57A5.07,5.07,0,0,1,67.39,72c-1.25-1.13-1.88-2.89-1.88-5.26a6.75,6.75,0,0,1,1.41-4.42,5.14,5.14,0,0,1,4.21-1.88A4.9,4.9,0,0,1,74.68,61.63Z"/><path class="cls-21" d="M77.39,60.74h1.93l3.51,5.86,3.5-5.86h1.94L83.66,68v4.92H82V68Z"/><path class="cls-21" d="M94.06,60.74h2.36l3.51,10.31,3.48-10.31h2.35v12.2h-1.58v-7.2c0-.25,0-.66,0-1.24s0-1.19,0-1.85l-3.49,10.29H99.1L95.58,62.65V63c0,.3,0,.76,0,1.37s0,1.06,0,1.35v7.2H94.06Z"/><path class="cls-21" d="M111.82,60.74h1.86l4.43,12.2H116.3L115,69.28h-4.78l-1.32,3.66h-1.69Zm2.74,7.2-1.88-5.39-2,5.39Z"/><path class="cls-21" d="M119.8,60.74h5.54a5.5,5.5,0,0,1,2.26.41A2.89,2.89,0,0,1,129.28,64a3.23,3.23,0,0,1-.45,1.79,3.2,3.2,0,0,1-1.26,1.12,2.53,2.53,0,0,1,1.07.77,2.65,2.65,0,0,1,.4,1.53l.06,1.64a5.17,5.17,0,0,0,.12,1,1,1,0,0,0,.53.75v.28h-2a1.8,1.8,0,0,1-.13-.41,8.4,8.4,0,0,1-.08-1l-.1-2a1.74,1.74,0,0,0-.86-1.6,3.51,3.51,0,0,0-1.45-.22h-3.65v5.23H119.8Zm5.36,5.59a3,3,0,0,0,1.79-.47,1.91,1.91,0,0,0,.66-1.67,1.82,1.82,0,0,0-.92-1.78,2.9,2.9,0,0,0-1.32-.25h-3.92v4.17Z"/><path class="cls-21" d="M140,61.09a4.3,4.3,0,0,1,2.19,3.35h-1.63a3,3,0,0,0-1.21-1.95,4.09,4.09,0,0,0-2.32-.61,3.58,3.58,0,0,0-2.79,1.27,5.51,5.51,0,0,0-1.14,3.78,6.17,6.17,0,0,0,.94,3.54,3.43,3.43,0,0,0,3.05,1.37,3.85,3.85,0,0,0,2.68-1,4.06,4.06,0,0,0,1.09-3.1H137V66.41h5.35v6.53h-1.06l-.4-1.57a6.24,6.24,0,0,1-1.46,1.28,5.5,5.5,0,0,1-2.72.61,5.25,5.25,0,0,1-3.66-1.4A6.73,6.73,0,0,1,131.4,67,7,7,0,0,1,133,62.15a5.15,5.15,0,0,1,4-1.72A6.12,6.12,0,0,1,140,61.09Z"/><path class="cls-21" d="M148.66,60.74h1.86L155,72.94h-1.81l-1.28-3.66h-4.78l-1.32,3.66h-1.7Zm2.74,7.2-1.88-5.39-2,5.39Z"/><path class="cls-21" d="M156.64,60.74h5.54a5.5,5.5,0,0,1,2.26.41A2.89,2.89,0,0,1,166.12,64a3.23,3.23,0,0,1-.45,1.79,3.2,3.2,0,0,1-1.26,1.12,2.53,2.53,0,0,1,1.07.77,2.73,2.73,0,0,1,.4,1.53l.06,1.64a5.17,5.17,0,0,0,.12,1,1,1,0,0,0,.53.75v.28h-2a1.8,1.8,0,0,1-.13-.41,8.4,8.4,0,0,1-.08-1l-.1-2a1.73,1.73,0,0,0-.87-1.6,3.43,3.43,0,0,0-1.44-.22h-3.65v5.23h-1.65ZM162,66.33a3.06,3.06,0,0,0,1.79-.47,1.91,1.91,0,0,0,.66-1.67,1.82,1.82,0,0,0-.92-1.78,2.9,2.9,0,0,0-1.32-.25h-3.92v4.17Z"/><path class="cls-21" d="M169.09,60.74h1.67v12.2h-1.67Z"/><path class="cls-21" d="M182.3,60.74v1.45h-4.11V72.94h-1.67V62.19h-4.1V60.74Z"/><path class="cls-21" d="M186.13,60.74H188l4.43,12.2h-1.81l-1.28-3.66h-4.78l-1.32,3.66h-1.7Zm2.73,7.2L187,62.55l-2,5.39Z"/><path class="cls-21" d="M195,69a3.37,3.37,0,0,0,.47,1.69,3.09,3.09,0,0,0,2.79,1.21,4.72,4.72,0,0,0,1.63-.27,1.86,1.86,0,0,0,1.42-1.84,1.62,1.62,0,0,0-.6-1.42,5.87,5.87,0,0,0-1.91-.72l-1.6-.38a7,7,0,0,1-2.22-.8,2.56,2.56,0,0,1-1.13-2.28,3.55,3.55,0,0,1,1.11-2.7,4.36,4.36,0,0,1,3.13-1.06,5.33,5.33,0,0,1,3.17.93,3.38,3.38,0,0,1,1.31,3H201a3.15,3.15,0,0,0-.51-1.5,2.87,2.87,0,0,0-2.45-1,2.77,2.77,0,0,0-2,.62,1.94,1.94,0,0,0-.61,1.42,1.42,1.42,0,0,0,.72,1.32,11.3,11.3,0,0,0,2.15.66l1.66.39a5.17,5.17,0,0,1,1.85.77,2.93,2.93,0,0,1,1.12,2.48,3.14,3.14,0,0,1-1.43,2.9,6.35,6.35,0,0,1-3.34.87,4.91,4.91,0,0,1-3.48-1.16A4,4,0,0,1,193.43,69Z"/></g></svg>