<svg xmlns="http://www.w3.org/2000/svg" viewBox="0 0 480 200.45"><defs><style>.cls-1{fill:#f2d43d;}.cls-2{fill:#f2e8b6;}.cls-3{fill:#506cbf;}.cls-4{fill:#f54351;}.cls-5,.cls-9{fill:none;stroke:#f2e8b6;stroke-miterlimit:10;}.cls-5{stroke-linecap:round;}.cls-6{fill:#d9ae30;}.cls-7{fill:#a38324;}.cls-8{fill:#f4e287;}</style></defs><title>robot_hand</title><g id="Background"><rect class="cls-1" width="480" height="200"/></g><g id="Layer_1" data-name="Layer 1"><g id="Person"><polygon class="cls-2" points="110.11 80.67 115.81 84.68 134.25 77.42 137.48 78.75 114.81 87.68 106.77 82.02 110.11 80.67"/><path class="cls-3" d="M203.32,19.8A24.79,24.79,0,1,0,213.07,65c-3.15-.23-5.57-1.58-5.57-3.21,0-1.79,2.91-3.25,6.5-3.25a10.12,10.12,0,0,1,4.91,1.12c.42-.52.81-1.07,1.18-1.63a3,3,0,0,0,2.43-4.62A24.37,24.37,0,0,0,224,48,24.9,24.9,0,0,0,203.32,19.8Z"/><path class="cls-3" d="M214.11,77l-61.24-9.41a9.68,9.68,0,0,0-9.33,6.11l-11.66,29.55a9.68,9.68,0,0,0-15.82,11l9,16a9.68,9.68,0,0,0,8.44,4.93l.66,0a9.68,9.68,0,0,0,8.34-6.11l1.5-3.79L141.42,142h62.69l1.07-7a10.63,10.63,0,0,1-1.66-.33l-55-16a10.38,10.38,0,0,1-1.69-.66h0A10.69,10.69,0,0,1,149.78,98h.07c.26,0,.52-.08.78-.1s.58,0,.87,0a10.67,10.67,0,0,1,3,.43l.16,0h0L198.45,111l-.13,1L154.2,99.2a9.68,9.68,0,1,0-5.41,18.59l55,16a9.68,9.68,0,0,0,12.31-8.07L221,87.48A9.67,9.67,0,0,0,214.11,77Z"/><path class="cls-4" d="M141.24,105.52a10.74,10.74,0,0,1,8.82-7.6L139,79.15l-24.19,9.53-9.19-6.47,17.18,29.17,9.19,6.47,10.25-4A10.64,10.64,0,0,1,141.24,105.52Z"/></g><line class="cls-5" x1="289.9" y1="124.06" x2="291.86" y2="123.68"/><path class="cls-6" d="M270.59,136.66c-21.55,0-11.75-1.62-21.81-11.55a.47.47,0,0,1,.33-.8h43a.47.47,0,0,1,.33.8c-10.05,9.93-.26,11.55-21.81,11.55Z"/><g id="Office_Desk" data-name="Office Desk"><rect class="cls-6" x="51.03" y="136" width="376.93" height="12.08"/><rect class="cls-6" x="60.7" y="148.5" width="357.6" height="51.95"/></g><path class="cls-4" d="M257.92,64.22c-7.22.09-15.47.18-17.94.27h0l-.68,0-13.42.75a.3.3,0,0,0-.18.51c2.32,2.1,4.54,3.15,7.46,3a9.55,9.55,0,0,0,6.4-2.76.71.71,0,0,1,.52-.26c2.64-.06,10.54-.25,17.57-.38Z"/><path class="cls-7" d="M369.45,106.87h-1V87.69a3.5,3.5,0,0,0-3.5-3.5H352.3v-1h12.64a4.5,4.5,0,0,1,4.5,4.5Z"/><path class="cls-7" d="M367.45,106.87h-1V87.69a1.5,1.5,0,0,0-1.5-1.5H352.3v-1h12.64a2.5,2.5,0,0,1,2.5,2.5Z"/><rect class="cls-7" x="342" y="95.51" width="16" height="5"/><path class="cls-7" d="M403,135V104a3,3,0,0,0-3-3H325a3,3,0,0,0-3,3v31Z"/><path class="cls-7" d="M260.29,54.14a2,2,0,0,0-.55.32Z"/><path class="cls-7" d="M358,75h-1.32L326.94,47.63a2.38,2.38,0,0,0-2-3.63H301.1a2.38,2.38,0,0,0-1.85,3.87l-20.46,6.57a2,2,0,0,0-1.24-.45H264a3.49,3.49,0,0,1,0,6l-1.67,1a3.47,3.47,0,0,1,1.36,1.25l.28-1a3.5,3.5,0,0,1,6.42-.78,3.47,3.47,0,0,1,.43,1.56,3.46,3.46,0,0,1,5,1.51,3.47,3.47,0,0,1,5.87,2.25l28.12-9.34,1.67,1.34a2.38,2.38,0,0,0,3,0h0L340,80.74V93a2,2,0,0,0,2,2H358a2,2,0,0,0,2-2V77A2,2,0,0,0,358,75ZM279.54,62.31v-3.9l23.38-7.51,3.21,2.58ZM342,75a2,2,0,0,0-1.54.75l-22.78-20.5,6.22-5L350.8,75Z"/><path class="cls-7" d="M252.92,64.18a2.5,2.5,0,0,1-.73-4.89l2.75-.85L261,54.87a2.5,2.5,0,0,1,2.53,4.31L257,63l-3.3,1A2.51,2.51,0,0,1,252.92,64.18Z"/><path class="cls-7" d="M258.82,74.22a2.5,2.5,0,0,1-2.42-3.14l2-7.59a2.5,2.5,0,0,1,4.84,1.27l-2,7.59A2.5,2.5,0,0,1,258.82,74.22Z"/><path class="cls-7" d="M264.81,75.68a2.5,2.5,0,0,1-2.88-3.13l3.07-11a2.5,2.5,0,0,1,4.82,1.34l-3.07,11A2.5,2.5,0,0,1,264.81,75.68Z"/><path class="cls-7" d="M270.87,75.51A2.5,2.5,0,0,1,268,72.36l2.3-8a2.5,2.5,0,1,1,4.81,1.38l-2.3,8A2.5,2.5,0,0,1,270.87,75.51Z"/><path class="cls-7" d="M277.09,74.76a2.5,2.5,0,0,1-2.89-3.09l1.63-6.22a2.5,2.5,0,1,1,4.84,1.27L279,72.94A2.5,2.5,0,0,1,277.09,74.76Z"/><path class="cls-8" d="M327,138.6c-1.22,0-.5-1.39-4-1.35s-5.74,4.42-8.45,4.33-2.3-2.63-5.08-2.63-2,4.84-4,4.84-2-6.7-4-6.62-.75,9-2.07,9-1-9.09-1-9.09a2,2,0,0,1,2-2h26.15a2,2,0,0,1,2,2S328.2,138.58,327,138.6Z"/><path class="cls-8" d="M316.45,132.1c-1.8,0-2,3.54-2.61,3.54s-.28-6,2.61-6.18Z"/><rect class="cls-6" x="313.98" y="128.09" width="6.38" height="3" rx="0.96" ry="0.96" transform="translate(187.58 446.77) rotate(-90)"/><rect class="cls-6" x="317.37" y="120.32" width="38.03" height="14.73" rx="2" ry="2"/><circle class="cls-9" cx="248.5" cy="134.5" r="1"/><line class="cls-5" x1="243.5" y1="135.5" x2="245.5" y2="135.5"/><circle class="cls-9" cx="256.5" cy="134.5" r="1"/><circle class="cls-9" cx="278.5" cy="134.5" r="1"/><circle class="cls-9" cx="293.5" cy="134.5" r="1"/><line class="cls-5" x1="258.5" y1="135.5" x2="260.5" y2="135.5"/><line class="cls-5" x1="281.5" y1="135.5" x2="283.5" y2="135.5"/><line class="cls-5" x1="274.5" y1="135.5" x2="276.5" y2="135.5"/><line class="cls-5" x1="289.5" y1="135.5" x2="291.5" y2="135.5"/><line class="cls-5" x1="239.5" y1="135.5" x2="241.5" y2="135.5"/><line class="cls-5" x1="287.5" y1="135.5" x2="289.23" y2="134.49"/><line class="cls-5" x1="280.5" y1="135.5" x2="280.5" y2="133.5"/><circle class="cls-9" cx="242.5" cy="133.5" r="1"/><circle class="cls-9" cx="237.5" cy="134.5" r="1"/><circle class="cls-9" cx="234.5" cy="134.5" r="1"/><circle class="cls-9" cx="231.5" cy="134.5" r="1"/><line class="cls-5" x1="225.5" y1="135.5" x2="227.5" y2="135.5"/></g></svg>