<svg xmlns="http://www.w3.org/2000/svg" viewBox="0 0 480 200"><defs><style>.cls-1{fill:#478eb0;}.cls-2{fill:#3a7345;}.cls-3{fill:#9fb3b6;}.cls-4{fill:#73a353;}.cls-5,.cls-6,.cls-7{fill:#547b80;}.cls-10,.cls-19,.cls-6{stroke:#478eb0;}.cls-10,.cls-13,.cls-14,.cls-16,.cls-17,.cls-19,.cls-20,.cls-21,.cls-23,.cls-25,.cls-6{stroke-miterlimit:10;}.cls-7{stroke:#547b80;}.cls-22,.cls-24,.cls-7{stroke-linejoin:round;}.cls-8{fill:#b2b247;}.cls-9{fill:#6d775b;}.cls-10,.cls-20{fill:none;}.cls-10,.cls-13,.cls-14,.cls-16{stroke-width:0.5px;}.cls-11,.cls-13,.cls-16,.cls-17{fill:#b5882d;}.cls-12{fill:#f5e8d0;}.cls-13,.cls-14,.cls-16{stroke:#767977;}.cls-14,.cls-15{fill:#767977;}.cls-14,.cls-16,.cls-17{stroke-linecap:round;}.cls-17{stroke:#fff;}.cls-18,.cls-19,.cls-21{fill:#1a1f1c;}.cls-20,.cls-22,.cls-23{stroke:#1a1f1c;}.cls-21{stroke:#9fb3b6;}.cls-22,.cls-23,.cls-26{fill:#cadadd;}.cls-24{fill:#e3bc3d;stroke:#b5882d;}.cls-25{fill:#9a988e;stroke:#9a988e;}.cls-27{fill:#770e12;}</style></defs><title>encrypted_communications</title><g id="Background"><rect class="cls-1" width="480" height="200"/><rect class="cls-2" y="115" width="480" height="85"/><rect class="cls-3" x="240" width="240" height="200"/><rect class="cls-4" x="240" y="115" width="240" height="85"/></g><g id="Layer_1" data-name="Layer 1"><g id="Statue_of_Liberty" data-name="Statue of Liberty"><path class="cls-5" d="M46.9,38H33.25c-2.12.26-2.6-17.73-2.6-17.73a2.13,2.13,0,1,0-4.23.52S26.57,42,33.25,42.23V82.34h0a3.18,3.18,0,0,0,6.35,0h0V60.16h.85V82.34h0a3.18,3.18,0,0,0,6.35,0h0V42.25c2.13,0,4.26,11.94,4.26,11.94l3.41-2.56S54.15,38,46.9,38Z"/><path class="cls-5" d="M40,36.11a5.46,5.46,0,1,0-5.45-5.48A5.48,5.48,0,0,0,40,36.11Z"/><rect class="cls-6" x="39.65" y="41.82" width="10.24" height="13.65" transform="translate(15.15 -10.46) rotate(16.01)"/><path class="cls-6" d="M54.14,51.22c-.21-.16-.43-.29-.66-.44l-1.35-.88-1.81-1.18-1.91-1.24-1.65-1.07-1-.67a2.57,2.57,0,0,0-1.37-.51,2.13,2.13,0,0,0-1.22,3.9l.52.34,1.34.87,1.79,1.17,1.9,1.23,1.66,1.08,1.06.69a2.65,2.65,0,0,0,1.41.54,2.13,2.13,0,0,0,1.79-3.35A2.16,2.16,0,0,0,54.14,51.22Z"/><polygon class="cls-7" points="47.32 24.26 44.19 24.54 42.72 24.54 43.91 21.84 40.99 24.54 41.24 24.54 38.86 19.41 38.48 24.54 38.73 24.54 34.81 21.84 37.01 24.54 35.95 24.54 32.82 24.26 36.38 25.49 36.84 26.46 43.22 26.46 43.62 25.57 47.32 24.26"/><path class="cls-8" d="M30.5,14.31c.53-1.35-.73-2.7-.65-4.07A9.74,9.74,0,0,1,31.58,6c-.13.22-.65.43-.86.57-.55.39-1.09.8-1.62,1.22a6.84,6.84,0,0,0-2.59,4,3.32,3.32,0,0,0,.92,2.86,1.81,1.81,0,0,0,2.81.09A1.72,1.72,0,0,0,30.5,14.31Z"/><polygon class="cls-5" points="29.84 16.23 27.28 16.23 27.71 20.93 29.41 20.93 29.84 16.23"/><rect class="cls-5" x="26" y="14.74" width="5.12" height="2.13"/></g><rect class="cls-9" x="26.5" y="82.5" width="27" height="3"/><rect class="cls-9" x="18.5" y="110.5" width="43" height="5"/><rect class="cls-9" x="23" y="104.5" width="34" height="5"/><rect class="cls-9" x="28.5" y="86.5" width="23" height="17"/><path class="cls-10" d="M48.08,31.73c0-3-3.62-5.61-8.05-5.63s-8.1,2.6-8.11,5.62"/><g id="Parliament"><rect class="cls-11" x="457.29" y="55.49" width="15.08" height="15.08"/><polygon class="cls-11" points="469.85 49.46 459.8 49.46 458.29 52.98 458.29 54.99 471.36 54.99 471.36 52.98 469.85 49.46"/><polygon class="cls-11" points="458.29 71.07 458.29 93.18 457.79 93.18 457.79 115.8 458.29 115.8 471.36 115.8 471.36 71.07 458.29 71.07"/><rect class="cls-11" x="437.69" y="93.18" width="8.54" height="22.62"/><rect class="cls-11" x="288.42" y="93.18" width="33.17" height="22.62"/><rect class="cls-11" x="391.45" y="93.18" width="34.68" height="22.62"/><rect class="cls-11" x="333.15" y="90.17" width="46.74" height="25.63"/><rect class="cls-11" x="459.8" y="43.93" width="10.05" height="5.03"/><path class="cls-11" d="M464.82,27.35c-1,7.54-5,16.08-5,16.08h10.05S465.83,34.88,464.82,27.35Z"/><circle class="cls-12" cx="464.82" cy="63.03" r="5.03"/><line class="cls-13" x1="464.82" y1="57.88" x2="464.82" y2="68.18"/><line class="cls-13" x1="469.98" y1="63.03" x2="459.67" y2="63.03"/><line class="cls-13" x1="469.29" y1="65.6" x2="460.36" y2="60.45"/><line class="cls-13" x1="462.25" y1="58.57" x2="467.4" y2="67.49"/><line class="cls-13" x1="467.4" y1="58.57" x2="462.25" y2="67.49"/><line class="cls-13" x1="469.29" y1="60.45" x2="460.36" y2="65.6"/><circle class="cls-12" cx="464.82" cy="63.03" r="3.52"/><line class="cls-14" x1="465.98" y1="58.66" x2="464.7" y2="63.51"/><path class="cls-15" d="M465,63.85a.38.38,0,0,0-.73-.19.37.37,0,0,1-.13.49.38.38,0,1,0,.73.19.37.37,0,0,1,.13-.49Z"/><line class="cls-16" x1="467.84" y1="63.09" x2="463.82" y2="63.01"/><path class="cls-15" d="M464.06,63.39a.38.38,0,1,0,0-.75.37.37,0,0,1-.5,0,.38.38,0,0,0,0,.75.37.37,0,0,1,.5,0Z"/><polygon class="cls-11" points="278.37 51.47 266.31 51.47 269.12 44.43 275.55 44.43 278.37 51.47"/><path class="cls-11" d="M263.29,29.36a40.18,40.18,0,0,1-2.51,9h5A40.18,40.18,0,0,1,263.29,29.36Z"/><path class="cls-11" d="M281.38,29.36a40.18,40.18,0,0,1-2.51,9h5A40.18,40.18,0,0,1,281.38,29.36Z"/><path class="cls-11" d="M276.86,115.55V79.89a.25.25,0,0,1,.25-.25V77.86a.25.25,0,0,1-.23-.36,16.23,16.23,0,0,0,1.23-3.95.25.25,0,0,1,.25-.22V51.72H266.31V73.33a.25.25,0,0,1,.25.22,16.23,16.23,0,0,0,1.23,3.95.25.25,0,0,1-.23.36v1.79a.25.25,0,0,1,.25.25v35.66Z"/><path class="cls-11" d="M279.85,77.5a.25.25,0,0,1-.23.36v1.79a.25.25,0,0,1,.25.25v3.26l1.05-2.87a.25.25,0,0,1,.24-.16h2.73V42.75h-.5v-4.1h-4v4.1h-.5v32A18.5,18.5,0,0,0,279.85,77.5Z"/><path class="cls-11" d="M263.51,80.12a.25.25,0,0,1,.24.16l1.05,2.87V79.89a.25.25,0,0,1,.25-.25V77.86a.25.25,0,0,1-.23-.36,18.5,18.5,0,0,0,1-2.72v-32h-.5v-4.1h-4v4.1h-.5V80.12Z"/><rect class="cls-11" x="449.24" y="84.14" width="5.53" height="31.66"/><polygon class="cls-11" points="454.77 83.89 449.24 83.89 450.53 80.37 453.48 80.37 454.77 83.89"/><path class="cls-11" d="M447.74,73.58a16.38,16.38,0,0,1-1.26,4H449A16.38,16.38,0,0,1,447.74,73.58Z"/><path class="cls-11" d="M456.28,73.58a16.38,16.38,0,0,1-1.26,4h2.51A16.38,16.38,0,0,1,456.28,73.58Z"/><polygon class="cls-11" points="448.74 79.89 448.74 77.86 446.73 77.86 446.73 79.89 446.48 79.89 446.48 116.05 448.99 116.05 448.99 79.89 448.74 79.89"/><polygon class="cls-11" points="457.29 79.89 457.29 77.86 455.27 77.86 455.27 79.89 455.02 79.89 455.02 116.05 457.54 116.05 457.54 79.89 457.29 79.89"/><rect class="cls-11" x="351.74" y="69.06" width="11.06" height="20.61"/><polygon class="cls-11" points="362.8 68.56 351.74 68.56 353.25 65.54 361.29 65.54 362.8 68.56"/><path class="cls-11" d="M357.27,38.4a49.78,49.78,0,0,1-3,11.06h6A49.81,49.81,0,0,1,357.27,38.4Z"/><polygon class="cls-11" points="360.54 53.61 360.54 49.84 354 49.84 354 53.61 353.25 53.61 353.25 65.17 361.29 65.17 361.29 53.61 360.54 53.61"/><line class="cls-17" x1="272.34" y1="44.43" x2="272.34" y2="22.32"/><circle class="cls-11" cx="272.34" cy="22.07" r="0.5"/><rect class="cls-11" x="272.84" y="22.82" width="6.03" height="4.02"/><rect class="cls-11" x="429.14" y="84.14" width="5.53" height="31.66"/><polygon class="cls-11" points="434.67 83.89 429.14 83.89 430.43 80.37 433.38 80.37 434.67 83.89"/><path class="cls-11" d="M427.63,73.58a16.38,16.38,0,0,1-1.26,4h2.51A16.38,16.38,0,0,1,427.63,73.58Z"/><path class="cls-11" d="M436.18,73.58a16.38,16.38,0,0,1-1.26,4h2.51A16.38,16.38,0,0,1,436.18,73.58Z"/><polygon class="cls-11" points="428.64 79.89 428.64 77.86 426.63 77.86 426.63 79.89 426.38 79.89 426.38 116.05 428.89 116.05 428.89 79.89 428.64 79.89"/><polygon class="cls-11" points="437.18 79.89 437.18 77.86 435.17 77.86 435.17 79.89 434.92 79.89 434.92 116.05 437.43 116.05 437.43 79.89 437.18 79.89"/><rect class="cls-11" x="382.9" y="84.14" width="5.53" height="31.66"/><polygon class="cls-11" points="388.43 83.89 382.9 83.89 384.19 80.37 387.14 80.37 388.43 83.89"/><path class="cls-11" d="M381.4,73.58a16.38,16.38,0,0,1-1.26,4h2.51A16.38,16.38,0,0,1,381.4,73.58Z"/><path class="cls-11" d="M389.94,73.58a16.38,16.38,0,0,1-1.26,4h2.51A16.38,16.38,0,0,1,389.94,73.58Z"/><polygon class="cls-11" points="382.4 79.89 382.4 77.86 380.39 77.86 380.39 79.89 380.14 79.89 380.14 116.05 382.65 116.05 382.65 79.89 382.4 79.89"/><polygon class="cls-11" points="390.94 79.89 390.94 77.86 388.94 77.86 388.94 79.89 388.68 79.89 388.68 116.05 391.2 116.05 391.2 79.89 390.94 79.89"/><rect class="cls-11" x="324.6" y="84.14" width="5.53" height="31.66"/><polygon class="cls-11" points="330.13 83.89 324.61 83.89 325.89 80.37 328.84 80.37 330.13 83.89"/><path class="cls-11" d="M323.1,73.58a16.38,16.38,0,0,1-1.26,4h2.51A16.38,16.38,0,0,1,323.1,73.58Z"/><path class="cls-11" d="M331.64,73.58a16.38,16.38,0,0,1-1.26,4h2.51A16.38,16.38,0,0,1,331.64,73.58Z"/><polygon class="cls-11" points="324.1 79.89 324.1 77.86 322.09 77.86 322.09 79.89 321.84 79.89 321.84 116.05 324.35 116.05 324.35 79.89 324.1 79.89"/><polygon class="cls-11" points="332.65 79.89 332.65 77.86 330.64 77.86 330.64 79.89 330.38 79.89 330.38 116.05 332.9 116.05 332.9 79.89 332.65 79.89"/><rect class="cls-11" x="279.87" y="84.14" width="5.53" height="31.66"/><polygon class="cls-11" points="285.4 83.89 279.88 83.89 281.17 80.37 284.11 80.37 285.4 83.89"/><path class="cls-11" d="M278.37,73.58a16.38,16.38,0,0,1-1.26,4h2.51A16.38,16.38,0,0,1,278.37,73.58Z"/><path class="cls-11" d="M286.91,73.58a16.38,16.38,0,0,1-1.26,4h2.51A16.38,16.38,0,0,1,286.91,73.58Z"/><polygon class="cls-11" points="279.37 79.89 279.37 77.86 277.36 77.86 277.36 79.89 277.11 79.89 277.11 116.05 279.62 116.05 279.62 79.89 279.37 79.89"/><polygon class="cls-11" points="287.92 79.89 287.92 77.86 285.91 77.86 285.91 79.89 285.65 79.89 285.65 116.05 288.17 116.05 288.17 79.89 287.92 79.89"/><rect class="cls-11" x="259.27" y="84.14" width="5.53" height="31.66"/><polygon class="cls-11" points="264.8 83.89 259.27 83.89 260.56 80.37 263.51 80.37 264.8 83.89"/><path class="cls-11" d="M257.76,73.58a16.38,16.38,0,0,1-1.26,4H259A16.38,16.38,0,0,1,257.76,73.58Z"/><path class="cls-11" d="M266.31,73.58a16.38,16.38,0,0,1-1.26,4h2.51A16.38,16.38,0,0,1,266.31,73.58Z"/><polygon class="cls-11" points="258.77 79.89 258.77 77.86 256.76 77.86 256.76 79.89 256.5 79.89 256.5 116.05 259.02 116.05 259.02 79.89 258.77 79.89"/><polygon class="cls-11" points="267.31 79.89 267.31 77.86 265.3 77.86 265.3 79.89 265.05 79.89 265.05 116.05 267.56 116.05 267.56 79.89 267.31 79.89"/></g><g id="Person_on_Phone" data-name="Person on Phone"><path class="cls-18" d="M120,91.63c-.58-11.28-2.1-26-2.1-26a5,5,0,0,0-10,.89s1,7.37,2.16,15.59A17.07,17.07,0,0,0,108,82H76c-17,0-11,52-11,52a5,5,0,0,0,10,0s-4-42,1-42v94h0A7.49,7.49,0,0,0,91,186h0V134h2v52h0A7.49,7.49,0,0,0,108,186h0V92c2,0,3.2,1.92,3.92,4.23.41,3.34.7,6,.76,7.23a3.63,3.63,0,0,0,7,.54,6.83,6.83,0,0,0,.37-2A30.11,30.11,0,0,0,120,91.63Z"/><path class="cls-18" d="M91.93,77.61A12.8,12.8,0,1,0,79.15,64.77,12.86,12.86,0,0,0,91.93,77.61Z"/></g><polygon class="cls-19" points="109.63 75.47 103.81 73.94 108.45 57.6 114.19 58.06 109.63 75.47"/><line class="cls-20" x1="112" y1="59" x2="113.31" y2="54.31"/><circle class="cls-18" cx="113.31" cy="54.31" r="0.94"/><g id="Person_on_Phone-2" data-name="Person on Phone"><path class="cls-18" d="M362.48,90.63c.58-11.28,2.1-26,2.1-26a5,5,0,0,1,10,.89s-1,7.37-2.16,15.59a17.07,17.07,0,0,1,2.08-.14h32c17,0,11,52,11,52a5,5,0,0,1-10,0s4-42-1-42v94h0a7.49,7.49,0,0,1-14.95,0h0V133h-2v52h0a7.49,7.49,0,0,1-14.95,0h0V91c-2,0-3.2,1.92-3.92,4.23-.41,3.34-.7,6-.76,7.23a3.63,3.63,0,0,1-7,.54,6.83,6.83,0,0,1-.37-2A30.11,30.11,0,0,1,362.48,90.63Z"/><path class="cls-18" d="M390.54,76.61a12.8,12.8,0,1,1,12.78-12.84A12.86,12.86,0,0,1,390.54,76.61Z"/></g><polygon class="cls-21" points="372.44 75.47 378.25 73.94 373.62 57.6 367.87 58.06 372.44 75.47"/><line class="cls-20" x1="370.07" y1="59" x2="368.76" y2="54.31"/><circle class="cls-18" cx="368.76" cy="54.31" r="0.94"/><polygon class="cls-22" points="177.17 59.11 179.56 51.79 115.87 53.87 191.24 43.85 187.46 51.63 247.55 50.41 177.17 59.11"/><polygon class="cls-22" points="304.25 59.11 301.86 51.79 365.55 53.87 290.17 43.85 293.96 51.63 233.87 50.41 304.25 59.11"/><path class="cls-23" d="M275.81,42.54a22.5,22.5,0,0,0-42.16-15.15A16,16,0,0,0,208.5,40.5c0,.51,0,1,.08,1.5H208a14,14,0,0,0,0,28h64a14,14,0,0,0,3.81-27.46Z"/><rect class="cls-24" x="232.5" y="45" width="18" height="18" rx="2" ry="2"/><path class="cls-25" d="M245.5,44.5v-4a4,4,0,0,0-8,0v4h-2v-4a6,6,0,0,1,12,0v4Z"/><path class="cls-18" d="M243.5,53a2,2,0,1,0-3.5,1.31V57a1.5,1.5,0,0,0,3,0V54.31A2,2,0,0,0,243.5,53Z"/><path class="cls-26" d="M120,91.67l.09,1.21.51-.06S120.44,92.38,120,91.67Z"/><path class="cls-26" d="M110.06,82.11a10,10,0,0,0-2.06-.45h-7.23c-2,4-5.1,5.86-8.54,5.86s-6.51-1.89-8.54-5.86H76C67.84,81.16,65.3,94,65.3,94l9.4.94s.55-2.66,1.13-2.53v30h32.42V92.81c.19-2.1,2.6,1.21,2.6,1.21l.75-.09Z"/><path d="M91.08,92.13a.18.18,0,0,1,.29.13.18.18,0,0,1-.24.18A.16.16,0,0,1,91.08,92.13Zm1-.57v-.26c.11.06.21.12.33.18a5.2,5.2,0,0,0,0-.54l-.36.17c.08-.17.18-.34.27-.52a4.13,4.13,0,0,0-.64,0c.09.17.18.34.26.51a4.28,4.28,0,0,1-.37-.22,4,4,0,0,0,0,.58l.34-.2c0,.09,0,.18,0,.27s-.26.11-.33.23a.42.42,0,0,0,.19.6.45.45,0,0,0,.65-.41A.52.52,0,0,0,92.11,91.56Zm-.18.11c0,.08,0,.17,0,.25l-.23-.09Zm-.23.48a.57.57,0,0,1,.54.09A.46.46,0,0,1,91.69,92.16Zm.42-.22c0-.08,0-.16,0-.24l.18.18Zm.48.17c.13-.11.35.06.27.21a.18.18,0,0,1-.32,0A.16.16,0,0,1,92.59,92.11Zm-2,.12a.18.18,0,0,1,.28.17c0,.11-.17.21-.27.13A.17.17,0,0,1,90.57,92.23Zm2.59,0c.16-.06.34.17.18.28a.17.17,0,0,1-.28,0A.17.17,0,0,1,93.15,92.25ZM90,92.57c0-.17.34-.2.34,0s-.1.17-.17.22S90,92.68,90,92.57Zm3.62-.12c.09,0,.25,0,.25.12a.17.17,0,0,1-.28.15C93.48,92.66,93.53,92.49,93.63,92.45Zm-4.41.94a5.43,5.43,0,0,1,2.23-.88,4.84,4.84,0,0,1,.29,1l-.18,0a4.07,4.07,0,0,0-.24-.78,5.17,5.17,0,0,0-2.45,1.2l-.14-.09A2.62,2.62,0,0,1,89.22,93.39Zm2.68-.87c.21-.1.36.24.13.31A.17.17,0,0,1,91.9,92.52Zm.6,0a5.36,5.36,0,0,1,2.65,1.26l-.12.13a5.29,5.29,0,0,0-2.42-1.2,5.17,5.17,0,0,0-.25.78l-.17,0A4.73,4.73,0,0,1,92.5,92.53Zm-2.9.22c0-.09.13-.1.19-.15l.14.15c-.05.06-.08.17-.17.16S89.57,92.85,89.6,92.76Zm4.46,0c.08,0,.2,0,.24.06a.14.14,0,0,1-.09.21c-.09,0-.15-.06-.21-.11ZM89.15,93a.26.26,0,0,1,.31-.13,2.1,2.1,0,0,1,0,.24A.26.26,0,0,1,89.15,93Zm2.63,0a.25.25,0,0,1,.31-.13c0,.08,0,.16,0,.24A.26.26,0,0,1,91.78,93.06Zm2.74-.11c.2-.1.3.25.08.26A.14.14,0,0,1,94.52,92.95Zm-5.66.24a.46.46,0,0,1,.25.08,1.86,1.86,0,0,1-.11.16,1.21,1.21,0,0,1-.19,0C88.83,93.32,88.84,93.25,88.86,93.19Zm6.05,0a.44.44,0,0,1,.2,0l-.06.2h-.18C94.86,93.38,94.83,93.28,94.91,93.23Zm-3,.08.15,0c0,.07,0,.13,0,.2l-.19,0C91.86,93.45,91.8,93.35,91.89,93.32Zm-3.4.3a.23.23,0,0,1,.27-.13c0,.07,0,.14,0,.21A.38.38,0,0,1,88.49,93.62Zm6.69-.1h.23s0,.14,0,.18l-.21,0C95.19,93.65,95.18,93.58,95.17,93.52Zm.78.67L95.38,94a2.81,2.81,0,0,1,.16.62c-.11-.11-.22-.23-.33-.35a6.34,6.34,0,0,0-.28.83,5.26,5.26,0,0,0,.52-.18,1.09,1.09,0,0,1-.69.79.72.72,0,0,1-.84-.3.47.47,0,0,1,.08-.57.23.23,0,0,1,.35,0c.1.14,0,.32,0,.47a.87.87,0,0,0,.45-.39.53.53,0,0,0-.24-.74.64.64,0,0,0-.57.13,1.32,1.32,0,0,0,0-1.17,1.19,1.19,0,0,0-.44,1.08.66.66,0,0,0-.28-.24.47.47,0,0,0-.53.27.67.67,0,0,0,.15.66c.06-.12.09-.3.23-.35a.28.28,0,0,1,.34.23.56.56,0,0,1-.53.64.76.76,0,0,1-.71-.38.79.79,0,0,1-.07-.4,3.87,3.87,0,0,1,.38.25,7.12,7.12,0,0,0,0-.95c-.16.08-.3.19-.45.28.07-.22.16-.44.23-.66-.26,0-.52,0-.79,0,.07.23.17.46.24.69-.14-.11-.26-.23-.39-.34a6.42,6.42,0,0,0,0,.95,3.18,3.18,0,0,1,.45-.24,1,1,0,0,1-.23.54.84.84,0,0,1-.95.17.52.52,0,0,1-.33-.54.29.29,0,0,1,.39-.25c.16.07.14.27.2.4a.67.67,0,0,0,.27-.51.46.46,0,0,0-.53-.48.78.78,0,0,0-.29.17,1.21,1.21,0,0,0-.42-1,1.13,1.13,0,0,0-.05,1.06.61.61,0,0,0-.66.05.64.64,0,0,0,.13,1c0-.19,0-.46.18-.56a.34.34,0,0,1,.48.31c0,.41-.42.66-.77.62a1,1,0,0,1-.81-.82,2.19,2.19,0,0,1,.55.31,7.91,7.91,0,0,0-.24-1,1.45,1.45,0,0,1-.44.33c.09-.22.23-.42.34-.63a6.4,6.4,0,0,0-.68.16c0,.13.08.25.11.38a1.5,1.5,0,0,1,0,.41c0,.18.22.24.25.42s.09.36.14.53-.07.48-.06.73a4.81,4.81,0,0,0,.51.47,2.13,2.13,0,0,0,.38-.11,10.12,10.12,0,0,1,2.09-.32,8.09,8.09,0,0,1,3.63.5l.52-.6a5.34,5.34,0,0,1-.13-.61c.05-.19.13-.39.2-.58s.2-.23.24-.38,0-.21,0-.31S95.9,94.33,96,94.19ZM88.26,95a.33.33,0,0,1-.09-.37A.48.48,0,0,1,88.26,95Zm.51,1.65a1,1,0,0,1-.22-.21,2.65,2.65,0,0,1,.06-.28,1.42,1.42,0,0,1,.19.22A2.58,2.58,0,0,1,88.77,96.7Zm.43-.55.07-.15a.22.22,0,0,1,.18.17l-.15.07Zm.11.5,0-.18.14,0,.1.12A.64.64,0,0,1,89.31,96.64Zm1.41-.53a.5.5,0,0,1-.85.08.33.33,0,0,1,.22-.42C90.33,95.65,90.79,95.77,90.72,96.11ZM91,95.7l.21.07-.1.16L91,95.87Zm.16.64-.13,0v-.15h.15l.06.12Zm.69-1.91c.06-.07.16,0,.1.1S91.83,94.5,91.9,94.43Zm0,1.84-.18-.34.18-.34.19.32Zm.69.15-.14-.11.1-.15.15.08Zm0-.52c0-.07,0-.13,0-.2h.17c0,.06,0,.12,0,.18Zm1.36.27c-.12.35-.71.32-.86,0a.3.3,0,0,1,.23-.39C93.54,95.69,93.95,95.85,93.91,96.17Zm.41.48-.1-.09.09-.15.13.06v.12Zm.14-.42-.09-.1,0-.12h.19A.2.2,0,0,1,94.46,96.22Zm.65.52L95,96.45l.21-.26.11.3Zm.43-1.7a1,1,0,0,1,.09-.34.63.63,0,0,1,.07.24Zm-6,1.89a12.08,12.08,0,0,1,1.92-.23,9.45,9.45,0,0,1,2.72.22,1.33,1.33,0,0,1,.66.33,1.1,1.1,0,0,1-.67.28,12.26,12.26,0,0,1-1.44.12,16.52,16.52,0,0,1-2.89-.14,1.85,1.85,0,0,1-.87-.3A.85.85,0,0,1,89.57,96.95Z"/><path d="M87.56,99.93h.55v1l1-1h.72L88.7,101.1l1.21,1.34h-.77l-1-1.19v1.19h-.55Z"/><path d="M90.12,99.93h1.71v.51H90.67v.47h1.09v.51H90.67v.51h1.22v.51H90.12Z"/><path d="M92.36,99.93h1.71v.51H92.91v.47H94v.51H92.91v.51h1.22v.51H92.36Z"/><path d="M94.57,99.93h.93a1.86,1.86,0,0,1,.37,0,.84.84,0,0,1,.3.12.63.63,0,0,1,.21.23.8.8,0,0,1,.08.37.85.85,0,0,1-.07.37.61.61,0,0,1-.2.24.79.79,0,0,1-.29.13,1.69,1.69,0,0,1-.37,0h-.4v1h-.55Zm.55,1.06h.51l.12,0a.26.26,0,0,0,.09-.09.3.3,0,0,0,0-.15.25.25,0,0,0,0-.15.3.3,0,0,0-.11-.09l-.15,0h-.45Z"/><path d="M88.66,104.84a.54.54,0,0,0-.2-.15.66.66,0,0,0-.27-.05.69.69,0,0,0-.29.06.69.69,0,0,0-.23.17.77.77,0,0,0-.15.26,1,1,0,0,0,0,.65.81.81,0,0,0,.15.25.68.68,0,0,0,.23.17.65.65,0,0,0,.28.06.63.63,0,0,0,.3-.07.6.6,0,0,0,.22-.2l.46.34a1,1,0,0,1-.4.33,1.24,1.24,0,0,1-.5.11,1.55,1.55,0,0,1-.54-.09,1.24,1.24,0,0,1-.43-.26A1.19,1.19,0,0,1,87,106a1.53,1.53,0,0,1,0-1.09,1.2,1.2,0,0,1,.28-.42,1.25,1.25,0,0,1,.43-.26,1.55,1.55,0,0,1,.54-.09l.22,0,.23.06a1,1,0,0,1,.21.11.89.89,0,0,1,.18.17Z"/><path d="M90.27,104.19h.46l1.09,2.51H91.2l-.22-.53H90l-.21.53h-.61Zm.21.73-.3.78h.61Z"/><path d="M92.09,104.19h.55v2h1v.51H92.09Z"/><path d="M94,104.19h.84l.58,1.64h0l.58-1.64h.83v2.51h-.55v-1.93h0l-.66,1.93h-.42l-.63-1.93h0v1.93H94Z"/><path d="M89.9,107.86h.31l.73,1.67h-.42l-.14-.35h-.65l-.14.35h-.41Zm.14.49-.2.52h.41Z"/><path d="M91.1,107.86h.5l.71,1.16h0v-1.16h.37v1.67h-.48l-.73-1.19h0v1.19H91.1Z"/><path d="M93,107.86h.55a1.56,1.56,0,0,1,.38,0,.86.86,0,0,1,.32.15.71.71,0,0,1,.21.26.88.88,0,0,1,.08.39.8.8,0,0,1-.08.36.78.78,0,0,1-.21.26.91.91,0,0,1-.3.16,1.17,1.17,0,0,1-.36.05H93Zm.37,1.33h.19l.24,0a.52.52,0,0,0,.19-.09.41.41,0,0,0,.13-.16.56.56,0,0,0,0-.24.47.47,0,0,0,0-.21.44.44,0,0,0-.12-.15.55.55,0,0,0-.18-.09.82.82,0,0,0-.22,0H93.4Z"/><path d="M87.9,111.93a.54.54,0,0,0-.2-.15.66.66,0,0,0-.27-.05.69.69,0,0,0-.29.06.69.69,0,0,0-.23.17.77.77,0,0,0-.15.26,1,1,0,0,0,0,.65.81.81,0,0,0,.15.25.68.68,0,0,0,.23.17.65.65,0,0,0,.28.06.63.63,0,0,0,.3-.07.6.6,0,0,0,.22-.2l.46.34a1,1,0,0,1-.4.33,1.24,1.24,0,0,1-.5.11,1.55,1.55,0,0,1-.54-.09,1.24,1.24,0,0,1-.43-.26,1.19,1.19,0,0,1-.28-.42,1.53,1.53,0,0,1,0-1.09,1.2,1.2,0,0,1,.28-.42,1.25,1.25,0,0,1,.43-.26,1.55,1.55,0,0,1,.54-.09l.22,0,.23.06a1,1,0,0,1,.21.11.89.89,0,0,1,.18.17Z"/><path d="M90.81,112.82a1.21,1.21,0,0,1-.07.41.9.9,0,0,1-.2.33.92.92,0,0,1-.33.22,1.39,1.39,0,0,1-.92,0,.92.92,0,0,1-.33-.22.91.91,0,0,1-.2-.33,1.21,1.21,0,0,1-.07-.41v-1.54h.55v1.52a.61.61,0,0,0,0,.22.51.51,0,0,0,.1.17.47.47,0,0,0,.16.11.52.52,0,0,0,.2,0,.51.51,0,0,0,.2,0,.48.48,0,0,0,.16-.11.51.51,0,0,0,.1-.17.6.6,0,0,0,0-.22v-1.52h.55Z"/><path d="M91.32,111.28h1a1.68,1.68,0,0,1,.36,0,.86.86,0,0,1,.3.12.61.61,0,0,1,.21.23.78.78,0,0,1,.08.37.74.74,0,0,1-.14.45.62.62,0,0,1-.4.24l.64,1.06h-.66l-.52-1h-.27v1h-.55Zm.55,1h.48l.15,0a.27.27,0,0,0,.11-.08.25.25,0,0,0,0-.16.26.26,0,0,0,0-.15.25.25,0,0,0-.1-.09l-.14,0h-.51Z"/><path d="M93.62,111.28h1a1.68,1.68,0,0,1,.36,0,.86.86,0,0,1,.3.12.61.61,0,0,1,.21.23.78.78,0,0,1,.08.37.74.74,0,0,1-.14.45.62.62,0,0,1-.4.24l.64,1.06H95l-.52-1h-.27v1h-.55Zm.55,1h.48l.15,0a.27.27,0,0,0,.11-.08.25.25,0,0,0,0-.16.26.26,0,0,0,0-.15.25.25,0,0,0-.1-.09l-.14,0h-.51Z"/><path d="M96.4,112.72l-.94-1.44h.69l.53.94.56-.94h.66L97,112.72v1.07H96.4Z"/><path d="M89.12,116.79a1.42,1.42,0,0,1,.1-.55,1.2,1.2,0,0,1,.28-.42,1.25,1.25,0,0,1,.43-.26,1.63,1.63,0,0,1,1.09,0,1.25,1.25,0,0,1,.43.26,1.2,1.2,0,0,1,.28.42,1.53,1.53,0,0,1,0,1.09,1.19,1.19,0,0,1-.28.42A1.24,1.24,0,0,1,91,118a1.65,1.65,0,0,1-1.09,0,1.24,1.24,0,0,1-.43-.26,1.19,1.19,0,0,1-.28-.42A1.42,1.42,0,0,1,89.12,116.79Zm.57,0a.93.93,0,0,0,.05.33.75.75,0,0,0,.16.25.72.72,0,0,0,.25.17.89.89,0,0,0,.64,0,.72.72,0,0,0,.25-.17.75.75,0,0,0,.16-.25,1,1,0,0,0,0-.65.73.73,0,0,0-.16-.26.72.72,0,0,0-.25-.17.88.88,0,0,0-.64,0,.72.72,0,0,0-.25.17.73.73,0,0,0-.16.26A.93.93,0,0,0,89.69,116.79Z"/><path d="M92.2,115.54H93L94,117.28h0v-1.75h.55V118h-.72l-1.1-1.79h0V118H92.2Z"/><path class="cls-26" d="M362.62,90.08c-.42.72-.64,1.18-.64,1.18l.55.13Z"/><path class="cls-26" d="M406.52,80.67h-7.69c-2,4-5.1,5.86-8.54,5.86s-6.51-1.89-8.54-5.86h-7.23a10.51,10.51,0,0,0-2.12.45l-1.58,12.29.75.18s2.51-3.88,2.7-1.77v29.52h32.42v-30c.58-.13,1.13,2.53,1.13,2.53l9.4-.94S414.68,80.16,406.52,80.67Z"/><path d="M385.17,99.42c.11,0,.17-.07.2-.21a2.33,2.33,0,0,0,0-.34V96.66a2.13,2.13,0,0,0,0-.33c0-.14-.09-.21-.2-.21l-.19,0-.2,0a.38.38,0,0,1-.31-.15.65.65,0,0,1,0-.8.57.57,0,0,1,.42-.16l.56,0a5.45,5.45,0,0,0,.58,0l.64,0,.56,0a.52.52,0,0,1,.58.58.57.57,0,0,1-.12.38.38.38,0,0,1-.31.15l-.19,0-.19,0q-.22,0-.22.54v2.22q0,.54.22.54l.19,0,.19,0a.38.38,0,0,1,.31.15.57.57,0,0,1,.12.38.6.6,0,0,1-.16.42.51.51,0,0,1-.4.17h-.07l-.5-.06-.42,0a7.49,7.49,0,0,0-.75,0l-.62,0a.56.56,0,0,1-.42-.16.64.64,0,0,1,0-.8.4.4,0,0,1,.32-.15l.19,0Z"/><path d="M387.55,105.21l1.41,3.42v-2.37q0-.53-.21-.54l-.16,0-.16,0a.35.35,0,0,1-.28-.15.6.6,0,0,1-.12-.38.59.59,0,0,1,.15-.42.53.53,0,0,1,.4-.16l.44,0a4.27,4.27,0,0,0,.55,0l.5,0,.54,0a.56.56,0,0,1,.42.16.57.57,0,0,1,.16.42.56.56,0,0,1-.13.38.39.39,0,0,1-.31.15l-.19,0-.18,0q-.16,0-.21.2a2.19,2.19,0,0,0,0,.34v3.26q0,.53-.43.53h-.49l-.39,0h-.18a.47.47,0,0,1-.34-.11,1.33,1.33,0,0,1-.18-.34l-1.54-3.52v2.42c0,.36.07.54.21.54l.17,0,.17,0a.35.35,0,0,1,.28.15.6.6,0,0,1,.12.38q0,.58-.56.58a4.6,4.6,0,0,1-.53,0,3.84,3.84,0,0,0-.5,0l-.56,0-.45,0a.52.52,0,0,1-.58-.58.57.57,0,0,1,.12-.38.38.38,0,0,1,.31-.15l.2,0,.19,0q.22,0,.22-.54v-2.22q0-.53-.22-.54l-.19,0-.2,0a.38.38,0,0,1-.31-.15.64.64,0,0,1,0-.8.56.56,0,0,1,.42-.16l.49,0a4.15,4.15,0,0,0,.5,0l.52,0,.38,0,.21,0a.39.39,0,0,1,.34.17A2.62,2.62,0,0,1,387.55,105.21Z"/><path d="M394.19,106.12l.43.86.48-.86a1,1,0,0,0,.14-.32c0-.06-.05-.12-.16-.18a.4.4,0,0,1-.21-.38.51.51,0,0,1,.58-.57l.35,0,.53.06.42,0,.41,0a.55.55,0,0,1,.41.16.66.66,0,0,1,0,.8.36.36,0,0,1-.29.15l-.22,0-.16,0a.23.23,0,0,0-.17.06,2.67,2.67,0,0,0-.23.34l-1.06,1.69a1.3,1.3,0,0,0-.19.62v.22q0,.37.26.37l.25,0,.24,0a.39.39,0,0,1,.32.15.6.6,0,0,1,.12.39.55.55,0,0,1-.16.42.6.6,0,0,1-.43.15l-.61,0-.62,0-.66,0-.66,0a.57.57,0,0,1-.42-.16.56.56,0,0,1-.16-.42q0-.54.46-.54l.24,0,.24,0c.15,0,.23-.12.23-.37v-.22a1.16,1.16,0,0,0-.21-.58l-1.18-1.94a.31.31,0,0,0-.27-.18l-.15,0-.22,0q-.38,0-.38-.49t.56-.62l.46,0a3.93,3.93,0,0,0,.48,0,4.05,4.05,0,0,0,.56,0l.36,0q.54,0,.54.6a.35.35,0,0,1-.18.34l-.16.09a.08.08,0,0,0,0,.08v0a.26.26,0,0,0,0,.13A1.49,1.49,0,0,0,394.19,106.12Z"/><path class="cls-27" d="M394.88,94.43a1.78,1.78,0,0,1,1.69,1.22,3,3,0,0,1,.09.58,2.64,2.64,0,0,1-.64,1.49l-.32.32h0a2.37,2.37,0,0,1,.85-.15h.1A1.83,1.83,0,0,1,398.45,99a2.06,2.06,0,0,1,.12.68,1.78,1.78,0,0,1-1.12,1.66,3.07,3.07,0,0,1-.6.1A1.91,1.91,0,0,1,395,99.93h0v0a4.47,4.47,0,0,0,.44,2.43v0h-1.12l0,0a4.79,4.79,0,0,0,.46-2.48v0h0a1.91,1.91,0,0,1-1.85,1.49,1.71,1.71,0,0,1-1.57-1.08,2,2,0,0,1-.13-.68,1.69,1.69,0,0,1,1.32-1.7,3.56,3.56,0,0,1,.63-.06h0A2.59,2.59,0,0,1,394,98h0v0a2.1,2.1,0,0,1-.61-.75,2.22,2.22,0,0,1-.32-1v-.08a1.77,1.77,0,0,1,1.16-1.64A2.48,2.48,0,0,1,394.88,94.43Z"/></g></svg>