<svg xmlns="http://www.w3.org/2000/svg" xmlns:xlink="http://www.w3.org/1999/xlink" viewBox="0 0 480 200"><defs><style>.cls-1{fill:#dcd2c8;}.cls-2{fill:#8f8274;}.cls-3{fill:url(#radial-gradient);}.cls-4{fill:#fff;}.cls-5{fill:#66868f;}</style><radialGradient id="radial-gradient" cx="281.33" cy="166.56" r="3.08" gradientUnits="userSpaceOnUse"><stop offset="0" stop-color="#fff"/><stop offset="1" stop-color="#8f8274" stop-opacity="0"/></radialGradient></defs><title>mobile_video_communications</title><g id="Background"><rect class="cls-1" width="480" height="200"/></g><g id="Layer_1" data-name="Layer 1"><path class="cls-2" d="M141,115a16.63,16.63,0,0,1-.8,5.13,7.28,7.28,0,0,1,2.85,1.36h1v.95a7.17,7.17,0,0,1,1.16,1.82l18.39,41.49v-55H140.38A16.8,16.8,0,0,1,141,115Z"/><path class="cls-2" d="M106.82,139.57l-14.17,9.51a7.24,7.24,0,0,1-10.65-9c1.35-3,8.53-17.87,20.07-18.64v0l1,0h4.76l.35-.23-.08-.22a16.74,16.74,0,0,1-.52-10.35H0V167.1H71Z"/><path class="cls-2" d="M111.88,103.08H0v6.56H107.87A17,17,0,0,1,111.88,103.08Z"/><path class="cls-2" d="M136,103.08a17.05,17.05,0,0,1,4,6.56h28.73v-6.56Z"/><path class="cls-2" d="M158,178.25a7.2,7.2,0,0,1-2.56-.49l.24,2.15h3.94l.21-1.91A7.17,7.17,0,0,1,158,178.25Z"/><polygon class="cls-2" points="144.19 167.1 148.34 167.1 144.37 158.13 144.19 167.1"/><path class="cls-2" d="M394.5,167.1h15.94l1.4-4.05A77.77,77.77,0,0,1,395.48,154Z"/><polygon class="cls-2" points="330.38 179.92 334.32 179.92 335.63 168.1 329.06 168.1 330.38 179.92"/><polygon class="cls-2" points="379.79 167.1 380.84 153.05 366.59 167.1 379.79 167.1"/><path class="cls-2" d="M321.19,103.08v6.56h30.08c.21-.19.4-.39.61-.57a17.3,17.3,0,0,1,22.9.57H480v-6.56Z"/><path class="cls-2" d="M376.09,111a17.23,17.23,0,1,1-25.82-.36H326.44V167.1H345.7l30.89-30.47-1-1.16-.65-.76,16-13.64.65.76c10.12,11.84,19.4,17.69,25.41,20.52a41.48,41.48,0,0,0,7.46,2.72,10.6,10.6,0,0,1,1.17-.06,10.36,10.36,0,0,1,3.39.57,10.51,10.51,0,0,1,6.5,13.35l-2.39,6.94,30.47.14a10.44,10.44,0,0,1,4.62,1.1H480V110.65H375.74C375.86,110.77,376,110.88,376.09,111Z"/><rect class="cls-2" x="257.2" y="145.74" width="6.17" height="27.76" rx="3" ry="3"/><rect class="cls-2" x="299.16" y="145.74" width="6.17" height="27.76" rx="3" ry="3"/><rect class="cls-2" x="264.36" y="147.28" width="33.93" height="24.67" rx="2.99" ry="2.99"/><circle class="cls-3" cx="281.33" cy="166.56" r="3.08"/><circle class="cls-4" cx="281.33" cy="166.56" r="0.77"/><rect class="cls-2" x="278.24" y="66.97" width="6.17" height="79.32"/><rect class="cls-2" x="264.36" y="23.15" width="33.93" height="43.18" rx="2.96" ry="2.96"/><rect class="cls-4" x="267.45" y="26.23" width="27.76" height="35.47"/><path class="cls-5" d="M284.69,41.39a5.42,5.42,0,1,0-5.41-5.44A5.45,5.45,0,0,0,284.69,41.39Z"/><path class="cls-5" d="M294.79,61V45.63a3.74,3.74,0,0,0-3.29-2.38H277.94a3.93,3.93,0,0,0-3.79,2.51c-.56-2.74-1-5.26-1-5.26a2.12,2.12,0,1,0-4.08,1.14s2.82,13.1,6,14.73a1.82,1.82,0,0,0,2.54-.85c.59-1.18-1.63-7.85.35-8V61h13.55V47.48c1.44,0,1.12,8.26.76,13.52Z"/><path class="cls-4" d="M366,183c-12.45,0-19.58-8.84-21.13-11H158.74c-.42,2.85-2.52,11-12.74,11v-2c10.37,0,10.83-9.62,10.85-10l0-1H345.93l.3.46c.07.11,7,10.54,19.77,10.54Z"/><g id="Person"><path class="cls-5" d="M81.63,177.59s0-.09,0-.14c0-.23,0-.47.07-.7s0-.17,0-.26.07-.41.12-.62,0-.22.08-.33.1-.37.16-.56l.12-.37q.09-.25.19-.5l.18-.4c.07-.15.14-.3.22-.45l.24-.42.25-.41c.09-.14.2-.29.3-.43l.27-.36c.12-.15.24-.29.37-.43l.28-.31c.15-.16.31-.3.48-.45l.25-.23c.26-.22.52-.43.81-.62l35.95-25a9.33,9.33,0,0,0-14.5-4.29L69.26,169.68a9.36,9.36,0,1,0,11.4,14.85l2.12-1.63h0A10.3,10.3,0,0,1,81.63,177.59Z"/><path class="cls-5" d="M163.7,168.48l-19.44-43.87a6.21,6.21,0,0,0-1.25-1.83v-.34h-.36a6.25,6.25,0,0,0-3.85-1.53,15.75,15.75,0,0,0,1.16-6A16,16,0,1,0,109,120.64L116,116a7.21,7.21,0,0,1,4-1.23h5.08a7.24,7.24,0,1,1,0,14.48h-2.88l-14.3,9.6A10.31,10.31,0,0,1,122.84,144l5.44-3.78a10.36,10.36,0,0,1,16.27,8.72l-.14,6.82,7.87,17.77a6.24,6.24,0,1,0,11.41-5.06Z"/><path class="cls-5" d="M143.56,148.93a9.36,9.36,0,0,0-14.7-7.88L86.62,170.42A9.36,9.36,0,1,0,97.3,185.79l6.67-4.64h0l19.58-13.61h0l.21-.15a.46.46,0,0,1,.17,0,.5.5,0,0,1,.5.5v.78l-.13,6.59c0,.09,0,.17,0,.26a.49.49,0,0,1-.37.18.5.5,0,0,1-.5-.5v-6.32L104.49,182a8,8,0,0,0,6.56,3.46h24a8,8,0,0,0,8-8v-4.4Z"/><path class="cls-5" d="M125.08,115.76H120a6.24,6.24,0,0,0-3.48,1.06l-10,6.72h0l-13,8.76a.5.5,0,0,1-.56-.83l10.16-6.82h0l1.59-1.07.86-.57h0l.83-.55h-3.27v0H103c-11.47,0-18.75,15.06-20.09,18.07a6.24,6.24,0,0,0,9.18,7.72l29.81-20h3.18a6.24,6.24,0,1,0,0-12.48Z"/></g><g id="Person-2" data-name="Person"><path class="cls-5" d="M373.52,134.56a16.22,16.22,0,1,1,1.81-22.9A16.2,16.2,0,0,1,373.52,134.56Z"/><path class="cls-5" d="M463.54,167l-31.87-.14,2.85-8.26a9.48,9.48,0,0,0-10.17-12.51,42,42,0,0,1-7.82-2.83c-6.1-2.86-15.51-8.79-25.74-20.77l-14.44,12.34c.54.64,1.09,1.24,1.63,1.86l-31.82,31.38a6.33,6.33,0,1,0,8.89,9l27-26.62L379.9,179a6.33,6.33,0,0,0,5.84,6.79l.48,0a6.34,6.34,0,0,0,6.31-5.86l2.09-27.82a77,77,0,0,0,18.48,10.33l-3.7,10.74a9.5,9.5,0,0,0,8.94,12.59l45.13.2h0a9.5,9.5,0,0,0,0-19Z"/></g><path class="cls-5" d="M208.49,92.33A17.16,17.16,0,1,0,191.3,75.14,17.15,17.15,0,0,0,208.49,92.33Z"/><path class="cls-5" d="M253.33,84.88a6.67,6.67,0,0,0-8.47,5.8c-.46,2.51-1.63,8.79-3,15.5-2.07-4.64-5.76-7.88-12-8H186.95c-22.79,0-14.74,69.7-14.74,69.7a6.7,6.7,0,1,0,13.3-1.15c-.72-8-4.69-55.15,1.45-55.15V200h20.11V167.91h2.68V200h20.11V111.64c6.28.52-.76,21.7,1.11,25.44,2.68,5.36,8,2.78,8,2.68,10.07-5.18,19-46.62,19-46.62A6.7,6.7,0,0,0,253.33,84.88Z"/></g></svg>