<svg xmlns="http://www.w3.org/2000/svg" viewBox="0 0 480 200"><defs><style>.cls-1{fill:#fffad5;}.cls-2{fill:#bd4932;}.cls-3{fill:#105b63;}.cls-4{fill:#db9e36;}.cls-5{fill:#696969;}.cls-6{fill:#a5a5a5;}.cls-7{fill:#868686;}</style></defs><title>biometric_lock_module</title><g id="Background"><rect class="cls-1" width="164" height="200"/><rect class="cls-2" x="160" width="320" height="200"/></g><g id="Layer_1" data-name="Layer 1"><path class="cls-3" d="M137.48,61.37a7.21,7.21,0,0,0-9.15,6.27c-.5,2.71-1.76,9.5-3.25,16.73-2.26-5.08-6.32-8.61-13.21-8.61H66.24c-24.23,0-15.68,74.13-15.68,74.13a7.13,7.13,0,1,0,14.14-1.22c-.76-8.48-5-58.65,1.54-58.65V200H87.63V149.89h2.85V200h21.38V90.24c7.24,0,2.3,23.41,4.34,27.5,2.89,5.79,8.66,3,8.68,2.89,10.87-5.59,17.6-50.33,17.6-50.34h0A7.24,7.24,0,0,0,137.48,61.37Z"/><path class="cls-3" d="M88.95,69.51a18.25,18.25,0,1,0-18.22-18.3A18.33,18.33,0,0,0,88.95,69.51Z"/><circle class="cls-3" cx="106" cy="57" r="2"/><rect class="cls-4" x="189.93" y="40" width="64" height="50" rx="6" ry="6"/><path class="cls-1" d="M219.24,81.55V81.1A8.83,8.83,0,0,1,221,82.25V72.88h.59v9.36a6.27,6.27,0,0,1,1.81-1.15v.45a7.75,7.75,0,0,0-2,2.43h-.27A7.37,7.37,0,0,0,219.24,81.55Z"/><path class="cls-1" d="M199.75,55.06a2.3,2.3,0,0,0,1.16.35c.64,0,.94-.32.94-.72s-.25-.65-.9-.89c-.87-.31-1.28-.79-1.28-1.37A1.49,1.49,0,0,1,201.34,51a2.41,2.41,0,0,1,1.19.3l-.22.64a1.88,1.88,0,0,0-1-.28c-.52,0-.81.3-.81.66s.29.58.92.82c.84.32,1.27.74,1.27,1.46s-.66,1.45-1.81,1.45a2.76,2.76,0,0,1-1.36-.33Z"/><path class="cls-1" d="M207.28,55.78a3.24,3.24,0,0,1-1.39.28,2.3,2.3,0,0,1-2.41-2.47,2.46,2.46,0,0,1,2.6-2.57,2.94,2.94,0,0,1,1.22.25l-.2.68a2,2,0,0,0-1-.23,1.82,1.82,0,0,0,0,3.64,2.49,2.49,0,0,0,1.08-.24Z"/><path class="cls-1" d="M211,56l-.07-.61h0a1.8,1.8,0,0,1-1.48.72,1.38,1.38,0,0,1-1.48-1.39c0-1.17,1-1.81,2.91-1.8v-.1a1,1,0,0,0-1.1-1.12,2.41,2.41,0,0,0-1.26.36l-.2-.58a3,3,0,0,1,1.59-.43c1.48,0,1.84,1,1.84,2V54.8a6.75,6.75,0,0,0,.08,1.16Zm-.13-2.47c-1,0-2,.15-2,1.09a.78.78,0,0,0,.83.84,1.2,1.2,0,0,0,1.17-.81.94.94,0,0,0,0-.28Z"/><path class="cls-1" d="M213.13,52.43c0-.5,0-.91,0-1.31h.78l.05.8h0a1.78,1.78,0,0,1,1.6-.91c.67,0,1.71.4,1.71,2.06V56h-.88V53.17c0-.78-.29-1.43-1.12-1.43a1.25,1.25,0,0,0-1.18.9A1.27,1.27,0,0,0,214,53V56h-.88Z"/><path class="cls-1" d="M220.89,56V51.79h-.68v-.67h.68v-.26A1.94,1.94,0,0,1,223,48.75a2.43,2.43,0,0,1,1.23.32l-.25.67a1.85,1.85,0,0,0-1-.28c-.93,0-1.2.65-1.2,1.42v.24h2.81V56h-.87V51.79h-1.94V56Z"/><path class="cls-1" d="M226,52.43c0-.5,0-.91,0-1.31h.78l.05.8h0a1.78,1.78,0,0,1,1.6-.91c.67,0,1.71.4,1.71,2.06V56h-.88V53.17c0-.78-.29-1.43-1.12-1.43a1.25,1.25,0,0,0-1.18.9,1.27,1.27,0,0,0-.06.41V56H226Z"/><path class="cls-1" d="M235.75,51.12c0,.35,0,.74,0,1.33v2.81a2.78,2.78,0,0,1-.69,2.21,2.57,2.57,0,0,1-1.76.58,3.12,3.12,0,0,1-1.61-.4l.22-.67a2.73,2.73,0,0,0,1.42.38c.9,0,1.56-.47,1.56-1.69v-.54h0a1.73,1.73,0,0,1-1.54.81,2.16,2.16,0,0,1-2.06-2.36A2.32,2.32,0,0,1,233.41,51a1.61,1.61,0,0,1,1.51.84h0l0-.73ZM234.84,53a1.25,1.25,0,0,0-.05-.4,1.27,1.27,0,0,0-1.23-.93c-.84,0-1.44.71-1.44,1.83,0,.95.48,1.74,1.43,1.74a1.29,1.29,0,0,0,1.22-.9,1.54,1.54,0,0,0,.07-.47Z"/><path class="cls-1" d="M237.66,53.7a1.55,1.55,0,0,0,1.66,1.68,3.18,3.18,0,0,0,1.34-.25l.15.63a3.92,3.92,0,0,1-1.61.3,2.25,2.25,0,0,1-2.38-2.44A2.35,2.35,0,0,1,239.09,51a2,2,0,0,1,2,2.28,3.16,3.16,0,0,1,0,.41Zm2.58-.63A1.25,1.25,0,0,0,239,51.64a1.46,1.46,0,0,0-1.35,1.43Z"/><path class="cls-1" d="M242.18,52.63c0-.57,0-1.06,0-1.51h.77l0,.95h0A1.45,1.45,0,0,1,244.32,51a1,1,0,0,1,.25,0v.83a1.32,1.32,0,0,0-.3,0A1.23,1.23,0,0,0,243.09,53a2.53,2.53,0,0,0,0,.41V56h-.87Z"/><path class="cls-1" d="M202.62,68V63.79h-.68v-.67h.68v-.23a2.28,2.28,0,0,1,.56-1.69,1.68,1.68,0,0,1,1.18-.45,2,2,0,0,1,.75.14l-.12.68a1.32,1.32,0,0,0-.56-.11c-.75,0-.94.66-.94,1.4v.26h1.17v.67h-1.17V68Z"/><path class="cls-1" d="M209.7,65.5a2.36,2.36,0,0,1-2.41,2.57A2.3,2.3,0,0,1,205,65.58a2.36,2.36,0,0,1,2.4-2.57A2.29,2.29,0,0,1,209.7,65.5Zm-3.84,0c0,1.06.61,1.86,1.47,1.86s1.47-.79,1.47-1.88c0-.82-.41-1.86-1.45-1.86S205.86,64.63,205.86,65.55Z"/><path class="cls-1" d="M210.81,64.63c0-.57,0-1.06,0-1.51h.77l0,.95h0A1.45,1.45,0,0,1,213,63a1,1,0,0,1,.25,0v.83a1.32,1.32,0,0,0-.3,0A1.23,1.23,0,0,0,211.72,65a2.53,2.53,0,0,0,0,.41V68h-.87Z"/><path class="cls-1" d="M218.88,68l-.07-.61h0a1.8,1.8,0,0,1-1.48.72,1.38,1.38,0,0,1-1.48-1.39c0-1.17,1-1.81,2.91-1.8v-.1a1,1,0,0,0-1.1-1.12,2.41,2.41,0,0,0-1.26.36l-.2-.58a3,3,0,0,1,1.59-.43c1.48,0,1.84,1,1.84,2V66.8a6.75,6.75,0,0,0,.08,1.16Zm-.13-2.47c-1,0-2,.15-2,1.09a.78.78,0,0,0,.83.84,1.2,1.2,0,0,0,1.17-.81.94.94,0,0,0,0-.28Z"/><path class="cls-1" d="M224.47,67.78a3.24,3.24,0,0,1-1.39.28,2.3,2.3,0,0,1-2.41-2.47,2.46,2.46,0,0,1,2.6-2.57,2.94,2.94,0,0,1,1.22.25l-.2.68a2,2,0,0,0-1-.23,1.82,1.82,0,0,0,0,3.64,2.49,2.49,0,0,0,1.08-.24Z"/><path class="cls-1" d="M228.89,67.78a3.24,3.24,0,0,1-1.39.28,2.3,2.3,0,0,1-2.41-2.47,2.46,2.46,0,0,1,2.6-2.57,2.94,2.94,0,0,1,1.22.25l-.2.68a2,2,0,0,0-1-.23,1.82,1.82,0,0,0,0,3.64,2.49,2.49,0,0,0,1.08-.24Z"/><path class="cls-1" d="M230.36,65.7A1.55,1.55,0,0,0,232,67.38a3.18,3.18,0,0,0,1.34-.25l.15.63a3.92,3.92,0,0,1-1.61.3,2.25,2.25,0,0,1-2.38-2.44A2.35,2.35,0,0,1,231.78,63a2,2,0,0,1,2,2.28,3.16,3.16,0,0,1,0,.41Zm2.58-.63a1.25,1.25,0,0,0-1.22-1.43,1.46,1.46,0,0,0-1.35,1.43Z"/><path class="cls-1" d="M234.75,67.06a2.3,2.3,0,0,0,1.16.35c.64,0,.94-.32.94-.72s-.25-.65-.9-.89c-.87-.31-1.28-.79-1.28-1.37A1.49,1.49,0,0,1,236.34,63a2.41,2.41,0,0,1,1.19.3l-.22.64a1.88,1.88,0,0,0-1-.28c-.52,0-.81.3-.81.66s.29.58.92.82c.84.32,1.27.74,1.27,1.46s-.66,1.45-1.81,1.45a2.76,2.76,0,0,1-1.36-.33Z"/><path class="cls-1" d="M238.71,67.06a2.3,2.3,0,0,0,1.16.35c.64,0,.94-.32.94-.72s-.25-.65-.9-.89c-.87-.31-1.28-.79-1.28-1.37A1.49,1.49,0,0,1,240.3,63a2.41,2.41,0,0,1,1.19.3l-.22.64a1.88,1.88,0,0,0-1-.28c-.52,0-.81.3-.81.66s.29.58.92.82c.84.32,1.27.74,1.27,1.46s-.66,1.45-1.81,1.45a2.76,2.76,0,0,1-1.36-.33Z"/><rect class="cls-4" x="283" y="11" width="112" height="189"/><path class="cls-3" d="M257.62,153.86a26.52,26.52,0,0,1-17-6.39A22.77,22.77,0,0,1,232.5,130h1c0,11,9.22,22.86,24.12,22.86A18.12,18.12,0,0,0,270.4,148c3.66-3.56,5.6-8.93,5.6-15.54h1c0,6.88-2,12.51-5.9,16.26A19.11,19.11,0,0,1,257.62,153.86Z"/><rect class="cls-5" x="280" y="111" width="38" height="13"/><rect class="cls-4" x="208" y="102" width="28" height="30"/><rect class="cls-3" x="218" y="112" width="7" height="10"/><rect class="cls-6" x="269" y="101" width="23" height="33" rx="3" ry="3"/><rect class="cls-5" x="271" y="103" width="2" height="2" rx="1" ry="1"/><rect class="cls-5" x="288" y="103" width="2" height="2" rx="1" ry="1"/><rect class="cls-5" x="271" y="130" width="2" height="2" rx="1" ry="1"/><rect class="cls-5" x="288" y="130" width="2" height="2" rx="1" ry="1"/><rect class="cls-6" x="301" y="107" width="13" height="23" rx="3" ry="3"/><rect class="cls-5" x="303" y="126" width="2" height="2" rx="1" ry="1"/><rect class="cls-5" x="310" y="126" width="2" height="2" rx="1" ry="1"/><path class="cls-7" d="M88.48,24a1.68,1.68,0,1,1,3.36,0,1.58,1.58,0,0,1-1.68,1.65A1.63,1.63,0,0,1,88.48,24ZM91.63,6.76c0,.45-.06,1.08-.21,2.67l-.87,9.69a.63.63,0,0,1-.78,0L88.9,9.43c-.15-1.59-.21-2.22-.21-2.67,0-.75.51-.87,1.47-.87S91.63,6,91.63,6.76Z"/><rect class="cls-7" x="135.42" y="54.01" width="5" height="1" transform="translate(61.77 181.76) rotate(-80.67)"/><rect class="cls-7" x="132.74" y="52.76" width="1" height="5" transform="translate(-10.45 67.89) rotate(-27.55)"/><rect class="cls-7" x="139.62" y="56.22" width="5" height="1" transform="translate(0.3 114.18) rotate(-43.81)"/></g></svg>