<svg xmlns="http://www.w3.org/2000/svg" xmlns:xlink="http://www.w3.org/1999/xlink" viewBox="0 0 480 200"><defs><style>.cls-1{fill:url(#New_Gradient_Swatch_2);}.cls-2{fill:#004000;}.cls-3{fill:#fff2a5;}.cls-4{fill:#49782a;}.cls-5{fill:#e89700;}.cls-6{fill:#5601a3;}.cls-7{fill:#a5241f;}.cls-8{fill:#00d800;}.cls-9{fill:#66d9b6;}</style><linearGradient id="New_Gradient_Swatch_2" x1="240" y1="198.33" x2="240" y2="0.33" gradientUnits="userSpaceOnUse"><stop offset="0.26" stop-color="#00bf00"/><stop offset="0.34" stop-color="#00d100"/><stop offset="0.45" stop-color="#00e600"/><stop offset="0.58" stop-color="#00f400"/><stop offset="0.74" stop-color="#00fc00"/><stop offset="1" stop-color="lime"/></linearGradient></defs><title>chroma_key</title><g id="Background"><rect class="cls-1" width="480" height="200"/></g><g id="Layer_1" data-name="Layer 1"><g id="Person"><path class="cls-2" d="M428.93,35.61a12.8,12.8,0,1,1,12.83-12.82A12.79,12.79,0,0,1,428.93,35.61Z"/><path class="cls-2" d="M445,40H413a9.28,9.28,0,0,0-9,5.94c-1.31-6.4-2.38-12.31-2.4-12.42h0a5,5,0,0,0-9.63,2.7S398.66,67.14,406.17,71a4.31,4.31,0,0,0,6-2c1.4-2.79-3.86-18.59.83-19V84h6a7,7,0,0,1,7,7v22a7,7,0,0,1-7,7h-6v24h0A7.49,7.49,0,0,0,428,144h0V92h2v52h0A7.49,7.49,0,0,0,445,144h0V50c5,0,1,42,1,42a5,5,0,0,0,10,0S462,40,445,40Z"/></g><path class="cls-2" d="M194.51,188.25h-92a2,2,0,0,0-2,2v5.1h96v-5.1A2,2,0,0,0,194.51,188.25Z"/><rect class="cls-2" x="143.53" y="172" width="10" height="15"/><rect class="cls-2" x="13.47" y="8" width="270.12" height="163.11" rx="6" ry="6"/><rect class="cls-3" x="19.08" y="13.61" width="258.9" height="130.46"/><rect class="cls-4" x="19.08" y="132.71" width="258.9" height="32.79"/><path class="cls-5" d="M161,139.38s-4.18-3.54-8.82-14.76h.39v-5.06H150.3a146,146,0,0,1-5.19-19.4h1.18V96.78h-1.83c-2.64-14.38-4.52-33.3-4.52-58h.46V35.42h.84V33.73h-.84V32h-1.69V17.71h-.84V32h-1.69v1.69h-.84v1.69h.84V38.8h.47c.24,24.69-1.47,43.61-4,58h-1.55v3.37H132a144,144,0,0,1-5,19.4h-2.21v5.06h.32c-4.57,11.22-8.75,14.76-8.75,14.76h8.92c0-.42-.06-.84-.06-1.27a13.5,13.5,0,1,1,27,0c0,.43,0,.85-.06,1.27ZM138.27,76.54h.42a121,121,0,0,0,1.76,20.24h-3.59A123.63,123.63,0,0,0,138.27,76.54ZM133,118.71a107.38,107.38,0,0,0,3.14-16h5a108.65,108.65,0,0,0,3.25,16Z"/><path class="cls-6" d="M274.69,90.69c-1.42-1.42-27.65,8.83-39.83,5.93C225,94.27,211.72,85.2,194.94,41.79a8.45,8.45,0,0,0-.36-3.49l-2.18-6.77A8.56,8.56,0,0,0,181.65,26l-1.3.42a6.25,6.25,0,0,0-7.55,2.44L156.6,34.11a8.56,8.56,0,0,0-5.5,10.74l.84,2.61,2.58-.46,2,1.79.81-2.29,3.71-.66,1.83,1.82.64-2.26,5.18-.91,1.84,1.82L172,43.83l9.52-1.58-12.72,7-2.6-1.12.06,2.51-3.42,1.87L161,51.06l-.39,2.6-2.28,1.25-1.77-1.42-.12,2.45A8.53,8.53,0,0,0,164,57.12l17.26-5.57,3.48,25.35s-13.22-.44-14,2.06c-.11.34.14,2.77.67,3,.34.16.79-1.84,1.32-1.72,4.7,1.06,12.43.83,12.43.83l.18,2s-10.23.54-10.42,2.69c0,.34.3,2.75.88,3,.36.15.8-1.86,1.32-1.74a46.09,46.09,0,0,0,8.67.88s2.84,18,2.84,30.57c0,8.54,2.13,19.92,1.42,21.34-2.85,1.42-7,3.53-6.4,5a11.3,11.3,0,0,1,8.54,0c3.56-3.56,3.56-22.05,4.44-26.05s14.05-3.82,14.94.5c.65,3.17.53,21.29,0,22.25s-5.71,2-5.86,4.72a41.71,41.71,0,0,1,9.25,0c2.13.17,4.09-25.3,4.09-25.3a224.41,224.41,0,0,0,25.08-10.26C255.49,104.92,276.12,92.11,274.69,90.69ZM178,33.19a1.42,1.42,0,1,1,.92-1.79A1.42,1.42,0,0,1,178,33.19Z"/><g id="Person-2" data-name="Person"><path class="cls-7" d="M85.22,72.7A13.79,13.79,0,1,1,99,58.88,13.78,13.78,0,0,1,85.22,72.7Z"/><path class="cls-7" d="M60.71,110.82a4.64,4.64,0,0,0,6.46-2.15c1.5-3-4.16-20,.89-20.45V164.5H84.22V133.44h2.15V164.5h16.16V88.2c4.93,0,1.74,37.91,1.16,44.32a5.38,5.38,0,1,0,10.69.92s6.46-56-11.85-56H68.06a10,10,0,0,0-9.65,6.4c-1.11-5.39-2-10.44-2.42-12.45a5.38,5.38,0,1,0-10.54,2S52.62,106.66,60.71,110.82Z"/></g><path class="cls-2" d="M419,85H405.8l-.8-4a2,2,0,0,0-2-2H393a2,2,0,0,0-2,2l-.8,4H378a6,6,0,0,0-6,6v22a6,6,0,0,0,6,6h41a6,6,0,0,0,6-6V91A6,6,0,0,0,419,85Z"/><rect class="cls-8" x="376.83" y="89" width="42.67" height="26.33"/><g id="Person-3" data-name="Person"><path class="cls-2" d="M388.75,97.78a2.39,2.39,0,1,1,2.4-2.39A2.39,2.39,0,0,1,388.75,97.78Z"/><path class="cls-2" d="M384.51,104.39a.8.8,0,0,0,1.12-.37c.26-.52-.72-3.46.15-3.54v13.86h2.8v-6H389v6h2.8V100.47c.93,0,.19,7.84.19,7.84a.93.93,0,1,0,1.87,0s1.12-9.71-2.05-9.71h-6a1.73,1.73,0,0,0-1.67,1.11c-.25-1.21-.45-2.32-.45-2.32a.93.93,0,1,0-1.8.5S383.1,103.67,384.51,104.39Z"/></g><polygon class="cls-2" points="418.52 189.63 417.77 186.62 418.74 186.37 412.15 160.01 413.12 159.77 403.18 120 392.56 120 382.62 159.77 383.59 160.01 377 186.37 377.97 186.62 377.21 189.63 373.34 189.63 373.34 192.35 383.5 192.35 383.5 189.63 380.31 189.63 380.88 187.34 381.85 187.59 388.44 161.22 389.41 161.46 397.87 127.62 406.33 161.46 407.3 161.22 413.89 187.59 414.86 187.34 415.43 189.63 412.24 189.63 412.24 192.35 422.4 192.35 422.4 189.63 418.52 189.63"/><rect class="cls-2" x="287" y="180" width="66" height="16" rx="2" ry="2"/><path class="cls-2" d="M380.29,119.81c0,29.59-4.69,64.52-26.29,68.33v2c23.24-3.69,28.29-39.79,28.29-70.36Z"/><path class="cls-2" d="M261.42,172h-2.07c3.31,13.48,12.61,17.36,26.65,17.92v-2C273,187.4,264.58,183.94,261.42,172Z"/><rect class="cls-9" x="290" y="183" width="3" height="3"/></g></svg>