<svg xmlns="http://www.w3.org/2000/svg" xmlns:xlink="http://www.w3.org/1999/xlink" viewBox="0 0 480 200"><defs><style>.cls-1,.cls-10,.cls-13,.cls-15,.cls-4,.cls-5,.cls-6,.cls-8,.cls-9{fill:none;}.cls-2{fill:#d9cb9e;}.cls-3{fill:#374140;}.cls-10,.cls-13,.cls-4,.cls-5,.cls-6{stroke:#1e1e20;}.cls-10,.cls-13,.cls-4,.cls-5,.cls-6,.cls-8,.cls-9{stroke-linecap:round;}.cls-13,.cls-4,.cls-8,.cls-9{stroke-linejoin:round;}.cls-4{stroke-width:4.48px;}.cls-10,.cls-15,.cls-5,.cls-6{stroke-miterlimit:10;}.cls-5{stroke-width:5.6px;}.cls-6{stroke-width:7.84px;}.cls-7{fill:#dc3522;}.cls-8,.cls-9{stroke:#dc3522;}.cls-8{stroke-width:20.15px;}.cls-9{stroke-width:15.67px;}.cls-10{stroke-width:6.72px;}.cls-11{fill:#5f6766;}.cls-12{fill:#1e1e20;}.cls-13{stroke-width:1.12px;}.cls-14{fill:#2a2c2b;}.cls-15{stroke:#374140;stroke-width:3px;}.cls-16{isolation:isolate;}.cls-17{clip-path:url(#clip-path);}.cls-18{fill:#1d2221;}.cls-19{fill:#1e2323;}.cls-20{fill:#1f2424;}.cls-21{fill:#202625;}.cls-22{fill:#212726;}.cls-23{fill:#222828;}.cls-24{fill:#232a29;}.cls-25{fill:#242b2a;}.cls-26{fill:#252c2c;}.cls-27{fill:#272d2d;}.cls-28{fill:#282f2e;}.cls-29{fill:#29302f;}.cls-30{fill:#2a3131;}.cls-31{fill:#2b3332;}.cls-32{fill:#2c3433;}.cls-33{fill:#2d3534;}.cls-34{fill:#2e3736;}.cls-35{fill:#2f3837;}.cls-36{clip-path:url(#clip-path-2);}.cls-37{fill:#615826;}.cls-38{fill:#645c27;}.cls-39{fill:#685f29;}.cls-40{fill:#6b622a;}.cls-41{fill:#6f652c;}.cls-42{fill:#72682d;}.cls-43{fill:#766b2e;}.cls-44{fill:#796f30;}.cls-45{fill:#7d7231;}.cls-46{fill:#807532;}.cls-47{fill:#837834;}.cls-48{fill:#877b35;}.cls-49{fill:#8a7e36;}.cls-50{fill:#8e8238;}.cls-51{fill:#918539;}.cls-52{fill:#95883a;}.cls-53{clip-path:url(#clip-path-3);}.cls-54{fill:#5d5525;}.cls-55{fill:#5a5223;}.cls-56{fill:#7c7131;}.cls-57{clip-path:url(#clip-path-4);}.cls-58{clip-path:url(#clip-path-5);}.cls-59{fill:#272e2e;}.cls-60{clip-path:url(#clip-path-6);}.cls-61{clip-path:url(#clip-path-7);}.cls-62{clip-path:url(#clip-path-8);}.cls-63{clip-path:url(#clip-path-9);}.cls-64{clip-path:url(#clip-path-10);}.cls-65{fill:#555655;}</style><clipPath id="clip-path"><path class="cls-1" d="M239.43,38.5c0,3.3,2.33,6,5.19,6h-2.5c-2.86,0-5.19-2.7-5.19-6s2.33-6,5.19-6h2.5C241.76,32.5,239.43,35.19,239.43,38.5Z"/></clipPath><clipPath id="clip-path-2"><path class="cls-1" d="M249.82,38.5h-2.5c0-3.31-2.33-6-5.2-6h2.5C247.49,32.5,249.82,35.19,249.82,38.5Z"/></clipPath><clipPath id="clip-path-3"><path class="cls-1" d="M249.82,38.5c0,3.3-2.33,6-5.2,6h-2.5c2.87,0,5.2-2.7,5.2-6h2.5Z"/></clipPath><clipPath id="clip-path-4"><path class="cls-1" d="M247.32,38.5h2.5a7.88,7.88,0,0,0,.43,2.6h-2.5A7.88,7.88,0,0,1,247.32,38.5Z"/></clipPath><clipPath id="clip-path-5"><path class="cls-1" d="M247.75,41.1h2.5a6.15,6.15,0,0,1-5.63,4.4h-2.5A6.15,6.15,0,0,0,247.75,41.1Z"/></clipPath><clipPath id="clip-path-6"><path class="cls-1" d="M242.12,31.5h2.5a6.16,6.16,0,0,1,5.63,4.41h-2.5A6.16,6.16,0,0,0,242.12,31.5Z"/></clipPath><clipPath id="clip-path-7"><path class="cls-1" d="M253.38,32.5h2.5c-2.87,0-5.2,2.69-5.2,6s2.33,6,5.2,6h-2.5c-2.87,0-5.2-2.7-5.2-6S250.51,32.5,253.38,32.5Z"/></clipPath><clipPath id="clip-path-8"><path class="cls-1" d="M255.88,44.5h-2.5c2.87,0,5.2-2.7,5.2-6h2.5c0,3.31-2.33,6-5.2,6h0Z"/></clipPath><clipPath id="clip-path-9"><path class="cls-1" d="M255.88,32.5c2.87,0,5.2,2.69,5.2,6h-2.5c0-3.31-2.33-6-5.2-6Z"/></clipPath><clipPath id="clip-path-10"><path class="cls-1" d="M253.38,31.5h2.5c3.34,0,6.06,3.14,6.06,7s-2.72,7-6.06,7h-2.5c3.34,0,6.06-3.14,6.06-7S256.72,31.5,253.38,31.5Z"/></clipPath></defs><title>can_stepper_motor_controller</title><g id="Background"><rect class="cls-2" width="480" height="200"/></g><g id="Layer_1" data-name="Layer 1"><rect class="cls-3" x="209.52" y="153.01" width="75" height="12.31" rx="4.11"/><rect class="cls-3" x="276.07" y="75.82" width="16.79" height="90.38" rx="5.74" transform="translate(24.77 -46.68) rotate(9.81)"/><polyline class="cls-4" points="207.28 167.57 286.76 167.57 302.43 73.53"/><g id="Steering_Wheel" data-name="Steering Wheel"><line class="cls-5" x1="91.98" y1="165.33" x2="188.25" y2="123.91"/><line class="cls-6" x1="183.21" y1="111.04" x2="191.05" y2="134.54"/></g><g id="Person_Driving" data-name="Person Driving"><rect class="cls-7" x="240.16" y="67.23" width="34.4" height="85.18" rx="8.25" transform="translate(9.65 -20.31) rotate(4.61)"/><path class="cls-7" d="M259.62,59.88a20.48,20.48,0,1,1,22.16-18.7A20.46,20.46,0,0,1,259.62,59.88Z"/><polyline class="cls-8" points="261.34 143.92 212.17 141.41 141.07 160.97"/><polyline class="cls-9" points="250.3 74.54 228.69 111.36 191.53 112.83"/></g><polyline class="cls-10" points="73.51 172.6 235.31 172.6 272.2 159.17 401.5 159.17"/><g id="Motors"><rect class="cls-3" x="303.83" y="57.65" width="23.51" height="23.51" rx="2.24"/><circle class="cls-11" cx="324.82" cy="60.17" r="1.12"/><circle class="cls-11" cx="306.35" cy="60.17" r="1.12"/><circle class="cls-11" cx="324.82" cy="78.64" r="1.12"/><circle class="cls-11" cx="306.35" cy="78.64" r="1.12"/><circle class="cls-11" cx="315.58" cy="69.41" r="9.72"/><rect class="cls-3" x="303.83" y="82.28" width="23.51" height="23.51" rx="2.24"/><circle class="cls-11" cx="324.82" cy="84.8" r="1.12"/><circle class="cls-11" cx="306.35" cy="84.8" r="1.12"/><circle class="cls-11" cx="324.82" cy="103.27" r="1.12"/><circle class="cls-11" cx="306.35" cy="103.27" r="1.12"/><circle class="cls-11" cx="315.58" cy="94.03" r="9.72"/><rect class="cls-3" x="303.83" y="106.91" width="23.51" height="23.51" rx="2.24"/><circle class="cls-11" cx="324.82" cy="109.43" r="1.12"/><circle class="cls-11" cx="306.35" cy="109.43" r="1.12"/><circle class="cls-11" cx="324.82" cy="127.9" r="1.12"/><circle class="cls-11" cx="306.35" cy="127.9" r="1.12"/><circle class="cls-11" cx="315.58" cy="118.66" r="9.72"/><rect class="cls-3" x="303.83" y="131.54" width="23.51" height="23.51" rx="2.24"/><circle class="cls-11" cx="324.82" cy="134.05" r="1.12"/><circle class="cls-11" cx="306.35" cy="134.05" r="1.12"/><circle class="cls-11" cx="324.82" cy="152.52" r="1.12"/><circle class="cls-11" cx="306.35" cy="152.52" r="1.12"/><circle class="cls-11" cx="315.58" cy="143.29" r="9.72"/><rect class="cls-3" x="328.46" y="57.65" width="23.51" height="23.51" rx="2.24"/><circle class="cls-11" cx="349.45" cy="60.17" r="1.12"/><circle class="cls-11" cx="330.98" cy="60.17" r="1.12"/><circle class="cls-11" cx="349.45" cy="78.64" r="1.12"/><circle class="cls-11" cx="330.98" cy="78.64" r="1.12"/><circle class="cls-11" cx="340.21" cy="69.41" r="9.72"/><rect class="cls-3" x="328.46" y="82.28" width="23.51" height="23.51" rx="2.24"/><circle class="cls-11" cx="349.45" cy="84.8" r="1.12"/><circle class="cls-11" cx="330.98" cy="84.8" r="1.12"/><circle class="cls-11" cx="349.45" cy="103.27" r="1.12"/><circle class="cls-11" cx="330.98" cy="103.27" r="1.12"/><circle class="cls-11" cx="340.21" cy="94.03" r="9.72"/><rect class="cls-3" x="328.46" y="106.91" width="23.51" height="23.51" rx="2.24"/><circle class="cls-11" cx="349.45" cy="109.43" r="1.12"/><circle class="cls-11" cx="330.98" cy="109.43" r="1.12"/><circle class="cls-11" cx="349.45" cy="127.9" r="1.12"/><circle class="cls-11" cx="330.98" cy="127.9" r="1.12"/><circle class="cls-11" cx="340.21" cy="118.66" r="9.72"/><rect class="cls-3" x="328.46" y="131.54" width="23.51" height="23.51" rx="2.24"/><circle class="cls-11" cx="349.45" cy="134.05" r="1.12"/><circle class="cls-11" cx="330.98" cy="134.05" r="1.12"/><circle class="cls-11" cx="349.45" cy="152.52" r="1.12"/><circle class="cls-11" cx="330.98" cy="152.52" r="1.12"/><circle class="cls-11" cx="340.21" cy="143.29" r="9.72"/><rect class="cls-3" x="353.08" y="57.65" width="23.51" height="23.51" rx="2.24"/><circle class="cls-11" cx="374.07" cy="60.17" r="1.12"/><circle class="cls-11" cx="355.6" cy="60.17" r="1.12"/><circle class="cls-11" cx="374.07" cy="78.64" r="1.12"/><circle class="cls-11" cx="355.6" cy="78.64" r="1.12"/><circle class="cls-11" cx="364.84" cy="69.41" r="9.72"/><rect class="cls-3" x="353.08" y="82.28" width="23.51" height="23.51" rx="2.24"/><circle class="cls-11" cx="374.07" cy="84.8" r="1.12"/><circle class="cls-11" cx="355.6" cy="84.8" r="1.12"/><circle class="cls-11" cx="374.07" cy="103.27" r="1.12"/><circle class="cls-11" cx="355.6" cy="103.27" r="1.12"/><circle class="cls-11" cx="364.84" cy="94.03" r="9.72"/><rect class="cls-3" x="353.08" y="106.91" width="23.51" height="23.51" rx="2.24"/><circle class="cls-11" cx="374.07" cy="109.43" r="1.12"/><circle class="cls-11" cx="355.6" cy="109.43" r="1.12"/><circle class="cls-11" cx="374.07" cy="127.9" r="1.12"/><circle class="cls-11" cx="355.6" cy="127.9" r="1.12"/><circle class="cls-11" cx="364.84" cy="118.66" r="9.72"/><rect class="cls-3" x="353.08" y="131.54" width="23.51" height="23.51" rx="2.24"/><circle class="cls-11" cx="374.07" cy="134.05" r="1.12"/><circle class="cls-11" cx="355.6" cy="134.05" r="1.12"/><circle class="cls-11" cx="374.07" cy="152.52" r="1.12"/><circle class="cls-11" cx="355.6" cy="152.52" r="1.12"/><circle class="cls-11" cx="364.84" cy="143.29" r="9.72"/><rect class="cls-3" x="377.71" y="57.65" width="23.51" height="23.51" rx="2.24"/><circle class="cls-11" cx="398.7" cy="60.17" r="1.12"/><circle class="cls-11" cx="380.23" cy="60.17" r="1.12"/><circle class="cls-11" cx="398.7" cy="78.64" r="1.12"/><circle class="cls-11" cx="380.23" cy="78.64" r="1.12"/><circle class="cls-11" cx="389.47" cy="69.41" r="9.72"/><rect class="cls-3" x="377.71" y="82.28" width="23.51" height="23.51" rx="2.24"/><circle class="cls-11" cx="398.7" cy="84.8" r="1.12"/><circle class="cls-11" cx="380.23" cy="84.8" r="1.12"/><circle class="cls-11" cx="398.7" cy="103.27" r="1.12"/><circle class="cls-11" cx="380.23" cy="103.27" r="1.12"/><circle class="cls-11" cx="389.47" cy="94.03" r="9.72"/><rect class="cls-3" x="377.71" y="106.91" width="23.51" height="23.51" rx="2.24"/><circle class="cls-11" cx="398.7" cy="109.43" r="1.12"/><circle class="cls-11" cx="380.23" cy="109.43" r="1.12"/><circle class="cls-11" cx="398.7" cy="127.9" r="1.12"/><circle class="cls-11" cx="380.23" cy="127.9" r="1.12"/><circle class="cls-11" cx="389.47" cy="118.66" r="9.72"/><rect class="cls-3" x="377.71" y="131.54" width="23.51" height="23.51" rx="2.24"/><circle class="cls-11" cx="398.7" cy="134.05" r="1.12"/><circle class="cls-11" cx="380.23" cy="134.05" r="1.12"/><circle class="cls-11" cx="398.7" cy="152.52" r="1.12"/><circle class="cls-11" cx="380.23" cy="152.52" r="1.12"/><circle class="cls-11" cx="389.47" cy="143.29" r="9.72"/></g><g id="Rotors"><circle class="cls-3" cx="364.84" cy="143.29" r="5.32"/><circle class="cls-12" cx="364.84" cy="143.29" r="1.12"/><circle class="cls-3" cx="340.21" cy="143.29" r="5.32"/><circle class="cls-12" cx="340.21" cy="143.29" r="1.12"/><line class="cls-13" x1="318.24" y1="139.8" x2="353.92" y2="159.3"/><line class="cls-13" x1="312.5" y1="146.5" x2="346.07" y2="171.54"/><circle class="cls-3" cx="315.58" cy="143.29" r="5.32"/><circle class="cls-12" cx="315.58" cy="143.29" r="1.12"/><line class="cls-13" x1="392.29" y1="146.67" x2="354.15" y2="171.77"/><line class="cls-13" x1="387.04" y1="139.68" x2="346.97" y2="159.13"/><circle class="cls-3" cx="389.47" cy="143.29" r="5.32"/><circle class="cls-12" cx="389.47" cy="143.29" r="1.12"/><line class="cls-13" x1="318.63" y1="115.36" x2="355.99" y2="161.09"/><line class="cls-13" x1="312.32" y1="121.67" x2="344.29" y2="169.73"/><circle class="cls-3" cx="315.58" cy="118.66" r="5.32"/><circle class="cls-12" cx="315.58" cy="118.66" r="1.12"/><line class="cls-13" x1="344.24" y1="117.33" x2="357.33" y2="163.79"/><line class="cls-13" x1="336.09" y1="119.57" x2="343.12" y2="166.85"/><circle class="cls-3" cx="340.21" cy="118.66" r="5.32"/><circle class="cls-12" cx="340.21" cy="118.66" r="1.12"/><line class="cls-13" x1="368.86" y1="120.04" x2="357.32" y2="167.49"/><line class="cls-13" x1="360.94" y1="116.89" x2="343.43" y2="163.18"/><circle class="cls-3" cx="364.84" cy="118.66" r="5.32"/><circle class="cls-12" cx="364.84" cy="118.66" r="1.12"/><line class="cls-13" x1="392.54" y1="121.93" x2="356.02" y2="170.08"/><line class="cls-13" x1="386.61" y1="115.13" x2="344.85" y2="160.77"/><circle class="cls-3" cx="389.47" cy="118.66" r="5.32"/><circle class="cls-12" cx="389.47" cy="118.66" r="1.12"/><line class="cls-13" x1="311.86" y1="96.23" x2="343.66" y2="168.62"/><line class="cls-13" x1="319.19" y1="91.6" x2="356.76" y2="162.28"/><circle class="cls-3" cx="315.58" cy="94.03" r="5.32"/><circle class="cls-12" cx="315.58" cy="94.03" r="1.12"/><line class="cls-13" x1="336.05" y1="94.64" x2="343.06" y2="166.44"/><line class="cls-13" x1="344.34" y1="93.14" x2="357.46" y2="164.39"/><circle class="cls-3" cx="340.21" cy="94.03" r="5.32"/><circle class="cls-12" cx="340.21" cy="94.03" r="1.12"/><line class="cls-13" x1="360.78" y1="92.83" x2="343.2" y2="163.96"/><line class="cls-13" x1="368.96" y1="94.96" x2="357.45" y2="166.87"/><circle class="cls-3" cx="364.84" cy="94.03" r="5.32"/><circle class="cls-12" cx="364.84" cy="94.03" r="1.12"/><line class="cls-13" x1="385.98" y1="91.37" x2="343.99" y2="161.97"/><line class="cls-13" x1="393.07" y1="96.47" x2="356.76" y2="168.94"/><circle class="cls-3" cx="389.47" cy="94.03" r="5.32"/><circle class="cls-12" cx="389.47" cy="94.03" r="1.12"/><line class="cls-13" x1="319.43" y1="67.51" x2="357.08" y2="163.01"/><line class="cls-13" x1="311.67" y1="71.12" x2="343.39" y2="167.95"/><circle class="cls-3" cx="315.58" cy="69.41" r="5.32"/><circle class="cls-12" cx="315.58" cy="69.41" r="1.12"/><line class="cls-13" x1="344.37" y1="68.74" x2="357.51" y2="164.69"/><line class="cls-13" x1="336.03" y1="69.86" x2="343.04" y2="166.23"/><circle class="cls-3" cx="340.21" cy="69.41" r="5.32"/><circle class="cls-12" cx="340.21" cy="69.41" r="1.12"/><line class="cls-13" x1="368.99" y1="70.1" x2="357.5" y2="166.56"/><line class="cls-13" x1="360.72" y1="68.5" x2="343.12" y2="164.37"/><circle class="cls-3" cx="364.84" cy="69.41" r="5.32"/><circle class="cls-12" cx="364.84" cy="69.41" r="1.12"/><line class="cls-13" x1="393.31" y1="71.32" x2="357.08" y2="168.22"/><line class="cls-13" x1="385.7" y1="67.31" x2="343.6" y2="162.74"/><circle class="cls-3" cx="389.47" cy="69.41" r="5.32"/><circle class="cls-12" cx="389.47" cy="69.41" r="1.12"/></g><circle class="cls-14" cx="350.29" cy="165.61" r="34.14"/><circle class="cls-14" cx="106.53" cy="172.32" r="27.43"/><path class="cls-3" d="M264.69,8.33a22.59,22.59,0,0,0-24.82,20.09l44.91,4.73A22.59,22.59,0,0,0,264.69,8.33Z"/><path class="cls-3" d="M259.61,59.88a21.91,21.91,0,0,0,2.8,0l14.8-27.75-4.42-2.36L257,59.47A20.86,20.86,0,0,0,259.61,59.88Z"/><line class="cls-15" x1="260" y1="38" x2="282" y2="38"/><g class="cls-16"><g class="cls-16"><g class="cls-17"><g class="cls-16"><path class="cls-18" d="M242.12,32.5h2.5a4.75,4.75,0,0,0-3.13,1.21H239a4.75,4.75,0,0,1,3.13-1.21"/><path class="cls-19" d="M239,33.71h2.5c-.14.13-.28.26-.41.4h-2.5c.13-.14.27-.27.41-.4"/><path class="cls-20" d="M238.58,34.11h2.5q-.15.16-.3.36h-2.5q.15-.19.3-.36"/><path class="cls-21" d="M238.28,34.47h2.5a2,2,0,0,0-.24.33H238a2,2,0,0,1,.24-.33"/><path class="cls-22" d="M238,34.8h2.5l-.21.32h-2.5l.21-.32"/><path class="cls-23" d="M237.83,35.12h2.5a3.07,3.07,0,0,0-.17.31h-2.5a3.07,3.07,0,0,1,.17-.31"/><path class="cls-24" d="M237.66,35.43h2.5l-.15.31h-2.5l.15-.31"/><path class="cls-25" d="M237.51,35.74H240c0,.1-.09.21-.13.31h-2.5c0-.1.08-.21.13-.31"/><path class="cls-26" d="M237.38,36.05h2.5a3,3,0,0,0-.11.32h-2.5a3,3,0,0,1,.11-.32"/><path class="cls-27" d="M237.27,36.37h2.5a3,3,0,0,0-.1.32h-2.5a3,3,0,0,1,.1-.32"/><path class="cls-28" d="M237.17,36.69h2.5c0,.11-.06.22-.08.33h-2.5c0-.11,0-.22.08-.33"/><path class="cls-29" d="M237.09,37h2.5c0,.12-.05.23-.07.35H237c0-.12,0-.23.07-.35"/><path class="cls-30" d="M237,37.37h2.5c0,.12,0,.25-.05.38H237c0-.13,0-.26.05-.38"/><path class="cls-31" d="M237,37.75h2.5a2.69,2.69,0,0,0,0,.4h-2.5a2.69,2.69,0,0,1,0-.4"/><path class="cls-32" d="M236.94,38.15h2.5c0,.12,0,.23,0,.35v.11h-2.5V38.5c0-.12,0-.23,0-.35"/><path class="cls-33" d="M236.93,38.61h2.5a4.89,4.89,0,0,0,0,.54H237a4.89,4.89,0,0,1,0-.54"/><path class="cls-34" d="M237,39.15h2.5c0,.25.06.49.1.73h-2.5c0-.24-.08-.48-.1-.73"/><path class="cls-35" d="M237.06,39.88h2.5a6.8,6.8,0,0,0,.72,1.92h-2.5a6.8,6.8,0,0,1-.72-1.92"/><path class="cls-34" d="M237.78,41.8h2.5c.13.21.26.41.4.61h-2.5c-.14-.2-.27-.4-.4-.61"/><path class="cls-33" d="M238.18,42.41h2.5l.32.39h-2.5l-.32-.39"/><path class="cls-32" d="M238.5,42.8H241l.29.3h-2.5l-.29-.3"/><path class="cls-31" d="M238.79,43.1h2.5l.29.25h-2.5l-.29-.25"/><path class="cls-30" d="M239.08,43.35h2.5a2,2,0,0,0,.27.22h-2.5a2,2,0,0,1-.27-.22"/><path class="cls-29" d="M239.35,43.57h2.5l.26.18h-2.5l-.26-.18"/><path class="cls-28" d="M239.61,43.75h2.5l.27.16h-2.5l-.27-.16"/><path class="cls-27" d="M239.88,43.91h2.5l.27.14h-2.5l-.27-.14"/><path class="cls-26" d="M240.15,44.05h2.5l.28.12h-2.5l-.28-.12"/><path class="cls-25" d="M240.43,44.17h2.5l.28.1h-2.5l-.28-.1"/><path class="cls-24" d="M240.71,44.27h2.5l.3.09H241l-.3-.09"/><path class="cls-23" d="M241,44.36h2.5a2.84,2.84,0,0,0,.31.06h-2.5a2.84,2.84,0,0,1-.31-.06"/><path class="cls-22" d="M241.32,44.42h2.5l.33,0h-2.5l-.33,0"/><path class="cls-21" d="M241.65,44.47h2.5l.38,0H242l-.38,0"/><path class="cls-20" d="M242,44.5h0"/></g></g></g><g class="cls-16"><g class="cls-36"><g class="cls-16"><path class="cls-37" d="M242.12,32.5h0"/><path class="cls-38" d="M242.21,32.5h2.5l.37,0h-2.5l-.37,0"/><path class="cls-39" d="M242.58,32.52h2.5l.34,0h-2.5l-.34,0"/><path class="cls-40" d="M242.92,32.57h2.5l.31.07h-2.5l-.31-.07"/><path class="cls-41" d="M243.23,32.64h2.5l.3.08h-2.5l-.3-.08"/><path class="cls-42" d="M243.53,32.72H246l.28.11h-2.5l-.28-.11"/><path class="cls-43" d="M243.81,32.83h2.5a1.39,1.39,0,0,1,.28.12h-2.5a1.39,1.39,0,0,0-.28-.12"/><path class="cls-44" d="M244.09,33h2.5l.27.14h-2.5l-.27-.14"/><path class="cls-45" d="M244.36,33.09h2.5l.27.16h-2.5l-.27-.16"/><path class="cls-46" d="M244.63,33.25h2.5a2.11,2.11,0,0,1,.27.18h-2.5a2.11,2.11,0,0,0-.27-.18"/><path class="cls-47" d="M244.9,33.43h2.5l.27.21h-2.5l-.27-.21"/><path class="cls-48" d="M245.17,33.64h2.5l.28.25h-2.5l-.28-.25"/><path class="cls-49" d="M245.45,33.89H248c.1.1.2.2.29.31h-2.5c-.09-.11-.19-.21-.29-.31"/><path class="cls-50" d="M245.74,34.2h2.5c.11.12.22.26.32.39h-2.5c-.1-.13-.21-.27-.32-.39"/><path class="cls-51" d="M246.06,34.59h2.5a6.41,6.41,0,0,1,.4.61h-2.5a6.41,6.41,0,0,0-.4-.61"/><path class="cls-52" d="M246.46,35.2H249a6.51,6.51,0,0,1,.72,1.92h-2.5a6.51,6.51,0,0,0-.72-1.92"/><path class="cls-51" d="M247.18,37.12h2.5c0,.24.08.48.11.73h-2.5c0-.25-.06-.49-.11-.73"/><path class="cls-50" d="M247.29,37.85h2.5l0,.54h-2.5l0-.54"/><path class="cls-49" d="M247.32,38.39h2.5v.11c0,.12,0,.23,0,.35h-2.5c0-.12,0-.23,0-.35v-.11"/></g></g></g><g class="cls-16"><g class="cls-53"><g class="cls-16"><path class="cls-49" d="M247.32,38.39h2.5v.11c0,.12,0,.23,0,.35h-2.5c0-.12,0-.23,0-.35v-.11"/><path class="cls-48" d="M247.31,38.85h2.5l0,.4h-2.5l0-.4"/><path class="cls-47" d="M247.28,39.25h2.5l-.06.38h-2.5l.06-.38"/><path class="cls-46" d="M247.22,39.63h2.5c0,.11,0,.23-.06.35h-2.5c0-.12.05-.24.06-.35"/><path class="cls-45" d="M247.16,40h2.5c0,.11,0,.22-.08.33h-2.5c0-.11,0-.22.08-.33"/><path class="cls-44" d="M247.08,40.31h2.5c0,.11-.07.21-.1.32H247c0-.11.07-.21.1-.32"/><path class="cls-43" d="M247,40.63h2.5c0,.11-.07.21-.11.31h-2.5c0-.1.07-.2.11-.31"/><path class="cls-42" d="M246.87,40.94h2.5l-.13.31h-2.5l.13-.31"/><path class="cls-41" d="M246.74,41.25h2.5l-.15.31h-2.5l.15-.31"/><path class="cls-40" d="M246.59,41.56h2.5l-.18.32h-2.5l.18-.32"/><path class="cls-39" d="M246.41,41.88h2.5a3.28,3.28,0,0,1-.2.31h-2.5a3.28,3.28,0,0,0,.2-.31"/><path class="cls-38" d="M246.21,42.19h2.5l-.24.34H246l.24-.34"/><path class="cls-37" d="M246,42.53h2.5c-.1.12-.2.24-.31.35h-2.5c.11-.11.21-.23.31-.35"/><path class="cls-54" d="M245.66,42.88h2.5a5.14,5.14,0,0,1-.41.4h-2.5a5.14,5.14,0,0,0,.41-.4"/><path class="cls-55" d="M245.25,43.28h2.5a4.76,4.76,0,0,1-3.13,1.22h-2.5a4.76,4.76,0,0,0,3.13-1.22"/></g></g></g><path class="cls-56" d="M242.12,32.5c2.87,0,5.2,2.69,5.2,6s-2.33,6-5.2,6-5.19-2.69-5.19-6S239.26,32.5,242.12,32.5Z"/><g class="cls-16"><g class="cls-57"><g class="cls-16"><path class="cls-32" d="M247.32,38.5h2.5v.12h-2.5V38.5"/><path class="cls-33" d="M247.32,38.62h2.5q0,.32,0,.63h-2.5q0-.31,0-.63"/><path class="cls-34" d="M247.35,39.25h2.5q0,.44.12.84h-2.5q-.08-.41-.12-.84"/><path class="cls-35" d="M247.47,40.09H250a8.35,8.35,0,0,0,.28,1h-2.5a8.35,8.35,0,0,1-.28-1"/></g></g></g><g class="cls-16"><g class="cls-58"><g class="cls-16"><path class="cls-26" d="M247.75,41.1h2.5a2.77,2.77,0,0,1-.1.26h-2.5a2.77,2.77,0,0,0,.1-.26"/><path class="cls-25" d="M247.65,41.36h2.5a2.75,2.75,0,0,1-.15.36h-2.5a2.75,2.75,0,0,0,.15-.36"/><path class="cls-24" d="M247.5,41.72H250c-.05.12-.11.24-.17.36h-2.5c.06-.12.12-.24.17-.36"/><path class="cls-23" d="M247.33,42.08h2.5l-.2.37h-2.5l.2-.37"/><path class="cls-22" d="M247.13,42.45h2.5l-.24.37h-2.5l.24-.37"/><path class="cls-21" d="M246.89,42.82h2.5c-.09.13-.18.26-.28.38h-2.5c.1-.12.19-.25.28-.38"/><path class="cls-20" d="M246.61,43.2h2.5q-.17.21-.36.42h-2.5q.19-.21.36-.42"/><path class="cls-19" d="M246.25,43.62h2.5c-.15.16-.31.32-.48.47h-2.5c.17-.15.33-.31.48-.47"/><path class="cls-18" d="M245.77,44.09h2.5a5.52,5.52,0,0,1-3.65,1.41h-2.5a5.52,5.52,0,0,0,3.65-1.41"/></g></g></g><path class="cls-59" d="M242.12,44.5c2.87,0,5.2-2.7,5.2-6a7.88,7.88,0,0,0,.43,2.6,6.15,6.15,0,0,1-5.63,4.4c-3.34,0-6.06-3.14-6.06-7s2.72-7,6.06-7a6.16,6.16,0,0,1,5.63,4.41,7.82,7.82,0,0,0-.43,2.59c0-3.31-2.33-6-5.2-6s-5.19,2.69-5.19,6S239.26,44.5,242.12,44.5Z"/><g class="cls-16"><g class="cls-60"><g class="cls-16"><path class="cls-20" d="M242.12,31.5h0"/><path class="cls-21" d="M242.22,31.5h2.5a3.15,3.15,0,0,1,.44,0h-2.5a3.15,3.15,0,0,0-.44,0"/><path class="cls-22" d="M242.66,31.53h2.5l.39,0h-2.5l-.39,0"/><path class="cls-23" d="M243.05,31.58h2.5l.37.08h-2.5l-.37-.08"/><path class="cls-24" d="M243.42,31.66h2.5l.34.1h-2.5l-.34-.1"/><path class="cls-25" d="M243.76,31.76h2.5l.33.12h-2.5l-.33-.12"/><path class="cls-26" d="M244.09,31.88h2.5l.32.14h-2.5l-.32-.14"/><path class="cls-27" d="M244.41,32h2.5l.32.16h-2.5l-.32-.16"/><path class="cls-28" d="M244.73,32.18h2.5l.31.19H245l-.31-.19"/><path class="cls-29" d="M245,32.37h2.5l.32.21h-2.5l-.32-.21"/><path class="cls-30" d="M245.36,32.58h2.5l.31.25h-2.5l-.31-.25"/><path class="cls-31" d="M245.67,32.83h2.5l.33.3H246l-.33-.3"/><path class="cls-32" d="M246,33.13h2.5c.12.11.23.23.34.35h-2.5c-.11-.12-.22-.24-.34-.35"/><path class="cls-33" d="M246.34,33.48h2.5c.13.15.26.31.38.47h-2.5c-.12-.16-.25-.32-.38-.47"/><path class="cls-34" d="M246.72,34h2.5a8.27,8.27,0,0,1,.46.69h-2.5a8.27,8.27,0,0,0-.46-.69"/><path class="cls-35" d="M247.18,34.64h2.5a8.6,8.6,0,0,1,.57,1.27h-2.5a8.6,8.6,0,0,0-.57-1.27"/></g></g></g><g class="cls-16"><g class="cls-61"><g class="cls-16"><path class="cls-18" d="M253.38,32.5h2.5a4.75,4.75,0,0,0-3.13,1.21h-2.5a4.75,4.75,0,0,1,3.13-1.21"/><path class="cls-19" d="M250.25,33.71h2.5c-.14.13-.28.26-.41.4h-2.5c.13-.14.27-.27.41-.4"/><path class="cls-20" d="M249.84,34.11h2.5l-.31.36h-2.5l.31-.36"/><path class="cls-21" d="M249.53,34.47H252c-.08.1-.16.22-.24.33h-2.5c.08-.11.16-.23.24-.33"/><path class="cls-22" d="M249.29,34.8h2.5a3.45,3.45,0,0,0-.2.32h-2.5a3.45,3.45,0,0,1,.2-.32"/><path class="cls-23" d="M249.09,35.12h2.5l-.18.31h-2.5l.18-.31"/><path class="cls-24" d="M248.91,35.43h2.5l-.15.31h-2.5l.15-.31"/><path class="cls-25" d="M248.76,35.74h2.5l-.13.31h-2.5l.13-.31"/><path class="cls-26" d="M248.63,36.05h2.5c0,.1-.07.21-.11.32h-2.5c0-.11.07-.22.11-.32"/><path class="cls-27" d="M248.52,36.37H251c0,.1-.07.21-.1.32h-2.5c0-.11.07-.22.1-.32"/><path class="cls-28" d="M248.42,36.69h2.5c0,.11,0,.22-.08.33h-2.5c0-.11,0-.22.08-.33"/><path class="cls-29" d="M248.34,37h2.5c0,.12-.05.23-.07.35h-2.5c0-.12,0-.23.07-.35"/><path class="cls-30" d="M248.27,37.37h2.5c0,.13,0,.25-.05.38h-2.5c0-.13,0-.25.05-.38"/><path class="cls-31" d="M248.22,37.75h2.5l0,.4h-2.5l0-.4"/><path class="cls-32" d="M248.19,38.15h2.5c0,.12,0,.23,0,.35v.11h-2.5V38.5c0-.12,0-.23,0-.35"/><path class="cls-33" d="M248.18,38.61h2.5l0,.54h-2.5l0-.54"/><path class="cls-34" d="M248.21,39.15h2.5c0,.25.06.49.11.72h-2.5c0-.23-.08-.47-.11-.72"/><path class="cls-35" d="M248.32,39.87h2.5a6.31,6.31,0,0,0,.72,1.92H249a6.31,6.31,0,0,1-.72-1.92"/><path class="cls-34" d="M249,41.79h2.5a4.28,4.28,0,0,0,.4.61h-2.5a4.28,4.28,0,0,1-.4-.61"/><path class="cls-33" d="M249.44,42.4h2.5a4.08,4.08,0,0,0,.31.39h-2.5a4.08,4.08,0,0,1-.31-.39"/><path class="cls-32" d="M249.75,42.79h2.5l.3.31h-2.5l-.3-.31"/><path class="cls-31" d="M250.05,43.1h2.5l.28.25h-2.5l-.28-.25"/><path class="cls-30" d="M250.33,43.35h2.5l.27.22h-2.5l-.27-.22"/><path class="cls-29" d="M250.6,43.57h2.5l.27.18h-2.5l-.27-.18"/><path class="cls-28" d="M250.87,43.75h2.5l.27.16h-2.5l-.27-.16"/><path class="cls-27" d="M251.14,43.91h2.5l.27.14h-2.5l-.27-.14"/><path class="cls-26" d="M251.41,44.05h2.5l.27.12h-2.5l-.27-.12"/><path class="cls-25" d="M251.68,44.17h2.5l.29.1H252l-.29-.1"/><path class="cls-24" d="M252,44.27h2.5l.3.09h-2.5l-.3-.09"/><path class="cls-23" d="M252.27,44.36h2.5a2.84,2.84,0,0,0,.31.06h-2.5a2.84,2.84,0,0,1-.31-.06"/><path class="cls-22" d="M252.58,44.42h2.5l.33,0h-2.5l-.33,0"/><path class="cls-21" d="M252.91,44.47h2.5l.38,0h-2.5l-.38,0"/><path class="cls-20" d="M253.29,44.5h0"/></g></g></g><g class="cls-16"><g class="cls-62"><g class="cls-16"><path class="cls-49" d="M258.58,38.39h2.5v.11c0,.12,0,.23,0,.35h-2.5c0-.12,0-.23,0-.35v-.11"/><path class="cls-48" d="M258.57,38.85h2.5l0,.4h-2.5l0-.4"/><path class="cls-47" d="M258.54,39.25H261c0,.13,0,.25-.05.38h-2.5c0-.13,0-.25.05-.38"/><path class="cls-46" d="M258.49,39.63H261c0,.11,0,.23-.07.35h-2.5c0-.12.05-.24.07-.35"/><path class="cls-45" d="M258.42,40h2.5c0,.11-.05.22-.08.33h-2.5c0-.11.06-.22.08-.33"/><path class="cls-44" d="M258.34,40.31h2.5c0,.11-.06.21-.1.32h-2.5c0-.11.07-.21.1-.32"/><path class="cls-43" d="M258.24,40.63h2.5a2.83,2.83,0,0,1-.11.31h-2.5a2.83,2.83,0,0,0,.11-.31"/><path class="cls-42" d="M258.13,40.94h2.5c0,.11-.09.21-.13.31H258c0-.1.09-.2.13-.31"/><path class="cls-41" d="M258,41.25h2.5l-.15.31h-2.5l.15-.31"/><path class="cls-40" d="M257.85,41.56h2.5l-.17.32h-2.5l.17-.32"/><path class="cls-39" d="M257.68,41.88h2.5l-.21.31h-2.5l.21-.31"/><path class="cls-38" d="M257.47,42.19H260a4.15,4.15,0,0,1-.24.34h-2.5a4.15,4.15,0,0,0,.24-.34"/><path class="cls-37" d="M257.23,42.53h2.5l-.3.35h-2.5l.3-.35"/><path class="cls-54" d="M256.93,42.88h2.5a4,4,0,0,1-.42.4h-2.5a4,4,0,0,0,.42-.4"/><path class="cls-55" d="M256.51,43.28H259a4.74,4.74,0,0,1-3.13,1.22h-2.5a4.74,4.74,0,0,0,3.13-1.22"/></g></g></g><path class="cls-56" d="M253.38,32.5c2.87,0,5.2,2.69,5.2,6s-2.33,6-5.2,6-5.2-2.69-5.2-6S250.51,32.5,253.38,32.5Z"/><g class="cls-16"><g class="cls-63"><g class="cls-16"><path class="cls-37" d="M253.38,32.5h0"/><path class="cls-38" d="M253.47,32.5H256l.38,0h-2.5l-.38,0"/><path class="cls-39" d="M253.85,32.52h2.5l.33,0h-2.5l-.33,0"/><path class="cls-40" d="M254.18,32.57h2.5l.32.07h-2.5l-.32-.07"/><path class="cls-41" d="M254.5,32.64H257l.29.08h-2.5l-.29-.08"/><path class="cls-42" d="M254.79,32.72h2.5l.29.11h-2.5l-.29-.11"/><path class="cls-43" d="M255.08,32.83h2.5a1.59,1.59,0,0,1,.27.12h-2.5l-.27-.12"/><path class="cls-44" d="M255.35,33h2.5l.27.14h-2.5l-.27-.14"/><path class="cls-45" d="M255.62,33.09h2.5l.27.16h-2.5l-.27-.16"/><path class="cls-46" d="M255.89,33.25h2.5a2.11,2.11,0,0,1,.27.18h-2.5l-.27-.18"/><path class="cls-47" d="M256.16,33.43h2.5l.27.21h-2.5l-.27-.21"/><path class="cls-48" d="M256.43,33.64h2.5l.28.25h-2.5l-.28-.25"/><path class="cls-49" d="M256.71,33.89h2.5c.1.1.2.2.29.31H257c-.09-.11-.19-.21-.29-.31"/><path class="cls-50" d="M257,34.2h2.5a3.89,3.89,0,0,1,.32.39h-2.5a3.89,3.89,0,0,0-.32-.39"/><path class="cls-51" d="M257.32,34.59h2.5a4.93,4.93,0,0,1,.4.61h-2.5a4.93,4.93,0,0,0-.4-.61"/><path class="cls-52" d="M257.72,35.2h2.5a6.51,6.51,0,0,1,.72,1.92h-2.5a6.51,6.51,0,0,0-.72-1.92"/><path class="cls-51" d="M258.44,37.12h2.5a5.84,5.84,0,0,1,.11.73h-2.5a5.84,5.84,0,0,0-.11-.73"/><path class="cls-50" d="M258.55,37.85h2.5a4.89,4.89,0,0,1,0,.54h-2.5a4.89,4.89,0,0,0,0-.54"/><path class="cls-49" d="M258.58,38.39h2.5v.11c0,.12,0,.23,0,.35h-2.5c0-.12,0-.23,0-.35v-.11"/></g></g></g><path class="cls-59" d="M253.38,31.5c3.34,0,6.06,3.14,6.06,7s-2.72,7-6.06,7a6.14,6.14,0,0,1-5.63-4.4,8,8,0,0,1,0-5.19A6.15,6.15,0,0,1,253.38,31.5Zm0,13c2.87,0,5.2-2.69,5.2-6s-2.33-6-5.2-6-5.2,2.69-5.2,6,2.33,6,5.2,6"/><g class="cls-16"><g class="cls-64"><g class="cls-16"><path class="cls-20" d="M253.38,31.5h0"/><path class="cls-21" d="M253.48,31.5H256a3.15,3.15,0,0,1,.44,0h-2.5a3.15,3.15,0,0,0-.44,0"/><path class="cls-22" d="M253.92,31.53h2.5l.4,0h-2.5l-.4,0"/><path class="cls-23" d="M254.32,31.58h2.5l.36.08h-2.5l-.36-.08"/><path class="cls-24" d="M254.68,31.66h2.5l.34.1H255l-.34-.1"/><path class="cls-25" d="M255,31.76h2.5l.34.12h-2.5l-.34-.12"/><path class="cls-26" d="M255.36,31.88h2.5l.32.14h-2.5l-.32-.14"/><path class="cls-27" d="M255.68,32h2.5l.31.16H256l-.31-.16"/><path class="cls-28" d="M256,32.18h2.5l.32.19h-2.5l-.32-.19"/><path class="cls-29" d="M256.31,32.37h2.5l.31.21h-2.5l-.31-.21"/><path class="cls-30" d="M256.62,32.58h2.5l.32.25h-2.5l-.32-.25"/><path class="cls-31" d="M256.94,32.83h2.5l.32.3h-2.5l-.32-.3"/><path class="cls-32" d="M257.26,33.13h2.5a4,4,0,0,1,.35.36h-2.5a4,4,0,0,0-.35-.36"/><path class="cls-33" d="M257.61,33.49h2.5a5.54,5.54,0,0,1,.37.45H258a5.54,5.54,0,0,0-.37-.45"/><path class="cls-34" d="M258,33.94h2.5a6.62,6.62,0,0,1,.46.71h-2.5a6.62,6.62,0,0,0-.46-.71"/><path class="cls-35" d="M258.44,34.65h2.5a7.42,7.42,0,0,1,.84,2.25h-2.5a7.42,7.42,0,0,0-.84-2.25"/><path class="cls-34" d="M259.28,36.9h2.5a7.37,7.37,0,0,1,.13.84h-2.5a7.37,7.37,0,0,0-.13-.84"/><path class="cls-33" d="M259.41,37.74h2.5q0,.32,0,.63h-2.5q0-.32,0-.63"/><path class="cls-32" d="M259.44,38.37h2.5v.13c0,.14,0,.27,0,.41h-2.5c0-.14,0-.27,0-.41v-.13"/><path class="cls-31" d="M259.43,38.91h2.5c0,.16,0,.32,0,.47h-2.5c0-.15,0-.31,0-.47"/><path class="cls-30" d="M259.4,39.38h2.5l-.06.44h-2.5l.06-.44"/><path class="cls-29" d="M259.34,39.82h2.5c0,.14,0,.27-.08.41h-2.5c0-.14.05-.27.08-.41"/><path class="cls-28" d="M259.26,40.23h2.5c0,.13-.06.26-.1.39h-2.5c0-.13.07-.26.1-.39"/><path class="cls-27" d="M259.16,40.62h2.5c0,.12-.07.25-.11.37h-2.5c0-.12.08-.25.11-.37"/><path class="cls-26" d="M259.05,41h2.5c0,.13-.09.25-.13.37h-2.5c0-.12.09-.24.13-.37"/><path class="cls-25" d="M258.92,41.36h2.5l-.15.36h-2.5l.15-.36"/><path class="cls-24" d="M258.77,41.72h2.5l-.18.36h-2.5l.18-.36"/><path class="cls-23" d="M258.59,42.08h2.5c-.06.13-.13.25-.2.37h-2.5c.07-.12.14-.24.2-.37"/><path class="cls-22" d="M258.39,42.45h2.5l-.24.37h-2.5l.24-.37"/><path class="cls-21" d="M258.15,42.82h2.5l-.28.39h-2.5l.28-.39"/><path class="cls-20" d="M257.87,43.21h2.5a4.59,4.59,0,0,1-.36.41h-2.5a4.59,4.59,0,0,0,.36-.41"/><path class="cls-19" d="M257.51,43.62H260a5.32,5.32,0,0,1-.48.47H257a5.32,5.32,0,0,0,.48-.47"/><path class="cls-18" d="M257,44.09h2.5a5.5,5.5,0,0,1-3.65,1.41h-2.5A5.5,5.5,0,0,0,257,44.09"/></g></g></g></g><circle class="cls-65" cx="106.53" cy="172.32" r="21.47"/><circle class="cls-65" cx="350.29" cy="165.61" r="28.39"/><circle class="cls-14" cx="350.29" cy="165.61" r="9.39"/><circle class="cls-14" cx="106.53" cy="172.32" r="7.47"/></g></svg>