<svg id="Background" xmlns="http://www.w3.org/2000/svg" viewBox="0 0 480 200"><defs><style>.cls-1{fill:#fff;}.cls-2{fill:#ff1744;}</style></defs><rect class="cls-1" width="480" height="200"/><path class="cls-2" d="M177.53,80.72,161,121.89a2.17,2.17,0,0,1-2,1.63H148.53a2.28,2.28,0,0,1-2-1.63L130.11,80.72a1.11,1.11,0,0,1,1.11-1.63h9.64a2.83,2.83,0,0,1,2.4,1.63l9.94,26.52c.34.9.9.9,1.29,0l9.93-26.52a2.76,2.76,0,0,1,2.4-1.63h9.64A1.11,1.11,0,0,1,177.53,80.72Zm94.12-1.63H262a1.74,1.74,0,0,0-1.76,1.76v41a1.74,1.74,0,0,0,1.76,1.76h9.68a1.77,1.77,0,0,0,1.76-1.76v-41A1.74,1.74,0,0,0,271.65,79.09Zm22.66-17.22h-9.68a1.78,1.78,0,0,0-1.76,1.76V121.8a1.74,1.74,0,0,0,1.76,1.76h9.68a1.77,1.77,0,0,0,1.76-1.76V63.63A1.78,1.78,0,0,0,294.31,61.87Zm-27.46-3.51a7.41,7.41,0,1,0,7.41,7.41A7.44,7.44,0,0,0,266.85,58.36ZM215.23,84.49c3.73,3.94,5.7,9.6,5.7,16.45v2.36a1.65,1.65,0,0,1-1.67,1.67H192c-1.63,0-1.33,1.37-1.33,1.37a10,10,0,0,0,9.94,7.33c3.22,0,5.66-1,7.37-3,.09-.13.3-.34.47-.6a1,1,0,0,1,1.2-.21l8.31,4.15a.75.75,0,0,1,.39,1,5,5,0,0,1-.43.64c-3.64,5.53-9.94,8.7-17.39,8.7a22.47,22.47,0,0,1-15.64-6.09,21.82,21.82,0,0,1-4.93-7.28,26,26,0,0,1-1.79-9.76,25.18,25.18,0,0,1,1.75-9.39,22.15,22.15,0,0,1,4.71-7.19,21.8,21.8,0,0,1,6.82-4.63,20.74,20.74,0,0,1,8-1.63C206,78.45,211.46,80.55,215.23,84.49Zm-6.81,10.28a7.57,7.57,0,0,0-2-3.59,10.15,10.15,0,0,0-13.37.12,8.77,8.77,0,0,0-2.1,3.39s-.55,1.45,1.2,1.45h14.91C208.72,96.14,208.42,94.77,208.42,94.77ZM348.76,79.09h-9.64a2.86,2.86,0,0,0-2.4,1.63l-9.94,26.52c-.34.9-.9.9-1.28,0l-9.94-26.52a2.75,2.75,0,0,0-2.4-1.63h-9.64a1.11,1.11,0,0,0-1.11,1.63l15.2,39.07a52.49,52.49,0,0,1,1.76,5,6.45,6.45,0,0,1-1.41,3.64,3.61,3.61,0,0,1-3,1.72,8.32,8.32,0,0,1-5.14-1.93,1.18,1.18,0,0,0-1.93.51l-3,7.63a1.86,1.86,0,0,0,.65,2.14,16.94,16.94,0,0,0,9.64,3.13,15.49,15.49,0,0,0,8.61-2.53,15.89,15.89,0,0,0,6-7.11l2.65-6.81c.34-.9.9-2.36,1.29-3.26,2.74-6.94,13.36-34.22,16.06-41.16A1.12,1.12,0,0,0,348.76,79.09Zm-96.65-.64a17.55,17.55,0,0,0-5.74,1.84,21.26,21.26,0,0,0-4.88,3.47c-.6.6-1.07.43-1.07-.42V80.59a1.54,1.54,0,0,0-1.54-1.54H228.81a1.53,1.53,0,0,0-1.54,1.54v41.34a1.54,1.54,0,0,0,1.54,1.55h10.07a1.54,1.54,0,0,0,1.54-1.55V104.37c0-4.28.9-7.71,2.7-10.32s4.54-3.9,8.22-3.9h1.2a1.41,1.41,0,0,0,1.2-1.54l0-8.7A1.48,1.48,0,0,0,252.11,78.45Zm-77.62,54H133.58a1.25,1.25,0,0,0-1.24,1.24v2.1a1.24,1.24,0,0,0,1.24,1.24h40.87a1.24,1.24,0,0,0,1.24-1.24v-2.1A1.21,1.21,0,0,0,174.49,132.43Z"/></svg>