<svg id="Layer_1" data-name="Layer 1" xmlns="http://www.w3.org/2000/svg" viewBox="0 0 25.3 25.3"><defs><style>.cls-1{fill:#7e8aa2;}</style></defs><title>link</title><path class="cls-1" d="M17.62,22.87a8.52,8.52,0,0,1-3-.54l-1.3,1.3a3.5,3.5,0,0,1-5-5l3.54-3.54a3.48,3.48,0,0,1,5.87,1.68,2.47,2.47,0,0,0,1.62-.68l1.75-1.75A7.5,7.5,0,0,0,9.07,12.32L5.54,15.85A7.5,7.5,0,0,0,16.15,26.46l3.54-3.54c.13-.13.25-.27.37-.4A8.57,8.57,0,0,1,17.62,22.87Z" transform="translate(-3.35 -3.35)"/><path class="cls-1" d="M26.46,5.54a7.51,7.51,0,0,0-10.61,0L12.32,9.07c-.13.13-.25.27-.37.4a8.57,8.57,0,0,1,2.43-.35,8.47,8.47,0,0,1,3,.55l1.31-1.31a3.5,3.5,0,1,1,5,4.95L20.1,16.85a3.6,3.6,0,0,1-4.95,0h0a3.45,3.45,0,0,1-.93-1.71,2.46,2.46,0,0,0-1.61.71L10.86,17.6a7.5,7.5,0,0,0,12.07,2.08l3.54-3.54A7.51,7.51,0,0,0,26.46,5.54Z" transform="translate(-3.35 -3.35)"/></svg>