<?xml version="1.0" encoding="UTF-8"?><svg id="Layer_1" xmlns="http://www.w3.org/2000/svg" viewBox="0 0 100 100"><defs><style>.cls-1{fill:#fff;}</style></defs><path class="cls-1" d="m60.203,27.048c-3.72,0-6.532,1.424-8.394,4.267l-1.81,3.017-1.81-3.017c-1.862-2.843-4.675-4.267-8.39-4.267-3.216,0-5.803,1.124-7.782,3.316-1.91,2.192-2.865,5.152-2.865,8.881v18.239h7.262v-17.705c0-3.733,1.58-5.625,4.735-5.625,3.49,0,5.239,2.244,5.239,6.689v9.697h7.223v-9.692c0-4.445,1.749-6.689,5.239-6.689,3.156,0,4.735,1.892,4.735,5.621v17.709h7.262v-18.243c0-3.729-.951-6.689-2.869-8.881-1.975-2.192-4.562-3.316-7.774-3.316Z"/><path class="cls-1" d="m92,0H8C3.6,0,0,3.6,0,8v84c0,4.4,3.6,8,8,8h84c4.4,0,8-3.6,8-8V8c0-4.4-3.6-8-8-8Zm-10.837,56.911c-.955,4.896-8.568,10.257-17.318,11.298h.004c-4.562.543-9.05,1.037-13.837.82-7.83-.356-14.011-1.858-14.011-1.858-.002.72.046,1.439.143,2.153,1.02,7.691,7.661,8.151,13.955,8.368,6.354.217,12.01-1.563,12.01-1.563l.26,5.716s-4.445,2.374-12.357,2.808c-4.367.239-9.788-.109-16.099-1.771-13.69-3.603-16.047-18.126-16.407-32.857-.078-3.216-.065-6.298-.048-9.076l.009-2.873c0-15.066,9.918-19.48,9.918-19.48,5-2.287,13.586-3.247,22.514-3.32h.217c8.924.074,17.514,1.033,22.514,3.32,0,0,9.922,4.419,9.922,19.48,0,0,.122,11.116-1.389,18.833Z"/></svg>