<svg id="Layer_1" data-name="Layer 1" xmlns="http://www.w3.org/2000/svg" viewBox="0 0 100 100"><defs><style>.cls-1{fill:#fff;}</style></defs><title>social_icon_twitter</title><path class="cls-1" d="M92,0H8A8,8,0,0,0,0,8V92a8,8,0,0,0,8,8H92a8,8,0,0,0,8-8V8A8,8,0,0,0,92,0ZM74.85,37.27c0,.55,0,1.1,0,1.65C74.88,55.85,62,75.4,38.4,75.4a36.47,36.47,0,0,1-19.62-5.72,24.67,24.67,0,0,0,3,.17,25.71,25.71,0,0,0,15.92-5.5,12.82,12.82,0,0,1-12-8.9,12.89,12.89,0,0,0,5.77-.23A12.85,12.85,0,0,1,21.28,42.65v-.17a13,13,0,0,0,5.8,1.6A12.87,12.87,0,0,1,23.1,27a36.4,36.4,0,0,0,26.43,13.4,14.17,14.17,0,0,1-.33-2.92,12.82,12.82,0,0,1,22.17-8.78,25.5,25.5,0,0,0,8.15-3.1,12.9,12.9,0,0,1-5.65,7.1,26,26,0,0,0,7.38-2A26.12,26.12,0,0,1,74.85,37.27Z"/></svg>